# Blender 3.3.1
# www.blender.org
o rocks-a
v -0.089541 -0.014140 0.579600
v -0.090810 -0.009158 0.302400
v -0.259443 0.033670 0.579600
v -0.255763 0.037259 0.302400
v -0.298041 0.203322 0.302400
v -0.175366 0.322967 0.302400
v -0.302990 0.204714 0.579600
v -0.176634 0.327949 0.579600
v 0.044431 0.330038 0.000000
v -0.010412 0.276549 0.302400
v -0.194266 0.397207 -0.000000
v 0.031866 0.110487 0.302400
v -0.006732 0.280139 0.579600
v 0.036815 0.109094 0.579600
v 0.105610 0.089735 0.000000
v -0.071909 -0.083398 -0.000000
v -0.310606 -0.016229 -0.000000
v -0.371785 0.224073 -0.000000
v -0.104251 0.085933 0.452088
v -0.100868 0.082062 0.235872
v 0.068915 0.120081 0.452088
v 0.067254 0.115216 0.235872
v 0.180027 -0.013806 0.235872
v 0.124678 -0.175981 0.235872
v 0.185071 -0.012811 0.452088
v 0.128061 -0.179851 0.452088
v -0.068188 -0.281636 -0.000000
v -0.043444 -0.209134 0.235872
v 0.175094 -0.233661 0.000000
v -0.156217 -0.080113 0.235872
v -0.045105 -0.213999 0.452088
v -0.161261 -0.081107 0.452088
v -0.231378 -0.094934 -0.000000
v -0.151284 0.139742 -0.000000
v 0.091999 0.187717 0.000000
v 0.255188 0.001016 0.000000
v -0.145429 -0.286892 0.280295
v -0.140431 -0.285690 0.146241
v -0.095367 -0.117639 0.280295
v -0.091827 -0.121367 0.146241
v 0.074782 -0.081297 0.146241
v 0.192788 -0.205550 0.146241
v 0.076240 -0.076367 0.280295
v 0.197786 -0.204348 0.280295
v 0.196940 -0.425422 0.000000
v 0.144185 -0.369873 0.146241
v 0.267272 -0.187637 0.000000
v -0.022425 -0.409943 0.146241
v 0.147725 -0.373601 0.280295
v -0.023883 -0.414872 0.280295
v -0.044153 -0.483405 -0.000000
v -0.214915 -0.303603 -0.000000
v -0.144583 -0.065818 -0.000000
v 0.096511 -0.007835 0.000000
v -0.180757 -0.123670 0.221433
v -0.182271 -0.119901 0.115530
v -0.318798 -0.103997 0.221433
v -0.316291 -0.100801 0.115530
v -0.366760 0.024814 0.115530
v -0.283209 0.131329 0.115530
v -0.370781 0.025387 0.221433
v -0.284723 0.135097 0.221433
v -0.111837 0.159847 -0.000000
v -0.149189 0.112229 0.115530
v -0.305772 0.187486 -0.000000
v -0.098720 -0.013386 0.115530
v -0.146682 0.115424 0.221433
v -0.094699 -0.013959 0.221433
v -0.038805 -0.021925 -0.000000
v -0.159708 -0.176058 -0.000000
v -0.353644 -0.148420 -0.000000
v -0.426675 0.033352 -0.000000
v -0.031534 0.247621 0.221433
v -0.033748 0.251025 0.115530
v -0.170773 0.240219 0.221433
v -0.168932 0.243839 0.115530
v -0.242747 0.357318 0.115530
v -0.181379 0.477984 0.115530
v -0.246803 0.357103 0.221433
v -0.183593 0.481388 0.221433
v -0.018760 0.539114 -0.000000
v -0.046195 0.485170 0.115530
v -0.214378 0.528716 -0.000000
v 0.027620 0.371691 0.115530
v -0.044354 0.488790 0.221433
v 0.031675 0.371906 0.221433
v 0.088055 0.374903 0.000000
v -0.000749 0.200293 -0.000000
v -0.196367 0.189894 -0.000000
v -0.303182 0.354106 -0.000000
v 0.211961 -0.064508 0.221433
v 0.211489 -0.060474 0.115530
v 0.083918 -0.009305 0.221433
v 0.087175 -0.006880 0.115530
v 0.071432 0.127576 0.115530
v 0.180003 0.208438 0.115530
v 0.067703 0.129184 0.221433
v 0.179531 0.212472 0.221433
v 0.352854 0.190993 0.000000
v 0.304317 0.154843 0.115530
v 0.172965 0.268548 0.000000
v 0.320060 0.020388 0.115530
v 0.307574 0.157269 0.221433
v 0.323789 0.018780 0.221433
v 0.375635 -0.003572 0.000000
v 0.218527 -0.120584 0.000000
v 0.038637 -0.043029 0.000000
v 0.015857 0.151536 0.000000
v 0.084142 -0.320003 0.280295
v 0.128107 -0.257766 0.280295
v 0.021905 -0.276037 0.280295
v 0.065870 -0.213800 0.280295
v 0.114832 -0.260050 0.331095
v 0.081858 -0.306727 0.331095
v 0.068154 -0.227075 0.331095
v 0.035180 -0.273753 0.331095
v -0.321919 -0.213484 -0.000000
v -0.343531 -0.286555 -0.000000
v -0.248848 -0.235097 -0.000000
v -0.270461 -0.308168 -0.000000
v -0.331696 -0.280123 0.050800
v -0.315486 -0.225320 0.050800
v -0.276893 -0.296333 0.050800
v -0.260683 -0.241530 0.050800
v 0.217405 0.333684 0.000000
v 0.205649 0.408972 0.000000
v 0.142117 0.321928 0.000000
v 0.130361 0.397215 0.000000
v 0.197707 0.398091 0.050800
v 0.206525 0.341625 0.050800
v 0.141242 0.389274 0.050800
v 0.150059 0.332808 0.050800
v -0.315938 -0.391992 -0.000000
v -0.260228 -0.414273 -0.000000
v -0.293657 -0.336283 -0.000000
v -0.237947 -0.358564 -0.000000
v -0.264407 -0.404525 0.040000
v -0.306189 -0.387814 0.040000
v -0.247696 -0.362742 0.040000
v -0.289478 -0.346032 0.040000
v -0.217191 -0.010187 0.221433
v -0.269458 -0.039653 0.221433
v -0.187725 -0.062453 0.221433
v -0.239992 -0.091919 0.221433
v -0.259241 -0.042503 0.261433
v -0.220041 -0.020403 0.261433
v -0.237142 -0.081702 0.261433
v -0.197942 -0.059603 0.261433
v 0.391139 -0.227950 0.000000
v 0.450611 -0.220005 0.000000
v 0.383195 -0.168478 0.000000
v 0.442666 -0.160533 0.000000
v 0.442184 -0.213564 0.040000
v 0.397580 -0.219523 0.040000
v 0.436226 -0.168960 0.040000
v 0.391622 -0.174919 0.040000
vn -0.7158 -0.6981 -0.0185
vn 0.2467 -0.9689 -0.0185
vn -0.7158 -0.6981 -0.0186
vn -0.9625 0.2708 -0.0186
vn -0.2467 0.9689 -0.0185
vn -0.9625 0.2708 -0.0185
vn -0.2392 0.9394 0.2456
vn 0.6940 0.6768 0.2456
vn -0.9624 0.2708 -0.0185
vn 0.7158 0.6981 -0.0186
vn 0.9624 -0.2708 -0.0185
vn 0.7158 0.6981 -0.0185
vn 0.9331 -0.2626 0.2456
vn -0.0000 -0.0000 -1.0000
vn -0.0000 -0.0000 1.0000
vn -0.9331 0.2626 0.2456
vn -0.2391 0.9394 0.2456
vn 0.2392 -0.9394 0.2456
vn -0.6940 -0.6768 0.2456
vn 0.2391 -0.9394 0.2456
vn -0.2467 0.9689 -0.0186
vn 0.9625 -0.2708 -0.0186
vn 0.9625 -0.2708 -0.0185
vn 0.3229 0.9461 -0.0238
vn -0.6579 0.7527 -0.0238
vn 0.9808 0.1934 -0.0238
vn 0.6579 -0.7527 -0.0238
vn 0.6259 -0.7161 0.3089
vn -0.3072 -0.9001 0.3089
vn -0.3229 -0.9461 -0.0238
vn -0.9808 -0.1934 -0.0238
vn -0.9331 -0.1840 0.3089
vn 0.9331 0.1840 0.3089
vn -0.6259 0.7161 0.3089
vn 0.3072 0.9001 0.3089
vn -0.6881 0.7246 -0.0383
vn -0.9716 -0.2337 -0.0383
vn 0.2834 0.9582 -0.0383
vn 0.9716 0.2336 -0.0383
vn 0.8612 0.2071 0.4641
vn 0.6100 -0.6423 0.4641
vn 0.6100 -0.6423 0.4640
vn 0.8613 0.2072 0.4640
vn 0.6881 -0.7246 -0.0383
vn -0.2834 -0.9582 -0.0383
vn -0.2513 -0.8494 0.4641
vn -0.2513 -0.8494 0.4640
vn 0.2512 0.8494 0.4641
vn 0.8613 0.2071 0.4640
vn 0.2512 0.8495 0.4640
vn -0.8612 -0.2072 0.4641
vn -0.6100 0.6423 0.4641
vn -0.6100 0.6423 0.4640
vn -0.8613 -0.2072 0.4640
vn 0.2513 0.8494 0.4641
vn 0.2513 0.8494 0.4640
vn -0.2512 -0.8494 0.4641
vn -0.8612 -0.2071 0.4641
vn -0.8613 -0.2071 0.4640
vn -0.2512 -0.8495 0.4640
vn 0.9716 0.2337 -0.0383
vn -0.9716 -0.2336 -0.0383
vn -0.6167 -0.7862 -0.0383
vn 0.3726 -0.9272 -0.0383
vn -0.9893 0.1410 -0.0383
vn -0.3725 0.9272 -0.0383
vn -0.3303 0.8219 0.4641
vn 0.5467 0.6970 0.4641
vn 0.5467 0.6970 0.4640
vn -0.3303 0.8220 0.4640
vn 0.6167 0.7862 -0.0383
vn 0.9893 -0.1410 -0.0383
vn 0.8769 -0.1250 0.4641
vn 0.8770 -0.1250 0.4640
vn -0.8769 0.1250 0.4641
vn -0.3302 0.8219 0.4641
vn -0.3302 0.8220 0.4640
vn -0.8770 0.1250 0.4640
vn 0.3303 -0.8219 0.4641
vn -0.5467 -0.6970 0.4641
vn -0.5467 -0.6970 0.4640
vn 0.3303 -0.8220 0.4640
vn 0.3302 -0.8219 0.4641
vn 0.3302 -0.8220 0.4640
vn -0.3726 0.9272 -0.0383
vn 0.3725 -0.9272 -0.0383
vn -0.4530 -0.8907 -0.0383
vn 0.5449 -0.8376 -0.0383
vn -0.9979 -0.0531 -0.0383
vn -0.5449 0.8377 -0.0383
vn -0.4830 0.7425 0.4641
vn 0.4016 0.7895 0.4641
vn 0.4016 0.7896 0.4641
vn 0.4016 0.7896 0.4640
vn -0.4830 0.7425 0.4640
vn -0.9979 -0.0530 -0.0383
vn 0.4530 0.8907 -0.0383
vn 0.9979 0.0530 -0.0383
vn 0.4015 0.7896 0.4641
vn 0.8846 0.0470 0.4641
vn 0.8846 0.0470 0.4640
vn 0.4015 0.7896 0.4640
vn -0.8846 -0.0470 0.4641
vn -0.4830 0.7426 0.4640
vn -0.8846 -0.0470 0.4640
vn 0.4830 -0.7425 0.4641
vn -0.4016 -0.7895 0.4641
vn -0.4016 -0.7896 0.4640
vn 0.4830 -0.7425 0.4640
vn -0.4015 -0.7896 0.4641
vn -0.4015 -0.7896 0.4640
vn 0.4830 -0.7426 0.4640
vn -0.5449 0.8376 -0.0383
vn 0.9979 0.0531 -0.0383
vn 0.5449 -0.8377 -0.0383
vn -0.8014 -0.5969 -0.0383
vn 0.1162 -0.9925 -0.0383
vn -0.9176 0.3956 -0.0383
vn -0.1162 0.9925 -0.0383
vn -0.1030 0.8798 0.4641
vn 0.7104 0.5291 0.4641
vn 0.7104 0.5291 0.4640
vn -0.1030 0.8798 0.4640
vn 0.8014 0.5969 -0.0383
vn 0.9176 -0.3956 -0.0383
vn 0.8134 -0.3507 0.4641
vn 0.8134 -0.3507 0.4640
vn -0.8134 0.3507 0.4641
vn -0.8135 0.3507 0.4640
vn 0.1030 -0.8798 0.4641
vn -0.7104 -0.5291 0.4641
vn -0.7104 -0.5291 0.4640
vn 0.1030 -0.8798 0.4640
vn -0.7105 -0.5291 0.4640
vn -0.8134 0.3507 0.4640
vn 0.8135 -0.3507 0.4640
vn 0.9526 0.1639 0.2563
vn 0.1639 -0.9526 0.2563
vn -0.1639 0.9526 0.2563
vn -0.9526 -0.1639 0.2563
vn -0.8493 -0.4616 0.2563
vn -0.4616 0.8493 0.2563
vn 0.4616 -0.8493 0.2563
vn -0.4615 0.8493 0.2563
vn 0.8493 0.4616 0.2563
vn 0.8493 0.4615 0.2563
vn 0.5699 0.7807 0.2563
vn 0.7808 -0.5699 0.2563
vn 0.5699 0.7808 0.2563
vn 0.7808 -0.5698 0.2563
vn -0.7807 0.5699 0.2563
vn -0.7808 0.5699 0.2563
vn 0.5698 0.7808 0.2563
vn 0.7807 -0.5699 0.2563
vn -0.5699 -0.7808 0.2563
vn -0.5698 -0.7808 0.2563
vn -0.7808 0.5698 0.2563
vn -0.5699 -0.7807 0.2563
vn 0.3808 -0.8884 0.2563
vn -0.8884 -0.3808 0.2563
vn 0.8884 0.3808 0.2563
vn -0.3808 0.8884 0.2563
vn -0.9310 0.2597 0.2563
vn 0.2597 0.9311 0.2563
vn -0.9311 0.2597 0.2563
vn 0.2597 0.9310 0.2563
vn -0.2597 -0.9310 0.2563
vn -0.2597 -0.9311 0.2563
vn 0.9311 -0.2597 0.2563
vn 0.9310 -0.2597 0.2563
vn 0.7680 -0.5870 0.2563
vn -0.5870 -0.7680 0.2563
vn 0.5870 0.7680 0.2563
vn -0.7680 0.5870 0.2563
vt 0.343750 0.194464
vt 0.343750 0.132358
vt 0.343750 0.194464
vt 0.343750 0.132358
vt 0.343750 0.132358
vt 0.343750 0.132358
vt 0.343750 0.194464
vt 0.343750 0.194464
vt 0.343750 0.064605
vt 0.343750 0.132358
vt 0.343750 0.064605
vt 0.343750 0.132358
vt 0.343750 0.194464
vt 0.343750 0.194464
vt 0.343750 0.064605
vt 0.343750 0.064605
vt 0.343750 0.064605
vt 0.343750 0.064605
vt 0.343750 0.113085
vt 0.343750 0.133955
vt 0.343750 0.113085
vt 0.343750 0.133955
vt 0.343750 0.133955
vt 0.343750 0.133955
vt 0.343750 0.113085
vt 0.343750 0.113085
vt 0.343750 0.156721
vt 0.343750 0.133955
vt 0.343750 0.156721
vt 0.343750 0.133955
vt 0.343750 0.113085
vt 0.343750 0.113085
vt 0.343750 0.156721
vt 0.343750 0.156721
vt 0.343750 0.156721
vt 0.343750 0.156721
vt 0.343750 0.148912
vt 0.343750 0.148613
vt 0.343750 0.148912
vt 0.343750 0.148613
vt 0.343750 0.148613
vt 0.343750 0.148613
vt 0.343750 0.148912
vt 0.343750 0.148912
vt 0.343750 0.148287
vt 0.343750 0.148613
vt 0.343750 0.148287
vt 0.343750 0.148613
vt 0.343750 0.148912
vt 0.343750 0.148912
vt 0.343750 0.148287
vt 0.343750 0.148287
vt 0.343750 0.148287
vt 0.343750 0.148287
vt 0.343750 0.137179
vt 0.343750 0.129814
vt 0.343750 0.137179
vt 0.343750 0.129814
vt 0.343750 0.129814
vt 0.343750 0.129814
vt 0.343750 0.137179
vt 0.343750 0.137179
vt 0.343750 0.121780
vt 0.343750 0.129814
vt 0.343750 0.121780
vt 0.343750 0.129814
vt 0.343750 0.137179
vt 0.343750 0.137179
vt 0.343750 0.121780
vt 0.343750 0.121780
vt 0.343750 0.121780
vt 0.343750 0.121780
vt 0.343750 0.182514
vt 0.343750 0.140207
vt 0.343750 0.182514
vt 0.343750 0.140207
vt 0.343750 0.140207
vt 0.343750 0.140207
vt 0.343750 0.182514
vt 0.343750 0.182514
vt 0.343750 0.094054
vt 0.343750 0.140207
vt 0.343750 0.094054
vt 0.343750 0.140207
vt 0.343750 0.182514
vt 0.343750 0.182514
vt 0.343750 0.094054
vt 0.343750 0.094054
vt 0.343750 0.094054
vt 0.343750 0.094054
vt 0.343750 0.205906
vt 0.343750 0.144563
vt 0.343750 0.205906
vt 0.343750 0.144563
vt 0.343750 0.144563
vt 0.343750 0.144563
vt 0.343750 0.205906
vt 0.343750 0.205906
vt 0.343750 0.077643
vt 0.343750 0.144563
vt 0.343750 0.077643
vt 0.343750 0.144563
vt 0.343750 0.205906
vt 0.343750 0.205906
vt 0.343750 0.077643
vt 0.343750 0.077643
vt 0.343750 0.077643
vt 0.343750 0.077643
vt 0.343750 0.075000
vt 0.343750 0.075000
vt 0.343750 0.075000
vt 0.343750 0.075000
vt 0.343750 0.175000
vt 0.343750 0.175000
vt 0.343750 0.175000
vt 0.343750 0.175000
vt 0.343750 0.075000
vt 0.343750 0.075000
vt 0.343750 0.075000
vt 0.343750 0.075000
vt 0.343750 0.175000
vt 0.343750 0.175000
vt 0.343750 0.175000
vt 0.343750 0.175000
vt 0.343750 0.075000
vt 0.343750 0.075000
vt 0.343750 0.075000
vt 0.343750 0.075000
vt 0.343750 0.175000
vt 0.343750 0.175000
vt 0.343750 0.175000
vt 0.343750 0.175000
vt 0.343750 0.075000
vt 0.343750 0.075000
vt 0.343750 0.075000
vt 0.343750 0.075000
vt 0.343750 0.175000
vt 0.343750 0.175000
vt 0.343750 0.175000
vt 0.343750 0.175000
vt 0.343750 0.075000
vt 0.343750 0.075000
vt 0.343750 0.075000
vt 0.343750 0.075000
vt 0.343750 0.175000
vt 0.343750 0.175000
vt 0.343750 0.175000
vt 0.343750 0.175000
vt 0.343750 0.075000
vt 0.343750 0.075000
vt 0.343750 0.075000
vt 0.343750 0.075000
vt 0.343750 0.175000
vt 0.343750 0.175000
vt 0.343750 0.175000
vt 0.343750 0.175000
s 0
f 3/3/1 2/2/2 1/1/2
f 2/2/2 3/3/3 4/4/3
f 7/7/4 6/6/5 5/5/4
f 6/6/5 7/7/6 8/8/5
f 11/11/7 10/10/8 9/9/8
f 10/10/8 11/11/7 6/6/7
f 3/3/3 5/5/9 4/4/3
f 5/5/9 3/3/1 7/7/9
f 13/13/10 12/12/11 10/10/10
f 12/12/11 13/13/12 14/14/11
f 10/10/8 15/15/13 9/9/8
f 15/15/13 10/10/8 12/12/13
f 17/17/14 15/15/14 16/16/14
f 15/15/14 17/17/14 18/18/14
f 15/15/14 18/18/14 11/11/14
f 15/15/14 11/11/14 9/9/14
f 14/14/15 3/3/15 1/1/15
f 3/3/15 14/14/15 7/7/15
f 7/7/15 14/14/15 13/13/15
f 7/7/15 13/13/15 8/8/15
f 5/5/16 11/11/17 18/18/16
f 11/11/17 5/5/16 6/6/17
f 2/2/18 17/17/19 16/16/18
f 17/17/19 2/2/18 4/4/19
f 4/4/19 18/18/16 17/17/19
f 18/18/16 4/4/19 5/5/16
f 12/12/13 16/16/20 15/15/13
f 16/16/20 12/12/13 2/2/20
f 10/10/12 8/8/5 13/13/12
f 8/8/21 10/10/12 6/6/21
f 14/14/22 2/2/2 12/12/22
f 2/2/2 14/14/23 1/1/2
f 21/21/24 20/20/25 19/19/25
f 20/20/25 21/21/24 22/22/24
f 25/25/26 24/24/27 23/23/26
f 24/24/27 25/25/26 26/26/27
f 29/29/28 28/28/29 27/27/29
f 28/28/29 29/29/28 24/24/28
f 21/21/24 23/23/26 22/22/24
f 23/23/26 21/21/24 25/25/26
f 31/31/30 30/30/31 28/28/30
f 30/30/31 31/31/30 32/32/31
f 28/28/29 33/33/32 27/27/29
f 33/33/32 28/28/29 30/30/32
f 35/35/14 33/33/14 34/34/14
f 33/33/14 35/35/14 36/36/14
f 33/33/14 36/36/14 29/29/14
f 33/33/14 29/29/14 27/27/14
f 32/32/15 21/21/15 19/19/15
f 21/21/15 32/32/15 25/25/15
f 25/25/15 32/32/15 31/31/15
f 25/25/15 31/31/15 26/26/15
f 23/23/33 29/29/28 36/36/33
f 29/29/28 23/23/33 24/24/28
f 20/20/34 35/35/35 34/34/34
f 35/35/35 20/20/34 22/22/35
f 22/22/35 36/36/33 35/35/35
f 36/36/33 22/22/35 23/23/33
f 30/30/32 34/34/34 33/33/32
f 34/34/34 30/30/32 20/20/34
f 28/28/30 26/26/27 31/31/30
f 26/26/27 28/28/30 24/24/27
f 32/32/31 20/20/25 30/30/31
f 20/20/25 32/32/31 19/19/25
f 39/39/36 38/38/37 37/37/37
f 38/38/37 39/39/36 40/40/36
f 43/43/38 42/42/39 41/41/38
f 42/42/39 43/43/38 44/44/39
f 47/47/40 46/46/41 45/45/41
f 46/46/42 47/47/43 42/42/43
f 39/39/36 41/41/38 40/40/36
f 41/41/38 39/39/36 43/43/38
f 49/49/44 48/48/45 46/46/44
f 48/48/45 49/49/44 50/50/45
f 46/46/41 51/51/46 45/45/41
f 51/51/47 46/46/42 48/48/47
f 53/53/14 51/51/14 52/52/14
f 51/51/14 53/53/14 54/54/14
f 51/51/14 54/54/14 47/47/14
f 51/51/14 47/47/14 45/45/14
f 50/50/15 39/39/15 37/37/15
f 39/39/15 50/50/15 43/43/15
f 43/43/15 50/50/15 49/49/15
f 43/43/15 49/49/15 44/44/15
f 41/41/48 47/47/40 54/54/48
f 47/47/49 41/41/50 42/42/49
f 38/38/51 53/53/52 52/52/51
f 53/53/53 38/38/54 40/40/53
f 40/40/52 54/54/55 53/53/52
f 54/54/56 40/40/53 41/41/56
f 48/48/57 52/52/58 51/51/57
f 52/52/59 48/48/60 38/38/59
f 46/46/44 44/44/61 49/49/44
f 44/44/61 46/46/44 42/42/61
f 50/50/45 38/38/62 48/48/45
f 38/38/62 50/50/45 37/37/62
f 57/57/63 56/56/64 55/55/64
f 56/56/64 57/57/63 58/58/63
f 61/61/65 60/60/66 59/59/65
f 60/60/66 61/61/65 62/62/66
f 65/65/67 64/64/68 63/63/68
f 64/64/69 65/65/70 60/60/70
f 57/57/63 59/59/65 58/58/63
f 59/59/65 57/57/63 61/61/65
f 67/67/71 66/66/72 64/64/71
f 66/66/72 67/67/71 68/68/72
f 64/64/68 69/69/73 63/63/68
f 69/69/74 64/64/69 66/66/74
f 71/71/14 69/69/14 70/70/14
f 69/69/14 71/71/14 72/72/14
f 69/69/14 72/72/14 65/65/14
f 69/69/14 65/65/14 63/63/14
f 68/68/15 57/57/15 55/55/15
f 57/57/15 68/68/15 61/61/15
f 61/61/15 68/68/15 67/67/15
f 61/61/15 67/67/15 62/62/15
f 59/59/75 65/65/76 72/72/75
f 65/65/77 59/59/78 60/60/77
f 56/56/79 71/71/80 70/70/79
f 71/71/81 56/56/82 58/58/81
f 58/58/80 72/72/75 71/71/80
f 72/72/78 58/58/81 59/59/78
f 66/66/73 70/70/83 69/69/73
f 70/70/84 66/66/74 56/56/84
f 64/64/71 62/62/85 67/67/71
f 62/62/85 64/64/71 60/60/85
f 68/68/72 56/56/86 66/66/72
f 56/56/86 68/68/72 55/55/86
f 75/75/87 74/74/88 73/73/88
f 74/74/88 75/75/87 76/76/87
f 79/79/89 78/78/90 77/77/89
f 78/78/90 79/79/89 80/80/90
f 83/83/91 82/82/92 81/81/93
f 82/82/94 83/83/95 78/78/95
f 75/75/87 77/77/96 76/76/87
f 77/77/96 75/75/87 79/79/96
f 85/85/97 84/84/98 82/82/97
f 84/84/98 85/85/97 86/86/98
f 82/82/99 87/87/100 81/81/99
f 87/87/101 82/82/102 84/84/101
f 89/89/14 87/87/14 88/88/14
f 87/87/14 89/89/14 90/90/14
f 87/87/14 90/90/14 83/83/14
f 87/87/14 83/83/14 81/81/14
f 86/86/15 75/75/15 73/73/15
f 75/75/15 86/86/15 79/79/15
f 79/79/15 86/86/15 85/85/15
f 79/79/15 85/85/15 80/80/15
f 77/77/103 83/83/91 90/90/103
f 83/83/104 77/77/105 78/78/104
f 74/74/106 89/89/107 88/88/106
f 89/89/108 74/74/109 76/76/108
f 76/76/110 90/90/103 89/89/110
f 90/90/105 76/76/111 77/77/105
f 84/84/100 88/88/106 87/87/100
f 88/88/112 84/84/101 74/74/112
f 82/82/97 80/80/113 85/85/97
f 80/80/113 82/82/97 78/78/113
f 86/86/114 74/74/115 84/84/114
f 74/74/115 86/86/114 73/73/115
f 93/93/116 92/92/117 91/91/117
f 92/92/117 93/93/116 94/94/116
f 97/97/118 96/96/119 95/95/118
f 96/96/119 97/97/118 98/98/119
f 101/101/120 100/100/121 99/99/121
f 100/100/122 101/101/123 96/96/123
f 93/93/116 95/95/118 94/94/116
f 95/95/118 93/93/116 97/97/118
f 103/103/124 102/102/125 100/100/124
f 102/102/125 103/103/124 104/104/125
f 100/100/121 105/105/126 99/99/121
f 105/105/127 100/100/122 102/102/127
f 107/107/14 105/105/14 106/106/14
f 105/105/14 107/107/14 108/108/14
f 105/105/14 108/108/14 101/101/14
f 105/105/14 101/101/14 99/99/14
f 104/104/15 93/93/15 91/91/15
f 93/93/15 104/104/15 97/97/15
f 97/97/15 104/104/15 103/103/15
f 97/97/15 103/103/15 98/98/15
f 95/95/128 101/101/120 108/108/128
f 101/101/123 95/95/129 96/96/123
f 92/92/130 107/107/131 106/106/130
f 107/107/132 92/92/133 94/94/134
f 94/94/131 108/108/128 107/107/131
f 108/108/135 94/94/132 95/95/135
f 102/102/126 106/106/130 105/105/126
f 106/106/133 102/102/136 92/92/133
f 100/100/124 98/98/119 103/103/124
f 98/98/119 100/100/124 96/96/119
f 104/104/125 92/92/117 102/102/125
f 92/92/117 104/104/125 91/91/117
f 111/111/14 110/110/14 109/109/14
f 110/110/14 111/111/14 112/112/14
f 115/115/15 114/114/15 113/113/15
f 114/114/15 115/115/15 116/116/15
f 113/113/137 109/109/138 110/110/137
f 109/109/138 113/113/137 114/114/138
f 115/115/139 110/110/137 112/112/139
f 110/110/137 115/115/139 113/113/137
f 114/114/138 111/111/140 109/109/138
f 111/111/140 114/114/138 116/116/140
f 111/111/140 115/115/139 112/112/139
f 115/115/139 111/111/140 116/116/140
f 119/119/14 118/118/14 117/117/14
f 118/118/14 119/119/14 120/120/14
f 123/123/15 122/122/15 121/121/15
f 122/122/15 123/123/15 124/124/15
f 121/121/141 117/117/142 118/118/141
f 117/117/142 121/121/141 122/122/142
f 123/123/143 118/118/141 120/120/143
f 118/118/141 123/123/143 121/121/141
f 122/122/144 119/119/145 117/117/142
f 119/119/145 122/122/142 124/124/145
f 119/119/145 123/123/143 120/120/143
f 123/123/143 119/119/146 124/124/146
f 127/127/14 126/126/14 125/125/14
f 126/126/14 127/127/14 128/128/14
f 131/131/15 130/130/15 129/129/15
f 130/130/15 131/131/15 132/132/15
f 129/129/147 125/125/148 126/126/149
f 125/125/150 129/129/149 130/130/150
f 131/131/151 126/126/149 128/128/152
f 126/126/153 131/131/152 129/129/153
f 130/130/154 127/127/155 125/125/148
f 127/127/156 130/130/148 132/132/156
f 127/127/155 131/131/157 128/128/152
f 131/131/152 127/127/158 132/132/158
f 135/135/14 134/134/14 133/133/14
f 134/134/14 135/135/14 136/136/14
f 139/139/15 138/138/15 137/137/15
f 138/138/15 139/139/15 140/140/15
f 137/137/159 133/133/160 134/134/159
f 133/133/160 137/137/159 138/138/160
f 139/139/161 134/134/159 136/136/161
f 134/134/159 139/139/161 137/137/159
f 138/138/160 135/135/162 133/133/160
f 135/135/162 138/138/160 140/140/162
f 135/135/162 139/139/161 136/136/161
f 139/139/161 135/135/162 140/140/162
f 143/143/14 142/142/14 141/141/14
f 142/142/14 143/143/14 144/144/14
f 147/147/15 146/146/15 145/145/15
f 146/146/15 147/147/15 148/148/15
f 145/145/163 141/141/164 142/142/165
f 141/141/166 145/145/165 146/146/166
f 147/147/167 142/142/165 144/144/168
f 142/142/163 147/147/168 145/145/163
f 146/146/166 143/143/169 141/141/164
f 143/143/170 146/146/164 148/148/170
f 143/143/169 147/147/168 144/144/168
f 147/147/168 143/143/170 148/148/170
f 151/151/14 150/150/14 149/149/14
f 150/150/14 151/151/14 152/152/14
f 155/155/15 154/154/15 153/153/15
f 154/154/15 155/155/15 156/156/15
f 153/153/171 149/149/172 150/150/171
f 149/149/172 153/153/171 154/154/172
f 155/155/173 150/150/171 152/152/173
f 150/150/171 155/155/173 153/153/171
f 154/154/172 151/151/174 149/149/172
f 151/151/174 154/154/172 156/156/174
f 151/151/174 155/155/173 152/152/173
f 155/155/173 151/151/174 156/156/174
f 3/3/1 2/2/2 1/1/2
f 2/2/2 3/3/3 4/4/3
f 7/7/4 6/6/5 5/5/4
f 6/6/5 7/7/6 8/8/5
f 11/11/7 10/10/8 9/9/8
f 10/10/8 11/11/7 6/6/7
f 3/3/3 5/5/9 4/4/3
f 5/5/9 3/3/1 7/7/9
f 13/13/10 12/12/11 10/10/10
f 12/12/11 13/13/12 14/14/11
f 10/10/8 15/15/13 9/9/8
f 15/15/13 10/10/8 12/12/13
f 17/17/14 15/15/14 16/16/14
f 15/15/14 17/17/14 18/18/14
f 15/15/14 18/18/14 11/11/14
f 15/15/14 11/11/14 9/9/14
f 14/14/15 3/3/15 1/1/15
f 3/3/15 14/14/15 7/7/15
f 7/7/15 14/14/15 13/13/15
f 7/7/15 13/13/15 8/8/15
f 5/5/16 11/11/17 18/18/16
f 11/11/17 5/5/16 6/6/17
f 2/2/18 17/17/19 16/16/18
f 17/17/19 2/2/18 4/4/19
f 4/4/19 18/18/16 17/17/19
f 18/18/16 4/4/19 5/5/16
f 12/12/13 16/16/20 15/15/13
f 16/16/20 12/12/13 2/2/20
f 10/10/12 8/8/5 13/13/12
f 8/8/21 10/10/12 6/6/21
f 14/14/22 2/2/2 12/12/22
f 2/2/2 14/14/23 1/1/2
f 21/21/24 20/20/25 19/19/25
f 20/20/25 21/21/24 22/22/24
f 25/25/26 24/24/27 23/23/26
f 24/24/27 25/25/26 26/26/27
f 29/29/28 28/28/29 27/27/29
f 28/28/29 29/29/28 24/24/28
f 21/21/24 23/23/26 22/22/24
f 23/23/26 21/21/24 25/25/26
f 31/31/30 30/30/31 28/28/30
f 30/30/31 31/31/30 32/32/31
f 28/28/29 33/33/32 27/27/29
f 33/33/32 28/28/29 30/30/32
f 35/35/14 33/33/14 34/34/14
f 33/33/14 35/35/14 36/36/14
f 33/33/14 36/36/14 29/29/14
f 33/33/14 29/29/14 27/27/14
f 32/32/15 21/21/15 19/19/15
f 21/21/15 32/32/15 25/25/15
f 25/25/15 32/32/15 31/31/15
f 25/25/15 31/31/15 26/26/15
f 23/23/33 29/29/28 36/36/33
f 29/29/28 23/23/33 24/24/28
f 20/20/34 35/35/35 34/34/34
f 35/35/35 20/20/34 22/22/35
f 22/22/35 36/36/33 35/35/35
f 36/36/33 22/22/35 23/23/33
f 30/30/32 34/34/34 33/33/32
f 34/34/34 30/30/32 20/20/34
f 28/28/30 26/26/27 31/31/30
f 26/26/27 28/28/30 24/24/27
f 32/32/31 20/20/25 30/30/31
f 20/20/25 32/32/31 19/19/25
f 39/39/36 38/38/37 37/37/37
f 38/38/37 39/39/36 40/40/36
f 43/43/38 42/42/39 41/41/38
f 42/42/39 43/43/38 44/44/39
f 47/47/40 46/46/41 45/45/41
f 46/46/42 47/47/43 42/42/43
f 39/39/36 41/41/38 40/40/36
f 41/41/38 39/39/36 43/43/38
f 49/49/44 48/48/45 46/46/44
f 48/48/45 49/49/44 50/50/45
f 46/46/41 51/51/46 45/45/41
f 51/51/47 46/46/42 48/48/47
f 53/53/14 51/51/14 52/52/14
f 51/51/14 53/53/14 54/54/14
f 51/51/14 54/54/14 47/47/14
f 51/51/14 47/47/14 45/45/14
f 50/50/15 39/39/15 37/37/15
f 39/39/15 50/50/15 43/43/15
f 43/43/15 50/50/15 49/49/15
f 43/43/15 49/49/15 44/44/15
f 41/41/48 47/47/40 54/54/48
f 47/47/49 41/41/50 42/42/49
f 38/38/51 53/53/52 52/52/51
f 53/53/53 38/38/54 40/40/53
f 40/40/52 54/54/55 53/53/52
f 54/54/56 40/40/53 41/41/56
f 48/48/57 52/52/58 51/51/57
f 52/52/59 48/48/60 38/38/59
f 46/46/44 44/44/61 49/49/44
f 44/44/61 46/46/44 42/42/61
f 50/50/45 38/38/62 48/48/45
f 38/38/62 50/50/45 37/37/62
f 57/57/63 56/56/64 55/55/64
f 56/56/64 57/57/63 58/58/63
f 61/61/65 60/60/66 59/59/65
f 60/60/66 61/61/65 62/62/66
f 65/65/67 64/64/68 63/63/68
f 64/64/69 65/65/70 60/60/70
f 57/57/63 59/59/65 58/58/63
f 59/59/65 57/57/63 61/61/65
f 67/67/71 66/66/72 64/64/71
f 66/66/72 67/67/71 68/68/72
f 64/64/68 69/69/73 63/63/68
f 69/69/74 64/64/69 66/66/74
f 71/71/14 69/69/14 70/70/14
f 69/69/14 71/71/14 72/72/14
f 69/69/14 72/72/14 65/65/14
f 69/69/14 65/65/14 63/63/14
f 68/68/15 57/57/15 55/55/15
f 57/57/15 68/68/15 61/61/15
f 61/61/15 68/68/15 67/67/15
f 61/61/15 67/67/15 62/62/15
f 59/59/75 65/65/76 72/72/75
f 65/65/77 59/59/78 60/60/77
f 56/56/79 71/71/80 70/70/79
f 71/71/81 56/56/82 58/58/81
f 58/58/80 72/72/75 71/71/80
f 72/72/78 58/58/81 59/59/78
f 66/66/73 70/70/83 69/69/73
f 70/70/84 66/66/74 56/56/84
f 64/64/71 62/62/85 67/67/71
f 62/62/85 64/64/71 60/60/85
f 68/68/72 56/56/86 66/66/72
f 56/56/86 68/68/72 55/55/86
f 75/75/87 74/74/88 73/73/88
f 74/74/88 75/75/87 76/76/87
f 79/79/89 78/78/90 77/77/89
f 78/78/90 79/79/89 80/80/90
f 83/83/91 82/82/92 81/81/93
f 82/82/94 83/83/95 78/78/95
f 75/75/87 77/77/96 76/76/87
f 77/77/96 75/75/87 79/79/96
f 85/85/97 84/84/98 82/82/97
f 84/84/98 85/85/97 86/86/98
f 82/82/99 87/87/100 81/81/99
f 87/87/101 82/82/102 84/84/101
f 89/89/14 87/87/14 88/88/14
f 87/87/14 89/89/14 90/90/14
f 87/87/14 90/90/14 83/83/14
f 87/87/14 83/83/14 81/81/14
f 86/86/15 75/75/15 73/73/15
f 75/75/15 86/86/15 79/79/15
f 79/79/15 86/86/15 85/85/15
f 79/79/15 85/85/15 80/80/15
f 77/77/103 83/83/91 90/90/103
f 83/83/104 77/77/105 78/78/104
f 74/74/106 89/89/107 88/88/106
f 89/89/108 74/74/109 76/76/108
f 76/76/110 90/90/103 89/89/110
f 90/90/105 76/76/111 77/77/105
f 84/84/100 88/88/106 87/87/100
f 88/88/112 84/84/101 74/74/112
f 82/82/97 80/80/113 85/85/97
f 80/80/113 82/82/97 78/78/113
f 86/86/114 74/74/115 84/84/114
f 74/74/115 86/86/114 73/73/115
f 93/93/116 92/92/117 91/91/117
f 92/92/117 93/93/116 94/94/116
f 97/97/118 96/96/119 95/95/118
f 96/96/119 97/97/118 98/98/119
f 101/101/120 100/100/121 99/99/121
f 100/100/122 101/101/123 96/96/123
f 93/93/116 95/95/118 94/94/116
f 95/95/118 93/93/116 97/97/118
f 103/103/124 102/102/125 100/100/124
f 102/102/125 103/103/124 104/104/125
f 100/100/121 105/105/126 99/99/121
f 105/105/127 100/100/122 102/102/127
f 107/107/14 105/105/14 106/106/14
f 105/105/14 107/107/14 108/108/14
f 105/105/14 108/108/14 101/101/14
f 105/105/14 101/101/14 99/99/14
f 104/104/15 93/93/15 91/91/15
f 93/93/15 104/104/15 97/97/15
f 97/97/15 104/104/15 103/103/15
f 97/97/15 103/103/15 98/98/15
f 95/95/128 101/101/120 108/108/128
f 101/101/123 95/95/129 96/96/123
f 92/92/130 107/107/131 106/106/130
f 107/107/132 92/92/133 94/94/134
f 94/94/131 108/108/128 107/107/131
f 108/108/135 94/94/132 95/95/135
f 102/102/126 106/106/130 105/105/126
f 106/106/133 102/102/136 92/92/133
f 100/100/124 98/98/119 103/103/124
f 98/98/119 100/100/124 96/96/119
f 104/104/125 92/92/117 102/102/125
f 92/92/117 104/104/125 91/91/117
f 111/111/14 110/110/14 109/109/14
f 110/110/14 111/111/14 112/112/14
f 115/115/15 114/114/15 113/113/15
f 114/114/15 115/115/15 116/116/15
f 113/113/137 109/109/138 110/110/137
f 109/109/138 113/113/137 114/114/138
f 115/115/139 110/110/137 112/112/139
f 110/110/137 115/115/139 113/113/137
f 114/114/138 111/111/140 109/109/138
f 111/111/140 114/114/138 116/116/140
f 111/111/140 115/115/139 112/112/139
f 115/115/139 111/111/140 116/116/140
f 119/119/14 118/118/14 117/117/14
f 118/118/14 119/119/14 120/120/14
f 123/123/15 122/122/15 121/121/15
f 122/122/15 123/123/15 124/124/15
f 121/121/141 117/117/142 118/118/141
f 117/117/142 121/121/141 122/122/142
f 123/123/143 118/118/141 120/120/143
f 118/118/141 123/123/143 121/121/141
f 122/122/144 119/119/145 117/117/142
f 119/119/145 122/122/142 124/124/145
f 119/119/145 123/123/143 120/120/143
f 123/123/143 119/119/146 124/124/146
f 127/127/14 126/126/14 125/125/14
f 126/126/14 127/127/14 128/128/14
f 131/131/15 130/130/15 129/129/15
f 130/130/15 131/131/15 132/132/15
f 129/129/147 125/125/148 126/126/149
f 125/125/150 129/129/149 130/130/150
f 131/131/151 126/126/149 128/128/152
f 126/126/153 131/131/152 129/129/153
f 130/130/154 127/127/155 125/125/148
f 127/127/156 130/130/148 132/132/156
f 127/127/155 131/131/157 128/128/152
f 131/131/152 127/127/158 132/132/158
f 135/135/14 134/134/14 133/133/14
f 134/134/14 135/135/14 136/136/14
f 139/139/15 138/138/15 137/137/15
f 138/138/15 139/139/15 140/140/15
f 137/137/159 133/133/160 134/134/159
f 133/133/160 137/137/159 138/138/160
f 139/139/161 134/134/159 136/136/161
f 134/134/159 139/139/161 137/137/159
f 138/138/160 135/135/162 133/133/160
f 135/135/162 138/138/160 140/140/162
f 135/135/162 139/139/161 136/136/161
f 139/139/161 135/135/162 140/140/162
f 143/143/14 142/142/14 141/141/14
f 142/142/14 143/143/14 144/144/14
f 147/147/15 146/146/15 145/145/15
f 146/146/15 147/147/15 148/148/15
f 145/145/163 141/141/164 142/142/165
f 141/141/166 145/145/165 146/146/166
f 147/147/167 142/142/165 144/144/168
f 142/142/163 147/147/168 145/145/163
f 146/146/166 143/143/169 141/141/164
f 143/143/170 146/146/164 148/148/170
f 143/143/169 147/147/168 144/144/168
f 147/147/168 143/143/170 148/148/170
f 151/151/14 150/150/14 149/149/14
f 150/150/14 151/151/14 152/152/14
f 155/155/15 154/154/15 153/153/15
f 154/154/15 155/155/15 156/156/15
f 153/153/171 149/149/172 150/150/171
f 149/149/172 153/153/171 154/154/172
f 155/155/173 150/150/171 152/152/173
f 150/150/171 155/155/173 153/153/171
f 154/154/172 151/151/174 149/149/172
f 151/151/174 154/154/172 156/156/174
f 151/151/174 155/155/173 152/152/173
f 155/155/173 151/151/174 156/156/174
