# Blender 5.1.1
# www.blender.org
mtllib camp_ice.mtl
o campfire-pit
v 0.241551 -0.049490 0.091420
v 0.235953 -0.049490 0.091420
v 0.238752 -0.046691 0.091420
v -0.135329 -0.013093 0.000000
v -0.163837 -0.018893 0.095774
v -0.214008 0.038984 0.000000
v -0.256597 0.042504 0.095774
v -0.257983 0.049316 0.072886
v 0.076829 0.096179 -0.000000
v 0.098001 0.196650 -0.000000
v 0.105343 0.114768 0.132429
v 0.127932 0.223089 0.131148
v 0.132180 0.242119 0.132429
v 0.123155 0.255963 0.068132
v -0.192709 -0.099785 0.000000
v -0.224998 -0.112811 0.091883
v -0.225233 -0.111653 0.095774
v 0.232694 0.087930 0.132429
v 0.259532 0.215282 0.132429
v -0.033360 -0.142414 0.000000
v 0.031451 -0.215928 -0.000000
v -0.035187 -0.171449 0.087125
v 0.045945 -0.255366 0.064414
v 0.038376 -0.254890 0.087125
v 0.346501 -0.136113 -0.000000
v 0.238752 -0.243862 -0.000000
v 0.317409 -0.136113 0.145112
v 0.238752 -0.214770 0.145112
v 0.160095 -0.136113 0.145112
v 0.238752 -0.057456 0.145112
v 0.288046 0.233870 -0.000000
v 0.126736 0.267863 -0.000000
v 0.256109 0.082319 -0.000000
v 0.243982 0.070615 0.052013
v -0.046891 -0.357488 0.000000
v 0.031451 -0.288421 -0.000000
v -0.139745 -0.252166 0.000000
v 0.183831 -0.188942 -0.000000
v 0.183831 -0.289955 -0.000000
v 0.031451 -0.289955 -0.000000
v 0.031451 -0.137574 -0.000000
v 0.132464 -0.137574 -0.000000
v 0.131002 -0.136113 -0.000000
v 0.197053 -0.070062 -0.000000
v 0.280450 -0.070062 -0.000000
v 0.163022 0.078016 -0.000000
v 0.163022 -0.070062 -0.000000
v 0.315403 -0.070062 -0.000000
v 0.315403 0.082319 -0.000000
v -0.017130 0.217564 0.000000
v 0.003533 0.161706 -0.000000
v -0.039363 0.277670 0.000000
v 0.093583 0.357488 -0.000000
v -0.049333 0.304622 0.000000
v -0.150781 0.307524 0.000000
v -0.181906 0.191365 0.000000
v -0.136526 0.145948 0.000000
v -0.043032 0.120896 0.000000
v -0.288907 0.191365 0.000000
v -0.136526 0.038984 0.000000
v -0.283596 0.038984 0.000000
v -0.288907 0.038984 0.000000
v -0.346501 -0.056056 0.000000
v -0.260310 -0.113105 0.000000
v -0.107930 -0.099785 0.000000
v -0.107930 -0.208156 0.000000
v -0.260310 -0.252166 0.000000
v 0.165687 0.079654 0.011845
v -0.057578 0.146091 0.072222
v -0.146764 0.169988 0.072222
v -0.028787 0.253539 0.072222
v -0.146764 0.181126 0.072222
v -0.165026 0.174881 0.072222
v -0.163352 0.181126 0.072222
v -0.136235 0.282329 0.072222
v 0.166063 -0.155343 0.078963
v -0.045065 -0.328453 0.087125
v -0.317993 -0.050256 0.095774
v -0.024391 0.256077 0.059618
v -0.118628 -0.245012 0.087125
v -0.254130 -0.105966 0.043599
v -0.129272 -0.244343 0.055185
v -0.118658 -0.241437 0.075681
v -0.118658 -0.241437 0.075681
v -0.129272 -0.244343 0.055185
v -0.128501 -0.231594 0.145112
v -0.239739 -0.231594 0.145112
v -0.139745 -0.252166 0.000000
v -0.260310 -0.252166 0.000000
v -0.107929 -0.099785 0.000000
v -0.128501 -0.120356 0.145112
v -0.192709 -0.099785 0.000000
v -0.239739 -0.120356 0.145112
v -0.224997 -0.112811 0.091883
v -0.254130 -0.105966 0.043599
v -0.260310 -0.113105 0.000000
v -0.107929 -0.208156 0.000000
v 0.183832 -0.289955 -0.000000
v 0.031451 -0.289955 -0.000000
v 0.163260 -0.269384 0.091420
v 0.052022 -0.269384 0.091420
v 0.166063 -0.155343 0.078963
v 0.163260 -0.158146 0.091420
v 0.132464 -0.137575 -0.000000
v 0.052022 -0.158146 0.091420
v 0.031451 -0.137575 -0.000000
v 0.031451 -0.288421 -0.000000
v 0.045945 -0.255367 0.064414
v 0.031451 -0.215928 -0.000000
v 0.183832 -0.188942 -0.000000
v 0.315402 -0.070061 -0.000000
v 0.280450 -0.070061 -0.000000
v 0.294831 -0.049490 0.091420
v 0.241550 -0.049490 0.091420
v 0.294831 0.061748 0.091420
v 0.238752 -0.046691 0.091420
v 0.183593 0.061748 0.091420
v 0.235953 -0.049490 0.091420
v 0.183593 -0.049490 0.091420
v 0.315402 0.082319 -0.000000
v 0.197053 -0.070061 -0.000000
v 0.163021 -0.070061 -0.000000
v 0.163021 0.078016 -0.000000
v 0.165687 0.079654 0.011845
v 0.256109 0.082319 -0.000000
v 0.243982 0.070615 0.052013
v 0.093583 0.357488 -0.000000
v 0.126736 0.267863 -0.000000
v 0.081426 0.331057 0.187194
v 0.123155 0.255963 0.068132
v 0.127932 0.223089 0.131148
v 0.120019 0.226729 0.187194
v 0.003533 0.161705 -0.000000
v -0.017130 0.217564 0.000000
v 0.015690 0.188136 0.187194
v -0.024390 0.256077 0.059618
v -0.022903 0.292465 0.187194
v -0.049333 0.304622 0.000000
v -0.039363 0.277669 0.000000
v 0.098001 0.196650 -0.000000
v -0.136525 0.038984 0.000000
v -0.214008 0.038984 0.000000
v -0.157097 0.059555 0.145112
v -0.268335 0.059555 0.145112
v -0.257983 0.049317 0.072886
v -0.283595 0.038984 0.000000
v -0.288906 0.038984 0.000000
v -0.157097 0.170793 0.145112
v -0.268335 0.170793 0.145112
v -0.288906 0.191365 0.000000
v -0.146764 0.181127 0.072222
v -0.146764 0.169988 0.072222
v -0.136525 0.145948 0.000000
v -0.163352 0.181127 0.072222
v -0.181906 0.191365 0.000000
v -0.047772 -0.049828 0.121685
v -0.127716 -0.049828 0.129571
v -0.120819 0.222786 0.229255
v -0.195408 0.202800 0.229255
v -0.116624 -0.091224 0.104250
v -0.122968 -0.067548 0.039940
v -0.127716 -0.049828 0.108478
v -0.202526 0.229365 0.157098
v -0.044738 -0.061152 0.076852
v -0.047772 -0.049828 0.078008
v -0.048380 -0.047562 0.039940
v -0.127937 0.249351 0.157098
v -0.255281 -0.127048 0.157098
v -0.255281 -0.049828 0.157098
v -0.227779 -0.127048 0.229255
v -0.227779 -0.049828 0.229255
v 0.183628 -0.220552 0.157098
v 0.109942 -0.243644 0.157098
v 0.175404 -0.194309 0.229255
v 0.101718 -0.217401 0.229255
v 0.079608 -0.127048 0.112097
v 0.079265 -0.127048 0.111196
v 0.073403 -0.127048 0.114462
v 0.073403 -0.127048 0.110528
v 0.052107 -0.127048 0.039940
v 0.091707 0.072770 0.039940
v 0.083483 0.099013 0.112097
v 0.018021 0.049678 0.039940
v 0.009796 0.075921 0.112097
v 0.046060 -0.039795 0.158316
v 0.091981 0.039743 0.134622
v 0.018595 0.047844 0.123311
v -0.031568 -0.019810 0.091420
v 0.122126 0.246395 0.208578
v -0.045319 -0.043628 0.163577
v 0.108375 0.222578 0.280735
v 0.021555 -0.082238 0.163577
v 0.175249 0.183968 0.280735
v 0.189000 0.207785 0.208578
v 0.020424 -0.049828 0.091420
v 0.040267 -0.049828 0.095202
v 0.046060 -0.039795 0.099617
v 0.027588 -0.071790 0.131924
v -0.026028 -0.049828 0.152359
v 0.068074 -0.049828 0.081836
v 0.049204 -0.049828 0.079685
v 0.052107 -0.049828 0.039940
v 0.040267 -0.049828 0.127092
v 0.049204 -0.049828 0.123685
vn -0.0000 -0.0000 1.0000
vn 0.1997 0.3017 -0.9323
vn 0.7130 0.1451 0.6860
vn 0.8661 0.1762 -0.4678
vn -0.1451 0.7130 0.6860
vn -0.2315 0.9285 0.2904
vn -0.6218 -0.4053 0.6702
vn -0.3306 0.0697 -0.9412
vn -0.7331 -0.4779 -0.4839
vn -0.9627 0.2029 0.1788
vn -0.4053 0.6217 0.6702
vn 0.1119 0.9746 0.1941
vn 0.2908 -0.1925 -0.9372
vn 0.2315 -0.9285 0.2904
vn 0.1451 -0.7130 0.6860
vn 0.6217 0.4053 0.6702
vn 0.4053 -0.6218 0.6702
vn 0.0451 0.7167 0.6959
vn 0.2807 0.2475 -0.9273
vn 0.0558 0.8874 -0.4576
vn 0.9456 -0.0743 0.3167
vn 0.7167 -0.0451 0.6959
vn 0.7595 -0.0000 0.6505
vn -0.0000 -0.8638 -0.5038
vn 0.8638 -0.0000 -0.5038
vn -0.0000 -0.7595 0.6505
vn -0.7595 -0.0000 0.6505
vn -0.0000 0.7595 0.6505
vn 0.0772 0.3662 -0.9273
vn 0.7331 0.4779 -0.4838
vn 0.3569 -0.0752 -0.9311
vn 0.6662 -0.7043 0.2452
vn -0.2880 -0.2539 -0.9234
vn 0.2444 -0.2772 -0.9292
vn -0.0558 -0.8874 -0.4576
vn -0.2507 -0.2507 -0.9350
vn -0.0000 -0.0000 -1.0000
vn -0.8638 -0.0000 -0.5038
vn -0.2507 0.2507 -0.9350
vn 0.2507 0.2507 -0.9350
vn -0.0786 -0.3732 -0.9244
vn 0.3543 -0.0949 -0.9303
vn 0.0912 0.3403 -0.9359
vn -0.4502 0.7798 -0.4351
vn -0.3539 0.0948 -0.9305
vn -0.0924 -0.3447 -0.9341
vn 0.4502 -0.7797 -0.4351
vn -0.2908 0.1925 -0.9372
vn -0.8661 -0.1762 -0.4678
vn -0.2103 -0.3177 -0.9246
vn -0.2340 0.2654 -0.9353
vn -0.2029 -0.9627 0.1788
vn 0.6029 0.3481 0.7179
vn -0.0903 -0.3368 0.9372
vn 0.3481 -0.6029 0.7179
vn -0.3640 0.0975 0.9263
vn -0.3481 0.6029 0.7178
vn -0.7001 -0.7001 0.1404
vn -0.0451 -0.7167 0.6959
vn -0.7001 0.7001 0.1404
vn -0.0000 0.9805 0.1966
vn 0.7001 0.7001 0.1404
vn -0.7130 -0.1451 0.6860
vn 0.7834 0.4969 0.3734
vn -0.7167 0.0451 0.6960
vn -0.5396 -0.8153 0.2100
vn -0.7718 -0.5869 0.2449
vn -0.6436 0.7300 0.2298
vn 0.5371 -0.5371 0.6505
vn -0.0000 -0.9901 0.1404
vn 0.7018 -0.6847 0.1966
vn -0.5371 -0.5371 0.6505
vn -0.6933 -0.6933 0.1966
vn -0.0000 0.9901 0.1404
vn 0.5371 0.5370 0.6505
vn 0.6933 0.6933 0.1966
vn -0.5371 0.5371 0.6505
vn -0.9778 0.1373 0.1581
vn -0.9901 -0.0000 0.1404
vn 0.9901 -0.0000 0.1404
vn 0.5113 -0.5113 0.6908
vn -0.6738 -0.6738 0.3032
vn 0.6738 -0.6738 0.3032
vn -0.5113 -0.5113 0.6908
vn -0.0000 0.9756 0.2195
vn 0.5113 0.5113 0.6908
vn 0.6738 0.6738 0.3032
vn -0.5113 0.5113 0.6908
vn -0.6738 0.6738 0.3032
vn -0.9756 -0.0000 0.2195
vn 0.9756 -0.0000 0.2195
vn -0.0000 -0.9756 0.2195
vn -0.0000 -0.4022 0.9156
vn -0.9189 0.2866 0.2712
vn 0.3230 0.7023 0.6344
vn 0.9323 0.3449 0.1092
vn 0.4129 0.8977 0.1536
vn 0.8817 -0.4461 0.1535
vn 0.7023 -0.3230 0.6344
vn -0.3230 -0.7023 0.6344
vn -0.9323 -0.3449 0.1092
vn -0.4129 -0.8977 0.1536
vn -0.7023 0.3230 0.6344
vn -0.8977 0.4129 0.1536
vn 0.3449 -0.9323 0.1092
vn 0.6933 -0.6933 0.1966
vn -0.5371 -0.5370 0.6505
vn 0.5371 0.5371 0.6505
vn -0.6933 0.6933 0.1966
vn 0.0922 -0.3440 0.9344
vn -0.9659 -0.2588 -0.0000
vn 0.9659 0.2588 -0.0000
vn -0.9344 -0.0000 0.3561
vn -0.2418 0.9026 0.3561
vn 0.2418 -0.9026 -0.3561
vn 0.2794 -0.8917 0.3561
vn -0.0000 -1.0000 -0.0000
vn -0.0922 0.3440 -0.9344
vn 0.9542 0.2990 -0.0000
vn -0.2794 0.8917 -0.3561
vn -0.1065 0.3399 0.9344
vn -0.8660 0.5000 -0.0000
vn -0.1781 -0.3084 0.9344
vn 0.4672 0.8092 0.3561
vn 0.1781 0.3084 -0.9344
vn -0.4672 -0.8092 -0.3561
vn -0.0000 1.0000 -0.0000
vn -0.3561 -0.0000 -0.9344
vn 0.8660 -0.5000 -0.0000
vn 0.3561 -0.0000 0.9344
vn 0.3562 -0.0000 0.9344
vn 0.9344 -0.0000 -0.3561
vn 0.1065 -0.3399 -0.9344
vn -0.9542 -0.2990 -0.0000
vt 0.476439 0.535440
vt 0.476439 0.503940
vt 0.476439 0.536940
vt 0.476439 0.529054
vt 0.476439 0.549570
vt 0.476439 0.549129
vt 0.476439 0.527416
vt 0.476439 0.535599
vt 0.476439 0.533960
vt 0.476439 0.526135
vt 0.476439 0.553940
vt 0.476439 0.521862
vt 0.476439 0.508021
vt 0.476439 0.528825
vt 0.476439 0.531148
vt 0.476439 0.524482
vt 0.476439 0.518962
vt 0.476439 0.522955
vt 0.476439 0.530017
vt 0.476439 0.528940
vt 0.476439 0.513447
vt 0.476439 0.516978
vt 0.476439 0.519770
vt 0.476439 0.511451
vt 0.476439 0.525533
vt 0.476439 0.521555
vt 0.476439 0.507179
vt 0.476439 0.518164
vt 0.476439 0.513039
vt 0.476439 0.521455
vt 0.476439 0.511902
vt 0.476439 0.516497
vt 0.476439 0.516383
vt 0.413939 0.543250
vt 0.413939 0.522552
vt 0.413939 0.520914
vt 0.413939 0.518172
vt 0.413939 0.503940
vt 0.413939 0.517294
vt 0.413939 0.528267
vt 0.413939 0.511845
vt 0.413939 0.511605
vt 0.413939 0.519414
vt 0.413939 0.518736
vt 0.413939 0.518923
vt 0.413939 0.518597
vt 0.413939 0.528520
vt 0.413939 0.523600
vt 0.413939 0.521252
vt 0.413939 0.529613
vt 0.413939 0.538957
vt 0.413939 0.514630
vt 0.413939 0.553940
vt 0.413939 0.515415
vt 0.413939 0.516332
vt 0.413939 0.527283
vt 0.413939 0.523040
vt 0.413939 0.512193
vt 0.413939 0.512639
vt 0.413939 0.522037
vt 0.413939 0.521329
s 1
usemtl colormap
f 3/1/1 2/1/1 1/1/1
f 6/2/2 5/3/3 4/2/4
f 5/3/3 6/2/2 7/3/5
f 7/3/5 6/2/2 8/4/6
f 11/5/7 10/2/8 9/2/9
f 10/2/8 11/5/7 12/6/10
f 13/5/11 12/6/10 11/5/7
f 12/6/10 13/5/11 14/7/12
f 5/3/3 15/2/13 4/2/4
f 15/2/13 5/3/3 16/8/14
f 16/8/14 5/3/3 17/3/15
f 19/5/16 11/5/7 18/5/17
f 11/5/7 19/5/16 13/5/11
f 22/9/18 21/2/19 20/2/20
f 21/2/19 22/9/18 23/10/21
f 23/10/21 22/9/18 24/9/22
f 27/11/23 26/2/24 25/2/25
f 26/2/24 27/11/23 28/11/26
f 27/11/23 29/11/27 28/11/26
f 29/11/27 27/11/23 30/11/28
f 32/2/29 19/5/16 31/2/30
f 19/5/16 32/2/29 13/5/11
f 13/5/11 32/2/29 14/7/12
f 19/5/16 33/2/31 31/2/30
f 33/2/31 19/5/16 34/12/32
f 34/12/32 19/5/16 18/5/17
f 37/2/33 36/2/34 35/2/35
f 38/2/36 36/2/34 37/2/33
f 39/2/37 36/2/34 38/2/36
f 36/2/34 39/2/37 40/2/37
f 38/2/36 37/2/33 21/2/19
f 38/2/36 21/2/19 41/2/37
f 42/2/36 38/2/36 41/2/37
f 25/2/25 38/2/36 42/2/36
f 38/2/36 25/2/25 26/2/24
f 25/2/25 42/2/36 43/2/38
f 25/2/25 43/2/38 44/2/39
f 25/2/25 44/2/39 45/2/40
f 44/2/39 46/2/41 45/2/40
f 46/2/41 44/2/39 47/2/37
f 45/2/40 46/2/41 48/2/37
f 48/2/37 46/2/41 49/2/37
f 49/2/37 46/2/41 33/2/31
f 9/2/9 33/2/31 46/2/41
f 33/2/31 9/2/9 31/2/30
f 31/2/30 9/2/9 10/2/8
f 31/2/30 10/2/8 50/2/42
f 50/2/42 10/2/8 51/2/37
f 50/2/42 52/2/43 31/2/30
f 31/2/30 52/2/43 32/2/29
f 52/2/43 53/2/37 32/2/29
f 53/2/37 52/2/43 54/2/37
f 50/2/42 55/2/44 52/2/43
f 50/2/42 56/2/45 55/2/44
f 50/2/42 57/2/46 56/2/45
f 57/2/46 50/2/42 58/2/47
f 56/2/45 57/2/46 59/2/37
f 60/2/37 59/2/37 57/2/46
f 6/2/2 59/2/37 60/2/37
f 61/2/48 59/2/37 6/2/2
f 59/2/37 61/2/48 62/2/37
f 4/2/4 61/2/48 6/2/2
f 4/2/4 63/2/49 61/2/48
f 15/2/13 63/2/49 4/2/4
f 63/2/49 15/2/13 64/2/50
f 65/2/37 64/2/50 15/2/13
f 66/2/51 64/2/50 65/2/37
f 37/2/33 64/2/50 66/2/51
f 64/2/50 37/2/33 67/2/37
f 37/2/33 66/2/51 21/2/19
f 20/2/20 21/2/19 66/2/51
f 18/5/17 68/13/52 34/12/32
f 68/13/52 18/5/17 11/5/7
f 68/13/52 11/5/7 46/2/41
f 46/2/41 11/5/7 9/2/9
f 71/14/53 70/14/54 69/14/55
f 70/14/54 71/14/53 72/14/1
f 72/14/1 73/14/1 70/14/54
f 73/14/1 72/14/1 74/14/56
f 72/14/1 71/14/53 74/14/56
f 74/14/56 71/14/53 75/14/57
f 28/11/26 38/2/36 26/2/24
f 38/2/36 28/11/26 29/11/27
f 38/2/36 29/11/27 76/15/58
f 76/15/58 29/11/27 42/2/36
f 42/2/36 29/11/27 43/2/38
f 24/9/22 36/2/34 23/10/21
f 36/2/34 24/9/22 77/9/59
f 36/2/34 77/9/59 35/2/35
f 69/14/55 57/2/46 58/2/47
f 57/2/46 69/14/55 70/14/54
f 29/11/27 44/2/39 43/2/38
f 44/2/39 29/11/27 2/1/60
f 2/1/60 29/11/27 3/1/61
f 3/1/61 29/11/27 30/11/28
f 45/2/40 27/11/23 25/2/25
f 27/11/23 45/2/40 30/11/28
f 30/11/28 45/2/40 1/1/62
f 30/11/28 1/1/62 3/1/61
f 5/3/3 78/3/63 17/3/15
f 78/3/63 5/3/3 7/3/5
f 79/16/64 58/2/47 50/2/42
f 58/2/47 79/16/64 69/14/55
f 69/14/55 79/16/64 71/14/53
f 24/9/22 80/9/65 77/9/59
f 80/9/65 24/9/22 22/9/18
f 78/3/63 61/2/48 63/2/49
f 61/2/48 78/3/63 8/4/6
f 8/4/6 78/3/63 7/3/5
f 17/3/15 81/17/66 16/8/14
f 81/17/66 17/3/15 78/3/63
f 81/17/66 78/3/63 64/2/50
f 64/2/50 78/3/63 63/2/49
f 77/9/59 37/2/33 35/2/35
f 37/2/33 77/9/59 82/18/67
f 82/18/67 77/9/59 80/9/65
f 52/2/43 71/14/53 79/16/64
f 71/14/53 52/2/43 75/14/57
f 75/14/57 52/2/43 55/2/44
f 74/14/56 55/2/44 56/2/45
f 55/2/44 74/14/56 75/14/57
f 66/2/51 22/9/18 20/2/20
f 22/9/18 66/2/51 80/9/65
f 80/9/65 66/2/51 83/19/68
f 80/9/65 83/19/68 82/18/67
f 86/20/69 85/21/70 84/22/71
f 85/21/70 86/20/69 87/20/72
f 85/21/70 87/20/72 88/2/70
f 88/2/70 87/20/72 89/2/73
f 92/2/74 91/20/75 90/2/76
f 91/20/75 92/2/74 93/20/77
f 93/20/77 92/2/74 94/23/74
f 93/20/77 94/23/74 95/24/78
f 87/20/72 96/2/79 89/2/73
f 96/2/79 87/20/72 95/24/78
f 95/24/78 87/20/72 93/20/77
f 91/20/75 87/20/72 86/20/69
f 87/20/72 91/20/75 93/20/77
f 91/20/75 97/2/80 90/2/76
f 97/2/80 91/20/75 84/22/71
f 84/22/71 91/20/75 86/20/69
f 100/20/81 99/2/82 98/2/83
f 99/2/82 100/20/81 101/20/84
f 104/2/85 103/20/86 102/25/87
f 103/20/86 104/2/85 105/20/88
f 105/20/88 104/2/85 106/2/89
f 101/20/84 107/2/90 99/2/82
f 107/2/90 101/20/84 108/26/90
f 105/20/88 108/26/90 101/20/84
f 106/2/89 108/26/90 105/20/88
f 108/26/90 106/2/89 109/2/90
f 103/20/86 101/20/84 100/20/81
f 101/20/84 103/20/86 105/20/88
f 102/25/87 98/2/83 110/2/91
f 98/2/83 102/25/87 100/20/81
f 100/20/81 102/25/87 103/20/86
f 113/20/81 112/2/92 111/2/83
f 112/2/92 113/20/81 114/20/93
f 115/20/86 114/20/93 113/20/81
f 114/20/93 115/20/86 116/20/1
f 117/20/88 116/20/1 115/20/86
f 117/20/88 118/20/93 116/20/1
f 118/20/93 117/20/88 119/20/84
f 115/20/86 111/2/83 120/2/87
f 111/2/83 115/20/86 113/20/81
f 119/20/84 121/2/92 118/20/93
f 121/2/92 119/20/84 122/2/82
f 119/20/84 123/2/90 122/2/82
f 123/2/90 119/20/84 124/27/94
f 124/27/94 119/20/84 117/20/88
f 125/2/85 115/20/86 120/2/87
f 115/20/86 125/2/85 126/28/85
f 115/20/86 126/28/85 117/20/88
f 117/20/88 126/28/85 124/27/94
f 129/20/95 128/2/96 127/2/97
f 128/2/96 129/20/95 130/29/96
f 130/29/96 129/20/95 131/30/98
f 131/30/98 129/20/95 132/20/99
f 135/20/100 134/2/101 133/2/102
f 134/2/101 135/20/100 136/31/101
f 137/20/103 136/31/101 135/20/100
f 138/2/104 136/31/101 137/20/103
f 136/31/101 138/2/104 139/2/101
f 132/20/99 140/2/105 131/30/98
f 140/2/105 132/20/99 135/20/100
f 140/2/105 135/20/100 133/2/102
f 132/20/99 137/20/103 135/20/100
f 137/20/103 132/20/99 129/20/95
f 138/2/104 129/20/95 127/2/97
f 129/20/95 138/2/104 137/20/103
f 143/20/69 142/2/70 141/2/106
f 142/2/70 143/20/69 144/20/107
f 142/2/70 144/20/107 145/32/70
f 145/32/70 144/20/107 146/2/70
f 146/2/70 144/20/107 147/2/73
f 148/20/108 144/20/107 143/20/69
f 144/20/107 148/20/108 149/20/77
f 144/20/107 150/2/109 147/2/73
f 150/2/109 144/20/107 149/20/77
f 148/20/108 152/33/80 151/33/76
f 143/20/69 152/33/80 148/20/108
f 141/2/106 152/33/80 143/20/69
f 152/33/80 141/2/106 153/2/80
f 154/33/74 148/20/108 151/33/76
f 148/20/108 154/33/74 149/20/77
f 149/20/77 154/33/74 155/2/74
f 149/20/77 155/2/74 150/2/109
f 158/34/110 157/35/110 156/36/110
f 157/35/110 158/34/110 159/34/110
f 162/37/111 161/38/111 160/39/111
f 161/38/111 162/37/111 163/40/111
f 163/40/111 162/37/111 157/35/111
f 163/40/111 157/35/111 159/34/111
f 166/38/112 165/41/112 164/42/112
f 165/41/112 166/38/112 167/40/112
f 165/41/112 167/40/112 156/36/112
f 156/36/112 167/40/112 158/34/112
f 170/34/113 169/40/113 168/40/113
f 169/40/113 170/34/113 171/34/113
f 167/40/114 159/34/114 158/34/114
f 159/34/114 167/40/114 163/40/114
f 160/39/115 166/38/115 164/42/115
f 166/38/115 160/39/115 161/38/115
f 174/34/116 173/40/116 172/40/116
f 173/40/116 174/34/116 175/34/116
f 178/43/117 177/44/117 176/45/117
f 177/44/117 178/43/117 179/46/117
f 170/34/117 179/46/117 178/43/117
f 180/38/117 177/44/117 179/46/117
f 179/46/117 170/34/117 180/38/117
f 180/38/117 170/34/117 168/40/117
f 163/40/118 166/38/118 161/38/118
f 166/38/118 163/40/118 167/40/118
f 182/45/119 172/40/119 181/38/119
f 172/40/119 182/45/119 174/34/119
f 183/38/120 182/45/120 181/38/120
f 182/45/120 183/38/120 184/45/120
f 174/34/121 185/47/121 175/34/121
f 185/47/121 174/34/121 186/48/121
f 186/48/121 174/34/121 182/45/121
f 186/48/121 182/45/121 187/49/121
f 187/49/121 182/45/121 184/45/121
f 190/50/122 189/51/122 188/52/122
f 189/51/122 190/50/122 191/53/122
f 193/53/123 190/50/123 192/50/123
f 190/50/123 193/53/123 191/53/123
f 189/51/124 193/53/124 194/51/124
f 193/53/124 189/51/124 191/53/124
f 188/52/125 196/54/125 195/52/125
f 196/54/125 188/52/125 197/55/125
f 197/55/125 188/52/125 187/49/125
f 187/49/125 188/52/125 189/51/125
f 187/49/125 189/51/125 194/51/125
f 194/51/125 186/48/125 187/49/125
f 192/50/126 199/56/126 198/57/126
f 199/56/126 192/50/126 190/50/126
f 199/56/126 190/50/126 188/52/126
f 188/52/126 195/52/126 199/56/126
f 202/38/127 201/58/127 200/59/127
f 201/58/127 202/38/127 165/41/127
f 201/58/127 165/41/127 196/54/127
f 203/60/127 201/58/127 196/54/127
f 201/58/127 203/60/127 204/61/127
f 196/54/127 165/41/127 195/52/127
f 195/52/127 165/41/127 199/56/127
f 199/56/127 165/41/127 156/36/127
f 199/56/127 156/36/127 171/34/127
f 171/34/127 156/36/127 157/35/127
f 171/34/127 157/35/127 162/37/127
f 171/34/127 162/37/127 169/40/127
f 160/39/128 169/40/128 162/37/128
f 160/39/128 168/40/128 169/40/128
f 168/40/128 160/39/128 180/38/128
f 160/39/128 202/38/128 180/38/128
f 202/38/128 160/39/128 164/42/128
f 202/38/128 164/42/128 165/41/128
f 194/51/129 185/47/129 186/48/129
f 185/47/129 194/51/129 192/50/129
f 192/50/129 194/51/129 193/53/129
f 198/57/129 185/47/129 192/50/129
f 203/60/129 185/47/129 198/57/129
f 203/60/129 197/55/129 185/47/129
f 197/55/129 203/60/129 196/54/129
f 198/57/130 204/61/130 203/60/131
f 198/57/130 178/43/130 204/61/130
f 178/43/130 198/57/130 170/34/130
f 198/57/130 171/34/130 170/34/130
f 171/34/130 198/57/130 199/56/130
f 200/59/132 180/38/132 202/38/132
f 180/38/132 200/59/132 177/44/132
f 183/38/133 200/59/133 201/58/133
f 181/38/133 200/59/133 183/38/133
f 181/38/133 177/44/133 200/59/133
f 172/40/133 177/44/133 181/38/133
f 172/40/133 179/46/133 177/44/133
f 179/46/133 172/40/133 173/40/133
f 173/40/134 178/43/134 179/46/134
f 178/43/134 173/40/134 204/61/134
f 185/47/134 204/61/134 173/40/134
f 185/47/134 173/40/134 175/34/134
f 197/55/134 204/61/134 185/47/134
f 204/61/134 197/55/134 201/58/134
f 184/45/134 201/58/134 197/55/134
f 184/45/134 197/55/134 187/49/134
f 201/58/134 184/45/134 183/38/134
