# Blender 5.1.1
# www.blender.org
mtllib camp_ice_full.mtl
o Icosphere
v -0.000000 0.060000 0.310000
v -0.073601 -0.041304 0.387390
v -0.119090 0.098694 0.387390
v -0.000000 0.185220 0.387390
v 0.119090 0.098694 0.387390
v 0.073601 -0.041304 0.387390
v -0.119090 0.021306 0.512610
v -0.073601 0.161304 0.512610
v 0.073601 0.161304 0.512610
v 0.119090 0.021306 0.512610
v -0.000000 -0.065220 0.512610
v -0.000000 0.060000 0.590000
v 0.241551 -0.049490 0.091420
v 0.235953 -0.049490 0.091420
v 0.238752 -0.046691 0.091420
v -0.135329 -0.013093 -0.000000
v -0.163837 -0.018893 0.095774
v -0.214008 0.038984 -0.000000
v -0.256597 0.042504 0.095774
v -0.257983 0.049316 0.072886
v 0.076829 0.096179 0.000000
v 0.098001 0.196650 0.000000
v 0.105343 0.114768 0.132429
v 0.127932 0.223089 0.131148
v 0.132180 0.242119 0.132429
v 0.123155 0.255963 0.068132
v -0.192709 -0.099785 -0.000000
v -0.224998 -0.112811 0.091883
v -0.225233 -0.111653 0.095774
v 0.232694 0.087930 0.132429
v 0.259532 0.215282 0.132429
v -0.033360 -0.142414 -0.000000
v 0.031451 -0.215928 0.000000
v -0.035187 -0.171449 0.087125
v 0.045945 -0.255366 0.064414
v 0.038376 -0.254890 0.087125
v 0.346501 -0.136113 0.000000
v 0.238752 -0.243862 0.000000
v 0.317409 -0.136113 0.145112
v 0.238752 -0.214770 0.145112
v 0.160095 -0.136113 0.145112
v 0.238752 -0.057456 0.145112
v 0.288046 0.233870 0.000000
v 0.126736 0.267863 0.000000
v 0.256109 0.082319 0.000000
v 0.243982 0.070615 0.052013
v -0.046891 -0.357488 -0.000000
v 0.031451 -0.288421 0.000000
v -0.139745 -0.252166 -0.000000
v 0.183831 -0.188942 0.000000
v 0.183831 -0.289955 0.000000
v 0.031451 -0.289955 0.000000
v 0.031451 -0.137574 0.000000
v 0.132464 -0.137574 0.000000
v 0.131002 -0.136113 0.000000
v 0.197053 -0.070062 0.000000
v 0.280450 -0.070062 0.000000
v 0.163022 0.078016 0.000000
v 0.163022 -0.070062 0.000000
v 0.315403 -0.070062 0.000000
v 0.315403 0.082319 0.000000
v -0.017130 0.217564 -0.000000
v 0.003533 0.161706 0.000000
v -0.039363 0.277670 -0.000000
v 0.093583 0.357488 0.000000
v -0.049333 0.304622 -0.000000
v -0.150781 0.307524 -0.000000
v -0.181906 0.191365 -0.000000
v -0.136526 0.145948 -0.000000
v -0.043032 0.120896 -0.000000
v -0.288907 0.191365 -0.000000
v -0.136526 0.038984 -0.000000
v -0.283596 0.038984 -0.000000
v -0.288907 0.038984 -0.000000
v -0.346501 -0.056056 -0.000000
v -0.260310 -0.113105 -0.000000
v -0.107930 -0.099785 -0.000000
v -0.107930 -0.208156 -0.000000
v -0.260310 -0.252166 -0.000000
v 0.165687 0.079654 0.011845
v -0.057578 0.146091 0.072222
v -0.146764 0.169988 0.072222
v -0.028787 0.253539 0.072222
v -0.146764 0.181126 0.072222
v -0.165026 0.174881 0.072222
v -0.163352 0.181126 0.072222
v -0.136235 0.282329 0.072222
v 0.166063 -0.155343 0.078963
v -0.045065 -0.328453 0.087125
v -0.317993 -0.050256 0.095774
v -0.024391 0.256077 0.059618
v -0.118628 -0.245012 0.087125
v -0.254130 -0.105966 0.043599
v -0.129272 -0.244343 0.055185
v -0.118658 -0.241437 0.075681
v -0.118658 -0.241437 0.075681
v -0.129272 -0.244343 0.055185
v -0.128501 -0.231594 0.145112
v -0.239739 -0.231594 0.145112
v -0.139745 -0.252166 -0.000000
v -0.260310 -0.252166 -0.000000
v -0.107929 -0.099785 -0.000000
v -0.128501 -0.120356 0.145112
v -0.192709 -0.099785 -0.000000
v -0.239739 -0.120356 0.145112
v -0.224997 -0.112811 0.091883
v -0.254130 -0.105966 0.043599
v -0.260310 -0.113105 -0.000000
v -0.107929 -0.208156 -0.000000
v 0.183832 -0.289955 0.000000
v 0.031451 -0.289955 0.000000
v 0.163260 -0.269384 0.091420
v 0.052022 -0.269384 0.091420
v 0.166063 -0.155343 0.078963
v 0.163260 -0.158146 0.091420
v 0.132464 -0.137575 0.000000
v 0.052022 -0.158146 0.091420
v 0.031451 -0.137575 0.000000
v 0.031451 -0.288421 0.000000
v 0.045945 -0.255367 0.064414
v 0.031451 -0.215928 0.000000
v 0.183832 -0.188942 0.000000
v 0.315402 -0.070061 0.000000
v 0.280450 -0.070061 0.000000
v 0.294831 -0.049490 0.091420
v 0.241551 -0.049490 0.091420
v 0.294831 0.061748 0.091420
v 0.238752 -0.046691 0.091420
v 0.183593 0.061748 0.091420
v 0.235953 -0.049490 0.091420
v 0.183593 -0.049490 0.091420
v 0.315402 0.082319 0.000000
v 0.197053 -0.070061 0.000000
v 0.163021 -0.070061 0.000000
v 0.163021 0.078016 0.000000
v 0.165687 0.079654 0.011845
v 0.256109 0.082319 0.000000
v 0.243982 0.070615 0.052013
v 0.093583 0.357488 0.000000
v 0.126736 0.267863 0.000000
v 0.081426 0.331057 0.187194
v 0.123155 0.255963 0.068132
v 0.127932 0.223089 0.131148
v 0.120019 0.226729 0.187194
v 0.003533 0.161706 0.000000
v -0.017130 0.217564 -0.000000
v 0.015690 0.188136 0.187194
v -0.024390 0.256077 0.059618
v -0.022903 0.292465 0.187194
v -0.049333 0.304622 -0.000000
v -0.039363 0.277669 -0.000000
v 0.098001 0.196650 0.000000
v -0.136525 0.038984 -0.000000
v -0.214008 0.038984 -0.000000
v -0.157097 0.059555 0.145112
v -0.268335 0.059555 0.145112
v -0.257983 0.049317 0.072886
v -0.283595 0.038984 -0.000000
v -0.288906 0.038984 -0.000000
v -0.157097 0.170794 0.145112
v -0.268335 0.170794 0.145112
v -0.288906 0.191365 -0.000000
v -0.146764 0.181127 0.072222
v -0.146764 0.169988 0.072222
v -0.136525 0.145948 -0.000000
v -0.163352 0.181127 0.072222
v -0.181906 0.191365 -0.000000
v -0.047772 -0.049828 0.121685
v -0.127717 -0.049828 0.129571
v -0.120819 0.222786 0.229255
v -0.195408 0.202800 0.229255
v -0.116624 -0.091224 0.104251
v -0.122968 -0.067548 0.039940
v -0.127717 -0.049828 0.108478
v -0.202526 0.229365 0.157098
v -0.044738 -0.061152 0.076852
v -0.047772 -0.049828 0.078008
v -0.048380 -0.047562 0.039940
v -0.127937 0.249351 0.157098
v -0.255281 -0.127048 0.157098
v -0.255281 -0.049828 0.157098
v -0.227779 -0.127048 0.229255
v -0.227779 -0.049828 0.229255
v 0.183628 -0.220552 0.157098
v 0.109942 -0.243644 0.157098
v 0.175404 -0.194309 0.229255
v 0.101718 -0.217401 0.229255
v 0.079608 -0.127048 0.112097
v 0.079265 -0.127048 0.111196
v 0.073403 -0.127048 0.114462
v 0.073403 -0.127048 0.110528
v 0.052107 -0.127048 0.039940
v 0.091707 0.072770 0.039940
v 0.083483 0.099013 0.112097
v 0.018021 0.049678 0.039940
v 0.009796 0.075921 0.112097
v 0.046060 -0.039795 0.158316
v 0.091981 0.039743 0.134622
v 0.018595 0.047844 0.123311
v -0.031568 -0.019810 0.091420
v 0.122126 0.246395 0.208578
v -0.045319 -0.043628 0.163577
v 0.108375 0.222578 0.280735
v 0.021555 -0.082238 0.163577
v 0.175249 0.183968 0.280735
v 0.189000 0.207785 0.208578
v 0.020424 -0.049828 0.091420
v 0.040267 -0.049828 0.095202
v 0.046060 -0.039795 0.099618
v 0.027588 -0.071790 0.131924
v -0.026028 -0.049828 0.152359
v 0.068074 -0.049828 0.081836
v 0.049204 -0.049828 0.079685
v 0.052107 -0.049828 0.039940
v 0.040267 -0.049828 0.127092
v 0.049204 -0.049828 0.123685
vn -0.5774 -0.1876 -0.7947
vn -0.0000 -0.6071 -0.7947
vn -0.3568 0.4911 -0.7947
vn 0.3568 0.4911 -0.7947
vn 0.5774 -0.1876 -0.7947
vn -0.0000 -0.9822 -0.1876
vn -0.9342 -0.3035 -0.1876
vn -0.5774 0.7946 -0.1876
vn 0.5774 0.7946 -0.1876
vn 0.9342 -0.3035 -0.1876
vn -0.5774 -0.7946 0.1876
vn -0.9342 0.3035 0.1876
vn -0.0000 0.9822 0.1876
vn 0.9342 0.3035 0.1876
vn 0.5774 -0.7946 0.1876
vn -0.3568 -0.4911 0.7947
vn -0.5774 0.1876 0.7947
vn -0.0000 0.6071 0.7947
vn 0.5774 0.1876 0.7947
vn 0.3568 -0.4911 0.7947
vn -0.0000 -0.0000 1.0000
vn 0.1997 0.3017 -0.9323
vn 0.7130 0.1451 0.6860
vn 0.8661 0.1762 -0.4678
vn -0.1451 0.7130 0.6860
vn -0.2315 0.9285 0.2904
vn -0.6218 -0.4053 0.6702
vn -0.3306 0.0697 -0.9412
vn -0.7331 -0.4779 -0.4839
vn -0.9627 0.2029 0.1788
vn -0.4053 0.6217 0.6702
vn 0.1119 0.9746 0.1941
vn 0.2908 -0.1925 -0.9372
vn 0.2314 -0.9285 0.2904
vn 0.1451 -0.7130 0.6860
vn 0.6217 0.4053 0.6702
vn 0.4053 -0.6218 0.6702
vn 0.0451 0.7167 0.6959
vn 0.2807 0.2475 -0.9273
vn 0.0558 0.8874 -0.4576
vn 0.9456 -0.0742 0.3167
vn 0.7167 -0.0451 0.6960
vn 0.7595 -0.0000 0.6505
vn -0.0000 -0.8638 -0.5038
vn 0.8638 -0.0000 -0.5038
vn -0.0000 -0.7595 0.6505
vn -0.7595 -0.0000 0.6505
vn -0.0000 0.7595 0.6505
vn 0.0772 0.3662 -0.9273
vn 0.7331 0.4779 -0.4838
vn 0.3569 -0.0752 -0.9311
vn 0.6662 -0.7043 0.2452
vn -0.2880 -0.2539 -0.9234
vn 0.2444 -0.2772 -0.9292
vn -0.0558 -0.8874 -0.4576
vn -0.2507 -0.2507 -0.9350
vn -0.0000 -0.0000 -1.0000
vn -0.2506 -0.2508 -0.9350
vn -0.8638 -0.0001 -0.5038
vn -0.2507 0.2507 -0.9350
vn 0.2507 0.2507 -0.9350
vn -0.0786 -0.3732 -0.9244
vn 0.3543 -0.0949 -0.9303
vn 0.0912 0.3403 -0.9359
vn -0.4502 0.7798 -0.4351
vn -0.3539 0.0948 -0.9305
vn -0.0924 -0.3447 -0.9341
vn 0.4502 -0.7797 -0.4351
vn -0.2908 0.1925 -0.9372
vn -0.8661 -0.1762 -0.4678
vn -0.2103 -0.3177 -0.9246
vn -0.2340 0.2654 -0.9353
vn -0.2029 -0.9627 0.1788
vn 0.6029 0.3481 0.7178
vn -0.0903 -0.3368 0.9372
vn 0.3481 -0.6029 0.7179
vn -0.3640 0.0975 0.9263
vn -0.3481 0.6029 0.7179
vn -0.7001 -0.7001 0.1404
vn -0.0451 -0.7167 0.6959
vn -0.7001 0.7001 0.1404
vn -0.0000 0.9805 0.1966
vn 0.7001 0.7001 0.1404
vn -0.7130 -0.1451 0.6860
vn 0.7834 0.4969 0.3733
vn -0.7167 0.0451 0.6960
vn -0.5396 -0.8153 0.2100
vn -0.7718 -0.5869 0.2449
vn -0.6437 0.7300 0.2297
vn 0.5371 -0.5371 0.6505
vn -0.0000 -0.9901 0.1404
vn 0.7018 -0.6847 0.1966
vn -0.5371 -0.5371 0.6505
vn -0.6933 -0.6933 0.1966
vn -0.0000 0.9901 0.1404
vn 0.5371 0.5370 0.6505
vn 0.6933 0.6933 0.1966
vn -0.5371 0.5371 0.6505
vn 0.0001 0.9901 0.1405
vn -0.9778 0.1373 0.1581
vn -0.9901 -0.0000 0.1404
vn 0.9901 -0.0000 0.1404
vn 0.5113 -0.5113 0.6908
vn -0.6738 -0.6738 0.3032
vn 0.6738 -0.6738 0.3032
vn -0.5113 -0.5113 0.6908
vn -0.0000 0.9756 0.2195
vn 0.5113 0.5113 0.6908
vn 0.6738 0.6738 0.3032
vn -0.5113 0.5113 0.6908
vn -0.6738 0.6738 0.3032
vn -0.9756 -0.0000 0.2195
vn 0.9756 -0.0000 0.2195
vn -0.0000 -0.9756 0.2195
vn -0.0000 -0.4022 0.9156
vn -0.9756 -0.0000 0.2196
vn -0.9188 0.2866 0.2713
vn 0.3230 0.7023 0.6344
vn 0.9323 0.3449 0.1092
vn 0.4129 0.8977 0.1536
vn 0.8817 -0.4461 0.1535
vn 0.7023 -0.3230 0.6344
vn -0.3230 -0.7023 0.6344
vn -0.9323 -0.3449 0.1092
vn -0.4129 -0.8977 0.1536
vn -0.7023 0.3230 0.6344
vn -0.8977 0.4129 0.1536
vn 0.3449 -0.9323 0.1092
vn 0.6933 -0.6933 0.1966
vn -0.5371 -0.5370 0.6505
vn -0.0000 -0.9901 0.1403
vn 0.5371 0.5371 0.6505
vn -0.6933 0.6933 0.1966
vn 0.0922 -0.3440 0.9344
vn -0.9659 -0.2588 -0.0000
vn 0.9659 0.2588 -0.0000
vn -0.9344 -0.0000 0.3561
vn -0.2418 0.9026 0.3562
vn 0.2418 -0.9026 -0.3562
vn 0.2419 -0.9026 -0.3561
vn 0.2794 -0.8917 0.3561
vn -0.0000 -1.0000 -0.0000
vn -0.0922 0.3440 -0.9344
vn 0.9542 0.2990 -0.0000
vn -0.2794 0.8917 -0.3561
vn -0.1065 0.3399 0.9344
vn -0.1065 0.3398 0.9344
vn -0.8660 0.5000 -0.0000
vn -0.1781 -0.3084 0.9344
vn 0.4672 0.8092 0.3561
vn 0.1781 0.3084 -0.9344
vn 0.1781 0.3085 -0.9344
vn -0.4672 -0.8092 -0.3562
vn -0.4672 -0.8092 -0.3561
vn -0.0000 1.0000 -0.0000
vn -0.3561 -0.0000 -0.9344
vn -0.3562 -0.0000 -0.9344
vn 0.8660 -0.5000 -0.0000
vn 0.3562 -0.0000 0.9344
vn 0.3562 -0.0001 0.9344
vn 0.3561 -0.0000 0.9344
vn 0.9344 -0.0000 -0.3561
vn 0.1065 -0.3399 -0.9344
vn 0.1065 -0.3398 -0.9344
vn -0.9542 -0.2990 -0.0000
vt 0.429556 0.575422
vt 0.429920 0.591168
vt 0.429193 0.591168
vt 0.430284 0.575422
vt 0.430647 0.591168
vt 0.432465 0.575422
vt 0.432829 0.591168
vt 0.432102 0.591168
vt 0.431738 0.575422
vt 0.431374 0.591168
vt 0.431011 0.575422
vt 0.430284 0.606914
vt 0.429556 0.606914
vt 0.432465 0.606914
vt 0.431738 0.606914
vt 0.431011 0.606914
vt 0.428829 0.606914
vt 0.429920 0.622660
vt 0.429193 0.622660
vt 0.432102 0.622660
vt 0.431374 0.622660
vt 0.430647 0.622660
vt 0.476439 0.535440
vt 0.476439 0.503940
vt 0.476439 0.536940
vt 0.476439 0.529054
vt 0.476439 0.549570
vt 0.476439 0.549129
vt 0.476439 0.527416
vt 0.476439 0.535599
vt 0.476439 0.533960
vt 0.476439 0.526135
vt 0.476439 0.553940
vt 0.476439 0.521862
vt 0.476439 0.508021
vt 0.476439 0.528825
vt 0.476439 0.531148
vt 0.476439 0.524482
vt 0.476439 0.518962
vt 0.476439 0.522955
vt 0.476439 0.530017
vt 0.476439 0.528940
vt 0.476439 0.513447
vt 0.476439 0.516978
vt 0.476439 0.519770
vt 0.476439 0.511451
vt 0.476439 0.525533
vt 0.476439 0.521555
vt 0.476439 0.507179
vt 0.476439 0.518164
vt 0.476439 0.513039
vt 0.476439 0.521455
vt 0.476439 0.511902
vt 0.476439 0.516497
vt 0.476439 0.516383
vt 0.413939 0.543250
vt 0.413939 0.522552
vt 0.413939 0.520914
vt 0.413939 0.518172
vt 0.413939 0.503940
vt 0.413939 0.517294
vt 0.413939 0.528267
vt 0.413939 0.511845
vt 0.413939 0.511605
vt 0.413939 0.519414
vt 0.413939 0.518736
vt 0.413939 0.518923
vt 0.413939 0.518597
vt 0.413939 0.528520
vt 0.413939 0.523600
vt 0.413939 0.521252
vt 0.413939 0.529613
vt 0.413939 0.538957
vt 0.413939 0.514630
vt 0.413939 0.553940
vt 0.413939 0.515415
vt 0.413939 0.516332
vt 0.413939 0.527283
vt 0.413939 0.523040
vt 0.413939 0.512193
vt 0.413939 0.512639
vt 0.413939 0.522037
vt 0.413939 0.521329
s 1
usemtl colormap.003
f 1/1/1 2/2/1 3/3/1
f 2/2/2 1/4/2 6/5/2
f 1/6/3 3/7/3 4/8/3
f 1/9/4 4/8/4 5/10/4
f 1/11/5 5/10/5 6/5/5
f 2/2/6 6/5/6 11/12/6
f 3/3/7 2/2/7 7/13/7
f 4/8/8 3/7/8 8/14/8
f 5/10/9 4/8/9 9/15/9
f 6/5/10 5/10/10 10/16/10
f 2/2/11 11/12/11 7/13/11
f 3/3/12 7/13/12 8/17/12
f 4/8/13 8/14/13 9/15/13
f 5/10/14 9/15/14 10/16/14
f 6/5/15 10/16/15 11/12/15
f 7/13/16 11/12/16 12/18/16
f 8/17/17 7/13/17 12/19/17
f 9/15/18 8/14/18 12/20/18
f 10/16/19 9/15/19 12/21/19
f 11/12/20 10/16/20 12/22/20
f 15/23/21 14/23/21 13/23/21
f 18/24/22 17/25/23 16/24/24
f 17/25/23 18/24/22 19/25/25
f 19/25/25 18/24/22 20/26/26
f 23/27/27 22/24/28 21/24/29
f 22/24/28 23/27/27 24/28/30
f 25/27/31 24/28/30 23/27/27
f 24/28/30 25/27/31 26/29/32
f 17/25/23 27/24/33 16/24/24
f 27/24/33 17/25/23 28/30/34
f 28/30/34 17/25/23 29/25/35
f 31/27/36 23/27/27 30/27/37
f 23/27/27 31/27/36 25/27/31
f 34/31/38 33/24/39 32/24/40
f 33/24/39 34/31/38 35/32/41
f 35/32/41 34/31/38 36/31/42
f 39/33/43 38/24/44 37/24/45
f 38/24/44 39/33/43 40/33/46
f 39/33/43 41/33/47 40/33/46
f 41/33/47 39/33/43 42/33/48
f 44/24/49 31/27/36 43/24/50
f 31/27/36 44/24/49 25/27/31
f 25/27/31 44/24/49 26/29/32
f 31/27/36 45/24/51 43/24/50
f 45/24/51 31/27/36 46/34/52
f 46/34/52 31/27/36 30/27/37
f 49/24/53 48/24/54 47/24/55
f 50/24/56 48/24/54 49/24/53
f 51/24/57 48/24/54 50/24/56
f 48/24/54 51/24/57 52/24/57
f 50/24/56 49/24/53 33/24/39
f 50/24/56 33/24/39 53/24/57
f 54/24/58 50/24/56 53/24/57
f 37/24/45 50/24/56 54/24/58
f 50/24/56 37/24/45 38/24/44
f 37/24/45 54/24/58 55/24/59
f 37/24/45 55/24/59 56/24/60
f 37/24/45 56/24/60 57/24/61
f 56/24/60 58/24/62 57/24/61
f 58/24/62 56/24/60 59/24/57
f 57/24/61 58/24/62 60/24/57
f 60/24/57 58/24/62 61/24/57
f 61/24/57 58/24/62 45/24/51
f 21/24/29 45/24/51 58/24/62
f 45/24/51 21/24/29 43/24/50
f 43/24/50 21/24/29 22/24/28
f 43/24/50 22/24/28 62/24/63
f 62/24/63 22/24/28 63/24/57
f 62/24/63 64/24/64 43/24/50
f 43/24/50 64/24/64 44/24/49
f 64/24/64 65/24/57 44/24/49
f 65/24/57 64/24/64 66/24/57
f 62/24/63 67/24/65 64/24/64
f 62/24/63 68/24/66 67/24/65
f 62/24/63 69/24/67 68/24/66
f 69/24/67 62/24/63 70/24/68
f 68/24/66 69/24/67 71/24/57
f 72/24/57 71/24/57 69/24/67
f 18/24/22 71/24/57 72/24/57
f 73/24/69 71/24/57 18/24/22
f 71/24/57 73/24/69 74/24/57
f 16/24/24 73/24/69 18/24/22
f 16/24/24 75/24/70 73/24/69
f 27/24/33 75/24/70 16/24/24
f 75/24/70 27/24/33 76/24/71
f 77/24/57 76/24/71 27/24/33
f 78/24/72 76/24/71 77/24/57
f 49/24/53 76/24/71 78/24/72
f 76/24/71 49/24/53 79/24/57
f 49/24/53 78/24/72 33/24/39
f 32/24/40 33/24/39 78/24/72
f 30/27/37 80/35/73 46/34/52
f 80/35/73 30/27/37 23/27/27
f 80/35/73 23/27/27 58/24/62
f 58/24/62 23/27/27 21/24/29
f 83/36/74 82/36/75 81/36/76
f 82/36/75 83/36/74 84/36/21
f 84/36/21 85/36/21 82/36/75
f 85/36/21 84/36/21 86/36/77
f 84/36/21 83/36/74 86/36/77
f 86/36/77 83/36/74 87/36/78
f 40/33/46 50/24/56 38/24/44
f 50/24/56 40/33/46 41/33/47
f 50/24/56 41/33/47 88/37/79
f 88/37/79 41/33/47 54/24/58
f 54/24/58 41/33/47 55/24/59
f 36/31/42 48/24/54 35/32/41
f 48/24/54 36/31/42 89/31/80
f 48/24/54 89/31/80 47/24/55
f 81/36/76 69/24/67 70/24/68
f 69/24/67 81/36/76 82/36/75
f 41/33/47 56/24/60 55/24/59
f 56/24/60 41/33/47 14/23/81
f 14/23/81 41/33/47 15/23/82
f 15/23/82 41/33/47 42/33/48
f 57/24/61 39/33/43 37/24/45
f 39/33/43 57/24/61 42/33/48
f 42/33/48 57/24/61 13/23/83
f 42/33/48 13/23/83 15/23/82
f 17/25/23 90/25/84 29/25/35
f 90/25/84 17/25/23 19/25/25
f 91/38/85 70/24/68 62/24/63
f 70/24/68 91/38/85 81/36/76
f 81/36/76 91/38/85 83/36/74
f 36/31/42 92/31/86 89/31/80
f 92/31/86 36/31/42 34/31/38
f 90/25/84 73/24/69 75/24/70
f 73/24/69 90/25/84 20/26/26
f 20/26/26 90/25/84 19/25/25
f 29/25/35 93/39/87 28/30/34
f 93/39/87 29/25/35 90/25/84
f 93/39/87 90/25/84 76/24/71
f 76/24/71 90/25/84 75/24/70
f 89/31/80 49/24/53 47/24/55
f 49/24/53 89/31/80 94/40/88
f 94/40/88 89/31/80 92/31/86
f 64/24/64 83/36/74 91/38/85
f 83/36/74 64/24/64 87/36/78
f 87/36/78 64/24/64 67/24/65
f 86/36/77 67/24/65 68/24/66
f 67/24/65 86/36/77 87/36/78
f 78/24/72 34/31/38 32/24/40
f 34/31/38 78/24/72 92/31/86
f 92/31/86 78/24/72 95/41/89
f 92/31/86 95/41/89 94/40/88
f 98/42/90 97/43/91 96/44/92
f 97/43/91 98/42/90 99/42/93
f 97/43/91 99/42/93 100/24/91
f 100/24/91 99/42/93 101/24/94
f 104/24/95 103/42/96 102/24/97
f 103/42/96 104/24/95 105/42/98
f 105/42/98 104/24/95 106/45/99
f 105/42/98 106/45/99 107/46/100
f 99/42/93 108/24/101 101/24/94
f 108/24/101 99/42/93 107/46/100
f 107/46/100 99/42/93 105/42/98
f 103/42/96 99/42/93 98/42/90
f 99/42/93 103/42/96 105/42/98
f 103/42/96 109/24/102 102/24/97
f 109/24/102 103/42/96 96/44/92
f 96/44/92 103/42/96 98/42/90
f 112/42/103 111/24/104 110/24/105
f 111/24/104 112/42/103 113/42/106
f 116/24/107 115/42/108 114/47/109
f 115/42/108 116/24/107 117/42/110
f 117/42/110 116/24/107 118/24/111
f 113/42/106 119/24/112 111/24/104
f 119/24/112 113/42/106 120/48/112
f 117/42/110 120/48/112 113/42/106
f 118/24/111 120/48/112 117/42/110
f 120/48/112 118/24/111 121/24/112
f 115/42/108 113/42/106 112/42/103
f 113/42/106 115/42/108 117/42/110
f 114/47/109 110/24/105 122/24/113
f 110/24/105 114/47/109 112/42/103
f 112/42/103 114/47/109 115/42/108
f 125/42/103 124/24/114 123/24/105
f 124/24/114 125/42/103 126/42/115
f 127/42/108 126/42/115 125/42/103
f 126/42/115 127/42/108 128/42/21
f 129/42/110 128/42/21 127/42/108
f 129/42/110 130/42/115 128/42/21
f 130/42/115 129/42/110 131/42/106
f 127/42/108 123/24/105 132/24/109
f 123/24/105 127/42/108 125/42/103
f 131/42/106 133/24/114 130/42/115
f 133/24/114 131/42/106 134/24/104
f 131/42/106 135/24/116 134/24/104
f 135/24/116 131/42/106 136/49/117
f 136/49/117 131/42/106 129/42/110
f 137/24/107 127/42/108 132/24/109
f 127/42/108 137/24/107 138/50/107
f 127/42/108 138/50/107 129/42/110
f 129/42/110 138/50/107 136/49/117
f 141/42/118 140/24/119 139/24/120
f 140/24/119 141/42/118 142/51/119
f 142/51/119 141/42/118 143/52/121
f 143/52/121 141/42/118 144/42/122
f 147/42/123 146/24/124 145/24/125
f 146/24/124 147/42/123 148/53/124
f 149/42/126 148/53/124 147/42/123
f 150/24/127 148/53/124 149/42/126
f 148/53/124 150/24/127 151/24/124
f 144/42/122 152/24/128 143/52/121
f 152/24/128 144/42/122 147/42/123
f 152/24/128 147/42/123 145/24/125
f 144/42/122 149/42/126 147/42/123
f 149/42/126 144/42/122 141/42/118
f 150/24/127 141/42/118 139/24/120
f 141/42/118 150/24/127 149/42/126
f 155/42/90 154/24/91 153/24/129
f 154/24/91 155/42/90 156/42/130
f 154/24/91 156/42/130 157/54/131
f 157/54/131 156/42/130 158/24/91
f 158/24/91 156/42/130 159/24/94
f 160/42/132 156/42/130 155/42/90
f 156/42/130 160/42/132 161/42/98
f 156/42/130 162/24/133 159/24/94
f 162/24/133 156/42/130 161/42/98
f 160/42/132 164/55/102 163/55/97
f 155/42/90 164/55/102 160/42/132
f 153/24/129 164/55/102 155/42/90
f 164/55/102 153/24/129 165/24/102
f 166/55/95 160/42/132 163/55/97
f 160/42/132 166/55/95 161/42/98
f 161/42/98 166/55/95 167/24/95
f 161/42/98 167/24/95 162/24/133
f 170/56/134 169/57/134 168/58/134
f 169/57/134 170/56/134 171/56/134
f 174/59/135 173/60/135 172/61/135
f 173/60/135 174/59/135 175/62/135
f 175/62/135 174/59/135 169/57/135
f 175/62/135 169/57/135 171/56/135
f 178/60/136 177/63/136 176/64/136
f 177/63/136 178/60/136 179/62/136
f 177/63/136 179/62/136 168/58/136
f 168/58/136 179/62/136 170/56/136
f 182/56/137 181/62/137 180/62/137
f 181/62/137 182/56/137 183/56/137
f 179/62/138 171/56/138 170/56/138
f 171/56/138 179/62/138 175/62/138
f 172/61/139 178/60/139 176/64/139
f 178/60/139 172/61/139 173/60/140
f 186/56/141 185/62/141 184/62/141
f 185/62/141 186/56/141 187/56/141
f 190/65/142 189/66/142 188/67/142
f 189/66/142 190/65/142 191/68/142
f 182/56/142 191/68/142 190/65/142
f 192/60/142 189/66/142 191/68/142
f 191/68/142 182/56/142 192/60/142
f 192/60/142 182/56/142 180/62/142
f 175/62/143 178/60/143 173/60/143
f 178/60/143 175/62/143 179/62/143
f 194/67/144 184/62/144 193/60/144
f 184/62/144 194/67/144 186/56/144
f 195/60/145 194/67/145 193/60/145
f 194/67/145 195/60/145 196/67/145
f 186/56/146 197/69/146 187/56/146
f 197/69/146 186/56/146 198/70/147
f 198/70/147 186/56/146 194/67/147
f 198/70/147 194/67/147 199/71/147
f 199/71/147 194/67/147 196/67/147
f 202/72/148 201/73/148 200/74/148
f 201/73/148 202/72/148 203/75/148
f 205/75/149 202/72/149 204/72/149
f 202/72/149 205/75/149 203/75/149
f 201/73/150 205/75/150 206/73/150
f 205/75/150 201/73/150 203/75/150
f 200/74/151 208/76/152 207/74/152
f 208/76/152 200/74/151 209/77/151
f 209/77/151 200/74/151 199/71/151
f 199/71/151 200/74/151 201/73/151
f 199/71/151 201/73/151 206/73/151
f 206/73/151 198/70/151 199/71/151
f 204/72/153 211/78/153 210/79/153
f 211/78/153 204/72/153 202/72/153
f 211/78/153 202/72/153 200/74/154
f 200/74/154 207/74/154 211/78/153
f 214/60/155 213/80/155 212/81/155
f 213/80/155 214/60/155 177/63/155
f 213/80/155 177/63/155 208/76/155
f 215/82/155 213/80/155 208/76/155
f 213/80/155 215/82/155 216/83/155
f 208/76/155 177/63/155 207/74/155
f 207/74/155 177/63/155 211/78/155
f 211/78/155 177/63/155 168/58/155
f 211/78/155 168/58/155 183/56/155
f 183/56/155 168/58/155 169/57/155
f 183/56/155 169/57/155 174/59/155
f 183/56/155 174/59/155 181/62/155
f 172/61/156 181/62/156 174/59/156
f 172/61/156 180/62/156 181/62/156
f 180/62/156 172/61/156 192/60/157
f 172/61/156 214/60/157 192/60/157
f 214/60/157 172/61/156 176/64/157
f 214/60/157 176/64/157 177/63/156
f 206/73/158 197/69/158 198/70/158
f 197/69/158 206/73/158 204/72/158
f 204/72/158 206/73/158 205/75/158
f 210/79/158 197/69/158 204/72/158
f 215/82/158 197/69/158 210/79/158
f 215/82/158 209/77/158 197/69/158
f 209/77/158 215/82/158 208/76/158
f 210/79/159 216/83/159 215/82/160
f 210/79/159 190/65/159 216/83/159
f 190/65/159 210/79/159 182/56/161
f 210/79/159 183/56/161 182/56/161
f 183/56/161 210/79/159 211/78/159
f 212/81/162 192/60/162 214/60/162
f 192/60/162 212/81/162 189/66/162
f 195/60/163 212/81/163 213/80/163
f 193/60/163 212/81/163 195/60/163
f 193/60/163 189/66/163 212/81/163
f 184/62/164 189/66/163 193/60/163
f 184/62/164 191/68/163 189/66/163
f 191/68/163 184/62/164 185/62/164
f 185/62/165 190/65/165 191/68/165
f 190/65/165 185/62/165 216/83/165
f 197/69/165 216/83/165 185/62/165
f 197/69/165 185/62/165 187/56/165
f 209/77/165 216/83/165 197/69/165
f 216/83/165 209/77/165 213/80/165
f 196/67/165 213/80/165 209/77/165
f 196/67/165 209/77/165 199/71/165
f 213/80/165 196/67/165 195/60/165
