# Blender 3.3.1
# www.blender.org
o crate
v 0.250250 -0.192500 0.211288
v 0.250250 0.192500 0.211288
v 0.288750 -0.192500 0.211288
v 0.288750 0.192500 0.211288
v 0.250250 -0.192500 0.053900
v 0.250250 0.192500 0.053900
v 0.288750 -0.192500 0.053900
v 0.288750 0.192500 0.053900
v 0.250250 0.192500 0.211288
v -0.250250 0.192500 0.211288
v 0.250250 0.231000 0.211288
v -0.250250 0.231000 0.211288
v 0.250250 0.192500 0.053900
v -0.250250 0.192500 0.053900
v 0.250250 0.231000 0.053900
v -0.250250 0.231000 0.053900
v -0.288750 -0.192500 0.211288
v -0.288750 0.192500 0.211288
v -0.250250 -0.192500 0.211288
v -0.250250 0.192500 0.211288
v -0.288750 -0.192500 0.053900
v -0.288750 0.192500 0.053900
v -0.250250 -0.192500 0.053900
v -0.250250 0.192500 0.053900
v 0.250250 -0.231000 0.211288
v -0.250250 -0.231000 0.211288
v 0.250250 -0.192500 0.211288
v -0.250250 -0.192500 0.211288
v 0.250250 -0.231000 0.053900
v -0.250250 -0.231000 0.053900
v 0.250250 -0.192500 0.053900
v -0.250250 -0.192500 0.053900
v -0.327250 -0.269500 -0.000000
v 0.327250 -0.269500 0.000000
v -0.327250 0.269500 -0.000000
v 0.327250 0.269500 0.000000
v 0.327250 -0.269500 0.053900
v -0.327250 -0.269500 0.053900
v 0.327250 0.269500 0.053900
v -0.327250 0.269500 0.053900
v 0.327250 -0.269500 0.269500
v 0.250250 -0.269500 0.269500
v 0.327250 -0.192500 0.269500
v 0.250250 -0.192500 0.269500
v 0.327250 -0.269500 0.053900
v 0.250250 -0.269500 0.053900
v 0.250250 -0.192500 0.053900
v 0.327250 -0.192500 0.053900
v -0.250250 -0.269500 0.269500
v -0.327250 -0.269500 0.269500
v -0.250250 -0.192500 0.269500
v -0.327250 -0.192500 0.269500
v -0.250250 -0.269500 0.053900
v -0.327250 -0.269500 0.053900
v -0.327250 -0.192500 0.053900
v -0.250250 -0.192500 0.053900
v -0.250250 0.192500 0.269500
v -0.327250 0.192500 0.269500
v -0.250250 0.269500 0.269500
v -0.327250 0.269500 0.269500
v -0.250250 0.192500 0.053900
v -0.327250 0.192500 0.053900
v -0.327250 0.269500 0.053900
v -0.250250 0.269500 0.053900
v 0.327250 0.192500 0.269500
v 0.250250 0.192500 0.269500
v 0.327250 0.269500 0.269500
v 0.250250 0.269500 0.269500
v 0.327250 0.192500 0.053900
v 0.250250 0.192500 0.053900
v 0.250250 0.269500 0.053900
v 0.327250 0.269500 0.053900
vn -0.0000 -0.0000 1.0000
vn -1.0000 -0.0000 -0.0000
vn 1.0000 -0.0000 -0.0000
vn -0.0000 -1.0000 -0.0000
vn -0.0000 1.0000 -0.0000
vn -0.0000 -0.0000 -1.0000
vt 0.968750 0.225000
vt 0.968750 0.225000
vt 0.968750 0.225000
vt 0.968750 0.225000
vt 0.968750 0.025000
vt 0.968750 0.025000
vt 0.968750 0.025000
vt 0.968750 0.025000
vt 0.968750 0.225000
vt 0.968750 0.225000
vt 0.968750 0.225000
vt 0.968750 0.225000
vt 0.968750 0.025000
vt 0.968750 0.025000
vt 0.968750 0.025000
vt 0.968750 0.025000
vt 0.968750 0.225000
vt 0.968750 0.225000
vt 0.968750 0.225000
vt 0.968750 0.225000
vt 0.968750 0.025000
vt 0.968750 0.025000
vt 0.968750 0.025000
vt 0.968750 0.025000
vt 0.968750 0.225000
vt 0.968750 0.225000
vt 0.968750 0.225000
vt 0.968750 0.225000
vt 0.968750 0.025000
vt 0.968750 0.025000
vt 0.968750 0.025000
vt 0.968750 0.025000
vt 0.968750 0.075000
vt 0.968750 0.075000
vt 0.968750 0.075000
vt 0.968750 0.075000
vt 0.968750 0.175000
vt 0.968750 0.175000
vt 0.968750 0.175000
vt 0.968750 0.175000
vt 0.843750 0.225000
vt 0.843750 0.225000
vt 0.843750 0.225000
vt 0.843750 0.225000
vt 0.843750 0.025000
vt 0.843750 0.025000
vt 0.843750 0.025000
vt 0.843750 0.025000
vt 0.843750 0.225000
vt 0.843750 0.225000
vt 0.843750 0.225000
vt 0.843750 0.225000
vt 0.843750 0.025000
vt 0.843750 0.025000
vt 0.843750 0.025000
vt 0.843750 0.025000
vt 0.843750 0.225000
vt 0.843750 0.225000
vt 0.843750 0.225000
vt 0.843750 0.225000
vt 0.843750 0.025000
vt 0.843750 0.025000
vt 0.843750 0.025000
vt 0.843750 0.025000
vt 0.843750 0.225000
vt 0.843750 0.225000
vt 0.843750 0.225000
vt 0.843750 0.225000
vt 0.843750 0.025000
vt 0.843750 0.025000
vt 0.843750 0.025000
vt 0.843750 0.025000
s 0
f 3/3/1 2/2/1 1/1/1
f 2/2/1 3/3/1 4/4/1
f 2/2/2 5/5/2 1/1/2
f 5/5/2 2/2/2 6/6/2
f 8/8/3 3/3/3 7/7/3
f 3/3/3 8/8/3 4/4/3
f 11/11/1 10/10/1 9/9/1
f 10/10/1 11/11/1 12/12/1
f 10/10/4 13/13/4 9/9/4
f 13/13/4 10/10/4 14/14/4
f 16/16/5 11/11/5 15/15/5
f 11/11/5 16/16/5 12/12/5
f 19/19/1 18/18/1 17/17/1
f 18/18/1 19/19/1 20/20/1
f 18/18/2 21/21/2 17/17/2
f 21/21/2 18/18/2 22/22/2
f 24/24/3 19/19/3 23/23/3
f 19/19/3 24/24/3 20/20/3
f 27/27/1 26/26/1 25/25/1
f 26/26/1 27/27/1 28/28/1
f 26/26/4 29/29/4 25/25/4
f 29/29/4 26/26/4 30/30/4
f 32/32/5 27/27/5 31/31/5
f 27/27/5 32/32/5 28/28/5
f 35/35/6 34/34/6 33/33/6
f 34/34/6 35/35/6 36/36/6
f 39/39/1 38/38/1 37/37/1
f 38/38/1 39/39/1 40/40/1
f 39/39/3 34/34/3 36/36/3
f 34/34/3 39/39/3 37/37/3
f 38/38/4 34/34/4 37/37/4
f 34/34/4 38/38/4 33/33/4
f 38/38/2 35/35/2 33/33/2
f 35/35/2 38/38/2 40/40/2
f 35/35/5 39/39/5 36/36/5
f 39/39/5 35/35/5 40/40/5
f 43/43/1 42/42/1 41/41/1
f 42/42/1 43/43/1 44/44/1
f 42/42/4 45/45/4 41/41/4
f 45/45/4 42/42/4 46/46/4
f 42/42/2 47/47/2 46/46/2
f 47/47/2 42/42/2 44/44/2
f 47/47/5 43/43/5 48/48/5
f 43/43/5 47/47/5 44/44/5
f 43/43/3 45/45/3 48/48/3
f 45/45/3 43/43/3 41/41/3
f 51/51/1 50/50/1 49/49/1
f 50/50/1 51/51/1 52/52/1
f 50/50/4 53/53/4 49/49/4
f 53/53/4 50/50/4 54/54/4
f 50/50/2 55/55/2 54/54/2
f 55/55/2 50/50/2 52/52/2
f 55/55/5 51/51/5 56/56/5
f 51/51/5 55/55/5 52/52/5
f 51/51/3 53/53/3 56/56/3
f 53/53/3 51/51/3 49/49/3
f 59/59/1 58/58/1 57/57/1
f 58/58/1 59/59/1 60/60/1
f 58/58/4 61/61/4 57/57/4
f 61/61/4 58/58/4 62/62/4
f 58/58/2 63/63/2 62/62/2
f 63/63/2 58/58/2 60/60/2
f 63/63/5 59/59/5 64/64/5
f 59/59/5 63/63/5 60/60/5
f 59/59/3 61/61/3 64/64/3
f 61/61/3 59/59/3 57/57/3
f 67/67/1 66/66/1 65/65/1
f 66/66/1 67/67/1 68/68/1
f 66/66/4 69/69/4 65/65/4
f 69/69/4 66/66/4 70/70/4
f 66/66/2 71/71/2 70/70/2
f 71/71/2 66/66/2 68/68/2
f 71/71/5 67/67/5 72/72/5
f 67/67/5 71/71/5 68/68/5
f 67/67/3 69/69/3 72/72/3
f 69/69/3 67/67/3 65/65/3
f 3/3/1 2/2/1 1/1/1
f 2/2/1 3/3/1 4/4/1
f 2/2/2 5/5/2 1/1/2
f 5/5/2 2/2/2 6/6/2
f 8/8/3 3/3/3 7/7/3
f 3/3/3 8/8/3 4/4/3
f 11/11/1 10/10/1 9/9/1
f 10/10/1 11/11/1 12/12/1
f 10/10/4 13/13/4 9/9/4
f 13/13/4 10/10/4 14/14/4
f 16/16/5 11/11/5 15/15/5
f 11/11/5 16/16/5 12/12/5
f 19/19/1 18/18/1 17/17/1
f 18/18/1 19/19/1 20/20/1
f 18/18/2 21/21/2 17/17/2
f 21/21/2 18/18/2 22/22/2
f 24/24/3 19/19/3 23/23/3
f 19/19/3 24/24/3 20/20/3
f 27/27/1 26/26/1 25/25/1
f 26/26/1 27/27/1 28/28/1
f 26/26/4 29/29/4 25/25/4
f 29/29/4 26/26/4 30/30/4
f 32/32/5 27/27/5 31/31/5
f 27/27/5 32/32/5 28/28/5
f 35/35/6 34/34/6 33/33/6
f 34/34/6 35/35/6 36/36/6
f 39/39/1 38/38/1 37/37/1
f 38/38/1 39/39/1 40/40/1
f 39/39/3 34/34/3 36/36/3
f 34/34/3 39/39/3 37/37/3
f 38/38/4 34/34/4 37/37/4
f 34/34/4 38/38/4 33/33/4
f 38/38/2 35/35/2 33/33/2
f 35/35/2 38/38/2 40/40/2
f 35/35/5 39/39/5 36/36/5
f 39/39/5 35/35/5 40/40/5
f 43/43/1 42/42/1 41/41/1
f 42/42/1 43/43/1 44/44/1
f 42/42/4 45/45/4 41/41/4
f 45/45/4 42/42/4 46/46/4
f 42/42/2 47/47/2 46/46/2
f 47/47/2 42/42/2 44/44/2
f 47/47/5 43/43/5 48/48/5
f 43/43/5 47/47/5 44/44/5
f 43/43/3 45/45/3 48/48/3
f 45/45/3 43/43/3 41/41/3
f 51/51/1 50/50/1 49/49/1
f 50/50/1 51/51/1 52/52/1
f 50/50/4 53/53/4 49/49/4
f 53/53/4 50/50/4 54/54/4
f 50/50/2 55/55/2 54/54/2
f 55/55/2 50/50/2 52/52/2
f 55/55/5 51/51/5 56/56/5
f 51/51/5 55/55/5 52/52/5
f 51/51/3 53/53/3 56/56/3
f 53/53/3 51/51/3 49/49/3
f 59/59/1 58/58/1 57/57/1
f 58/58/1 59/59/1 60/60/1
f 58/58/4 61/61/4 57/57/4
f 61/61/4 58/58/4 62/62/4
f 58/58/2 63/63/2 62/62/2
f 63/63/2 58/58/2 60/60/2
f 63/63/5 59/59/5 64/64/5
f 59/59/5 63/63/5 60/60/5
f 59/59/3 61/61/3 64/64/3
f 61/61/3 59/59/3 57/57/3
f 67/67/1 66/66/1 65/65/1
f 66/66/1 67/67/1 68/68/1
f 66/66/4 69/69/4 65/65/4
f 69/69/4 66/66/4 70/70/4
f 66/66/2 71/71/2 70/70/2
f 71/71/2 66/66/2 68/68/2
f 71/71/5 67/67/5 72/72/5
f 67/67/5 71/71/5 68/68/5
f 67/67/3 69/69/3 72/72/3
f 69/69/3 67/67/3 65/65/3
