# Blender 3.3.1
# www.blender.org
mtllib Gravestone.mtl
g gravestone-bevel_Mesh
v -0.070000 0.041872 0.017440
v 0.070000 0.041872 0.017440
v -0.070000 0.052079 0.045485
v -0.044773 0.050490 0.041119
v -0.061563 0.057209 0.059580
v 0.044773 0.050490 0.041119
v -0.044773 0.078459 0.117964
v -0.070000 0.062340 0.073676
v 0.070000 0.084254 0.133884
v -0.070000 0.084254 0.133884
v -0.020236 0.078459 0.117964
v 0.044773 0.078459 0.117964
v -0.011671 0.089379 0.147967
v -0.039593 0.087077 0.141642
v -0.061734 0.087077 0.141642
v -0.034289 0.093841 0.160224
v -0.006738 0.091065 0.152597
v 0.000000 0.091681 0.154291
v 0.034289 0.093841 0.160224
v 0.006738 0.091065 0.152597
v -0.019797 0.098792 0.173827
v 0.011671 0.089379 0.147967
v 0.020236 0.078459 0.117964
v 0.019797 0.098792 0.173827
v 0.000000 0.100604 0.178805
v 0.039593 0.087077 0.141642
v 0.061734 0.087077 0.141642
v -0.039593 0.030696 0.162164
v -0.061734 0.030696 0.162164
v -0.070000 0.027872 0.154405
v -0.070000 0.005958 0.094197
v 0.061734 0.030696 0.162164
v 0.070000 0.027872 0.154405
v 0.039593 0.030696 0.162164
v 0.034289 0.037459 0.180745
v 0.019797 0.042410 0.194348
v 0.000000 0.044222 0.199327
v -0.019797 0.042410 0.194348
v -0.034289 0.037459 0.180745
v -0.020236 0.059665 0.124804
v -0.044773 0.059665 0.124804
v -0.011671 0.070586 0.154807
v -0.006738 0.072271 0.159437
v 0.000000 0.072887 0.161132
v 0.006738 0.072271 0.159437
v 0.011671 0.070586 0.154807
v 0.020236 0.059665 0.124804
v 0.044773 0.059665 0.124804
v 0.044773 0.031696 0.047959
v -0.044773 0.031696 0.047959
v -0.020236 0.022078 0.138485
v -0.020236 0.040871 0.131645
v -0.044773 0.022078 0.138485
v -0.044773 0.040871 0.131645
v -0.044773 0.012902 0.054800
v -0.044773 -0.005892 0.061640
v 0.044773 0.012902 0.054800
v 0.044773 -0.005892 0.061640
v 0.044773 0.040871 0.131645
v 0.044773 0.022078 0.138485
v 0.020236 0.022078 0.138485
v 0.020236 0.040871 0.131645
v 0.011671 0.051792 0.161648
v 0.011671 0.032998 0.168488
v 0.006738 0.053477 0.166278
v 0.006738 0.034683 0.173118
v 0.000000 0.035300 0.174813
v 0.000000 0.054094 0.167972
v -0.006738 0.034683 0.173118
v -0.006738 0.053477 0.166278
v -0.011671 0.032998 0.168488
v -0.011671 0.051792 0.161648
v 0.070000 -0.014510 0.037961
v -0.070000 -0.014510 0.037961
v -0.070000 -0.004303 0.066006
v -0.061563 0.000828 0.080101
v 0.090000 0.041872 0.017440
v 0.090000 -0.014510 0.037961
v 0.070000 0.060665 0.010600
v 0.070000 -0.033304 0.044802
v -0.070000 0.060665 0.010600
v -0.070000 -0.033304 0.044802
v -0.090000 0.041872 0.017440
v -0.090000 -0.014510 0.037961
v 0.090000 0.028191 -0.020148
v 0.090000 -0.028191 0.000374
v -0.070000 0.046985 -0.026988
v 0.070000 0.046985 -0.026988
v 0.070000 -0.046985 0.007214
v -0.070000 -0.046985 0.007214
v -0.090000 -0.028191 0.000374
v -0.090000 0.028191 -0.020148
vn -0.0000 0.9397 -0.3420
vn -0.3823 0.3161 0.8683
vn -0.0000 0.3420 0.9397
vn -0.3823 0.3160 0.8683
vn -0.9237 0.1310 0.3600
vn -1.0000 -0.0000 -0.0000
vn -0.9237 0.1310 0.3599
vn 0.3823 0.3161 0.8683
vn 0.9237 0.1310 0.3600
vn 0.3823 0.3160 0.8683
vn 0.8658 0.1712 0.4703
vn 0.9659 0.0886 0.2435
vn 0.4996 0.2963 0.8140
vn 0.8658 0.1712 0.4702
vn 0.8658 0.1711 0.4702
vn 0.4996 0.2964 0.8140
vn -0.4996 0.2963 0.8140
vn -0.8658 0.1712 0.4702
vn -0.4996 0.2964 0.8140
vn -0.8658 0.1711 0.4702
vn -0.9659 0.0886 0.2435
vn -0.8658 0.1712 0.4703
vn -0.0000 -0.3420 -0.9397
vn 0.9659 -0.0886 -0.2435
vn 0.7067 -0.2420 -0.6648
vn 0.2585 -0.3304 -0.9077
vn -0.2585 -0.3304 -0.9077
vn -0.7067 -0.2420 -0.6648
vn -0.9659 -0.0886 -0.2435
vn 1.0000 -0.0000 -0.0000
vn -0.0000 -0.9397 0.3420
vn -0.8716 0.1677 0.4607
vn -0.8716 -0.1677 -0.4607
vn 0.9237 0.1310 0.3599
vn 0.9239 -0.3596 0.1309
vn 0.9239 0.3596 -0.1309
vn -0.3827 0.8682 -0.3160
vn 0.3827 0.8682 -0.3160
vn 0.3827 -0.8682 0.3160
vn -0.3827 -0.8682 0.3160
vn -0.9239 -0.3596 0.1309
vn -0.9239 0.3596 -0.1309
vn -0.0000 0.9397 -0.3421
vt 0.968750 0.225000
vt 0.968750 0.225000
vt 0.968750 0.190241
vt 0.968750 0.195652
vt 0.968750 0.172771
vt 0.968750 0.195652
vt 0.968750 0.100409
vt 0.968750 0.155300
vt 0.968750 0.080677
vt 0.968750 0.080677
vt 0.968750 0.100409
vt 0.968750 0.100409
vt 0.968750 0.063222
vt 0.968750 0.071061
vt 0.968750 0.071061
vt 0.968750 0.048030
vt 0.968750 0.057484
vt 0.968750 0.055383
vt 0.968750 0.048030
vt 0.968750 0.057484
vt 0.968750 0.031171
vt 0.968750 0.063222
vt 0.968750 0.100409
vt 0.968750 0.031171
vt 0.968750 0.025000
vt 0.968750 0.071061
vt 0.968750 0.071061
vt 0.968750 0.071061
vt 0.968750 0.071061
vt 0.968750 0.080677
vt 0.968750 0.155300
vt 0.968750 0.071061
vt 0.968750 0.080677
vt 0.968750 0.071061
vt 0.968750 0.048030
vt 0.968750 0.031171
vt 0.968750 0.025000
vt 0.968750 0.031171
vt 0.968750 0.048030
vt 0.968750 0.100409
vt 0.093750 0.100409
vt 0.968750 0.100409
vt 0.093750 0.100409
vt 0.968750 0.063222
vt 0.093750 0.063222
vt 0.968750 0.057484
vt 0.093750 0.057484
vt 0.968750 0.055383
vt 0.093750 0.055383
vt 0.968750 0.057484
vt 0.093750 0.057484
vt 0.968750 0.063222
vt 0.093750 0.063222
vt 0.968750 0.100409
vt 0.093750 0.100409
vt 0.968750 0.100409
vt 0.093750 0.100409
vt 0.968750 0.195652
vt 0.093750 0.195652
vt 0.968750 0.195652
vt 0.093750 0.195652
vt 0.968750 0.100409
vt 0.968750 0.100409
vt 0.093750 0.100409
vt 0.968750 0.100409
vt 0.968750 0.100409
vt 0.093750 0.100409
vt 0.968750 0.195652
vt 0.093750 0.195652
vt 0.968750 0.195652
vt 0.968750 0.195652
vt 0.093750 0.195652
vt 0.968750 0.195652
vt 0.968750 0.100409
vt 0.093750 0.100409
vt 0.968750 0.100409
vt 0.968750 0.100409
vt 0.968750 0.100409
vt 0.093750 0.100409
vt 0.968750 0.063222
vt 0.093750 0.063222
vt 0.968750 0.063222
vt 0.968750 0.057484
vt 0.093750 0.057484
vt 0.968750 0.057484
vt 0.968750 0.055383
vt 0.968750 0.055383
vt 0.093750 0.055383
vt 0.968750 0.057484
vt 0.968750 0.057484
vt 0.093750 0.057484
vt 0.968750 0.063222
vt 0.968750 0.063222
vt 0.093750 0.063222
vt 0.968750 0.225000
vt 0.968750 0.225000
vt 0.968750 0.190241
vt 0.968750 0.172771
vt 0.968750 0.175000
vt 0.968750 0.175000
vt 0.968750 0.175000
vt 0.968750 0.175000
vt 0.968750 0.175000
vt 0.968750 0.175000
vt 0.968750 0.175000
vt 0.968750 0.175000
vt 0.968750 0.075000
vt 0.968750 0.075000
vt 0.968750 0.075000
vt 0.968750 0.075000
vt 0.968750 0.075000
vt 0.968750 0.075000
vt 0.968750 0.075000
vt 0.968750 0.075000
s 0
usemtl colormap.004
f 3/3/1 2/2/1 1/1/1
f 2/2/1 3/3/1 4/4/1
f 4/4/1 3/3/1 5/5/1
f 6/6/1 2/2/1 4/4/1
f 4/4/1 5/5/1 7/7/1
f 7/7/1 5/5/1 8/8/1
f 2/2/1 6/6/1 9/9/1
f 7/7/1 8/8/1 10/10/1
f 7/7/1 10/10/1 11/11/1
f 9/9/1 6/6/1 12/12/1
f 11/11/1 10/10/1 13/13/1
f 13/13/1 10/10/1 14/14/1
f 14/14/1 10/10/1 15/15/1
f 13/13/1 14/14/1 16/16/1
f 13/13/1 16/16/1 17/17/1
f 17/17/1 16/16/1 18/18/1
f 19/19/1 18/18/1 16/16/1
f 19/19/1 20/20/1 18/18/1
f 19/19/1 16/16/1 21/21/1
f 19/19/1 22/22/1 20/20/1
f 12/12/1 22/22/1 9/9/1
f 22/22/1 12/12/1 23/23/1
f 19/19/1 21/21/1 24/24/1
f 24/24/1 21/21/1 25/25/1
f 26/26/1 22/22/1 19/19/1
f 9/9/1 22/22/1 26/26/1
f 9/9/1 26/26/1 27/27/1
f 15/15/2 28/28/3 14/14/3
f 28/28/3 15/15/4 29/29/2
f 10/10/5 29/29/2 15/15/4
f 29/29/4 10/10/5 30/30/5
f 8/8/6 30/30/7 10/10/5
f 30/30/7 8/8/6 31/31/6
f 32/32/8 9/9/9 27/27/10
f 9/9/9 32/32/10 33/33/9
f 26/26/3 32/32/10 27/27/10
f 32/32/10 26/26/3 34/34/3
f 35/35/11 26/26/12 19/19/11
f 26/26/12 35/35/11 34/34/12
f 24/24/13 35/35/14 19/19/14
f 35/35/15 24/24/13 36/36/16
f 25/25/3 36/36/13 24/24/13
f 36/36/13 25/25/3 37/37/3
f 21/21/17 37/37/3 25/25/3
f 37/37/3 21/21/17 38/38/17
f 16/16/18 38/38/17 21/21/19
f 38/38/17 16/16/20 39/39/18
f 28/28/21 16/16/22 14/14/21
f 16/16/22 28/28/21 39/39/22
f 41/42/23 11/11/23 40/40/23
f 11/11/23 41/42/23 7/7/23
f 42/44/24 11/11/24 13/13/24
f 11/11/24 42/44/24 40/40/24
f 42/44/25 17/17/25 43/46/25
f 17/17/25 42/44/25 13/13/25
f 43/46/26 18/18/26 44/48/26
f 18/18/26 43/46/26 17/17/26
f 44/48/27 20/20/27 45/50/27
f 20/20/27 44/48/27 18/18/27
f 46/52/28 20/20/28 22/22/28
f 20/20/28 46/52/28 45/50/28
f 23/23/29 46/52/29 22/22/29
f 46/52/29 23/23/29 47/54/29
f 47/54/23 12/12/23 48/56/23
f 12/12/23 47/54/23 23/23/23
f 6/6/6 48/56/6 12/12/6
f 48/56/6 6/6/6 49/58/6
f 4/4/3 49/58/3 6/6/3
f 49/58/3 4/4/3 50/60/3
f 41/42/30 4/4/30 7/7/30
f 4/4/30 41/42/30 50/60/30
f 53/65/23 52/63/23 51/62/23
f 52/63/23 53/65/23 54/66/23
f 53/65/30 55/68/30 54/66/30
f 55/68/30 53/65/30 56/70/30
f 55/68/3 58/73/3 57/71/3
f 58/73/3 55/68/3 56/70/3
f 58/73/6 59/74/6 57/71/6
f 59/74/6 58/73/6 60/76/6
f 61/77/23 59/74/23 60/76/23
f 59/74/23 61/77/23 62/78/23
f 61/77/29 63/80/29 62/78/29
f 63/80/29 61/77/29 64/82/29
f 64/82/28 65/83/28 63/80/28
f 65/83/28 64/82/28 66/85/28
f 67/86/27 65/83/27 66/85/27
f 65/83/27 67/86/27 68/87/27
f 69/89/26 68/87/26 67/86/26
f 68/87/26 69/89/26 70/90/26
f 71/92/25 70/90/25 69/89/25
f 70/90/25 71/92/25 72/93/25
f 71/92/24 52/63/24 72/93/24
f 52/63/24 71/92/24 51/62/24
f 34/34/31 33/33/31 32/32/31
f 64/82/31 33/33/31 34/34/31
f 64/82/31 34/34/31 35/35/31
f 61/77/31 33/33/31 64/82/31
f 60/76/31 33/33/31 61/77/31
f 64/82/31 35/35/31 66/85/31
f 58/73/31 33/33/31 60/76/31
f 58/73/31 73/95/31 33/33/31
f 73/95/31 58/73/31 74/96/31
f 56/70/31 74/96/31 58/73/31
f 74/96/31 56/70/31 75/97/31
f 75/97/31 56/70/31 76/98/31
f 76/98/31 56/70/31 53/65/31
f 76/98/31 53/65/31 31/31/31
f 66/85/31 35/35/31 67/86/31
f 31/31/31 53/65/31 30/30/31
f 39/39/31 67/86/31 35/35/31
f 39/39/31 69/89/31 67/86/31
f 39/39/31 35/35/31 36/36/31
f 39/39/31 71/92/31 69/89/31
f 53/65/31 71/92/31 30/30/31
f 71/92/31 53/65/31 51/62/31
f 39/39/31 36/36/31 38/38/31
f 38/38/31 36/36/31 37/37/31
f 28/28/31 71/92/31 39/39/31
f 30/30/31 71/92/31 28/28/31
f 29/29/31 30/30/31 28/28/31
f 75/97/32 5/5/6 3/3/32
f 5/5/6 75/97/32 76/98/6
f 76/98/6 8/8/33 5/5/6
f 8/8/33 76/98/6 31/31/33
f 74/96/6 3/3/6 1/1/6
f 3/3/6 74/96/6 75/97/6
f 33/33/34 2/2/30 9/9/9
f 2/2/30 33/33/9 73/95/30
f 79/101/3 78/100/3 77/99/3
f 78/100/3 79/101/3 80/102/3
f 80/102/3 79/101/3 81/103/3
f 80/102/3 81/103/3 82/104/3
f 82/104/3 81/103/3 83/105/3
f 82/104/3 83/105/3 84/106/3
f 78/100/35 85/107/36 77/99/36
f 85/107/36 78/100/35 86/108/35
f 81/103/37 88/110/38 87/109/37
f 88/110/38 81/103/37 79/101/38
f 77/99/36 88/110/38 79/101/38
f 88/110/38 77/99/36 85/107/36
f 89/111/23 85/107/23 86/108/23
f 85/107/23 89/111/23 88/110/23
f 88/110/23 89/111/23 90/112/23
f 88/110/23 90/112/23 87/109/23
f 87/109/23 90/112/23 91/113/23
f 87/109/23 91/113/23 92/114/23
f 80/102/39 86/108/35 78/100/35
f 86/108/35 80/102/39 89/111/39
f 90/112/40 84/106/41 91/113/41
f 84/106/41 90/112/40 82/104/40
f 91/113/41 83/105/42 92/114/42
f 83/105/42 91/113/41 84/106/41
f 92/114/42 81/103/37 87/109/37
f 81/103/37 92/114/42 83/105/42
f 80/102/39 90/112/40 89/111/39
f 90/112/40 80/102/39 82/104/40
f 45/51/1 43/47/1 44/49/1
f 46/53/1 43/47/1 45/51/1
f 46/53/1 42/45/1 43/47/1
f 47/55/1 42/45/1 46/53/1
f 42/45/1 47/55/1 40/41/1
f 48/57/43 40/41/43 47/55/43
f 49/59/1 40/41/1 48/57/1
f 49/59/1 41/43/1 40/41/1
f 41/43/1 49/59/1 50/61/1
f 54/67/31 55/69/31 52/64/31
f 55/69/31 59/75/31 52/64/31
f 59/75/31 55/69/31 57/72/31
f 52/64/31 59/75/31 62/79/31
f 52/64/31 62/79/31 72/94/31
f 72/94/31 62/79/31 63/81/31
f 72/94/31 63/81/31 70/91/31
f 70/91/31 63/81/31 65/84/31
f 70/91/31 65/84/31 68/88/31
f 3/3/1 2/2/1 1/1/1
f 2/2/1 3/3/1 4/4/1
f 4/4/1 3/3/1 5/5/1
f 6/6/1 2/2/1 4/4/1
f 4/4/1 5/5/1 7/7/1
f 7/7/1 5/5/1 8/8/1
f 2/2/1 6/6/1 9/9/1
f 7/7/1 8/8/1 10/10/1
f 7/7/1 10/10/1 11/11/1
f 9/9/1 6/6/1 12/12/1
f 11/11/1 10/10/1 13/13/1
f 13/13/1 10/10/1 14/14/1
f 14/14/1 10/10/1 15/15/1
f 13/13/1 14/14/1 16/16/1
f 13/13/1 16/16/1 17/17/1
f 17/17/1 16/16/1 18/18/1
f 19/19/1 18/18/1 16/16/1
f 19/19/1 20/20/1 18/18/1
f 19/19/1 16/16/1 21/21/1
f 19/19/1 22/22/1 20/20/1
f 12/12/1 22/22/1 9/9/1
f 22/22/1 12/12/1 23/23/1
f 19/19/1 21/21/1 24/24/1
f 24/24/1 21/21/1 25/25/1
f 26/26/1 22/22/1 19/19/1
f 9/9/1 22/22/1 26/26/1
f 9/9/1 26/26/1 27/27/1
f 15/15/2 28/28/3 14/14/3
f 28/28/3 15/15/4 29/29/2
f 10/10/5 29/29/2 15/15/4
f 29/29/4 10/10/5 30/30/5
f 8/8/6 30/30/7 10/10/5
f 30/30/7 8/8/6 31/31/6
f 32/32/8 9/9/9 27/27/10
f 9/9/9 32/32/10 33/33/9
f 26/26/3 32/32/10 27/27/10
f 32/32/10 26/26/3 34/34/3
f 35/35/11 26/26/12 19/19/11
f 26/26/12 35/35/11 34/34/12
f 24/24/13 35/35/14 19/19/14
f 35/35/15 24/24/13 36/36/16
f 25/25/3 36/36/13 24/24/13
f 36/36/13 25/25/3 37/37/3
f 21/21/17 37/37/3 25/25/3
f 37/37/3 21/21/17 38/38/17
f 16/16/18 38/38/17 21/21/19
f 38/38/17 16/16/20 39/39/18
f 28/28/21 16/16/22 14/14/21
f 16/16/22 28/28/21 39/39/22
f 41/42/23 11/11/23 40/40/23
f 11/11/23 41/42/23 7/7/23
f 42/44/24 11/11/24 13/13/24
f 11/11/24 42/44/24 40/40/24
f 42/44/25 17/17/25 43/46/25
f 17/17/25 42/44/25 13/13/25
f 43/46/26 18/18/26 44/48/26
f 18/18/26 43/46/26 17/17/26
f 44/48/27 20/20/27 45/50/27
f 20/20/27 44/48/27 18/18/27
f 46/52/28 20/20/28 22/22/28
f 20/20/28 46/52/28 45/50/28
f 23/23/29 46/52/29 22/22/29
f 46/52/29 23/23/29 47/54/29
f 47/54/23 12/12/23 48/56/23
f 12/12/23 47/54/23 23/23/23
f 6/6/6 48/56/6 12/12/6
f 48/56/6 6/6/6 49/58/6
f 4/4/3 49/58/3 6/6/3
f 49/58/3 4/4/3 50/60/3
f 41/42/30 4/4/30 7/7/30
f 4/4/30 41/42/30 50/60/30
f 53/65/23 52/63/23 51/62/23
f 52/63/23 53/65/23 54/66/23
f 53/65/30 55/68/30 54/66/30
f 55/68/30 53/65/30 56/70/30
f 55/68/3 58/73/3 57/71/3
f 58/73/3 55/68/3 56/70/3
f 58/73/6 59/74/6 57/71/6
f 59/74/6 58/73/6 60/76/6
f 61/77/23 59/74/23 60/76/23
f 59/74/23 61/77/23 62/78/23
f 61/77/29 63/80/29 62/78/29
f 63/80/29 61/77/29 64/82/29
f 64/82/28 65/83/28 63/80/28
f 65/83/28 64/82/28 66/85/28
f 67/86/27 65/83/27 66/85/27
f 65/83/27 67/86/27 68/87/27
f 69/89/26 68/87/26 67/86/26
f 68/87/26 69/89/26 70/90/26
f 71/92/25 70/90/25 69/89/25
f 70/90/25 71/92/25 72/93/25
f 71/92/24 52/63/24 72/93/24
f 52/63/24 71/92/24 51/62/24
f 34/34/31 33/33/31 32/32/31
f 64/82/31 33/33/31 34/34/31
f 64/82/31 34/34/31 35/35/31
f 61/77/31 33/33/31 64/82/31
f 60/76/31 33/33/31 61/77/31
f 64/82/31 35/35/31 66/85/31
f 58/73/31 33/33/31 60/76/31
f 58/73/31 73/95/31 33/33/31
f 73/95/31 58/73/31 74/96/31
f 56/70/31 74/96/31 58/73/31
f 74/96/31 56/70/31 75/97/31
f 75/97/31 56/70/31 76/98/31
f 76/98/31 56/70/31 53/65/31
f 76/98/31 53/65/31 31/31/31
f 66/85/31 35/35/31 67/86/31
f 31/31/31 53/65/31 30/30/31
f 39/39/31 67/86/31 35/35/31
f 39/39/31 69/89/31 67/86/31
f 39/39/31 35/35/31 36/36/31
f 39/39/31 71/92/31 69/89/31
f 53/65/31 71/92/31 30/30/31
f 71/92/31 53/65/31 51/62/31
f 39/39/31 36/36/31 38/38/31
f 38/38/31 36/36/31 37/37/31
f 28/28/31 71/92/31 39/39/31
f 30/30/31 71/92/31 28/28/31
f 29/29/31 30/30/31 28/28/31
f 75/97/32 5/5/6 3/3/32
f 5/5/6 75/97/32 76/98/6
f 76/98/6 8/8/33 5/5/6
f 8/8/33 76/98/6 31/31/33
f 74/96/6 3/3/6 1/1/6
f 3/3/6 74/96/6 75/97/6
f 33/33/34 2/2/30 9/9/9
f 2/2/30 33/33/9 73/95/30
f 79/101/3 78/100/3 77/99/3
f 78/100/3 79/101/3 80/102/3
f 80/102/3 79/101/3 81/103/3
f 80/102/3 81/103/3 82/104/3
f 82/104/3 81/103/3 83/105/3
f 82/104/3 83/105/3 84/106/3
f 78/100/35 85/107/36 77/99/36
f 85/107/36 78/100/35 86/108/35
f 81/103/37 88/110/38 87/109/37
f 88/110/38 81/103/37 79/101/38
f 77/99/36 88/110/38 79/101/38
f 88/110/38 77/99/36 85/107/36
f 89/111/23 85/107/23 86/108/23
f 85/107/23 89/111/23 88/110/23
f 88/110/23 89/111/23 90/112/23
f 88/110/23 90/112/23 87/109/23
f 87/109/23 90/112/23 91/113/23
f 87/109/23 91/113/23 92/114/23
f 80/102/39 86/108/35 78/100/35
f 86/108/35 80/102/39 89/111/39
f 90/112/40 84/106/41 91/113/41
f 84/106/41 90/112/40 82/104/40
f 91/113/41 83/105/42 92/114/42
f 83/105/42 91/113/41 84/106/41
f 92/114/42 81/103/37 87/109/37
f 81/103/37 92/114/42 83/105/42
f 80/102/39 90/112/40 89/111/39
f 90/112/40 80/102/39 82/104/40
f 45/51/1 43/47/1 44/49/1
f 46/53/1 43/47/1 45/51/1
f 46/53/1 42/45/1 43/47/1
f 47/55/1 42/45/1 46/53/1
f 42/45/1 47/55/1 40/41/1
f 48/57/43 40/41/43 47/55/43
f 49/59/1 40/41/1 48/57/1
f 49/59/1 41/43/1 40/41/1
f 41/43/1 49/59/1 50/61/1
f 54/67/31 55/69/31 52/64/31
f 55/69/31 59/75/31 52/64/31
f 59/75/31 55/69/31 57/72/31
f 52/64/31 59/75/31 62/79/31
f 52/64/31 62/79/31 72/94/31
f 72/94/31 62/79/31 63/81/31
f 72/94/31 63/81/31 70/91/31
f 70/91/31 63/81/31 65/84/31
f 70/91/31 65/84/31 68/88/31
