# Blender 5.1.1
# www.blender.org
mtllib ice_cube.mtl
o Icosphere.001
v -0.000000 -0.000000 -0.140000
v -0.101304 0.073601 -0.062610
v 0.038694 0.119090 -0.062610
v 0.125220 0.000000 -0.062610
v 0.038694 -0.119090 -0.062610
v -0.101304 -0.073601 -0.062610
v -0.038694 0.119090 0.062610
v 0.101304 0.073601 0.062610
v 0.101304 -0.073601 0.062610
v -0.038694 -0.119090 0.062610
v -0.125220 -0.000000 0.062610
v -0.000000 0.000000 0.140000
vn -0.1876 0.5774 -0.7947
vn -0.6071 -0.0000 -0.7947
vn 0.4911 0.3568 -0.7947
vn 0.4911 -0.3568 -0.7947
vn -0.1876 -0.5774 -0.7947
vn -0.9822 -0.0000 -0.1876
vn -0.3035 0.9342 -0.1876
vn 0.7946 0.5774 -0.1876
vn 0.7946 -0.5774 -0.1876
vn -0.3035 -0.9342 -0.1876
vn -0.7946 0.5774 0.1876
vn 0.3035 0.9342 0.1876
vn 0.9822 -0.0000 0.1876
vn 0.3035 -0.9342 0.1876
vn -0.7946 -0.5774 0.1876
vn -0.4911 0.3568 0.7947
vn 0.1876 0.5774 0.7947
vn 0.6071 -0.0000 0.7947
vn 0.1876 -0.5774 0.7947
vn -0.4911 -0.3568 0.7947
vt 0.429556 0.575422
vt 0.429920 0.591168
vt 0.429193 0.591168
vt 0.430284 0.575422
vt 0.430647 0.591168
vt 0.432465 0.575422
vt 0.432829 0.591168
vt 0.432102 0.591168
vt 0.431738 0.575422
vt 0.431374 0.591168
vt 0.431011 0.575422
vt 0.430284 0.606914
vt 0.429556 0.606914
vt 0.432465 0.606914
vt 0.431738 0.606914
vt 0.431011 0.606914
vt 0.428829 0.606914
vt 0.429920 0.622660
vt 0.429193 0.622660
vt 0.432102 0.622660
vt 0.431374 0.622660
vt 0.430647 0.622660
s 0
usemtl colormap
f 1/1/1 2/2/1 3/3/1
f 2/2/2 1/4/2 6/5/2
f 1/6/3 3/7/3 4/8/3
f 1/9/4 4/8/4 5/10/4
f 1/11/5 5/10/5 6/5/5
f 2/2/6 6/5/6 11/12/6
f 3/3/7 2/2/7 7/13/7
f 4/8/8 3/7/8 8/14/8
f 5/10/9 4/8/9 9/15/9
f 6/5/10 5/10/10 10/16/10
f 2/2/11 11/12/11 7/13/11
f 3/3/12 7/13/12 8/17/12
f 4/8/13 8/14/13 9/15/13
f 5/10/14 9/15/14 10/16/14
f 6/5/15 10/16/15 11/12/15
f 7/13/16 11/12/16 12/18/16
f 8/17/17 7/13/17 12/19/17
f 9/15/18 8/14/18 12/20/18
f 10/16/19 9/15/19 12/21/19
f 11/12/20 10/16/20 12/22/20
