# Blender 3.3.1
# www.blender.org
o lantern
v 0.101868 0.058814 1.287036
v -0.000000 0.117628 1.287036
v 0.070741 0.040842 1.230740
v -0.000000 0.081686 1.230740
v -0.131662 -0.076015 1.618242
v -0.131662 0.076015 1.618242
v -0.065832 -0.038008 1.737279
v -0.065832 0.038008 1.737279
v -0.070742 0.040842 1.230740
v -0.101868 0.058814 1.287036
v -0.000000 -0.262598 1.549760
v 0.227415 -0.131300 1.549760
v -0.227416 -0.131300 1.549760
v -0.227416 0.131300 1.549760
v 0.227415 0.131300 1.549760
v -0.000000 0.262598 1.549760
v 0.088427 -0.051053 1.184215
v -0.000000 -0.102108 1.184215
v 0.070741 -0.040842 1.230740
v -0.000000 -0.081686 1.230740
v -0.070742 -0.040842 1.230740
v -0.088427 -0.051053 1.184215
v -0.000000 0.102108 1.184215
v -0.088427 0.051053 1.184215
v 0.088427 0.051053 1.184215
v -0.000000 0.152030 1.618242
v -0.000000 -0.117628 1.287036
v -0.101868 -0.058814 1.287036
v 0.101868 -0.058814 1.287036
v -0.000000 0.076015 1.737279
v 0.131662 0.076015 1.618242
v 0.131662 -0.076015 1.618242
v 0.065832 0.038008 1.737279
v 0.065832 -0.038008 1.737279
v -0.000000 -0.076015 1.737279
v -0.000000 -0.152030 1.618242
v -0.000000 0.071799 1.184215
v -0.062177 0.035898 1.184215
v 0.062177 0.035898 1.184215
v -0.062177 -0.035898 1.184215
v 0.062177 -0.035898 1.184215
v -0.000000 -0.071799 1.184215
v -0.000000 0.103636 0.541386
v -0.000000 0.103636 0.580973
v -0.089751 0.051816 0.541386
v -0.089751 0.051816 0.580973
v -0.149682 -0.149682 -0.000000
v -0.149682 0.149682 -0.000000
v -0.137707 -0.137707 0.081660
v -0.137707 0.137707 0.081660
v 0.089751 0.051816 0.541386
v 0.089751 0.051816 0.580973
v -0.083614 -0.048274 0.081660
v -0.083614 0.048274 0.081660
v -0.101790 -0.058769 0.445351
v -0.101790 0.058769 0.445351
v 0.101790 0.058769 0.445351
v -0.000000 0.117536 0.445351
v 0.083614 0.048274 0.081660
v -0.000000 0.096548 0.081660
v 0.083614 -0.048274 0.081660
v 0.101790 -0.058769 0.445351
v 0.071066 0.041029 0.541386
v 0.071066 -0.041029 0.541386
v -0.000000 0.082058 0.541386
v -0.071066 0.041029 0.541386
v 0.149682 -0.149682 0.000000
v 0.137707 -0.137707 0.081660
v -0.000000 -0.103636 0.580973
v -0.000000 -0.103636 0.541386
v -0.089751 -0.051816 0.580973
v -0.089751 -0.051816 0.541386
v 0.149682 0.149682 0.000000
v 0.137707 0.137707 0.081660
v -0.000000 -0.117536 0.445351
v -0.000000 -0.082058 0.541386
v -0.071066 -0.041029 0.541386
v -0.000000 -0.096548 0.081660
v 0.048778 0.028163 0.653818
v -0.000000 0.056326 0.653818
v 0.089751 -0.051816 0.580973
v 0.048778 -0.028163 0.653818
v 0.089751 -0.051816 0.541386
v -0.048779 -0.028163 0.653818
v -0.048779 0.028163 0.653818
v -0.000000 -0.056326 0.653818
v 0.048778 0.028163 0.653818
v 0.048778 -0.028163 0.653818
v 0.068500 0.039548 1.184215
v 0.068500 -0.039548 1.184215
v -0.000000 -0.079101 1.184215
v -0.000000 -0.056326 0.653818
v -0.000000 0.079101 1.184215
v -0.000000 0.056326 0.653818
v -0.068500 -0.039548 1.184215
v -0.048779 -0.028163 0.653818
v -0.048779 0.028163 0.653818
v -0.068500 0.039548 1.184215
v -0.000000 0.117628 1.287036
v -0.000000 0.163373 1.549760
v -0.141485 0.081686 1.549760
v 0.141485 0.081686 1.549760
v 0.141485 -0.081686 1.549760
v -0.000000 -0.163373 1.549760
v -0.000000 -0.117628 1.287036
v -0.141485 -0.081686 1.549760
vn 0.7299 0.4214 -0.5381
vn -0.0000 0.8429 -0.5381
vn 0.7300 0.4215 -0.5381
vn -0.0000 0.8428 -0.5382
vn -0.7299 -0.4214 0.5382
vn -0.7299 0.4214 0.5382
vn -0.7299 0.4214 -0.5381
vn -0.7299 0.4215 -0.5381
vn -0.0000 -0.0000 -1.0000
vn 0.7930 -0.4578 0.4019
vn -0.0000 -0.9157 0.4020
vn 0.7930 -0.4579 0.4019
vn -0.0000 -0.9157 0.4019
vn -0.7930 -0.4578 0.4019
vn -0.7930 -0.4579 0.4019
vn -0.7930 0.4578 0.4020
vn -0.0000 0.9157 0.4019
vn -0.7930 0.4578 0.4019
vn -0.7930 0.4579 0.4019
vn -0.0000 0.9157 0.4020
vn 0.7930 0.4578 0.4019
vn 0.7930 0.4579 0.4019
vn -0.0000 0.5265 0.8501
vn -0.4560 0.2633 0.8501
vn -0.0000 0.5265 0.8502
vn -0.7300 -0.4215 -0.5381
vn -0.0000 -0.8429 -0.5381
vn -0.7300 -0.4214 -0.5381
vn 0.7299 -0.4214 -0.5381
vn 0.7299 -0.4215 -0.5381
vn -0.0000 -0.8428 -0.5382
vn -0.0000 0.8428 0.5382
vn 0.7299 0.4214 0.5382
vn 0.7299 -0.4214 0.5382
vn -0.0000 -0.8428 0.5382
vn 0.4560 0.2633 0.8501
vn -0.7300 0.4214 -0.5381
vn 0.4560 -0.2633 0.8501
vn -0.0000 -0.5265 0.8501
vn -0.0000 -0.5265 0.8502
vn 0.7300 0.4214 -0.5381
vn 0.7300 -0.4214 -0.5381
vn -0.4560 -0.2633 0.8501
vn 0.4560 -0.2633 0.8502
vn -0.0000 -0.0000 1.0000
vn -0.4560 -0.2633 0.8502
vn -0.8660 0.5000 -0.0000
vn -0.0000 1.0000 -0.0000
vn -0.9894 -0.0000 0.1451
vn 0.8660 0.5000 -0.0000
vn -0.8646 -0.4992 -0.0576
vn -0.8646 0.4992 -0.0576
vn 0.8646 0.4992 -0.0576
vn -0.0000 0.9983 -0.0576
vn 0.8646 -0.4992 -0.0576
vn 0.8124 0.4690 0.3465
vn 0.8124 -0.4690 0.3466
vn 0.8124 -0.4690 0.3465
vn -0.8124 0.4690 0.3465
vn -0.0000 0.9380 0.3465
vn -0.8124 0.4690 0.3466
vn -0.0000 -0.9894 0.1451
vn -0.8660 -0.5000 -0.0000
vn -0.0000 -1.0000 -0.0000
vn 0.9894 -0.0000 0.1451
vn -0.0000 -0.9380 0.3465
vn -0.0000 -0.9380 0.3466
vn -0.8124 -0.4690 0.3465
vn -0.0000 -0.9983 -0.0576
vn -0.0000 0.9894 0.1451
vn -0.0000 0.8386 0.5447
vn 0.7263 0.4193 0.5447
vn 0.7263 0.4193 0.5446
vn -0.0000 0.8387 0.5447
vn 0.7263 -0.4193 0.5447
vn 1.0000 -0.0000 -0.0000
vn -0.7263 -0.4193 0.5447
vn -0.7263 0.4193 0.5447
vn -0.0000 -0.8386 0.5447
vn -0.0000 -0.8387 0.5447
vn 0.7263 -0.4193 0.5446
vn -0.7263 -0.4193 0.5446
vn -0.0000 0.8387 0.5446
vn -0.7263 0.4193 0.5446
vn -0.0000 0.9380 0.3466
vn 0.5000 -0.8660 -0.0000
vn 0.8652 0.4995 -0.0429
vn 0.8652 -0.4995 -0.0429
vn -0.0000 -0.9991 -0.0429
vn -0.0000 0.9991 -0.0429
vn -0.8652 -0.4995 -0.0429
vn -0.8652 0.4995 -0.0429
vn -0.4944 0.8563 -0.1491
vn 0.4944 0.8563 -0.1491
vn 0.4944 -0.8563 -0.1491
vn -0.9888 -0.0000 -0.1491
vn -0.4944 -0.8563 -0.1491
vn 0.9888 -0.0000 -0.1491
vt 0.718750 0.062182
vt 0.843750 0.475000
vt 0.718750 0.062182
vt 0.718750 0.041824
vt 0.718750 0.041824
vt 0.718750 0.181954
vt 0.718750 0.181954
vt 0.718750 0.225000
vt 0.718750 0.225000
vt 0.718750 0.041824
vt 0.718750 0.062182
vt 0.843750 0.475000
vt 0.718750 0.157189
vt 0.718750 0.157189
vt 0.718750 0.157189
vt 0.718750 0.157189
vt 0.718750 0.157189
vt 0.718750 0.157189
vt 0.718750 0.025000
vt 0.718750 0.025000
vt 0.718750 0.041824
vt 0.718750 0.041824
vt 0.718750 0.041824
vt 0.718750 0.025000
vt 0.718750 0.025000
vt 0.718750 0.025000
vt 0.718750 0.025000
vt 0.718750 0.181954
vt 0.718750 0.062182
vt 0.718750 0.062182
vt 0.843750 0.475000
vt 0.718750 0.062182
vt 0.843750 0.475000
vt 0.718750 0.225000
vt 0.718750 0.181954
vt 0.718750 0.181954
vt 0.718750 0.225000
vt 0.718750 0.225000
vt 0.718750 0.225000
vt 0.718750 0.181954
vt 0.718750 0.025000
vt 0.718750 0.025000
vt 0.718750 0.025000
vt 0.718750 0.025000
vt 0.718750 0.025000
vt 0.718750 0.025000
vt 0.718750 0.107804
vt 0.718750 0.113858
vt 0.718750 0.107804
vt 0.718750 0.113858
vt 0.718750 0.025000
vt 0.718750 0.025000
vt 0.718750 0.037490
vt 0.718750 0.037490
vt 0.718750 0.107804
vt 0.718750 0.113858
vt 0.718750 0.037490
vt 0.718750 0.037490
vt 0.718750 0.093115
vt 0.718750 0.093115
vt 0.718750 0.093115
vt 0.718750 0.093115
vt 0.718750 0.037490
vt 0.718750 0.037490
vt 0.718750 0.037490
vt 0.718750 0.093115
vt 0.718750 0.107804
vt 0.718750 0.107804
vt 0.718750 0.107804
vt 0.718750 0.107804
vt 0.718750 0.025000
vt 0.718750 0.037490
vt 0.718750 0.113858
vt 0.718750 0.107804
vt 0.718750 0.113858
vt 0.718750 0.107804
vt 0.718750 0.025000
vt 0.718750 0.037490
vt 0.718750 0.093115
vt 0.718750 0.107804
vt 0.718750 0.107804
vt 0.718750 0.037490
vt 0.718750 0.125000
vt 0.718750 0.125000
vt 0.718750 0.113858
vt 0.718750 0.125000
vt 0.718750 0.107804
vt 0.718750 0.125000
vt 0.718750 0.125000
vt 0.718750 0.125000
vt 0.718750 0.225000
vt 0.718750 0.225000
vt 0.718750 0.025000
vt 0.718750 0.025000
vt 0.718750 0.025000
vt 0.718750 0.225000
vt 0.718750 0.025000
vt 0.718750 0.225000
vt 0.718750 0.025000
vt 0.718750 0.225000
vt 0.718750 0.225000
vt 0.718750 0.025000
vt 0.843750 0.475000
vt 0.843750 0.275000
vt 0.843750 0.275000
vt 0.843750 0.275000
vt 0.843750 0.275000
vt 0.843750 0.275000
vt 0.843750 0.475000
vt 0.843750 0.275000
s 0
f 3/4/1 2/3/2 1/1/3
f 2/3/4 3/4/1 4/5/2
f 7/8/5 6/7/6 5/6/5
f 6/7/6 7/8/5 8/9/6
f 9/10/7 2/3/4 4/5/2
f 2/3/2 9/10/7 10/11/8
f 13/15/9 12/14/9 11/13/9
f 12/14/9 13/15/9 14/16/9
f 12/14/9 14/16/9 15/17/9
f 15/17/9 14/16/9 16/18/9
f 19/21/10 18/20/11 17/19/12
f 18/20/13 19/21/10 20/22/13
f 21/23/14 18/20/13 20/22/13
f 18/20/11 21/23/14 22/24/15
f 24/26/16 4/5/17 23/25/17
f 4/5/17 24/26/18 9/10/19
f 21/23/14 24/26/18 22/24/14
f 24/26/18 21/23/14 9/10/18
f 23/25/20 3/4/21 25/27/22
f 3/4/21 23/25/17 4/5/17
f 3/4/21 17/19/10 25/27/21
f 17/19/10 3/4/21 19/21/10
f 26/28/23 14/16/24 6/7/24
f 14/16/24 26/28/23 16/18/25
f 28/30/26 20/22/27 27/29/27
f 20/22/27 28/30/28 21/23/28
f 27/29/27 19/21/29 29/32/30
f 19/21/29 27/29/31 20/22/27
f 6/7/6 30/34/32 26/28/32
f 30/34/32 6/7/6 8/9/6
f 33/37/33 32/36/34 31/35/33
f 32/36/34 33/37/33 34/38/34
f 7/8/5 36/40/35 35/39/35
f 36/40/35 7/8/5 5/6/5
f 34/38/34 36/40/35 32/36/34
f 36/40/35 34/38/34 35/39/35
f 15/17/36 26/28/23 31/35/36
f 26/28/23 15/17/36 16/18/25
f 28/30/28 9/10/37 21/23/28
f 9/10/37 28/30/28 10/11/37
f 12/14/38 36/40/39 11/13/40
f 36/40/39 12/14/38 32/36/38
f 1/1/41 19/21/42 3/4/41
f 19/21/42 1/1/41 29/32/42
f 36/40/39 13/15/43 11/13/40
f 13/15/43 36/40/39 5/6/43
f 26/28/32 33/37/33 31/35/33
f 33/37/33 26/28/32 30/34/32
f 15/17/36 32/36/38 12/14/44
f 32/36/38 15/17/36 31/35/36
f 34/38/45 7/8/45 35/39/45
f 7/8/45 34/38/45 33/37/45
f 7/8/45 33/37/45 8/9/45
f 8/9/45 33/37/45 30/34/45
f 5/6/43 14/16/24 13/15/46
f 14/16/24 5/6/43 6/7/24
f 37/41/9 24/26/9 23/25/9
f 25/27/9 37/41/9 23/25/9
f 38/42/9 24/26/9 37/41/9
f 25/27/9 39/43/9 37/41/9
f 40/44/9 24/26/9 38/42/9
f 25/27/9 41/45/9 39/43/9
f 40/44/9 22/24/9 24/26/9
f 17/19/9 41/45/9 25/27/9
f 42/46/9 22/24/9 40/44/9
f 17/19/9 42/46/9 41/45/9
f 22/24/9 42/46/9 18/20/9
f 42/46/9 17/19/9 18/20/9
f 45/49/47 44/48/48 43/47/48
f 44/48/48 45/49/47 46/50/47
f 49/53/49 48/52/49 47/51/49
f 48/52/49 49/53/49 50/54/49
f 43/47/48 52/56/50 51/55/50
f 52/56/50 43/47/48 44/48/48
f 55/59/51 54/58/52 53/57/51
f 54/58/52 55/59/51 56/60/52
f 59/63/53 58/62/54 57/61/53
f 58/62/54 59/63/53 60/64/54
f 57/61/53 61/65/55 59/63/53
f 61/65/55 57/61/53 62/66/55
f 63/67/56 62/66/57 57/61/56
f 62/66/57 63/67/56 64/68/58
f 56/60/59 65/69/60 58/62/60
f 65/69/60 56/60/61 66/70/59
f 68/72/62 47/51/62 67/71/62
f 47/51/62 68/72/62 49/53/62
f 71/75/63 70/74/64 69/73/64
f 70/74/64 71/75/63 72/76/63
f 74/78/65 67/71/65 73/77/65
f 67/71/65 74/78/65 68/72/65
f 64/68/58 75/79/66 62/66/58
f 75/79/67 64/68/58 76/80/66
f 54/58/52 58/62/54 60/64/54
f 58/62/54 54/58/52 56/60/52
f 77/81/68 56/60/61 55/59/68
f 56/60/61 77/81/68 66/70/59
f 77/81/68 75/79/67 76/80/66
f 75/79/66 77/81/68 55/59/68
f 75/79/69 61/65/55 62/66/55
f 61/65/55 75/79/69 78/82/69
f 55/59/51 78/82/69 75/79/69
f 78/82/69 55/59/51 53/57/51
f 71/75/63 45/49/47 72/76/63
f 45/49/47 71/75/63 46/50/47
f 48/52/70 74/78/70 73/77/70
f 74/78/70 48/52/70 50/54/70
f 48/52/9 67/71/9 47/51/9
f 67/71/9 48/52/9 73/77/9
f 44/48/71 79/83/72 52/56/72
f 79/83/73 44/48/74 80/84/74
f 79/83/72 81/85/75 52/56/72
f 81/85/75 79/83/72 82/86/75
f 52/56/50 83/87/76 51/55/50
f 83/87/76 52/56/50 81/85/76
f 84/88/77 46/50/78 71/75/77
f 46/50/78 84/88/77 85/89/78
f 82/86/75 69/73/79 81/85/75
f 69/73/80 82/86/81 86/90/80
f 84/88/82 69/73/80 86/90/80
f 69/73/79 84/88/77 71/75/77
f 46/50/78 80/84/74 44/48/71
f 80/84/83 46/50/78 85/89/84
f 58/62/60 63/67/56 57/61/56
f 63/67/56 58/62/85 65/69/60
f 69/73/64 83/87/86 81/85/86
f 83/87/86 69/73/64 70/74/64
f 51/55/9 64/68/9 63/67/9
f 51/55/9 63/67/9 65/69/9
f 83/87/9 64/68/9 51/55/9
f 51/55/9 65/69/9 43/47/9
f 83/87/9 76/80/9 64/68/9
f 76/80/9 83/87/9 70/74/9
f 72/76/9 76/80/9 70/74/9
f 76/80/9 72/76/9 77/81/9
f 65/69/9 45/49/9 43/47/9
f 77/81/9 72/76/9 45/49/9
f 66/70/9 45/49/9 65/69/9
f 77/81/9 45/49/9 66/70/9
f 50/54/45 53/57/45 54/58/45
f 50/54/45 54/58/45 60/64/45
f 49/53/45 53/57/45 50/54/45
f 53/57/45 49/53/45 78/82/45
f 68/72/45 78/82/45 49/53/45
f 78/82/45 68/72/45 61/65/45
f 50/54/45 60/64/45 74/78/45
f 61/65/45 68/72/45 74/78/45
f 59/63/45 74/78/45 60/64/45
f 61/65/45 74/78/45 59/63/45
f 89/93/87 88/92/88 87/91/87
f 88/92/88 89/93/87 90/94/88
f 91/95/89 88/92/88 90/94/88
f 88/92/88 91/95/89 92/96/89
f 87/91/87 93/97/90 89/93/87
f 93/97/90 87/91/87 94/98/90
f 95/99/91 92/96/89 91/95/89
f 92/96/89 95/99/91 96/100/91
f 95/99/91 97/101/92 96/100/91
f 97/101/92 95/99/91 98/102/92
f 97/101/92 93/97/90 94/98/90
f 93/97/90 97/101/92 98/102/92
f 10/12/93 100/104/93 99/103/93
f 100/104/93 10/12/93 101/105/93
f 1/2/94 100/104/94 102/106/94
f 100/104/94 1/2/94 99/103/94
f 104/108/95 29/33/95 103/107/95
f 29/33/95 104/108/95 105/109/95
f 106/110/96 10/12/96 28/31/96
f 10/12/96 106/110/96 101/105/96
f 106/110/97 105/109/97 104/108/97
f 105/109/97 106/110/97 28/31/97
f 102/106/98 29/33/98 1/2/98
f 29/33/98 102/106/98 103/107/98
f 3/4/1 2/3/2 1/1/3
f 2/3/4 3/4/1 4/5/2
f 7/8/5 6/7/6 5/6/5
f 6/7/6 7/8/5 8/9/6
f 9/10/7 2/3/4 4/5/2
f 2/3/2 9/10/7 10/11/8
f 13/15/9 12/14/9 11/13/9
f 12/14/9 13/15/9 14/16/9
f 12/14/9 14/16/9 15/17/9
f 15/17/9 14/16/9 16/18/9
f 19/21/10 18/20/11 17/19/12
f 18/20/13 19/21/10 20/22/13
f 21/23/14 18/20/13 20/22/13
f 18/20/11 21/23/14 22/24/15
f 24/26/16 4/5/17 23/25/17
f 4/5/17 24/26/18 9/10/19
f 21/23/14 24/26/18 22/24/14
f 24/26/18 21/23/14 9/10/18
f 23/25/20 3/4/21 25/27/22
f 3/4/21 23/25/17 4/5/17
f 3/4/21 17/19/10 25/27/21
f 17/19/10 3/4/21 19/21/10
f 26/28/23 14/16/24 6/7/24
f 14/16/24 26/28/23 16/18/25
f 28/30/26 20/22/27 27/29/27
f 20/22/27 28/30/28 21/23/28
f 27/29/27 19/21/29 29/32/30
f 19/21/29 27/29/31 20/22/27
f 6/7/6 30/34/32 26/28/32
f 30/34/32 6/7/6 8/9/6
f 33/37/33 32/36/34 31/35/33
f 32/36/34 33/37/33 34/38/34
f 7/8/5 36/40/35 35/39/35
f 36/40/35 7/8/5 5/6/5
f 34/38/34 36/40/35 32/36/34
f 36/40/35 34/38/34 35/39/35
f 15/17/36 26/28/23 31/35/36
f 26/28/23 15/17/36 16/18/25
f 28/30/28 9/10/37 21/23/28
f 9/10/37 28/30/28 10/11/37
f 12/14/38 36/40/39 11/13/40
f 36/40/39 12/14/38 32/36/38
f 1/1/41 19/21/42 3/4/41
f 19/21/42 1/1/41 29/32/42
f 36/40/39 13/15/43 11/13/40
f 13/15/43 36/40/39 5/6/43
f 26/28/32 33/37/33 31/35/33
f 33/37/33 26/28/32 30/34/32
f 15/17/36 32/36/38 12/14/44
f 32/36/38 15/17/36 31/35/36
f 34/38/45 7/8/45 35/39/45
f 7/8/45 34/38/45 33/37/45
f 7/8/45 33/37/45 8/9/45
f 8/9/45 33/37/45 30/34/45
f 5/6/43 14/16/24 13/15/46
f 14/16/24 5/6/43 6/7/24
f 37/41/9 24/26/9 23/25/9
f 25/27/9 37/41/9 23/25/9
f 38/42/9 24/26/9 37/41/9
f 25/27/9 39/43/9 37/41/9
f 40/44/9 24/26/9 38/42/9
f 25/27/9 41/45/9 39/43/9
f 40/44/9 22/24/9 24/26/9
f 17/19/9 41/45/9 25/27/9
f 42/46/9 22/24/9 40/44/9
f 17/19/9 42/46/9 41/45/9
f 22/24/9 42/46/9 18/20/9
f 42/46/9 17/19/9 18/20/9
f 45/49/47 44/48/48 43/47/48
f 44/48/48 45/49/47 46/50/47
f 49/53/49 48/52/49 47/51/49
f 48/52/49 49/53/49 50/54/49
f 43/47/48 52/56/50 51/55/50
f 52/56/50 43/47/48 44/48/48
f 55/59/51 54/58/52 53/57/51
f 54/58/52 55/59/51 56/60/52
f 59/63/53 58/62/54 57/61/53
f 58/62/54 59/63/53 60/64/54
f 57/61/53 61/65/55 59/63/53
f 61/65/55 57/61/53 62/66/55
f 63/67/56 62/66/57 57/61/56
f 62/66/57 63/67/56 64/68/58
f 56/60/59 65/69/60 58/62/60
f 65/69/60 56/60/61 66/70/59
f 68/72/62 47/51/62 67/71/62
f 47/51/62 68/72/62 49/53/62
f 71/75/63 70/74/64 69/73/64
f 70/74/64 71/75/63 72/76/63
f 74/78/65 67/71/65 73/77/65
f 67/71/65 74/78/65 68/72/65
f 64/68/58 75/79/66 62/66/58
f 75/79/67 64/68/58 76/80/66
f 54/58/52 58/62/54 60/64/54
f 58/62/54 54/58/52 56/60/52
f 77/81/68 56/60/61 55/59/68
f 56/60/61 77/81/68 66/70/59
f 77/81/68 75/79/67 76/80/66
f 75/79/66 77/81/68 55/59/68
f 75/79/69 61/65/55 62/66/55
f 61/65/55 75/79/69 78/82/69
f 55/59/51 78/82/69 75/79/69
f 78/82/69 55/59/51 53/57/51
f 71/75/63 45/49/47 72/76/63
f 45/49/47 71/75/63 46/50/47
f 48/52/70 74/78/70 73/77/70
f 74/78/70 48/52/70 50/54/70
f 48/52/9 67/71/9 47/51/9
f 67/71/9 48/52/9 73/77/9
f 44/48/71 79/83/72 52/56/72
f 79/83/73 44/48/74 80/84/74
f 79/83/72 81/85/75 52/56/72
f 81/85/75 79/83/72 82/86/75
f 52/56/50 83/87/76 51/55/50
f 83/87/76 52/56/50 81/85/76
f 84/88/77 46/50/78 71/75/77
f 46/50/78 84/88/77 85/89/78
f 82/86/75 69/73/79 81/85/75
f 69/73/80 82/86/81 86/90/80
f 84/88/82 69/73/80 86/90/80
f 69/73/79 84/88/77 71/75/77
f 46/50/78 80/84/74 44/48/71
f 80/84/83 46/50/78 85/89/84
f 58/62/60 63/67/56 57/61/56
f 63/67/56 58/62/85 65/69/60
f 69/73/64 83/87/86 81/85/86
f 83/87/86 69/73/64 70/74/64
f 51/55/9 64/68/9 63/67/9
f 51/55/9 63/67/9 65/69/9
f 83/87/9 64/68/9 51/55/9
f 51/55/9 65/69/9 43/47/9
f 83/87/9 76/80/9 64/68/9
f 76/80/9 83/87/9 70/74/9
f 72/76/9 76/80/9 70/74/9
f 76/80/9 72/76/9 77/81/9
f 65/69/9 45/49/9 43/47/9
f 77/81/9 72/76/9 45/49/9
f 66/70/9 45/49/9 65/69/9
f 77/81/9 45/49/9 66/70/9
f 50/54/45 53/57/45 54/58/45
f 50/54/45 54/58/45 60/64/45
f 49/53/45 53/57/45 50/54/45
f 53/57/45 49/53/45 78/82/45
f 68/72/45 78/82/45 49/53/45
f 78/82/45 68/72/45 61/65/45
f 50/54/45 60/64/45 74/78/45
f 61/65/45 68/72/45 74/78/45
f 59/63/45 74/78/45 60/64/45
f 61/65/45 74/78/45 59/63/45
f 89/93/87 88/92/88 87/91/87
f 88/92/88 89/93/87 90/94/88
f 91/95/89 88/92/88 90/94/88
f 88/92/88 91/95/89 92/96/89
f 87/91/87 93/97/90 89/93/87
f 93/97/90 87/91/87 94/98/90
f 95/99/91 92/96/89 91/95/89
f 92/96/89 95/99/91 96/100/91
f 95/99/91 97/101/92 96/100/91
f 97/101/92 95/99/91 98/102/92
f 97/101/92 93/97/90 94/98/90
f 93/97/90 97/101/92 98/102/92
f 10/12/93 100/104/93 99/103/93
f 100/104/93 10/12/93 101/105/93
f 1/2/94 100/104/94 102/106/94
f 100/104/94 1/2/94 99/103/94
f 104/108/95 29/33/95 103/107/95
f 29/33/95 104/108/95 105/109/95
f 106/110/96 10/12/96 28/31/96
f 10/12/96 106/110/96 101/105/96
f 106/110/97 105/109/97 104/108/97
f 105/109/97 106/110/97 28/31/97
f 102/106/98 29/33/98 1/2/98
f 29/33/98 102/106/98 103/107/98
