# Blender 3.3.1
# www.blender.org
o button-floor-round.001
v 0.312500 -0.250000 0.100000
v 0.312500 -0.250000 0.000000
v 0.250000 -0.312500 0.100000
v 0.250000 -0.312500 0.000000
v -0.250000 -0.312500 0.100000
v -0.250000 -0.312500 -0.000000
v 0.312500 0.250000 0.000000
v 0.312500 0.250000 0.100000
v 0.250000 0.312500 0.000000
v 0.250000 0.312500 0.100000
v -0.250000 0.312500 -0.000000
v -0.250000 0.312500 0.100000
v -0.312500 -0.250000 -0.000000
v -0.312500 0.250000 -0.000000
v -0.312500 -0.250000 0.100000
v -0.312500 0.250000 0.100000
v -0.000000 -0.250000 0.100000
v 0.176777 -0.176777 0.100000
v -0.176777 -0.176777 0.100000
v 0.250000 0.000000 0.100000
v -0.250000 0.000000 0.100000
v 0.176777 0.176777 0.100000
v -0.000000 0.250000 0.100000
v -0.176777 0.176777 0.100000
v -0.000000 -0.250000 0.000000
v -0.176777 -0.176777 -0.000000
v 0.176777 -0.176777 0.000000
v -0.250000 -0.000000 -0.000000
v 0.250000 -0.000000 0.000000
v -0.176777 0.176777 -0.000000
v 0.176777 0.176777 0.000000
v -0.000000 0.250000 0.000000
v -0.141421 0.141421 0.080000
v -0.200000 0.000000 0.080000
v 0.141421 -0.141421 0.080000
v -0.000000 -0.200000 0.080000
v -0.141421 -0.141421 0.080000
v 0.141421 0.141421 0.080000
v -0.000000 0.200000 0.080000
v 0.200000 0.000000 0.080000
vn 0.3827 -0.9239 -0.0000
vn 0.9239 -0.3827 -0.0000
vn -0.3827 -0.9239 -0.0000
vn 0.3827 -0.9239 -0.0002
vn -0.3827 -0.9239 0.0002
vn 0.3827 0.9239 -0.0000
vn 0.9239 0.3827 -0.0000
vn -0.3827 0.9239 -0.0000
vn 0.3827 0.9239 0.0002
vn -0.3827 0.9239 -0.0002
vn -0.9239 -0.3827 -0.0000
vn -0.9239 0.3827 -0.0002
vn -0.9239 0.3827 -0.0000
vn -0.9239 -0.3827 0.0002
vn 0.9239 -0.3827 0.0002
vn 0.9239 0.3827 -0.0002
vn -0.0000 -0.0000 1.0000
vn -0.0000 -0.0000 -1.0000
vn 0.7071 0.7071 -0.0000
vn -0.0000 1.0000 -0.0000
vn -0.7071 0.7071 -0.0000
vn -1.0000 -0.0000 -0.0000
vn -0.7071 -0.7071 -0.0000
vn -0.0000 -1.0000 -0.0000
vn 0.7071 -0.7071 -0.0000
vn 1.0000 -0.0000 -0.0000
vn 0.3302 -0.4091 0.8507
vn 0.5144 0.0622 0.8553
vn 0.5227 0.0558 0.8507
vn 0.4944 0.0754 0.8660
vn 0.3402 -0.4100 0.8463
vn 0.3292 -0.4090 0.8511
vn 0.0622 0.5144 0.8553
vn -0.4091 0.3302 0.8507
vn 0.0558 0.5227 0.8507
vn -0.4100 0.3402 0.8463
vn 0.0754 0.4944 0.8660
vn -0.4090 0.3292 0.8511
vn 0.5228 -0.0558 0.8507
vn 0.3198 0.4077 0.8553
vn 0.3301 0.4091 0.8507
vn 0.2963 0.4029 0.8660
vn 0.5305 -0.0493 0.8463
vn 0.5220 -0.0564 0.8511
vn -0.4091 -0.3302 0.8507
vn 0.0622 -0.5144 0.8553
vn 0.0558 -0.5227 0.8507
vn 0.0754 -0.4944 0.8660
vn -0.4100 -0.3402 0.8463
vn -0.4090 -0.3292 0.8511
vn -0.0754 0.4944 0.8660
vn 0.4100 0.3402 0.8463
vn 0.4090 0.3292 0.8511
vn 0.4091 0.3302 0.8507
vn -0.0622 0.5144 0.8553
vn -0.0558 0.5227 0.8507
vn -0.5144 0.0622 0.8553
vn -0.3302 -0.4091 0.8507
vn -0.5227 0.0558 0.8507
vn -0.3402 -0.4100 0.8463
vn -0.4944 0.0754 0.8660
vn -0.3292 -0.4090 0.8511
vn -0.3198 0.4077 0.8553
vn -0.5228 -0.0558 0.8507
vn -0.3301 0.4091 0.8507
vn -0.5305 -0.0493 0.8463
vn -0.2963 0.4029 0.8660
vn -0.5220 -0.0564 0.8511
vn -0.0558 -0.5228 0.8507
vn 0.4077 -0.3198 0.8553
vn 0.4091 -0.3301 0.8507
vn 0.4029 -0.2963 0.8660
vn -0.0493 -0.5305 0.8463
vn -0.0564 -0.5220 0.8511
vt 0.468750 0.225000
vt 0.218750 0.225000
vt 0.468750 0.025000
vt 0.218750 0.025000
vt 0.468750 0.225000
vt 0.218750 0.225000
vt 0.468750 0.025000
vt 0.218750 0.025000
vt 0.468750 0.225000
vt 0.218750 0.225000
vt 0.468750 0.025000
vt 0.218750 0.025000
vt 0.468750 0.025000
vt 0.218750 0.025000
vt 0.468750 0.225000
vt 0.218750 0.225000
vt 0.468750 0.025000
vt 0.218750 0.025000
vt 0.468750 0.225000
vt 0.218750 0.225000
vt 0.468750 0.025000
vt 0.218750 0.025000
vt 0.468750 0.225000
vt 0.218750 0.225000
vt 0.468750 0.025000
vt 0.218750 0.025000
vt 0.468750 0.025000
vt 0.218750 0.025000
vt 0.468750 0.225000
vt 0.218750 0.225000
vt 0.468750 0.225000
vt 0.218750 0.225000
vt 0.218750 0.225000
vt 0.468750 0.158333
vt 0.218750 0.225000
vt 0.468750 0.158333
vt 0.218750 0.225000
vt 0.468750 0.158333
vt 0.218750 0.225000
vt 0.468750 0.158333
vt 0.218750 0.225000
vt 0.468750 0.158333
vt 0.218750 0.225000
vt 0.468750 0.158333
vt 0.218750 0.225000
vt 0.468750 0.158333
vt 0.218750 0.225000
vt 0.468750 0.158333
vt 0.218750 0.025000
vt 0.218750 0.025000
vt 0.218750 0.025000
vt 0.218750 0.025000
vt 0.218750 0.025000
vt 0.218750 0.025000
vt 0.218750 0.025000
vt 0.218750 0.025000
vt 0.468750 0.225000
vt 0.593750 0.475000
vt 0.468750 0.225000
vt 0.593750 0.475000
vt 0.468750 0.225000
vt 0.593750 0.475000
vt 0.468750 0.225000
vt 0.593750 0.475000
vt 0.468750 0.225000
vt 0.593750 0.475000
vt 0.468750 0.225000
vt 0.593750 0.475000
vt 0.468750 0.225000
vt 0.593750 0.475000
vt 0.468750 0.225000
vt 0.593750 0.475000
s 0
f 3/5/1 2/3/2 1/1/2
f 2/3/2 3/5/1 4/7/1
f 5/9/3 4/7/1 3/5/4
f 4/7/1 5/9/3 6/11/5
f 9/17/6 8/15/7 7/13/7
f 8/15/7 9/17/6 10/19/6
f 11/21/8 10/19/6 9/17/9
f 10/19/6 11/21/8 12/23/10
f 15/29/11 14/27/12 13/25/11
f 14/27/13 15/29/14 16/31/13
f 7/13/7 1/1/2 2/3/15
f 1/1/2 7/13/7 8/15/16
f 16/31/13 11/21/8 14/27/13
f 11/21/8 16/31/13 12/23/8
f 15/29/11 6/11/3 5/9/3
f 6/11/3 15/29/11 13/25/11
f 1/2/17 5/10/17 3/6/17
f 5/10/17 1/2/17 17/33/17
f 17/33/17 15/30/17 5/10/17
f 17/33/17 1/2/17 18/35/17
f 15/30/17 17/33/17 19/37/17
f 18/35/17 1/2/17 20/39/17
f 15/30/17 19/37/17 21/41/17
f 20/39/17 1/2/17 8/16/17
f 20/39/17 8/16/17 22/43/17
f 15/30/17 21/41/17 16/32/17
f 22/43/17 8/16/17 23/45/17
f 16/32/17 21/41/17 24/47/17
f 16/32/17 24/47/17 23/45/17
f 23/45/17 8/16/17 10/20/17
f 23/45/17 10/20/17 16/32/17
f 16/32/17 10/20/17 12/24/17
f 13/26/18 4/8/18 6/12/18
f 4/8/18 13/26/18 25/49/18
f 25/49/18 2/4/18 4/8/18
f 25/49/18 13/26/18 26/50/18
f 2/4/18 25/49/18 27/51/18
f 26/50/18 13/26/18 28/52/18
f 2/4/18 27/51/18 29/53/18
f 28/52/18 13/26/18 14/28/18
f 2/4/18 29/53/18 7/14/18
f 28/52/18 14/28/18 30/54/18
f 7/14/18 29/53/18 31/55/18
f 30/54/18 14/28/18 32/56/18
f 7/14/18 31/55/18 32/56/18
f 7/14/18 32/56/18 14/28/18
f 7/14/18 14/28/18 11/22/18
f 7/14/18 11/22/18 9/18/18
f 26/50/19 17/33/20 25/49/20
f 17/33/20 26/50/19 19/37/19
f 25/49/20 18/35/21 27/51/21
f 18/35/21 25/49/20 17/33/20
f 27/51/21 20/39/22 29/53/22
f 20/39/22 27/51/21 18/35/21
f 29/53/22 22/43/23 31/55/23
f 22/43/23 29/53/22 20/39/22
f 23/45/24 31/55/23 22/43/23
f 31/55/23 23/45/24 32/56/24
f 24/47/25 32/56/24 23/45/24
f 32/56/24 24/47/25 30/54/25
f 24/47/25 28/52/26 30/54/25
f 28/52/26 24/47/25 21/41/26
f 21/41/26 26/50/19 28/52/26
f 26/50/19 21/41/26 19/37/19
f 3/5/1 2/3/2 1/1/2
f 2/3/2 3/5/1 4/7/1
f 5/9/3 4/7/1 3/5/4
f 4/7/1 5/9/3 6/11/5
f 9/17/6 8/15/7 7/13/7
f 8/15/7 9/17/6 10/19/6
f 11/21/8 10/19/6 9/17/9
f 10/19/6 11/21/8 12/23/10
f 15/29/11 14/27/12 13/25/11
f 14/27/13 15/29/14 16/31/13
f 7/13/7 1/1/2 2/3/15
f 1/1/2 7/13/7 8/15/16
f 16/31/13 11/21/8 14/27/13
f 11/21/8 16/31/13 12/23/8
f 15/29/11 6/11/3 5/9/3
f 6/11/3 15/29/11 13/25/11
f 1/2/17 5/10/17 3/6/17
f 5/10/17 1/2/17 17/33/17
f 17/33/17 15/30/17 5/10/17
f 17/33/17 1/2/17 18/35/17
f 15/30/17 17/33/17 19/37/17
f 18/35/17 1/2/17 20/39/17
f 15/30/17 19/37/17 21/41/17
f 20/39/17 1/2/17 8/16/17
f 20/39/17 8/16/17 22/43/17
f 15/30/17 21/41/17 16/32/17
f 22/43/17 8/16/17 23/45/17
f 16/32/17 21/41/17 24/47/17
f 16/32/17 24/47/17 23/45/17
f 23/45/17 8/16/17 10/20/17
f 23/45/17 10/20/17 16/32/17
f 16/32/17 10/20/17 12/24/17
f 13/26/18 4/8/18 6/12/18
f 4/8/18 13/26/18 25/49/18
f 25/49/18 2/4/18 4/8/18
f 25/49/18 13/26/18 26/50/18
f 2/4/18 25/49/18 27/51/18
f 26/50/18 13/26/18 28/52/18
f 2/4/18 27/51/18 29/53/18
f 28/52/18 13/26/18 14/28/18
f 2/4/18 29/53/18 7/14/18
f 28/52/18 14/28/18 30/54/18
f 7/14/18 29/53/18 31/55/18
f 30/54/18 14/28/18 32/56/18
f 7/14/18 31/55/18 32/56/18
f 7/14/18 32/56/18 14/28/18
f 7/14/18 14/28/18 11/22/18
f 7/14/18 11/22/18 9/18/18
f 26/50/19 17/33/20 25/49/20
f 17/33/20 26/50/19 19/37/19
f 25/49/20 18/35/21 27/51/21
f 18/35/21 25/49/20 17/33/20
f 27/51/21 20/39/22 29/53/22
f 20/39/22 27/51/21 18/35/21
f 29/53/22 22/43/23 31/55/23
f 22/43/23 29/53/22 20/39/22
f 23/45/24 31/55/23 22/43/23
f 31/55/23 23/45/24 32/56/24
f 24/47/25 32/56/24 23/45/24
f 32/56/24 24/47/25 30/54/25
f 24/47/25 28/52/26 30/54/25
f 28/52/26 24/47/25 21/41/26
f 21/41/26 26/50/19 28/52/26
f 26/50/19 21/41/26 19/37/19
f 21/42/27 33/57/28 24/48/29
f 33/57/30 21/42/31 34/59/32
f 35/61/33 17/34/34 18/36/35
f 17/34/36 35/61/37 36/63/38
f 19/38/39 34/59/40 21/42/41
f 34/59/42 19/38/43 37/65/44
f 23/46/45 38/67/46 22/44/47
f 38/67/48 23/46/49 39/69/50
f 37/65/51 17/34/52 36/63/53
f 17/34/54 37/65/55 19/38/56
f 38/67/57 20/40/58 22/44/59
f 20/40/60 38/67/61 40/71/62
f 40/71/63 18/36/64 20/40/65
f 18/36/66 40/71/67 35/61/68
f 24/48/69 39/69/70 23/46/71
f 39/69/72 24/48/73 33/57/74
f 35/62/17 37/66/17 36/64/17
f 37/66/17 35/62/17 40/72/17
f 37/66/17 40/72/17 34/60/17
f 34/60/17 40/72/17 38/68/17
f 34/60/17 38/68/17 33/58/17
f 33/58/17 38/68/17 39/70/17
