# Blender 3.3.1
# www.blender.org
o button-floor-round
v 0.312500 -0.250000 0.100000
v 0.312500 -0.250000 0.000000
v 0.250000 -0.312500 0.100000
v 0.250000 -0.312500 0.000000
v -0.250000 -0.312500 0.100000
v -0.250000 -0.312500 -0.000000
v 0.312500 0.250000 0.000000
v 0.312500 0.250000 0.100000
v 0.250000 0.312500 0.000000
v 0.250000 0.312500 0.100000
v -0.250000 0.312500 -0.000000
v -0.250000 0.312500 0.100000
v -0.312500 -0.250000 -0.000000
v -0.312500 0.250000 -0.000000
v -0.312500 -0.250000 0.100000
v -0.312500 0.250000 0.100000
v -0.000000 -0.250000 0.100000
v 0.176777 -0.176777 0.100000
v -0.176777 -0.176777 0.100000
v 0.250000 0.000000 0.100000
v -0.250000 0.000000 0.100000
v 0.176777 0.176777 0.100000
v -0.000000 0.250000 0.100000
v -0.176777 0.176777 0.100000
v -0.000000 -0.250000 0.000000
v -0.176777 -0.176777 -0.000000
v 0.176777 -0.176777 0.000000
v -0.250000 -0.000000 -0.000000
v 0.250000 -0.000000 0.000000
v -0.176777 0.176777 -0.000000
v 0.176777 0.176777 0.000000
v -0.000000 0.250000 0.000000
v -0.141421 0.141421 0.150000
v -0.200000 0.000000 0.150000
v 0.141421 -0.141421 0.150000
v -0.000000 -0.200000 0.150000
v -0.141421 -0.141421 0.150000
v 0.141421 0.141421 0.150000
v -0.000000 0.200000 0.150000
v 0.200000 0.000000 0.150000
vn 0.3827 -0.9239 -0.0000
vn 0.9239 -0.3827 -0.0000
vn -0.3827 -0.9239 -0.0000
vn 0.3827 0.9239 -0.0000
vn 0.9239 0.3827 -0.0000
vn -0.3827 0.9239 -0.0000
vn -0.9239 -0.3827 -0.0000
vn -0.9239 0.3827 -0.0000
vn -0.0000 -0.0000 1.0000
vn -0.0000 -0.0000 -1.0000
vn 0.7071 0.7071 -0.0000
vn -0.0000 1.0000 -0.0000
vn -0.7071 0.7071 -0.0000
vn -1.0000 -0.0000 -0.0000
vn -0.7071 -0.7071 -0.0000
vn -0.0000 -1.0000 -0.0000
vn 0.7071 -0.7071 -0.0000
vn 1.0000 -0.0000 -0.0000
vn -0.7071 -0.0000 0.7071
vn -0.5000 0.5000 0.7071
vn 0.5000 -0.5000 0.7071
vn -0.0000 -0.7071 0.7071
vn -0.5000 -0.5000 0.7071
vn -0.0000 0.7071 0.7071
vn 0.5000 0.5000 0.7071
vn 0.7071 -0.0000 0.7071
vt 0.468750 0.225000
vt 0.218750 0.225000
vt 0.468750 0.025000
vt 0.218750 0.025000
vt 0.468750 0.225000
vt 0.218750 0.225000
vt 0.468750 0.025000
vt 0.218750 0.025000
vt 0.468750 0.225000
vt 0.218750 0.225000
vt 0.468750 0.025000
vt 0.218750 0.025000
vt 0.468750 0.025000
vt 0.218750 0.025000
vt 0.468750 0.225000
vt 0.218750 0.225000
vt 0.468750 0.025000
vt 0.218750 0.025000
vt 0.468750 0.225000
vt 0.218750 0.225000
vt 0.468750 0.025000
vt 0.218750 0.025000
vt 0.468750 0.225000
vt 0.218750 0.225000
vt 0.468750 0.025000
vt 0.218750 0.025000
vt 0.468750 0.025000
vt 0.218750 0.025000
vt 0.468750 0.225000
vt 0.218750 0.225000
vt 0.468750 0.225000
vt 0.218750 0.225000
vt 0.218750 0.225000
vt 0.468750 0.158333
vt 0.218750 0.225000
vt 0.468750 0.158333
vt 0.218750 0.225000
vt 0.468750 0.158333
vt 0.218750 0.225000
vt 0.468750 0.158333
vt 0.218750 0.225000
vt 0.468750 0.158333
vt 0.218750 0.225000
vt 0.468750 0.158333
vt 0.218750 0.225000
vt 0.468750 0.158333
vt 0.218750 0.225000
vt 0.468750 0.158333
vt 0.218750 0.025000
vt 0.218750 0.025000
vt 0.218750 0.025000
vt 0.218750 0.025000
vt 0.218750 0.025000
vt 0.218750 0.025000
vt 0.218750 0.025000
vt 0.218750 0.025000
vt 0.468750 0.225000
vt 0.593750 0.475000
vt 0.468750 0.225000
vt 0.593750 0.475000
vt 0.468750 0.225000
vt 0.593750 0.475000
vt 0.468750 0.225000
vt 0.593750 0.475000
vt 0.468750 0.225000
vt 0.593750 0.475000
vt 0.468750 0.225000
vt 0.593750 0.475000
vt 0.468750 0.225000
vt 0.593750 0.475000
vt 0.468750 0.225000
vt 0.593750 0.475000
s 0
f 3/5/1 2/3/2 1/1/2
f 2/3/2 3/5/1 4/7/1
f 5/9/3 4/7/1 3/5/1
f 4/7/1 5/9/3 6/11/3
f 9/17/4 8/15/5 7/13/5
f 8/15/5 9/17/4 10/19/4
f 11/21/6 10/19/4 9/17/4
f 10/19/4 11/21/6 12/23/6
f 15/29/7 14/27/8 13/25/7
f 14/27/8 15/29/7 16/31/8
f 7/13/5 1/1/2 2/3/2
f 1/1/2 7/13/5 8/15/5
f 16/31/8 11/21/6 14/27/8
f 11/21/6 16/31/8 12/23/6
f 15/29/7 6/11/3 5/9/3
f 6/11/3 15/29/7 13/25/7
f 1/2/9 5/10/9 3/6/9
f 5/10/9 1/2/9 17/33/9
f 17/33/9 15/30/9 5/10/9
f 17/33/9 1/2/9 18/35/9
f 15/30/9 17/33/9 19/37/9
f 18/35/9 1/2/9 20/39/9
f 15/30/9 19/37/9 21/41/9
f 20/39/9 1/2/9 8/16/9
f 20/39/9 8/16/9 22/43/9
f 15/30/9 21/41/9 16/32/9
f 22/43/9 8/16/9 23/45/9
f 16/32/9 21/41/9 24/47/9
f 16/32/9 24/47/9 23/45/9
f 23/45/9 8/16/9 10/20/9
f 23/45/9 10/20/9 16/32/9
f 16/32/9 10/20/9 12/24/9
f 13/26/10 4/8/10 6/12/10
f 4/8/10 13/26/10 25/49/10
f 25/49/10 2/4/10 4/8/10
f 25/49/10 13/26/10 26/50/10
f 2/4/10 25/49/10 27/51/10
f 26/50/10 13/26/10 28/52/10
f 2/4/10 27/51/10 29/53/10
f 28/52/10 13/26/10 14/28/10
f 2/4/10 29/53/10 7/14/10
f 28/52/10 14/28/10 30/54/10
f 7/14/10 29/53/10 31/55/10
f 30/54/10 14/28/10 32/56/10
f 7/14/10 31/55/10 32/56/10
f 7/14/10 32/56/10 14/28/10
f 7/14/10 14/28/10 11/22/10
f 7/14/10 11/22/10 9/18/10
f 26/50/11 17/33/12 25/49/12
f 17/33/12 26/50/11 19/37/11
f 25/49/12 18/35/13 27/51/13
f 18/35/13 25/49/12 17/33/12
f 27/51/13 20/39/14 29/53/14
f 20/39/14 27/51/13 18/35/13
f 29/53/14 22/43/15 31/55/15
f 22/43/15 29/53/14 20/39/14
f 23/45/16 31/55/15 22/43/15
f 31/55/15 23/45/16 32/56/16
f 24/47/17 32/56/16 23/45/16
f 32/56/16 24/47/17 30/54/17
f 24/47/17 28/52/18 30/54/17
f 28/52/18 24/47/17 21/41/18
f 21/41/18 26/50/11 28/52/18
f 26/50/11 21/41/18 19/37/11
f 3/5/1 2/3/2 1/1/2
f 2/3/2 3/5/1 4/7/1
f 5/9/3 4/7/1 3/5/1
f 4/7/1 5/9/3 6/11/3
f 9/17/4 8/15/5 7/13/5
f 8/15/5 9/17/4 10/19/4
f 11/21/6 10/19/4 9/17/4
f 10/19/4 11/21/6 12/23/6
f 15/29/7 14/27/8 13/25/7
f 14/27/8 15/29/7 16/31/8
f 7/13/5 1/1/2 2/3/2
f 1/1/2 7/13/5 8/15/5
f 16/31/8 11/21/6 14/27/8
f 11/21/6 16/31/8 12/23/6
f 15/29/7 6/11/3 5/9/3
f 6/11/3 15/29/7 13/25/7
f 1/2/9 5/10/9 3/6/9
f 5/10/9 1/2/9 17/33/9
f 17/33/9 15/30/9 5/10/9
f 17/33/9 1/2/9 18/35/9
f 15/30/9 17/33/9 19/37/9
f 18/35/9 1/2/9 20/39/9
f 15/30/9 19/37/9 21/41/9
f 20/39/9 1/2/9 8/16/9
f 20/39/9 8/16/9 22/43/9
f 15/30/9 21/41/9 16/32/9
f 22/43/9 8/16/9 23/45/9
f 16/32/9 21/41/9 24/47/9
f 16/32/9 24/47/9 23/45/9
f 23/45/9 8/16/9 10/20/9
f 23/45/9 10/20/9 16/32/9
f 16/32/9 10/20/9 12/24/9
f 13/26/10 4/8/10 6/12/10
f 4/8/10 13/26/10 25/49/10
f 25/49/10 2/4/10 4/8/10
f 25/49/10 13/26/10 26/50/10
f 2/4/10 25/49/10 27/51/10
f 26/50/10 13/26/10 28/52/10
f 2/4/10 27/51/10 29/53/10
f 28/52/10 13/26/10 14/28/10
f 2/4/10 29/53/10 7/14/10
f 28/52/10 14/28/10 30/54/10
f 7/14/10 29/53/10 31/55/10
f 30/54/10 14/28/10 32/56/10
f 7/14/10 31/55/10 32/56/10
f 7/14/10 32/56/10 14/28/10
f 7/14/10 14/28/10 11/22/10
f 7/14/10 11/22/10 9/18/10
f 26/50/11 17/33/12 25/49/12
f 17/33/12 26/50/11 19/37/11
f 25/49/12 18/35/13 27/51/13
f 18/35/13 25/49/12 17/33/12
f 27/51/13 20/39/14 29/53/14
f 20/39/14 27/51/13 18/35/13
f 29/53/14 22/43/15 31/55/15
f 22/43/15 29/53/14 20/39/14
f 23/45/16 31/55/15 22/43/15
f 31/55/15 23/45/16 32/56/16
f 24/47/17 32/56/16 23/45/16
f 32/56/16 24/47/17 30/54/17
f 24/47/17 28/52/18 30/54/17
f 28/52/18 24/47/17 21/41/18
f 21/41/18 26/50/11 28/52/18
f 26/50/11 21/41/18 19/37/11
f 21/42/19 33/57/20 24/48/20
f 33/57/20 21/42/19 34/59/19
f 35/61/21 17/34/22 18/36/21
f 17/34/22 35/61/21 36/63/22
f 19/38/23 34/59/19 21/42/19
f 34/59/19 19/38/23 37/65/23
f 23/46/24 38/67/25 22/44/25
f 38/67/25 23/46/24 39/69/24
f 37/65/23 17/34/22 36/63/22
f 17/34/22 37/65/23 19/38/23
f 38/67/25 20/40/26 22/44/25
f 20/40/26 38/67/25 40/71/26
f 40/71/26 18/36/21 20/40/26
f 18/36/21 40/71/26 35/61/21
f 24/48/20 39/69/24 23/46/24
f 39/69/24 24/48/20 33/57/20
f 19/38/10 18/36/10 17/34/10
f 18/36/10 19/38/10 21/42/10
f 18/36/10 21/42/10 20/40/10
f 20/40/10 21/42/10 24/48/10
f 20/40/10 24/48/10 22/44/10
f 22/44/10 24/48/10 23/46/10
f 35/62/9 37/66/9 36/64/9
f 37/66/9 35/62/9 40/72/9
f 37/66/9 40/72/9 34/60/9
f 34/60/9 40/72/9 38/68/9
f 34/60/9 38/68/9 33/58/9
f 33/58/9 38/68/9 39/70/9
