# Blender 3.3.1
# www.blender.org
o button-floor-square
v -0.450000 -0.500000 0.100000
v -0.450000 -0.500000 -0.000000
v -0.500000 -0.450000 0.100000
v -0.500000 -0.450000 -0.000000
v 0.500000 -0.450000 0.100000
v 0.500000 -0.450000 0.000000
v 0.450000 -0.500000 0.100000
v 0.450000 -0.500000 0.000000
v -0.500000 0.450000 -0.000000
v -0.500000 0.450000 0.100000
v -0.450000 0.500000 -0.000000
v -0.450000 0.500000 0.100000
v 0.500000 0.450000 0.000000
v 0.500000 0.450000 0.100000
v 0.450000 0.500000 0.000000
v 0.450000 0.500000 0.100000
v -0.450000 -0.429289 -0.000000
v -0.429289 -0.450000 -0.000000
v -0.450000 -0.429289 0.100000
v -0.429289 -0.450000 0.100000
v 0.429289 -0.450000 0.000000
v 0.429289 -0.450000 0.100000
v 0.450000 -0.429289 0.000000
v 0.450000 -0.429289 0.100000
v -0.450000 0.429289 -0.000000
v -0.450000 0.429289 0.100000
v -0.429289 0.450000 0.100000
v -0.429289 0.450000 -0.000000
v 0.429289 0.450000 0.000000
v 0.450000 0.429289 0.000000
v 0.429289 0.450000 0.100000
v 0.450000 0.429289 0.100000
v -0.393432 -0.410000 0.150000
v -0.410000 -0.393432 0.150000
v -0.410000 0.393432 0.150000
v -0.393432 0.410000 0.150000
v 0.393431 -0.410000 0.150000
v 0.410000 -0.393432 0.150000
v 0.410000 0.393432 0.150000
v 0.393431 0.410000 0.150000
vn -0.9239 -0.3827 -0.0000
vn -0.3827 -0.9239 -0.0000
vn -0.3827 -0.9239 -0.0002
vn 0.3827 -0.9239 -0.0000
vn 0.9239 -0.3827 -0.0000
vn 0.3827 -0.9239 0.0002
vn -0.9239 0.3827 -0.0000
vn -0.3827 0.9239 -0.0000
vn -0.3827 0.9239 -0.0002
vn 0.9239 0.3827 -0.0000
vn 0.3827 0.9239 -0.0000
vn 0.3827 0.9239 -0.0002
vn -0.0000 -0.0000 -1.0000
vn -0.0000 -0.0000 1.0000
vn -0.0000 -0.0000 -0.0000
vn -0.2195 -0.6790 0.7006
vn -0.6303 -0.2971 0.7173
vn -0.2971 -0.6303 0.7173
vn -0.2195 -0.6789 0.7006
vn -0.6790 -0.2195 0.7006
vn -0.6789 -0.2195 0.7006
vn -0.6303 0.2971 0.7173
vn -0.6303 0.2970 0.7173
vn -0.6789 0.2196 0.7006
vn -0.2195 0.6789 0.7006
vn -0.6790 0.2195 0.7006
vn -0.2195 0.6790 0.7006
vn -0.2971 0.6303 0.7173
vn 0.6303 -0.2971 0.7173
vn 0.2195 -0.6790 0.7006
vn 0.2971 -0.6303 0.7173
vn 0.2195 -0.6789 0.7006
vn 0.6790 -0.2195 0.7006
vn -0.2970 -0.6303 0.7173
vn -0.2196 -0.6789 0.7006
vn 0.6303 0.2971 0.7173
vn 0.6789 -0.2195 0.7006
vn 0.6303 0.2970 0.7173
vn 0.6789 0.2196 0.7006
vn 0.2195 0.6789 0.7006
vn 0.2971 0.6303 0.7173
vn -0.2970 0.6303 0.7173
vn -0.2196 0.6789 0.7006
vn 0.6790 0.2195 0.7006
vn 0.2195 0.6790 0.7006
vt 0.468750 0.225000
vt 0.218750 0.225000
vt 0.468750 0.025000
vt 0.218750 0.025000
vt 0.468750 0.225000
vt 0.218750 0.225000
vt 0.468750 0.025000
vt 0.218750 0.025000
vt 0.468750 0.225000
vt 0.218750 0.225000
vt 0.468750 0.025000
vt 0.218750 0.025000
vt 0.468750 0.225000
vt 0.218750 0.225000
vt 0.468750 0.025000
vt 0.218750 0.025000
vt 0.468750 0.025000
vt 0.218750 0.025000
vt 0.468750 0.225000
vt 0.218750 0.225000
vt 0.468750 0.025000
vt 0.218750 0.025000
vt 0.468750 0.225000
vt 0.218750 0.225000
vt 0.468750 0.025000
vt 0.218750 0.025000
vt 0.468750 0.225000
vt 0.218750 0.225000
vt 0.468750 0.025000
vt 0.218750 0.025000
vt 0.468750 0.225000
vt 0.218750 0.225000
vt 0.218750 0.025000
vt 0.218750 0.025000
vt 0.218750 0.225000
vt 0.593750 0.408333
vt 0.218750 0.225000
vt 0.593750 0.408333
vt 0.218750 0.025000
vt 0.218750 0.225000
vt 0.593750 0.408333
vt 0.218750 0.025000
vt 0.218750 0.225000
vt 0.593750 0.408333
vt 0.218750 0.025000
vt 0.218750 0.225000
vt 0.593750 0.408333
vt 0.218750 0.225000
vt 0.593750 0.408333
vt 0.218750 0.025000
vt 0.218750 0.025000
vt 0.218750 0.025000
vt 0.218750 0.225000
vt 0.593750 0.408333
vt 0.218750 0.225000
vt 0.593750 0.408333
vt 0.593750 0.475000
vt 0.593750 0.475000
vt 0.593750 0.475000
vt 0.593750 0.475000
vt 0.593750 0.475000
vt 0.593750 0.475000
vt 0.593750 0.475000
vt 0.593750 0.475000
s 0
f 3/5/1 2/3/2 1/1/3
f 2/3/2 3/5/1 4/7/1
f 7/13/4 6/11/5 5/9/5
f 6/11/5 7/13/4 8/15/6
f 1/1/2 8/15/4 7/13/4
f 8/15/4 1/1/2 2/3/2
f 3/5/1 9/17/7 4/7/1
f 9/17/7 3/5/1 10/19/7
f 9/17/7 12/23/8 11/21/9
f 12/23/8 9/17/7 10/19/7
f 13/25/10 5/9/5 6/11/5
f 5/9/5 13/25/10 14/27/10
f 11/21/8 16/31/11 15/29/11
f 16/31/11 11/21/8 12/23/8
f 15/29/11 14/27/10 13/25/10
f 14/27/10 15/29/11 16/31/12
f 19/35/10 18/34/11 17/33/10
f 18/34/11 19/35/10 20/37/11
f 18/34/11 22/40/8 21/39/8
f 22/40/8 18/34/11 20/37/11
f 21/39/8 24/43/7 23/42/7
f 24/43/7 21/39/8 22/40/8
f 25/45/5 19/35/10 17/33/10
f 19/35/10 25/45/5 26/46/5
f 26/46/5 28/50/4 27/48/4
f 28/50/4 26/46/5 25/45/5
f 13/26/13 11/22/13 15/30/13
f 29/51/13 11/22/13 13/26/13
f 13/26/13 30/52/13 29/51/13
f 28/50/13 11/22/13 29/51/13
f 13/26/13 23/42/13 30/52/13
f 28/50/13 9/18/13 11/22/13
f 25/45/13 9/18/13 28/50/13
f 17/33/13 9/18/13 25/45/13
f 6/12/13 23/42/13 13/26/13
f 17/33/13 4/8/13 9/18/13
f 6/12/13 21/39/13 23/42/13
f 6/12/13 18/34/13 21/39/13
f 4/8/13 17/33/13 18/34/13
f 6/12/13 4/8/13 18/34/13
f 8/16/13 4/8/13 6/12/13
f 4/8/13 8/16/13 2/4/13
f 27/48/4 29/51/2 31/53/2
f 29/51/2 27/48/4 28/50/4
f 10/20/14 16/32/14 12/24/14
f 27/48/14 16/32/14 10/20/14
f 10/20/14 26/46/14 27/48/14
f 31/53/14 16/32/14 27/48/14
f 10/20/14 19/35/14 26/46/14
f 31/53/14 14/28/14 16/32/14
f 32/55/14 14/28/14 31/53/14
f 24/43/14 14/28/14 32/55/14
f 3/6/14 19/35/14 10/20/14
f 24/43/14 5/10/14 14/28/14
f 3/6/14 20/37/14 19/35/14
f 3/6/15 22/40/15 20/37/15
f 5/10/14 24/43/14 22/40/14
f 3/6/14 5/10/14 22/40/14
f 1/2/14 5/10/14 3/6/14
f 5/10/14 1/2/14 7/14/14
f 31/53/2 30/52/1 32/55/1
f 30/52/1 31/53/2 29/51/2
f 24/43/7 30/52/1 23/42/7
f 30/52/1 24/43/7 32/55/1
f 3/5/1 2/3/2 1/1/3
f 2/3/2 3/5/1 4/7/1
f 7/13/4 6/11/5 5/9/5
f 6/11/5 7/13/4 8/15/6
f 1/1/2 8/15/4 7/13/4
f 8/15/4 1/1/2 2/3/2
f 3/5/1 9/17/7 4/7/1
f 9/17/7 3/5/1 10/19/7
f 9/17/7 12/23/8 11/21/9
f 12/23/8 9/17/7 10/19/7
f 13/25/10 5/9/5 6/11/5
f 5/9/5 13/25/10 14/27/10
f 11/21/8 16/31/11 15/29/11
f 16/31/11 11/21/8 12/23/8
f 15/29/11 14/27/10 13/25/10
f 14/27/10 15/29/11 16/31/12
f 19/35/10 18/34/11 17/33/10
f 18/34/11 19/35/10 20/37/11
f 18/34/11 22/40/8 21/39/8
f 22/40/8 18/34/11 20/37/11
f 21/39/8 24/43/7 23/42/7
f 24/43/7 21/39/8 22/40/8
f 25/45/5 19/35/10 17/33/10
f 19/35/10 25/45/5 26/46/5
f 26/46/5 28/50/4 27/48/4
f 28/50/4 26/46/5 25/45/5
f 13/26/13 11/22/13 15/30/13
f 29/51/13 11/22/13 13/26/13
f 13/26/13 30/52/13 29/51/13
f 28/50/13 11/22/13 29/51/13
f 13/26/13 23/42/13 30/52/13
f 28/50/13 9/18/13 11/22/13
f 25/45/13 9/18/13 28/50/13
f 17/33/13 9/18/13 25/45/13
f 6/12/13 23/42/13 13/26/13
f 17/33/13 4/8/13 9/18/13
f 6/12/13 21/39/13 23/42/13
f 6/12/13 18/34/13 21/39/13
f 4/8/13 17/33/13 18/34/13
f 6/12/13 4/8/13 18/34/13
f 8/16/13 4/8/13 6/12/13
f 4/8/13 8/16/13 2/4/13
f 27/48/4 29/51/2 31/53/2
f 29/51/2 27/48/4 28/50/4
f 10/20/14 16/32/14 12/24/14
f 27/48/14 16/32/14 10/20/14
f 10/20/14 26/46/14 27/48/14
f 31/53/14 16/32/14 27/48/14
f 10/20/14 19/35/14 26/46/14
f 31/53/14 14/28/14 16/32/14
f 32/55/14 14/28/14 31/53/14
f 24/43/14 14/28/14 32/55/14
f 3/6/14 19/35/14 10/20/14
f 24/43/14 5/10/14 14/28/14
f 3/6/14 20/37/14 19/35/14
f 3/6/15 22/40/15 20/37/15
f 5/10/14 24/43/14 22/40/14
f 3/6/14 5/10/14 22/40/14
f 1/2/14 5/10/14 3/6/14
f 5/10/14 1/2/14 7/14/14
f 31/53/2 30/52/1 32/55/1
f 30/52/1 31/53/2 29/51/2
f 24/43/7 30/52/1 23/42/7
f 30/52/1 24/43/7 32/55/1
f 33/57/16 19/36/17 20/38/18
f 19/36/17 33/57/19 34/58/20
f 34/58/21 26/47/22 19/36/17
f 26/47/23 34/58/21 35/59/24
f 36/60/25 26/47/22 35/59/26
f 26/47/22 36/60/27 27/49/28
f 24/44/29 37/61/30 22/41/31
f 37/61/32 24/44/29 38/62/33
f 37/61/32 20/38/18 22/41/31
f 20/38/34 37/61/32 33/57/35
f 32/56/36 38/62/37 24/44/29
f 38/62/37 32/56/38 39/63/39
f 27/49/28 40/64/40 31/54/41
f 40/64/40 27/49/42 36/60/43
f 38/62/14 33/57/14 37/61/14
f 33/57/14 38/62/14 34/58/14
f 34/58/14 38/62/14 39/63/14
f 34/58/14 39/63/14 35/59/14
f 35/59/14 39/63/14 40/64/14
f 35/59/14 40/64/14 36/60/14
f 32/56/36 40/64/40 39/63/44
f 40/64/45 32/56/36 31/54/41
