# Blender 3.3.1
# www.blender.org
o button-floor-square.001
v -0.450000 -0.500000 0.100000
v -0.450000 -0.500000 -0.000000
v -0.500000 -0.450000 0.100000
v -0.500000 -0.450000 -0.000000
v 0.500000 -0.450000 0.100000
v 0.500000 -0.450000 0.000000
v 0.450000 -0.500000 0.100000
v 0.450000 -0.500000 0.000000
v -0.500000 0.450000 -0.000000
v -0.500000 0.450000 0.100000
v -0.450000 0.500000 -0.000000
v -0.450000 0.500000 0.100000
v 0.500000 0.450000 0.000000
v 0.500000 0.450000 0.100000
v 0.450000 0.500000 0.000000
v 0.450000 0.500000 0.100000
v -0.450000 -0.429289 -0.000000
v -0.429289 -0.450000 -0.000000
v -0.450000 -0.429289 0.097500
v -0.429289 -0.450000 0.097500
v 0.429289 -0.450000 0.000000
v 0.429289 -0.450000 0.097500
v 0.450000 -0.429289 0.000000
v 0.450000 -0.429289 0.097500
v -0.450000 0.429289 -0.000000
v -0.450000 0.429289 0.097500
v -0.429289 0.450000 0.097500
v -0.429289 0.450000 -0.000000
v 0.429289 0.450000 0.000000
v 0.450000 0.429289 0.000000
v 0.429289 0.450000 0.097500
v 0.450000 0.429289 0.097500
v -0.393432 -0.410000 0.072500
v -0.410000 -0.393432 0.072500
v -0.410000 0.393432 0.072500
v -0.393432 0.410000 0.072500
v 0.393432 -0.410000 0.072500
v 0.410000 -0.393432 0.072500
v 0.410000 0.393432 0.072500
v 0.393432 0.410000 0.072500
vn -0.9239 -0.3827 -0.0000
vn -0.3827 -0.9239 -0.0000
vn -0.3827 -0.9239 -0.0002
vn 0.3827 -0.9239 -0.0000
vn 0.9239 -0.3827 -0.0000
vn 0.3827 -0.9239 0.0002
vn -0.9239 0.3827 -0.0000
vn -0.3827 0.9239 -0.0000
vn -0.3827 0.9239 -0.0002
vn 0.9239 0.3827 -0.0000
vn 0.3827 0.9239 -0.0000
vn 0.3827 0.9239 -0.0002
vn 0.9239 0.3827 0.0020
vn 0.3827 0.9239 -0.0020
vn -0.3827 0.9239 0.0011
vn 0.3827 0.9239 -0.0011
vn -0.9239 0.3827 0.0020
vn -0.3827 0.9239 -0.0020
vn 0.9239 0.3827 0.0011
vn 0.9239 -0.3827 -0.0011
vn 0.3827 -0.9239 -0.0020
vn 0.9239 -0.3827 0.0020
vn -0.0000 -0.0000 -1.0000
vn -0.3827 -0.9239 -0.0011
vn 0.3827 -0.9239 0.0011
vn -0.0000 -0.0000 1.0000
vn 0.0293 -0.5574 0.8298
vn 0.0353 -0.0353 0.9988
vn -0.0000 -0.0499 0.9988
vn 0.0499 -0.0000 0.9988
vn -0.0353 -0.0353 0.9988
vn -0.0499 -0.0000 0.9988
vn 0.0353 0.0353 0.9988
vn -0.0104 -0.9239 -0.3825
vn 0.2682 -0.9239 -0.2730
vn -0.0353 0.0353 0.9988
vn -0.0000 -1.0000 -0.0000
vn -0.0000 -1.0000 0.0001
vn -0.9239 -0.3827 -0.0020
vn -0.3827 -0.9239 0.0020
vn -0.9239 0.3827 0.0011
vn -0.9239 -0.3827 -0.0011
vn 0.5180 0.0583 0.8534
vn 0.1372 0.4695 0.8722
vn 0.4638 0.1307 0.8762
vn 0.1339 0.4667 0.8742
vn 0.5113 0.0515 0.8579
vn 0.0625 0.5218 0.8508
vn 0.6319 -0.2089 0.7464
vn 0.6424 0.2950 0.7073
vn 0.6633 -0.2795 0.6943
vn 0.6649 0.2781 0.6933
vn 0.6156 -0.2206 0.7566
vn 0.6330 0.2080 0.7457
vn 0.5113 -0.0515 0.8579
vn 0.1339 -0.4667 0.8742
vn 0.0625 -0.5218 0.8508
vn 0.1372 -0.4695 0.8722
vn 0.5180 -0.0583 0.8534
vn 0.4638 -0.1307 0.8762
vn -0.1372 0.4695 0.8722
vn -0.5180 0.0583 0.8534
vn -0.4638 0.1307 0.8762
vn -0.5113 0.0515 0.8579
vn -0.1339 0.4667 0.8742
vn -0.0625 0.5218 0.8508
vn 0.2089 0.6319 0.7464
vn -0.2950 0.6424 0.7073
vn 0.2795 0.6633 0.6943
vn -0.2781 0.6649 0.6933
vn 0.2206 0.6156 0.7566
vn -0.2080 0.6330 0.7457
vn -0.6424 0.2950 0.7073
vn -0.6319 -0.2089 0.7464
vn -0.6633 -0.2795 0.6943
vn -0.6156 -0.2206 0.7566
vn -0.6649 0.2781 0.6933
vn -0.6330 0.2080 0.7457
vn -0.2950 -0.6424 0.7073
vn 0.2089 -0.6319 0.7464
vn 0.2795 -0.6633 0.6943
vn 0.2206 -0.6156 0.7566
vn -0.2781 -0.6649 0.6933
vn -0.2080 -0.6330 0.7457
vn -0.1339 -0.4667 0.8742
vn -0.5113 -0.0515 0.8579
vn -0.0625 -0.5218 0.8508
vn -0.5180 -0.0583 0.8534
vn -0.1372 -0.4695 0.8722
vn -0.4638 -0.1307 0.8762
vt 0.468750 0.225000
vt 0.218750 0.225000
vt 0.468750 0.025000
vt 0.218750 0.025000
vt 0.468750 0.225000
vt 0.218750 0.225000
vt 0.468750 0.025000
vt 0.218750 0.025000
vt 0.468750 0.225000
vt 0.218750 0.225000
vt 0.468750 0.025000
vt 0.218750 0.025000
vt 0.468750 0.225000
vt 0.218750 0.225000
vt 0.468750 0.025000
vt 0.218750 0.025000
vt 0.468750 0.025000
vt 0.218750 0.025000
vt 0.468750 0.225000
vt 0.218750 0.225000
vt 0.468750 0.025000
vt 0.218750 0.025000
vt 0.468750 0.225000
vt 0.218750 0.225000
vt 0.468750 0.025000
vt 0.218750 0.025000
vt 0.468750 0.225000
vt 0.218750 0.225000
vt 0.468750 0.025000
vt 0.218750 0.025000
vt 0.468750 0.225000
vt 0.218750 0.225000
vt 0.218750 0.025000
vt 0.218750 0.025000
vt 0.218750 0.225000
vt 0.593750 0.408333
vt 0.218750 0.225000
vt 0.593750 0.408333
vt 0.218750 0.025000
vt 0.218750 0.225000
vt 0.593750 0.408333
vt 0.218750 0.025000
vt 0.218750 0.225000
vt 0.593750 0.408333
vt 0.218750 0.025000
vt 0.218750 0.225000
vt 0.593750 0.408333
vt 0.218750 0.225000
vt 0.593750 0.408333
vt 0.218750 0.025000
vt 0.218750 0.025000
vt 0.218750 0.025000
vt 0.218750 0.225000
vt 0.593750 0.408333
vt 0.218750 0.225000
vt 0.593750 0.408333
vt 0.593750 0.475000
vt 0.593750 0.475000
vt 0.593750 0.475000
vt 0.593750 0.475000
vt 0.593750 0.475000
vt 0.593750 0.475000
vt 0.593750 0.475000
vt 0.593750 0.475000
s 0
f 3/5/1 2/3/2 1/1/3
f 2/3/2 3/5/1 4/7/1
f 7/13/4 6/11/5 5/9/5
f 6/11/5 7/13/4 8/15/6
f 1/1/2 8/15/4 7/13/4
f 8/15/4 1/1/2 2/3/2
f 3/5/1 9/17/7 4/7/1
f 9/17/7 3/5/1 10/19/7
f 9/17/7 12/23/8 11/21/9
f 12/23/8 9/17/7 10/19/7
f 13/25/10 5/9/5 6/11/5
f 5/9/5 13/25/10 14/27/10
f 11/21/8 16/31/11 15/29/11
f 16/31/11 11/21/8 12/23/8
f 15/29/11 14/27/10 13/25/10
f 14/27/10 15/29/11 16/31/12
f 19/35/13 18/34/11 17/33/10
f 18/34/14 19/35/10 20/37/11
f 18/34/11 22/40/15 21/39/8
f 22/40/8 18/34/16 20/37/11
f 21/39/8 24/43/17 23/42/7
f 24/43/7 21/39/18 22/40/8
f 25/45/5 19/35/19 17/33/10
f 19/35/10 25/45/20 26/46/5
f 26/46/5 28/50/21 27/48/4
f 28/50/4 26/46/22 25/45/5
f 13/26/23 11/22/23 15/30/23
f 29/51/23 11/22/23 13/26/23
f 13/26/23 30/52/23 29/51/23
f 28/50/23 11/22/23 29/51/23
f 13/26/23 23/42/23 30/52/23
f 28/50/23 9/18/23 11/22/23
f 25/45/23 9/18/23 28/50/23
f 17/33/23 9/18/23 25/45/23
f 6/12/23 23/42/23 13/26/23
f 17/33/23 4/8/23 9/18/23
f 6/12/23 21/39/23 23/42/23
f 6/12/23 18/34/23 21/39/23
f 4/8/23 17/33/23 18/34/23
f 6/12/23 4/8/23 18/34/23
f 8/16/23 4/8/23 6/12/23
f 4/8/23 8/16/23 2/4/23
f 27/48/4 29/51/24 31/53/2
f 29/51/2 27/48/25 28/50/4
f 10/20/26 16/32/26 12/24/26
f 27/48/27 16/32/27 10/20/27
f 10/20/28 26/46/28 27/48/28
f 31/53/29 16/32/29 27/48/29
f 10/20/30 19/35/30 26/46/30
f 31/53/31 14/28/31 16/32/31
f 32/55/31 14/28/31 31/53/31
f 24/43/32 14/28/32 32/55/32
f 3/6/30 19/35/30 10/20/30
f 24/43/32 5/10/32 14/28/32
f 3/6/33 20/37/33 19/35/33
f 3/6/34 22/40/2 20/37/35
f 5/10/36 24/43/36 22/40/36
f 3/6/37 5/10/37 22/40/38
f 1/2/26 5/10/26 3/6/26
f 5/10/26 1/2/26 7/14/26
f 31/53/2 30/52/39 32/55/1
f 30/52/1 31/53/40 29/51/2
f 24/43/41 30/52/1 23/42/7
f 30/52/42 24/43/7 32/55/1
f 3/5/1 2/3/2 1/1/3
f 2/3/2 3/5/1 4/7/1
f 7/13/4 6/11/5 5/9/5
f 6/11/5 7/13/4 8/15/6
f 1/1/2 8/15/4 7/13/4
f 8/15/4 1/1/2 2/3/2
f 3/5/1 9/17/7 4/7/1
f 9/17/7 3/5/1 10/19/7
f 9/17/7 12/23/8 11/21/9
f 12/23/8 9/17/7 10/19/7
f 13/25/10 5/9/5 6/11/5
f 5/9/5 13/25/10 14/27/10
f 11/21/8 16/31/11 15/29/11
f 16/31/11 11/21/8 12/23/8
f 15/29/11 14/27/10 13/25/10
f 14/27/10 15/29/11 16/31/12
f 19/35/13 18/34/11 17/33/10
f 18/34/14 19/35/10 20/37/11
f 18/34/11 22/40/15 21/39/8
f 22/40/8 18/34/16 20/37/11
f 21/39/8 24/43/17 23/42/7
f 24/43/7 21/39/18 22/40/8
f 25/45/5 19/35/19 17/33/10
f 19/35/10 25/45/20 26/46/5
f 26/46/5 28/50/21 27/48/4
f 28/50/4 26/46/22 25/45/5
f 13/26/23 11/22/23 15/30/23
f 29/51/23 11/22/23 13/26/23
f 13/26/23 30/52/23 29/51/23
f 28/50/23 11/22/23 29/51/23
f 13/26/23 23/42/23 30/52/23
f 28/50/23 9/18/23 11/22/23
f 25/45/23 9/18/23 28/50/23
f 17/33/23 9/18/23 25/45/23
f 6/12/23 23/42/23 13/26/23
f 17/33/23 4/8/23 9/18/23
f 6/12/23 21/39/23 23/42/23
f 6/12/23 18/34/23 21/39/23
f 4/8/23 17/33/23 18/34/23
f 6/12/23 4/8/23 18/34/23
f 8/16/23 4/8/23 6/12/23
f 4/8/23 8/16/23 2/4/23
f 27/48/4 29/51/24 31/53/2
f 29/51/2 27/48/25 28/50/4
f 10/20/26 16/32/26 12/24/26
f 27/48/27 16/32/27 10/20/27
f 10/20/28 26/46/28 27/48/28
f 31/53/29 16/32/29 27/48/29
f 10/20/30 19/35/30 26/46/30
f 31/53/31 14/28/31 16/32/31
f 32/55/31 14/28/31 31/53/31
f 24/43/32 14/28/32 32/55/32
f 3/6/30 19/35/30 10/20/30
f 24/43/32 5/10/32 14/28/32
f 3/6/33 20/37/33 19/35/33
f 3/6/34 22/40/2 20/37/35
f 5/10/36 24/43/36 22/40/36
f 3/6/37 5/10/37 22/40/38
f 1/2/26 5/10/26 3/6/26
f 5/10/26 1/2/26 7/14/26
f 31/53/2 30/52/39 32/55/1
f 30/52/1 31/53/40 29/51/2
f 24/43/41 30/52/1 23/42/7
f 30/52/42 24/43/7 32/55/1
f 33/57/43 19/36/44 20/38/45
f 19/36/46 33/57/47 34/58/48
f 34/58/49 26/47/50 19/36/51
f 26/47/52 34/58/53 35/59/54
f 36/60/55 26/47/56 35/59/57
f 26/47/58 36/60/59 27/49/60
f 24/44/61 37/61/62 22/41/63
f 37/61/64 24/44/65 38/62/66
f 37/61/67 20/38/68 22/41/69
f 20/38/70 37/61/71 33/57/72
f 32/56/73 38/62/74 24/44/75
f 38/62/76 32/56/77 39/63/78
f 27/49/79 40/64/80 31/54/81
f 40/64/82 27/49/83 36/60/84
f 38/62/26 33/57/26 37/61/26
f 33/57/26 38/62/26 34/58/26
f 34/58/26 38/62/26 39/63/26
f 34/58/26 39/63/26 35/59/26
f 35/59/26 39/63/26 40/64/26
f 35/59/26 40/64/26 36/60/26
f 32/56/85 40/64/86 39/63/87
f 40/64/88 32/56/89 31/54/90
