# Blender 3.3.1
# www.blender.org
o snow-pile
v 0.091004 0.012099 0.000000
v 0.055856 0.096952 0.000000
v 0.055856 -0.072754 -0.000000
v -0.028996 -0.107901 -0.000000
v -0.028996 0.132099 0.000000
v -0.113849 -0.072754 -0.000000
v -0.113849 0.096952 0.000000
v -0.148996 0.012099 0.000000
v 0.019004 0.012099 0.060000
v 0.004945 -0.021842 0.060000
v 0.004945 0.046040 0.060000
v -0.028996 0.060099 0.060000
v -0.028996 -0.035901 0.060000
v -0.062938 0.046040 0.060000
v -0.062938 -0.021842 0.060000
v -0.076996 0.012099 0.060000
v 0.043004 0.012099 0.030000
v 0.021915 -0.038813 0.030000
v -0.079908 0.063011 0.030000
v -0.100996 0.012099 0.030000
v -0.028996 0.084099 0.030000
v -0.028996 -0.059901 0.030000
v 0.021915 0.063011 0.030000
v -0.079908 -0.038813 0.030000
v 0.137915 0.047051 0.000000
v 0.102768 0.131904 0.000000
v 0.102768 -0.037802 -0.000000
v 0.017915 -0.072949 -0.000000
v 0.017915 0.167051 0.000000
v -0.066938 -0.037802 -0.000000
v -0.066938 0.131904 0.000000
v -0.102085 0.047051 0.000000
v 0.065915 0.047051 0.045630
v 0.051856 0.013110 0.045630
v 0.051856 0.080992 0.045630
v 0.017915 0.095051 0.045630
v 0.017915 -0.000949 0.045630
v -0.016026 0.080992 0.045630
v -0.016026 0.013110 0.045630
v -0.030085 0.047051 0.045630
v 0.089915 0.047051 0.022815
v 0.068827 -0.003861 0.022815
v -0.032997 0.097963 0.022815
v -0.054085 0.047051 0.022815
v 0.017915 0.119051 0.022815
v 0.017915 -0.024949 0.022815
v 0.068827 0.097963 0.022815
v -0.032997 -0.003861 0.022815
v 0.148996 -0.047051 -0.000000
v 0.113849 0.037802 0.000000
v 0.113849 -0.131904 -0.000000
v 0.028996 -0.167051 -0.000000
v 0.028996 0.072949 0.000000
v -0.055856 -0.131904 -0.000000
v -0.055856 0.037802 0.000000
v -0.091004 -0.047051 -0.000000
v 0.076996 -0.047051 0.039000
v 0.062938 -0.080992 0.039000
v 0.062938 -0.013110 0.039000
v 0.028996 0.000949 0.039000
v 0.028996 -0.095051 0.039000
v -0.004945 -0.013110 0.039000
v -0.004945 -0.080992 0.039000
v -0.019004 -0.047051 0.039000
v 0.100996 -0.047051 0.019500
v 0.079908 -0.097963 0.019500
v -0.021915 0.003861 0.019500
v -0.043004 -0.047051 0.019500
v 0.028996 0.024949 0.019500
v 0.028996 -0.119051 0.019500
v 0.079908 0.003861 0.019500
v -0.021915 -0.097963 0.019500
vn -0.0000 -0.0000 -1.0000
vn 0.3625 0.3624 0.8586
vn 0.3625 -0.3624 0.8586
vn 0.5126 -0.0000 0.8586
vn 0.3624 -0.3625 0.8586
vn 0.3625 0.3625 0.8586
vn -0.0000 0.5126 0.8586
vn 0.3625 -0.3625 0.8586
vn -0.0000 -0.5126 0.8586
vn -0.3625 0.3625 0.8586
vn -0.3624 0.3625 0.8586
vn -0.3625 -0.3625 0.8586
vn -0.3625 -0.3624 0.8586
vn -0.3625 0.3624 0.8586
vn -0.5126 -0.0000 0.8586
vn 0.6404 -0.0000 0.7680
vn 0.4529 -0.4528 0.7680
vn -0.3748 0.3748 0.8480
vn -0.6404 -0.0000 0.7681
vn -0.4528 0.4528 0.7680
vn -0.6404 -0.0000 0.7680
vn -0.5300 -0.0000 0.8480
vn -0.0000 0.6404 0.7680
vn -0.0000 0.5300 0.8480
vn -0.0000 0.6404 0.7681
vn 0.4528 -0.4528 0.7680
vn -0.0000 -0.5300 0.8480
vn 0.3748 -0.3748 0.8480
vn 0.4528 -0.4528 0.7681
vn -0.0000 -0.6404 0.7680
vn 0.4528 0.4528 0.7680
vn 0.3748 0.3748 0.8480
vn 0.4528 0.4528 0.7681
vn -0.4528 -0.4528 0.7681
vn -0.4528 -0.4528 0.7680
vn -0.3748 -0.3748 0.8480
vn 0.5300 -0.0000 0.8480
vn 0.6404 -0.0000 0.7681
vn -0.4529 0.4528 0.7680
vn -0.4529 -0.4528 0.7680
vn -0.4528 0.4529 0.7680
vn -0.4528 -0.4529 0.7680
vn 0.4529 0.4528 0.7680
vn 0.4528 -0.4529 0.7680
vn 0.4528 0.4529 0.7680
vn 0.2924 0.2923 0.9105
vn 0.2924 -0.2923 0.9105
vn 0.4134 -0.0000 0.9105
vn 0.2923 -0.2924 0.9105
vn 0.2923 0.2923 0.9105
vn -0.0000 0.4134 0.9105
vn 0.2923 -0.2923 0.9105
vn -0.0000 -0.4134 0.9105
vn -0.2923 0.2923 0.9105
vn -0.2923 0.2924 0.9105
vn -0.2923 -0.2923 0.9105
vn -0.2924 -0.2923 0.9105
vn -0.2924 0.2923 0.9105
vn -0.4134 -0.0000 0.9105
vn 0.5355 -0.0000 0.8445
vn 0.3787 -0.3787 0.8445
vn -0.3035 0.3036 0.9032
vn -0.5355 -0.0000 0.8445
vn -0.3787 0.3787 0.8445
vn -0.4293 -0.0000 0.9032
vn -0.3036 0.3035 0.9032
vn -0.0000 0.5355 0.8445
vn -0.0000 0.4293 0.9032
vn -0.0000 -0.4293 0.9032
vn 0.3035 -0.3035 0.9032
vn -0.0000 -0.5355 0.8445
vn 0.3787 0.3787 0.8445
vn 0.3035 0.3035 0.9032
vn -0.3787 -0.3787 0.8445
vn -0.3035 -0.3035 0.9032
vn -0.3035 -0.3036 0.9032
vn 0.3035 0.3036 0.9032
vn 0.4293 -0.0000 0.9032
vn 0.3035 -0.3036 0.9032
vn 0.2558 0.2558 0.9323
vn 0.2558 -0.2558 0.9323
vn 0.3618 -0.0000 0.9323
vn -0.0000 0.3618 0.9323
vn -0.0000 -0.3618 0.9323
vn -0.2558 0.2558 0.9323
vn -0.2558 -0.2558 0.9323
vn -0.3618 -0.0000 0.9323
vn 0.4765 -0.0000 0.8792
vn 0.3369 -0.3369 0.8792
vn -0.2661 0.2661 0.9265
vn -0.4765 -0.0000 0.8792
vn -0.3369 0.3369 0.8792
vn -0.3764 -0.0000 0.9265
vn -0.0000 0.4765 0.8792
vn -0.0000 0.3764 0.9265
vn -0.0000 -0.3764 0.9265
vn 0.2661 -0.2661 0.9265
vn -0.0000 -0.4765 0.8792
vn 0.3369 0.3369 0.8792
vn 0.2661 0.2661 0.9265
vn -0.3369 -0.3369 0.8792
vn -0.2661 -0.2661 0.9265
vn 0.3764 -0.0000 0.9265
vt 0.093750 0.025000
vt 0.093750 0.025000
vt 0.093750 0.025000
vt 0.093750 0.025000
vt 0.093750 0.025000
vt 0.093750 0.025000
vt 0.093750 0.025000
vt 0.093750 0.025000
vt 0.093750 0.225000
vt 0.093750 0.225000
vt 0.093750 0.225000
vt 0.093750 0.225000
vt 0.093750 0.225000
vt 0.093750 0.225000
vt 0.093750 0.225000
vt 0.093750 0.225000
vt 0.093750 0.125000
vt 0.093750 0.125000
vt 0.093750 0.125000
vt 0.093750 0.125000
vt 0.093750 0.125000
vt 0.093750 0.125000
vt 0.093750 0.125000
vt 0.093750 0.125000
vt 0.093750 0.025000
vt 0.093750 0.025000
vt 0.093750 0.025000
vt 0.093750 0.025000
vt 0.093750 0.025000
vt 0.093750 0.025000
vt 0.093750 0.025000
vt 0.093750 0.025000
vt 0.093750 0.225000
vt 0.093750 0.225000
vt 0.093750 0.225000
vt 0.093750 0.225000
vt 0.093750 0.225000
vt 0.093750 0.225000
vt 0.093750 0.225000
vt 0.093750 0.225000
vt 0.093750 0.125000
vt 0.093750 0.125000
vt 0.093750 0.125000
vt 0.093750 0.125000
vt 0.093750 0.125000
vt 0.093750 0.125000
vt 0.093750 0.125000
vt 0.093750 0.125000
vt 0.093750 0.025000
vt 0.093750 0.025000
vt 0.093750 0.025000
vt 0.093750 0.025000
vt 0.093750 0.025000
vt 0.093750 0.025000
vt 0.093750 0.025000
vt 0.093750 0.025000
vt 0.093750 0.225000
vt 0.093750 0.225000
vt 0.093750 0.225000
vt 0.093750 0.225000
vt 0.093750 0.225000
vt 0.093750 0.225000
vt 0.093750 0.225000
vt 0.093750 0.225000
vt 0.093750 0.125000
vt 0.093750 0.125000
vt 0.093750 0.125000
vt 0.093750 0.125000
vt 0.093750 0.125000
vt 0.093750 0.125000
vt 0.093750 0.125000
vt 0.093750 0.125000
s 0
f 3/3/1 2/2/1 1/1/1
f 2/2/1 3/3/1 4/4/1
f 2/2/1 4/4/1 5/5/1
f 5/5/1 4/4/1 6/6/1
f 5/5/1 6/6/1 7/7/1
f 7/7/1 6/6/1 8/8/1
f 11/11/2 10/10/3 9/9/4
f 10/10/5 11/11/6 12/12/7
f 10/10/8 12/12/7 13/13/9
f 13/13/9 12/12/7 14/14/10
f 13/13/9 14/14/11 15/15/12
f 15/15/13 14/14/14 16/16/15
f 10/10/8 17/17/16 9/9/4
f 17/17/16 10/10/8 18/18/17
f 7/7/18 20/20/19 19/19/20
f 20/20/21 7/7/18 8/8/22
f 7/7/18 21/21/23 5/5/24
f 21/21/25 7/7/18 19/19/20
f 18/18/26 4/4/27 3/3/28
f 4/4/27 18/18/29 22/22/30
f 5/5/24 23/23/31 2/2/32
f 23/23/33 5/5/24 21/21/23
f 24/24/34 4/4/27 22/22/30
f 4/4/27 24/24/35 6/6/36
f 20/20/19 6/6/36 24/24/35
f 6/6/36 20/20/21 8/8/22
f 2/2/32 17/17/16 1/1/37
f 17/17/38 2/2/32 23/23/31
f 17/17/16 3/3/28 1/1/37
f 3/3/28 17/17/38 18/18/26
f 20/20/21 14/14/10 19/19/39
f 14/14/10 20/20/21 16/16/15
f 20/20/21 15/15/12 16/16/15
f 15/15/12 20/20/21 24/24/40
f 14/14/10 21/21/23 19/19/41
f 21/21/23 14/14/10 12/12/7
f 13/13/9 24/24/42 22/22/30
f 24/24/42 13/13/9 15/15/12
f 11/11/6 17/17/16 23/23/43
f 17/17/16 11/11/6 9/9/4
f 10/10/8 22/22/30 18/18/44
f 22/22/30 10/10/8 13/13/9
f 12/12/7 23/23/45 21/21/23
f 23/23/45 12/12/7 11/11/6
f 27/27/1 26/26/1 25/25/1
f 26/26/1 27/27/1 28/28/1
f 26/26/1 28/28/1 29/29/1
f 29/29/1 28/28/1 30/30/1
f 29/29/1 30/30/1 31/31/1
f 31/31/1 30/30/1 32/32/1
f 35/35/46 34/34/47 33/33/48
f 34/34/49 35/35/50 36/36/51
f 34/34/52 36/36/51 37/37/53
f 37/37/53 36/36/51 38/38/54
f 37/37/53 38/38/55 39/39/56
f 39/39/57 38/38/58 40/40/59
f 34/34/52 41/41/60 33/33/48
f 41/41/60 34/34/52 42/42/61
f 31/31/62 44/44/63 43/43/64
f 44/44/63 31/31/62 32/32/65
f 31/31/66 45/45/67 29/29/68
f 45/45/67 31/31/66 43/43/64
f 42/42/61 28/28/69 27/27/70
f 28/28/69 42/42/61 46/46/71
f 29/29/68 47/47/72 26/26/73
f 47/47/72 29/29/68 45/45/67
f 48/48/74 28/28/69 46/46/71
f 28/28/69 48/48/74 30/30/75
f 44/44/63 30/30/76 48/48/74
f 30/30/76 44/44/63 32/32/65
f 26/26/77 41/41/60 25/25/78
f 41/41/60 26/26/77 47/47/72
f 41/41/60 27/27/79 25/25/78
f 27/27/79 41/41/60 42/42/61
f 44/44/63 38/38/54 43/43/64
f 38/38/54 44/44/63 40/40/59
f 44/44/63 39/39/56 40/40/59
f 39/39/56 44/44/63 48/48/74
f 38/38/54 45/45/67 43/43/64
f 45/45/67 38/38/54 36/36/51
f 37/37/53 48/48/74 46/46/71
f 48/48/74 37/37/53 39/39/56
f 35/35/50 41/41/60 47/47/72
f 41/41/60 35/35/50 33/33/48
f 34/34/52 46/46/71 42/42/61
f 46/46/71 34/34/52 37/37/53
f 36/36/51 47/47/72 45/45/67
f 47/47/72 36/36/51 35/35/50
f 51/51/1 50/50/1 49/49/1
f 50/50/1 51/51/1 52/52/1
f 50/50/1 52/52/1 53/53/1
f 53/53/1 52/52/1 54/54/1
f 53/53/1 54/54/1 55/55/1
f 55/55/1 54/54/1 56/56/1
f 59/59/80 58/58/81 57/57/82
f 58/58/81 59/59/80 60/60/83
f 58/58/81 60/60/83 61/61/84
f 61/61/84 60/60/83 62/62/85
f 61/61/84 62/62/85 63/63/86
f 63/63/86 62/62/85 64/64/87
f 58/58/81 65/65/88 57/57/82
f 65/65/88 58/58/81 66/66/89
f 55/55/90 68/68/91 67/67/92
f 68/68/91 55/55/90 56/56/93
f 55/55/90 69/69/94 53/53/95
f 69/69/94 55/55/90 67/67/92
f 66/66/89 52/52/96 51/51/97
f 52/52/96 66/66/89 70/70/98
f 53/53/95 71/71/99 50/50/100
f 71/71/99 53/53/95 69/69/94
f 72/72/101 52/52/96 70/70/98
f 52/52/96 72/72/101 54/54/102
f 68/68/91 54/54/102 72/72/101
f 54/54/102 68/68/91 56/56/93
f 50/50/100 65/65/88 49/49/103
f 65/65/88 50/50/100 71/71/99
f 65/65/88 51/51/97 49/49/103
f 51/51/97 65/65/88 66/66/89
f 68/68/91 62/62/85 67/67/92
f 62/62/85 68/68/91 64/64/87
f 68/68/91 63/63/86 64/64/87
f 63/63/86 68/68/91 72/72/101
f 62/62/85 69/69/94 67/67/92
f 69/69/94 62/62/85 60/60/83
f 61/61/84 72/72/101 70/70/98
f 72/72/101 61/61/84 63/63/86
f 59/59/80 65/65/88 71/71/99
f 65/65/88 59/59/80 57/57/82
f 58/58/81 70/70/98 66/66/89
f 70/70/98 58/58/81 61/61/84
f 60/60/83 71/71/99 69/69/94
f 71/71/99 60/60/83 59/59/80
f 3/3/1 2/2/1 1/1/1
f 2/2/1 3/3/1 4/4/1
f 2/2/1 4/4/1 5/5/1
f 5/5/1 4/4/1 6/6/1
f 5/5/1 6/6/1 7/7/1
f 7/7/1 6/6/1 8/8/1
f 11/11/2 10/10/3 9/9/4
f 10/10/5 11/11/6 12/12/7
f 10/10/8 12/12/7 13/13/9
f 13/13/9 12/12/7 14/14/10
f 13/13/9 14/14/11 15/15/12
f 15/15/13 14/14/14 16/16/15
f 10/10/8 17/17/16 9/9/4
f 17/17/16 10/10/8 18/18/17
f 7/7/18 20/20/19 19/19/20
f 20/20/21 7/7/18 8/8/22
f 7/7/18 21/21/23 5/5/24
f 21/21/25 7/7/18 19/19/20
f 18/18/26 4/4/27 3/3/28
f 4/4/27 18/18/29 22/22/30
f 5/5/24 23/23/31 2/2/32
f 23/23/33 5/5/24 21/21/23
f 24/24/34 4/4/27 22/22/30
f 4/4/27 24/24/35 6/6/36
f 20/20/19 6/6/36 24/24/35
f 6/6/36 20/20/21 8/8/22
f 2/2/32 17/17/16 1/1/37
f 17/17/38 2/2/32 23/23/31
f 17/17/16 3/3/28 1/1/37
f 3/3/28 17/17/38 18/18/26
f 20/20/21 14/14/10 19/19/39
f 14/14/10 20/20/21 16/16/15
f 20/20/21 15/15/12 16/16/15
f 15/15/12 20/20/21 24/24/40
f 14/14/10 21/21/23 19/19/41
f 21/21/23 14/14/10 12/12/7
f 13/13/9 24/24/42 22/22/30
f 24/24/42 13/13/9 15/15/12
f 11/11/6 17/17/16 23/23/43
f 17/17/16 11/11/6 9/9/4
f 10/10/8 22/22/30 18/18/44
f 22/22/30 10/10/8 13/13/9
f 12/12/7 23/23/45 21/21/23
f 23/23/45 12/12/7 11/11/6
f 27/27/1 26/26/1 25/25/1
f 26/26/1 27/27/1 28/28/1
f 26/26/1 28/28/1 29/29/1
f 29/29/1 28/28/1 30/30/1
f 29/29/1 30/30/1 31/31/1
f 31/31/1 30/30/1 32/32/1
f 35/35/46 34/34/47 33/33/48
f 34/34/49 35/35/50 36/36/51
f 34/34/52 36/36/51 37/37/53
f 37/37/53 36/36/51 38/38/54
f 37/37/53 38/38/55 39/39/56
f 39/39/57 38/38/58 40/40/59
f 34/34/52 41/41/60 33/33/48
f 41/41/60 34/34/52 42/42/61
f 31/31/62 44/44/63 43/43/64
f 44/44/63 31/31/62 32/32/65
f 31/31/66 45/45/67 29/29/68
f 45/45/67 31/31/66 43/43/64
f 42/42/61 28/28/69 27/27/70
f 28/28/69 42/42/61 46/46/71
f 29/29/68 47/47/72 26/26/73
f 47/47/72 29/29/68 45/45/67
f 48/48/74 28/28/69 46/46/71
f 28/28/69 48/48/74 30/30/75
f 44/44/63 30/30/76 48/48/74
f 30/30/76 44/44/63 32/32/65
f 26/26/77 41/41/60 25/25/78
f 41/41/60 26/26/77 47/47/72
f 41/41/60 27/27/79 25/25/78
f 27/27/79 41/41/60 42/42/61
f 44/44/63 38/38/54 43/43/64
f 38/38/54 44/44/63 40/40/59
f 44/44/63 39/39/56 40/40/59
f 39/39/56 44/44/63 48/48/74
f 38/38/54 45/45/67 43/43/64
f 45/45/67 38/38/54 36/36/51
f 37/37/53 48/48/74 46/46/71
f 48/48/74 37/37/53 39/39/56
f 35/35/50 41/41/60 47/47/72
f 41/41/60 35/35/50 33/33/48
f 34/34/52 46/46/71 42/42/61
f 46/46/71 34/34/52 37/37/53
f 36/36/51 47/47/72 45/45/67
f 47/47/72 36/36/51 35/35/50
f 51/51/1 50/50/1 49/49/1
f 50/50/1 51/51/1 52/52/1
f 50/50/1 52/52/1 53/53/1
f 53/53/1 52/52/1 54/54/1
f 53/53/1 54/54/1 55/55/1
f 55/55/1 54/54/1 56/56/1
f 59/59/80 58/58/81 57/57/82
f 58/58/81 59/59/80 60/60/83
f 58/58/81 60/60/83 61/61/84
f 61/61/84 60/60/83 62/62/85
f 61/61/84 62/62/85 63/63/86
f 63/63/86 62/62/85 64/64/87
f 58/58/81 65/65/88 57/57/82
f 65/65/88 58/58/81 66/66/89
f 55/55/90 68/68/91 67/67/92
f 68/68/91 55/55/90 56/56/93
f 55/55/90 69/69/94 53/53/95
f 69/69/94 55/55/90 67/67/92
f 66/66/89 52/52/96 51/51/97
f 52/52/96 66/66/89 70/70/98
f 53/53/95 71/71/99 50/50/100
f 71/71/99 53/53/95 69/69/94
f 72/72/101 52/52/96 70/70/98
f 52/52/96 72/72/101 54/54/102
f 68/68/91 54/54/102 72/72/101
f 54/54/102 68/68/91 56/56/93
f 50/50/100 65/65/88 49/49/103
f 65/65/88 50/50/100 71/71/99
f 65/65/88 51/51/97 49/49/103
f 51/51/97 65/65/88 66/66/89
f 68/68/91 62/62/85 67/67/92
f 62/62/85 68/68/91 64/64/87
f 68/68/91 63/63/86 64/64/87
f 63/63/86 68/68/91 72/72/101
f 62/62/85 69/69/94 67/67/92
f 69/69/94 62/62/85 60/60/83
f 61/61/84 72/72/101 70/70/98
f 72/72/101 61/61/84 63/63/86
f 59/59/80 65/65/88 71/71/99
f 65/65/88 59/59/80 57/57/82
f 58/58/81 70/70/98 66/66/89
f 70/70/98 58/58/81 61/61/84
f 60/60/83 71/71/99 69/69/94
f 71/71/99 60/60/83 59/59/80
