# Blender 3.3.1
# www.blender.org
o snow-flat-large
v 0.423923 0.252908 0.000000
v 0.381531 0.227617 0.030000
v 0.390987 0.329922 0.000000
v 0.351888 0.296930 0.030000
v 0.464178 -0.023128 -0.000000
v 0.376714 0.087558 0.000000
v 0.447758 -0.163242 -0.000000
v 0.381259 -0.231661 -0.000000
v 0.289460 -0.257665 -0.000000
v 0.351410 0.127799 0.000000
v 0.327423 0.359388 0.000000
v 0.381522 0.166336 0.000000
v 0.205442 0.335522 0.000000
v 0.254927 -0.282771 -0.000000
v 0.179250 -0.361816 -0.000000
v 0.086545 0.362167 0.000000
v 0.073446 -0.362167 -0.000000
v -0.063356 0.332356 0.000000
v -0.010324 -0.324611 -0.000000
v -0.127243 -0.338416 -0.000000
v -0.151377 0.259317 0.000000
v -0.209807 -0.304004 -0.000000
v -0.248735 0.200009 0.000000
v -0.264103 -0.232921 -0.000000
v -0.355461 0.180656 0.000000
v -0.298242 -0.183108 -0.000000
v -0.355461 -0.149330 -0.000000
v -0.414489 -0.111707 -0.000000
v -0.443115 0.105727 0.000000
v -0.464178 -0.007647 -0.000000
v -0.114519 -0.304574 0.030000
v -0.188826 -0.273603 0.030000
v 0.402982 -0.146918 0.030000
v 0.343133 -0.208495 0.030000
v 0.343370 0.149702 0.030000
v 0.260514 -0.231898 0.030000
v 0.229434 -0.254494 0.030000
v -0.057020 0.299120 0.030000
v -0.136239 0.233385 0.030000
v 0.161325 -0.325634 0.030000
v 0.077890 0.325950 0.030000
v 0.066101 -0.325950 0.030000
v -0.009292 -0.292150 0.030000
v -0.237693 -0.209629 0.030000
v -0.268418 -0.164797 0.030000
v 0.294681 0.323449 0.030000
v 0.417761 -0.020815 0.030000
v 0.339043 0.078802 0.030000
v 0.184898 0.301969 0.030000
v 0.316269 0.115019 0.030000
v -0.319915 -0.134397 0.030000
v -0.373040 -0.100536 0.030000
v -0.417761 -0.006883 0.030000
v -0.319915 0.162591 0.030000
v -0.398803 0.095154 0.030000
v -0.223862 0.180008 0.030000
vn 0.3672 0.3488 0.8622
vn 0.6232 -0.1299 0.7712
vn 0.5614 0.0396 0.8266
vn 0.3572 0.3603 0.8617
vn -0.0000 -0.0000 -1.0000
vn -0.3895 -0.4967 0.7757
vn -0.1041 -0.6376 0.7633
vn -0.0684 -0.6473 0.7592
vn -0.3823 -0.5018 0.7759
vn 0.4783 -0.2404 0.8447
vn 0.3326 -0.4934 0.8037
vn 0.4852 -0.2230 0.8455
vn 0.2751 -0.5596 0.7818
vn 0.6685 -0.3770 0.6411
vn 0.5613 0.0396 0.8266
vn 0.6636 -0.4644 0.5865
vn 0.2959 -0.5646 0.7705
vn 0.4068 -0.4665 0.7854
vn 0.2604 -0.5938 0.7613
vn 0.4075 -0.4659 0.7854
vn -0.2739 0.6151 0.7393
vn -0.4098 0.5776 0.7060
vn -0.3140 0.6025 0.7338
vn -0.4133 0.5753 0.7058
vn 0.2399 -0.5464 0.8024
vn 0.2269 -0.5525 0.8020
vn -0.0094 0.6392 0.7690
vn 0.0202 0.6349 0.7723
vn -0.3139 0.6025 0.7338
vn 0.2269 -0.5526 0.8020
vn -0.1126 -0.6473 0.7539
vn 0.2399 -0.5465 0.8024
vn -0.1715 -0.6489 0.7413
vn -0.1156 -0.6722 0.7313
vn -0.1127 -0.6473 0.7539
vn -0.0945 -0.6741 0.7326
vn -0.4637 -0.4726 0.7494
vn -0.5262 -0.3819 0.7598
vn -0.5272 -0.3807 0.7597
vn -0.4398 -0.5028 0.7441
vn 0.1177 0.5710 0.8125
vn 0.3572 0.3603 0.8618
vn 0.3672 0.3489 0.8622
vn -0.0059 0.6440 0.7650
vn 0.5218 0.3771 0.7652
vn 0.5382 0.2087 0.8166
vn 0.5430 0.1241 0.8305
vn 0.5268 0.3644 0.7679
vn 0.4783 -0.2405 0.8447
vn 0.0402 0.6522 0.7570
vn -0.0338 0.6776 0.7347
vn -0.3894 -0.4967 0.7757
vn -0.5263 -0.3819 0.7598
vn 0.6743 -0.1636 0.7201
vn 0.5218 0.3770 0.7652
vn 0.6451 0.0192 0.7638
vn 0.0203 0.6349 0.7723
vn -0.4378 -0.4562 0.7747
vn -0.3641 -0.5866 0.7234
vn -0.3594 -0.5927 0.7208
vn -0.4747 -0.3759 0.7958
vn -0.5398 -0.0849 0.8375
vn -0.4747 -0.3760 0.7958
vn -0.4378 -0.4563 0.7747
vn -0.5399 -0.0849 0.8375
vn -0.5410 -0.0628 0.8387
vn -0.3303 0.5829 0.7424
vn -0.4772 0.3211 0.8180
vn -0.2411 0.6782 0.6942
vn -0.4977 0.2609 0.8272
vn -0.4977 0.2609 0.8271
vn -0.2858 0.6709 0.6843
vn -0.4131 0.5748 0.7063
vn -0.2305 0.7105 0.6648
vn -0.2411 0.6783 0.6941
vn -0.2858 0.6709 0.6842
vn -0.0000 -0.0000 1.0000
vt 0.093750 0.025000
vt 0.093750 0.225000
vt 0.093750 0.025000
vt 0.093750 0.225000
vt 0.093750 0.025000
vt 0.093750 0.025000
vt 0.093750 0.025000
vt 0.093750 0.025000
vt 0.093750 0.025000
vt 0.093750 0.025000
vt 0.093750 0.025000
vt 0.093750 0.025000
vt 0.093750 0.025000
vt 0.093750 0.025000
vt 0.093750 0.025000
vt 0.093750 0.025000
vt 0.093750 0.025000
vt 0.093750 0.025000
vt 0.093750 0.025000
vt 0.093750 0.025000
vt 0.093750 0.025000
vt 0.093750 0.025000
vt 0.093750 0.025000
vt 0.093750 0.025000
vt 0.093750 0.025000
vt 0.093750 0.025000
vt 0.093750 0.025000
vt 0.093750 0.025000
vt 0.093750 0.025000
vt 0.093750 0.025000
vt 0.093750 0.225000
vt 0.093750 0.225000
vt 0.093750 0.225000
vt 0.093750 0.225000
vt 0.093750 0.225000
vt 0.093750 0.225000
vt 0.093750 0.225000
vt 0.093750 0.225000
vt 0.093750 0.225000
vt 0.093750 0.225000
vt 0.093750 0.225000
vt 0.093750 0.225000
vt 0.093750 0.225000
vt 0.093750 0.225000
vt 0.093750 0.225000
vt 0.093750 0.225000
vt 0.093750 0.225000
vt 0.093750 0.225000
vt 0.093750 0.225000
vt 0.093750 0.225000
vt 0.093750 0.225000
vt 0.093750 0.225000
vt 0.093750 0.225000
vt 0.093750 0.225000
vt 0.093750 0.225000
vt 0.093750 0.225000
s 0
f 3/3/1 2/2/2 1/1/3
f 2/2/2 3/3/1 4/4/4
f 7/7/5 6/6/5 5/5/5
f 6/6/5 7/7/5 8/8/5
f 6/6/5 8/8/5 9/9/5
f 6/6/5 9/9/5 10/10/5
f 10/10/5 9/9/5 11/11/5
f 11/11/5 12/12/5 10/10/5
f 3/3/5 12/12/5 11/11/5
f 12/12/5 3/3/5 1/1/5
f 11/11/5 9/9/5 13/13/5
f 13/13/5 9/9/5 14/14/5
f 13/13/5 14/14/5 15/15/5
f 13/13/5 15/15/5 16/16/5
f 16/16/5 15/15/5 17/17/5
f 16/16/5 17/17/5 18/18/5
f 18/18/5 17/17/5 19/19/5
f 18/18/5 19/19/5 20/20/5
f 18/18/5 20/20/5 21/21/5
f 21/21/5 20/20/5 22/22/5
f 21/21/5 22/22/5 23/23/5
f 23/23/5 22/22/5 24/24/5
f 23/23/5 24/24/5 25/25/5
f 25/25/5 24/24/5 26/26/5
f 25/25/5 26/26/5 27/27/5
f 25/25/5 27/27/5 28/28/5
f 25/25/5 28/28/5 29/29/5
f 29/29/5 28/28/5 30/30/5
f 32/32/6 20/20/7 31/31/8
f 20/20/7 32/32/6 22/22/9
f 33/33/10 8/8/11 7/7/12
f 8/8/11 33/33/10 34/34/13
f 2/2/2 12/12/14 1/1/15
f 12/12/14 2/2/2 35/35/16
f 36/36/17 14/14/18 9/9/19
f 14/14/18 36/36/17 37/37/20
f 18/18/21 39/39/22 38/38/23
f 39/39/22 18/18/21 21/21/24
f 37/37/20 15/15/25 14/14/18
f 15/15/25 37/37/20 40/40/26
f 34/34/13 9/9/19 8/8/11
f 9/9/19 34/34/13 36/36/17
f 18/18/21 41/41/27 16/16/28
f 41/41/27 18/18/21 38/38/29
f 40/40/30 17/17/31 15/15/32
f 17/17/31 40/40/26 42/42/33
f 42/42/33 19/19/34 17/17/35
f 19/19/34 42/42/33 43/43/36
f 45/45/37 24/24/38 44/44/39
f 24/24/38 45/45/37 26/26/40
f 11/11/41 4/4/42 3/3/43
f 4/4/4 11/11/41 46/46/44
f 6/6/45 47/47/46 5/5/47
f 47/47/46 6/6/45 48/48/48
f 47/47/46 7/7/12 5/5/47
f 7/7/12 47/47/46 33/33/49
f 49/49/50 11/11/41 13/13/51
f 11/11/41 49/49/50 46/46/44
f 44/44/39 22/22/9 32/32/52
f 22/22/9 44/44/39 24/24/53
f 10/10/54 48/48/48 6/6/55
f 48/48/48 10/10/54 50/50/56
f 16/16/57 49/49/50 13/13/51
f 49/49/50 16/16/57 41/41/27
f 52/52/58 27/27/59 51/51/60
f 27/27/59 52/52/58 28/28/61
f 53/53/62 28/28/63 52/52/64
f 28/28/63 53/53/65 30/30/66
f 31/31/8 19/19/34 43/43/36
f 19/19/34 31/31/8 20/20/7
f 51/51/60 26/26/40 45/45/37
f 26/26/40 51/51/60 27/27/59
f 25/25/67 55/55/68 54/54/69
f 55/55/68 25/25/67 29/29/70
f 29/29/71 53/53/65 55/55/68
f 53/53/65 29/29/71 30/30/66
f 35/35/16 10/10/54 12/12/14
f 10/10/54 35/35/16 50/50/56
f 21/21/24 56/56/72 39/39/22
f 56/56/72 21/21/73 23/23/74
f 54/54/75 23/23/74 25/25/67
f 23/23/74 54/54/75 56/56/76
f 4/4/77 35/35/77 2/2/77
f 35/35/77 4/4/77 46/46/77
f 35/35/77 46/46/77 50/50/77
f 36/36/77 50/50/77 46/46/77
f 36/36/77 46/46/77 49/49/77
f 36/36/77 48/48/77 50/50/77
f 36/36/77 49/49/77 37/37/77
f 34/34/77 48/48/77 36/36/77
f 33/33/77 48/48/77 34/34/77
f 48/48/77 33/33/77 47/47/77
f 37/37/77 49/49/77 40/40/77
f 40/40/77 49/49/77 41/41/77
f 40/40/77 41/41/77 42/42/77
f 42/42/77 41/41/77 38/38/77
f 42/42/77 38/38/77 43/43/77
f 43/43/77 38/38/77 31/31/77
f 31/31/77 38/38/77 39/39/77
f 31/31/77 39/39/77 32/32/77
f 32/32/77 39/39/77 56/56/77
f 32/32/77 56/56/77 44/44/77
f 44/44/77 56/56/77 54/54/77
f 44/44/77 54/54/77 45/45/77
f 45/45/77 54/54/77 51/51/77
f 51/51/77 54/54/77 55/55/77
f 51/51/77 55/55/77 52/52/77
f 52/52/77 55/55/77 53/53/77
f 3/3/1 2/2/2 1/1/3
f 2/2/2 3/3/1 4/4/4
f 7/7/5 6/6/5 5/5/5
f 6/6/5 7/7/5 8/8/5
f 6/6/5 8/8/5 9/9/5
f 6/6/5 9/9/5 10/10/5
f 10/10/5 9/9/5 11/11/5
f 11/11/5 12/12/5 10/10/5
f 3/3/5 12/12/5 11/11/5
f 12/12/5 3/3/5 1/1/5
f 11/11/5 9/9/5 13/13/5
f 13/13/5 9/9/5 14/14/5
f 13/13/5 14/14/5 15/15/5
f 13/13/5 15/15/5 16/16/5
f 16/16/5 15/15/5 17/17/5
f 16/16/5 17/17/5 18/18/5
f 18/18/5 17/17/5 19/19/5
f 18/18/5 19/19/5 20/20/5
f 18/18/5 20/20/5 21/21/5
f 21/21/5 20/20/5 22/22/5
f 21/21/5 22/22/5 23/23/5
f 23/23/5 22/22/5 24/24/5
f 23/23/5 24/24/5 25/25/5
f 25/25/5 24/24/5 26/26/5
f 25/25/5 26/26/5 27/27/5
f 25/25/5 27/27/5 28/28/5
f 25/25/5 28/28/5 29/29/5
f 29/29/5 28/28/5 30/30/5
f 32/32/6 20/20/7 31/31/8
f 20/20/7 32/32/6 22/22/9
f 33/33/10 8/8/11 7/7/12
f 8/8/11 33/33/10 34/34/13
f 2/2/2 12/12/14 1/1/15
f 12/12/14 2/2/2 35/35/16
f 36/36/17 14/14/18 9/9/19
f 14/14/18 36/36/17 37/37/20
f 18/18/21 39/39/22 38/38/23
f 39/39/22 18/18/21 21/21/24
f 37/37/20 15/15/25 14/14/18
f 15/15/25 37/37/20 40/40/26
f 34/34/13 9/9/19 8/8/11
f 9/9/19 34/34/13 36/36/17
f 18/18/21 41/41/27 16/16/28
f 41/41/27 18/18/21 38/38/29
f 40/40/30 17/17/31 15/15/32
f 17/17/31 40/40/26 42/42/33
f 42/42/33 19/19/34 17/17/35
f 19/19/34 42/42/33 43/43/36
f 45/45/37 24/24/38 44/44/39
f 24/24/38 45/45/37 26/26/40
f 11/11/41 4/4/42 3/3/43
f 4/4/4 11/11/41 46/46/44
f 6/6/45 47/47/46 5/5/47
f 47/47/46 6/6/45 48/48/48
f 47/47/46 7/7/12 5/5/47
f 7/7/12 47/47/46 33/33/49
f 49/49/50 11/11/41 13/13/51
f 11/11/41 49/49/50 46/46/44
f 44/44/39 22/22/9 32/32/52
f 22/22/9 44/44/39 24/24/53
f 10/10/54 48/48/48 6/6/55
f 48/48/48 10/10/54 50/50/56
f 16/16/57 49/49/50 13/13/51
f 49/49/50 16/16/57 41/41/27
f 52/52/58 27/27/59 51/51/60
f 27/27/59 52/52/58 28/28/61
f 53/53/62 28/28/63 52/52/64
f 28/28/63 53/53/65 30/30/66
f 31/31/8 19/19/34 43/43/36
f 19/19/34 31/31/8 20/20/7
f 51/51/60 26/26/40 45/45/37
f 26/26/40 51/51/60 27/27/59
f 25/25/67 55/55/68 54/54/69
f 55/55/68 25/25/67 29/29/70
f 29/29/71 53/53/65 55/55/68
f 53/53/65 29/29/71 30/30/66
f 35/35/16 10/10/54 12/12/14
f 10/10/54 35/35/16 50/50/56
f 21/21/24 56/56/72 39/39/22
f 56/56/72 21/21/73 23/23/74
f 54/54/75 23/23/74 25/25/67
f 23/23/74 54/54/75 56/56/76
f 4/4/77 35/35/77 2/2/77
f 35/35/77 4/4/77 46/46/77
f 35/35/77 46/46/77 50/50/77
f 36/36/77 50/50/77 46/46/77
f 36/36/77 46/46/77 49/49/77
f 36/36/77 48/48/77 50/50/77
f 36/36/77 49/49/77 37/37/77
f 34/34/77 48/48/77 36/36/77
f 33/33/77 48/48/77 34/34/77
f 48/48/77 33/33/77 47/47/77
f 37/37/77 49/49/77 40/40/77
f 40/40/77 49/49/77 41/41/77
f 40/40/77 41/41/77 42/42/77
f 42/42/77 41/41/77 38/38/77
f 42/42/77 38/38/77 43/43/77
f 43/43/77 38/38/77 31/31/77
f 31/31/77 38/38/77 39/39/77
f 31/31/77 39/39/77 32/32/77
f 32/32/77 39/39/77 56/56/77
f 32/32/77 56/56/77 44/44/77
f 44/44/77 56/56/77 54/54/77
f 44/44/77 54/54/77 45/45/77
f 45/45/77 54/54/77 51/51/77
f 51/51/77 54/54/77 55/55/77
f 51/51/77 55/55/77 52/52/77
f 52/52/77 55/55/77 53/53/77
