# Blender 3.3.1
# www.blender.org
o snowflake-b
v -0.016071 0.001125 0.015670
v -0.016071 0.001125 0.010000
v -0.016071 -0.001500 0.015670
v -0.016071 -0.001500 0.010000
v -0.002500 0.001125 0.032165
v -0.000000 0.001125 0.027835
v -0.002500 -0.001500 0.032165
v -0.000000 -0.001500 0.027835
v -0.012535 0.001125 0.006464
v -0.012535 -0.001500 0.006464
v -0.016071 -0.001500 0.002929
v -0.016071 0.001125 0.002929
v -0.016071 0.001125 0.000000
v -0.016071 -0.001500 -0.000000
v -0.003831 0.001125 0.018459
v -0.003831 -0.001500 0.018459
v -0.008660 0.001125 0.017165
v -0.008660 -0.001500 0.017165
v -0.021071 0.001125 0.010000
v -0.021071 -0.001500 0.010000
v -0.024606 0.001125 0.006464
v -0.024606 -0.001500 0.006464
v -0.021071 0.001125 0.002929
v -0.021071 -0.001500 0.002929
v -0.021071 0.001125 0.015670
v -0.021071 -0.001500 0.015670
v -0.025981 -0.001500 0.012835
v -0.025981 0.001125 0.012835
v -0.012535 -0.001500 0.033536
v -0.012535 0.001125 0.033536
v -0.016071 -0.001500 0.030000
v -0.016071 0.001125 0.030000
v -0.032104 -0.001500 0.009299
v -0.032104 0.001125 0.009299
v -0.034641 -0.001500 0.007835
v -0.034641 0.001125 0.007835
v -0.037141 0.001125 0.012165
v -0.037141 -0.001500 0.012165
v -0.013571 0.001125 0.020000
v -0.013571 -0.001500 0.020000
v -0.027275 0.001125 0.008005
v -0.027275 -0.001500 0.008005
v -0.016071 0.001125 0.037071
v -0.016071 -0.001500 0.037071
v -0.034604 0.001125 0.013630
v -0.034604 -0.001500 0.013630
v -0.028481 0.001125 0.017165
v -0.028481 -0.001500 0.017165
v -0.033310 0.001125 0.018459
v -0.033310 -0.001500 0.018459
v -0.028481 -0.001500 0.022835
v -0.028481 0.001125 0.022835
v -0.033310 -0.001500 0.021541
v -0.033310 0.001125 0.021541
v -0.027275 0.001125 0.031995
v -0.025981 0.001125 0.027165
v -0.027275 -0.001500 0.031995
v -0.025981 -0.001500 0.027165
v -0.002500 -0.001500 0.007835
v -0.002500 0.001125 0.007835
v -0.005037 -0.001500 0.009299
v -0.005037 0.001125 0.009299
v -0.034641 0.001125 0.032165
v -0.034641 -0.001500 0.032165
v -0.037141 0.001125 0.027835
v -0.037141 -0.001500 0.027835
v -0.005037 0.001125 0.030701
v -0.005037 -0.001500 0.030701
v -0.011160 -0.001500 0.012835
v -0.011160 0.001125 0.012835
v -0.002537 0.001125 0.013630
v -0.002537 -0.001500 0.013630
v -0.021071 0.001125 0.000000
v -0.021071 -0.001500 -0.000000
v -0.032104 0.001125 0.030701
v -0.032104 -0.001500 0.030701
v -0.003831 -0.001500 0.021541
v -0.003831 0.001125 0.021541
v -0.008660 -0.001500 0.022835
v -0.008660 0.001125 0.022835
v -0.021071 0.001125 0.037071
v -0.021071 -0.001500 0.037071
v -0.024606 0.001125 0.033536
v -0.024606 -0.001500 0.033536
v -0.009866 -0.001500 0.008005
v -0.009866 0.001125 0.008005
v 0.000000 0.001125 0.012165
v 0.000000 -0.001500 0.012165
v -0.023571 -0.001500 0.020000
v -0.023571 0.001125 0.020000
v -0.021071 0.001125 0.030000
v -0.021071 -0.001500 0.030000
v -0.016071 0.001125 0.040000
v -0.016071 -0.001500 0.040000
v -0.021071 0.001125 0.040000
v -0.021071 -0.001500 0.040000
v -0.009866 0.001125 0.031995
v -0.009866 -0.001500 0.031995
v -0.021071 0.001125 0.024330
v -0.021071 -0.001500 0.024330
v -0.016071 0.001125 0.024330
v -0.016071 -0.001500 0.024330
v -0.011160 0.001125 0.027165
v -0.011160 -0.001500 0.027165
v -0.034604 -0.001500 0.026370
v -0.034604 0.001125 0.026370
v -0.002537 -0.001500 0.026370
v -0.002537 0.001125 0.026370
vn 1.0000 -0.0000 -0.0000
vn 0.9239 -0.0000 0.3827
vn 0.9239 -0.0001 0.3827
vn 0.8660 -0.0000 0.5000
vn 0.9239 0.0001 0.3827
vn 1.0000 0.0002 -0.0000
vn 1.0000 0.0001 -0.0000
vn 0.9239 -0.0000 -0.3827
vn 1.0000 0.0008 -0.0000
vn 0.9239 0.0001 -0.3827
vn 0.1305 -0.0000 0.9914
vn 0.5000 -0.0002 0.8660
vn 0.5000 -0.0001 0.8660
vn 0.5000 -0.0000 0.8660
vn 0.1305 -0.0001 0.9914
vn -1.0000 -0.0000 -0.0000
vn -0.9239 0.0001 0.3827
vn -0.9239 -0.0000 0.3827
vn -1.0000 0.0002 -0.0000
vn -1.0000 0.0001 -0.0000
vn -0.9239 0.0001 -0.3827
vn -0.9239 -0.0000 -0.3827
vn -0.9239 -0.0001 0.3827
vn 0.7934 -0.0000 -0.6088
vn 0.5000 -0.0000 -0.8660
vn 0.7934 0.0001 -0.6088
vn 0.1305 -0.0000 -0.9914
vn -0.8660 -0.0000 -0.5000
vn 0.1305 0.0001 0.9914
vn 0.7933 0.0001 -0.6088
vn 0.5000 -0.0008 -0.8660
vn 0.7933 -0.0000 -0.6088
vn 0.5000 0.0002 -0.8660
vn 0.5000 0.0001 -0.8660
vn 0.5000 0.0008 -0.8660
vn 0.1305 0.0001 -0.9914
vn -0.5000 -0.0000 0.8660
vn -0.7934 -0.0000 0.6088
vn -0.1305 0.0001 0.9914
vn -0.1305 -0.0000 0.9914
vn -0.5000 0.0002 0.8660
vn -0.5000 0.0001 0.8660
vn -0.5000 -0.0000 -0.8660
vn -0.1305 -0.0001 -0.9914
vn -0.1305 -0.0000 -0.9914
vn -0.5000 -0.0002 -0.8660
vn -0.5000 -0.0001 -0.8660
vn 0.7933 -0.0000 0.6088
vn 0.7933 -0.0001 0.6088
vn -0.7933 -0.0000 0.6088
vn -0.5000 -0.0002 0.8660
vn -0.5000 -0.0001 0.8660
vn -0.7933 -0.0001 0.6088
vn -0.8660 -0.0000 0.5000
vn -0.7934 -0.0001 -0.6088
vn -0.7934 -0.0000 -0.6088
vn 0.8660 -0.0000 -0.5000
vn -0.1305 0.0001 -0.9914
vn -0.0000 -0.0000 -1.0000
vn -1.0000 -0.0002 -0.0000
vn -1.0000 -0.0001 -0.0000
vn -0.9239 -0.0001 -0.3827
vn -0.0000 -0.0000 1.0000
vn -0.5000 0.0008 0.8660
vn 0.7934 -0.0000 0.6088
vn 0.7934 -0.0001 0.6088
vn -0.5000 -0.0008 0.8660
vn -0.7933 -0.0000 -0.6088
vn -0.7933 -0.0001 -0.6088
vn -0.7934 0.0001 0.6088
vn -0.1305 -0.0001 0.9914
vn 0.1305 -0.0001 -0.9914
vn -0.0000 1.0000 -0.0000
vn -0.0000 -1.0000 -0.0000
vt 0.218750 0.603349
vt 0.093750 0.103349
vt 0.218750 0.575000
vt 0.093750 0.075000
vt 0.218750 0.603349
vt 0.093750 0.103349
vt 0.218750 0.575000
vt 0.093750 0.075000
vt 0.218750 0.685825
vt 0.093750 0.185825
vt 0.218750 0.664175
vt 0.093750 0.164175
vt 0.218750 0.685825
vt 0.093750 0.185825
vt 0.218750 0.664175
vt 0.093750 0.164175
vt 0.218750 0.557322
vt 0.093750 0.057322
vt 0.218750 0.557322
vt 0.093750 0.057322
vt 0.218750 0.539645
vt 0.093750 0.039645
vt 0.218750 0.539645
vt 0.093750 0.039645
vt 0.218750 0.525000
vt 0.093750 0.025000
vt 0.218750 0.525000
vt 0.093750 0.025000
vt 0.218750 0.617296
vt 0.093750 0.117296
vt 0.218750 0.617296
vt 0.093750 0.117296
vt 0.218750 0.610825
vt 0.093750 0.110825
vt 0.218750 0.610825
vt 0.093750 0.110825
vt 0.218750 0.575000
vt 0.093750 0.075000
vt 0.218750 0.575000
vt 0.093750 0.075000
vt 0.218750 0.557322
vt 0.093750 0.057322
vt 0.218750 0.557322
vt 0.093750 0.057322
vt 0.218750 0.539645
vt 0.093750 0.039645
vt 0.218750 0.539645
vt 0.093750 0.039645
vt 0.218750 0.603349
vt 0.093750 0.103349
vt 0.218750 0.603349
vt 0.093750 0.103349
vt 0.218750 0.589175
vt 0.093750 0.089175
vt 0.218750 0.589175
vt 0.093750 0.089175
vt 0.218750 0.692678
vt 0.093750 0.192678
vt 0.218750 0.692678
vt 0.093750 0.192678
vt 0.218750 0.675000
vt 0.093750 0.175000
vt 0.218750 0.675000
vt 0.093750 0.175000
vt 0.218750 0.571497
vt 0.093750 0.071497
vt 0.218750 0.571497
vt 0.093750 0.071497
vt 0.218750 0.564175
vt 0.093750 0.064175
vt 0.218750 0.564175
vt 0.093750 0.064175
vt 0.218750 0.585825
vt 0.093750 0.085825
vt 0.218750 0.585825
vt 0.093750 0.085825
vt 0.218750 0.625000
vt 0.093750 0.125000
vt 0.218750 0.625000
vt 0.093750 0.125000
vt 0.218750 0.565027
vt 0.093750 0.065027
vt 0.218750 0.565027
vt 0.093750 0.065027
vt 0.218750 0.710355
vt 0.093750 0.210355
vt 0.218750 0.710355
vt 0.093750 0.210355
vt 0.218750 0.593148
vt 0.093750 0.093148
vt 0.218750 0.593148
vt 0.093750 0.093148
vt 0.218750 0.610825
vt 0.093750 0.110825
vt 0.218750 0.610825
vt 0.093750 0.110825
vt 0.218750 0.617296
vt 0.093750 0.117296
vt 0.218750 0.617296
vt 0.093750 0.117296
vt 0.218750 0.639175
vt 0.093750 0.139175
vt 0.218750 0.639175
vt 0.093750 0.139175
vt 0.218750 0.632704
vt 0.093750 0.132704
vt 0.218750 0.632704
vt 0.093750 0.132704
vt 0.218750 0.684973
vt 0.093750 0.184973
vt 0.218750 0.660825
vt 0.093750 0.160825
vt 0.218750 0.684973
vt 0.093750 0.184973
vt 0.218750 0.660825
vt 0.093750 0.160825
vt 0.218750 0.564175
vt 0.093750 0.064175
vt 0.218750 0.564175
vt 0.093750 0.064175
vt 0.218750 0.571497
vt 0.093750 0.071497
vt 0.218750 0.571497
vt 0.093750 0.071497
vt 0.218750 0.685825
vt 0.093750 0.185825
vt 0.218750 0.685825
vt 0.093750 0.185825
vt 0.218750 0.664175
vt 0.093750 0.164175
vt 0.218750 0.664175
vt 0.093750 0.164175
vt 0.218750 0.678503
vt 0.093750 0.178503
vt 0.218750 0.678503
vt 0.093750 0.178503
vt 0.218750 0.589175
vt 0.093750 0.089175
vt 0.218750 0.589175
vt 0.093750 0.089175
vt 0.218750 0.593148
vt 0.093750 0.093148
vt 0.218750 0.593148
vt 0.093750 0.093148
vt 0.218750 0.525000
vt 0.093750 0.025000
vt 0.218750 0.525000
vt 0.093750 0.025000
vt 0.218750 0.678503
vt 0.093750 0.178503
vt 0.218750 0.678503
vt 0.093750 0.178503
vt 0.218750 0.632704
vt 0.093750 0.132704
vt 0.218750 0.632704
vt 0.093750 0.132704
vt 0.218750 0.639175
vt 0.093750 0.139175
vt 0.218750 0.639175
vt 0.093750 0.139175
vt 0.218750 0.710355
vt 0.093750 0.210355
vt 0.218750 0.710355
vt 0.093750 0.210355
vt 0.218750 0.692678
vt 0.093750 0.192678
vt 0.218750 0.692678
vt 0.093750 0.192678
vt 0.218750 0.565027
vt 0.093750 0.065027
vt 0.218750 0.565027
vt 0.093750 0.065027
vt 0.218750 0.585825
vt 0.093750 0.085825
vt 0.218750 0.585825
vt 0.093750 0.085825
vt 0.218750 0.625000
vt 0.093750 0.125000
vt 0.218750 0.625000
vt 0.093750 0.125000
vt 0.218750 0.675000
vt 0.093750 0.175000
vt 0.218750 0.675000
vt 0.093750 0.175000
vt 0.218750 0.725000
vt 0.093750 0.225000
vt 0.218750 0.725000
vt 0.093750 0.225000
vt 0.218750 0.725000
vt 0.093750 0.225000
vt 0.218750 0.725000
vt 0.093750 0.225000
vt 0.218750 0.684973
vt 0.093750 0.184973
vt 0.218750 0.684973
vt 0.093750 0.184973
vt 0.218750 0.646651
vt 0.093750 0.146651
vt 0.218750 0.646651
vt 0.093750 0.146651
vt 0.218750 0.646651
vt 0.093750 0.146651
vt 0.218750 0.646651
vt 0.093750 0.146651
vt 0.218750 0.660825
vt 0.093750 0.160825
vt 0.218750 0.660825
vt 0.093750 0.160825
vt 0.218750 0.656852
vt 0.093750 0.156852
vt 0.218750 0.656852
vt 0.093750 0.156852
vt 0.218750 0.656852
vt 0.093750 0.156852
vt 0.218750 0.656852
vt 0.093750 0.156852
s 0
f 3/5/1 2/3/2 1/1/1
f 2/3/3 3/5/1 4/7/2
f 7/13/4 6/11/4 5/9/4
f 6/11/4 7/13/4 8/15/4
f 4/7/5 9/17/1 2/3/2
f 9/17/6 4/7/2 10/19/7
f 11/21/8 9/17/6 10/19/9
f 9/17/1 11/21/10 12/23/8
f 11/21/8 13/25/1 12/23/8
f 13/25/1 11/21/8 14/27/1
f 17/33/11 16/31/12 15/29/13
f 16/31/14 17/33/15 18/35/11
f 21/41/16 20/39/17 19/37/18
f 20/39/18 21/41/19 22/43/20
f 24/47/21 21/41/16 23/45/22
f 21/41/19 24/47/22 22/43/20
f 19/37/18 26/51/16 25/49/16
f 26/51/16 19/37/23 20/39/18
f 27/53/24 25/49/25 26/51/25
f 25/49/25 27/53/26 28/55/24
f 31/61/8 30/59/6 29/57/9
f 30/59/1 31/61/10 32/63/8
f 35/69/25 34/67/27 33/65/27
f 34/67/27 35/69/25 36/71/25
f 35/69/28 37/73/28 36/71/28
f 37/73/28 35/69/28 38/75/28
f 39/77/14 18/35/29 17/33/11
f 18/35/11 39/77/14 40/79/14
f 27/53/30 41/81/31 28/55/32
f 41/81/33 27/53/32 42/83/34
f 33/65/27 41/81/33 42/83/35
f 41/81/25 33/65/36 34/67/27
f 44/87/5 30/59/1 43/85/2
f 30/59/6 44/87/2 29/57/7
f 37/73/37 46/91/38 45/89/38
f 46/91/38 37/73/37 38/75/37
f 49/97/37 48/95/39 47/93/40
f 48/95/40 49/97/41 50/99/42
f 53/105/43 52/103/44 51/101/45
f 52/103/45 53/105/46 54/107/47
f 57/113/12 56/111/48 55/109/13
f 56/111/49 57/113/14 58/115/48
f 45/89/50 50/99/51 49/97/52
f 50/99/37 45/89/53 46/91/50
f 61/121/45 60/119/43 59/117/43
f 60/119/43 61/121/45 62/123/45
f 65/129/54 64/127/54 63/125/54
f 64/127/54 65/129/54 66/131/54
f 67/133/40 7/13/37 5/9/37
f 7/13/37 67/133/40 68/135/40
f 3/5/43 70/139/55 69/137/56
f 70/139/56 3/5/43 1/1/43
f 16/31/12 71/141/48 15/29/13
f 71/141/49 16/31/14 72/143/48
f 74/147/16 23/45/22 73/145/16
f 23/45/22 74/147/16 24/47/22
f 75/149/11 57/113/12 55/109/13
f 57/113/14 75/149/15 76/151/11
f 79/157/27 78/155/33 77/153/34
f 78/155/25 79/157/36 80/159/27
f 83/165/16 82/163/17 81/161/18
f 82/163/18 83/165/19 84/167/20
f 85/169/43 62/123/44 61/121/45
f 62/123/45 85/169/46 86/171/47
f 88/175/57 60/119/57 87/173/57
f 60/119/57 88/175/57 59/117/57
f 51/101/45 90/179/43 89/177/43
f 90/179/43 51/101/58 52/103/45
f 74/147/59 13/25/59 14/27/59
f 13/25/59 74/147/59 73/145/59
f 91/181/22 84/167/60 83/165/61
f 84/167/16 91/181/62 92/183/22
f 95/189/63 94/187/63 93/185/63
f 94/187/63 95/189/63 96/191/63
f 97/193/37 68/135/39 67/133/40
f 68/135/40 97/193/41 98/195/64
f 56/111/65 100/199/14 99/197/14
f 100/199/14 56/111/66 58/115/65
f 31/61/10 101/201/1 32/63/8
f 101/201/1 31/61/8 102/203/1
f 71/141/65 88/175/14 87/173/14
f 88/175/14 71/141/65 72/143/65
f 63/125/14 76/151/11 75/149/11
f 76/151/11 63/125/14 64/127/14
f 103/205/50 98/195/51 97/193/67
f 98/195/37 103/205/53 104/207/50
f 100/199/16 91/181/22 99/197/16
f 91/181/62 100/199/16 92/183/22
f 66/131/43 106/211/56 105/209/56
f 106/211/56 66/131/43 65/129/43
f 85/169/46 70/139/68 86/171/47
f 70/139/69 85/169/43 69/137/68
f 81/161/18 96/191/16 95/189/16
f 96/191/16 81/161/18 82/163/18
f 107/213/24 6/11/25 8/15/25
f 6/11/25 107/213/24 108/215/24
f 94/187/1 43/85/2 93/185/1
f 43/85/2 94/187/1 44/87/2
f 101/201/37 104/207/70 103/205/38
f 104/207/38 101/201/37 102/203/37
f 47/93/40 89/177/37 90/179/37
f 89/177/37 47/93/71 48/95/40
f 40/79/25 80/159/72 79/157/27
f 80/159/27 40/79/25 39/77/25
f 107/213/30 78/155/25 108/215/32
f 78/155/33 107/213/32 77/153/34
f 53/105/46 106/211/68 54/107/47
f 106/211/69 53/105/43 105/209/68
f 37/74/73 34/68/73 36/72/73
f 28/56/73 34/68/73 37/74/73
f 34/68/73 28/56/73 41/82/73
f 28/56/73 37/74/73 45/90/73
f 28/56/73 45/90/73 25/50/73
f 25/50/73 45/90/73 47/94/73
f 47/94/73 45/90/73 49/98/73
f 25/50/73 47/94/73 1/2/73
f 17/34/73 1/2/73 47/94/73
f 90/180/73 17/34/73 47/94/73
f 17/34/73 90/180/73 39/78/73
f 39/78/73 90/180/73 52/104/73
f 39/78/73 52/104/73 80/160/73
f 2/4/73 25/50/73 1/2/73
f 2/4/73 19/38/73 25/50/73
f 2/4/73 21/42/73 19/38/73
f 9/18/73 21/42/73 2/4/73
f 12/24/73 21/42/73 9/18/73
f 12/24/73 23/46/73 21/42/73
f 13/26/73 23/46/73 12/24/73
f 23/46/73 13/26/73 73/146/73
f 71/142/73 1/2/73 17/34/73
f 71/142/73 17/34/73 15/30/73
f 71/142/73 70/140/73 1/2/73
f 87/174/73 70/140/73 71/142/73
f 62/124/73 70/140/73 87/174/73
f 87/174/73 60/120/73 62/124/73
f 70/140/73 62/124/73 86/172/73
f 63/126/73 75/150/73 65/130/73
f 55/110/73 65/130/73 75/150/73
f 56/112/73 65/130/73 55/110/73
f 56/112/73 106/212/73 65/130/73
f 99/198/73 106/212/73 56/112/73
f 52/104/73 106/212/73 99/198/73
f 106/212/73 52/104/73 54/108/73
f 52/104/73 99/198/73 80/160/73
f 80/160/73 99/198/73 101/202/73
f 108/216/73 80/160/73 101/202/73
f 80/160/73 108/216/73 78/156/73
f 108/216/73 101/202/73 103/206/73
f 99/198/73 32/64/73 101/202/73
f 32/64/73 99/198/73 91/182/73
f 108/216/73 103/206/73 6/12/73
f 6/12/73 103/206/73 97/194/73
f 6/12/73 97/194/73 67/134/73
f 5/10/73 6/12/73 67/134/73
f 32/64/73 91/182/73 83/166/73
f 32/64/73 83/166/73 30/60/73
f 30/60/73 83/166/73 43/86/73
f 43/86/73 83/166/73 81/162/73
f 43/86/73 81/162/73 95/190/73
f 43/86/73 95/190/73 93/186/73
f 88/176/74 61/122/74 59/118/74
f 69/138/74 61/122/74 88/176/74
f 61/122/74 69/138/74 85/170/74
f 69/138/74 88/176/74 72/144/74
f 69/138/74 72/144/74 3/6/74
f 3/6/74 72/144/74 18/36/74
f 18/36/74 72/144/74 16/32/74
f 3/6/74 18/36/74 48/96/74
f 18/36/74 89/178/74 48/96/74
f 89/178/74 18/36/74 40/80/74
f 89/178/74 40/80/74 79/158/74
f 89/178/74 79/158/74 51/102/74
f 48/96/74 26/52/74 3/6/74
f 20/40/74 3/6/74 26/52/74
f 20/40/74 4/8/74 3/6/74
f 22/44/74 4/8/74 20/40/74
f 22/44/74 10/20/74 4/8/74
f 24/48/74 10/20/74 22/44/74
f 24/48/74 11/22/74 10/20/74
f 74/148/74 11/22/74 24/48/74
f 11/22/74 74/148/74 14/28/74
f 46/92/74 26/52/74 48/96/74
f 46/92/74 48/96/74 50/100/74
f 46/92/74 27/54/74 26/52/74
f 38/76/74 27/54/74 46/92/74
f 33/66/74 27/54/74 38/76/74
f 38/76/74 35/70/74 33/66/74
f 27/54/74 33/66/74 42/84/74
f 7/14/74 68/136/74 8/16/74
f 98/196/74 8/16/74 68/136/74
f 104/208/74 8/16/74 98/196/74
f 104/208/74 107/214/74 8/16/74
f 102/204/74 107/214/74 104/208/74
f 79/158/74 107/214/74 102/204/74
f 107/214/74 79/158/74 77/154/74
f 79/158/74 102/204/74 51/102/74
f 100/200/74 51/102/74 102/204/74
f 31/62/74 100/200/74 102/204/74
f 100/200/74 31/62/74 92/184/74
f 92/184/74 31/62/74 29/58/74
f 92/184/74 29/58/74 84/168/74
f 84/168/74 29/58/74 44/88/74
f 84/168/74 44/88/74 82/164/74
f 82/164/74 44/88/74 94/188/74
f 82/164/74 94/188/74 96/192/74
f 105/210/74 51/102/74 100/200/74
f 51/102/74 105/210/74 53/106/74
f 105/210/74 100/200/74 58/116/74
f 105/210/74 58/116/74 66/132/74
f 66/132/74 58/116/74 57/114/74
f 66/132/74 57/114/74 76/152/74
f 64/128/74 66/132/74 76/152/74
f 3/5/1 2/3/2 1/1/1
f 2/3/3 3/5/1 4/7/2
f 7/13/4 6/11/4 5/9/4
f 6/11/4 7/13/4 8/15/4
f 4/7/5 9/17/1 2/3/2
f 9/17/6 4/7/2 10/19/7
f 11/21/8 9/17/6 10/19/9
f 9/17/1 11/21/10 12/23/8
f 11/21/8 13/25/1 12/23/8
f 13/25/1 11/21/8 14/27/1
f 17/33/11 16/31/12 15/29/13
f 16/31/14 17/33/15 18/35/11
f 21/41/16 20/39/17 19/37/18
f 20/39/18 21/41/19 22/43/20
f 24/47/21 21/41/16 23/45/22
f 21/41/19 24/47/22 22/43/20
f 19/37/18 26/51/16 25/49/16
f 26/51/16 19/37/23 20/39/18
f 27/53/24 25/49/25 26/51/25
f 25/49/25 27/53/26 28/55/24
f 31/61/8 30/59/6 29/57/9
f 30/59/1 31/61/10 32/63/8
f 35/69/25 34/67/27 33/65/27
f 34/67/27 35/69/25 36/71/25
f 35/69/28 37/73/28 36/71/28
f 37/73/28 35/69/28 38/75/28
f 39/77/14 18/35/29 17/33/11
f 18/35/11 39/77/14 40/79/14
f 27/53/30 41/81/31 28/55/32
f 41/81/33 27/53/32 42/83/34
f 33/65/27 41/81/33 42/83/35
f 41/81/25 33/65/36 34/67/27
f 44/87/5 30/59/1 43/85/2
f 30/59/6 44/87/2 29/57/7
f 37/73/37 46/91/38 45/89/38
f 46/91/38 37/73/37 38/75/37
f 49/97/37 48/95/39 47/93/40
f 48/95/40 49/97/41 50/99/42
f 53/105/43 52/103/44 51/101/45
f 52/103/45 53/105/46 54/107/47
f 57/113/12 56/111/48 55/109/13
f 56/111/49 57/113/14 58/115/48
f 45/89/50 50/99/51 49/97/52
f 50/99/37 45/89/53 46/91/50
f 61/121/45 60/119/43 59/117/43
f 60/119/43 61/121/45 62/123/45
f 65/129/54 64/127/54 63/125/54
f 64/127/54 65/129/54 66/131/54
f 67/133/40 7/13/37 5/9/37
f 7/13/37 67/133/40 68/135/40
f 3/5/43 70/139/55 69/137/56
f 70/139/56 3/5/43 1/1/43
f 16/31/12 71/141/48 15/29/13
f 71/141/49 16/31/14 72/143/48
f 74/147/16 23/45/22 73/145/16
f 23/45/22 74/147/16 24/47/22
f 75/149/11 57/113/12 55/109/13
f 57/113/14 75/149/15 76/151/11
f 79/157/27 78/155/33 77/153/34
f 78/155/25 79/157/36 80/159/27
f 83/165/16 82/163/17 81/161/18
f 82/163/18 83/165/19 84/167/20
f 85/169/43 62/123/44 61/121/45
f 62/123/45 85/169/46 86/171/47
f 88/175/57 60/119/57 87/173/57
f 60/119/57 88/175/57 59/117/57
f 51/101/45 90/179/43 89/177/43
f 90/179/43 51/101/58 52/103/45
f 74/147/59 13/25/59 14/27/59
f 13/25/59 74/147/59 73/145/59
f 91/181/22 84/167/60 83/165/61
f 84/167/16 91/181/62 92/183/22
f 95/189/63 94/187/63 93/185/63
f 94/187/63 95/189/63 96/191/63
f 97/193/37 68/135/39 67/133/40
f 68/135/40 97/193/41 98/195/64
f 56/111/65 100/199/14 99/197/14
f 100/199/14 56/111/66 58/115/65
f 31/61/10 101/201/1 32/63/8
f 101/201/1 31/61/8 102/203/1
f 71/141/65 88/175/14 87/173/14
f 88/175/14 71/141/65 72/143/65
f 63/125/14 76/151/11 75/149/11
f 76/151/11 63/125/14 64/127/14
f 103/205/50 98/195/51 97/193/67
f 98/195/37 103/205/53 104/207/50
f 100/199/16 91/181/22 99/197/16
f 91/181/62 100/199/16 92/183/22
f 66/131/43 106/211/56 105/209/56
f 106/211/56 66/131/43 65/129/43
f 85/169/46 70/139/68 86/171/47
f 70/139/69 85/169/43 69/137/68
f 81/161/18 96/191/16 95/189/16
f 96/191/16 81/161/18 82/163/18
f 107/213/24 6/11/25 8/15/25
f 6/11/25 107/213/24 108/215/24
f 94/187/1 43/85/2 93/185/1
f 43/85/2 94/187/1 44/87/2
f 101/201/37 104/207/70 103/205/38
f 104/207/38 101/201/37 102/203/37
f 47/93/40 89/177/37 90/179/37
f 89/177/37 47/93/71 48/95/40
f 40/79/25 80/159/72 79/157/27
f 80/159/27 40/79/25 39/77/25
f 107/213/30 78/155/25 108/215/32
f 78/155/33 107/213/32 77/153/34
f 53/105/46 106/211/68 54/107/47
f 106/211/69 53/105/43 105/209/68
f 37/74/73 34/68/73 36/72/73
f 28/56/73 34/68/73 37/74/73
f 34/68/73 28/56/73 41/82/73
f 28/56/73 37/74/73 45/90/73
f 28/56/73 45/90/73 25/50/73
f 25/50/73 45/90/73 47/94/73
f 47/94/73 45/90/73 49/98/73
f 25/50/73 47/94/73 1/2/73
f 17/34/73 1/2/73 47/94/73
f 90/180/73 17/34/73 47/94/73
f 17/34/73 90/180/73 39/78/73
f 39/78/73 90/180/73 52/104/73
f 39/78/73 52/104/73 80/160/73
f 2/4/73 25/50/73 1/2/73
f 2/4/73 19/38/73 25/50/73
f 2/4/73 21/42/73 19/38/73
f 9/18/73 21/42/73 2/4/73
f 12/24/73 21/42/73 9/18/73
f 12/24/73 23/46/73 21/42/73
f 13/26/73 23/46/73 12/24/73
f 23/46/73 13/26/73 73/146/73
f 71/142/73 1/2/73 17/34/73
f 71/142/73 17/34/73 15/30/73
f 71/142/73 70/140/73 1/2/73
f 87/174/73 70/140/73 71/142/73
f 62/124/73 70/140/73 87/174/73
f 87/174/73 60/120/73 62/124/73
f 70/140/73 62/124/73 86/172/73
f 63/126/73 75/150/73 65/130/73
f 55/110/73 65/130/73 75/150/73
f 56/112/73 65/130/73 55/110/73
f 56/112/73 106/212/73 65/130/73
f 99/198/73 106/212/73 56/112/73
f 52/104/73 106/212/73 99/198/73
f 106/212/73 52/104/73 54/108/73
f 52/104/73 99/198/73 80/160/73
f 80/160/73 99/198/73 101/202/73
f 108/216/73 80/160/73 101/202/73
f 80/160/73 108/216/73 78/156/73
f 108/216/73 101/202/73 103/206/73
f 99/198/73 32/64/73 101/202/73
f 32/64/73 99/198/73 91/182/73
f 108/216/73 103/206/73 6/12/73
f 6/12/73 103/206/73 97/194/73
f 6/12/73 97/194/73 67/134/73
f 5/10/73 6/12/73 67/134/73
f 32/64/73 91/182/73 83/166/73
f 32/64/73 83/166/73 30/60/73
f 30/60/73 83/166/73 43/86/73
f 43/86/73 83/166/73 81/162/73
f 43/86/73 81/162/73 95/190/73
f 43/86/73 95/190/73 93/186/73
f 88/176/74 61/122/74 59/118/74
f 69/138/74 61/122/74 88/176/74
f 61/122/74 69/138/74 85/170/74
f 69/138/74 88/176/74 72/144/74
f 69/138/74 72/144/74 3/6/74
f 3/6/74 72/144/74 18/36/74
f 18/36/74 72/144/74 16/32/74
f 3/6/74 18/36/74 48/96/74
f 18/36/74 89/178/74 48/96/74
f 89/178/74 18/36/74 40/80/74
f 89/178/74 40/80/74 79/158/74
f 89/178/74 79/158/74 51/102/74
f 48/96/74 26/52/74 3/6/74
f 20/40/74 3/6/74 26/52/74
f 20/40/74 4/8/74 3/6/74
f 22/44/74 4/8/74 20/40/74
f 22/44/74 10/20/74 4/8/74
f 24/48/74 10/20/74 22/44/74
f 24/48/74 11/22/74 10/20/74
f 74/148/74 11/22/74 24/48/74
f 11/22/74 74/148/74 14/28/74
f 46/92/74 26/52/74 48/96/74
f 46/92/74 48/96/74 50/100/74
f 46/92/74 27/54/74 26/52/74
f 38/76/74 27/54/74 46/92/74
f 33/66/74 27/54/74 38/76/74
f 38/76/74 35/70/74 33/66/74
f 27/54/74 33/66/74 42/84/74
f 7/14/74 68/136/74 8/16/74
f 98/196/74 8/16/74 68/136/74
f 104/208/74 8/16/74 98/196/74
f 104/208/74 107/214/74 8/16/74
f 102/204/74 107/214/74 104/208/74
f 79/158/74 107/214/74 102/204/74
f 107/214/74 79/158/74 77/154/74
f 79/158/74 102/204/74 51/102/74
f 100/200/74 51/102/74 102/204/74
f 31/62/74 100/200/74 102/204/74
f 100/200/74 31/62/74 92/184/74
f 92/184/74 31/62/74 29/58/74
f 92/184/74 29/58/74 84/168/74
f 84/168/74 29/58/74 44/88/74
f 84/168/74 44/88/74 82/164/74
f 82/164/74 44/88/74 94/188/74
f 82/164/74 94/188/74 96/192/74
f 105/210/74 51/102/74 100/200/74
f 51/102/74 105/210/74 53/106/74
f 105/210/74 100/200/74 58/116/74
f 105/210/74 58/116/74 66/132/74
f 66/132/74 58/116/74 57/114/74
f 66/132/74 57/114/74 76/152/74
f 64/128/74 66/132/74 76/152/74
