# Blender 3.3.1
# www.blender.org
mtllib Trap_Spike.mtl
o trap-spikes.001
v -0.251404 0.131097 0.085000
v -0.131096 0.131097 0.085000
v -0.131096 0.251404 0.085000
v -0.251404 0.251404 0.085000
v 0.131096 0.125605 0.085000
v 0.251404 0.125605 0.085000
v 0.251404 0.245912 0.085000
v 0.131096 0.245912 0.085000
v -0.209597 0.172903 0.255000
v -0.209597 0.209597 0.255000
v -0.172903 0.209597 0.255000
v -0.172903 0.172903 0.255000
v 0.131096 -0.251404 0.085000
v 0.131096 -0.131096 0.085000
v 0.172903 -0.209597 0.255000
v 0.172903 -0.172903 0.255000
v 0.251404 -0.131096 0.085000
v 0.209597 -0.172903 0.255000
v 0.251404 -0.251404 0.085000
v 0.209597 -0.209597 0.255000
v 0.172903 0.167412 0.255000
v 0.172903 0.204106 0.255000
v 0.209597 0.204106 0.255000
v 0.209597 0.167412 0.255000
v -0.249703 -0.245912 0.085000
v -0.249703 -0.125605 0.085000
v -0.207896 -0.204106 0.255000
v -0.207896 -0.167412 0.255000
v -0.129396 -0.245912 0.085000
v -0.171203 -0.204106 0.255000
v -0.129396 -0.125605 0.085000
v -0.171203 -0.167412 0.255000
v -0.251404 0.131097 0.005000
v -0.131096 0.131097 0.005000
v -0.131096 0.251404 0.005000
v -0.251404 0.251404 0.005000
v 0.131096 0.125605 0.005000
v 0.251404 0.125605 0.005000
v 0.251404 0.245912 0.005000
v 0.131096 0.245912 0.005000
v 0.131096 -0.251404 0.005000
v 0.131096 -0.131096 0.005000
v 0.251404 -0.131096 0.005000
v 0.251404 -0.251404 0.005000
v -0.249703 -0.245912 0.005000
v -0.249703 -0.125605 0.005000
v -0.129396 -0.245912 0.005000
v -0.129396 -0.125605 0.005000
vn -0.6679 -0.6678 0.3285
vn -0.6679 0.6679 0.3285
vn -0.6679 -0.6679 0.3285
vn -0.6678 0.6679 0.3285
vn 0.6679 0.6679 0.3285
vn 0.6679 -0.6678 0.3285
vn 0.6679 -0.6679 0.3285
vn 0.6678 -0.6679 0.3285
vn -0.0000 -0.0000 1.0000
vn 0.7270 -0.1619 0.6673
vn 0.7270 0.6663 -0.1657
vn 0.7270 0.0294 0.6860
vn -0.7270 0.2545 0.6377
vn -0.7270 -0.6823 -0.0767
vn -0.7270 0.0510 0.6847
vn 0.3140 0.7270 0.6107
vn 0.5651 0.7270 0.3901
vn -0.6847 0.7270 0.0510
vn 0.2545 0.7270 0.6377
vn -0.6823 0.7270 -0.0767
vn 0.0510 0.7270 0.6847
vn -0.2545 -0.7270 0.6377
vn 0.6823 -0.7270 -0.0767
vn -0.0510 -0.7270 0.6847
vn 0.7270 0.3140 0.6107
vn 0.7270 -0.6847 0.0510
vn 0.7270 0.5651 0.3901
vn -0.7270 -0.2310 0.6466
vn -0.7270 0.6860 -0.0294
vn -0.7270 -0.5043 0.4660
vn -0.1619 0.7270 0.6673
vn 0.0294 0.7270 0.6860
vn 0.6663 0.7270 -0.1657
vn -0.2310 0.7270 0.6466
vn 0.6860 0.7270 -0.0294
vn -0.5043 0.7270 0.4660
vn 0.2310 -0.7270 0.6466
vn -0.6860 -0.7270 -0.0294
vn 0.5043 -0.7270 0.4660
vt 0.468750 0.091667
vt 0.468750 0.091667
vt 0.468750 0.091667
vt 0.468750 0.091667
vt 0.468750 0.091667
vt 0.468750 0.091667
vt 0.468750 0.091667
vt 0.468750 0.091667
vt 0.468750 0.225000
vt 0.468750 0.225000
vt 0.468750 0.225000
vt 0.468750 0.225000
vt 0.468750 0.091667
vt 0.468750 0.091667
vt 0.468750 0.225000
vt 0.468750 0.225000
vt 0.468750 0.091667
vt 0.468750 0.225000
vt 0.468750 0.091667
vt 0.468750 0.225000
vt 0.468750 0.225000
vt 0.468750 0.225000
vt 0.468750 0.225000
vt 0.468750 0.225000
vt 0.468750 0.091667
vt 0.468750 0.091667
vt 0.468750 0.225000
vt 0.468750 0.225000
vt 0.468750 0.091667
vt 0.468750 0.225000
vt 0.468750 0.091667
vt 0.468750 0.225000
vt 0.468750 0.091667
vt 0.468750 0.091667
vt 0.468750 0.091667
vt 0.468750 0.091667
vt 0.468750 0.091667
vt 0.468750 0.091667
vt 0.468750 0.091667
vt 0.468750 0.091667
vt 0.468750 0.091667
vt 0.468750 0.091667
vt 0.468750 0.091667
vt 0.468750 0.091667
vt 0.468750 0.091667
vt 0.468750 0.091667
vt 0.468750 0.091667
vt 0.468750 0.091667
s 0
usemtl colormap
f 9/9/1 4/4/2 1/1/3
f 4/4/2 9/9/3 10/10/2
f 10/10/4 3/3/5 4/4/2
f 3/3/5 10/10/2 11/11/5
f 3/3/5 12/12/6 2/2/7
f 12/12/7 3/3/5 11/11/5
f 12/12/8 1/1/3 2/2/7
f 1/1/3 12/12/7 9/9/3
f 12/12/9 10/10/9 9/9/9
f 10/10/9 12/12/9 11/11/9
f 15/15/1 14/14/2 13/13/3
f 14/14/2 15/15/3 16/16/2
f 16/16/4 17/17/5 14/14/2
f 17/17/5 16/16/2 18/18/5
f 20/20/8 13/13/3 19/19/7
f 13/13/3 20/20/7 15/15/3
f 17/17/5 20/20/6 19/19/7
f 20/20/7 17/17/5 18/18/5
f 20/20/9 16/16/9 15/15/9
f 16/16/9 20/20/9 18/18/9
f 21/21/1 8/8/2 5/5/3
f 8/8/2 21/21/3 22/22/2
f 22/22/4 7/7/5 8/8/2
f 7/7/5 22/22/2 23/23/5
f 24/24/9 22/22/9 21/21/9
f 22/22/9 24/24/9 23/23/9
f 24/24/8 5/5/3 6/6/7
f 5/5/3 24/24/7 21/21/3
f 7/7/5 24/24/6 6/6/7
f 24/24/7 7/7/5 23/23/5
f 27/27/1 26/26/2 25/25/3
f 26/26/2 27/27/3 28/28/2
f 30/30/8 25/25/3 29/29/7
f 25/25/3 30/30/7 27/27/3
f 28/28/4 31/31/5 26/26/2
f 31/31/5 28/28/2 32/32/5
f 30/30/9 28/28/9 27/27/9
f 28/28/9 30/30/9 32/32/9
f 31/31/5 30/30/6 29/29/7
f 30/30/7 31/31/5 32/32/5
f 6/6/10 39/39/11 7/7/12
f 26/26/13 45/45/14 25/25/15
f 8/8/16 39/39/17 40/40/18
f 14/14/16 43/43/17 42/42/18
f 31/31/19 46/46/20 26/26/21
f 25/25/22 47/47/23 29/29/24
f 1/1/22 34/34/23 2/2/24
f 4/4/13 33/33/14 1/1/15
f 14/14/13 41/41/14 13/13/15
f 5/5/22 38/38/23 6/6/24
f 29/29/10 48/48/11 31/31/12
f 19/19/10 43/43/11 17/17/12
f 8/8/13 37/37/14 5/5/15
f 2/2/10 35/35/11 3/3/12
f 13/13/22 44/44/23 19/19/24
f 4/4/16 35/35/17 36/36/18
f 6/6/25 38/38/26 39/39/27
f 26/26/28 46/46/29 45/45/30
f 8/8/31 7/7/32 39/39/33
f 14/14/31 17/17/32 43/43/33
f 31/31/34 48/48/35 46/46/36
f 25/25/37 45/45/38 47/47/39
f 1/1/37 33/33/38 34/34/39
f 4/4/28 36/36/29 33/33/30
f 14/14/28 42/42/29 41/41/30
f 5/5/37 37/37/38 38/38/39
f 29/29/25 47/47/26 48/48/27
f 19/19/25 44/44/26 43/43/27
f 8/8/28 40/40/29 37/37/30
f 2/2/25 34/34/26 35/35/27
f 13/13/37 41/41/38 44/44/39
f 4/4/31 3/3/32 35/35/33
