# Blender 3.3.1
# www.blender.org
mtllib Trap_Base.mtl
o trap-spikes
v -0.318750 0.063750 -0.000000
v -0.318750 0.318750 -0.000000
v -0.299625 0.082875 0.065000
v -0.299625 0.299625 0.065000
v -0.063750 0.318750 -0.000000
v -0.082875 0.299625 0.065000
v -0.063750 0.063750 -0.000000
v -0.082875 0.082875 0.065000
v -0.251404 0.131096 -0.000000
v -0.131096 0.131096 -0.000000
v -0.251404 0.131097 0.065000
v -0.131096 0.131097 0.065000
v -0.131096 0.251404 0.065000
v -0.131096 0.251404 -0.000000
v -0.251404 0.251404 -0.000000
v -0.251404 0.251404 0.065000
v -0.317050 -0.313259 -0.000000
v -0.317050 -0.058259 -0.000000
v -0.297925 -0.294134 0.065000
v -0.297925 -0.077384 0.065000
v -0.062050 -0.058259 -0.000000
v -0.081175 -0.077384 0.065000
v -0.062050 -0.313259 -0.000000
v -0.081175 -0.294134 0.065000
v -0.249703 -0.245912 -0.000000
v -0.129396 -0.245912 -0.000000
v -0.249703 -0.245912 0.065000
v -0.129396 -0.245912 0.065000
v -0.129396 -0.125605 0.065000
v -0.129396 -0.125605 -0.000000
v -0.249703 -0.125605 -0.000000
v -0.249703 -0.125605 0.065000
v 0.063750 0.058259 0.000000
v 0.063750 0.313259 0.000000
v 0.082875 0.077384 0.065000
v 0.082875 0.294134 0.065000
v 0.318750 0.313259 0.000000
v 0.299625 0.294134 0.065000
v 0.318750 0.058259 0.000000
v 0.299625 0.077384 0.065000
v 0.131096 0.125605 0.000000
v 0.251404 0.125605 0.000000
v 0.131096 0.125605 0.065000
v 0.251404 0.125605 0.065000
v 0.251404 0.245912 0.065000
v 0.251404 0.245912 0.000000
v 0.131096 0.245912 0.000000
v 0.131096 0.245912 0.065000
v 0.065450 -0.318750 0.000000
v 0.065450 -0.063750 0.000000
v 0.084575 -0.299625 0.065000
v 0.084575 -0.082875 0.065000
v 0.320450 -0.063750 0.000000
v 0.301325 -0.082875 0.065000
v 0.320450 -0.318750 0.000000
v 0.301325 -0.299625 0.065000
v 0.132797 -0.251404 0.000000
v 0.253104 -0.251404 0.000000
v 0.132797 -0.251404 0.065000
v 0.253104 -0.251404 0.065000
v 0.253104 -0.131096 0.065000
v 0.253104 -0.131096 0.000000
v 0.132797 -0.131096 0.000000
v 0.132797 -0.131096 0.065000
vn -0.6497 -0.6714 0.3565
vn -0.6448 0.6670 0.3732
vn -0.6451 -0.6673 0.3722
vn -0.6408 0.6631 0.3870
vn -0.6597 -0.6788 0.3225
vn -0.6455 0.6677 0.3709
vn -0.6714 0.6497 0.3565
vn 0.6670 0.6448 0.3732
vn -0.6673 0.6451 0.3722
vn 0.6631 0.6408 0.3870
vn -0.6788 0.6597 0.3225
vn 0.6677 0.6455 0.3709
vn 0.6714 -0.6497 0.3565
vn -0.6670 -0.6448 0.3732
vn 0.6673 -0.6451 0.3722
vn -0.6631 -0.6408 0.3870
vn 0.6788 -0.6597 0.3225
vn -0.6677 -0.6455 0.3709
vn 0.6448 0.6670 0.3732
vn 0.6497 -0.6714 0.3565
vn 0.6451 -0.6673 0.3722
vn 0.6597 -0.6788 0.3225
vn 0.6408 0.6631 0.3870
vn 0.6455 0.6677 0.3709
vn -0.0000 1.0000 -0.0000
vn -1.0000 -0.0000 -0.0000
vn -0.0000 -1.0000 -0.0000
vn 1.0000 -0.0000 -0.0000
vn -0.0000 -0.0000 1.0000
vn -0.0000 -0.0000 -1.0000
vt 0.218750 0.025000
vt 0.218750 0.025000
vt 0.218750 0.225000
vt 0.218750 0.225000
vt 0.218750 0.025000
vt 0.218750 0.225000
vt 0.218750 0.025000
vt 0.218750 0.225000
vt 0.218750 0.025000
vt 0.218750 0.025000
vt 0.218750 0.225000
vt 0.218750 0.225000
vt 0.218750 0.225000
vt 0.218750 0.025000
vt 0.218750 0.025000
vt 0.218750 0.225000
vt 0.218750 0.025000
vt 0.218750 0.025000
vt 0.218750 0.225000
vt 0.218750 0.225000
vt 0.218750 0.025000
vt 0.218750 0.225000
vt 0.218750 0.025000
vt 0.218750 0.225000
vt 0.218750 0.025000
vt 0.218750 0.025000
vt 0.218750 0.225000
vt 0.218750 0.225000
vt 0.218750 0.225000
vt 0.218750 0.025000
vt 0.218750 0.025000
vt 0.218750 0.225000
vt 0.218750 0.025000
vt 0.218750 0.025000
vt 0.218750 0.225000
vt 0.218750 0.225000
vt 0.218750 0.025000
vt 0.218750 0.225000
vt 0.218750 0.025000
vt 0.218750 0.225000
vt 0.218750 0.025000
vt 0.218750 0.025000
vt 0.218750 0.225000
vt 0.218750 0.225000
vt 0.218750 0.225000
vt 0.218750 0.025000
vt 0.218750 0.025000
vt 0.218750 0.225000
vt 0.218750 0.025000
vt 0.218750 0.025000
vt 0.218750 0.225000
vt 0.218750 0.225000
vt 0.218750 0.025000
vt 0.218750 0.225000
vt 0.218750 0.025000
vt 0.218750 0.225000
vt 0.218750 0.025000
vt 0.218750 0.025000
vt 0.218750 0.225000
vt 0.218750 0.225000
vt 0.218750 0.225000
vt 0.218750 0.025000
vt 0.218750 0.025000
vt 0.218750 0.225000
s 0
usemtl colormap
f 3/3/1 2/2/2 1/1/3
f 2/2/4 3/3/5 4/4/6
f 4/4/7 5/5/8 2/2/9
f 5/5/10 4/4/11 6/6/12
f 8/8/13 1/1/14 7/7/15
f 1/1/16 8/8/17 3/3/18
f 5/5/19 8/8/20 7/7/21
f 8/8/22 5/5/23 6/6/24
f 11/11/25 10/10/25 9/9/25
f 10/10/25 11/11/25 12/12/25
f 13/13/26 10/10/26 12/12/26
f 10/10/26 13/13/26 14/14/26
f 13/13/27 15/15/27 14/14/27
f 15/15/27 13/13/27 16/16/27
f 15/15/28 11/11/28 9/9/28
f 11/11/28 15/15/28 16/16/28
f 3/3/29 11/11/29 4/4/29
f 11/11/29 3/3/29 8/8/29
f 16/16/29 4/4/29 11/11/29
f 11/11/29 8/8/29 12/12/29
f 4/4/29 16/16/29 6/6/29
f 12/12/29 8/8/29 13/13/29
f 6/6/29 16/16/29 13/13/29
f 6/6/29 13/13/29 8/8/29
f 2/2/30 15/15/30 1/1/30
f 15/15/30 2/2/30 5/5/30
f 9/9/30 1/1/30 15/15/30
f 15/15/30 5/5/30 14/14/30
f 1/1/30 9/9/30 7/7/30
f 14/14/30 5/5/30 10/10/30
f 7/7/30 9/9/30 10/10/30
f 7/7/30 10/10/30 5/5/30
f 19/19/1 18/18/2 17/17/3
f 18/18/4 19/19/5 20/20/6
f 20/20/7 21/21/8 18/18/9
f 21/21/10 20/20/11 22/22/12
f 24/24/13 17/17/14 23/23/15
f 17/17/16 24/24/17 19/19/18
f 21/21/19 24/24/20 23/23/21
f 24/24/22 21/21/23 22/22/24
f 27/27/25 26/26/25 25/25/25
f 26/26/25 27/27/25 28/28/25
f 29/29/26 26/26/26 28/28/26
f 26/26/26 29/29/26 30/30/26
f 29/29/27 31/31/27 30/30/27
f 31/31/27 29/29/27 32/32/27
f 31/31/28 27/27/28 25/25/28
f 27/27/28 31/31/28 32/32/28
f 19/19/29 27/27/29 20/20/29
f 27/27/29 19/19/29 24/24/29
f 32/32/29 20/20/29 27/27/29
f 27/27/29 24/24/29 28/28/29
f 20/20/29 32/32/29 22/22/29
f 28/28/29 24/24/29 29/29/29
f 22/22/29 32/32/29 29/29/29
f 22/22/29 29/29/29 24/24/29
f 18/18/30 31/31/30 17/17/30
f 31/31/30 18/18/30 21/21/30
f 25/25/30 17/17/30 31/31/30
f 31/31/30 21/21/30 30/30/30
f 17/17/30 25/25/30 23/23/30
f 30/30/30 21/21/30 26/26/30
f 23/23/30 25/25/30 26/26/30
f 23/23/30 26/26/30 21/21/30
f 35/35/1 34/34/2 33/33/3
f 34/34/4 35/35/5 36/36/6
f 36/36/7 37/37/8 34/34/9
f 37/37/10 36/36/11 38/38/12
f 40/40/13 33/33/14 39/39/15
f 33/33/16 40/40/17 35/35/18
f 37/37/19 40/40/20 39/39/21
f 40/40/22 37/37/23 38/38/24
f 43/43/25 42/42/25 41/41/25
f 42/42/25 43/43/25 44/44/25
f 45/45/26 42/42/26 44/44/26
f 42/42/26 45/45/26 46/46/26
f 45/45/27 47/47/27 46/46/27
f 47/47/27 45/45/27 48/48/27
f 47/47/28 43/43/28 41/41/28
f 43/43/28 47/47/28 48/48/28
f 35/35/29 43/43/29 36/36/29
f 43/43/29 35/35/29 40/40/29
f 48/48/29 36/36/29 43/43/29
f 43/43/29 40/40/29 44/44/29
f 36/36/29 48/48/29 38/38/29
f 44/44/29 40/40/29 45/45/29
f 38/38/29 48/48/29 45/45/29
f 38/38/29 45/45/29 40/40/29
f 34/34/30 47/47/30 33/33/30
f 47/47/30 34/34/30 37/37/30
f 41/41/30 33/33/30 47/47/30
f 47/47/30 37/37/30 46/46/30
f 33/33/30 41/41/30 39/39/30
f 46/46/30 37/37/30 42/42/30
f 39/39/30 41/41/30 42/42/30
f 39/39/30 42/42/30 37/37/30
f 51/51/1 50/50/2 49/49/3
f 50/50/4 51/51/5 52/52/6
f 52/52/7 53/53/8 50/50/9
f 53/53/10 52/52/11 54/54/12
f 56/56/13 49/49/14 55/55/15
f 49/49/16 56/56/17 51/51/18
f 53/53/19 56/56/20 55/55/21
f 56/56/22 53/53/23 54/54/24
f 59/59/25 58/58/25 57/57/25
f 58/58/25 59/59/25 60/60/25
f 61/61/26 58/58/26 60/60/26
f 58/58/26 61/61/26 62/62/26
f 61/61/27 63/63/27 62/62/27
f 63/63/27 61/61/27 64/64/27
f 63/63/28 59/59/28 57/57/28
f 59/59/28 63/63/28 64/64/28
f 51/51/29 59/59/29 52/52/29
f 59/59/29 51/51/29 56/56/29
f 64/64/29 52/52/29 59/59/29
f 59/59/29 56/56/29 60/60/29
f 52/52/29 64/64/29 54/54/29
f 60/60/29 56/56/29 61/61/29
f 54/54/29 64/64/29 61/61/29
f 54/54/29 61/61/29 56/56/29
f 50/50/30 63/63/30 49/49/30
f 63/63/30 50/50/30 53/53/30
f 57/57/30 49/49/30 63/63/30
f 63/63/30 53/53/30 62/62/30
f 49/49/30 57/57/30 55/55/30
f 62/62/30 53/53/30 58/58/30
f 55/55/30 57/57/30 58/58/30
f 55/55/30 58/58/30 53/53/30
f 3/3/1 2/2/2 1/1/3
f 2/2/4 3/3/5 4/4/6
f 4/4/7 5/5/8 2/2/9
f 5/5/10 4/4/11 6/6/12
f 8/8/13 1/1/14 7/7/15
f 1/1/16 8/8/17 3/3/18
f 5/5/19 8/8/20 7/7/21
f 8/8/22 5/5/23 6/6/24
f 11/11/25 10/10/25 9/9/25
f 10/10/25 11/11/25 12/12/25
f 13/13/26 10/10/26 12/12/26
f 10/10/26 13/13/26 14/14/26
f 13/13/27 15/15/27 14/14/27
f 15/15/27 13/13/27 16/16/27
f 15/15/28 11/11/28 9/9/28
f 11/11/28 15/15/28 16/16/28
f 3/3/29 11/11/29 4/4/29
f 11/11/29 3/3/29 8/8/29
f 16/16/29 4/4/29 11/11/29
f 11/11/29 8/8/29 12/12/29
f 4/4/29 16/16/29 6/6/29
f 12/12/29 8/8/29 13/13/29
f 6/6/29 16/16/29 13/13/29
f 6/6/29 13/13/29 8/8/29
f 2/2/30 15/15/30 1/1/30
f 15/15/30 2/2/30 5/5/30
f 9/9/30 1/1/30 15/15/30
f 15/15/30 5/5/30 14/14/30
f 1/1/30 9/9/30 7/7/30
f 14/14/30 5/5/30 10/10/30
f 7/7/30 9/9/30 10/10/30
f 7/7/30 10/10/30 5/5/30
f 19/19/1 18/18/2 17/17/3
f 18/18/4 19/19/5 20/20/6
f 20/20/7 21/21/8 18/18/9
f 21/21/10 20/20/11 22/22/12
f 24/24/13 17/17/14 23/23/15
f 17/17/16 24/24/17 19/19/18
f 21/21/19 24/24/20 23/23/21
f 24/24/22 21/21/23 22/22/24
f 27/27/25 26/26/25 25/25/25
f 26/26/25 27/27/25 28/28/25
f 29/29/26 26/26/26 28/28/26
f 26/26/26 29/29/26 30/30/26
f 29/29/27 31/31/27 30/30/27
f 31/31/27 29/29/27 32/32/27
f 31/31/28 27/27/28 25/25/28
f 27/27/28 31/31/28 32/32/28
f 19/19/29 27/27/29 20/20/29
f 27/27/29 19/19/29 24/24/29
f 32/32/29 20/20/29 27/27/29
f 27/27/29 24/24/29 28/28/29
f 20/20/29 32/32/29 22/22/29
f 28/28/29 24/24/29 29/29/29
f 22/22/29 32/32/29 29/29/29
f 22/22/29 29/29/29 24/24/29
f 18/18/30 31/31/30 17/17/30
f 31/31/30 18/18/30 21/21/30
f 25/25/30 17/17/30 31/31/30
f 31/31/30 21/21/30 30/30/30
f 17/17/30 25/25/30 23/23/30
f 30/30/30 21/21/30 26/26/30
f 23/23/30 25/25/30 26/26/30
f 23/23/30 26/26/30 21/21/30
f 35/35/1 34/34/2 33/33/3
f 34/34/4 35/35/5 36/36/6
f 36/36/7 37/37/8 34/34/9
f 37/37/10 36/36/11 38/38/12
f 40/40/13 33/33/14 39/39/15
f 33/33/16 40/40/17 35/35/18
f 37/37/19 40/40/20 39/39/21
f 40/40/22 37/37/23 38/38/24
f 43/43/25 42/42/25 41/41/25
f 42/42/25 43/43/25 44/44/25
f 45/45/26 42/42/26 44/44/26
f 42/42/26 45/45/26 46/46/26
f 45/45/27 47/47/27 46/46/27
f 47/47/27 45/45/27 48/48/27
f 47/47/28 43/43/28 41/41/28
f 43/43/28 47/47/28 48/48/28
f 35/35/29 43/43/29 36/36/29
f 43/43/29 35/35/29 40/40/29
f 48/48/29 36/36/29 43/43/29
f 43/43/29 40/40/29 44/44/29
f 36/36/29 48/48/29 38/38/29
f 44/44/29 40/40/29 45/45/29
f 38/38/29 48/48/29 45/45/29
f 38/38/29 45/45/29 40/40/29
f 34/34/30 47/47/30 33/33/30
f 47/47/30 34/34/30 37/37/30
f 41/41/30 33/33/30 47/47/30
f 47/47/30 37/37/30 46/46/30
f 33/33/30 41/41/30 39/39/30
f 46/46/30 37/37/30 42/42/30
f 39/39/30 41/41/30 42/42/30
f 39/39/30 42/42/30 37/37/30
f 51/51/1 50/50/2 49/49/3
f 50/50/4 51/51/5 52/52/6
f 52/52/7 53/53/8 50/50/9
f 53/53/10 52/52/11 54/54/12
f 56/56/13 49/49/14 55/55/15
f 49/49/16 56/56/17 51/51/18
f 53/53/19 56/56/20 55/55/21
f 56/56/22 53/53/23 54/54/24
f 59/59/25 58/58/25 57/57/25
f 58/58/25 59/59/25 60/60/25
f 61/61/26 58/58/26 60/60/26
f 58/58/26 61/61/26 62/62/26
f 61/61/27 63/63/27 62/62/27
f 63/63/27 61/61/27 64/64/27
f 63/63/28 59/59/28 57/57/28
f 59/59/28 63/63/28 64/64/28
f 51/51/29 59/59/29 52/52/29
f 59/59/29 51/51/29 56/56/29
f 64/64/29 52/52/29 59/59/29
f 59/59/29 56/56/29 60/60/29
f 52/52/29 64/64/29 54/54/29
f 60/60/29 56/56/29 61/61/29
f 54/54/29 64/64/29 61/61/29
f 54/54/29 61/61/29 56/56/29
f 50/50/30 63/63/30 49/49/30
f 63/63/30 50/50/30 53/53/30
f 57/57/30 49/49/30 63/63/30
f 63/63/30 53/53/30 62/62/30
f 49/49/30 57/57/30 55/55/30
f 62/62/30 53/53/30 58/58/30
f 55/55/30 57/57/30 58/58/30
f 55/55/30 58/58/30 53/53/30
