# Blender 3.3.1
# www.blender.org
o tree-snow-c
v -0.000000 -0.285886 0.182160
v 0.202152 -0.202152 0.182160
v -0.202152 -0.202152 0.182160
v 0.285886 0.000000 0.182160
v -0.285886 -0.000000 0.182160
v -0.202152 0.202152 0.182160
v 0.202152 0.202152 0.182160
v -0.000000 0.285886 0.182160
v -0.000000 -0.314160 0.227040
v -0.222145 -0.222145 0.227040
v 0.222145 0.222145 0.227040
v 0.314160 0.000000 0.227040
v -0.314160 -0.000000 0.227040
v -0.000000 0.314160 0.227040
v -0.222145 0.222145 0.227040
v 0.222145 -0.222145 0.227040
v -0.000000 -0.171646 0.671812
v 0.121372 -0.121372 0.671812
v -0.121372 -0.121372 0.671812
v -0.171646 0.000000 0.671812
v 0.171646 0.000000 0.671812
v -0.121372 0.121372 0.671812
v 0.121372 0.121372 0.671812
v -0.000000 0.171646 0.671812
v -0.000000 -0.188622 0.698758
v -0.133376 -0.133376 0.698758
v 0.133376 0.133376 0.698758
v 0.188622 0.000000 0.698758
v -0.188622 0.000000 0.698758
v -0.000000 0.188622 0.698758
v -0.133376 0.133376 0.698758
v 0.133376 -0.133376 0.698758
v -0.000000 -0.217273 0.433752
v 0.153635 -0.153635 0.433752
v -0.153635 -0.153635 0.433752
v -0.217273 0.000000 0.433752
v 0.217273 0.000000 0.433752
v -0.153635 0.153635 0.433752
v 0.153635 0.153635 0.433752
v -0.000000 0.217273 0.433752
v -0.000000 -0.238762 0.467861
v -0.168830 -0.168830 0.467861
v 0.168830 0.168830 0.467861
v 0.238762 0.000000 0.467861
v -0.238762 0.000000 0.467861
v -0.000000 0.238762 0.467861
v -0.168830 0.168830 0.467861
v 0.168830 -0.168830 0.467861
v -0.000000 -0.183469 0.518760
v -0.129733 -0.129733 0.518760
v 0.129732 -0.129733 0.518760
v 0.183469 0.000000 0.518760
v -0.183470 0.000000 0.518760
v 0.129732 0.129733 0.518760
v -0.129733 0.129733 0.518760
v -0.000000 0.183469 0.518760
v -0.000000 0.229462 0.339240
v -0.162255 0.162254 0.339240
v 0.162254 0.162254 0.339240
v 0.162254 -0.162254 0.339240
v -0.000000 -0.229462 0.339240
v 0.229462 0.000000 0.339240
v -0.162255 -0.162254 0.339240
v -0.229463 0.000000 0.339240
v 0.097417 0.097418 0.766124
v 0.137769 0.000000 0.766124
v -0.000000 0.137769 0.766124
v -0.097418 -0.097418 0.766124
v -0.137769 0.000000 0.766124
v 0.097417 -0.097418 0.766124
v -0.097418 0.097418 0.766124
v -0.000000 -0.137769 0.766124
v -0.000000 -0.000000 1.013998
v 0.052577 0.052577 0.908398
v 0.074355 0.000000 0.908398
v 0.052577 -0.052577 0.908398
v -0.000000 -0.074355 0.908398
v -0.000000 0.074355 0.908398
v -0.052577 0.052577 0.908398
v -0.074355 0.000000 0.908398
v -0.052577 -0.052577 0.908398
v -0.000000 -0.139437 0.689568
v -0.098597 -0.098597 0.689568
v 0.098597 -0.098597 0.689568
v 0.139437 0.000000 0.689568
v -0.139437 0.000000 0.689568
v 0.098597 0.098597 0.689568
v -0.098597 0.098597 0.689568
v -0.000000 0.139437 0.689568
v -0.000000 0.174391 0.553133
v -0.123314 0.123313 0.553133
v 0.123313 0.123313 0.553133
v 0.123313 -0.123313 0.553133
v -0.000000 -0.174391 0.553133
v 0.174391 0.000000 0.553133
v -0.123314 -0.123313 0.553133
v -0.174392 0.000000 0.553133
v -0.123552 -0.000000 -0.000000
v -0.087364 0.087364 -0.000000
v -0.086592 -0.000000 0.054648
v -0.061230 0.061230 0.054648
v 0.000000 -0.123552 0.000000
v 0.087364 -0.087364 0.000000
v -0.087364 -0.087364 -0.000000
v 0.123552 0.000000 0.000000
v 0.087364 0.087364 0.000000
v -0.000000 0.123552 -0.000000
v -0.000000 -0.086592 0.054648
v -0.061230 -0.061230 0.054648
v 0.061230 -0.061230 0.054648
v -0.060192 0.000000 0.182160
v -0.042562 0.042562 0.182160
v -0.000000 0.060192 0.182160
v -0.000000 0.086592 0.054648
v -0.000000 -0.060192 0.182160
v -0.042562 -0.042562 0.182160
v 0.086592 0.000000 0.054648
v 0.060192 0.000000 0.182160
v 0.042562 -0.042562 0.182160
v 0.061230 0.061230 0.054648
v 0.042562 0.042562 0.182160
vn -0.0000 -0.9993 0.0373
vn -0.5983 -0.5983 -0.5330
vn -0.0000 -0.8461 -0.5330
vn -0.7066 -0.7066 0.0373
vn 0.7066 0.7066 0.0373
vn 0.8461 -0.0000 -0.5330
vn 0.5983 0.5983 -0.5330
vn 0.9993 -0.0000 0.0373
vn -0.8461 -0.0000 -0.5330
vn -0.9993 -0.0000 0.0373
vn -0.0000 0.9993 0.0373
vn -0.0000 0.8461 -0.5330
vn -0.5983 0.5983 -0.5330
vn -0.7066 0.7066 0.0373
vn 0.5983 -0.5983 -0.5330
vn 0.7066 -0.7066 0.0373
vn -0.6301 0.6301 0.4538
vn -0.0000 0.8911 0.4538
vn -0.0000 0.9993 0.0374
vn 0.6301 0.6301 0.4538
vn 0.6301 -0.6301 0.4538
vn -0.0000 -0.9993 0.0374
vn -0.0000 -0.8911 0.4538
vn 0.9993 -0.0000 0.0374
vn 0.8911 -0.0000 0.4538
vn -0.6850 -0.6850 0.2482
vn -0.8911 -0.0000 0.4538
vn -0.6301 -0.6301 0.4538
vn -0.9687 -0.0000 0.2482
vn -0.0000 -0.9687 0.2482
vn 0.6850 -0.6850 0.2482
vn 0.9687 -0.0000 0.2482
vn -0.6850 0.6850 0.2482
vn -0.0000 0.9687 0.2482
vn 0.6850 0.6850 0.2482
vn -0.9993 -0.0000 0.0374
vn 0.7066 -0.7066 0.0374
vn -0.7066 0.7066 0.0374
vn 0.6037 0.6037 0.5206
vn 0.6037 0.6037 0.5207
vn 0.8538 -0.0000 0.5206
vn -0.0000 0.8538 0.5206
vn -0.6037 -0.6037 0.5206
vn -0.6037 -0.6037 0.5207
vn -0.8538 -0.0000 0.5206
vn 0.8538 -0.0000 0.5207
vn 0.6037 -0.6037 0.5206
vn -0.0000 0.8538 0.5207
vn -0.6037 0.6037 0.5206
vn 0.6037 -0.6037 0.5207
vn -0.0000 -0.8538 0.5206
vn -0.8538 -0.0000 0.5207
vn 0.6366 0.6366 0.4354
vn 0.6366 0.6366 0.4353
vn 0.9003 -0.0000 0.4353
vn 0.6366 -0.6366 0.4354
vn -0.0000 -0.8538 0.5207
vn 0.6366 -0.6366 0.4353
vn -0.0000 -0.9003 0.4353
vn -0.6037 0.6037 0.5207
vn -0.0000 0.9003 0.4354
vn -0.0000 0.9003 0.4353
vn -0.6366 0.6366 0.4353
vn 0.9003 -0.0000 0.4354
vn -0.9003 -0.0000 0.4354
vn -0.9003 -0.0000 0.4353
vn -0.0000 -0.9003 0.4354
vn -0.6366 -0.6366 0.4353
vn -0.6366 -0.6366 0.4354
vn -0.6243 0.6243 0.4697
vn -0.0000 0.9002 0.4354
vn 0.6243 0.6243 0.4697
vn 0.9002 -0.0000 0.4354
vn -0.6243 -0.6243 0.4697
vn -0.9002 -0.0000 0.4354
vn -0.8828 -0.0000 0.4697
vn -0.6366 0.6366 0.4354
vn -0.0000 -0.9002 0.4354
vn 0.8828 -0.0000 0.4697
vn 0.6243 -0.6243 0.4697
vn -0.8283 -0.0000 0.5602
vn -0.5857 0.5857 0.5602
vn -0.8284 -0.0000 0.5602
vn -0.0000 -0.8283 0.5602
vn -0.5857 -0.5857 0.5602
vn -0.0000 -0.8284 0.5602
vn 0.5857 -0.5857 0.5602
vn -0.9792 -0.0000 0.2028
vn -0.6924 0.6924 0.2028
vn -0.6924 0.6924 0.2027
vn -0.9792 -0.0000 0.2027
vn -0.0000 0.9792 0.2027
vn -0.0000 0.9792 0.2028
vn -0.6924 -0.6924 0.2027
vn -0.0000 -0.9792 0.2027
vn -0.0000 -0.9792 0.2028
vn -0.6924 -0.6924 0.2028
vn 0.9792 -0.0000 0.2028
vn 0.6924 -0.6924 0.2028
vn 0.6924 -0.6924 0.2027
vn 0.9792 -0.0000 0.2027
vn 0.6924 0.6924 0.2028
vn 0.6924 0.6924 0.2027
vn -0.0000 0.8283 0.5602
vn -0.0000 0.8284 0.5602
vn 0.5857 0.5857 0.5602
vn 0.8283 -0.0000 0.5602
vn 0.8284 -0.0000 0.5602
vt 0.718750 0.275000
vt 0.718750 0.275000
vt 0.718750 0.275000
vt 0.718750 0.275000
vt 0.718750 0.275000
vt 0.718750 0.275000
vt 0.718750 0.275000
vt 0.718750 0.275000
vt 0.718750 0.301667
vt 0.093750 0.051667
vt 0.718750 0.301667
vt 0.093750 0.051667
vt 0.718750 0.301667
vt 0.093750 0.051667
vt 0.718750 0.301667
vt 0.093750 0.051667
vt 0.718750 0.301667
vt 0.093750 0.051667
vt 0.718750 0.301667
vt 0.093750 0.051667
vt 0.718750 0.301667
vt 0.093750 0.051667
vt 0.718750 0.301667
vt 0.093750 0.051667
vt 0.718750 0.275000
vt 0.718750 0.275000
vt 0.718750 0.275000
vt 0.718750 0.275000
vt 0.718750 0.275000
vt 0.718750 0.275000
vt 0.718750 0.275000
vt 0.718750 0.275000
vt 0.718750 0.290749
vt 0.093750 0.040749
vt 0.718750 0.290749
vt 0.093750 0.040749
vt 0.718750 0.290749
vt 0.093750 0.040749
vt 0.718750 0.290749
vt 0.093750 0.040749
vt 0.718750 0.290749
vt 0.093750 0.040749
vt 0.718750 0.290749
vt 0.093750 0.040749
vt 0.718750 0.290749
vt 0.093750 0.040749
vt 0.718750 0.290749
vt 0.093750 0.040749
vt 0.718750 0.275000
vt 0.718750 0.275000
vt 0.718750 0.275000
vt 0.718750 0.275000
vt 0.718750 0.275000
vt 0.718750 0.275000
vt 0.718750 0.275000
vt 0.718750 0.275000
vt 0.718750 0.288333
vt 0.093750 0.038333
vt 0.718750 0.288333
vt 0.093750 0.038333
vt 0.718750 0.288333
vt 0.093750 0.038333
vt 0.718750 0.288333
vt 0.093750 0.038333
vt 0.718750 0.288333
vt 0.093750 0.038333
vt 0.718750 0.288333
vt 0.093750 0.038333
vt 0.718750 0.288333
vt 0.093750 0.038333
vt 0.718750 0.288333
vt 0.093750 0.038333
vt 0.093750 0.225000
vt 0.093750 0.225000
vt 0.093750 0.225000
vt 0.093750 0.225000
vt 0.093750 0.225000
vt 0.093750 0.225000
vt 0.093750 0.225000
vt 0.093750 0.225000
vt 0.093750 0.118333
vt 0.093750 0.118333
vt 0.093750 0.118333
vt 0.093750 0.118333
vt 0.093750 0.118333
vt 0.093750 0.118333
vt 0.093750 0.118333
vt 0.093750 0.118333
vt 0.093750 0.080123
vt 0.093750 0.080123
vt 0.093750 0.080123
vt 0.093750 0.080123
vt 0.093750 0.080123
vt 0.093750 0.080123
vt 0.093750 0.080123
vt 0.093750 0.080123
vt 0.093750 0.225000
vt 0.093750 0.163279
vt 0.093750 0.163279
vt 0.093750 0.163279
vt 0.093750 0.163279
vt 0.093750 0.163279
vt 0.093750 0.163279
vt 0.093750 0.163279
vt 0.093750 0.163279
vt 0.093750 0.125000
vt 0.093750 0.125000
vt 0.093750 0.125000
vt 0.093750 0.125000
vt 0.093750 0.125000
vt 0.093750 0.125000
vt 0.093750 0.125000
vt 0.093750 0.125000
vt 0.093750 0.071667
vt 0.093750 0.071667
vt 0.093750 0.071667
vt 0.093750 0.071667
vt 0.093750 0.071667
vt 0.093750 0.071667
vt 0.093750 0.071667
vt 0.093750 0.071667
vt 0.218750 0.475000
vt 0.218750 0.475000
vt 0.218750 0.415000
vt 0.218750 0.415000
vt 0.218750 0.475000
vt 0.218750 0.475000
vt 0.218750 0.475000
vt 0.218750 0.475000
vt 0.218750 0.475000
vt 0.218750 0.475000
vt 0.218750 0.415000
vt 0.218750 0.415000
vt 0.218750 0.415000
vt 0.218750 0.275000
vt 0.218750 0.275000
vt 0.218750 0.275000
vt 0.218750 0.415000
vt 0.218750 0.275000
vt 0.218750 0.275000
vt 0.218750 0.415000
vt 0.218750 0.275000
vt 0.218750 0.275000
vt 0.218750 0.415000
vt 0.218750 0.275000
s 0
f 9/9/1 3/3/2 1/1/3
f 3/3/2 9/9/1 10/11/4
f 11/13/5 4/4/6 7/7/7
f 4/4/6 11/13/5 12/15/8
f 10/11/4 5/5/9 3/3/2
f 5/5/9 10/11/4 13/17/10
f 7/7/7 14/19/11 11/13/5
f 14/19/11 7/7/7 8/8/12
f 13/17/10 6/6/13 5/5/9
f 6/6/13 13/17/10 15/21/14
f 9/9/1 2/2/15 16/23/16
f 2/2/15 9/9/1 1/1/3
f 12/15/8 2/2/15 4/4/6
f 2/2/15 12/15/8 16/23/16
f 6/6/13 14/19/11 8/8/12
f 14/19/11 6/6/13 15/21/14
f 25/33/1 19/27/2 17/25/3
f 19/27/2 25/33/1 26/35/4
f 27/37/5 21/29/6 23/31/7
f 21/29/6 27/37/5 28/39/8
f 26/35/4 20/28/9 19/27/2
f 20/28/9 26/35/4 29/41/10
f 23/31/7 30/43/11 27/37/5
f 30/43/11 23/31/7 24/32/12
f 29/41/10 22/30/13 20/28/9
f 22/30/13 29/41/10 31/45/14
f 25/33/1 18/26/15 32/47/16
f 18/26/15 25/33/1 17/25/3
f 28/39/8 18/26/15 21/29/6
f 18/26/15 28/39/8 32/47/16
f 22/30/13 30/43/11 24/32/12
f 30/43/11 22/30/13 31/45/14
f 41/57/1 35/51/2 33/49/3
f 35/51/2 41/57/1 42/59/4
f 43/61/5 37/53/6 39/55/7
f 37/53/6 43/61/5 44/63/8
f 42/59/4 36/52/9 35/51/2
f 36/52/9 42/59/4 45/65/10
f 39/55/7 46/67/11 43/61/5
f 46/67/11 39/55/7 40/56/12
f 45/65/10 38/54/13 36/52/9
f 38/54/13 45/65/10 47/69/14
f 41/57/1 34/50/15 48/71/16
f 34/50/15 41/57/1 33/49/3
f 44/63/8 34/50/15 37/53/6
f 34/50/15 44/63/8 48/71/16
f 38/54/13 46/67/11 40/56/12
f 46/67/11 38/54/13 47/69/14
f 14/20/11 58/82/17 57/81/18
f 58/82/17 14/20/19 15/22/14
f 14/20/19 59/83/20 11/14/5
f 59/83/20 14/20/11 57/81/18
f 60/84/21 9/10/22 16/24/16
f 9/10/1 60/84/21 61/85/23
f 59/83/20 12/16/24 11/14/5
f 12/16/8 59/83/20 62/86/25
f 50/74/26 64/88/27 63/87/28
f 64/88/27 50/74/26 53/77/29
f 50/74/26 61/85/23 49/73/30
f 61/85/23 50/74/26 63/87/28
f 51/75/31 61/85/23 60/84/21
f 61/85/23 51/75/31 49/73/30
f 52/76/32 60/84/21 62/86/25
f 60/84/21 52/76/32 51/75/31
f 53/77/29 58/82/17 64/88/27
f 58/82/17 53/77/29 55/79/33
f 57/81/18 55/79/33 56/80/34
f 55/79/33 57/81/18 58/82/17
f 57/81/18 54/78/35 59/83/20
f 54/78/35 57/81/18 56/80/34
f 63/87/28 9/10/1 61/85/23
f 9/10/22 63/87/28 10/12/4
f 63/87/28 13/18/36 10/12/4
f 13/18/10 63/87/28 64/88/27
f 62/86/25 16/24/37 12/16/8
f 16/24/16 62/86/25 60/84/21
f 54/78/35 62/86/25 59/83/20
f 62/86/25 54/78/35 52/76/32
f 64/88/27 15/22/38 13/18/10
f 15/22/14 64/88/27 58/82/17
f 65/89/39 28/40/24 27/38/5
f 28/40/8 65/89/40 66/90/41
f 30/44/19 65/89/39 27/38/5
f 65/89/40 30/44/11 67/91/42
f 68/92/43 29/42/36 26/36/4
f 29/42/10 68/92/44 69/93/45
f 66/90/41 32/48/37 28/40/8
f 32/48/16 66/90/46 70/94/47
f 31/46/38 67/91/42 30/44/11
f 67/91/48 31/46/14 71/95/49
f 70/94/47 25/34/22 32/48/16
f 25/34/1 70/94/50 72/96/51
f 69/93/45 31/46/38 29/42/10
f 31/46/14 69/93/52 71/95/49
f 68/92/44 25/34/1 72/96/51
f 25/34/22 68/92/43 26/36/4
f 74/98/53 66/90/46 65/89/40
f 66/90/46 74/98/54 75/99/55
f 76/100/56 72/96/57 70/94/50
f 72/96/57 76/100/58 77/101/59
f 71/95/60 78/102/61 67/91/48
f 78/102/62 71/95/60 79/103/63
f 75/99/64 70/94/50 66/90/46
f 70/94/50 75/99/55 76/100/58
f 80/104/65 71/95/60 69/93/52
f 71/95/60 80/104/66 79/103/63
f 67/91/48 74/98/53 65/89/40
f 74/98/54 67/91/48 78/102/62
f 77/101/67 68/92/44 72/96/57
f 68/92/44 77/101/59 81/105/68
f 81/105/69 69/93/52 68/92/44
f 69/93/52 81/105/68 80/104/66
f 73/97/70 78/102/71 79/103/63
f 73/97/72 75/99/73 74/98/54
f 73/97/74 80/104/75 81/105/68
f 73/97/76 79/103/77 80/104/66
f 77/101/78 73/97/74 81/105/68
f 73/97/79 76/100/56 75/99/55
f 78/102/71 73/97/72 74/98/54
f 73/97/80 77/101/78 76/100/58
f 46/68/11 91/115/17 90/114/18
f 91/115/17 46/68/19 47/70/14
f 46/68/19 92/116/20 43/62/5
f 92/116/20 46/68/11 90/114/18
f 93/117/21 41/58/22 48/72/16
f 41/58/1 93/117/21 94/118/23
f 92/116/20 44/64/24 43/62/5
f 44/64/8 92/116/20 95/119/25
f 83/107/26 97/121/27 96/120/28
f 97/121/27 83/107/26 86/110/29
f 83/107/26 94/118/23 82/106/30
f 94/118/23 83/107/26 96/120/28
f 84/108/31 94/118/23 93/117/21
f 94/118/23 84/108/31 82/106/30
f 85/109/32 93/117/21 95/119/25
f 93/117/21 85/109/32 84/108/31
f 86/110/29 91/115/17 97/121/27
f 91/115/17 86/110/29 88/112/33
f 90/114/18 88/112/33 89/113/34
f 88/112/33 90/114/18 91/115/17
f 90/114/18 87/111/35 92/116/20
f 87/111/35 90/114/18 89/113/34
f 96/120/28 41/58/1 94/118/23
f 41/58/22 96/120/28 42/60/4
f 96/120/28 45/66/36 42/60/4
f 45/66/10 96/120/28 97/121/27
f 95/119/25 48/72/37 44/64/8
f 48/72/16 95/119/25 93/117/21
f 87/111/35 95/119/25 92/116/20
f 95/119/25 87/111/35 85/109/32
f 97/121/27 47/70/38 45/66/10
f 47/70/14 97/121/27 91/115/17
f 100/124/81 99/123/82 98/122/83
f 99/123/82 100/124/83 101/125/82
f 108/132/84 104/128/85 102/126/86
f 104/128/85 108/132/84 109/133/85
f 109/133/85 98/122/81 104/128/85
f 98/122/83 109/133/85 100/124/81
f 110/134/87 102/126/84 103/127/87
f 102/126/86 110/134/87 108/132/84
f 111/135/88 101/125/89 100/124/88
f 101/125/90 111/135/91 112/136/90
f 114/138/92 112/136/90 113/137/92
f 112/136/89 114/138/93 101/125/89
f 116/140/94 108/132/95 115/139/95
f 108/132/96 116/140/97 109/133/97
f 118/142/98 110/134/99 117/141/98
f 110/134/100 118/142/101 119/143/100
f 114/138/93 121/145/102 120/144/102
f 121/145/103 114/138/92 113/137/92
f 116/140/97 100/124/88 109/133/97
f 100/124/91 116/140/94 111/135/91
f 119/143/99 108/132/96 110/134/99
f 108/132/95 119/143/100 115/139/95
f 121/145/102 117/141/98 120/144/102
f 117/141/101 121/145/103 118/142/101
f 99/123/82 114/138/104 107/131/105
f 114/138/105 99/123/82 101/125/82
f 120/144/106 105/129/107 106/130/106
f 105/129/108 120/144/106 117/141/107
f 107/131/104 120/144/106 106/130/106
f 120/144/106 107/131/105 114/138/104
f 117/141/107 103/127/87 105/129/108
f 103/127/87 117/141/107 110/134/87
f 9/9/1 3/3/2 1/1/3
f 3/3/2 9/9/1 10/11/4
f 11/13/5 4/4/6 7/7/7
f 4/4/6 11/13/5 12/15/8
f 10/11/4 5/5/9 3/3/2
f 5/5/9 10/11/4 13/17/10
f 7/7/7 14/19/11 11/13/5
f 14/19/11 7/7/7 8/8/12
f 13/17/10 6/6/13 5/5/9
f 6/6/13 13/17/10 15/21/14
f 9/9/1 2/2/15 16/23/16
f 2/2/15 9/9/1 1/1/3
f 12/15/8 2/2/15 4/4/6
f 2/2/15 12/15/8 16/23/16
f 6/6/13 14/19/11 8/8/12
f 14/19/11 6/6/13 15/21/14
f 25/33/1 19/27/2 17/25/3
f 19/27/2 25/33/1 26/35/4
f 27/37/5 21/29/6 23/31/7
f 21/29/6 27/37/5 28/39/8
f 26/35/4 20/28/9 19/27/2
f 20/28/9 26/35/4 29/41/10
f 23/31/7 30/43/11 27/37/5
f 30/43/11 23/31/7 24/32/12
f 29/41/10 22/30/13 20/28/9
f 22/30/13 29/41/10 31/45/14
f 25/33/1 18/26/15 32/47/16
f 18/26/15 25/33/1 17/25/3
f 28/39/8 18/26/15 21/29/6
f 18/26/15 28/39/8 32/47/16
f 22/30/13 30/43/11 24/32/12
f 30/43/11 22/30/13 31/45/14
f 41/57/1 35/51/2 33/49/3
f 35/51/2 41/57/1 42/59/4
f 43/61/5 37/53/6 39/55/7
f 37/53/6 43/61/5 44/63/8
f 42/59/4 36/52/9 35/51/2
f 36/52/9 42/59/4 45/65/10
f 39/55/7 46/67/11 43/61/5
f 46/67/11 39/55/7 40/56/12
f 45/65/10 38/54/13 36/52/9
f 38/54/13 45/65/10 47/69/14
f 41/57/1 34/50/15 48/71/16
f 34/50/15 41/57/1 33/49/3
f 44/63/8 34/50/15 37/53/6
f 34/50/15 44/63/8 48/71/16
f 38/54/13 46/67/11 40/56/12
f 46/67/11 38/54/13 47/69/14
f 14/20/11 58/82/17 57/81/18
f 58/82/17 14/20/19 15/22/14
f 14/20/19 59/83/20 11/14/5
f 59/83/20 14/20/11 57/81/18
f 60/84/21 9/10/22 16/24/16
f 9/10/1 60/84/21 61/85/23
f 59/83/20 12/16/24 11/14/5
f 12/16/8 59/83/20 62/86/25
f 50/74/26 64/88/27 63/87/28
f 64/88/27 50/74/26 53/77/29
f 50/74/26 61/85/23 49/73/30
f 61/85/23 50/74/26 63/87/28
f 51/75/31 61/85/23 60/84/21
f 61/85/23 51/75/31 49/73/30
f 52/76/32 60/84/21 62/86/25
f 60/84/21 52/76/32 51/75/31
f 53/77/29 58/82/17 64/88/27
f 58/82/17 53/77/29 55/79/33
f 57/81/18 55/79/33 56/80/34
f 55/79/33 57/81/18 58/82/17
f 57/81/18 54/78/35 59/83/20
f 54/78/35 57/81/18 56/80/34
f 63/87/28 9/10/1 61/85/23
f 9/10/22 63/87/28 10/12/4
f 63/87/28 13/18/36 10/12/4
f 13/18/10 63/87/28 64/88/27
f 62/86/25 16/24/37 12/16/8
f 16/24/16 62/86/25 60/84/21
f 54/78/35 62/86/25 59/83/20
f 62/86/25 54/78/35 52/76/32
f 64/88/27 15/22/38 13/18/10
f 15/22/14 64/88/27 58/82/17
f 65/89/39 28/40/24 27/38/5
f 28/40/8 65/89/40 66/90/41
f 30/44/19 65/89/39 27/38/5
f 65/89/40 30/44/11 67/91/42
f 68/92/43 29/42/36 26/36/4
f 29/42/10 68/92/44 69/93/45
f 66/90/41 32/48/37 28/40/8
f 32/48/16 66/90/46 70/94/47
f 31/46/38 67/91/42 30/44/11
f 67/91/48 31/46/14 71/95/49
f 70/94/47 25/34/22 32/48/16
f 25/34/1 70/94/50 72/96/51
f 69/93/45 31/46/38 29/42/10
f 31/46/14 69/93/52 71/95/49
f 68/92/44 25/34/1 72/96/51
f 25/34/22 68/92/43 26/36/4
f 74/98/53 66/90/46 65/89/40
f 66/90/46 74/98/54 75/99/55
f 76/100/56 72/96/57 70/94/50
f 72/96/57 76/100/58 77/101/59
f 71/95/60 78/102/61 67/91/48
f 78/102/62 71/95/60 79/103/63
f 75/99/64 70/94/50 66/90/46
f 70/94/50 75/99/55 76/100/58
f 80/104/65 71/95/60 69/93/52
f 71/95/60 80/104/66 79/103/63
f 67/91/48 74/98/53 65/89/40
f 74/98/54 67/91/48 78/102/62
f 77/101/67 68/92/44 72/96/57
f 68/92/44 77/101/59 81/105/68
f 81/105/69 69/93/52 68/92/44
f 69/93/52 81/105/68 80/104/66
f 73/97/70 78/102/71 79/103/63
f 46/68/11 91/115/17 90/114/18
f 91/115/17 46/68/19 47/70/14
f 46/68/19 92/116/20 43/62/5
f 92/116/20 46/68/11 90/114/18
f 93/117/21 41/58/22 48/72/16
f 41/58/1 93/117/21 94/118/23
f 92/116/20 44/64/24 43/62/5
f 44/64/8 92/116/20 95/119/25
f 83/107/26 97/121/27 96/120/28
f 97/121/27 83/107/26 86/110/29
f 83/107/26 94/118/23 82/106/30
f 94/118/23 83/107/26 96/120/28
f 84/108/31 94/118/23 93/117/21
f 94/118/23 84/108/31 82/106/30
f 85/109/32 93/117/21 95/119/25
f 93/117/21 85/109/32 84/108/31
f 86/110/29 91/115/17 97/121/27
f 91/115/17 86/110/29 88/112/33
f 90/114/18 88/112/33 89/113/34
f 88/112/33 90/114/18 91/115/17
f 90/114/18 87/111/35 92/116/20
f 87/111/35 90/114/18 89/113/34
f 96/120/28 41/58/1 94/118/23
f 41/58/22 96/120/28 42/60/4
f 96/120/28 45/66/36 42/60/4
f 45/66/10 96/120/28 97/121/27
f 95/119/25 48/72/37 44/64/8
f 48/72/16 95/119/25 93/117/21
f 87/111/35 95/119/25 92/116/20
f 95/119/25 87/111/35 85/109/32
f 97/121/27 47/70/38 45/66/10
f 47/70/14 97/121/27 91/115/17
f 100/124/81 99/123/82 98/122/83
f 99/123/82 100/124/83 101/125/82
f 108/132/84 104/128/85 102/126/86
f 104/128/85 108/132/84 109/133/85
f 109/133/85 98/122/81 104/128/85
f 98/122/83 109/133/85 100/124/81
f 110/134/87 102/126/84 103/127/87
f 102/126/86 110/134/87 108/132/84
f 111/135/88 101/125/89 100/124/88
f 101/125/90 111/135/91 112/136/90
f 114/138/92 112/136/90 113/137/92
f 112/136/89 114/138/93 101/125/89
f 116/140/94 108/132/95 115/139/95
f 108/132/96 116/140/97 109/133/97
f 118/142/98 110/134/99 117/141/98
f 110/134/100 118/142/101 119/143/100
f 114/138/93 121/145/102 120/144/102
f 121/145/103 114/138/92 113/137/92
f 116/140/97 100/124/88 109/133/97
f 100/124/91 116/140/94 111/135/91
f 119/143/99 108/132/96 110/134/99
f 108/132/95 119/143/100 115/139/95
f 121/145/102 117/141/98 120/144/102
f 117/141/101 121/145/103 118/142/101
f 99/123/82 114/138/104 107/131/105
f 114/138/105 99/123/82 101/125/82
f 120/144/106 105/129/107 106/130/106
f 105/129/108 120/144/106 117/141/107
f 107/131/104 120/144/106 106/130/106
f 120/144/106 107/131/105 114/138/104
f 117/141/107 103/127/87 105/129/108
f 103/127/87 117/141/107 110/134/87
