# Blender 3.3.1
# www.blender.org
o tree-snow-a
v -0.133432 -0.000000 0.377280
v -0.094351 -0.094351 0.377280
v -0.166882 -0.000000 0.246720
v -0.118003 -0.118003 0.246720
v -0.118003 0.118003 0.246720
v -0.145895 0.104241 0.217324
v -0.168731 0.069891 0.205920
v -0.176873 0.029454 0.217324
v 0.133432 -0.000000 0.377280
v 0.166882 -0.000000 0.246720
v 0.094351 -0.094351 0.377280
v 0.118003 -0.118003 0.246720
v -0.000000 -0.166882 0.246720
v -0.000000 -0.133432 0.377280
v -0.176873 -0.029454 0.217324
v -0.168731 -0.069891 0.205920
v -0.145895 -0.104241 0.217323
v 0.176873 -0.029454 0.217324
v 0.168731 -0.069891 0.205920
v 0.145895 -0.104241 0.217323
v 0.094351 0.094351 0.377280
v -0.000000 0.133432 0.377280
v -0.094351 0.094351 0.377280
v 0.118003 0.118003 0.246720
v 0.145895 0.104241 0.217324
v 0.168731 0.069891 0.205920
v 0.176873 0.029454 0.217324
v -0.000000 0.166882 0.246720
v 0.069891 -0.168731 0.205920
v 0.029454 -0.176873 0.217323
v 0.104241 -0.145895 0.217323
v -0.069891 -0.168731 0.205920
v -0.104241 -0.145895 0.217323
v -0.029454 -0.176873 0.217323
v -0.069891 0.168731 0.205920
v -0.029454 0.176873 0.217324
v -0.104241 0.145895 0.217324
v 0.069891 0.168731 0.205920
v 0.104241 0.145895 0.217324
v 0.029454 0.176873 0.217324
v 0.089682 0.089682 0.402278
v 0.110880 0.079223 0.379937
v 0.126830 -0.000000 0.402278
v 0.128236 0.053117 0.371270
v 0.134423 0.022385 0.379937
v -0.089682 0.089682 0.402278
v -0.071707 0.071707 0.501504
v -0.126830 -0.000000 0.402278
v -0.101409 -0.000000 0.501504
v 0.089682 -0.089683 0.402278
v 0.000000 -0.126830 0.402278
v 0.071707 -0.071707 0.501504
v 0.000000 -0.101409 0.501504
v 0.000000 0.126830 0.402278
v 0.000000 0.101408 0.501504
v 0.071707 0.071707 0.501504
v -0.071707 -0.071707 0.501504
v -0.089682 -0.089683 0.402278
v 0.053117 -0.128236 0.371270
v 0.022385 -0.134423 0.379937
v 0.079223 -0.110880 0.379937
v 0.134423 -0.022385 0.379937
v 0.128236 -0.053117 0.371270
v 0.110880 -0.079223 0.379937
v -0.134423 -0.022385 0.379937
v -0.128236 -0.053117 0.371270
v -0.110880 -0.079223 0.379937
v -0.053117 -0.128236 0.371270
v -0.079223 -0.110880 0.379937
v -0.022385 -0.134423 0.379937
v 0.101409 -0.000000 0.501504
v -0.110880 0.079223 0.379937
v -0.128236 0.053117 0.371270
v -0.134423 0.022385 0.379937
v -0.053117 0.128236 0.371270
v -0.022385 0.134423 0.379937
v -0.079223 0.110880 0.379937
v 0.053117 0.128236 0.371270
v 0.079223 0.110880 0.379937
v 0.022385 0.134423 0.379937
v -0.013219 -0.000000 0.737453
v -0.009347 -0.009347 0.737453
v -0.054076 -0.000000 0.660653
v -0.038238 -0.038238 0.660653
v 0.100196 -0.000000 0.557181
v 0.070849 -0.070849 0.557181
v 0.054076 -0.000000 0.660653
v 0.038238 -0.038238 0.660653
v 0.041962 -0.101306 0.532685
v 0.017684 -0.106194 0.539531
v 0.062586 -0.087595 0.539531
v 0.000000 -0.100196 0.557181
v 0.000000 -0.054076 0.660653
v 0.000000 -0.013219 0.737453
v -0.070849 0.070849 0.557181
v -0.038238 0.038237 0.660653
v -0.100196 -0.000000 0.557181
v 0.013219 -0.000000 0.737453
v 0.009347 -0.009347 0.737453
v -0.009347 0.009347 0.737453
v -0.087595 0.062586 0.539531
v -0.101306 0.041962 0.532685
v -0.106194 0.017684 0.539531
v -0.041962 -0.101306 0.532685
v -0.062586 -0.087595 0.539531
v -0.017684 -0.106194 0.539531
v -0.070849 -0.070849 0.557181
v 0.009347 0.009347 0.737453
v 0.000000 0.013218 0.737453
v 0.000000 0.100196 0.557181
v 0.070849 0.070849 0.557181
v 0.000000 0.054076 0.660653
v 0.038238 0.038237 0.660653
v -0.106194 -0.017684 0.539531
v -0.101306 -0.041962 0.532685
v -0.087595 -0.062586 0.539531
v 0.087595 0.062586 0.539531
v 0.101306 0.041962 0.532685
v 0.106194 0.017684 0.539531
v 0.041962 0.101306 0.532685
v 0.062586 0.087595 0.539531
v 0.017684 0.106194 0.539531
v -0.041962 0.101306 0.532685
v -0.017684 0.106194 0.539531
v -0.062586 0.087595 0.539531
v 0.106194 -0.017684 0.539531
v 0.101306 -0.041962 0.532685
v 0.087595 -0.062586 0.539531
v 0.207917 -0.000000 0.132480
v 0.147019 0.147019 0.132480
v 0.147019 -0.147019 0.132480
v 0.000000 0.207917 0.132480
v 0.000000 -0.207917 0.132480
v -0.147019 -0.147019 0.132480
v -0.147019 0.147019 0.132480
v -0.207917 -0.000000 0.132480
v 0.228480 -0.000000 0.165120
v 0.161560 -0.161560 0.165120
v -0.161560 0.161560 0.165120
v 0.000000 0.228480 0.165120
v 0.000000 -0.228480 0.165120
v -0.228480 -0.000000 0.165120
v -0.161560 -0.161560 0.165120
v 0.161560 0.161560 0.165120
v 0.118003 -0.118003 0.246720
v 0.104241 -0.145895 0.217323
v 0.069891 -0.168731 0.205920
v 0.029454 -0.176873 0.217323
v 0.000000 -0.166882 0.246720
v 0.166882 -0.000000 0.246720
v 0.176873 -0.029454 0.217324
v 0.168731 -0.069891 0.205920
v 0.145895 -0.104241 0.217323
v 0.118003 0.118003 0.246720
v 0.145895 0.104241 0.217324
v 0.168731 0.069891 0.205920
v 0.176873 0.029454 0.217324
v 0.000000 0.166882 0.246720
v 0.029454 0.176873 0.217324
v 0.069891 0.168731 0.205920
v 0.104241 0.145895 0.217324
v -0.118003 0.118003 0.246720
v -0.104241 0.145895 0.217324
v -0.069891 0.168731 0.205920
v -0.029454 0.176873 0.217324
v -0.145895 0.104241 0.217324
v -0.168731 0.069891 0.205920
v -0.176873 0.029454 0.217324
v -0.166882 -0.000000 0.246720
v -0.176873 -0.029454 0.217324
v -0.168731 -0.069891 0.205920
v -0.145895 -0.104241 0.217323
v -0.118003 -0.118003 0.246720
v -0.029454 -0.176873 0.217323
v -0.069891 -0.168731 0.205920
v -0.104241 -0.145895 0.217323
v 0.000000 0.158017 0.315456
v 0.111735 0.111735 0.315456
v 0.000000 0.173645 0.340262
v 0.122785 0.122785 0.340262
v -0.122785 0.122785 0.340262
v -0.173645 -0.000000 0.340262
v -0.111735 0.111735 0.315456
v -0.158017 -0.000000 0.315456
v 0.000000 -0.158017 0.315456
v -0.111735 -0.111735 0.315456
v 0.000000 -0.173645 0.340262
v -0.122785 -0.122785 0.340262
v 0.173645 -0.000000 0.340262
v 0.158017 -0.000000 0.315456
v 0.111735 -0.111735 0.315456
v 0.122785 -0.122785 0.340262
v -0.126830 -0.000000 0.402278
v -0.134423 -0.022385 0.379937
v -0.128236 -0.053117 0.371270
v -0.110880 -0.079223 0.379937
v -0.089682 -0.089683 0.402278
v 0.000000 -0.126830 0.402278
v -0.022385 -0.134423 0.379937
v -0.053117 -0.128236 0.371270
v -0.079223 -0.110880 0.379937
v 0.126830 -0.000000 0.402278
v 0.134423 -0.022385 0.379937
v 0.128236 -0.053117 0.371270
v 0.110880 -0.079223 0.379937
v 0.089682 -0.089683 0.402278
v 0.000000 0.126830 0.402278
v 0.022385 0.134423 0.379937
v 0.053117 0.128236 0.371270
v 0.079223 0.110880 0.379937
v 0.089682 0.089682 0.402278
v 0.079223 -0.110880 0.379937
v 0.053117 -0.128236 0.371270
v 0.022385 -0.134423 0.379937
v 0.110880 0.079223 0.379937
v 0.128236 0.053117 0.371270
v 0.134423 0.022385 0.379937
v -0.089682 0.089682 0.402278
v -0.079223 0.110880 0.379937
v -0.053117 0.128236 0.371270
v -0.022385 0.134423 0.379937
v -0.110880 0.079223 0.379937
v -0.128236 0.053117 0.371270
v -0.134423 0.022385 0.379937
v -0.088270 0.088270 0.488591
v 0.000000 0.124833 0.488591
v -0.097000 0.097000 0.508188
v 0.000000 0.137179 0.508188
v -0.137179 -0.000000 0.508188
v -0.124833 -0.000000 0.488591
v 0.000000 -0.124833 0.488591
v -0.088270 -0.088271 0.488591
v 0.000000 -0.137179 0.508188
v -0.097000 -0.097001 0.508188
v 0.124833 -0.000000 0.488591
v 0.088270 -0.088271 0.488591
v 0.137179 -0.000000 0.508188
v 0.097000 -0.097001 0.508188
v 0.088270 0.088270 0.488591
v 0.097000 0.097000 0.508188
v 0.100196 -0.000000 0.557181
v 0.106194 -0.017684 0.539531
v 0.101306 -0.041962 0.532685
v 0.087595 -0.062586 0.539531
v 0.062586 -0.087595 0.539531
v 0.041962 -0.101306 0.532685
v 0.017684 -0.106194 0.539531
v 0.000000 -0.100196 0.557181
v -0.017684 -0.106194 0.539531
v -0.041962 -0.101306 0.532685
v -0.062586 -0.087595 0.539531
v -0.100196 -0.000000 0.557181
v -0.106194 -0.017684 0.539531
v -0.101306 -0.041962 0.532685
v -0.087595 -0.062586 0.539531
v 0.000000 0.100196 0.557181
v 0.017684 0.106194 0.539531
v 0.041962 0.101306 0.532685
v 0.062586 0.087595 0.539531
v -0.087595 0.062586 0.539531
v -0.101306 0.041962 0.532685
v -0.106194 0.017684 0.539531
v 0.087595 0.062586 0.539531
v 0.101306 0.041962 0.532685
v 0.106194 0.017684 0.539531
v -0.062586 0.087595 0.539531
v -0.041962 0.101306 0.532685
v -0.017684 0.106194 0.539531
v -0.000000 -0.089856 -0.000000
v -0.063538 -0.063538 -0.000000
v -0.000000 -0.062976 0.039744
v -0.044531 -0.044531 0.039744
v 0.089856 -0.000000 -0.000000
v 0.063538 0.063538 0.000000
v 0.063538 -0.063538 -0.000000
v -0.000000 0.089856 0.000000
v -0.063538 0.063538 0.000000
v -0.089856 -0.000000 -0.000000
v 0.062976 -0.000000 0.039744
v 0.044531 -0.044531 0.039744
v 0.044531 0.044531 0.039744
v 0.000000 -0.043776 0.132480
v -0.030954 -0.030954 0.132480
v -0.043776 -0.000000 0.132480
v -0.062976 -0.000000 0.039744
v 0.043776 -0.000000 0.132480
v 0.030954 -0.030954 0.132480
v -0.000000 0.062976 0.039744
v 0.000000 0.043776 0.132480
v 0.030954 0.030954 0.132480
v -0.044531 0.044531 0.039744
v -0.030954 0.030954 0.132480
vn -0.9165 -0.0000 0.4001
vn -0.6850 -0.6850 0.2482
vn -0.9687 -0.0000 0.2482
vn -0.6480 -0.6480 0.4002
vn -0.7578 0.3139 0.5720
vn -0.6480 0.6480 0.4002
vn -0.9164 -0.0000 0.4002
vn 0.6850 -0.6850 0.2482
vn 0.9165 -0.0000 0.4001
vn 0.9687 -0.0000 0.2482
vn 0.6480 -0.6480 0.4002
vn -0.0000 -0.9687 0.2482
vn -0.6480 -0.6480 0.4001
vn -0.0000 -0.9164 0.4002
vn -0.7578 -0.3139 0.5720
vn 0.6480 -0.6480 0.4001
vn 0.7578 -0.3139 0.5720
vn 0.9164 -0.0000 0.4002
vn -0.0000 -0.0000 1.0000
vn -0.6850 0.6850 0.2482
vn 0.7578 0.3139 0.5720
vn 0.6480 0.6480 0.4002
vn -0.0000 0.9165 0.4001
vn -0.0000 0.9687 0.2482
vn 0.3139 -0.7578 0.5720
vn -0.0000 -0.9165 0.4001
vn -0.3139 -0.7578 0.5720
vn -0.3139 0.7578 0.5720
vn -0.0000 0.9164 0.4002
vn 0.6480 0.6480 0.4001
vn 0.6850 0.6850 0.2482
vn 0.3139 0.7578 0.5720
vn -0.6480 0.6480 0.4001
vn -0.9003 -0.0000 0.4353
vn -0.6243 -0.6243 0.4697
vn -0.8828 -0.0000 0.4697
vn -0.9003 -0.0000 0.4354
vn -0.6366 -0.6366 0.4353
vn 0.9003 -0.0000 0.4354
vn 0.6158 -0.6158 0.4915
vn 0.8709 -0.0000 0.4915
vn 0.9003 -0.0000 0.4353
vn 0.6366 -0.6366 0.4353
vn -0.0000 -0.8709 0.4915
vn -0.0000 -0.8828 0.4697
vn -0.6366 -0.6366 0.4354
vn -0.0000 -0.9003 0.4353
vn -0.0000 -0.8829 0.4697
vn -0.8709 -0.0000 0.4915
vn -0.6366 0.6366 0.4354
vn -0.6158 0.6158 0.4915
vn -0.6366 0.6366 0.4353
vn 0.6243 -0.6243 0.4697
vn 0.8828 -0.0000 0.4697
vn -0.6243 0.6243 0.4697
vn -0.6158 -0.6158 0.4915
vn -0.0000 0.9003 0.4354
vn 0.6158 0.6158 0.4915
vn -0.0000 0.8709 0.4915
vn -0.0000 0.9003 0.4353
vn 0.6366 0.6366 0.4353
vn 0.6366 -0.6366 0.4354
vn 0.6243 0.6243 0.4697
vn -0.0000 -0.9003 0.4354
vn -0.0000 0.8828 0.4697
vn 0.6366 0.6366 0.4354
vn -0.0000 0.8829 0.4697
vn -0.0000 -0.0000 -1.0000
vn 0.9993 -0.0000 0.0373
vn 0.5983 -0.5983 -0.5330
vn 0.8461 -0.0000 -0.5330
vn 0.7066 -0.7066 0.0373
vn -0.7066 0.7066 0.0373
vn -0.0000 0.8461 -0.5330
vn -0.5983 0.5983 -0.5330
vn -0.0000 0.9993 0.0373
vn -0.0000 -0.8461 -0.5330
vn -0.0000 -0.9993 0.0373
vn -0.9993 -0.0000 0.0373
vn -0.8461 -0.0000 -0.5330
vn -0.5983 -0.5983 -0.5330
vn -0.7066 -0.7066 0.0373
vn 0.5983 0.5983 -0.5330
vn 0.7066 0.7066 0.0373
vn 0.5643 -0.5644 0.6025
vn -0.0000 -0.7981 0.6025
vn 0.7981 -0.0000 0.6025
vn 0.5644 -0.5643 0.6025
vn 0.5644 0.5643 0.6025
vn -0.0000 0.7981 0.6025
vn 0.5643 0.5644 0.6025
vn -0.5643 0.5644 0.6025
vn -0.5644 0.5643 0.6025
vn -0.7981 -0.0000 0.6025
vn -0.5644 -0.5643 0.6025
vn -0.5643 -0.5644 0.6025
vn -0.0000 -0.8283 0.5602
vn -0.5857 -0.5857 0.5602
vn -0.0000 -0.8284 0.5602
vn 0.8283 -0.0000 0.5602
vn 0.5857 -0.5857 0.5602
vn 0.5857 0.5857 0.5602
vn 0.8284 -0.0000 0.5602
vn -0.0000 -0.9792 0.2028
vn -0.6924 -0.6924 0.2028
vn -0.6924 -0.6924 0.2027
vn -0.0000 -0.9792 0.2027
vn -0.9792 -0.0000 0.2027
vn -0.9792 -0.0000 0.2028
vn 0.6924 -0.6924 0.2027
vn 0.9792 -0.0000 0.2027
vn 0.9792 -0.0000 0.2028
vn 0.6924 -0.6924 0.2028
vn -0.0000 0.9792 0.2028
vn 0.6924 0.6924 0.2028
vn 0.6924 0.6924 0.2027
vn -0.0000 0.9792 0.2027
vn -0.6924 0.6924 0.2028
vn -0.6924 0.6924 0.2027
vn -0.8283 -0.0000 0.5602
vn -0.5857 0.5857 0.5602
vn -0.0000 0.8283 0.5602
vn -0.0000 0.8284 0.5602
vn -0.8284 -0.0000 0.5602
vt 0.093750 0.225000
vt 0.093750 0.225000
vt 0.093750 0.072619
vt 0.093750 0.072619
vt 0.093750 0.072619
vt 0.093750 0.038309
vt 0.093750 0.025000
vt 0.093750 0.038309
vt 0.093750 0.225000
vt 0.093750 0.072619
vt 0.093750 0.225000
vt 0.093750 0.072619
vt 0.093750 0.072619
vt 0.093750 0.225000
vt 0.093750 0.038309
vt 0.093750 0.025000
vt 0.093750 0.038309
vt 0.093750 0.038309
vt 0.093750 0.025000
vt 0.093750 0.038309
vt 0.093750 0.225000
vt 0.093750 0.225000
vt 0.093750 0.225000
vt 0.093750 0.072619
vt 0.093750 0.038309
vt 0.093750 0.025000
vt 0.093750 0.038309
vt 0.093750 0.072619
vt 0.093750 0.025000
vt 0.093750 0.038309
vt 0.093750 0.038309
vt 0.093750 0.025000
vt 0.093750 0.038309
vt 0.093750 0.038309
vt 0.093750 0.025000
vt 0.093750 0.038309
vt 0.093750 0.038309
vt 0.093750 0.025000
vt 0.093750 0.038309
vt 0.093750 0.038309
vt 0.093750 0.072619
vt 0.093750 0.038309
vt 0.093750 0.072619
vt 0.093750 0.025000
vt 0.093750 0.038309
vt 0.093750 0.072619
vt 0.093750 0.225000
vt 0.093750 0.072619
vt 0.093750 0.225000
vt 0.093750 0.072619
vt 0.093750 0.072619
vt 0.093750 0.225000
vt 0.093750 0.225000
vt 0.093750 0.072619
vt 0.093750 0.225000
vt 0.093750 0.225000
vt 0.093750 0.225000
vt 0.093750 0.072619
vt 0.093750 0.025000
vt 0.093750 0.038309
vt 0.093750 0.038309
vt 0.093750 0.038309
vt 0.093750 0.025000
vt 0.093750 0.038309
vt 0.093750 0.038309
vt 0.093750 0.025000
vt 0.093750 0.038309
vt 0.093750 0.025000
vt 0.093750 0.038309
vt 0.093750 0.038309
vt 0.093750 0.225000
vt 0.093750 0.038309
vt 0.093750 0.025000
vt 0.093750 0.038309
vt 0.093750 0.025000
vt 0.093750 0.038309
vt 0.093750 0.038309
vt 0.093750 0.025000
vt 0.093750 0.038309
vt 0.093750 0.038309
vt 0.093750 0.225000
vt 0.093750 0.225000
vt 0.093750 0.149989
vt 0.093750 0.149989
vt 0.093750 0.048926
vt 0.093750 0.048926
vt 0.718750 0.475000
vt 0.093750 0.149989
vt 0.093750 0.149989
vt 0.093750 0.025000
vt 0.093750 0.031687
vt 0.093750 0.031687
vt 0.093750 0.048926
vt 0.093750 0.149989
vt 0.093750 0.225000
vt 0.093750 0.048926
vt 0.718750 0.475000
vt 0.093750 0.149989
vt 0.093750 0.048926
vt 0.093750 0.225000
vt 0.093750 0.225000
vt 0.093750 0.225000
vt 0.093750 0.031687
vt 0.093750 0.025000
vt 0.093750 0.031687
vt 0.093750 0.025000
vt 0.093750 0.031687
vt 0.093750 0.031687
vt 0.093750 0.048926
vt 0.718750 0.475000
vt 0.093750 0.225000
vt 0.093750 0.225000
vt 0.093750 0.048926
vt 0.093750 0.048926
vt 0.718750 0.475000
vt 0.093750 0.149989
vt 0.093750 0.149989
vt 0.093750 0.031687
vt 0.093750 0.025000
vt 0.093750 0.031687
vt 0.093750 0.031687
vt 0.093750 0.025000
vt 0.093750 0.031687
vt 0.093750 0.025000
vt 0.093750 0.031687
vt 0.093750 0.031687
vt 0.093750 0.025000
vt 0.093750 0.031687
vt 0.093750 0.031687
vt 0.093750 0.031687
vt 0.093750 0.025000
vt 0.093750 0.031687
vt 0.718750 0.275000
vt 0.718750 0.275000
vt 0.718750 0.275000
vt 0.718750 0.275000
vt 0.718750 0.275000
vt 0.718750 0.275000
vt 0.718750 0.275000
vt 0.718750 0.275000
vt 0.718750 0.332143
vt 0.718750 0.332143
vt 0.718750 0.332143
vt 0.718750 0.332143
vt 0.718750 0.332143
vt 0.718750 0.332143
vt 0.718750 0.332143
vt 0.718750 0.332143
vt 0.718750 0.475000
vt 0.718750 0.423535
vt 0.718750 0.403571
vt 0.718750 0.423535
vt 0.718750 0.475000
vt 0.718750 0.475000
vt 0.718750 0.423535
vt 0.718750 0.403571
vt 0.718750 0.423535
vt 0.718750 0.475000
vt 0.718750 0.423535
vt 0.718750 0.403571
vt 0.718750 0.423535
vt 0.718750 0.475000
vt 0.718750 0.423535
vt 0.718750 0.403571
vt 0.718750 0.423535
vt 0.718750 0.475000
vt 0.718750 0.423535
vt 0.718750 0.403571
vt 0.718750 0.423535
vt 0.718750 0.423535
vt 0.718750 0.403571
vt 0.718750 0.423535
vt 0.718750 0.475000
vt 0.718750 0.423535
vt 0.718750 0.403571
vt 0.718750 0.423535
vt 0.718750 0.475000
vt 0.718750 0.423535
vt 0.718750 0.403571
vt 0.718750 0.423535
vt 0.718750 0.275000
vt 0.718750 0.275000
vt 0.718750 0.332143
vt 0.718750 0.332143
vt 0.718750 0.332143
vt 0.718750 0.332143
vt 0.718750 0.275000
vt 0.718750 0.275000
vt 0.718750 0.275000
vt 0.718750 0.275000
vt 0.718750 0.332143
vt 0.718750 0.332143
vt 0.718750 0.332143
vt 0.718750 0.275000
vt 0.718750 0.275000
vt 0.718750 0.332143
vt 0.718750 0.475000
vt 0.718750 0.423535
vt 0.718750 0.403571
vt 0.718750 0.423535
vt 0.718750 0.475000
vt 0.718750 0.475000
vt 0.718750 0.423535
vt 0.718750 0.403571
vt 0.718750 0.423535
vt 0.718750 0.475000
vt 0.718750 0.423535
vt 0.718750 0.403571
vt 0.718750 0.423535
vt 0.718750 0.475000
vt 0.718750 0.475000
vt 0.718750 0.423535
vt 0.718750 0.403571
vt 0.718750 0.423535
vt 0.718750 0.475000
vt 0.718750 0.423535
vt 0.718750 0.403571
vt 0.718750 0.423535
vt 0.718750 0.423535
vt 0.718750 0.403571
vt 0.718750 0.423535
vt 0.718750 0.475000
vt 0.718750 0.423535
vt 0.718750 0.403571
vt 0.718750 0.423535
vt 0.718750 0.423535
vt 0.718750 0.403571
vt 0.718750 0.423535
vt 0.718750 0.275000
vt 0.718750 0.275000
vt 0.718750 0.332143
vt 0.718750 0.332143
vt 0.718750 0.332143
vt 0.718750 0.275000
vt 0.718750 0.275000
vt 0.718750 0.275000
vt 0.718750 0.332143
vt 0.718750 0.332143
vt 0.718750 0.275000
vt 0.718750 0.275000
vt 0.718750 0.332143
vt 0.718750 0.332143
vt 0.718750 0.275000
vt 0.718750 0.332143
vt 0.718750 0.475000
vt 0.718750 0.423535
vt 0.718750 0.403571
vt 0.718750 0.423535
vt 0.718750 0.423535
vt 0.718750 0.403571
vt 0.718750 0.423535
vt 0.718750 0.475000
vt 0.718750 0.423535
vt 0.718750 0.403571
vt 0.718750 0.423535
vt 0.718750 0.475000
vt 0.718750 0.423535
vt 0.718750 0.403571
vt 0.718750 0.423535
vt 0.718750 0.475000
vt 0.718750 0.423535
vt 0.718750 0.403571
vt 0.718750 0.423535
vt 0.718750 0.423535
vt 0.718750 0.403571
vt 0.718750 0.423535
vt 0.718750 0.423535
vt 0.718750 0.403571
vt 0.718750 0.423535
vt 0.718750 0.423535
vt 0.718750 0.403571
vt 0.718750 0.423535
vt 0.218750 0.475000
vt 0.218750 0.475000
vt 0.218750 0.415000
vt 0.218750 0.415000
vt 0.218750 0.475000
vt 0.218750 0.475000
vt 0.218750 0.475000
vt 0.218750 0.475000
vt 0.218750 0.475000
vt 0.218750 0.475000
vt 0.218750 0.415000
vt 0.218750 0.415000
vt 0.218750 0.415000
vt 0.218750 0.275000
vt 0.218750 0.275000
vt 0.218750 0.275000
vt 0.218750 0.415000
vt 0.218750 0.275000
vt 0.218750 0.275000
vt 0.218750 0.415000
vt 0.218750 0.275000
vt 0.218750 0.275000
vt 0.218750 0.415000
vt 0.218750 0.275000
s 0
f 3/3/1 2/2/2 1/1/3
f 2/2/2 3/3/1 4/4/4
f 6/6/5 3/3/1 5/5/6
f 3/3/7 6/6/5 7/7/5
f 3/3/1 7/7/5 8/8/5
f 11/11/8 10/10/9 9/9/10
f 10/10/9 11/11/8 12/12/11
f 14/14/12 4/4/13 13/13/14
f 4/4/13 14/14/12 2/2/2
f 15/15/15 4/4/13 3/3/7
f 4/4/4 15/15/15 16/16/15
f 4/4/13 16/16/15 17/17/15
f 12/12/16 18/18/17 10/10/18
f 18/18/17 12/12/11 19/19/17
f 19/19/17 12/12/16 20/20/17
f 21/21/19 11/11/19 9/9/19
f 11/11/19 21/21/19 22/22/19
f 11/11/19 22/22/19 14/14/19
f 14/14/19 22/22/19 23/23/19
f 14/14/19 23/23/19 2/2/19
f 2/2/19 23/23/19 1/1/19
f 3/3/1 23/23/20 5/5/6
f 23/23/20 3/3/1 1/1/3
f 10/10/9 25/25/21 24/24/22
f 25/25/21 10/10/18 26/26/21
f 26/26/21 10/10/9 27/27/21
f 23/23/20 28/28/23 5/5/6
f 28/28/23 23/23/20 22/22/24
f 31/31/25 30/30/25 29/29/25
f 30/30/25 31/31/25 13/13/14
f 13/13/26 31/31/25 12/12/11
f 11/11/8 13/13/26 12/12/11
f 13/13/26 11/11/8 14/14/12
f 34/34/27 33/33/27 32/32/27
f 33/33/27 34/34/27 13/13/14
f 33/33/27 13/13/26 4/4/4
f 37/37/28 36/36/28 35/35/28
f 36/36/28 37/37/28 28/28/29
f 28/28/23 37/37/28 5/5/6
f 22/22/24 24/24/30 28/28/29
f 24/24/30 22/22/24 21/21/31
f 40/40/32 39/39/32 38/38/32
f 39/39/32 40/40/32 28/28/29
f 39/39/32 28/28/23 24/24/22
f 21/21/31 10/10/9 24/24/22
f 10/10/9 21/21/31 9/9/10
f 43/43/9 42/42/21 41/41/22
f 42/42/21 43/43/18 44/44/21
f 44/44/21 43/43/9 45/45/21
f 48/48/1 47/47/20 46/46/6
f 47/47/20 48/48/1 49/49/3
f 52/52/8 51/51/26 50/50/11
f 51/51/26 52/52/8 53/53/12
f 55/55/24 41/41/30 54/54/29
f 41/41/30 55/55/24 56/56/31
f 48/48/1 57/57/2 49/49/3
f 57/57/2 48/48/1 58/58/4
f 53/53/12 58/58/13 51/51/14
f 58/58/13 53/53/12 57/57/2
f 61/61/25 60/60/25 59/59/25
f 60/60/25 61/61/25 51/51/14
f 51/51/26 61/61/25 50/50/11
f 50/50/16 62/62/17 43/43/18
f 62/62/17 50/50/11 63/63/17
f 63/63/17 50/50/16 64/64/17
f 65/65/15 58/58/13 48/48/7
f 58/58/4 65/65/15 66/66/15
f 58/58/13 66/66/15 67/67/15
f 47/47/20 54/54/23 46/46/6
f 54/54/23 47/47/20 55/55/24
f 70/70/27 69/69/27 68/68/27
f 69/69/27 70/70/27 58/58/4
f 58/58/13 70/70/27 51/51/14
f 52/52/8 43/43/9 71/71/10
f 43/43/9 52/52/8 50/50/11
f 72/72/5 48/48/1 46/46/6
f 48/48/7 72/72/5 73/73/5
f 48/48/1 73/73/5 74/74/5
f 56/56/19 52/52/19 71/71/19
f 52/52/19 56/56/19 55/55/19
f 52/52/19 55/55/19 53/53/19
f 53/53/19 55/55/19 47/47/19
f 53/53/19 47/47/19 57/57/19
f 57/57/19 47/47/19 49/49/19
f 56/56/31 43/43/9 41/41/22
f 43/43/9 56/56/31 71/71/10
f 77/77/28 76/76/28 75/75/28
f 76/76/28 77/77/28 46/46/6
f 76/76/28 46/46/33 54/54/29
f 80/80/32 79/79/32 78/78/32
f 79/79/32 80/80/32 41/41/22
f 41/41/30 80/80/32 54/54/29
f 83/83/34 82/82/35 81/81/36
f 82/82/35 83/83/37 84/84/38
f 87/88/39 86/86/40 85/85/41
f 86/86/40 87/88/42 88/89/43
f 91/92/25 90/91/25 89/90/25
f 90/91/25 91/92/25 86/86/40
f 90/91/25 86/86/40 92/93/44
f 94/95/45 84/84/46 93/94/47
f 84/84/38 94/95/48 82/82/35
f 97/99/49 96/98/50 95/96/51
f 96/98/52 97/99/49 83/83/34
f 99/101/53 87/88/42 98/100/54
f 87/88/39 99/101/53 88/89/43
f 83/83/37 100/102/55 96/98/52
f 100/102/55 83/83/34 81/81/36
f 101/103/5 97/99/49 95/96/51
f 97/99/49 101/103/5 102/104/5
f 97/99/49 102/104/5 103/105/5
f 106/108/27 105/107/27 104/106/27
f 105/107/27 106/108/27 107/109/56
f 107/109/56 106/108/27 92/93/44
f 108/111/19 99/101/19 98/100/19
f 99/101/19 108/111/19 109/112/19
f 99/101/19 109/112/19 94/95/19
f 94/95/19 109/112/19 100/102/19
f 94/95/19 100/102/19 82/82/19
f 82/82/19 100/102/19 81/81/19
f 112/116/57 111/114/58 110/113/59
f 111/114/58 112/116/60 113/117/61
f 88/89/62 92/93/44 86/86/40
f 92/93/44 88/89/43 93/94/47
f 108/111/63 87/88/39 113/117/61
f 87/88/42 108/111/63 98/100/54
f 114/118/15 107/109/56 97/99/49
f 107/109/56 114/118/15 115/119/15
f 107/109/56 115/119/15 116/120/15
f 85/85/41 117/121/21 111/114/58
f 117/121/21 85/85/41 118/122/21
f 118/122/21 85/85/41 119/123/21
f 93/94/64 107/109/56 92/93/44
f 107/109/56 93/94/47 84/84/38
f 99/101/53 93/94/64 88/89/43
f 93/94/47 99/101/53 94/95/45
f 100/102/55 112/116/57 96/98/52
f 112/116/60 100/102/55 109/112/65
f 109/112/65 113/117/66 112/116/60
f 113/117/61 109/112/67 108/111/63
f 122/126/32 121/125/32 120/124/32
f 121/125/32 122/126/32 111/114/58
f 111/114/58 122/126/32 110/113/59
f 96/98/50 110/113/59 95/96/51
f 110/113/59 96/98/52 112/116/60
f 107/109/56 83/83/37 97/99/49
f 83/83/34 107/109/56 84/84/38
f 125/129/28 124/128/28 123/127/28
f 124/128/28 125/129/28 110/113/59
f 110/113/59 125/129/28 95/96/51
f 86/86/40 126/130/17 85/85/41
f 126/130/17 86/86/40 127/131/17
f 127/131/17 86/86/40 128/132/17
f 113/117/66 85/85/41 111/114/58
f 85/85/41 113/117/61 87/88/42
f 131/135/68 130/134/68 129/133/68
f 130/134/68 131/135/68 132/136/68
f 132/136/68 131/135/68 133/137/68
f 132/136/68 133/137/68 134/138/68
f 132/136/68 134/138/68 135/139/68
f 135/139/68 134/138/68 136/140/68
f 137/141/69 131/135/70 129/133/71
f 131/135/70 137/141/69 138/142/72
f 139/143/73 132/136/74 135/139/75
f 132/136/74 139/143/73 140/144/76
f 138/142/72 133/137/77 131/135/70
f 133/137/77 138/142/72 141/145/78
f 135/139/75 142/146/79 139/143/73
f 142/146/79 135/139/75 136/140/80
f 141/145/78 134/138/81 133/137/77
f 134/138/81 141/145/78 143/147/82
f 137/141/69 130/134/83 144/148/84
f 130/134/83 137/141/69 129/133/71
f 140/144/76 130/134/83 132/136/74
f 130/134/83 140/144/76 144/148/84
f 134/138/81 142/146/79 136/140/80
f 142/146/79 134/138/81 143/147/82
f 146/150/25 138/142/72 145/149/85
f 138/142/72 146/150/25 141/145/78
f 141/145/78 146/150/25 147/151/25
f 148/152/25 141/145/78 147/151/25
f 141/145/78 148/152/25 149/153/86
f 151/155/17 137/141/69 150/154/87
f 137/141/69 151/155/17 138/142/72
f 138/142/72 151/155/17 152/156/17
f 138/142/72 152/156/17 153/157/17
f 138/142/72 153/157/17 145/149/88
f 155/159/21 144/148/84 154/158/89
f 144/148/84 155/159/21 137/141/69
f 137/141/69 155/159/21 156/160/21
f 137/141/69 156/160/21 157/161/21
f 137/141/69 157/161/21 150/154/87
f 159/163/32 140/144/76 158/162/90
f 140/144/76 159/163/32 144/148/84
f 144/148/84 159/163/32 160/164/32
f 161/165/32 144/148/84 160/164/32
f 144/148/84 161/165/32 154/158/91
f 163/167/28 139/143/73 162/166/92
f 139/143/73 163/167/28 140/144/76
f 140/144/76 163/167/28 164/168/28
f 165/169/28 140/144/76 164/168/28
f 140/144/76 165/169/28 158/162/90
f 139/143/73 166/170/5 162/166/93
f 166/170/5 139/143/73 142/146/79
f 166/170/5 142/146/79 167/171/5
f 167/171/5 142/146/79 168/172/5
f 168/172/5 142/146/79 169/173/94
f 142/146/79 170/174/15 169/173/94
f 170/174/15 142/146/79 143/147/82
f 170/174/15 143/147/82 171/175/15
f 171/175/15 143/147/82 172/176/15
f 172/176/15 143/147/82 173/177/95
f 174/178/27 141/145/78 149/153/86
f 141/145/78 174/178/27 143/147/82
f 143/147/82 174/178/27 175/179/27
f 176/180/27 143/147/82 175/179/27
f 143/147/82 176/180/27 173/177/96
f 179/183/76 178/182/83 177/181/74
f 178/182/83 179/183/76 180/184/84
f 183/187/75 182/186/79 181/185/73
f 182/186/79 183/187/75 184/188/80
f 187/191/78 186/190/81 185/189/77
f 186/190/81 187/191/78 188/192/82
f 186/190/81 182/186/79 184/188/80
f 182/186/79 186/190/81 188/192/82
f 189/193/69 178/182/83 180/184/84
f 178/182/83 189/193/69 190/194/71
f 191/195/68 178/182/68 190/194/68
f 178/182/68 191/195/68 185/189/68
f 178/182/68 185/189/68 177/181/68
f 177/181/68 185/189/68 186/190/68
f 177/181/68 186/190/68 183/187/68
f 183/187/68 186/190/68 184/188/68
f 181/185/73 177/181/74 183/187/75
f 177/181/74 181/185/73 179/183/76
f 192/196/72 185/189/77 191/195/70
f 185/189/77 192/196/72 187/191/78
f 192/196/72 190/194/71 189/193/69
f 190/194/71 192/196/72 191/195/70
f 182/186/79 194/198/15 193/197/94
f 194/198/15 182/186/79 188/192/82
f 194/198/15 188/192/82 195/199/15
f 195/199/15 188/192/82 196/200/15
f 196/200/15 188/192/82 197/201/95
f 199/203/27 187/191/78 198/202/86
f 187/191/78 199/203/27 188/192/82
f 188/192/82 199/203/27 200/204/27
f 201/205/27 188/192/82 200/204/27
f 188/192/82 201/205/27 197/201/96
f 203/207/17 189/193/69 202/206/87
f 189/193/69 203/207/17 192/196/72
f 192/196/72 203/207/17 204/208/17
f 192/196/72 204/208/17 205/209/17
f 192/196/72 205/209/17 206/210/88
f 208/212/32 179/183/76 207/211/90
f 179/183/76 208/212/32 180/184/84
f 180/184/84 208/212/32 209/213/32
f 210/214/32 180/184/84 209/213/32
f 180/184/84 210/214/32 211/215/91
f 212/216/25 192/196/72 206/210/85
f 192/196/72 212/216/25 187/191/78
f 187/191/78 212/216/25 213/217/25
f 214/218/25 187/191/78 213/217/25
f 187/191/78 214/218/25 198/202/86
f 215/219/21 180/184/84 211/215/89
f 180/184/84 215/219/21 189/193/69
f 189/193/69 215/219/21 216/220/21
f 189/193/69 216/220/21 217/221/21
f 189/193/69 217/221/21 202/206/87
f 219/223/28 181/185/73 218/222/92
f 181/185/73 219/223/28 179/183/76
f 179/183/76 219/223/28 220/224/28
f 221/225/28 179/183/76 220/224/28
f 179/183/76 221/225/28 207/211/90
f 181/185/73 222/226/5 218/222/93
f 222/226/5 181/185/73 182/186/79
f 222/226/5 182/186/79 223/227/5
f 223/227/5 182/186/79 224/228/5
f 224/228/5 182/186/79 193/197/94
f 227/231/73 226/230/74 225/229/75
f 226/230/74 227/231/73 228/232/76
f 225/229/75 229/233/79 227/231/73
f 229/233/79 225/229/75 230/234/80
f 233/237/78 232/236/81 231/235/77
f 232/236/81 233/237/78 234/238/82
f 237/241/69 236/240/70 235/239/71
f 236/240/70 237/241/69 238/242/72
f 236/240/68 239/243/68 235/239/68
f 239/243/68 236/240/68 231/235/68
f 239/243/68 231/235/68 226/230/68
f 226/230/68 231/235/68 232/236/68
f 226/230/68 232/236/68 225/229/68
f 225/229/68 232/236/68 230/234/68
f 238/242/72 231/235/77 236/240/70
f 231/235/77 238/242/72 233/237/78
f 232/236/81 229/233/79 230/234/80
f 229/233/79 232/236/81 234/238/82
f 228/232/76 239/243/83 226/230/74
f 239/243/83 228/232/76 240/244/84
f 237/241/69 239/243/83 240/244/84
f 239/243/83 237/241/69 235/239/71
f 242/246/17 237/241/69 241/245/87
f 237/241/69 242/246/17 238/242/72
f 238/242/72 242/246/17 243/247/17
f 238/242/72 243/247/17 244/248/17
f 238/242/72 244/248/17 86/87/88
f 245/249/25 238/242/72 86/87/85
f 238/242/72 245/249/25 233/237/78
f 233/237/78 245/249/25 246/250/25
f 247/251/25 233/237/78 246/250/25
f 233/237/78 247/251/25 248/252/86
f 249/253/27 233/237/78 248/252/86
f 233/237/78 249/253/27 234/238/82
f 234/238/82 249/253/27 250/254/27
f 251/255/27 234/238/82 250/254/27
f 234/238/82 251/255/27 107/110/96
f 229/233/79 253/257/15 252/256/94
f 253/257/15 229/233/79 234/238/82
f 253/257/15 234/238/82 254/258/15
f 254/258/15 234/238/82 255/259/15
f 255/259/15 234/238/82 107/110/95
f 257/261/32 228/232/76 256/260/90
f 228/232/76 257/261/32 240/244/84
f 240/244/84 257/261/32 258/262/32
f 259/263/32 240/244/84 258/262/32
f 240/244/84 259/263/32 111/115/91
f 227/231/73 260/264/5 95/97/93
f 260/264/5 227/231/73 229/233/79
f 260/264/5 229/233/79 261/265/5
f 261/265/5 229/233/79 262/266/5
f 262/266/5 229/233/79 252/256/94
f 263/267/21 240/244/84 111/115/89
f 240/244/84 263/267/21 237/241/69
f 237/241/69 263/267/21 264/268/21
f 237/241/69 264/268/21 265/269/21
f 237/241/69 265/269/21 241/245/87
f 266/270/28 227/231/73 95/97/92
f 227/231/73 266/270/28 228/232/76
f 228/232/76 266/270/28 267/271/28
f 268/272/28 228/232/76 267/271/28
f 228/232/76 268/272/28 256/260/90
f 271/275/97 270/274/98 269/273/97
f 270/274/98 271/275/99 272/276/98
f 275/279/68 274/278/68 273/277/68
f 274/278/68 275/279/68 269/273/68
f 274/278/68 269/273/68 276/280/68
f 276/280/68 269/273/68 270/274/68
f 276/280/68 270/274/68 277/281/68
f 277/281/68 270/274/68 278/282/68
f 279/283/100 275/279/101 273/277/100
f 275/279/101 279/283/100 280/284/101
f 280/284/101 269/273/97 275/279/101
f 269/273/99 280/284/101 271/275/97
f 281/285/102 273/277/100 274/278/102
f 273/277/103 281/285/102 279/283/100
f 282/286/104 272/276/105 271/275/104
f 272/276/106 282/286/107 283/287/106
f 285/289/108 283/287/106 284/288/108
f 283/287/105 285/289/109 272/276/105
f 287/291/110 279/283/111 286/290/111
f 279/283/112 287/291/113 280/284/113
f 289/293/114 281/285/115 288/292/114
f 281/285/116 289/293/117 290/294/116
f 285/289/109 292/296/118 291/295/118
f 292/296/119 285/289/108 284/288/108
f 287/291/113 271/275/104 280/284/113
f 271/275/107 287/291/110 282/286/107
f 290/294/115 279/283/112 281/285/115
f 279/283/111 290/294/116 286/290/111
f 292/296/118 288/292/114 291/295/118
f 288/292/117 292/296/119 289/293/117
f 270/274/98 285/289/120 278/282/120
f 285/289/120 270/274/98 272/276/98
f 291/295/121 276/280/122 277/281/121
f 276/280/123 291/295/121 288/292/122
f 278/282/120 291/295/121 277/281/121
f 291/295/121 278/282/124 285/289/120
f 288/292/122 274/278/102 276/280/122
f 274/278/102 288/292/122 281/285/102
f 3/3/1 2/2/2 1/1/3
f 2/2/2 3/3/1 4/4/4
f 6/6/5 3/3/1 5/5/6
f 3/3/7 6/6/5 7/7/5
f 3/3/1 7/7/5 8/8/5
f 11/11/8 10/10/9 9/9/10
f 10/10/9 11/11/8 12/12/11
f 14/14/12 4/4/13 13/13/14
f 4/4/13 14/14/12 2/2/2
f 15/15/15 4/4/13 3/3/7
f 4/4/4 15/15/15 16/16/15
f 4/4/13 16/16/15 17/17/15
f 12/12/16 18/18/17 10/10/18
f 18/18/17 12/12/11 19/19/17
f 19/19/17 12/12/16 20/20/17
f 21/21/19 11/11/19 9/9/19
f 11/11/19 21/21/19 22/22/19
f 11/11/19 22/22/19 14/14/19
f 14/14/19 22/22/19 23/23/19
f 14/14/19 23/23/19 2/2/19
f 2/2/19 23/23/19 1/1/19
f 3/3/1 23/23/20 5/5/6
f 23/23/20 3/3/1 1/1/3
f 10/10/9 25/25/21 24/24/22
f 25/25/21 10/10/18 26/26/21
f 26/26/21 10/10/9 27/27/21
f 23/23/20 28/28/23 5/5/6
f 28/28/23 23/23/20 22/22/24
f 31/31/25 30/30/25 29/29/25
f 30/30/25 31/31/25 13/13/14
f 13/13/26 31/31/25 12/12/11
f 11/11/8 13/13/26 12/12/11
f 13/13/26 11/11/8 14/14/12
f 34/34/27 33/33/27 32/32/27
f 33/33/27 34/34/27 13/13/14
f 33/33/27 13/13/26 4/4/4
f 37/37/28 36/36/28 35/35/28
f 36/36/28 37/37/28 28/28/29
f 28/28/23 37/37/28 5/5/6
f 22/22/24 24/24/30 28/28/29
f 24/24/30 22/22/24 21/21/31
f 40/40/32 39/39/32 38/38/32
f 39/39/32 40/40/32 28/28/29
f 39/39/32 28/28/23 24/24/22
f 21/21/31 10/10/9 24/24/22
f 10/10/9 21/21/31 9/9/10
f 43/43/9 42/42/21 41/41/22
f 42/42/21 43/43/18 44/44/21
f 44/44/21 43/43/9 45/45/21
f 48/48/1 47/47/20 46/46/6
f 47/47/20 48/48/1 49/49/3
f 52/52/8 51/51/26 50/50/11
f 51/51/26 52/52/8 53/53/12
f 55/55/24 41/41/30 54/54/29
f 41/41/30 55/55/24 56/56/31
f 48/48/1 57/57/2 49/49/3
f 57/57/2 48/48/1 58/58/4
f 53/53/12 58/58/13 51/51/14
f 58/58/13 53/53/12 57/57/2
f 61/61/25 60/60/25 59/59/25
f 60/60/25 61/61/25 51/51/14
f 51/51/26 61/61/25 50/50/11
f 50/50/16 62/62/17 43/43/18
f 62/62/17 50/50/11 63/63/17
f 63/63/17 50/50/16 64/64/17
f 65/65/15 58/58/13 48/48/7
f 58/58/4 65/65/15 66/66/15
f 58/58/13 66/66/15 67/67/15
f 47/47/20 54/54/23 46/46/6
f 54/54/23 47/47/20 55/55/24
f 70/70/27 69/69/27 68/68/27
f 69/69/27 70/70/27 58/58/4
f 58/58/13 70/70/27 51/51/14
f 52/52/8 43/43/9 71/71/10
f 43/43/9 52/52/8 50/50/11
f 72/72/5 48/48/1 46/46/6
f 48/48/7 72/72/5 73/73/5
f 48/48/1 73/73/5 74/74/5
f 56/56/19 52/52/19 71/71/19
f 52/52/19 56/56/19 55/55/19
f 52/52/19 55/55/19 53/53/19
f 53/53/19 55/55/19 47/47/19
f 53/53/19 47/47/19 57/57/19
f 57/57/19 47/47/19 49/49/19
f 56/56/31 43/43/9 41/41/22
f 43/43/9 56/56/31 71/71/10
f 77/77/28 76/76/28 75/75/28
f 76/76/28 77/77/28 46/46/6
f 76/76/28 46/46/33 54/54/29
f 80/80/32 79/79/32 78/78/32
f 79/79/32 80/80/32 41/41/22
f 41/41/30 80/80/32 54/54/29
f 83/83/34 82/82/35 81/81/36
f 82/82/35 83/83/37 84/84/38
f 87/88/39 86/86/40 85/85/41
f 86/86/40 87/88/42 88/89/43
f 91/92/25 90/91/25 89/90/25
f 90/91/25 91/92/25 86/86/40
f 90/91/25 86/86/40 92/93/44
f 94/95/45 84/84/46 93/94/47
f 84/84/38 94/95/48 82/82/35
f 97/99/49 96/98/50 95/96/51
f 96/98/52 97/99/49 83/83/34
f 99/101/53 87/88/42 98/100/54
f 87/88/39 99/101/53 88/89/43
f 83/83/37 100/102/55 96/98/52
f 100/102/55 83/83/34 81/81/36
f 101/103/5 97/99/49 95/96/51
f 97/99/49 101/103/5 102/104/5
f 97/99/49 102/104/5 103/105/5
f 106/108/27 105/107/27 104/106/27
f 105/107/27 106/108/27 107/109/56
f 107/109/56 106/108/27 92/93/44
f 108/111/19 99/101/19 98/100/19
f 99/101/19 108/111/19 109/112/19
f 99/101/19 109/112/19 94/95/19
f 94/95/19 109/112/19 100/102/19
f 94/95/19 100/102/19 82/82/19
f 82/82/19 100/102/19 81/81/19
f 112/116/57 111/114/58 110/113/59
f 111/114/58 112/116/60 113/117/61
f 88/89/62 92/93/44 86/86/40
f 92/93/44 88/89/43 93/94/47
f 108/111/63 87/88/39 113/117/61
f 87/88/42 108/111/63 98/100/54
f 114/118/15 107/109/56 97/99/49
f 107/109/56 114/118/15 115/119/15
f 107/109/56 115/119/15 116/120/15
f 85/85/41 117/121/21 111/114/58
f 117/121/21 85/85/41 118/122/21
f 118/122/21 85/85/41 119/123/21
f 93/94/64 107/109/56 92/93/44
f 107/109/56 93/94/47 84/84/38
f 99/101/53 93/94/64 88/89/43
f 93/94/47 99/101/53 94/95/45
f 100/102/55 112/116/57 96/98/52
f 112/116/60 100/102/55 109/112/65
f 109/112/65 113/117/66 112/116/60
f 113/117/61 109/112/67 108/111/63
f 122/126/32 121/125/32 120/124/32
f 121/125/32 122/126/32 111/114/58
f 111/114/58 122/126/32 110/113/59
f 96/98/50 110/113/59 95/96/51
f 110/113/59 96/98/52 112/116/60
f 107/109/56 83/83/37 97/99/49
f 83/83/34 107/109/56 84/84/38
f 125/129/28 124/128/28 123/127/28
f 124/128/28 125/129/28 110/113/59
f 110/113/59 125/129/28 95/96/51
f 86/86/40 126/130/17 85/85/41
f 126/130/17 86/86/40 127/131/17
f 127/131/17 86/86/40 128/132/17
f 113/117/66 85/85/41 111/114/58
f 85/85/41 113/117/61 87/88/42
f 131/135/68 130/134/68 129/133/68
f 130/134/68 131/135/68 132/136/68
f 132/136/68 131/135/68 133/137/68
f 132/136/68 133/137/68 134/138/68
f 132/136/68 134/138/68 135/139/68
f 135/139/68 134/138/68 136/140/68
f 137/141/69 131/135/70 129/133/71
f 131/135/70 137/141/69 138/142/72
f 139/143/73 132/136/74 135/139/75
f 132/136/74 139/143/73 140/144/76
f 138/142/72 133/137/77 131/135/70
f 133/137/77 138/142/72 141/145/78
f 135/139/75 142/146/79 139/143/73
f 142/146/79 135/139/75 136/140/80
f 141/145/78 134/138/81 133/137/77
f 134/138/81 141/145/78 143/147/82
f 137/141/69 130/134/83 144/148/84
f 130/134/83 137/141/69 129/133/71
f 140/144/76 130/134/83 132/136/74
f 130/134/83 140/144/76 144/148/84
f 134/138/81 142/146/79 136/140/80
f 142/146/79 134/138/81 143/147/82
f 146/150/25 138/142/72 145/149/85
f 138/142/72 146/150/25 141/145/78
f 141/145/78 146/150/25 147/151/25
f 148/152/25 141/145/78 147/151/25
f 141/145/78 148/152/25 149/153/86
f 151/155/17 137/141/69 150/154/87
f 137/141/69 151/155/17 138/142/72
f 138/142/72 151/155/17 152/156/17
f 138/142/72 152/156/17 153/157/17
f 138/142/72 153/157/17 145/149/88
f 155/159/21 144/148/84 154/158/89
f 144/148/84 155/159/21 137/141/69
f 137/141/69 155/159/21 156/160/21
f 137/141/69 156/160/21 157/161/21
f 137/141/69 157/161/21 150/154/87
f 159/163/32 140/144/76 158/162/90
f 140/144/76 159/163/32 144/148/84
f 144/148/84 159/163/32 160/164/32
f 161/165/32 144/148/84 160/164/32
f 144/148/84 161/165/32 154/158/91
f 163/167/28 139/143/73 162/166/92
f 139/143/73 163/167/28 140/144/76
f 140/144/76 163/167/28 164/168/28
f 165/169/28 140/144/76 164/168/28
f 140/144/76 165/169/28 158/162/90
f 139/143/73 166/170/5 162/166/93
f 166/170/5 139/143/73 142/146/79
f 166/170/5 142/146/79 167/171/5
f 167/171/5 142/146/79 168/172/5
f 168/172/5 142/146/79 169/173/94
f 142/146/79 170/174/15 169/173/94
f 170/174/15 142/146/79 143/147/82
f 170/174/15 143/147/82 171/175/15
f 171/175/15 143/147/82 172/176/15
f 172/176/15 143/147/82 173/177/95
f 174/178/27 141/145/78 149/153/86
f 141/145/78 174/178/27 143/147/82
f 143/147/82 174/178/27 175/179/27
f 176/180/27 143/147/82 175/179/27
f 143/147/82 176/180/27 173/177/96
f 179/183/76 178/182/83 177/181/74
f 178/182/83 179/183/76 180/184/84
f 183/187/75 182/186/79 181/185/73
f 182/186/79 183/187/75 184/188/80
f 187/191/78 186/190/81 185/189/77
f 186/190/81 187/191/78 188/192/82
f 186/190/81 182/186/79 184/188/80
f 182/186/79 186/190/81 188/192/82
f 189/193/69 178/182/83 180/184/84
f 178/182/83 189/193/69 190/194/71
f 191/195/68 178/182/68 190/194/68
f 178/182/68 191/195/68 185/189/68
f 178/182/68 185/189/68 177/181/68
f 177/181/68 185/189/68 186/190/68
f 177/181/68 186/190/68 183/187/68
f 183/187/68 186/190/68 184/188/68
f 181/185/73 177/181/74 183/187/75
f 177/181/74 181/185/73 179/183/76
f 192/196/72 185/189/77 191/195/70
f 185/189/77 192/196/72 187/191/78
f 192/196/72 190/194/71 189/193/69
f 190/194/71 192/196/72 191/195/70
f 182/186/79 194/198/15 193/197/94
f 194/198/15 182/186/79 188/192/82
f 194/198/15 188/192/82 195/199/15
f 195/199/15 188/192/82 196/200/15
f 196/200/15 188/192/82 197/201/95
f 199/203/27 187/191/78 198/202/86
f 187/191/78 199/203/27 188/192/82
f 188/192/82 199/203/27 200/204/27
f 201/205/27 188/192/82 200/204/27
f 188/192/82 201/205/27 197/201/96
f 203/207/17 189/193/69 202/206/87
f 189/193/69 203/207/17 192/196/72
f 192/196/72 203/207/17 204/208/17
f 192/196/72 204/208/17 205/209/17
f 192/196/72 205/209/17 206/210/88
f 208/212/32 179/183/76 207/211/90
f 179/183/76 208/212/32 180/184/84
f 180/184/84 208/212/32 209/213/32
f 210/214/32 180/184/84 209/213/32
f 180/184/84 210/214/32 211/215/91
f 212/216/25 192/196/72 206/210/85
f 192/196/72 212/216/25 187/191/78
f 187/191/78 212/216/25 213/217/25
f 214/218/25 187/191/78 213/217/25
f 187/191/78 214/218/25 198/202/86
f 215/219/21 180/184/84 211/215/89
f 180/184/84 215/219/21 189/193/69
f 189/193/69 215/219/21 216/220/21
f 189/193/69 216/220/21 217/221/21
f 189/193/69 217/221/21 202/206/87
f 219/223/28 181/185/73 218/222/92
f 181/185/73 219/223/28 179/183/76
f 179/183/76 219/223/28 220/224/28
f 221/225/28 179/183/76 220/224/28
f 179/183/76 221/225/28 207/211/90
f 181/185/73 222/226/5 218/222/93
f 222/226/5 181/185/73 182/186/79
f 222/226/5 182/186/79 223/227/5
f 223/227/5 182/186/79 224/228/5
f 224/228/5 182/186/79 193/197/94
f 227/231/73 226/230/74 225/229/75
f 226/230/74 227/231/73 228/232/76
f 225/229/75 229/233/79 227/231/73
f 229/233/79 225/229/75 230/234/80
f 233/237/78 232/236/81 231/235/77
f 232/236/81 233/237/78 234/238/82
f 237/241/69 236/240/70 235/239/71
f 236/240/70 237/241/69 238/242/72
f 236/240/68 239/243/68 235/239/68
f 239/243/68 236/240/68 231/235/68
f 239/243/68 231/235/68 226/230/68
f 226/230/68 231/235/68 232/236/68
f 226/230/68 232/236/68 225/229/68
f 225/229/68 232/236/68 230/234/68
f 238/242/72 231/235/77 236/240/70
f 231/235/77 238/242/72 233/237/78
f 232/236/81 229/233/79 230/234/80
f 229/233/79 232/236/81 234/238/82
f 228/232/76 239/243/83 226/230/74
f 239/243/83 228/232/76 240/244/84
f 237/241/69 239/243/83 240/244/84
f 239/243/83 237/241/69 235/239/71
f 242/246/17 237/241/69 241/245/87
f 237/241/69 242/246/17 238/242/72
f 238/242/72 242/246/17 243/247/17
f 238/242/72 243/247/17 244/248/17
f 238/242/72 244/248/17 86/87/88
f 245/249/25 238/242/72 86/87/85
f 238/242/72 245/249/25 233/237/78
f 233/237/78 245/249/25 246/250/25
f 247/251/25 233/237/78 246/250/25
f 233/237/78 247/251/25 248/252/86
f 249/253/27 233/237/78 248/252/86
f 233/237/78 249/253/27 234/238/82
f 234/238/82 249/253/27 250/254/27
f 251/255/27 234/238/82 250/254/27
f 234/238/82 251/255/27 107/110/96
f 229/233/79 253/257/15 252/256/94
f 253/257/15 229/233/79 234/238/82
f 253/257/15 234/238/82 254/258/15
f 254/258/15 234/238/82 255/259/15
f 255/259/15 234/238/82 107/110/95
f 257/261/32 228/232/76 256/260/90
f 228/232/76 257/261/32 240/244/84
f 240/244/84 257/261/32 258/262/32
f 259/263/32 240/244/84 258/262/32
f 240/244/84 259/263/32 111/115/91
f 227/231/73 260/264/5 95/97/93
f 260/264/5 227/231/73 229/233/79
f 260/264/5 229/233/79 261/265/5
f 261/265/5 229/233/79 262/266/5
f 262/266/5 229/233/79 252/256/94
f 263/267/21 240/244/84 111/115/89
f 240/244/84 263/267/21 237/241/69
f 237/241/69 263/267/21 264/268/21
f 237/241/69 264/268/21 265/269/21
f 237/241/69 265/269/21 241/245/87
f 266/270/28 227/231/73 95/97/92
f 227/231/73 266/270/28 228/232/76
f 228/232/76 266/270/28 267/271/28
f 268/272/28 228/232/76 267/271/28
f 228/232/76 268/272/28 256/260/90
f 271/275/97 270/274/98 269/273/97
f 270/274/98 271/275/99 272/276/98
f 275/279/68 274/278/68 273/277/68
f 274/278/68 275/279/68 269/273/68
f 274/278/68 269/273/68 276/280/68
f 276/280/68 269/273/68 270/274/68
f 276/280/68 270/274/68 277/281/68
f 277/281/68 270/274/68 278/282/68
f 279/283/100 275/279/101 273/277/100
f 275/279/101 279/283/100 280/284/101
f 280/284/101 269/273/97 275/279/101
f 269/273/99 280/284/101 271/275/97
f 281/285/102 273/277/100 274/278/102
f 273/277/103 281/285/102 279/283/100
f 282/286/104 272/276/105 271/275/104
f 272/276/106 282/286/107 283/287/106
f 285/289/108 283/287/106 284/288/108
f 283/287/105 285/289/109 272/276/105
f 287/291/110 279/283/111 286/290/111
f 279/283/112 287/291/113 280/284/113
f 289/293/114 281/285/115 288/292/114
f 281/285/116 289/293/117 290/294/116
f 285/289/109 292/296/118 291/295/118
f 292/296/119 285/289/108 284/288/108
f 287/291/113 271/275/104 280/284/113
f 271/275/107 287/291/110 282/286/107
f 290/294/115 279/283/112 281/285/115
f 279/283/111 290/294/116 286/290/111
f 292/296/118 288/292/114 291/295/118
f 288/292/117 292/296/119 289/293/117
f 270/274/98 285/289/120 278/282/120
f 285/289/120 270/274/98 272/276/98
f 291/295/121 276/280/122 277/281/121
f 276/280/123 291/295/121 288/292/122
f 278/282/120 291/295/121 277/281/121
f 291/295/121 278/282/124 285/289/120
f 288/292/122 274/278/102 276/280/122
f 274/278/102 288/292/122 281/285/102
