# Blender 3.3.1
# www.blender.org
o tree-snow-b
v 0.259896 -0.000000 0.165600
v 0.183774 0.183774 0.165600
v 0.183774 -0.183774 0.165600
v 0.000000 0.259896 0.165600
v 0.000000 -0.259896 0.165600
v -0.183774 -0.183774 0.165600
v -0.183774 0.183774 0.165600
v -0.259896 -0.000000 0.165600
v 0.285600 -0.000000 0.206400
v 0.201950 -0.201950 0.206400
v -0.201950 0.201950 0.206400
v 0.000000 0.285600 0.206400
v 0.000000 -0.285600 0.206400
v -0.285600 -0.000000 0.206400
v -0.201950 -0.201950 0.206400
v 0.201950 0.201950 0.206400
v 0.166790 -0.000000 0.471600
v 0.117939 -0.117939 0.471600
v 0.117939 0.117939 0.471600
v -0.000000 0.166790 0.471600
v -0.000000 -0.166790 0.471600
v -0.117939 0.117939 0.471600
v -0.117939 -0.117939 0.471600
v -0.166790 -0.000000 0.471600
v -0.208602 -0.000000 0.308400
v -0.147504 -0.147504 0.308400
v -0.147504 0.147504 0.308400
v 0.147504 0.147504 0.308400
v 0.208602 -0.000000 0.308400
v 0.000000 0.208602 0.308400
v 0.147504 -0.147504 0.308400
v 0.000000 -0.208602 0.308400
v 0.156042 -0.000000 0.610739
v 0.110338 0.110338 0.610739
v 0.110338 -0.110338 0.610739
v 0.000000 -0.156042 0.610739
v 0.000000 0.156041 0.610739
v -0.110338 -0.110338 0.610739
v -0.110338 0.110338 0.610739
v -0.156042 -0.000000 0.610739
v 0.171474 -0.000000 0.635235
v 0.121251 -0.121251 0.635235
v -0.121251 0.121250 0.635235
v 0.000000 0.171474 0.635235
v 0.000000 -0.171474 0.635235
v -0.171474 -0.000000 0.635235
v -0.121251 -0.121251 0.635235
v 0.121251 0.121250 0.635235
v -0.088561 0.088561 0.696476
v 0.000000 0.125245 0.696476
v -0.125245 -0.000000 0.696476
v 0.088561 -0.088562 0.696476
v 0.000000 -0.125245 0.696476
v 0.088561 0.088561 0.696476
v -0.088561 -0.088562 0.696476
v 0.125245 -0.000000 0.696476
v 0.016523 -0.000000 0.921817
v 0.011684 -0.011684 0.921817
v 0.011684 0.011684 0.921817
v 0.000000 0.016523 0.921817
v 0.000000 -0.016523 0.921817
v -0.011684 0.011684 0.921817
v -0.011684 -0.011684 0.921817
v -0.016523 -0.000000 0.921817
v -0.047797 0.047797 0.825817
v 0.000000 0.067595 0.825817
v 0.047797 0.047797 0.825817
v 0.067595 -0.000000 0.825817
v -0.067595 -0.000000 0.825817
v -0.047797 -0.047797 0.825817
v 0.000000 -0.067595 0.825817
v 0.047797 -0.047797 0.825817
v 0.197521 -0.000000 0.394320
v 0.139668 0.139668 0.394320
v 0.139668 -0.139668 0.394320
v 0.000000 -0.197521 0.394320
v 0.000000 0.197521 0.394320
v -0.139668 -0.139668 0.394320
v -0.139668 0.139668 0.394320
v -0.197521 -0.000000 0.394320
v 0.217056 -0.000000 0.425328
v 0.153482 -0.153482 0.425328
v -0.153482 0.153482 0.425328
v 0.000000 0.217056 0.425328
v 0.000000 -0.217056 0.425328
v -0.217056 -0.000000 0.425328
v -0.153482 -0.153482 0.425328
v 0.153482 0.153482 0.425328
v 0.126761 -0.000000 0.626880
v 0.089633 -0.089633 0.626880
v 0.089633 0.089633 0.626880
v 0.000000 0.126761 0.626880
v 0.000000 -0.126761 0.626880
v -0.089633 0.089633 0.626880
v -0.089633 -0.089633 0.626880
v -0.126761 -0.000000 0.626880
v -0.158538 -0.000000 0.502848
v -0.112103 -0.112103 0.502848
v -0.112103 0.112103 0.502848
v 0.112103 0.112103 0.502848
v 0.158538 -0.000000 0.502848
v 0.000000 0.158538 0.502848
v 0.112103 -0.112103 0.502848
v 0.000000 -0.158538 0.502848
v -0.212047 0.212047 0.243898
v -0.299880 -0.000000 0.243898
v 0.000000 0.299880 0.243898
v -0.212047 -0.212047 0.243898
v 0.000000 -0.299880 0.243898
v 0.212047 0.212047 0.243898
v 0.147504 0.147504 0.299865
v 0.000000 0.208602 0.299865
v -0.147504 0.147504 0.299865
v -0.208602 -0.000000 0.299865
v 0.299880 -0.000000 0.243898
v 0.212047 -0.212047 0.243898
v 0.147504 -0.147504 0.299865
v 0.000000 -0.208602 0.299865
v -0.147504 -0.147504 0.299865
v 0.208602 -0.000000 0.299865
v -0.121251 0.121250 0.635235
v 0.000000 0.171474 0.635235
v -0.127313 0.127313 0.658137
v 0.000000 0.180048 0.658137
v 0.000000 -0.125245 0.692023
v 0.000000 -0.180048 0.658137
v -0.088561 -0.088562 0.692023
v -0.127313 -0.127313 0.658137
v -0.088561 0.088561 0.692023
v -0.125245 -0.000000 0.692023
v -0.180048 -0.000000 0.658137
v 0.000000 0.125245 0.692023
v 0.180048 -0.000000 0.658137
v 0.125245 -0.000000 0.692023
v 0.127313 0.127313 0.658137
v 0.088561 0.088561 0.692023
v 0.127313 -0.127313 0.658137
v 0.088561 -0.088562 0.692023
v 0.121251 0.121250 0.635235
v -0.171474 -0.000000 0.635235
v -0.121251 -0.121251 0.635235
v 0.121251 -0.121251 0.635235
v 0.000000 -0.171474 0.635235
v 0.171474 -0.000000 0.635235
v 0.024785 -0.000000 0.945817
v 0.017526 -0.017526 0.945817
v 0.017526 0.017525 0.945817
v 0.000000 0.024785 0.945817
v 0.000000 -0.024785 0.945817
v -0.017526 0.017525 0.945817
v -0.017526 -0.017526 0.945817
v -0.024785 -0.000000 0.945817
v 0.081114 -0.000000 0.753817
v 0.057356 0.057356 0.753817
v 0.057356 -0.057357 0.753817
v 0.000000 -0.081114 0.753817
v 0.000000 0.081114 0.753817
v -0.057356 -0.057357 0.753817
v -0.057356 0.057356 0.753817
v -0.081114 -0.000000 0.753817
v 0.101393 -0.000000 0.818617
v 0.071695 -0.071696 0.818617
v 0.000000 0.101393 0.818617
v 0.071695 0.071695 0.818617
v -0.071695 0.071695 0.818617
v -0.101393 -0.000000 0.818617
v 0.000000 -0.101393 0.818617
v -0.071695 -0.071696 0.818617
v 0.227909 -0.000000 0.458390
v 0.217056 -0.000000 0.425328
v 0.161156 -0.161156 0.458390
v 0.153482 -0.153482 0.425328
v 0.000000 -0.217056 0.425328
v 0.000000 -0.227909 0.458390
v 0.161156 0.161156 0.458390
v 0.153482 0.153482 0.425328
v 0.112103 -0.112103 0.495507
v 0.000000 -0.158538 0.495507
v 0.000000 0.227909 0.458390
v 0.000000 0.158538 0.495507
v -0.161156 0.161156 0.458390
v -0.112103 0.112103 0.495507
v 0.112103 0.112103 0.495507
v 0.158538 -0.000000 0.495507
v -0.112103 -0.112103 0.495507
v -0.161156 -0.161156 0.458390
v -0.158538 -0.000000 0.495507
v -0.227909 -0.000000 0.458390
v -0.153482 0.153482 0.425328
v 0.000000 0.217056 0.425328
v -0.217056 -0.000000 0.425328
v -0.153482 -0.153482 0.425328
v -0.000000 -0.112320 -0.000000
v -0.079422 -0.079422 -0.000000
v -0.000000 -0.078720 0.049680
v -0.055663 -0.055663 0.049680
v 0.112320 -0.000000 -0.000000
v 0.079422 0.079422 0.000000
v 0.079422 -0.079422 -0.000000
v -0.000000 0.112320 0.000000
v -0.079422 0.079422 0.000000
v -0.112320 -0.000000 -0.000000
v 0.078720 -0.000000 0.049680
v 0.055663 -0.055663 0.049680
v 0.055663 0.055663 0.049680
v 0.000000 -0.054720 0.165600
v -0.038693 -0.038693 0.165600
v -0.054720 -0.000000 0.165600
v -0.078720 -0.000000 0.049680
v 0.054720 -0.000000 0.165600
v 0.038693 -0.038693 0.165600
v -0.000000 0.078720 0.049680
v 0.000000 0.054720 0.165600
v 0.038693 0.038693 0.165600
v -0.055663 0.055663 0.049680
v -0.038693 0.038693 0.165600
vn -0.0000 -0.0000 -1.0000
vn 0.7066 -0.7066 0.0373
vn 0.8461 -0.0000 -0.5330
vn 0.9993 -0.0000 0.0373
vn 0.5983 -0.5983 -0.5330
vn -0.7066 0.7066 0.0373
vn -0.0000 0.8461 -0.5330
vn -0.5983 0.5983 -0.5330
vn -0.0000 0.9993 0.0373
vn -0.0000 -0.8461 -0.5330
vn -0.0000 -0.9993 0.0373
vn -0.9993 -0.0000 0.0373
vn -0.8461 -0.0000 -0.5330
vn -0.5983 -0.5983 -0.5330
vn -0.7066 -0.7066 0.0373
vn 0.5983 0.5983 -0.5330
vn 0.7066 0.7066 0.0373
vn -0.0000 -0.0000 1.0000
vn -0.7066 -0.7066 0.0374
vn -0.8911 -0.0000 0.4538
vn -0.6301 -0.6301 0.4538
vn -0.9993 -0.0000 0.0374
vn -0.6301 0.6301 0.4538
vn 0.6301 0.6301 0.4538
vn 0.9993 -0.0000 0.0374
vn 0.8911 -0.0000 0.4538
vn -0.0000 0.9993 0.0374
vn -0.0000 0.8911 0.4538
vn 0.6850 -0.6850 0.2482
vn -0.0000 -0.8911 0.4538
vn 0.6301 -0.6301 0.4538
vn -0.0000 -0.9687 0.2482
vn 0.9687 -0.0000 0.2482
vn 0.6850 0.6850 0.2482
vn -0.0000 0.9687 0.2482
vn -0.6850 -0.6850 0.2482
vn -0.9687 -0.0000 0.2482
vn -0.6850 0.6850 0.2482
vn -0.0000 -0.9993 0.0374
vn 0.7066 0.7066 0.0374
vn -0.6037 0.6037 0.5206
vn -0.6037 0.6037 0.5207
vn -0.0000 0.8538 0.5206
vn -0.8538 -0.0000 0.5206
vn 0.6037 -0.6037 0.5206
vn 0.6037 -0.6037 0.5207
vn -0.0000 -0.8538 0.5206
vn -0.0000 0.8538 0.5207
vn 0.6037 0.6037 0.5206
vn -0.8538 -0.0000 0.5207
vn -0.6037 -0.6037 0.5206
vn 0.6037 0.6037 0.5207
vn 0.8538 -0.0000 0.5206
vn -0.0000 -0.8538 0.5207
vn -0.6366 0.6366 0.4354
vn -0.6366 0.6366 0.4353
vn -0.0000 0.9003 0.4353
vn 0.6366 0.6366 0.4354
vn 0.8538 -0.0000 0.5207
vn 0.6366 0.6366 0.4353
vn 0.9003 -0.0000 0.4353
vn -0.6037 -0.6037 0.5207
vn -0.9003 -0.0000 0.4354
vn -0.9003 -0.0000 0.4353
vn -0.6366 -0.6366 0.4353
vn -0.0000 0.9003 0.4354
vn -0.0000 -0.9003 0.4354
vn -0.0000 -0.9003 0.4353
vn 0.9003 -0.0000 0.4354
vn 0.6366 -0.6366 0.4353
vn 0.6366 -0.6366 0.4354
vn -0.6243 -0.6243 0.4697
vn -0.8828 -0.0000 0.4697
vn -0.6243 0.6243 0.4697
vn -0.0000 0.8828 0.4697
vn 0.6243 -0.6243 0.4697
vn -0.0000 -0.8828 0.4697
vn -0.6366 -0.6366 0.4354
vn -0.0000 -0.8829 0.4697
vn 0.8828 -0.0000 0.4697
vn -0.0000 0.8829 0.4697
vn 0.6243 0.6243 0.4697
vn -0.6608 0.6608 -0.3559
vn -0.9591 -0.0000 0.2832
vn -0.6782 0.6781 0.2832
vn -0.9345 -0.0000 -0.3559
vn -0.0000 0.9345 -0.3559
vn -0.6781 0.6782 0.2832
vn -0.0000 0.9591 0.2832
vn -0.6782 -0.6781 0.2832
vn -0.6781 -0.6782 0.2832
vn -0.6608 -0.6608 -0.3559
vn -0.0000 -0.9591 0.2832
vn -0.0000 -0.9345 -0.3559
vn 0.3696 0.3696 0.8525
vn 0.6782 0.6782 0.2832
vn -0.0001 0.9591 0.2832
vn -0.0000 0.5227 0.8525
vn -0.5227 -0.0000 0.8525
vn -0.3696 0.3696 0.8525
vn 0.6782 -0.6781 0.2832
vn 0.9345 -0.0000 -0.3559
vn 0.9591 -0.0000 0.2832
vn 0.6781 -0.6782 0.2832
vn 0.6608 -0.6608 -0.3559
vn 0.3696 -0.3696 0.8525
vn 0.6782 -0.6782 0.2832
vn -0.0001 -0.9591 0.2832
vn -0.0000 -0.5227 0.8525
vn -0.3696 -0.3696 0.8525
vn 0.0001 -0.9591 0.2832
vn -0.6782 -0.6782 0.2832
vn 0.5227 -0.0000 0.8525
vn 0.6781 0.6782 0.2832
vn 0.6608 0.6608 -0.3559
vn 0.6782 0.6781 0.2832
vn -0.6780 0.6779 0.2842
vn -0.0000 0.9365 -0.3506
vn -0.6622 0.6622 -0.3506
vn -0.6779 0.6780 0.2842
vn -0.0000 0.9588 0.2842
vn -0.3719 -0.3719 0.8506
vn -0.0000 -0.9588 0.2842
vn -0.0000 -0.5259 0.8505
vn -0.3719 -0.3719 0.8505
vn -0.6779 -0.6780 0.2842
vn -0.5259 -0.0000 0.8506
vn -0.3719 0.3719 0.8505
vn -0.5259 -0.0000 0.8505
vn -0.6780 0.6780 0.2842
vn -0.9588 -0.0000 0.2842
vn -0.0000 0.5259 0.8505
vn -0.0000 0.5259 0.8506
vn 0.6780 0.6780 0.2842
vn 0.5259 -0.0000 0.8505
vn 0.9588 -0.0000 0.2842
vn 0.5259 -0.0000 0.8506
vn 0.6779 0.6780 0.2842
vn 0.3719 0.3719 0.8505
vn 0.3719 -0.3719 0.8505
vn 0.6779 -0.6780 0.2842
vn 0.3719 -0.3719 0.8506
vn -0.6780 -0.6780 0.2842
vn 0.6780 -0.6780 0.2842
vn 0.3719 0.3719 0.8506
vn 0.6622 0.6622 -0.3506
vn 0.6780 0.6779 0.2842
vn -0.9365 -0.0000 -0.3506
vn -0.6780 -0.6779 0.2842
vn -0.6622 -0.6622 -0.3506
vn 0.6780 -0.6779 0.2842
vn -0.0000 -0.9365 -0.3506
vn 0.6622 -0.6622 -0.3506
vn 0.9365 -0.0000 -0.3506
vn 0.4756 -0.4755 -0.7401
vn 0.4756 0.4755 -0.7401
vn 0.6725 -0.0000 -0.7401
vn 0.4755 0.4755 -0.7401
vn 0.4755 -0.4755 -0.7401
vn -0.0001 -0.6725 -0.7401
vn -0.0000 -0.6725 -0.7401
vn -0.0000 0.6725 -0.7401
vn -0.4755 -0.4755 -0.7401
vn 0.0001 0.6725 -0.7401
vn -0.4755 0.4755 -0.7401
vn -0.4756 0.4755 -0.7401
vn -0.4756 -0.4755 -0.7401
vn -0.6725 -0.0000 -0.7401
vn 0.7029 -0.7029 0.1088
vn 0.9941 -0.0000 0.1088
vn -0.0000 0.9941 0.1088
vn 0.7029 0.7029 0.1088
vn -0.7029 0.7029 0.1088
vn -0.9941 -0.0000 0.1088
vn -0.0000 -0.9941 0.1088
vn -0.7029 -0.7029 0.1088
vn 0.6057 0.6058 0.5159
vn 0.6057 0.6057 0.5159
vn 0.8566 -0.0000 0.5159
vn -0.6057 -0.6057 0.5159
vn -0.8566 -0.0000 0.5159
vn -0.6057 -0.6058 0.5159
vn -0.0000 -0.8566 0.5159
vn -0.6057 0.6058 0.5159
vn -0.6057 0.6057 0.5159
vn -0.0000 0.8566 0.5159
vn -0.6058 0.6057 0.5159
vn 0.6058 -0.6057 0.5159
vn 0.6057 -0.6057 0.5159
vn 0.6057 -0.6058 0.5159
vn 0.6682 -0.6683 0.3269
vn 0.9501 -0.0000 -0.3119
vn 0.9450 -0.0000 0.3270
vn 0.6718 -0.6718 -0.3119
vn 0.6683 -0.6682 0.3269
vn -0.0000 -0.9501 -0.3119
vn -0.0000 -0.9450 0.3270
vn 0.9450 -0.0000 0.3269
vn 0.6718 0.6718 -0.3119
vn 0.6683 0.6682 0.3269
vn 0.9451 -0.0000 0.3269
vn 0.3336 -0.3336 0.8817
vn 0.6682 -0.6682 0.3269
vn -0.0000 -0.4718 0.8817
vn -0.6683 0.6682 0.3270
vn -0.0000 0.4718 0.8817
vn -0.0000 0.9450 0.3269
vn -0.3336 0.3336 0.8817
vn -0.0000 0.9450 0.3270
vn 0.3336 0.3336 0.8817
vn 0.6682 0.6682 0.3269
vn 0.4718 -0.0000 0.8817
vn 0.6682 -0.6683 0.3270
vn -0.3336 -0.3336 0.8817
vn -0.6682 -0.6682 0.3269
vn -0.4718 -0.0000 0.8817
vn -0.6682 -0.6683 0.3270
vn -0.9450 -0.0000 0.3269
vn -0.6682 0.6683 0.3270
vn 0.6682 0.6683 0.3270
vn -0.6683 0.6682 0.3269
vn -0.0000 0.9501 -0.3119
vn -0.6718 0.6718 -0.3119
vn -0.9451 -0.0000 0.3269
vn -0.9501 -0.0000 -0.3119
vn -0.0000 -0.9451 0.3269
vn -0.6718 -0.6718 -0.3119
vn -0.0000 -0.9450 0.3269
vn -0.6683 -0.6682 0.3269
vn -0.0000 0.9451 0.3269
vn -0.0000 -0.8283 0.5602
vn -0.5857 -0.5857 0.5602
vn -0.0000 -0.8284 0.5602
vn 0.8283 -0.0000 0.5602
vn 0.5857 -0.5857 0.5602
vn 0.5857 0.5857 0.5602
vn 0.8284 -0.0000 0.5602
vn -0.0000 -0.9792 0.2028
vn -0.6924 -0.6924 0.2028
vn -0.6924 -0.6924 0.2027
vn -0.0000 -0.9792 0.2027
vn -0.9792 -0.0000 0.2027
vn -0.9792 -0.0000 0.2028
vn 0.6924 -0.6924 0.2027
vn 0.9792 -0.0000 0.2027
vn 0.9792 -0.0000 0.2028
vn 0.6924 -0.6924 0.2028
vn -0.0000 0.9792 0.2028
vn 0.6924 0.6924 0.2028
vn 0.6924 0.6924 0.2027
vn -0.0000 0.9792 0.2027
vn -0.6924 0.6924 0.2028
vn -0.6924 0.6924 0.2027
vn -0.8283 -0.0000 0.5602
vn -0.8284 -0.0000 0.5602
vn -0.5857 0.5857 0.5602
vn -0.0000 0.8283 0.5602
vn -0.0000 0.8284 0.5602
vt 0.718750 0.275000
vt 0.718750 0.275000
vt 0.718750 0.275000
vt 0.718750 0.275000
vt 0.718750 0.275000
vt 0.718750 0.275000
vt 0.718750 0.275000
vt 0.718750 0.275000
vt 0.718750 0.301667
vt 0.093750 0.025000
vt 0.718750 0.301667
vt 0.093750 0.025000
vt 0.718750 0.301667
vt 0.093750 0.025000
vt 0.718750 0.301667
vt 0.093750 0.025000
vt 0.718750 0.301667
vt 0.093750 0.025000
vt 0.718750 0.301667
vt 0.093750 0.025000
vt 0.718750 0.301667
vt 0.093750 0.025000
vt 0.718750 0.301667
vt 0.093750 0.025000
vt 0.718750 0.475000
vt 0.718750 0.475000
vt 0.718750 0.475000
vt 0.718750 0.475000
vt 0.718750 0.475000
vt 0.718750 0.475000
vt 0.718750 0.475000
vt 0.718750 0.475000
vt 0.718750 0.368333
vt 0.718750 0.368333
vt 0.718750 0.368333
vt 0.718750 0.368333
vt 0.718750 0.368333
vt 0.718750 0.368333
vt 0.718750 0.368333
vt 0.718750 0.368333
vt 0.718750 0.275000
vt 0.718750 0.275000
vt 0.718750 0.275000
vt 0.718750 0.275000
vt 0.718750 0.275000
vt 0.718750 0.275000
vt 0.718750 0.275000
vt 0.718750 0.275000
vt 0.718750 0.290749
vt 0.718750 0.290749
vt 0.718750 0.290749
vt 0.718750 0.290749
vt 0.718750 0.290749
vt 0.718750 0.290749
vt 0.718750 0.290749
vt 0.718750 0.290749
vt 0.718750 0.330123
vt 0.718750 0.330123
vt 0.718750 0.330123
vt 0.718750 0.330123
vt 0.718750 0.330123
vt 0.718750 0.330123
vt 0.718750 0.330123
vt 0.718750 0.330123
vt 0.718750 0.475000
vt 0.718750 0.475000
vt 0.718750 0.475000
vt 0.718750 0.475000
vt 0.718750 0.475000
vt 0.718750 0.475000
vt 0.718750 0.475000
vt 0.718750 0.475000
vt 0.718750 0.413279
vt 0.718750 0.413279
vt 0.718750 0.413279
vt 0.718750 0.413279
vt 0.718750 0.413279
vt 0.718750 0.413279
vt 0.718750 0.413279
vt 0.718750 0.413279
vt 0.718750 0.275000
vt 0.718750 0.275000
vt 0.718750 0.275000
vt 0.718750 0.275000
vt 0.718750 0.275000
vt 0.718750 0.275000
vt 0.718750 0.275000
vt 0.718750 0.275000
vt 0.718750 0.288333
vt 0.718750 0.288333
vt 0.718750 0.288333
vt 0.718750 0.288333
vt 0.718750 0.288333
vt 0.718750 0.288333
vt 0.718750 0.288333
vt 0.718750 0.288333
vt 0.718750 0.375000
vt 0.718750 0.375000
vt 0.718750 0.375000
vt 0.718750 0.375000
vt 0.718750 0.375000
vt 0.718750 0.375000
vt 0.718750 0.375000
vt 0.718750 0.375000
vt 0.718750 0.321667
vt 0.718750 0.321667
vt 0.718750 0.321667
vt 0.718750 0.321667
vt 0.718750 0.321667
vt 0.718750 0.321667
vt 0.718750 0.321667
vt 0.718750 0.321667
vt 0.093750 0.105239
vt 0.093750 0.105239
vt 0.093750 0.105239
vt 0.093750 0.105239
vt 0.093750 0.105239
vt 0.093750 0.105239
vt 0.093750 0.225000
vt 0.093750 0.225000
vt 0.093750 0.225000
vt 0.093750 0.225000
vt 0.093750 0.105239
vt 0.093750 0.105239
vt 0.093750 0.225000
vt 0.093750 0.225000
vt 0.093750 0.225000
vt 0.093750 0.225000
vt 0.093750 0.025000
vt 0.093750 0.025000
vt 0.093750 0.105660
vt 0.093750 0.105660
vt 0.093750 0.225000
vt 0.093750 0.105660
vt 0.093750 0.225000
vt 0.093750 0.105660
vt 0.093750 0.225000
vt 0.093750 0.225000
vt 0.093750 0.105660
vt 0.093750 0.225000
vt 0.093750 0.105660
vt 0.093750 0.225000
vt 0.093750 0.105660
vt 0.093750 0.225000
vt 0.093750 0.105660
vt 0.093750 0.225000
vt 0.093750 0.025000
vt 0.093750 0.025000
vt 0.093750 0.025000
vt 0.093750 0.025000
vt 0.093750 0.025000
vt 0.093750 0.025000
vt 0.093750 0.225000
vt 0.093750 0.225000
vt 0.093750 0.225000
vt 0.093750 0.225000
vt 0.093750 0.225000
vt 0.093750 0.225000
vt 0.093750 0.225000
vt 0.093750 0.225000
vt 0.093750 0.025000
vt 0.093750 0.025000
vt 0.093750 0.025000
vt 0.093750 0.025000
vt 0.093750 0.025000
vt 0.093750 0.025000
vt 0.093750 0.025000
vt 0.093750 0.025000
vt 0.093750 0.092500
vt 0.093750 0.092500
vt 0.093750 0.092500
vt 0.093750 0.092500
vt 0.093750 0.092500
vt 0.093750 0.092500
vt 0.093750 0.092500
vt 0.093750 0.092500
vt 0.093750 0.119223
vt 0.093750 0.025000
vt 0.093750 0.119223
vt 0.093750 0.025000
vt 0.093750 0.025000
vt 0.093750 0.119223
vt 0.093750 0.119223
vt 0.093750 0.025000
vt 0.093750 0.225000
vt 0.093750 0.225000
vt 0.093750 0.119223
vt 0.093750 0.225000
vt 0.093750 0.119223
vt 0.093750 0.225000
vt 0.093750 0.225000
vt 0.093750 0.225000
vt 0.093750 0.225000
vt 0.093750 0.119223
vt 0.093750 0.225000
vt 0.093750 0.119223
vt 0.093750 0.025000
vt 0.093750 0.025000
vt 0.093750 0.025000
vt 0.093750 0.025000
vt 0.218750 0.475000
vt 0.218750 0.475000
vt 0.218750 0.415000
vt 0.218750 0.415000
vt 0.218750 0.475000
vt 0.218750 0.475000
vt 0.218750 0.475000
vt 0.218750 0.475000
vt 0.218750 0.475000
vt 0.218750 0.475000
vt 0.218750 0.415000
vt 0.218750 0.415000
vt 0.218750 0.415000
vt 0.218750 0.275000
vt 0.218750 0.275000
vt 0.218750 0.275000
vt 0.218750 0.415000
vt 0.218750 0.275000
vt 0.218750 0.275000
vt 0.218750 0.415000
vt 0.218750 0.275000
vt 0.218750 0.275000
vt 0.218750 0.415000
vt 0.218750 0.275000
s 0
f 3/3/1 2/2/1 1/1/1
f 2/2/1 3/3/1 4/4/1
f 4/4/1 3/3/1 5/5/1
f 4/4/1 5/5/1 6/6/1
f 4/4/1 6/6/1 7/7/1
f 7/7/1 6/6/1 8/8/1
f 10/11/2 1/1/3 9/9/4
f 1/1/3 10/11/2 3/3/5
f 11/13/6 4/4/7 7/7/8
f 4/4/7 11/13/6 12/15/9
f 10/11/2 5/5/10 3/3/5
f 5/5/10 10/11/2 13/17/11
f 7/7/8 14/19/12 11/13/6
f 14/19/12 7/7/8 8/8/13
f 13/17/11 6/6/14 5/5/10
f 6/6/14 13/17/11 15/21/15
f 9/9/4 2/2/16 16/23/17
f 2/2/16 9/9/4 1/1/3
f 12/15/9 2/2/16 4/4/7
f 2/2/16 12/15/9 16/23/17
f 6/6/14 14/19/12 8/8/13
f 14/19/12 6/6/14 15/21/15
f 19/27/18 18/26/18 17/25/18
f 18/26/18 19/27/18 20/28/18
f 18/26/18 20/28/18 21/29/18
f 21/29/18 20/28/18 22/30/18
f 21/29/18 22/30/18 23/31/18
f 23/31/18 22/30/18 24/32/18
f 15/21/19 25/33/20 14/19/12
f 25/33/20 15/21/15 26/34/21
f 14/19/22 27/35/23 11/13/6
f 27/35/23 14/19/12 25/33/20
f 28/36/24 9/9/25 16/23/17
f 9/9/4 28/36/24 29/37/26
f 27/35/23 12/15/27 11/13/6
f 12/15/9 27/35/23 30/38/28
f 18/26/29 32/40/30 31/39/31
f 32/40/30 18/26/29 21/29/32
f 18/26/29 29/37/26 17/25/33
f 29/37/26 18/26/29 31/39/31
f 19/27/34 29/37/26 28/36/24
f 29/37/26 19/27/34 17/25/33
f 20/28/35 28/36/24 30/38/28
f 28/36/24 20/28/35 19/27/34
f 21/29/32 26/34/21 32/40/30
f 26/34/21 21/29/32 23/31/36
f 25/33/20 23/31/36 24/32/37
f 23/31/36 25/33/20 26/34/21
f 25/33/20 22/30/38 27/35/23
f 22/30/38 25/33/20 24/32/37
f 31/39/31 9/9/4 29/37/26
f 9/9/25 31/39/31 10/11/2
f 31/39/31 13/17/39 10/11/2
f 13/17/11 31/39/31 32/40/30
f 30/38/28 16/23/40 12/15/9
f 16/23/17 30/38/28 28/36/24
f 22/30/38 30/38/28 27/35/23
f 30/38/28 22/30/38 20/28/35
f 32/40/30 15/21/19 13/17/11
f 15/21/15 32/40/30 26/34/21
f 35/43/1 34/42/1 33/41/1
f 34/42/1 35/43/1 36/44/1
f 34/42/1 36/44/1 37/45/1
f 37/45/1 36/44/1 38/46/1
f 37/45/1 38/46/1 39/47/1
f 39/47/1 38/46/1 40/48/1
f 41/49/4 35/43/5 33/41/3
f 35/43/5 41/49/4 42/50/2
f 43/51/6 37/45/7 39/47/8
f 37/45/7 43/51/6 44/52/9
f 42/50/2 36/44/10 35/43/5
f 36/44/10 42/50/2 45/53/11
f 39/47/8 46/54/12 43/51/6
f 46/54/12 39/47/8 40/48/13
f 45/53/11 38/46/14 36/44/10
f 38/46/14 45/53/11 47/55/15
f 41/49/4 34/42/16 48/56/17
f 34/42/16 41/49/4 33/41/3
f 44/52/9 34/42/16 37/45/7
f 34/42/16 44/52/9 48/56/17
f 38/46/14 46/54/12 40/48/13
f 46/54/12 38/46/14 47/55/15
f 49/57/41 44/52/27 43/51/6
f 44/52/9 49/57/42 50/58/43
f 46/54/22 49/57/41 43/51/6
f 49/57/42 46/54/12 51/59/44
f 52/60/45 45/53/39 42/50/2
f 45/53/11 52/60/46 53/61/47
f 50/58/43 48/56/40 44/52/9
f 48/56/17 50/58/48 54/62/49
f 47/55/19 51/59/44 46/54/12
f 51/59/50 47/55/15 55/63/51
f 54/62/49 41/49/25 48/56/17
f 41/49/4 54/62/52 56/64/53
f 53/61/47 47/55/19 45/53/11
f 47/55/15 53/61/54 55/63/51
f 52/60/46 41/49/4 56/64/53
f 41/49/25 52/60/45 42/50/2
f 59/67/18 58/66/18 57/65/18
f 58/66/18 59/67/18 60/68/18
f 58/66/18 60/68/18 61/69/18
f 61/69/18 60/68/18 62/70/18
f 61/69/18 62/70/18 63/71/18
f 63/71/18 62/70/18 64/72/18
f 65/73/55 50/58/48 49/57/42
f 50/58/48 65/73/56 66/74/57
f 67/75/58 56/64/59 54/62/52
f 56/64/59 67/75/60 68/76/61
f 55/63/62 69/77/63 51/59/50
f 69/77/64 55/63/62 70/78/65
f 66/74/66 54/62/52 50/58/48
f 54/62/52 66/74/57 67/75/60
f 71/79/67 55/63/62 53/61/54
f 55/63/62 71/79/68 70/78/65
f 51/59/50 65/73/55 49/57/42
f 65/73/56 51/59/50 69/77/64
f 68/76/69 52/60/46 56/64/59
f 52/60/46 68/76/61 72/80/70
f 72/80/71 53/61/54 52/60/46
f 53/61/54 72/80/70 71/79/68
f 69/77/64 63/71/72 64/72/73
f 63/71/72 69/77/63 70/78/65
f 62/70/74 66/74/66 65/73/56
f 66/74/57 62/70/74 60/68/75
f 58/66/76 71/79/67 72/80/70
f 71/79/68 58/66/76 61/69/77
f 61/69/77 70/78/78 71/79/68
f 70/78/65 61/69/79 63/71/72
f 58/66/76 68/76/61 57/65/80
f 68/76/69 58/66/76 72/80/70
f 60/68/75 67/75/58 66/74/57
f 67/75/60 60/68/81 59/67/82
f 69/77/63 62/70/74 65/73/56
f 62/70/74 69/77/64 64/72/73
f 59/67/82 68/76/69 67/75/60
f 68/76/61 59/67/82 57/65/80
f 75/83/1 74/82/1 73/81/1
f 74/82/1 75/83/1 76/84/1
f 74/82/1 76/84/1 77/85/1
f 77/85/1 76/84/1 78/86/1
f 77/85/1 78/86/1 79/87/1
f 79/87/1 78/86/1 80/88/1
f 81/89/4 75/83/5 73/81/3
f 75/83/5 81/89/4 82/90/2
f 83/91/6 77/85/7 79/87/8
f 77/85/7 83/91/6 84/92/9
f 82/90/2 76/84/10 75/83/5
f 76/84/10 82/90/2 85/93/11
f 79/87/8 86/94/12 83/91/6
f 86/94/12 79/87/8 80/88/13
f 85/93/11 78/86/14 76/84/10
f 78/86/14 85/93/11 87/95/15
f 81/89/4 74/82/16 88/96/17
f 74/82/16 81/89/4 73/81/3
f 84/92/9 74/82/16 77/85/7
f 74/82/16 84/92/9 88/96/17
f 78/86/14 86/94/12 80/88/13
f 86/94/12 78/86/14 87/95/15
f 91/99/18 90/98/18 89/97/18
f 90/98/18 91/99/18 92/100/18
f 90/98/18 92/100/18 93/101/18
f 93/101/18 92/100/18 94/102/18
f 93/101/18 94/102/18 95/103/18
f 95/103/18 94/102/18 96/104/18
f 87/95/19 97/105/20 86/94/12
f 97/105/20 87/95/15 98/106/21
f 86/94/22 99/107/23 83/91/6
f 99/107/23 86/94/12 97/105/20
f 100/108/24 81/89/25 88/96/17
f 81/89/4 100/108/24 101/109/26
f 99/107/23 84/92/27 83/91/6
f 84/92/9 99/107/23 102/110/28
f 90/98/29 104/112/30 103/111/31
f 104/112/30 90/98/29 93/101/32
f 90/98/29 101/109/26 89/97/33
f 101/109/26 90/98/29 103/111/31
f 91/99/34 101/109/26 100/108/24
f 101/109/26 91/99/34 89/97/33
f 92/100/35 100/108/24 102/110/28
f 100/108/24 92/100/35 91/99/34
f 93/101/32 98/106/21 104/112/30
f 98/106/21 93/101/32 95/103/36
f 97/105/20 95/103/36 96/104/37
f 95/103/36 97/105/20 98/106/21
f 97/105/20 94/102/38 99/107/23
f 94/102/38 97/105/20 96/104/37
f 103/111/31 81/89/4 101/109/26
f 81/89/25 103/111/31 82/90/2
f 103/111/31 85/93/39 82/90/2
f 85/93/11 103/111/31 104/112/30
f 102/110/28 88/96/40 84/92/9
f 88/96/17 102/110/28 100/108/24
f 94/102/38 102/110/28 99/107/23
f 102/110/28 94/102/38 92/100/35
f 104/112/30 87/95/19 85/93/11
f 87/95/15 104/112/30 98/106/21
f 11/14/83 106/114/84 105/113/85
f 106/114/84 11/14/83 14/20/86
f 105/113/85 12/16/87 11/14/83
f 12/16/87 105/113/88 107/115/89
f 14/20/86 108/116/90 106/114/84
f 108/116/91 14/20/86 15/22/92
f 109/117/93 15/22/92 13/18/94
f 15/22/92 109/117/93 108/116/91
f 107/115/89 111/119/95 110/118/96
f 111/119/95 107/115/97 112/120/98
f 105/113/88 114/122/99 113/121/100
f 114/122/99 105/113/88 106/114/84
f 116/124/101 9/10/102 115/123/103
f 9/10/102 116/124/104 10/12/105
f 117/125/106 109/117/93 116/124/107
f 109/117/108 117/125/106 118/126/109
f 116/124/101 13/18/94 10/12/105
f 13/18/94 116/124/104 109/117/93
f 114/122/99 108/116/91 119/127/110
f 108/116/91 114/122/99 106/114/84
f 105/113/85 112/120/98 107/115/89
f 112/120/98 105/113/85 113/121/100
f 119/127/110 109/117/111 118/126/109
f 109/117/93 119/127/110 108/116/112
f 120/128/113 116/124/104 115/123/103
f 116/124/104 120/128/113 117/125/106
f 110/118/114 120/128/113 115/123/103
f 120/128/113 110/118/114 111/119/95
f 107/115/89 16/24/115 12/16/87
f 16/24/115 107/115/89 110/118/114
f 115/123/103 16/24/115 110/118/116
f 16/24/115 115/123/103 9/10/102
f 123/131/117 122/130/118 121/129/119
f 122/130/118 123/131/120 124/132/121
f 127/135/122 126/134/123 125/133/124
f 126/134/123 127/135/125 128/136/126
f 123/131/120 130/138/127 129/137/128
f 130/138/129 123/131/130 131/139/131
f 123/131/130 132/140/132 124/132/121
f 132/140/133 123/131/117 129/137/128
f 135/143/134 134/142/135 133/141/136
f 134/142/137 135/143/138 136/144/139
f 138/146/140 126/134/123 137/145/141
f 126/134/123 138/146/142 125/133/124
f 130/138/127 128/136/126 127/135/125
f 128/136/143 130/138/129 131/139/131
f 134/142/135 137/145/144 133/141/136
f 137/145/141 134/142/137 138/146/140
f 124/132/121 136/144/139 135/143/138
f 136/144/145 124/132/121 132/140/132
f 124/132/121 139/147/146 122/130/118
f 139/147/146 124/132/121 135/143/147
f 140/148/148 128/136/149 131/139/131
f 128/136/126 140/148/148 141/149/150
f 137/145/151 143/151/152 142/150/153
f 143/151/152 137/145/141 126/134/123
f 137/145/151 144/152/154 133/141/136
f 144/152/154 137/145/141 142/150/153
f 126/134/123 141/149/150 143/151/152
f 141/149/150 126/134/123 128/136/149
f 133/141/136 139/147/146 135/143/138
f 139/147/146 133/141/136 144/152/154
f 121/129/119 131/139/131 123/131/120
f 131/139/131 121/129/119 140/148/148
f 147/155/18 146/154/18 145/153/18
f 146/154/18 147/155/18 148/156/18
f 146/154/18 148/156/18 149/157/18
f 149/157/18 148/156/18 150/158/18
f 149/157/18 150/158/18 151/159/18
f 151/159/18 150/158/18 152/160/18
f 155/163/155 154/162/156 153/161/157
f 154/162/158 155/163/159 156/164/160
f 154/162/158 156/164/161 157/165/162
f 157/165/162 156/164/161 158/166/163
f 157/165/164 158/166/163 159/167/165
f 159/167/166 158/166/167 160/168/168
f 162/170/169 153/161/157 161/169/170
f 153/161/157 162/170/169 155/163/159
f 163/171/171 154/162/158 157/165/162
f 154/162/158 163/171/171 164/172/172
f 165/173/173 157/165/162 159/167/165
f 157/165/162 165/173/173 163/171/171
f 159/167/165 166/174/174 165/173/173
f 166/174/174 159/167/165 160/168/168
f 167/175/175 158/166/163 156/164/161
f 158/166/163 167/175/175 168/176/176
f 161/169/170 154/162/158 164/172/172
f 154/162/158 161/169/170 153/161/157
f 158/166/163 166/174/174 160/168/168
f 166/174/174 158/166/163 168/176/176
f 162/170/169 156/164/161 155/163/159
f 156/164/161 162/170/169 167/175/175
f 147/155/177 161/169/170 164/172/172
f 161/169/170 147/155/178 145/153/179
f 166/174/174 151/159/180 152/160/181
f 151/159/182 166/174/174 168/176/176
f 149/157/183 168/176/176 167/175/175
f 168/176/176 149/157/183 151/159/180
f 166/174/174 150/158/184 165/173/173
f 150/158/185 166/174/174 152/160/181
f 148/156/186 164/172/172 163/171/171
f 164/172/172 148/156/186 147/155/178
f 150/158/187 163/171/171 165/173/173
f 163/171/171 150/158/185 148/156/186
f 146/154/188 167/175/175 162/170/169
f 167/175/175 146/154/189 149/157/183
f 146/154/189 161/169/170 145/153/179
f 161/169/170 146/154/190 162/170/169
f 171/179/191 170/178/192 169/177/193
f 170/178/192 171/179/191 172/180/194
f 171/179/195 173/181/196 172/180/194
f 173/181/196 171/179/195 174/182/197
f 169/177/198 176/184/199 175/183/200
f 176/184/199 169/177/201 170/178/192
f 177/185/202 174/182/197 171/179/203
f 174/182/197 177/185/202 178/186/204
f 181/189/205 180/188/206 179/187/207
f 180/188/206 181/189/205 182/190/208
f 179/187/209 183/191/210 175/183/211
f 183/191/210 179/187/209 180/188/206
f 184/192/212 171/179/213 169/177/198
f 171/179/213 184/192/212 177/185/202
f 185/193/214 174/182/197 178/186/204
f 174/182/197 185/193/214 186/194/215
f 187/195/216 186/194/217 185/193/214
f 186/194/217 187/195/216 188/196/218
f 181/189/219 187/195/216 182/190/208
f 187/195/216 181/189/219 188/196/218
f 175/183/220 184/192/212 169/177/198
f 184/192/212 175/183/220 183/191/210
f 181/189/221 190/198/222 189/197/223
f 190/198/222 181/189/221 179/187/209
f 189/197/223 188/196/218 181/189/205
f 188/196/224 189/197/223 191/199/225
f 174/182/226 192/200/227 173/181/196
f 192/200/227 174/182/228 186/194/217
f 192/200/227 188/196/224 191/199/225
f 188/196/218 192/200/227 186/194/229
f 179/187/230 176/184/199 190/198/222
f 176/184/199 179/187/207 175/183/220
f 195/203/231 194/202/232 193/201/231
f 194/202/232 195/203/233 196/204/232
f 199/207/1 198/206/1 197/205/1
f 198/206/1 199/207/1 193/201/1
f 198/206/1 193/201/1 200/208/1
f 200/208/1 193/201/1 194/202/1
f 200/208/1 194/202/1 201/209/1
f 201/209/1 194/202/1 202/210/1
f 203/211/234 199/207/235 197/205/234
f 199/207/235 203/211/234 204/212/235
f 204/212/235 193/201/231 199/207/235
f 193/201/233 204/212/235 195/203/231
f 205/213/236 197/205/234 198/206/236
f 197/205/237 205/213/236 203/211/234
f 206/214/238 196/204/239 195/203/238
f 196/204/240 206/214/241 207/215/240
f 209/217/242 207/215/240 208/216/242
f 207/215/239 209/217/243 196/204/239
f 211/219/244 203/211/245 210/218/245
f 203/211/246 211/219/247 204/212/247
f 213/221/248 205/213/249 212/220/248
f 205/213/250 213/221/251 214/222/250
f 209/217/243 216/224/252 215/223/252
f 216/224/253 209/217/242 208/216/242
f 211/219/247 195/203/238 204/212/247
f 195/203/241 211/219/244 206/214/241
f 214/222/249 203/211/246 205/213/249
f 203/211/245 214/222/250 210/218/245
f 216/224/252 212/220/248 215/223/252
f 212/220/251 216/224/253 213/221/251
f 194/202/232 209/217/254 202/210/254
f 209/217/255 194/202/232 196/204/232
f 215/223/256 200/208/257 201/209/256
f 200/208/258 215/223/256 212/220/257
f 202/210/254 215/223/256 201/209/256
f 215/223/256 202/210/255 209/217/254
f 212/220/257 198/206/236 200/208/257
f 198/206/236 212/220/257 205/213/236
f 3/3/1 2/2/1 1/1/1
f 2/2/1 3/3/1 4/4/1
f 4/4/1 3/3/1 5/5/1
f 4/4/1 5/5/1 6/6/1
f 4/4/1 6/6/1 7/7/1
f 7/7/1 6/6/1 8/8/1
f 10/11/2 1/1/3 9/9/4
f 1/1/3 10/11/2 3/3/5
f 11/13/6 4/4/7 7/7/8
f 4/4/7 11/13/6 12/15/9
f 10/11/2 5/5/10 3/3/5
f 5/5/10 10/11/2 13/17/11
f 7/7/8 14/19/12 11/13/6
f 14/19/12 7/7/8 8/8/13
f 13/17/11 6/6/14 5/5/10
f 6/6/14 13/17/11 15/21/15
f 9/9/4 2/2/16 16/23/17
f 2/2/16 9/9/4 1/1/3
f 12/15/9 2/2/16 4/4/7
f 2/2/16 12/15/9 16/23/17
f 6/6/14 14/19/12 8/8/13
f 14/19/12 6/6/14 15/21/15
f 19/27/18 18/26/18 17/25/18
f 18/26/18 19/27/18 20/28/18
f 18/26/18 20/28/18 21/29/18
f 21/29/18 20/28/18 22/30/18
f 21/29/18 22/30/18 23/31/18
f 23/31/18 22/30/18 24/32/18
f 15/21/19 25/33/20 14/19/12
f 25/33/20 15/21/15 26/34/21
f 14/19/22 27/35/23 11/13/6
f 27/35/23 14/19/12 25/33/20
f 28/36/24 9/9/25 16/23/17
f 9/9/4 28/36/24 29/37/26
f 27/35/23 12/15/27 11/13/6
f 12/15/9 27/35/23 30/38/28
f 18/26/29 32/40/30 31/39/31
f 32/40/30 18/26/29 21/29/32
f 18/26/29 29/37/26 17/25/33
f 29/37/26 18/26/29 31/39/31
f 19/27/34 29/37/26 28/36/24
f 29/37/26 19/27/34 17/25/33
f 20/28/35 28/36/24 30/38/28
f 28/36/24 20/28/35 19/27/34
f 21/29/32 26/34/21 32/40/30
f 26/34/21 21/29/32 23/31/36
f 25/33/20 23/31/36 24/32/37
f 23/31/36 25/33/20 26/34/21
f 25/33/20 22/30/38 27/35/23
f 22/30/38 25/33/20 24/32/37
f 31/39/31 9/9/4 29/37/26
f 9/9/25 31/39/31 10/11/2
f 31/39/31 13/17/39 10/11/2
f 13/17/11 31/39/31 32/40/30
f 30/38/28 16/23/40 12/15/9
f 16/23/17 30/38/28 28/36/24
f 22/30/38 30/38/28 27/35/23
f 30/38/28 22/30/38 20/28/35
f 32/40/30 15/21/19 13/17/11
f 15/21/15 32/40/30 26/34/21
f 35/43/1 34/42/1 33/41/1
f 34/42/1 35/43/1 36/44/1
f 34/42/1 36/44/1 37/45/1
f 37/45/1 36/44/1 38/46/1
f 37/45/1 38/46/1 39/47/1
f 39/47/1 38/46/1 40/48/1
f 41/49/4 35/43/5 33/41/3
f 35/43/5 41/49/4 42/50/2
f 43/51/6 37/45/7 39/47/8
f 37/45/7 43/51/6 44/52/9
f 42/50/2 36/44/10 35/43/5
f 36/44/10 42/50/2 45/53/11
f 39/47/8 46/54/12 43/51/6
f 46/54/12 39/47/8 40/48/13
f 45/53/11 38/46/14 36/44/10
f 38/46/14 45/53/11 47/55/15
f 41/49/4 34/42/16 48/56/17
f 34/42/16 41/49/4 33/41/3
f 44/52/9 34/42/16 37/45/7
f 34/42/16 44/52/9 48/56/17
f 38/46/14 46/54/12 40/48/13
f 46/54/12 38/46/14 47/55/15
f 49/57/41 44/52/27 43/51/6
f 44/52/9 49/57/42 50/58/43
f 46/54/22 49/57/41 43/51/6
f 49/57/42 46/54/12 51/59/44
f 52/60/45 45/53/39 42/50/2
f 45/53/11 52/60/46 53/61/47
f 50/58/43 48/56/40 44/52/9
f 48/56/17 50/58/48 54/62/49
f 47/55/19 51/59/44 46/54/12
f 51/59/50 47/55/15 55/63/51
f 54/62/49 41/49/25 48/56/17
f 41/49/4 54/62/52 56/64/53
f 53/61/47 47/55/19 45/53/11
f 47/55/15 53/61/54 55/63/51
f 52/60/46 41/49/4 56/64/53
f 41/49/25 52/60/45 42/50/2
f 59/67/18 58/66/18 57/65/18
f 58/66/18 59/67/18 60/68/18
f 58/66/18 60/68/18 61/69/18
f 61/69/18 60/68/18 62/70/18
f 61/69/18 62/70/18 63/71/18
f 63/71/18 62/70/18 64/72/18
f 65/73/55 50/58/48 49/57/42
f 50/58/48 65/73/56 66/74/57
f 67/75/58 56/64/59 54/62/52
f 56/64/59 67/75/60 68/76/61
f 55/63/62 69/77/63 51/59/50
f 69/77/64 55/63/62 70/78/65
f 66/74/66 54/62/52 50/58/48
f 54/62/52 66/74/57 67/75/60
f 71/79/67 55/63/62 53/61/54
f 55/63/62 71/79/68 70/78/65
f 51/59/50 65/73/55 49/57/42
f 65/73/56 51/59/50 69/77/64
f 68/76/69 52/60/46 56/64/59
f 52/60/46 68/76/61 72/80/70
f 72/80/71 53/61/54 52/60/46
f 53/61/54 72/80/70 71/79/68
f 69/77/64 63/71/72 64/72/73
f 63/71/72 69/77/63 70/78/65
f 62/70/74 66/74/66 65/73/56
f 66/74/57 62/70/74 60/68/75
f 58/66/76 71/79/67 72/80/70
f 71/79/68 58/66/76 61/69/77
f 61/69/77 70/78/78 71/79/68
f 70/78/65 61/69/79 63/71/72
f 58/66/76 68/76/61 57/65/80
f 68/76/69 58/66/76 72/80/70
f 60/68/75 67/75/58 66/74/57
f 67/75/60 60/68/81 59/67/82
f 69/77/63 62/70/74 65/73/56
f 62/70/74 69/77/64 64/72/73
f 59/67/82 68/76/69 67/75/60
f 68/76/61 59/67/82 57/65/80
f 75/83/1 74/82/1 73/81/1
f 74/82/1 75/83/1 76/84/1
f 74/82/1 76/84/1 77/85/1
f 77/85/1 76/84/1 78/86/1
f 77/85/1 78/86/1 79/87/1
f 79/87/1 78/86/1 80/88/1
f 81/89/4 75/83/5 73/81/3
f 75/83/5 81/89/4 82/90/2
f 83/91/6 77/85/7 79/87/8
f 77/85/7 83/91/6 84/92/9
f 82/90/2 76/84/10 75/83/5
f 76/84/10 82/90/2 85/93/11
f 79/87/8 86/94/12 83/91/6
f 86/94/12 79/87/8 80/88/13
f 85/93/11 78/86/14 76/84/10
f 78/86/14 85/93/11 87/95/15
f 81/89/4 74/82/16 88/96/17
f 74/82/16 81/89/4 73/81/3
f 84/92/9 74/82/16 77/85/7
f 74/82/16 84/92/9 88/96/17
f 78/86/14 86/94/12 80/88/13
f 86/94/12 78/86/14 87/95/15
f 91/99/18 90/98/18 89/97/18
f 90/98/18 91/99/18 92/100/18
f 90/98/18 92/100/18 93/101/18
f 93/101/18 92/100/18 94/102/18
f 93/101/18 94/102/18 95/103/18
f 95/103/18 94/102/18 96/104/18
f 87/95/19 97/105/20 86/94/12
f 97/105/20 87/95/15 98/106/21
f 86/94/22 99/107/23 83/91/6
f 99/107/23 86/94/12 97/105/20
f 100/108/24 81/89/25 88/96/17
f 81/89/4 100/108/24 101/109/26
f 99/107/23 84/92/27 83/91/6
f 84/92/9 99/107/23 102/110/28
f 90/98/29 104/112/30 103/111/31
f 104/112/30 90/98/29 93/101/32
f 90/98/29 101/109/26 89/97/33
f 101/109/26 90/98/29 103/111/31
f 91/99/34 101/109/26 100/108/24
f 101/109/26 91/99/34 89/97/33
f 92/100/35 100/108/24 102/110/28
f 100/108/24 92/100/35 91/99/34
f 93/101/32 98/106/21 104/112/30
f 98/106/21 93/101/32 95/103/36
f 97/105/20 95/103/36 96/104/37
f 95/103/36 97/105/20 98/106/21
f 97/105/20 94/102/38 99/107/23
f 94/102/38 97/105/20 96/104/37
f 103/111/31 81/89/4 101/109/26
f 81/89/25 103/111/31 82/90/2
f 103/111/31 85/93/39 82/90/2
f 85/93/11 103/111/31 104/112/30
f 102/110/28 88/96/40 84/92/9
f 88/96/17 102/110/28 100/108/24
f 94/102/38 102/110/28 99/107/23
f 102/110/28 94/102/38 92/100/35
f 104/112/30 87/95/19 85/93/11
f 87/95/15 104/112/30 98/106/21
f 11/14/83 106/114/84 105/113/85
f 106/114/84 11/14/83 14/20/86
f 105/113/85 12/16/87 11/14/83
f 12/16/87 105/113/88 107/115/89
f 14/20/86 108/116/90 106/114/84
f 108/116/91 14/20/86 15/22/92
f 109/117/93 15/22/92 13/18/94
f 15/22/92 109/117/93 108/116/91
f 107/115/89 111/119/95 110/118/96
f 111/119/95 107/115/97 112/120/98
f 105/113/88 114/122/99 113/121/100
f 114/122/99 105/113/88 106/114/84
f 116/124/101 9/10/102 115/123/103
f 9/10/102 116/124/104 10/12/105
f 117/125/106 109/117/93 116/124/107
f 109/117/108 117/125/106 118/126/109
f 116/124/101 13/18/94 10/12/105
f 13/18/94 116/124/104 109/117/93
f 114/122/99 108/116/91 119/127/110
f 108/116/91 114/122/99 106/114/84
f 105/113/85 112/120/98 107/115/89
f 112/120/98 105/113/85 113/121/100
f 119/127/110 109/117/111 118/126/109
f 109/117/93 119/127/110 108/116/112
f 120/128/113 116/124/104 115/123/103
f 116/124/104 120/128/113 117/125/106
f 110/118/114 120/128/113 115/123/103
f 120/128/113 110/118/114 111/119/95
f 107/115/89 16/24/115 12/16/87
f 16/24/115 107/115/89 110/118/114
f 115/123/103 16/24/115 110/118/116
f 16/24/115 115/123/103 9/10/102
f 123/131/117 122/130/118 121/129/119
f 122/130/118 123/131/120 124/132/121
f 127/135/122 126/134/123 125/133/124
f 126/134/123 127/135/125 128/136/126
f 123/131/120 130/138/127 129/137/128
f 130/138/129 123/131/130 131/139/131
f 123/131/130 132/140/132 124/132/121
f 132/140/133 123/131/117 129/137/128
f 135/143/134 134/142/135 133/141/136
f 134/142/137 135/143/138 136/144/139
f 138/146/140 126/134/123 137/145/141
f 126/134/123 138/146/142 125/133/124
f 130/138/127 128/136/126 127/135/125
f 128/136/143 130/138/129 131/139/131
f 134/142/135 137/145/144 133/141/136
f 137/145/141 134/142/137 138/146/140
f 124/132/121 136/144/139 135/143/138
f 136/144/145 124/132/121 132/140/132
f 124/132/121 139/147/146 122/130/118
f 139/147/146 124/132/121 135/143/147
f 140/148/148 128/136/149 131/139/131
f 128/136/126 140/148/148 141/149/150
f 137/145/151 143/151/152 142/150/153
f 143/151/152 137/145/141 126/134/123
f 137/145/151 144/152/154 133/141/136
f 144/152/154 137/145/141 142/150/153
f 126/134/123 141/149/150 143/151/152
f 141/149/150 126/134/123 128/136/149
f 133/141/136 139/147/146 135/143/138
f 139/147/146 133/141/136 144/152/154
f 121/129/119 131/139/131 123/131/120
f 131/139/131 121/129/119 140/148/148
f 147/155/18 146/154/18 145/153/18
f 146/154/18 147/155/18 148/156/18
f 146/154/18 148/156/18 149/157/18
f 149/157/18 148/156/18 150/158/18
f 149/157/18 150/158/18 151/159/18
f 151/159/18 150/158/18 152/160/18
f 155/163/155 154/162/156 153/161/157
f 154/162/158 155/163/159 156/164/160
f 154/162/158 156/164/161 157/165/162
f 157/165/162 156/164/161 158/166/163
f 157/165/164 158/166/163 159/167/165
f 159/167/166 158/166/167 160/168/168
f 162/170/169 153/161/157 161/169/170
f 153/161/157 162/170/169 155/163/159
f 163/171/171 154/162/158 157/165/162
f 154/162/158 163/171/171 164/172/172
f 165/173/173 157/165/162 159/167/165
f 157/165/162 165/173/173 163/171/171
f 159/167/165 166/174/174 165/173/173
f 166/174/174 159/167/165 160/168/168
f 167/175/175 158/166/163 156/164/161
f 158/166/163 167/175/175 168/176/176
f 161/169/170 154/162/158 164/172/172
f 154/162/158 161/169/170 153/161/157
f 158/166/163 166/174/174 160/168/168
f 166/174/174 158/166/163 168/176/176
f 162/170/169 156/164/161 155/163/159
f 156/164/161 162/170/169 167/175/175
f 147/155/177 161/169/170 164/172/172
f 161/169/170 147/155/178 145/153/179
f 166/174/174 151/159/180 152/160/181
f 151/159/182 166/174/174 168/176/176
f 149/157/183 168/176/176 167/175/175
f 168/176/176 149/157/183 151/159/180
f 166/174/174 150/158/184 165/173/173
f 150/158/185 166/174/174 152/160/181
f 148/156/186 164/172/172 163/171/171
f 164/172/172 148/156/186 147/155/178
f 150/158/187 163/171/171 165/173/173
f 163/171/171 150/158/185 148/156/186
f 146/154/188 167/175/175 162/170/169
f 167/175/175 146/154/189 149/157/183
f 146/154/189 161/169/170 145/153/179
f 161/169/170 146/154/190 162/170/169
f 171/179/191 170/178/192 169/177/193
f 170/178/192 171/179/191 172/180/194
f 171/179/195 173/181/196 172/180/194
f 173/181/196 171/179/195 174/182/197
f 169/177/198 176/184/199 175/183/200
f 176/184/199 169/177/201 170/178/192
f 177/185/202 174/182/197 171/179/203
f 174/182/197 177/185/202 178/186/204
f 181/189/205 180/188/206 179/187/207
f 180/188/206 181/189/205 182/190/208
f 179/187/209 183/191/210 175/183/211
f 183/191/210 179/187/209 180/188/206
f 184/192/212 171/179/213 169/177/198
f 171/179/213 184/192/212 177/185/202
f 185/193/214 174/182/197 178/186/204
f 174/182/197 185/193/214 186/194/215
f 187/195/216 186/194/217 185/193/214
f 186/194/217 187/195/216 188/196/218
f 181/189/219 187/195/216 182/190/208
f 187/195/216 181/189/219 188/196/218
f 175/183/220 184/192/212 169/177/198
f 184/192/212 175/183/220 183/191/210
f 181/189/221 190/198/222 189/197/223
f 190/198/222 181/189/221 179/187/209
f 189/197/223 188/196/218 181/189/205
f 188/196/224 189/197/223 191/199/225
f 174/182/226 192/200/227 173/181/196
f 192/200/227 174/182/228 186/194/217
f 192/200/227 188/196/224 191/199/225
f 188/196/218 192/200/227 186/194/229
f 179/187/230 176/184/199 190/198/222
f 176/184/199 179/187/207 175/183/220
f 195/203/231 194/202/232 193/201/231
f 194/202/232 195/203/233 196/204/232
f 199/207/1 198/206/1 197/205/1
f 198/206/1 199/207/1 193/201/1
f 198/206/1 193/201/1 200/208/1
f 200/208/1 193/201/1 194/202/1
f 200/208/1 194/202/1 201/209/1
f 201/209/1 194/202/1 202/210/1
f 203/211/234 199/207/235 197/205/234
f 199/207/235 203/211/234 204/212/235
f 204/212/235 193/201/231 199/207/235
f 193/201/233 204/212/235 195/203/231
f 205/213/236 197/205/234 198/206/236
f 197/205/237 205/213/236 203/211/234
f 206/214/238 196/204/239 195/203/238
f 196/204/240 206/214/241 207/215/240
f 209/217/242 207/215/240 208/216/242
f 207/215/239 209/217/243 196/204/239
f 211/219/244 203/211/245 210/218/245
f 203/211/246 211/219/247 204/212/247
f 213/221/248 205/213/249 212/220/248
f 205/213/250 213/221/251 214/222/250
f 209/217/243 216/224/252 215/223/252
f 216/224/253 209/217/242 208/216/242
f 211/219/247 195/203/238 204/212/247
f 195/203/241 211/219/244 206/214/241
f 214/222/249 203/211/246 205/213/249
f 203/211/245 214/222/250 210/218/245
f 216/224/252 212/220/248 215/223/252
f 212/220/251 216/224/253 213/221/251
f 194/202/232 209/217/254 202/210/254
f 209/217/255 194/202/232 196/204/232
f 215/223/256 200/208/257 201/209/256
f 200/208/258 215/223/256 212/220/257
f 202/210/254 215/223/256 201/209/256
f 215/223/256 202/210/255 209/217/254
f 212/220/257 198/206/236 200/208/257
f 198/206/236 212/220/257 205/213/236
