# Blender 3.3.1
# www.blender.org
mtllib TurnTable_turn.mtl
o Plane
v -0.100000 0.400000 0.036000
v -0.020000 0.400000 0.036000
v -0.100000 -0.400000 0.036000
v -0.020000 -0.400000 0.036000
v 0.300000 -0.000000 0.036000
v 0.380000 -0.000000 0.036000
v 0.180000 -0.200000 0.036000
v 0.100000 -0.200000 0.036000
v 0.100000 0.200000 0.036000
v 0.180000 0.200000 0.036000
v -0.100000 0.400000 -0.036000
v -0.020000 0.400000 -0.036000
v -0.100000 -0.400000 -0.036000
v -0.020000 -0.400000 -0.036000
v 0.300000 0.000000 -0.036000
v 0.380000 0.000000 -0.036000
v 0.180000 -0.200000 -0.036000
v 0.100000 -0.200000 -0.036000
v 0.100000 0.200000 -0.036000
v 0.180000 0.200000 -0.036000
v -0.160000 0.320000 0.036000
v -0.080000 0.320000 0.036000
v -0.160000 -0.320000 0.036000
v -0.080000 -0.320000 0.036000
v 0.160000 -0.000000 0.036000
v 0.240000 -0.000000 0.036000
v 0.040000 -0.200000 0.036000
v -0.040000 -0.200000 0.036000
v -0.040000 0.200000 0.036000
v 0.040000 0.200000 0.036000
v -0.160000 0.320000 -0.036000
v -0.080000 0.320000 -0.036000
v -0.160000 -0.320000 -0.036000
v -0.080000 -0.320000 -0.036000
v 0.160000 0.000000 -0.036000
v 0.240000 0.000000 -0.036000
v 0.040000 -0.200000 -0.036000
v -0.040000 -0.200000 -0.036000
v -0.040000 0.200000 -0.036000
v 0.040000 0.200000 -0.036000
v -0.000000 -0.500000 0.020000
v 0.000000 -0.500000 -0.020000
v 0.097545 -0.490393 0.020000
v 0.097545 -0.490393 -0.020000
v 0.191342 -0.461940 0.020000
v 0.191342 -0.461940 -0.020000
v 0.277785 -0.415735 0.020000
v 0.277785 -0.415735 -0.020000
v 0.353553 -0.353553 0.020000
v 0.353553 -0.353553 -0.020000
v 0.415735 -0.277785 0.020000
v 0.415735 -0.277785 -0.020000
v 0.461940 -0.191342 0.020000
v 0.461940 -0.191342 -0.020000
v 0.490393 -0.097545 0.020001
v 0.490393 -0.097545 -0.019999
v 0.500000 -0.000000 0.020001
v 0.500000 0.000000 -0.019999
v 0.490393 0.097545 0.020001
v 0.490393 0.097545 -0.019999
v 0.461940 0.191342 0.020000
v 0.461940 0.191342 -0.020000
v 0.415735 0.277785 0.020000
v 0.415735 0.277785 -0.020000
v 0.353553 0.353553 0.020000
v 0.353553 0.353553 -0.020000
v 0.277785 0.415735 0.020000
v 0.277785 0.415735 -0.020000
v 0.191342 0.461940 0.020000
v 0.191342 0.461940 -0.020000
v 0.097545 0.490393 0.020000
v 0.097545 0.490393 -0.020000
v -0.000000 0.500000 0.020000
v 0.000000 0.500000 -0.020000
v -0.097545 0.490393 0.020000
v -0.097545 0.490393 -0.020000
v -0.191342 0.461940 0.020000
v -0.191342 0.461940 -0.020000
v -0.277785 0.415735 0.020000
v -0.277785 0.415735 -0.020000
v -0.353553 0.353553 0.020000
v -0.353553 0.353553 -0.020000
v -0.415735 0.277785 0.020000
v -0.415735 0.277785 -0.020000
v -0.461940 0.191342 0.020000
v -0.461940 0.191342 -0.020000
v -0.490393 0.097545 0.019999
v -0.490393 0.097545 -0.020001
v -0.500000 -0.000000 0.019999
v -0.500000 0.000000 -0.020001
v -0.490393 -0.097545 0.019999
v -0.490393 -0.097545 -0.020001
v -0.461940 -0.191342 0.020000
v -0.461940 -0.191342 -0.020000
v -0.415735 -0.277785 0.020000
v -0.415735 -0.277785 -0.020000
v -0.353553 -0.353553 0.020000
v -0.353553 -0.353553 -0.020000
v -0.277785 -0.415735 0.020000
v -0.277785 -0.415735 -0.020000
v -0.191342 -0.461940 0.020000
v -0.191342 -0.461940 -0.020000
v -0.097545 -0.490393 0.020000
v -0.097545 -0.490393 -0.020000
vn -0.0000 -0.0000 1.0000
vn -0.0000 -0.0000 -1.0000
vn -0.0000 -1.0000 -0.0000
vn -0.7071 -0.7071 -0.0000
vn 0.7071 -0.7071 -0.0000
vn -0.7071 0.7071 -0.0000
vn 0.7071 0.7071 -0.0000
vn -0.0000 1.0000 -0.0000
vn 0.0980 -0.9952 -0.0000
vn 0.2903 -0.9569 -0.0000
vn 0.4714 -0.8819 -0.0000
vn 0.6344 -0.7730 -0.0000
vn 0.7730 -0.6344 -0.0000
vn 0.8819 -0.4714 -0.0000
vn 0.9569 -0.2903 -0.0000
vn 0.9952 -0.0980 -0.0000
vn 0.9952 0.0980 -0.0000
vn 0.9569 0.2903 -0.0000
vn 0.8819 0.4714 -0.0000
vn 0.7730 0.6344 -0.0000
vn 0.6344 0.7730 -0.0000
vn 0.4714 0.8819 -0.0000
vn 0.2903 0.9569 -0.0000
vn 0.0980 0.9952 -0.0000
vn -0.0980 0.9952 -0.0000
vn -0.2903 0.9569 -0.0000
vn -0.4714 0.8819 -0.0000
vn -0.6344 0.7730 -0.0000
vn -0.7730 0.6344 -0.0000
vn -0.8819 0.4714 -0.0000
vn -0.9569 0.2903 -0.0000
vn -0.9952 0.0980 -0.0000
vn -0.9952 -0.0980 -0.0000
vn -0.9569 -0.2903 -0.0000
vn -0.8819 -0.4714 -0.0000
vn -0.7730 -0.6344 -0.0000
vn -0.6344 -0.7730 -0.0000
vn -0.4714 -0.8819 -0.0000
vn -0.2903 -0.9569 -0.0000
vn -0.0980 -0.9952 -0.0000
vt 0.332656 0.322891
vt 0.362656 0.322891
vt 0.332656 0.352891
vt 0.362656 0.352891
vt 0.332656 0.337891
vt 0.362656 0.337891
vt 0.362656 0.345391
vt 0.332656 0.345391
vt 0.332656 0.330391
vt 0.362656 0.330391
vt 0.332656 0.322891
vt 0.362656 0.322891
vt 0.332656 0.352891
vt 0.362656 0.352891
vt 0.332656 0.337891
vt 0.362656 0.337891
vt 0.362656 0.345391
vt 0.332656 0.345391
vt 0.332656 0.330391
vt 0.362656 0.330391
vt 0.332656 0.322891
vt 0.362656 0.322891
vt 0.332656 0.352891
vt 0.362656 0.352891
vt 0.332656 0.337891
vt 0.362656 0.337891
vt 0.362656 0.345391
vt 0.332656 0.345391
vt 0.332656 0.330391
vt 0.362656 0.330391
vt 0.332656 0.322891
vt 0.362656 0.322891
vt 0.332656 0.352891
vt 0.362656 0.352891
vt 0.332656 0.337891
vt 0.362656 0.337891
vt 0.362656 0.345391
vt 0.332656 0.345391
vt 0.332656 0.330391
vt 0.362656 0.330391
vt 0.103750 0.208025
vt 0.083750 0.208025
vt 0.098750 0.207825
vt 0.103750 0.218025
vt 0.088750 0.207825
vt 0.083750 0.218025
vt 0.103125 0.208025
vt 0.099687 0.207733
vt 0.103125 0.218025
vt 0.089687 0.207733
vt 0.102500 0.208025
vt 0.100587 0.207460
vt 0.102500 0.218025
vt 0.090587 0.207460
vt 0.101875 0.208025
vt 0.101417 0.207016
vt 0.101875 0.218025
vt 0.091417 0.207016
vt 0.101250 0.208025
vt 0.102144 0.206419
vt 0.101250 0.218025
vt 0.092144 0.206419
vt 0.100625 0.208025
vt 0.102741 0.205692
vt 0.100625 0.218025
vt 0.092741 0.205692
vt 0.100000 0.208025
vt 0.103185 0.204862
vt 0.100000 0.218025
vt 0.093185 0.204862
vt 0.099375 0.208025
vt 0.103458 0.203961
vt 0.099375 0.218025
vt 0.093458 0.203961
vt 0.098750 0.208025
vt 0.103550 0.203025
vt 0.098750 0.218025
vt 0.093550 0.203025
vt 0.098125 0.208025
vt 0.103458 0.202089
vt 0.098125 0.218025
vt 0.093458 0.202089
vt 0.097500 0.208025
vt 0.103185 0.201188
vt 0.097500 0.218025
vt 0.093185 0.201188
vt 0.096875 0.208025
vt 0.102741 0.200358
vt 0.096875 0.218025
vt 0.092741 0.200358
vt 0.096250 0.208025
vt 0.102144 0.199631
vt 0.096250 0.218025
vt 0.092144 0.199631
vt 0.095625 0.208025
vt 0.101417 0.199034
vt 0.095625 0.218025
vt 0.091417 0.199034
vt 0.095000 0.208025
vt 0.100587 0.198590
vt 0.095000 0.218025
vt 0.090587 0.198590
vt 0.094375 0.208025
vt 0.099687 0.198317
vt 0.094375 0.218025
vt 0.089687 0.198317
vt 0.093750 0.208025
vt 0.098750 0.198225
vt 0.093750 0.218025
vt 0.088750 0.198225
vt 0.093125 0.208025
vt 0.097814 0.198317
vt 0.093125 0.218025
vt 0.087814 0.198317
vt 0.092500 0.208025
vt 0.096913 0.198590
vt 0.092500 0.218025
vt 0.086913 0.198590
vt 0.091875 0.208025
vt 0.096083 0.199034
vt 0.091875 0.218025
vt 0.086083 0.199034
vt 0.091250 0.208025
vt 0.095356 0.199631
vt 0.091250 0.218025
vt 0.085356 0.199631
vt 0.090625 0.208025
vt 0.094759 0.200358
vt 0.090625 0.218025
vt 0.084759 0.200358
vt 0.090000 0.208025
vt 0.094315 0.201188
vt 0.090000 0.218025
vt 0.084315 0.201188
vt 0.089375 0.208025
vt 0.094042 0.202089
vt 0.089375 0.218025
vt 0.084042 0.202089
vt 0.088750 0.208025
vt 0.093950 0.203025
vt 0.088750 0.218025
vt 0.083950 0.203025
vt 0.088125 0.208025
vt 0.094042 0.203961
vt 0.088125 0.218025
vt 0.084042 0.203961
vt 0.087500 0.208025
vt 0.094315 0.204862
vt 0.087500 0.218025
vt 0.084315 0.204862
vt 0.086875 0.208025
vt 0.094759 0.205692
vt 0.086875 0.218025
vt 0.084759 0.205692
vt 0.086250 0.208025
vt 0.095356 0.206419
vt 0.086250 0.218025
vt 0.085356 0.206419
vt 0.085625 0.208025
vt 0.096083 0.207016
vt 0.085625 0.218025
vt 0.086083 0.207016
vt 0.085000 0.208025
vt 0.096913 0.207460
vt 0.086913 0.207460
vt 0.085000 0.218025
vt 0.084375 0.208025
vt 0.097814 0.207733
vt 0.087814 0.207733
vt 0.084375 0.218025
s 0
f 8/8/1 4/4/1 7/7/1
f 5/5/1 10/10/1 9/9/1
f 5/5/1 7/7/1 6/6/1
f 9/9/1 2/2/1 1/1/1
f 18/18/2 14/14/2 13/13/2
f 20/20/2 15/15/2 19/19/2
f 15/15/2 17/17/2 18/18/2
f 12/12/2 19/19/2 11/11/2
f 3/3/3 14/14/3 4/4/3
f 9/9/4 15/15/4 5/5/4
f 1/1/4 19/19/4 9/9/4
f 7/7/5 16/16/5 6/6/5
f 5/5/6 18/18/6 8/8/6
f 10/10/7 12/12/7 2/2/7
f 2/2/8 11/11/8 1/1/8
f 8/8/6 13/13/6 3/3/6
f 6/6/7 20/20/7 10/10/7
f 4/4/5 17/17/5 7/7/5
f 28/28/1 24/24/1 27/27/1
f 25/25/1 30/30/1 29/29/1
f 25/25/1 27/27/1 26/26/1
f 29/29/1 22/22/1 21/21/1
f 38/38/2 34/34/2 33/33/2
f 40/40/2 35/35/2 39/39/2
f 35/35/2 37/37/2 38/38/2
f 32/32/2 39/39/2 31/31/2
f 23/23/3 34/34/3 24/24/3
f 29/29/4 35/35/4 25/25/4
f 21/21/4 39/39/4 29/29/4
f 27/27/5 36/36/5 26/26/5
f 25/25/6 38/38/6 28/28/6
f 30/30/7 32/32/7 22/22/7
f 22/22/8 31/31/8 21/21/8
f 28/28/6 33/33/6 23/23/6
f 26/26/7 40/40/7 30/30/7
f 24/24/5 37/37/5 27/27/5
f 42/44/9 43/47/9 41/41/9
f 44/49/10 45/51/10 43/47/10
f 46/53/11 47/55/11 45/51/11
f 48/57/12 49/59/12 47/55/12
f 50/61/13 51/63/13 49/59/13
f 52/65/14 53/67/14 51/63/14
f 54/69/15 55/71/15 53/67/15
f 56/73/16 57/75/16 55/71/16
f 58/77/17 59/79/17 57/75/17
f 60/81/18 61/83/18 59/79/18
f 62/85/19 63/87/19 61/83/19
f 64/89/20 65/91/20 63/87/20
f 66/93/21 67/95/21 65/91/21
f 68/97/22 69/99/22 67/95/22
f 70/101/23 71/103/23 69/99/23
f 72/105/24 73/107/24 71/103/24
f 74/109/25 75/111/25 73/107/25
f 76/113/26 77/115/26 75/111/26
f 78/117/27 79/119/27 77/115/27
f 80/121/28 81/123/28 79/119/28
f 82/125/29 83/127/29 81/123/29
f 84/129/30 85/131/30 83/127/30
f 86/133/31 87/135/31 85/131/31
f 88/137/32 89/139/32 87/135/32
f 90/141/33 91/143/33 89/139/33
f 92/145/34 93/147/34 91/143/34
f 94/149/35 95/151/35 93/147/35
f 96/153/36 97/155/36 95/151/36
f 98/157/37 99/159/37 97/155/37
f 100/161/38 101/163/38 99/159/38
f 78/118/2 62/86/2 46/54/2
f 102/166/39 103/167/39 101/163/39
f 104/170/40 41/42/40 103/167/40
f 71/104/1 87/136/1 103/168/1
f 8/8/1 3/3/1 4/4/1
f 5/5/1 6/6/1 10/10/1
f 5/5/1 8/8/1 7/7/1
f 9/9/1 10/10/1 2/2/1
f 18/18/2 17/17/2 14/14/2
f 20/20/2 16/16/2 15/15/2
f 15/15/2 16/16/2 17/17/2
f 12/12/2 20/20/2 19/19/2
f 3/3/3 13/13/3 14/14/3
f 9/9/4 19/19/4 15/15/4
f 1/1/4 11/11/4 19/19/4
f 7/7/5 17/17/5 16/16/5
f 5/5/6 15/15/6 18/18/6
f 10/10/7 20/20/7 12/12/7
f 2/2/8 12/12/8 11/11/8
f 8/8/6 18/18/6 13/13/6
f 6/6/7 16/16/7 20/20/7
f 4/4/5 14/14/5 17/17/5
f 28/28/1 23/23/1 24/24/1
f 25/25/1 26/26/1 30/30/1
f 25/25/1 28/28/1 27/27/1
f 29/29/1 30/30/1 22/22/1
f 38/38/2 37/37/2 34/34/2
f 40/40/2 36/36/2 35/35/2
f 35/35/2 36/36/2 37/37/2
f 32/32/2 40/40/2 39/39/2
f 23/23/3 33/33/3 34/34/3
f 29/29/4 39/39/4 35/35/4
f 21/21/4 31/31/4 39/39/4
f 27/27/5 37/37/5 36/36/5
f 25/25/6 35/35/6 38/38/6
f 30/30/7 40/40/7 32/32/7
f 22/22/8 32/32/8 31/31/8
f 28/28/6 38/38/6 33/33/6
f 26/26/7 36/36/7 40/40/7
f 24/24/5 34/34/5 37/37/5
f 42/44/9 44/49/9 43/47/9
f 44/49/10 46/53/10 45/51/10
f 46/53/11 48/57/11 47/55/11
f 48/57/12 50/61/12 49/59/12
f 50/61/13 52/65/13 51/63/13
f 52/65/14 54/69/14 53/67/14
f 54/69/15 56/73/15 55/71/15
f 56/73/16 58/77/16 57/75/16
f 58/77/17 60/81/17 59/79/17
f 60/81/18 62/85/18 61/83/18
f 62/85/19 64/89/19 63/87/19
f 64/89/20 66/93/20 65/91/20
f 66/93/21 68/97/21 67/95/21
f 68/97/22 70/101/22 69/99/22
f 70/101/23 72/105/23 71/103/23
f 72/105/24 74/109/24 73/107/24
f 74/109/25 76/113/25 75/111/25
f 76/113/26 78/117/26 77/115/26
f 78/117/27 80/121/27 79/119/27
f 80/121/28 82/125/28 81/123/28
f 82/125/29 84/129/29 83/127/29
f 84/129/30 86/133/30 85/131/30
f 86/133/31 88/137/31 87/135/31
f 88/137/32 90/141/32 89/139/32
f 90/141/33 92/145/33 91/143/33
f 92/145/34 94/149/34 93/147/34
f 94/149/35 96/153/35 95/151/35
f 96/153/36 98/157/36 97/155/36
f 98/157/37 100/161/37 99/159/37
f 100/161/38 102/166/38 101/163/38
f 46/54/2 44/50/2 42/45/2
f 42/45/2 104/169/2 102/165/2
f 102/165/2 100/162/2 98/158/2
f 98/158/2 96/154/2 94/150/2
f 94/150/2 92/146/2 90/142/2
f 90/142/2 88/138/2 86/134/2
f 86/134/2 84/130/2 82/126/2
f 82/126/2 80/122/2 78/118/2
f 78/118/2 76/114/2 74/110/2
f 74/110/2 72/106/2 70/102/2
f 70/102/2 68/98/2 66/94/2
f 66/94/2 64/90/2 62/86/2
f 62/86/2 60/82/2 58/78/2
f 58/78/2 56/74/2 54/70/2
f 54/70/2 52/66/2 50/62/2
f 50/62/2 48/58/2 46/54/2
f 46/54/2 42/45/2 102/165/2
f 102/165/2 98/158/2 94/150/2
f 94/150/2 90/142/2 86/134/2
f 86/134/2 82/126/2 78/118/2
f 78/118/2 74/110/2 70/102/2
f 70/102/2 66/94/2 62/86/2
f 62/86/2 58/78/2 54/70/2
f 54/70/2 50/62/2 46/54/2
f 46/54/2 102/165/2 94/150/2
f 94/150/2 86/134/2 78/118/2
f 78/118/2 70/102/2 62/86/2
f 62/86/2 54/70/2 46/54/2
f 46/54/2 94/150/2 78/118/2
f 102/166/39 104/170/39 103/167/39
f 104/170/40 42/46/40 41/42/40
f 103/168/1 41/43/1 43/48/1
f 43/48/1 45/52/1 47/56/1
f 47/56/1 49/60/1 51/64/1
f 51/64/1 53/68/1 55/72/1
f 55/72/1 57/76/1 59/80/1
f 59/80/1 61/84/1 63/88/1
f 63/88/1 65/92/1 67/96/1
f 67/96/1 69/100/1 71/104/1
f 71/104/1 73/108/1 75/112/1
f 75/112/1 77/116/1 79/120/1
f 79/120/1 81/124/1 83/128/1
f 83/128/1 85/132/1 87/136/1
f 87/136/1 89/140/1 91/144/1
f 91/144/1 93/148/1 95/152/1
f 95/152/1 97/156/1 99/160/1
f 99/160/1 101/164/1 103/168/1
f 103/168/1 43/48/1 47/56/1
f 47/56/1 51/64/1 55/72/1
f 55/72/1 59/80/1 63/88/1
f 63/88/1 67/96/1 71/104/1
f 71/104/1 75/112/1 79/120/1
f 79/120/1 83/128/1 87/136/1
f 87/136/1 91/144/1 95/152/1
f 95/152/1 99/160/1 103/168/1
f 103/168/1 47/56/1 55/72/1
f 55/72/1 63/88/1 71/104/1
f 71/104/1 79/120/1 87/136/1
f 87/136/1 95/152/1 103/168/1
f 103/168/1 55/72/1 71/104/1
