# Blender 3.3.1
# www.blender.org
o Cylinder
v 0.550000 0.000000 -0.011000
v 0.550000 0.000000 0.011000
v 0.539432 -0.107300 -0.011000
v 0.539432 -0.107300 0.011000
v 0.508134 -0.210476 -0.011000
v 0.508134 -0.210476 0.011000
v 0.457308 -0.305564 -0.011000
v 0.457308 -0.305564 0.011000
v 0.388909 -0.388909 -0.011000
v 0.388909 -0.388909 0.011000
v 0.305564 -0.457308 -0.011000
v 0.305564 -0.457308 0.011000
v 0.210476 -0.508134 -0.011000
v 0.210476 -0.508134 0.011000
v 0.107300 -0.539432 -0.011000
v 0.107300 -0.539432 0.011000
v 0.000000 -0.550000 -0.011000
v 0.000000 -0.550000 0.011000
v -0.107300 -0.539432 -0.011000
v -0.107300 -0.539432 0.011000
v -0.210476 -0.508134 -0.011000
v -0.210476 -0.508134 0.011000
v -0.305564 -0.457308 -0.011000
v -0.305564 -0.457308 0.011000
v -0.388909 -0.388909 -0.011000
v -0.388909 -0.388909 0.011000
v -0.457308 -0.305564 -0.011000
v -0.457308 -0.305564 0.011000
v -0.508134 -0.210476 -0.011000
v -0.508134 -0.210476 0.011000
v -0.539432 -0.107300 -0.011000
v -0.539432 -0.107300 0.011000
v -0.550000 0.000000 -0.011000
v -0.550000 0.000000 0.011000
v -0.539432 0.107300 -0.011000
v -0.539432 0.107300 0.011000
v -0.508134 0.210476 -0.011000
v -0.508134 0.210476 0.011000
v -0.457308 0.305564 -0.011000
v -0.457308 0.305564 0.011000
v -0.388909 0.388909 -0.011000
v -0.388909 0.388909 0.011000
v -0.305564 0.457308 -0.011000
v -0.305564 0.457308 0.011000
v -0.210476 0.508134 -0.011000
v -0.210476 0.508134 0.011000
v -0.107300 0.539432 -0.011000
v -0.107300 0.539432 0.011000
v 0.000000 0.550000 -0.011000
v 0.000000 0.550000 0.011000
v 0.107300 0.539432 -0.011000
v 0.107300 0.539432 0.011000
v 0.210476 0.508134 -0.011000
v 0.210476 0.508134 0.011000
v 0.305564 0.457308 -0.011000
v 0.305564 0.457308 0.011000
v 0.388909 0.388909 -0.011000
v 0.388909 0.388909 0.011000
v 0.457308 0.305564 -0.011000
v 0.457308 0.305564 0.011000
v 0.508134 0.210476 -0.011000
v 0.508134 0.210476 0.011000
v 0.539432 0.107300 -0.011000
v 0.539432 0.107300 0.011000
vn 0.9952 -0.0980 -0.0000
vn 0.9569 -0.2903 -0.0000
vn 0.8819 -0.4714 -0.0000
vn 0.7730 -0.6344 -0.0000
vn 0.6344 -0.7730 -0.0000
vn 0.4714 -0.8819 -0.0000
vn 0.2903 -0.9569 -0.0000
vn 0.0980 -0.9952 -0.0000
vn -0.0980 -0.9952 -0.0000
vn -0.2903 -0.9569 -0.0000
vn -0.4714 -0.8819 -0.0000
vn -0.6344 -0.7730 -0.0000
vn -0.7730 -0.6344 -0.0000
vn -0.8819 -0.4714 -0.0000
vn -0.9569 -0.2903 -0.0000
vn -0.9952 -0.0980 -0.0000
vn -0.9952 0.0980 -0.0000
vn -0.9569 0.2903 -0.0000
vn -0.8819 0.4714 -0.0000
vn -0.7730 0.6344 -0.0000
vn -0.6344 0.7730 -0.0000
vn -0.4714 0.8819 -0.0000
vn -0.2903 0.9569 -0.0000
vn -0.0980 0.9952 -0.0000
vn 0.0980 0.9952 -0.0000
vn 0.2903 0.9569 -0.0000
vn 0.4714 0.8819 -0.0000
vn 0.6344 0.7730 -0.0000
vn 0.7730 0.6344 -0.0000
vn 0.8819 0.4714 -0.0000
vn -0.0000 -0.0000 1.0000
vn 0.9569 0.2903 -0.0000
vn 0.9952 0.0980 -0.0000
vn -0.0000 -0.0000 -1.0000
vt 0.145625 0.848700
vt 0.135625 0.848700
vt 0.143125 0.848600
vt 0.145625 0.853700
vt 0.138125 0.848600
vt 0.135625 0.853700
vt 0.145313 0.848700
vt 0.143593 0.848554
vt 0.145313 0.853700
vt 0.138593 0.848554
vt 0.145000 0.848700
vt 0.144043 0.848417
vt 0.145000 0.853700
vt 0.139043 0.848417
vt 0.144688 0.848700
vt 0.144458 0.848196
vt 0.144688 0.853700
vt 0.139458 0.848196
vt 0.144375 0.848700
vt 0.144822 0.847897
vt 0.144375 0.853700
vt 0.139822 0.847897
vt 0.144063 0.848700
vt 0.145121 0.847533
vt 0.144063 0.853700
vt 0.140121 0.847533
vt 0.143750 0.848700
vt 0.145342 0.847118
vt 0.143750 0.853700
vt 0.140342 0.847118
vt 0.143438 0.848700
vt 0.145479 0.846668
vt 0.143438 0.853700
vt 0.140479 0.846668
vt 0.143125 0.848700
vt 0.145525 0.846200
vt 0.143125 0.853700
vt 0.140525 0.846200
vt 0.142813 0.848700
vt 0.145479 0.845732
vt 0.142813 0.853700
vt 0.140479 0.845732
vt 0.142500 0.848700
vt 0.145342 0.845282
vt 0.142500 0.853700
vt 0.140342 0.845282
vt 0.142188 0.848700
vt 0.145121 0.844867
vt 0.142188 0.853700
vt 0.140121 0.844867
vt 0.141875 0.848700
vt 0.144822 0.844503
vt 0.141875 0.853700
vt 0.139822 0.844503
vt 0.141562 0.848700
vt 0.144458 0.844204
vt 0.141562 0.853700
vt 0.139458 0.844204
vt 0.141250 0.848700
vt 0.144043 0.843983
vt 0.141250 0.853700
vt 0.139043 0.843983
vt 0.140938 0.848700
vt 0.143593 0.843846
vt 0.140938 0.853700
vt 0.138593 0.843846
vt 0.140625 0.848700
vt 0.143125 0.843800
vt 0.140625 0.853700
vt 0.138125 0.843800
vt 0.140312 0.848700
vt 0.142657 0.843846
vt 0.140312 0.853700
vt 0.137657 0.843846
vt 0.140000 0.848700
vt 0.142207 0.843983
vt 0.140000 0.853700
vt 0.137207 0.843983
vt 0.139688 0.848700
vt 0.141792 0.844204
vt 0.139688 0.853700
vt 0.136792 0.844204
vt 0.139375 0.848700
vt 0.141428 0.844503
vt 0.139375 0.853700
vt 0.136428 0.844503
vt 0.139062 0.848700
vt 0.141129 0.844867
vt 0.139062 0.853700
vt 0.136129 0.844867
vt 0.138750 0.848700
vt 0.140908 0.845282
vt 0.138750 0.853700
vt 0.135908 0.845282
vt 0.138438 0.848700
vt 0.140771 0.845732
vt 0.138438 0.853700
vt 0.135771 0.845732
vt 0.138125 0.848700
vt 0.140725 0.846200
vt 0.138125 0.853700
vt 0.135725 0.846200
vt 0.137812 0.848700
vt 0.140771 0.846668
vt 0.137812 0.853700
vt 0.135771 0.846668
vt 0.137500 0.848700
vt 0.140908 0.847118
vt 0.137500 0.853700
vt 0.135908 0.847118
vt 0.137187 0.848700
vt 0.141129 0.847533
vt 0.137187 0.853700
vt 0.136129 0.847533
vt 0.136875 0.848700
vt 0.141428 0.847897
vt 0.136875 0.853700
vt 0.136428 0.847897
vt 0.136562 0.848700
vt 0.141792 0.848196
vt 0.136562 0.853700
vt 0.136792 0.848196
vt 0.136250 0.848700
vt 0.142207 0.848417
vt 0.137207 0.848417
vt 0.136250 0.853700
vt 0.135937 0.848700
vt 0.142657 0.848554
vt 0.137657 0.848554
vt 0.135937 0.853700
s 0
f 2/4/1 3/7/1 1/1/1
f 4/9/2 5/11/2 3/7/2
f 6/13/3 7/15/3 5/11/3
f 8/17/4 9/19/4 7/15/4
f 10/21/5 11/23/5 9/19/5
f 12/25/6 13/27/6 11/23/6
f 14/29/7 15/31/7 13/27/7
f 16/33/8 17/35/8 15/31/8
f 18/37/9 19/39/9 17/35/9
f 20/41/10 21/43/10 19/39/10
f 22/45/11 23/47/11 21/43/11
f 24/49/12 25/51/12 23/47/12
f 26/53/13 27/55/13 25/51/13
f 28/57/14 29/59/14 27/55/14
f 30/61/15 31/63/15 29/59/15
f 32/65/16 33/67/16 31/63/16
f 34/69/17 35/71/17 33/67/17
f 36/73/18 37/75/18 35/71/18
f 38/77/19 39/79/19 37/75/19
f 40/81/20 41/83/20 39/79/20
f 42/85/21 43/87/21 41/83/21
f 44/89/22 45/91/22 43/87/22
f 46/93/23 47/95/23 45/91/23
f 48/97/24 49/99/24 47/95/24
f 50/101/25 51/103/25 49/99/25
f 52/105/26 53/107/26 51/103/26
f 54/109/27 55/111/27 53/107/27
f 56/113/28 57/115/28 55/111/28
f 58/117/29 59/119/29 57/115/29
f 60/121/30 61/123/30 59/119/30
f 38/78/31 22/46/31 6/14/31
f 62/126/32 63/127/32 61/123/32
f 64/130/33 1/2/33 63/127/33
f 31/64/34 47/96/34 63/128/34
f 2/4/1 4/9/1 3/7/1
f 4/9/2 6/13/2 5/11/2
f 6/13/3 8/17/3 7/15/3
f 8/17/4 10/21/4 9/19/4
f 10/21/5 12/25/5 11/23/5
f 12/25/6 14/29/6 13/27/6
f 14/29/7 16/33/7 15/31/7
f 16/33/8 18/37/8 17/35/8
f 18/37/9 20/41/9 19/39/9
f 20/41/10 22/45/10 21/43/10
f 22/45/11 24/49/11 23/47/11
f 24/49/12 26/53/12 25/51/12
f 26/53/13 28/57/13 27/55/13
f 28/57/14 30/61/14 29/59/14
f 30/61/15 32/65/15 31/63/15
f 32/65/16 34/69/16 33/67/16
f 34/69/17 36/73/17 35/71/17
f 36/73/18 38/77/18 37/75/18
f 38/77/19 40/81/19 39/79/19
f 40/81/20 42/85/20 41/83/20
f 42/85/21 44/89/21 43/87/21
f 44/89/22 46/93/22 45/91/22
f 46/93/23 48/97/23 47/95/23
f 48/97/24 50/101/24 49/99/24
f 50/101/25 52/105/25 51/103/25
f 52/105/26 54/109/26 53/107/26
f 54/109/27 56/113/27 55/111/27
f 56/113/28 58/117/28 57/115/28
f 58/117/29 60/121/29 59/119/29
f 60/121/30 62/126/30 61/123/30
f 6/14/31 4/10/31 2/5/31
f 2/5/31 64/129/31 62/125/31
f 62/125/31 60/122/31 58/118/31
f 58/118/31 56/114/31 54/110/31
f 54/110/31 52/106/31 50/102/31
f 50/102/31 48/98/31 46/94/31
f 46/94/31 44/90/31 42/86/31
f 42/86/31 40/82/31 38/78/31
f 38/78/31 36/74/31 34/70/31
f 34/70/31 32/66/31 30/62/31
f 30/62/31 28/58/31 26/54/31
f 26/54/31 24/50/31 22/46/31
f 22/46/31 20/42/31 18/38/31
f 18/38/31 16/34/31 14/30/31
f 14/30/31 12/26/31 10/22/31
f 10/22/31 8/18/31 6/14/31
f 6/14/31 2/5/31 62/125/31
f 62/125/31 58/118/31 54/110/31
f 54/110/31 50/102/31 46/94/31
f 46/94/31 42/86/31 38/78/31
f 38/78/31 34/70/31 30/62/31
f 30/62/31 26/54/31 22/46/31
f 22/46/31 18/38/31 14/30/31
f 14/30/31 10/22/31 6/14/31
f 6/14/31 62/125/31 54/110/31
f 54/110/31 46/94/31 38/78/31
f 38/78/31 30/62/31 22/46/31
f 22/46/31 14/30/31 6/14/31
f 6/14/31 54/110/31 38/78/31
f 62/126/32 64/130/32 63/127/32
f 64/130/33 2/6/33 1/2/33
f 63/128/34 1/3/34 3/8/34
f 3/8/34 5/12/34 7/16/34
f 7/16/34 9/20/34 11/24/34
f 11/24/34 13/28/34 15/32/34
f 15/32/34 17/36/34 19/40/34
f 19/40/34 21/44/34 23/48/34
f 23/48/34 25/52/34 27/56/34
f 27/56/34 29/60/34 31/64/34
f 31/64/34 33/68/34 35/72/34
f 35/72/34 37/76/34 39/80/34
f 39/80/34 41/84/34 43/88/34
f 43/88/34 45/92/34 47/96/34
f 47/96/34 49/100/34 51/104/34
f 51/104/34 53/108/34 55/112/34
f 55/112/34 57/116/34 59/120/34
f 59/120/34 61/124/34 63/128/34
f 63/128/34 3/8/34 7/16/34
f 7/16/34 11/24/34 15/32/34
f 15/32/34 19/40/34 23/48/34
f 23/48/34 27/56/34 31/64/34
f 31/64/34 35/72/34 39/80/34
f 39/80/34 43/88/34 47/96/34
f 47/96/34 51/104/34 55/112/34
f 55/112/34 59/120/34 63/128/34
f 63/128/34 7/16/34 15/32/34
f 15/32/34 23/48/34 31/64/34
f 31/64/34 39/80/34 47/96/34
f 47/96/34 55/112/34 63/128/34
f 63/128/34 15/32/34 31/64/34
