# Blender 3.3.1
# www.blender.org
mtllib Vehicle_Boat_Row.mtl
g boat-row-large_Mesh
v -0.285895 -0.170640 0.230400
v -0.199495 -0.170640 0.201600
v -0.285895 -0.257040 0.230400
v -0.199495 -0.257040 0.201600
v 0.257036 0.170640 0.086400
v 0.257036 0.170640 0.144000
v 0.257036 -0.170640 0.086400
v 0.257036 -0.170640 0.144000
v -0.285895 0.257040 0.230400
v -0.199495 0.257040 0.201600
v -0.285895 0.170640 0.230400
v -0.199495 0.170640 0.201600
v 0.170636 -0.170640 0.201600
v 0.170636 -0.257040 0.201600
v 0.279534 0.257040 0.230400
v 0.487927 0.140616 0.230400
v 0.257036 0.257040 0.230400
v 0.257036 0.170640 0.230400
v 0.424781 0.076925 0.230400
v 0.568078 -0.000000 0.230400
v 0.468628 -0.000000 0.230400
v 0.487927 -0.140616 0.230400
v 0.424781 -0.076925 0.230400
v 0.257036 -0.170640 0.230400
v 0.279534 -0.257040 0.230400
v 0.257036 -0.257040 0.230400
v 0.424781 0.076925 0.144000
v 0.468628 -0.000000 0.144000
v 0.424781 -0.076925 0.144000
v -0.372295 0.257040 0.230400
v -0.458695 0.170640 0.230400
v -0.372295 0.170640 0.230400
v -0.458695 -0.170640 0.230400
v -0.372295 -0.170640 0.230400
v -0.372295 -0.257040 0.230400
v 0.170636 0.257040 0.201600
v 0.170636 0.170640 0.201600
v -0.372295 0.170640 0.086400
v -0.372295 -0.170640 0.086400
v 0.279534 -0.257040 0.115200
v -0.372295 -0.257040 0.115200
v -0.458695 -0.170640 0.115200
v 0.487927 -0.140616 0.115200
v 0.568078 -0.000000 0.115200
v -0.458695 0.170640 0.115200
v 0.487927 0.140616 0.115200
v -0.372295 0.257040 0.115200
v 0.279534 0.257040 0.115200
v 0.192099 0.195840 0.000000
v -0.352240 0.195840 0.000000
v 0.350874 0.107136 0.000000
v -0.352240 -0.195840 -0.000000
v 0.411942 -0.000000 -0.000000
v 0.350874 -0.107136 -0.000000
v 0.192098 -0.195840 -0.000000
vn 0.3162 -0.0000 0.9487
vn 0.1602 -0.0000 0.9871
vn -1.0000 -0.0000 -0.0000
vn -0.1602 -0.0000 0.9871
vn -0.0000 -0.0000 1.0000
vn -0.3162 -0.0000 0.9487
vn -0.0000 -1.0000 -0.0000
vn -0.2806 -0.9598 -0.0000
vn -0.1674 -0.9859 -0.0000
vn -0.7041 -0.7101 -0.0000
vn -0.7041 0.7101 -0.0000
vn -0.1674 0.9859 -0.0000
vn -0.2806 0.9598 -0.0000
vn -0.0000 1.0000 -0.0000
vn 1.0000 -0.0000 -0.0000
vn -0.3827 -0.9239 -0.0000
vn 0.2520 -0.9677 -0.0000
vn -0.9239 -0.3827 0.0002
vn -0.9239 -0.3827 -0.0000
vn -0.3827 -0.9239 -0.0001
vn 0.7041 -0.7101 -0.0000
vn -0.9239 0.3827 -0.0000
vn -0.3827 0.9239 -0.0000
vn 0.7041 0.7101 -0.0000
vn 0.2520 0.9677 -0.0000
vn 0.2520 0.9677 -0.0001
vn -0.0000 -0.0000 -1.0000
vn 0.2520 0.7623 -0.5962
vn -0.4678 0.6120 -0.6377
vn -0.3280 0.8094 -0.4871
vn -0.7388 0.2364 -0.6311
vn -0.7388 -0.2364 -0.6311
vn 0.1423 0.8253 -0.5464
vn -0.4677 0.6120 -0.6377
vn -0.4678 -0.6120 -0.6377
vn -0.3280 -0.8094 -0.4871
vn 0.4561 0.5473 -0.7017
vn 0.5064 0.4525 -0.7340
vn 0.5937 -0.0000 -0.8047
vn 0.5064 -0.4525 -0.7340
vn 0.4561 -0.5473 -0.7017
vn 0.2520 -0.7623 -0.5962
vn 0.1423 -0.8253 -0.5464
vt 0.843750 0.225000
vt 0.718750 0.225000
vt 0.843750 0.200000
vt 0.718750 0.200000
vt 0.843750 0.225000
vt 0.718750 0.225000
vt 0.843750 0.200000
vt 0.718750 0.200000
vt 0.843750 0.100000
vt 0.718750 0.100000
vt 0.843750 0.150000
vt 0.718750 0.150000
vt 0.843750 0.100000
vt 0.718750 0.100000
vt 0.843750 0.150000
vt 0.718750 0.150000
vt 0.843750 0.225000
vt 0.718750 0.225000
vt 0.843750 0.200000
vt 0.718750 0.200000
vt 0.843750 0.225000
vt 0.718750 0.225000
vt 0.843750 0.200000
vt 0.718750 0.200000
vt 0.843750 0.200000
vt 0.718750 0.200000
vt 0.843750 0.200000
vt 0.718750 0.200000
vt 0.843750 0.225000
vt 0.718750 0.225000
vt 0.843750 0.225000
vt 0.718750 0.225000
vt 0.843750 0.225000
vt 0.718750 0.225000
vt 0.843750 0.225000
vt 0.718750 0.225000
vt 0.843750 0.225000
vt 0.718750 0.225000
vt 0.843750 0.225000
vt 0.718750 0.225000
vt 0.843750 0.225000
vt 0.718750 0.225000
vt 0.843750 0.225000
vt 0.718750 0.225000
vt 0.843750 0.225000
vt 0.718750 0.225000
vt 0.843750 0.225000
vt 0.718750 0.225000
vt 0.843750 0.225000
vt 0.718750 0.225000
vt 0.843750 0.225000
vt 0.718750 0.225000
vt 0.843750 0.150000
vt 0.718750 0.150000
vt 0.843750 0.150000
vt 0.718750 0.150000
vt 0.843750 0.150000
vt 0.718750 0.150000
vt 0.843750 0.225000
vt 0.718750 0.225000
vt 0.843750 0.225000
vt 0.718750 0.225000
vt 0.843750 0.225000
vt 0.718750 0.225000
vt 0.843750 0.225000
vt 0.718750 0.225000
vt 0.843750 0.225000
vt 0.718750 0.225000
vt 0.843750 0.225000
vt 0.718750 0.225000
vt 0.843750 0.200000
vt 0.718750 0.200000
vt 0.843750 0.200000
vt 0.718750 0.200000
vt 0.718750 0.100000
vt 0.718750 0.100000
vt 0.718750 0.125000
vt 0.718750 0.125000
vt 0.718750 0.125000
vt 0.718750 0.125000
vt 0.718750 0.125000
vt 0.718750 0.125000
vt 0.718750 0.125000
vt 0.718750 0.125000
vt 0.718750 0.125000
vt 0.718750 0.025000
vt 0.718750 0.025000
vt 0.718750 0.025000
vt 0.718750 0.025000
vt 0.718750 0.025000
vt 0.718750 0.025000
vt 0.718750 0.025000
s 0
f 3/5/1 2/3/2 1/1/1
f 2/3/2 3/5/1 4/7/2
f 7/13/3 6/11/3 5/9/3
f 6/11/3 7/13/3 8/15/3
f 11/21/1 10/19/2 9/17/1
f 10/19/2 11/21/1 12/23/2
f 2/3/2 14/27/4 13/25/4
f 14/27/4 2/3/2 4/7/2
f 17/33/5 16/31/5 15/29/5
f 16/31/5 17/33/5 18/35/5
f 16/31/5 18/35/5 19/37/5
f 16/31/5 19/37/5 20/39/5
f 20/39/5 19/37/5 21/41/5
f 20/39/5 21/41/5 22/43/5
f 22/43/5 21/41/5 23/45/5
f 22/43/5 23/45/5 24/47/5
f 22/43/5 24/47/5 25/49/5
f 25/49/5 24/47/5 26/51/5
f 8/15/5 27/53/5 6/11/5
f 27/53/5 8/15/5 28/55/5
f 28/55/5 8/15/5 29/57/5
f 30/59/5 11/21/5 9/17/5
f 11/21/5 30/59/5 31/61/5
f 11/21/5 31/61/5 32/63/5
f 32/63/5 31/61/5 33/65/5
f 32/63/5 33/65/5 34/67/5
f 34/67/5 33/65/5 35/69/5
f 34/67/5 35/69/5 3/5/5
f 3/5/5 1/1/5 34/67/5
f 10/19/2 37/73/4 36/71/4
f 37/73/4 10/19/2 12/23/2
f 13/25/4 26/51/6 24/47/6
f 26/51/6 13/25/4 14/27/4
f 36/71/4 18/35/6 17/33/6
f 18/35/6 36/71/4 37/73/4
f 38/75/5 7/14/5 5/10/5
f 7/14/5 38/75/5 39/76/5
f 5/10/7 32/64/7 38/75/7
f 32/64/7 5/10/7 12/24/7
f 32/64/7 12/24/7 11/22/7
f 12/24/7 5/10/7 37/74/7
f 37/74/7 5/10/7 18/36/8
f 18/36/8 5/10/7 6/12/9
f 27/54/10 18/36/8 6/12/9
f 18/36/8 27/54/10 19/38/10
f 27/54/10 21/42/3 19/38/10
f 21/42/3 27/54/10 28/56/3
f 28/56/3 23/46/11 21/42/3
f 23/46/11 28/56/3 29/58/11
f 8/16/12 23/46/11 29/58/11
f 23/46/11 8/16/12 24/48/13
f 7/14/14 24/48/13 8/16/12
f 7/14/14 13/26/14 24/48/13
f 7/14/14 2/4/14 13/26/14
f 39/76/14 2/4/14 7/14/14
f 39/76/14 1/2/14 2/4/14
f 1/2/14 39/76/14 34/68/14
f 32/64/15 39/76/15 38/75/15
f 39/76/15 32/64/15 34/68/15
f 35/70/16 4/8/7 3/6/7
f 35/70/16 40/77/17 4/8/7
f 4/8/7 40/77/17 14/28/7
f 14/28/7 40/77/17 26/52/7
f 26/52/7 40/77/17 25/50/17
f 40/77/17 35/70/16 41/78/16
f 35/70/16 42/79/18 41/78/16
f 42/79/19 35/70/20 33/66/19
f 43/80/21 25/50/17 40/77/17
f 25/50/17 43/80/21 22/44/21
f 43/80/21 20/40/15 22/44/21
f 20/40/15 43/80/21 44/81/15
f 33/66/19 45/82/22 42/79/19
f 45/82/22 33/66/19 31/62/22
f 30/60/23 45/82/22 31/62/22
f 44/81/15 16/32/24 20/40/15
f 16/32/24 44/81/15 46/83/24
f 45/82/22 30/60/23 47/84/23
f 9/18/14 47/84/23 30/60/23
f 47/84/23 9/18/14 10/20/14
f 48/85/25 16/32/24 46/83/24
f 47/84/23 10/20/14 48/85/25
f 16/32/24 48/85/25 15/30/26
f 48/85/25 10/20/14 36/72/14
f 48/85/25 17/34/14 15/30/25
f 48/85/25 36/72/14 17/34/14
f 51/88/27 50/87/27 49/86/27
f 50/87/27 51/88/27 52/89/27
f 52/89/27 51/88/27 53/90/27
f 52/89/27 53/90/27 54/91/27
f 52/89/27 54/91/27 55/92/27
f 48/85/28 50/87/29 47/84/30
f 50/87/29 45/82/31 47/84/30
f 50/87/29 42/79/32 45/82/31
f 50/87/29 48/85/28 49/86/33
f 42/79/32 50/87/34 52/89/35
f 52/89/35 41/78/36 42/79/32
f 48/85/28 51/88/37 49/86/33
f 51/88/37 48/85/28 46/83/38
f 44/81/39 51/88/37 46/83/38
f 51/88/37 44/81/39 53/90/39
f 43/80/40 53/90/39 44/81/39
f 53/90/39 43/80/40 54/91/41
f 52/89/35 40/77/42 41/78/36
f 40/77/42 54/91/41 43/80/40
f 40/77/42 52/89/35 55/92/43
f 54/91/41 40/77/42 55/92/43
f 3/5/1 2/3/2 1/1/1
f 2/3/2 3/5/1 4/7/2
f 7/13/3 6/11/3 5/9/3
f 6/11/3 7/13/3 8/15/3
f 11/21/1 10/19/2 9/17/1
f 10/19/2 11/21/1 12/23/2
f 2/3/2 14/27/4 13/25/4
f 14/27/4 2/3/2 4/7/2
f 17/33/5 16/31/5 15/29/5
f 16/31/5 17/33/5 18/35/5
f 16/31/5 18/35/5 19/37/5
f 16/31/5 19/37/5 20/39/5
f 20/39/5 19/37/5 21/41/5
f 20/39/5 21/41/5 22/43/5
f 22/43/5 21/41/5 23/45/5
f 22/43/5 23/45/5 24/47/5
f 22/43/5 24/47/5 25/49/5
f 25/49/5 24/47/5 26/51/5
f 8/15/5 27/53/5 6/11/5
f 27/53/5 8/15/5 28/55/5
f 28/55/5 8/15/5 29/57/5
f 30/59/5 11/21/5 9/17/5
f 11/21/5 30/59/5 31/61/5
f 11/21/5 31/61/5 32/63/5
f 32/63/5 31/61/5 33/65/5
f 32/63/5 33/65/5 34/67/5
f 34/67/5 33/65/5 35/69/5
f 34/67/5 35/69/5 3/5/5
f 3/5/5 1/1/5 34/67/5
f 10/19/2 37/73/4 36/71/4
f 37/73/4 10/19/2 12/23/2
f 13/25/4 26/51/6 24/47/6
f 26/51/6 13/25/4 14/27/4
f 36/71/4 18/35/6 17/33/6
f 18/35/6 36/71/4 37/73/4
f 38/75/5 7/14/5 5/10/5
f 7/14/5 38/75/5 39/76/5
f 5/10/7 32/64/7 38/75/7
f 32/64/7 5/10/7 12/24/7
f 32/64/7 12/24/7 11/22/7
f 12/24/7 5/10/7 37/74/7
f 37/74/7 5/10/7 18/36/8
f 18/36/8 5/10/7 6/12/9
f 27/54/10 18/36/8 6/12/9
f 18/36/8 27/54/10 19/38/10
f 27/54/10 21/42/3 19/38/10
f 21/42/3 27/54/10 28/56/3
f 28/56/3 23/46/11 21/42/3
f 23/46/11 28/56/3 29/58/11
f 8/16/12 23/46/11 29/58/11
f 23/46/11 8/16/12 24/48/13
f 7/14/14 24/48/13 8/16/12
f 7/14/14 13/26/14 24/48/13
f 7/14/14 2/4/14 13/26/14
f 39/76/14 2/4/14 7/14/14
f 39/76/14 1/2/14 2/4/14
f 1/2/14 39/76/14 34/68/14
f 32/64/15 39/76/15 38/75/15
f 39/76/15 32/64/15 34/68/15
f 35/70/16 4/8/7 3/6/7
f 35/70/16 40/77/17 4/8/7
f 4/8/7 40/77/17 14/28/7
f 14/28/7 40/77/17 26/52/7
f 26/52/7 40/77/17 25/50/17
f 40/77/17 35/70/16 41/78/16
f 35/70/16 42/79/18 41/78/16
f 42/79/19 35/70/20 33/66/19
f 43/80/21 25/50/17 40/77/17
f 25/50/17 43/80/21 22/44/21
f 43/80/21 20/40/15 22/44/21
f 20/40/15 43/80/21 44/81/15
f 33/66/19 45/82/22 42/79/19
f 45/82/22 33/66/19 31/62/22
f 30/60/23 45/82/22 31/62/22
f 44/81/15 16/32/24 20/40/15
f 16/32/24 44/81/15 46/83/24
f 45/82/22 30/60/23 47/84/23
f 9/18/14 47/84/23 30/60/23
f 47/84/23 9/18/14 10/20/14
f 48/85/25 16/32/24 46/83/24
f 47/84/23 10/20/14 48/85/25
f 16/32/24 48/85/25 15/30/26
f 48/85/25 10/20/14 36/72/14
f 48/85/25 17/34/14 15/30/25
f 48/85/25 36/72/14 17/34/14
f 51/88/27 50/87/27 49/86/27
f 50/87/27 51/88/27 52/89/27
f 52/89/27 51/88/27 53/90/27
f 52/89/27 53/90/27 54/91/27
f 52/89/27 54/91/27 55/92/27
f 48/85/28 50/87/29 47/84/30
f 50/87/29 45/82/31 47/84/30
f 50/87/29 42/79/32 45/82/31
f 50/87/29 48/85/28 49/86/33
f 42/79/32 50/87/34 52/89/35
f 52/89/35 41/78/36 42/79/32
f 48/85/28 51/88/37 49/86/33
f 51/88/37 48/85/28 46/83/38
f 44/81/39 51/88/37 46/83/38
f 51/88/37 44/81/39 53/90/39
f 43/80/40 53/90/39 44/81/39
f 53/90/39 43/80/40 54/91/41
f 52/89/35 40/77/42 41/78/36
f 40/77/42 54/91/41 43/80/40
f 40/77/42 52/89/35 55/92/43
f 54/91/41 40/77/42 55/92/43
g boat-row-large.001_Mesh
v -0.248455 0.170640 0.144000
v -0.248455 -0.170640 0.144000
v -0.372295 0.170640 0.144000
v -0.248455 0.170640 0.086400
v -0.248455 -0.170640 0.086400
v -0.372295 -0.170640 0.144000
v -0.372295 0.170640 0.086400
v -0.372295 -0.170640 0.086400
vn 1.0000 -0.0000 -0.0000
vn -0.0000 -0.0000 1.0000
vn -1.0000 -0.0000 -0.0000
vt 0.843750 0.225000
vt 0.843750 0.225000
vt 0.843750 0.225000
vt 0.843750 0.125000
vt 0.843750 0.125000
vt 0.843750 0.225000
vt 0.843750 0.125000
vt 0.843750 0.125000
s 0
f 60/97/44 56/93/44 57/94/44
f 58/95/45 57/94/45 56/93/45
f 60/97/44 56/93/44 57/94/44
f 58/95/45 57/94/45 56/93/45
f 56/93/44 60/97/44 59/96/44
f 56/93/44 60/97/44 59/96/44
f 57/94/45 58/95/45 61/98/45
f 57/94/45 58/95/45 61/98/45
f 62/99/46 61/98/46 58/95/46
f 62/99/46 61/98/46 58/95/46
f 61/98/46 62/99/46 63/100/46
f 61/98/46 62/99/46 63/100/46
g boat-row-large.002_Mesh
v 0.064025 0.170640 0.144000
v 0.064025 -0.170640 0.144000
v -0.059815 0.170640 0.144000
v 0.064025 0.170640 0.086400
v 0.064025 -0.170640 0.086400
v -0.059815 -0.170640 0.144000
v -0.059815 0.170640 0.086400
v -0.059815 -0.170640 0.086400
vn 1.0000 -0.0000 -0.0000
vn -0.0000 -0.0000 1.0000
vn -1.0000 -0.0000 -0.0000
vt 0.843750 0.225000
vt 0.843750 0.225000
vt 0.843750 0.225000
vt 0.843750 0.125000
vt 0.843750 0.125000
vt 0.843750 0.225000
vt 0.843750 0.125000
vt 0.843750 0.125000
s 0
f 68/105/47 64/101/47 65/102/47
f 66/103/48 65/102/48 64/101/48
f 68/105/47 64/101/47 65/102/47
f 66/103/48 65/102/48 64/101/48
f 64/101/47 68/105/47 67/104/47
f 64/101/47 68/105/47 67/104/47
f 65/102/48 66/103/48 69/106/48
f 65/102/48 66/103/48 69/106/48
f 70/107/49 69/106/49 66/103/49
f 70/107/49 69/106/49 66/103/49
f 69/106/49 70/107/49 71/108/49
f 69/106/49 70/107/49 71/108/49
g boat-row-large.003_Mesh
v -0.123649 -0.413278 0.142253
v -0.066049 -0.413278 0.142253
v -0.149281 -0.433643 0.121888
v -0.123649 -0.372549 0.101524
v -0.123649 -0.209631 0.305170
v -0.123649 -0.189267 0.284806
v -0.066049 -0.209631 0.305170
v -0.066049 -0.189267 0.284806
v -0.066049 -0.372549 0.101524
v -0.040417 -0.392913 0.081159
v -0.040417 -0.433643 0.121888
v -0.149281 -0.494737 0.060794
v -0.040417 -0.494737 0.060794
v -0.040417 -0.454008 0.020065
v -0.149281 -0.392913 0.081159
v -0.149281 -0.454008 0.020065
vn -0.0000 -0.6247 0.7809
vn -0.0000 -0.6746 0.7382
vn -0.0000 -0.7071 0.7071
vn -0.0000 -0.6746 0.7381
vn -0.9346 0.2515 0.2515
vn -0.9346 0.2514 0.2516
vn -0.9296 0.2606 0.2606
vn -1.0000 -0.0000 -0.0000
vn -0.9296 0.2607 0.2606
vn 0.9296 0.2607 0.2606
vn 1.0000 -0.0000 -0.0000
vn -0.0000 0.7071 0.7071
vn 0.9296 0.2606 0.2606
vn 0.9346 0.2515 0.2515
vn -0.0000 0.7071 -0.7071
vn 0.9346 0.2517 0.2513
vn -0.0000 -0.7071 -0.7071
vt 0.843750 0.110714
vt 0.843750 0.110714
vt 0.843750 0.096429
vt 0.843750 0.082143
vt 0.843750 0.225000
vt 0.843750 0.210714
vt 0.843750 0.225000
vt 0.843750 0.210714
vt 0.843750 0.082143
vt 0.843750 0.067857
vt 0.843750 0.096429
vt 0.843750 0.053571
vt 0.843750 0.053571
vt 0.843750 0.025000
vt 0.843750 0.067857
vt 0.843750 0.025000
s 0
f 78/115/50 72/109/51 73/110/51
f 74/111/52 73/110/53 72/109/53
f 75/112/54 74/111/55 72/109/56
f 72/109/56 77/114/57 75/112/54
f 77/114/57 72/109/58 76/113/57
f 72/109/51 78/115/50 76/113/50
f 73/110/59 79/116/60 78/115/60
f 78/115/61 77/114/61 76/113/61
f 77/114/61 78/115/61 79/116/61
f 79/116/60 73/110/62 80/117/63
f 80/117/64 77/114/64 79/116/64
f 75/112/64 80/117/64 81/118/64
f 80/117/63 82/119/63 81/118/63
f 77/114/64 80/117/64 75/112/64
f 82/119/63 80/117/63 73/110/62
f 73/110/53 74/111/52 82/119/52
f 82/119/52 74/111/52 83/120/52
f 82/119/52 83/120/52 84/121/52
f 84/121/60 81/118/63 82/119/65
f 83/120/66 85/122/66 84/121/66
f 81/118/63 84/121/60 85/122/60
f 86/123/64 81/118/64 85/122/64
f 85/122/66 83/120/66 87/124/66
f 86/123/64 85/122/64 87/124/64
f 83/120/57 86/123/55 87/124/57
f 86/123/54 83/120/57 74/111/54
f 74/111/54 75/112/54 86/123/54
f 75/112/64 81/118/64 86/123/64
g boat-row-large.004_Mesh
v -0.123649 0.413278 0.142253
v -0.066049 0.413278 0.142253
v -0.123649 0.209631 0.305170
v -0.123649 0.189267 0.284806
v -0.040417 0.433643 0.121888
v -0.149281 0.433643 0.121888
v -0.123649 0.372549 0.101524
v -0.066049 0.189267 0.284806
v -0.066049 0.372549 0.101524
v -0.149281 0.392913 0.081159
v -0.149281 0.454008 0.020065
v -0.149281 0.494737 0.060794
v -0.040417 0.392913 0.081159
v -0.040417 0.494737 0.060794
v -0.040417 0.454008 0.020065
v -0.066049 0.209631 0.305170
vn -0.0000 0.7071 0.7071
vn -0.0000 0.6746 0.7381
vn -0.0000 0.6247 0.7809
vn -0.0000 0.6746 0.7382
vn -0.9296 -0.2607 0.2606
vn -1.0000 -0.0000 -0.0000
vn -0.9296 -0.2606 0.2606
vn -0.9346 -0.2515 0.2515
vn -0.0000 -0.7071 -0.7071
vn 0.9346 -0.2515 0.2515
vn 1.0000 -0.0000 -0.0000
vn -0.0000 0.7071 -0.7071
vn 0.9296 -0.2606 0.2606
vn 0.9296 -0.2607 0.2606
vn -0.0000 -0.7071 0.7071
vt 0.843750 0.110714
vt 0.843750 0.110714
vt 0.843750 0.225000
vt 0.843750 0.210714
vt 0.843750 0.096429
vt 0.843750 0.096429
vt 0.843750 0.082143
vt 0.843750 0.210714
vt 0.843750 0.082143
vt 0.843750 0.067857
vt 0.843750 0.025000
vt 0.843750 0.053571
vt 0.843750 0.067857
vt 0.843750 0.053571
vt 0.843750 0.025000
vt 0.843750 0.225000
s 0
f 92/129/67 88/125/68 89/126/68
f 90/127/69 89/126/70 88/125/70
f 88/125/71 91/128/72 90/127/72
f 91/128/72 88/125/73 94/131/74
f 92/129/67 93/130/67 88/125/68
f 93/130/74 94/131/74 88/125/73
f 94/131/74 93/130/74 97/134/74
f 94/131/75 95/132/75 91/128/75
f 94/131/75 96/133/75 95/132/75
f 97/134/75 96/133/75 94/131/75
f 98/135/75 100/137/75 97/134/75
f 97/134/74 99/136/72 98/135/72
f 99/136/72 97/134/74 93/130/74
f 97/134/75 100/137/75 96/133/75
f 100/137/76 101/138/77 92/129/76
f 101/138/77 100/137/76 102/139/77
f 92/129/76 96/133/76 100/137/76
f 100/137/75 98/135/75 102/139/75
f 98/135/78 101/138/78 102/139/78
f 101/138/67 93/130/67 92/129/67
f 93/130/67 101/138/67 99/136/67
f 101/138/78 98/135/78 99/136/78
f 89/126/79 95/132/77 96/133/76
f 96/133/76 92/129/76 89/126/79
f 95/132/77 89/126/80 103/140/77
f 90/127/81 95/132/81 103/140/81
f 95/132/81 90/127/81 91/128/81
f 89/126/70 90/127/69 103/140/69
