# Blender 3.3.1
# www.blender.org
mtllib Vehicle_Boat_Spoil.mtl
g boat-sail-a_Mesh
v -0.429198 -0.110205 -0.000000
v -0.429198 0.110205 0.000000
v -0.455304 -0.183675 0.054158
v -0.455304 0.183675 0.054158
v -0.483355 -0.241678 0.162472
v -0.483355 0.241678 0.162472
v 0.059015 0.110205 0.000000
v 0.157346 0.048224 0.000000
v 0.184038 -0.000000 -0.000000
v 0.157346 -0.048224 -0.000000
v 0.059015 -0.110205 -0.000000
v 0.263341 0.241678 0.162472
v 0.185841 0.183675 0.054157
v 0.349725 0.080374 0.054157
v 0.478978 0.105755 0.162472
v 0.537513 -0.000000 0.162472
v 0.394212 -0.000000 0.054157
v 0.478978 -0.105755 0.162472
v 0.349725 -0.080374 0.054157
v 0.263341 -0.241678 0.162472
v 0.185841 -0.183675 0.054157
v 0.438331 -0.067358 0.243708
v 0.475613 -0.000000 0.243708
v 0.478978 -0.105755 0.243708
v 0.247696 -0.187520 0.243708
v 0.537513 -0.000000 0.243708
v 0.263341 -0.241678 0.243708
v 0.438331 0.067357 0.243708
v -0.429198 -0.187520 0.243709
v 0.478978 0.105755 0.243708
v -0.483355 -0.241678 0.243709
v -0.429198 0.187520 0.243709
v -0.483355 0.241678 0.243709
v 0.247696 0.187520 0.243708
v 0.263341 0.241678 0.243708
v 0.247696 -0.187520 0.189551
v 0.438331 -0.067358 0.189551
v 0.247696 0.187520 0.189551
v 0.438331 0.067357 0.189551
v 0.475613 -0.000000 0.189551
v -0.429198 0.187520 0.189551
v -0.429198 -0.187520 0.189551
vn -0.9008 -0.0000 -0.4342
vn -0.9681 -0.0000 -0.2507
vn -0.0000 -0.0000 -1.0000
vn 0.2709 0.7545 -0.5978
vn -0.0000 0.8816 -0.4721
vn 0.1621 0.8170 -0.5534
vn 0.2709 0.7544 -0.5978
vn 0.4799 0.5323 -0.6974
vn 0.1621 0.8169 -0.5535
vn 0.2709 0.7544 -0.5979
vn 0.5242 0.4407 -0.7287
vn 0.6030 -0.0000 -0.7977
vn 0.5241 0.4407 -0.7287
vn 0.6030 -0.0000 -0.7978
vn 0.5241 -0.4407 -0.7287
vn 0.4799 -0.5323 -0.6974
vn 0.2709 -0.7544 -0.5979
vn 0.5242 -0.4407 -0.7287
vn 0.2709 -0.7544 -0.5978
vn 0.1621 -0.8169 -0.5535
vn 0.2709 -0.7545 -0.5978
vn -0.0000 -0.8816 -0.4721
vn 0.1621 -0.8170 -0.5534
vn -0.0000 -0.5934 -0.8049
vn 0.1588 -0.3934 -0.9055
vn 0.1588 -0.3934 -0.9056
vn -0.0000 -0.5933 -0.8049
vn 0.0641 -0.5181 -0.8529
vn 0.2361 -0.1920 -0.9526
vn 0.2207 -0.2620 -0.9395
vn 0.2495 -0.0000 -0.9684
vn 0.2207 0.2620 -0.9395
vn 0.2361 0.1920 -0.9526
vn 0.0641 0.5181 -0.8529
vn 0.1588 0.3934 -0.9055
vn -0.0000 0.5934 -0.8049
vn -0.0000 -0.0000 1.0000
vn -1.0000 -0.0000 -0.0000
vn 0.7269 0.6867 -0.0000
vn 1.0000 -0.0000 0.0003
vn 1.0000 -0.0000 -0.0000
vn 0.5332 0.8460 -0.0000
vn 0.7269 -0.6867 -0.0000
vn 0.5332 -0.8460 -0.0000
vn -0.7269 0.6867 -0.0000
vn -0.5332 0.8460 -0.0000
vn -0.7269 -0.6867 -0.0000
vn -0.5332 -0.8460 -0.0000
vn -0.0000 1.0000 -0.0000
vn -0.0000 -1.0000 -0.0000
vt 0.718750 0.025000
vt 0.718750 0.025000
vt 0.718750 0.069444
vt 0.718750 0.069444
vt 0.718750 0.158333
vt 0.718750 0.408333
vt 0.718750 0.158333
vt 0.718750 0.408333
vt 0.718750 0.025000
vt 0.718750 0.025000
vt 0.718750 0.025000
vt 0.718750 0.025000
vt 0.718750 0.025000
vt 0.718750 0.158333
vt 0.718750 0.408333
vt 0.718750 0.069444
vt 0.718750 0.069444
vt 0.718750 0.158333
vt 0.718750 0.408333
vt 0.718750 0.158333
vt 0.718750 0.408333
vt 0.718750 0.069444
vt 0.718750 0.158333
vt 0.718750 0.408333
vt 0.718750 0.069444
vt 0.718750 0.158333
vt 0.718750 0.408333
vt 0.718750 0.069444
vt 0.718750 0.225000
vt 0.718750 0.475000
vt 0.718750 0.225000
vt 0.718750 0.475000
vt 0.718750 0.225000
vt 0.718750 0.475000
vt 0.718750 0.225000
vt 0.718750 0.475000
vt 0.718750 0.225000
vt 0.718750 0.475000
vt 0.718750 0.225000
vt 0.718750 0.475000
vt 0.718750 0.225000
vt 0.718750 0.475000
vt 0.718750 0.225000
vt 0.718750 0.475000
vt 0.718750 0.225000
vt 0.718750 0.475000
vt 0.718750 0.225000
vt 0.718750 0.475000
vt 0.718750 0.225000
vt 0.718750 0.475000
vt 0.718750 0.225000
vt 0.718750 0.475000
vt 0.718750 0.225000
vt 0.718750 0.475000
vt 0.718750 0.225000
vt 0.718750 0.475000
vt 0.718750 0.430556
vt 0.718750 0.430556
vt 0.718750 0.430556
vt 0.718750 0.430556
vt 0.718750 0.430556
vt 0.718750 0.430556
vt 0.718750 0.430556
s 0
usemtl colormap
f 3/3/1 2/2/1 1/1/1
f 2/2/1 3/3/1 4/4/1
f 5/5/2 4/4/2 3/3/2
f 4/4/2 5/5/2 6/7/2
f 8/10/3 2/2/3 7/9/3
f 2/2/3 8/10/3 1/1/3
f 1/1/3 8/10/3 9/11/3
f 1/1/3 9/11/3 10/12/3
f 1/1/3 10/12/3 11/13/3
f 12/14/4 4/4/5 6/7/5
f 4/4/5 12/14/4 13/16/6
f 12/14/7 14/17/8 13/16/9
f 14/17/8 12/14/10 15/18/11
f 16/20/12 14/17/8 15/18/13
f 14/17/8 16/20/14 17/22/12
f 18/23/15 17/22/12 16/20/14
f 17/22/12 18/23/15 19/25/16
f 20/26/17 19/25/16 18/23/18
f 19/25/16 20/26/19 21/28/20
f 20/26/21 3/3/22 21/28/23
f 3/3/22 20/26/21 5/5/22
f 1/1/24 21/28/25 3/3/24
f 21/28/26 1/1/27 11/13/28
f 11/13/28 19/25/29 21/28/25
f 19/25/29 11/13/28 10/12/30
f 9/11/31 19/25/29 10/12/30
f 19/25/29 9/11/31 17/22/31
f 8/10/32 17/22/31 9/11/31
f 17/22/31 8/10/32 14/17/33
f 7/9/34 14/17/33 8/10/32
f 14/17/33 7/9/34 13/16/35
f 7/9/34 4/4/36 13/16/35
f 4/4/36 7/9/34 2/2/36
f 24/33/37 23/31/37 22/29/37
f 24/33/37 22/29/37 25/35/37
f 26/37/37 23/31/37 24/33/37
f 24/33/37 25/35/37 27/39/37
f 26/37/37 28/41/37 23/31/37
f 27/39/37 25/35/37 29/43/37
f 30/45/37 28/41/37 26/37/37
f 29/43/37 31/47/37 27/39/37
f 32/49/37 31/47/37 29/43/37
f 32/49/37 33/51/37 31/47/37
f 30/45/37 34/53/37 28/41/37
f 33/51/37 32/49/37 34/53/37
f 35/55/37 34/53/37 30/45/37
f 34/53/37 35/55/37 33/51/37
f 31/48/38 6/8/38 5/6/38
f 6/8/38 31/48/38 33/52/38
f 30/46/39 16/21/40 15/19/39
f 16/21/41 30/46/39 26/38/41
f 30/46/39 12/15/42 35/56/42
f 12/15/42 30/46/39 15/19/39
f 26/38/41 18/24/43 16/21/41
f 18/24/43 26/38/41 24/34/43
f 18/24/43 27/40/44 20/27/44
f 27/40/44 18/24/43 24/34/43
f 22/30/45 36/57/46 25/36/46
f 36/57/46 22/30/45 37/58/45
f 39/60/47 34/54/48 38/59/48
f 34/54/48 39/60/47 28/42/47
f 23/32/38 39/60/47 40/61/38
f 39/60/47 23/32/38 28/42/47
f 22/30/45 40/61/38 37/58/45
f 40/61/38 22/30/45 23/32/38
f 32/50/41 42/63/41 41/62/41
f 42/63/41 32/50/41 29/44/41
f 35/56/49 6/8/49 33/52/49
f 6/8/49 35/56/49 12/15/49
f 20/27/50 31/48/50 5/6/50
f 31/48/50 20/27/50 27/40/50
f 41/62/37 39/60/37 38/59/37
f 39/60/37 41/62/37 42/63/37
f 39/60/37 42/63/37 40/61/37
f 40/61/37 42/63/37 37/58/37
f 37/58/37 42/63/37 36/57/37
f 38/59/50 32/50/50 41/62/50
f 32/50/50 38/59/50 34/54/50
f 25/36/49 42/63/49 29/44/49
f 42/63/49 25/36/49 36/57/49
f 3/3/1 2/2/1 1/1/1
f 2/2/1 3/3/1 4/4/1
f 5/5/2 4/4/2 3/3/2
f 4/4/2 5/5/2 6/7/2
f 8/10/3 2/2/3 7/9/3
f 2/2/3 8/10/3 1/1/3
f 1/1/3 8/10/3 9/11/3
f 1/1/3 9/11/3 10/12/3
f 1/1/3 10/12/3 11/13/3
f 12/14/4 4/4/5 6/7/5
f 4/4/5 12/14/4 13/16/6
f 12/14/7 14/17/8 13/16/9
f 14/17/8 12/14/10 15/18/11
f 16/20/12 14/17/8 15/18/13
f 14/17/8 16/20/14 17/22/12
f 18/23/15 17/22/12 16/20/14
f 17/22/12 18/23/15 19/25/16
f 20/26/17 19/25/16 18/23/18
f 19/25/16 20/26/19 21/28/20
f 20/26/21 3/3/22 21/28/23
f 3/3/22 20/26/21 5/5/22
f 1/1/24 21/28/25 3/3/24
f 21/28/26 1/1/27 11/13/28
f 11/13/28 19/25/29 21/28/25
f 19/25/29 11/13/28 10/12/30
f 9/11/31 19/25/29 10/12/30
f 19/25/29 9/11/31 17/22/31
f 8/10/32 17/22/31 9/11/31
f 17/22/31 8/10/32 14/17/33
f 7/9/34 14/17/33 8/10/32
f 14/17/33 7/9/34 13/16/35
f 7/9/34 4/4/36 13/16/35
f 4/4/36 7/9/34 2/2/36
f 24/33/37 23/31/37 22/29/37
f 24/33/37 22/29/37 25/35/37
f 26/37/37 23/31/37 24/33/37
f 24/33/37 25/35/37 27/39/37
f 26/37/37 28/41/37 23/31/37
f 27/39/37 25/35/37 29/43/37
f 30/45/37 28/41/37 26/37/37
f 29/43/37 31/47/37 27/39/37
f 32/49/37 31/47/37 29/43/37
f 32/49/37 33/51/37 31/47/37
f 30/45/37 34/53/37 28/41/37
f 33/51/37 32/49/37 34/53/37
f 35/55/37 34/53/37 30/45/37
f 34/53/37 35/55/37 33/51/37
f 31/48/38 6/8/38 5/6/38
f 6/8/38 31/48/38 33/52/38
f 30/46/39 16/21/40 15/19/39
f 16/21/41 30/46/39 26/38/41
f 30/46/39 12/15/42 35/56/42
f 12/15/42 30/46/39 15/19/39
f 26/38/41 18/24/43 16/21/41
f 18/24/43 26/38/41 24/34/43
f 18/24/43 27/40/44 20/27/44
f 27/40/44 18/24/43 24/34/43
f 22/30/45 36/57/46 25/36/46
f 36/57/46 22/30/45 37/58/45
f 39/60/47 34/54/48 38/59/48
f 34/54/48 39/60/47 28/42/47
f 23/32/38 39/60/47 40/61/38
f 39/60/47 23/32/38 28/42/47
f 22/30/45 40/61/38 37/58/45
f 40/61/38 22/30/45 23/32/38
f 32/50/41 42/63/41 41/62/41
f 42/63/41 32/50/41 29/44/41
f 35/56/49 6/8/49 33/52/49
f 6/8/49 35/56/49 12/15/49
f 20/27/50 31/48/50 5/6/50
f 31/48/50 20/27/50 27/40/50
f 41/62/37 39/60/37 38/59/37
f 39/60/37 41/62/37 42/63/37
f 39/60/37 42/63/37 40/61/37
f 40/61/37 42/63/37 37/58/37
f 37/58/37 42/63/37 36/57/37
f 38/59/50 32/50/50 41/62/50
f 32/50/50 38/59/50 34/54/50
f 25/36/49 42/63/49 29/44/49
f 42/63/49 25/36/49 36/57/49
g boat-sail-a.001_Mesh
v 0.031067 -0.076775 0.189551
v 0.031067 -0.076775 0.236262
v 0.282716 -0.076775 0.189551
v 0.259360 -0.076775 0.236262
v 0.282716 -0.076775 0.212906
v 0.282716 0.076775 0.189551
v 0.282716 0.076775 0.212906
v 0.259360 0.076775 0.236262
v 0.031067 0.076775 0.236262
v 0.031067 0.076775 0.189551
vn -0.0000 -1.0000 -0.0000
vn 1.0000 -0.0000 -0.0000
vn 0.9239 -0.0000 0.3827
vn 0.9239 0.0001 0.3827
vn 0.3827 -0.0000 0.9239
vn -0.0000 1.0000 -0.0000
vn -0.0000 -0.0000 1.0000
vn 0.3827 -0.0001 0.9239
vt 0.718750 0.025000
vt 0.718750 0.225000
vt 0.718750 0.025000
vt 0.718750 0.225000
vt 0.718750 0.125000
vt 0.718750 0.025000
vt 0.718750 0.125000
vt 0.718750 0.225000
vt 0.718750 0.225000
vt 0.718750 0.025000
s 0
usemtl colormap
f 45/66/51 44/65/51 43/64/51
f 45/66/51 44/65/51 43/64/51
f 44/65/51 45/66/51 46/67/51
f 44/65/51 45/66/51 46/67/51
f 46/67/51 45/66/51 47/68/51
f 46/67/51 45/66/51 47/68/51
f 45/66/52 49/70/53 47/68/54
f 45/66/52 49/70/53 47/68/54
f 49/70/53 45/66/52 48/69/52
f 49/70/53 45/66/52 48/69/52
f 50/71/55 47/68/53 49/70/53
f 50/71/55 47/68/53 49/70/53
f 48/69/56 50/71/56 49/70/56
f 48/69/56 50/71/56 49/70/56
f 51/72/57 46/67/55 50/71/58
f 47/68/53 50/71/55 46/67/55
f 51/72/57 46/67/55 50/71/58
f 47/68/53 50/71/55 46/67/55
f 50/71/56 52/73/56 51/72/56
f 50/71/56 52/73/56 51/72/56
f 52/73/56 50/71/56 48/69/56
f 52/73/56 50/71/56 48/69/56
f 46/67/55 51/72/57 44/65/57
f 46/67/55 51/72/57 44/65/57
g boat-sail-a.002_Mesh
v 0.003988 -0.133363 0.328279
v 0.031067 -0.106284 0.328279
v 0.031067 -0.133363 0.352023
v -0.293804 -0.133363 0.328279
v 0.003988 -0.133363 0.214548
v 0.031067 -0.106284 0.214548
v 0.085224 -0.160441 0.328279
v 0.031067 0.106284 0.328279
v 0.085224 0.160441 0.328279
v 0.031067 0.133363 0.352023
v 0.085224 0.160441 0.366189
v 0.085224 -0.160441 0.366189
v 0.058145 -0.187520 0.328279
v 0.058145 -0.187520 0.366189
v -0.347961 -0.160441 0.328279
v -0.293804 0.133363 0.328279
v -0.347961 0.160441 0.328279
v -0.347961 -0.160441 0.366189
v -0.320883 -0.187520 0.328279
v -0.320883 -0.187520 0.366189
v -0.347961 0.160441 0.366189
v 0.058145 0.187520 0.366189
v -0.320883 0.187520 0.366189
v -0.320883 0.187520 0.328279
v 0.058145 0.187520 0.328279
v 0.003988 0.133363 0.328279
v -0.293804 0.133363 0.214548
v -0.293804 -0.133363 0.214548
v 0.031067 0.106284 0.214548
v 0.003988 0.133363 0.214548
vn 0.3831 -0.9234 -0.0227
vn 0.9238 -0.3828 0.0093
vn 0.9239 -0.3827 -0.0000
vn -0.5504 0.5504 0.6277
vn -0.0000 -0.0000 1.0000
vn 0.2975 0.8924 -0.3392
vn -0.0000 -0.0000 -1.0000
vn -0.0000 -1.0000 -0.0000
vn 0.3824 -0.9239 0.0155
vn 0.3827 -0.9239 -0.0001
vn 0.9234 -0.3831 0.0227
vn 0.3828 -0.9238 -0.0093
vn 0.3827 -0.9239 -0.0000
vn 0.9557 0.1941 -0.2213
vn -0.4015 -0.0000 -0.9158
vn 0.9239 0.3826 -0.0061
vn 0.9239 -0.3826 0.0097
vn 0.9239 0.3827 -0.0000
vn 0.9239 -0.3826 0.0061
vn 0.9239 0.3826 -0.0097
vn 0.3841 -0.9224 -0.0394
vn 0.9236 -0.3830 0.0186
vn 0.9224 -0.3841 0.0394
vn 0.3830 -0.9236 -0.0186
vn -0.5504 -0.5504 -0.6277
vn -0.9239 -0.3826 -0.0061
vn -0.9239 0.3826 0.0097
vn -0.9239 -0.3827 -0.0000
vn -0.3841 -0.9224 0.0394
vn -0.9236 -0.3830 -0.0186
vn 0.3826 -0.9239 0.0083
vn -0.3827 -0.9239 -0.0052
vn -0.3827 -0.9239 0.0001
vn -0.9224 -0.3841 -0.0394
vn -0.3830 -0.9236 0.0186
vn -0.3827 -0.9239 -0.0000
vn -0.3826 -0.9239 -0.0083
vn 0.3827 -0.9239 0.0052
vn -0.9239 0.3826 0.0061
vn -0.9239 -0.3826 -0.0097
vn -0.9239 0.3827 -0.0000
vn -0.3841 0.9224 -0.0394
vn -0.9236 0.3830 0.0186
vn 0.3826 0.9239 -0.0083
vn -0.3827 0.9239 0.0052
vn -0.3827 0.9239 -0.0001
vn -0.9224 0.3841 0.0394
vn -0.3830 0.9236 -0.0186
vn -0.3827 0.9239 -0.0000
vn -0.3826 0.9239 0.0083
vn 0.3827 0.9239 -0.0052
vn 0.3827 0.9239 0.0001
vn 0.3841 0.9224 0.0394
vn 0.9236 0.3830 -0.0186
vn 0.9224 0.3841 -0.0394
vn 0.3830 0.9236 0.0186
vn 0.3827 0.9239 -0.0000
vn -0.0000 -0.6593 -0.7519
vn 0.0721 0.1443 -0.9869
vn -1.0000 -0.0000 -0.0000
vn -0.0000 1.0000 -0.0000
vn 0.3817 0.9239 -0.0279
vn 0.3824 0.9239 -0.0155
vn 0.9234 0.3831 -0.0227
vn 0.3828 0.9238 0.0093
vn 0.3831 0.9234 0.0227
vn 0.9238 0.3828 -0.0093
vn 0.9239 0.3823 -0.0181
vn 0.9239 -0.3811 0.0344
vn 0.3817 -0.9239 0.0279
vn -0.5504 -0.5504 0.6277
vn 0.9239 -0.3823 0.0181
vn 0.9239 0.3811 -0.0344
vt 0.718750 0.425000
vt 0.718750 0.175000
vt 0.718750 0.425000
vt 0.718750 0.175000
vt 0.718750 0.175000
vt 0.718750 0.425000
vt 0.718750 0.425000
vt 0.718750 0.175000
vt 0.718750 0.025000
vt 0.718750 0.025000
vt 0.718750 0.425000
vt 0.718750 0.425000
vt 0.718750 0.175000
vt 0.718750 0.425000
vt 0.718750 0.425000
vt 0.718750 0.175000
vt 0.718750 0.475000
vt 0.718750 0.475000
vt 0.718750 0.425000
vt 0.718750 0.475000
vt 0.718750 0.425000
vt 0.718750 0.425000
vt 0.718750 0.175000
vt 0.718750 0.425000
vt 0.718750 0.475000
vt 0.718750 0.425000
vt 0.718750 0.475000
vt 0.718750 0.475000
vt 0.718750 0.475000
vt 0.718750 0.475000
vt 0.718750 0.425000
vt 0.718750 0.425000
vt 0.718750 0.425000
vt 0.718750 0.175000
vt 0.718750 0.025000
vt 0.718750 0.025000
vt 0.718750 0.025000
vt 0.718750 0.025000
s 0
usemtl colormap
f 53/75/59 58/83/60 54/77/61
f 55/78/62 54/77/62 53/75/62
f 54/77/63 56/81/63 53/75/63
f 53/75/59 58/83/60 54/77/61
f 55/78/62 54/77/62 53/75/62
f 54/77/63 56/81/63 53/75/63
f 55/79/64 59/84/64 53/74/64
f 55/79/64 59/84/64 53/74/64
f 53/74/65 59/84/65 56/80/65
f 56/81/66 57/82/67 53/75/68
f 53/74/65 59/84/65 56/80/65
f 56/81/66 57/82/67 53/75/68
f 58/83/69 53/75/70 57/82/71
f 58/83/69 53/75/70 57/82/71
f 67/94/65 56/80/65 59/84/65
f 67/94/65 56/80/65 59/84/65
f 60/85/65 59/84/65 54/76/65
f 62/88/72 59/84/72 60/85/72
f 60/85/65 59/84/65 54/76/65
f 62/88/72 59/84/72 60/85/72
f 62/88/73 61/87/73 59/84/73
f 63/90/74 59/84/75 61/87/76
f 62/88/73 61/87/73 59/84/73
f 63/90/74 59/84/75 61/87/76
f 59/84/77 63/90/78 64/91/61
f 59/84/77 63/90/78 64/91/61
f 66/93/79 59/84/80 64/91/61
f 66/93/79 59/84/80 64/91/61
f 67/94/65 59/84/65 65/92/65
f 59/84/81 66/93/82 65/92/71
f 67/94/65 59/84/65 65/92/65
f 59/84/81 66/93/82 65/92/71
f 54/76/83 59/84/83 55/79/83
f 54/76/83 59/84/83 55/79/83
f 67/94/65 68/95/65 56/80/65
f 67/94/65 68/95/65 56/80/65
f 69/97/65 68/95/65 67/94/65
f 69/97/65 68/95/65 67/94/65
f 67/94/65 65/92/65 71/99/65
f 67/94/65 65/92/65 71/99/65
f 70/98/84 69/97/85 67/94/86
f 70/98/84 69/97/85 67/94/86
f 71/99/87 70/98/88 67/94/86
f 71/99/87 70/98/88 67/94/86
f 65/92/89 72/100/90 71/99/91
f 70/98/92 71/99/93 72/100/94
f 65/92/89 72/100/90 71/99/91
f 70/98/92 71/99/93 72/100/94
f 64/91/63 72/100/63 66/93/63
f 64/91/63 70/98/63 72/100/63
f 64/91/63 72/100/63 66/93/63
f 64/91/63 70/98/63 72/100/63
f 72/100/95 65/92/96 66/93/68
f 72/100/95 65/92/96 66/93/68
f 63/90/63 70/98/63 64/91/63
f 63/90/63 73/101/63 70/98/63
f 63/90/63 70/98/63 64/91/63
f 63/90/63 73/101/63 70/98/63
f 69/97/97 70/98/98 73/101/99
f 69/97/97 70/98/98 73/101/99
f 74/102/63 73/101/63 63/90/63
f 74/102/63 73/101/63 63/90/63
f 73/101/63 74/102/63 75/103/63
f 73/101/63 74/102/63 75/103/63
f 75/103/100 69/97/101 73/101/99
f 75/103/100 69/97/101 73/101/99
f 74/102/102 76/104/103 75/103/104
f 74/102/102 76/104/103 75/103/104
f 69/97/105 75/103/106 76/104/107
f 69/97/105 75/103/106 76/104/107
f 76/104/65 61/87/65 69/97/65
f 61/87/65 76/104/65 77/105/65
f 76/104/65 61/87/65 69/97/65
f 61/87/65 76/104/65 77/105/65
f 76/104/108 74/102/109 77/105/110
f 76/104/108 74/102/109 77/105/110
f 77/105/111 63/90/112 61/87/76
f 77/105/111 63/90/112 61/87/76
f 63/90/113 77/105/114 74/102/115
f 63/90/113 77/105/114 74/102/115
f 69/97/116 61/87/116 62/88/116
f 69/97/116 61/87/116 62/88/116
f 68/95/117 69/97/117 62/88/117
f 68/95/117 69/97/117 62/88/117
f 56/81/63 78/107/63 68/96/63
f 79/108/118 56/81/118 68/96/118
f 56/81/63 78/107/63 68/96/63
f 79/108/118 56/81/118 68/96/118
f 68/95/119 62/88/119 78/106/119
f 78/107/120 79/108/119 68/96/119
f 68/95/119 62/88/119 78/106/119
f 78/107/120 79/108/119 68/96/119
f 56/81/118 79/108/118 80/109/118
f 56/81/118 79/108/118 80/109/118
f 79/108/119 78/107/121 82/111/110
f 79/108/119 78/107/121 82/111/110
f 79/108/65 81/110/65 80/109/65
f 79/108/65 81/110/65 80/109/65
f 81/110/65 79/108/65 82/111/65
f 81/110/65 79/108/65 82/111/65
f 60/86/122 82/111/123 78/107/115
f 82/111/124 60/86/125 81/110/76
f 60/86/122 82/111/123 78/107/115
f 82/111/124 60/86/125 81/110/76
f 60/86/126 58/83/127 81/110/76
f 60/86/126 58/83/127 81/110/76
f 80/109/65 81/110/65 58/83/65
f 80/109/65 81/110/65 58/83/65
f 57/82/128 56/81/66 80/109/66
f 57/82/128 56/81/66 80/109/66
f 80/109/65 58/83/65 57/82/65
f 80/109/65 58/83/65 57/82/65
f 78/107/63 56/81/63 60/86/63
f 78/107/63 56/81/63 60/86/63
f 60/86/129 62/89/129 78/107/129
f 60/86/129 62/89/129 78/107/129
f 60/86/63 56/81/63 54/77/63
f 60/86/63 56/81/63 54/77/63
f 58/83/130 60/86/131 54/77/61
f 58/83/130 60/86/131 54/77/61
g boat-sail-a.003_Mesh
v -0.019084 0.076775 0.366189
v -0.019084 -0.076775 0.366189
v -0.019084 0.076775 0.382538
v -0.042439 0.076775 0.398886
v -0.270733 0.076775 0.366189
v -0.247377 0.076775 0.398886
v -0.042439 -0.076775 0.398886
v -0.270733 0.076775 0.382538
v -0.247377 -0.076775 0.398886
v -0.270733 -0.076775 0.382538
v -0.270733 -0.076775 0.366189
v -0.019084 -0.076775 0.382538
vn 0.9239 0.0111 0.3825
vn 1.0000 -0.0000 -0.0000
vn -0.0000 1.0000 -0.0000
vn -0.3827 -0.0000 0.9239
vn 0.3827 -0.0000 0.9239
vn 0.3827 -0.0001 0.9239
vn -0.3827 0.0001 0.9239
vn -0.8433 0.0069 0.5374
vn -0.2163 -0.0028 0.9763
vn -0.2163 -0.0000 0.9763
vn -0.0000 -1.0000 -0.0000
vn -0.2163 -0.0069 0.9763
vn -0.8433 0.0028 0.5374
vn -0.8433 -0.0000 0.5374
vn -0.9239 -0.0111 0.3825
vn -1.0000 -0.0000 -0.0000
vn -0.9239 -0.0044 0.3827
vn -0.9239 -0.0001 0.3827
vn 0.8433 -0.0069 0.5374
vn 0.2163 0.0028 0.9763
vn 0.2163 -0.0000 0.9763
vn 0.9239 0.0044 0.3827
vn 0.9239 0.0001 0.3827
vn 0.2163 0.0069 0.9763
vn 0.8433 -0.0028 0.5374
vn 0.8433 -0.0002 0.5374
vt 0.718750 0.275000
vt 0.718750 0.275000
vt 0.718750 0.375000
vt 0.718750 0.475000
vt 0.718750 0.275000
vt 0.718750 0.475000
vt 0.718750 0.475000
vt 0.718750 0.375000
vt 0.718750 0.475000
vt 0.718750 0.375000
vt 0.718750 0.275000
vt 0.718750 0.375000
s 0
usemtl colormap
f 85/114/132 84/113/133 83/112/133
f 85/114/132 84/113/133 83/112/133
f 83/112/134 86/115/134 85/114/134
f 83/112/134 86/115/134 85/114/134
f 83/112/134 88/117/134 86/115/134
f 83/112/134 88/117/134 86/115/134
f 87/116/134 88/117/134 83/112/134
f 87/116/134 88/117/134 83/112/134
f 88/117/135 89/118/136 86/115/137
f 88/117/135 89/118/136 86/115/137
f 89/118/136 88/117/135 91/120/138
f 89/118/136 88/117/135 91/120/138
f 88/117/134 87/116/134 90/119/134
f 88/117/134 87/116/134 90/119/134
f 90/119/139 91/120/140 88/117/141
f 90/119/139 91/120/140 88/117/141
f 91/120/142 84/113/142 89/118/142
f 92/121/142 84/113/142 91/120/142
f 91/120/142 84/113/142 89/118/142
f 92/121/142 84/113/142 91/120/142
f 91/120/143 90/119/144 92/121/145
f 91/120/143 90/119/144 92/121/145
f 84/113/142 92/121/142 93/122/142
f 84/113/142 92/121/142 93/122/142
f 92/121/146 87/116/147 93/122/147
f 92/121/146 87/116/147 93/122/147
f 87/116/147 92/121/148 90/119/149
f 87/116/147 92/121/148 90/119/149
f 89/118/142 84/113/142 94/123/142
f 89/118/142 84/113/142 94/123/142
f 94/123/150 86/115/151 89/118/152
f 94/123/150 86/115/151 89/118/152
f 84/113/133 85/114/153 94/123/154
f 84/113/133 85/114/153 94/123/154
f 86/115/155 94/123/156 85/114/157
f 86/115/155 94/123/156 85/114/157
g boat-sail-a.004_Mesh
v -0.239647 0.241678 0.243709
v -0.266725 0.241678 0.270787
v -0.375040 0.241678 0.243709
v -0.266725 0.187520 0.270787
v -0.239647 0.187520 0.243709
v -0.375040 0.187520 0.243709
v -0.347961 0.241678 0.270787
v -0.347961 0.187520 0.270787
vn 0.3827 -0.0000 0.9239
vn 0.7071 -0.0000 0.7071
vn -0.0000 1.0000 -0.0000
vn -0.0000 -1.0000 -0.0000
vn -0.7071 -0.0000 0.7071
vn -0.3827 -0.0000 0.9239
vn 0.3827 0.0001 0.9239
vn -0.3827 -0.0001 0.9239
vt 0.718750 0.025000
vt 0.718750 0.225000
vt 0.718750 0.025000
vt 0.718750 0.225000
vt 0.718750 0.025000
vt 0.718750 0.025000
vt 0.718750 0.225000
vt 0.718750 0.225000
s 0
usemtl colormap
f 98/127/158 95/124/159 96/125/158
f 97/126/160 96/125/160 95/124/160
f 98/127/158 95/124/159 96/125/158
f 97/126/160 96/125/160 95/124/160
f 95/124/159 98/127/158 99/128/159
f 95/124/159 98/127/158 99/128/159
f 98/127/161 100/129/161 99/128/161
f 98/127/161 100/129/161 99/128/161
f 100/129/162 101/130/163 97/126/162
f 100/129/162 101/130/163 97/126/162
f 101/130/163 100/129/162 102/131/163
f 101/130/163 100/129/162 102/131/163
f 100/129/161 98/127/161 102/131/161
f 100/129/161 98/127/161 102/131/161
f 102/131/163 96/125/164 101/130/163
f 102/131/163 96/125/164 101/130/163
f 96/125/158 102/131/165 98/127/158
f 96/125/158 102/131/165 98/127/158
f 96/125/160 97/126/160 101/130/160
f 96/125/160 97/126/160 101/130/160
g boat-sail-a.005_Mesh
v -0.239647 -0.187520 0.243709
v -0.266725 -0.187520 0.270787
v -0.375040 -0.187520 0.243709
v -0.266725 -0.241678 0.270787
v -0.239647 -0.241678 0.243709
v -0.375040 -0.241678 0.243709
v -0.347962 -0.187520 0.270787
v -0.347962 -0.241678 0.270787
vn 0.3827 -0.0000 0.9239
vn 0.7071 -0.0000 0.7071
vn -0.0000 1.0000 -0.0000
vn -0.0000 -1.0000 -0.0000
vn -0.7071 -0.0000 0.7071
vn -0.3827 -0.0000 0.9239
vn 0.3827 0.0001 0.9239
vn -0.3827 -0.0001 0.9239
vt 0.718750 0.025000
vt 0.718750 0.225000
vt 0.718750 0.025000
vt 0.718750 0.225000
vt 0.718750 0.025000
vt 0.718750 0.025000
vt 0.718750 0.225000
vt 0.718750 0.225000
s 0
usemtl colormap
f 106/135/166 103/132/167 104/133/166
f 105/134/168 104/133/168 103/132/168
f 106/135/166 103/132/167 104/133/166
f 105/134/168 104/133/168 103/132/168
f 103/132/167 106/135/166 107/136/167
f 103/132/167 106/135/166 107/136/167
f 106/135/169 108/137/169 107/136/169
f 106/135/169 108/137/169 107/136/169
f 108/137/170 109/138/171 105/134/170
f 108/137/170 109/138/171 105/134/170
f 109/138/171 108/137/170 110/139/171
f 109/138/171 108/137/170 110/139/171
f 108/137/169 106/135/169 110/139/169
f 108/137/169 106/135/169 110/139/169
f 110/139/171 104/133/172 109/138/171
f 104/133/166 110/139/173 106/135/166
f 110/139/171 104/133/172 109/138/171
f 104/133/166 110/139/173 106/135/166
f 104/133/168 105/134/168 109/138/168
f 104/133/168 105/134/168 109/138/168
g boat-sail-a.006_Mesh
v 0.193613 -0.187520 0.243708
v 0.166534 -0.187520 0.270787
v 0.058219 -0.187520 0.243708
v 0.166534 -0.241678 0.270787
v 0.193613 -0.241678 0.243708
v 0.058219 -0.241678 0.243708
v 0.085298 -0.187520 0.270787
v 0.085298 -0.241678 0.270787
vn 0.3827 -0.0000 0.9239
vn 0.7071 -0.0000 0.7071
vn -0.0000 1.0000 -0.0000
vn -0.0000 -1.0000 -0.0000
vn -0.7071 -0.0000 0.7071
vn -0.3827 -0.0000 0.9239
vn 0.3827 0.0001 0.9239
vn -0.3827 -0.0001 0.9239
vt 0.718750 0.025000
vt 0.718750 0.225000
vt 0.718750 0.025000
vt 0.718750 0.225000
vt 0.718750 0.025000
vt 0.718750 0.025000
vt 0.718750 0.225000
vt 0.718750 0.225000
s 0
usemtl colormap
f 114/143/174 111/140/175 112/141/174
f 113/142/176 112/141/176 111/140/176
f 114/143/174 111/140/175 112/141/174
f 113/142/176 112/141/176 111/140/176
f 111/140/175 114/143/174 115/144/175
f 111/140/175 114/143/174 115/144/175
f 114/143/177 116/145/177 115/144/177
f 114/143/177 116/145/177 115/144/177
f 116/145/178 117/146/179 113/142/178
f 116/145/178 117/146/179 113/142/178
f 117/146/179 116/145/178 118/147/179
f 117/146/179 116/145/178 118/147/179
f 116/145/177 114/143/177 118/147/177
f 116/145/177 114/143/177 118/147/177
f 118/147/179 112/141/180 117/146/179
f 118/147/179 112/141/180 117/146/179
f 112/141/174 118/147/181 114/143/174
f 112/141/174 118/147/181 114/143/174
f 112/141/176 113/142/176 117/146/176
f 112/141/176 113/142/176 117/146/176
g boat-sail-a.007_Mesh
v 0.193613 0.241678 0.243708
v 0.166534 0.241678 0.270787
v 0.058219 0.241678 0.243708
v 0.166534 0.187520 0.270787
v 0.193613 0.187520 0.243708
v 0.058219 0.187520 0.243708
v 0.085298 0.241678 0.270787
v 0.085298 0.187520 0.270787
vn 0.3827 -0.0000 0.9239
vn 0.7071 -0.0000 0.7071
vn -0.0000 1.0000 -0.0000
vn -0.0000 -1.0000 -0.0000
vn -0.7071 -0.0000 0.7071
vn -0.3827 -0.0000 0.9239
vn 0.3827 0.0001 0.9239
vn -0.3827 -0.0001 0.9239
vt 0.718750 0.025000
vt 0.718750 0.225000
vt 0.718750 0.025000
vt 0.718750 0.225000
vt 0.718750 0.025000
vt 0.718750 0.025000
vt 0.718750 0.225000
vt 0.718750 0.225000
s 0
usemtl colormap
f 122/151/182 119/148/183 120/149/182
f 121/150/184 120/149/184 119/148/184
f 122/151/182 119/148/183 120/149/182
f 121/150/184 120/149/184 119/148/184
f 119/148/183 122/151/182 123/152/183
f 119/148/183 122/151/182 123/152/183
f 122/151/185 124/153/185 123/152/185
f 122/151/185 124/153/185 123/152/185
f 124/153/186 125/154/187 121/150/186
f 124/153/186 125/154/187 121/150/186
f 125/154/187 124/153/186 126/155/187
f 125/154/187 124/153/186 126/155/187
f 124/153/185 122/151/185 126/155/185
f 124/153/185 122/151/185 126/155/185
f 126/155/187 120/149/188 125/154/187
f 120/149/182 126/155/189 122/151/182
f 126/155/187 120/149/188 125/154/187
f 120/149/182 126/155/189 122/151/182
f 120/149/184 121/150/184 125/154/184
f 120/149/184 121/150/184 125/154/184
g boat-sail-a.008_Mesh
v 0.136920 0.032689 0.247246
v 0.174666 0.032689 0.247246
v 0.141709 0.024395 0.980171
v 0.193539 -0.000000 0.247246
v 0.118047 -0.000000 0.247246
v 0.127624 -0.000000 0.980171
v 0.169877 0.024395 0.980171
v 0.183962 -0.000000 0.980171
v 0.141709 -0.024395 0.980171
v 0.174666 -0.032689 0.247246
v 0.169877 -0.024395 0.980171
v 0.136920 -0.032689 0.247246
vn -0.0000 -0.0000 -1.0000
vn -0.5000 0.8660 0.0111
vn 0.4999 0.8659 0.0165
vn -0.5000 0.8659 0.0127
vn -0.4999 0.8660 0.0145
vn -1.0000 -0.0000 0.0076
vn -0.4999 0.8660 0.0127
vn -0.9999 -0.0000 0.0111
vn -0.4999 0.8659 0.0165
vn -0.9999 -0.0000 0.0127
vn -0.0000 -0.0000 1.0000
vn -0.9999 -0.0000 0.0145
vn -0.5000 -0.8660 0.0076
vn 0.5000 -0.8659 0.0145
vn 0.5000 -0.8659 0.0127
vn 0.4999 -0.8659 0.0165
vn -0.5000 -0.8660 0.0111
vn -0.5000 -0.8659 0.0127
vn -0.9999 -0.0000 0.0165
vn -0.4999 -0.8660 0.0127
vn 0.4999 -0.8660 0.0145
vn 1.0000 -0.0000 0.0076
vn 0.4999 -0.8660 0.0127
vn 0.9999 -0.0000 0.0111
vn 0.9999 -0.0000 0.0127
vn 0.9999 -0.0000 0.0145
vn 0.5000 0.8660 0.0076
vn 0.5000 0.8659 0.0145
vn -0.5000 0.8660 0.0076
vn 0.5000 0.8659 0.0127
vn 0.5000 0.8660 0.0111
vn 0.9999 -0.0000 0.0165
vn 0.4999 0.8660 0.0127
vt 0.343750 0.025000
vt 0.343750 0.025000
vt 0.343750 0.225000
vt 0.343750 0.025000
vt 0.343750 0.025000
vt 0.343750 0.225000
vt 0.343750 0.225000
vt 0.343750 0.225000
vt 0.343750 0.225000
vt 0.343750 0.025000
vt 0.343750 0.225000
vt 0.343750 0.025000
s 0
usemtl colormap
f 130/159/190 127/156/190 128/157/190
f 129/158/191 128/157/192 127/156/193
f 127/156/194 132/161/195 129/158/196
f 127/156/190 130/159/190 131/160/190
f 132/161/197 127/156/198 131/160/199
f 132/161/200 133/162/200 129/158/200
f 133/162/200 132/161/200 134/163/200
f 134/163/200 132/161/200 135/164/200
f 131/160/201 135/164/202 132/161/199
f 135/164/202 136/165/203 137/166/204
f 136/165/205 135/164/206 138/167/207
f 134/163/200 135/164/200 137/166/200
f 135/164/206 131/160/208 138/167/209
f 131/160/190 136/165/190 138/167/190
f 136/165/210 134/163/211 137/166/212
f 131/160/190 130/159/190 136/165/190
f 134/163/213 136/165/205 130/159/214
f 130/159/215 133/162/216 134/163/214
f 128/157/217 129/158/218 133/162/219
f 133/162/220 130/159/221 128/157/222
g boat-sail-a.009_Mesh
v 0.180188 -0.051473 0.517830
v 0.131398 -0.051473 0.517830
v 0.180188 -0.051473 0.555740
v 0.207266 -0.024395 0.517830
v 0.180188 0.051473 0.517830
v 0.207266 0.024395 0.517830
v 0.207266 0.024395 0.555740
v 0.207266 -0.024395 0.555740
v 0.180188 0.051473 0.555740
v 0.131398 0.051473 0.555740
v 0.104319 0.024395 0.517830
v 0.104319 0.024395 0.555740
v 0.131398 0.051473 0.517830
v 0.131398 -0.051473 0.555740
v 0.104319 -0.024395 0.555740
v 0.104319 -0.024395 0.517830
vn -0.0000 -0.0000 -1.0000
vn 0.3822 -0.9239 -0.0192
vn -0.3807 -0.9239 0.0390
vn 0.3827 -0.9239 -0.0000
vn 0.9224 -0.3841 0.0394
vn 0.3830 -0.9236 -0.0186
vn 0.3827 -0.9239 0.0001
vn 0.3841 0.9224 0.0394
vn 0.9236 0.3830 -0.0186
vn 0.9239 0.3827 0.0002
vn 0.9239 -0.3807 -0.0390
vn 0.9239 0.3822 0.0192
vn 0.9239 0.3827 -0.0001
vn 0.9239 0.3807 0.0390
vn 0.9239 -0.3822 -0.0192
vn 0.9239 -0.3827 0.0001
vn -0.0000 -0.0000 1.0000
vn 0.3841 -0.9224 -0.0394
vn 0.9236 -0.3830 0.0186
vn 0.9239 -0.3827 -0.0002
vn 0.9224 0.3841 -0.0394
vn 0.3830 0.9236 0.0186
vn 0.3827 0.9239 -0.0001
vn 0.3822 0.9239 0.0192
vn -0.3807 0.9239 -0.0390
vn 0.3827 0.9239 -0.0000
vn -0.3841 0.9224 -0.0394
vn -0.9236 0.3830 0.0186
vn -0.9239 0.3827 -0.0000
vn -0.9224 0.3841 0.0394
vn -0.3830 0.9236 -0.0186
vn -0.3827 0.9239 -0.0000
vn -0.3822 0.9239 -0.0192
vn 0.3807 0.9239 0.0390
vn -0.9224 -0.3841 -0.0394
vn -0.3830 -0.9236 0.0186
vn -0.3827 -0.9239 -0.0000
vn -0.3822 -0.9239 0.0192
vn 0.3807 -0.9239 -0.0390
vn -0.9239 0.3807 -0.0390
vn -0.9239 -0.3822 0.0192
vn -0.9239 -0.3827 -0.0001
vn -0.3841 -0.9224 0.0394
vn -0.9236 -0.3830 -0.0186
vn -0.9239 -0.3827 -0.0000
vn -0.9239 -0.3807 0.0390
vn -0.9239 0.3822 -0.0192
vn -0.9239 0.3827 0.0001
vt 0.343750 0.077607
vt 0.343750 0.172393
vt 0.343750 0.077607
vt 0.343750 0.025000
vt 0.343750 0.077607
vt 0.343750 0.025000
vt 0.343750 0.025000
vt 0.343750 0.025000
vt 0.343750 0.077607
vt 0.343750 0.172393
vt 0.343750 0.225000
vt 0.343750 0.225000
vt 0.343750 0.172393
vt 0.343750 0.172393
vt 0.343750 0.225000
vt 0.343750 0.225000
s 0
usemtl colormap
f 143/172/223 139/168/223 140/169/223
f 141/170/224 140/169/225 139/168/226
f 142/171/227 141/170/228 139/168/229
f 139/168/223 144/173/223 142/171/223
f 144/173/223 139/168/223 143/172/223
f 143/172/230 145/174/231 144/173/232
f 146/175/233 144/173/234 145/174/235
f 144/173/236 146/175/237 142/171/238
f 146/175/239 147/176/239 141/170/239
f 141/170/240 142/171/241 146/175/242
f 147/176/239 146/175/239 145/174/239
f 145/174/243 143/172/244 147/176/245
f 143/172/246 148/177/247 147/176/248
f 141/170/239 147/176/239 148/177/239
f 148/177/249 149/178/250 150/179/251
f 149/178/252 148/177/253 151/180/254
f 152/181/239 148/177/239 150/179/239
f 148/177/255 143/172/256 151/180/254
f 141/170/239 148/177/239 152/181/239
f 153/182/257 140/169/258 152/181/259
f 140/169/260 141/170/261 152/181/259
f 152/181/239 150/179/239 153/182/239
f 150/179/262 154/183/263 153/182/264
f 140/169/265 153/182/266 154/183/267
f 151/180/223 154/183/223 149/178/223
f 154/183/268 150/179/269 149/178/270
f 151/180/223 140/169/223 154/183/223
f 143/172/223 140/169/223 151/180/223
g boat-sail-a.010_Mesh
v 0.180188 -0.051473 0.309324
v 0.131398 -0.051473 0.309324
v 0.180188 -0.051473 0.347234
v 0.207266 -0.024395 0.309324
v 0.180188 0.051473 0.309324
v 0.207266 0.024395 0.309324
v 0.207266 0.024395 0.347234
v 0.207266 -0.024395 0.347234
v 0.180188 0.051473 0.347234
v 0.131398 0.051473 0.347234
v 0.104319 0.024395 0.309324
v 0.104319 0.024395 0.347234
v 0.131398 0.051473 0.309324
v 0.131398 -0.051473 0.347234
v 0.104319 -0.024395 0.347234
v 0.104319 -0.024395 0.309324
vn -0.0000 -0.0000 -1.0000
vn 0.3822 -0.9239 -0.0192
vn -0.3807 -0.9239 0.0390
vn 0.3827 -0.9239 -0.0000
vn 0.9224 -0.3841 0.0394
vn 0.3830 -0.9236 -0.0186
vn 0.3827 -0.9239 0.0002
vn 0.3841 0.9224 0.0394
vn 0.9236 0.3830 -0.0186
vn 0.9239 0.3827 -0.0000
vn 0.9239 -0.3807 -0.0390
vn 0.9239 0.3822 0.0192
vn 0.9239 0.3827 -0.0001
vn 0.9239 0.3807 0.0390
vn 0.9239 -0.3822 -0.0192
vn 0.9239 -0.3827 0.0001
vn -0.0000 -0.0000 1.0000
vn 0.3841 -0.9224 -0.0394
vn 0.9236 -0.3830 0.0186
vn 0.9239 -0.3827 -0.0000
vn 0.9224 0.3841 -0.0394
vn 0.3830 0.9236 0.0186
vn 0.3827 0.9239 -0.0002
vn 0.3822 0.9239 0.0192
vn -0.3807 0.9239 -0.0390
vn 0.3827 0.9239 -0.0000
vn -0.3841 0.9224 -0.0394
vn -0.9236 0.3830 0.0186
vn -0.9239 0.3827 -0.0000
vn -0.9224 0.3841 0.0394
vn -0.3830 0.9236 -0.0186
vn -0.3827 0.9239 -0.0000
vn -0.3822 0.9239 -0.0192
vn 0.3807 0.9239 0.0390
vn -0.9224 -0.3841 -0.0394
vn -0.3830 -0.9236 0.0186
vn -0.3827 -0.9239 -0.0000
vn -0.3822 -0.9239 0.0192
vn 0.3807 -0.9239 -0.0390
vn -0.9239 0.3807 -0.0390
vn -0.9239 -0.3822 0.0192
vn -0.9239 -0.3827 -0.0001
vn -0.3841 -0.9224 0.0394
vn -0.9236 -0.3830 -0.0186
vn -0.9239 -0.3827 -0.0000
vn -0.9239 -0.3807 0.0390
vn -0.9239 0.3822 -0.0192
vn -0.9239 0.3827 0.0001
vt 0.343750 0.077607
vt 0.343750 0.172393
vt 0.343750 0.077607
vt 0.343750 0.025000
vt 0.343750 0.077607
vt 0.343750 0.025000
vt 0.343750 0.025000
vt 0.343750 0.025000
vt 0.343750 0.077607
vt 0.343750 0.172393
vt 0.343750 0.225000
vt 0.343750 0.225000
vt 0.343750 0.172393
vt 0.343750 0.172393
vt 0.343750 0.225000
vt 0.343750 0.225000
s 0
usemtl colormap
f 159/188/271 155/184/271 156/185/271
f 157/186/272 156/185/273 155/184/274
f 158/187/275 157/186/276 155/184/277
f 155/184/271 160/189/271 158/187/271
f 160/189/271 155/184/271 159/188/271
f 159/188/278 161/190/279 160/189/280
f 162/191/281 160/189/282 161/190/283
f 160/189/284 162/191/285 158/187/286
f 162/191/287 163/192/287 157/186/287
f 157/186/288 158/187/289 162/191/290
f 163/192/287 162/191/287 161/190/287
f 161/190/291 159/188/292 163/192/293
f 159/188/294 164/193/295 163/192/296
f 157/186/287 163/192/287 164/193/287
f 164/193/297 165/194/298 166/195/299
f 165/194/300 164/193/301 167/196/302
f 168/197/287 164/193/287 166/195/287
f 164/193/303 159/188/304 167/196/302
f 157/186/287 164/193/287 168/197/287
f 169/198/305 156/185/306 168/197/307
f 156/185/308 157/186/309 168/197/307
f 168/197/287 166/195/287 169/198/287
f 166/195/310 170/199/311 169/198/312
f 156/185/313 169/198/314 170/199/315
f 167/196/271 170/199/271 165/194/271
f 170/199/316 166/195/317 165/194/318
f 167/196/271 156/185/271 170/199/271
f 159/188/271 156/185/271 167/196/271
g boat-sail-a.011_Mesh
v 0.180188 -0.051473 0.915887
v 0.131398 -0.051473 0.915887
v 0.180188 -0.051473 0.953797
v 0.207267 -0.024395 0.915887
v 0.180188 0.051473 0.915887
v 0.207267 0.024395 0.915887
v 0.207267 0.024395 0.953797
v 0.207267 -0.024395 0.953797
v 0.180188 0.051473 0.953797
v 0.131398 0.051473 0.953797
v 0.104320 0.024395 0.915887
v 0.104320 0.024395 0.953797
v 0.131398 0.051473 0.915887
v 0.131398 -0.051473 0.953797
v 0.104320 -0.024395 0.953797
v 0.104320 -0.024395 0.915887
vn -0.0000 -0.0000 -1.0000
vn 0.3822 -0.9239 -0.0192
vn -0.3807 -0.9239 0.0390
vn 0.3827 -0.9239 -0.0000
vn 0.9224 -0.3841 0.0394
vn 0.3830 -0.9236 -0.0186
vn 0.3841 0.9224 0.0394
vn 0.9236 0.3830 -0.0186
vn 0.9239 0.3827 -0.0000
vn 0.9239 -0.3807 -0.0390
vn 0.9239 0.3822 0.0192
vn 0.9239 0.3827 -0.0001
vn 0.9239 0.3807 0.0390
vn 0.9239 -0.3822 -0.0192
vn 0.9239 -0.3827 0.0001
vn -0.0000 -0.0000 1.0000
vn 0.3841 -0.9224 -0.0394
vn 0.9236 -0.3830 0.0186
vn 0.9239 -0.3827 -0.0000
vn 0.9224 0.3841 -0.0394
vn 0.3830 0.9236 0.0186
vn 0.3827 0.9239 -0.0000
vn 0.3822 0.9239 0.0192
vn -0.3807 0.9239 -0.0390
vn -0.3841 0.9224 -0.0394
vn -0.9236 0.3830 0.0186
vn -0.9239 0.3827 -0.0000
vn -0.9224 0.3841 0.0394
vn -0.3830 0.9236 -0.0186
vn -0.3827 0.9239 -0.0000
vn -0.3822 0.9239 -0.0192
vn 0.3807 0.9239 0.0390
vn -0.9224 -0.3841 -0.0394
vn -0.3830 -0.9236 0.0186
vn -0.3827 -0.9239 -0.0000
vn -0.3822 -0.9239 0.0192
vn 0.3807 -0.9239 -0.0390
vn -0.9239 0.3807 -0.0390
vn -0.9239 -0.3822 0.0192
vn -0.9239 -0.3827 -0.0001
vn -0.3841 -0.9224 0.0394
vn -0.9236 -0.3830 -0.0186
vn -0.9239 -0.3827 -0.0000
vn -0.9239 -0.3807 0.0390
vn -0.9239 0.3822 -0.0192
vn -0.9239 0.3827 0.0001
vt 0.343750 0.077607
vt 0.343750 0.172393
vt 0.343750 0.077607
vt 0.343750 0.025000
vt 0.343750 0.077607
vt 0.343750 0.025000
vt 0.343750 0.025000
vt 0.343750 0.025000
vt 0.343750 0.077607
vt 0.343750 0.172393
vt 0.343750 0.225000
vt 0.343750 0.225000
vt 0.343750 0.172393
vt 0.343750 0.172393
vt 0.343750 0.225000
vt 0.343750 0.225000
s 0
usemtl colormap
f 175/204/319 171/200/319 172/201/319
f 173/202/320 172/201/321 171/200/322
f 174/203/323 173/202/324 171/200/322
f 171/200/319 176/205/319 174/203/319
f 176/205/319 171/200/319 175/204/319
f 175/204/325 177/206/326 176/205/327
f 178/207/328 176/205/329 177/206/330
f 176/205/331 178/207/332 174/203/333
f 178/207/334 179/208/334 173/202/334
f 173/202/335 174/203/336 178/207/337
f 179/208/334 178/207/334 177/206/334
f 177/206/338 175/204/339 179/208/340
f 175/204/341 180/209/342 179/208/340
f 173/202/334 179/208/334 180/209/334
f 180/209/343 181/210/344 182/211/345
f 181/210/346 180/209/347 183/212/348
f 184/213/334 180/209/334 182/211/334
f 180/209/349 175/204/350 183/212/348
f 173/202/334 180/209/334 184/213/334
f 185/214/351 172/201/352 184/213/353
f 172/201/354 173/202/355 184/213/353
f 184/213/334 182/211/334 185/214/334
f 182/211/356 186/215/357 185/214/358
f 172/201/359 185/214/360 186/215/361
f 183/212/319 186/215/319 181/210/319
f 186/215/362 182/211/363 181/210/364
f 183/212/319 172/201/319 186/215/319
f 175/204/319 172/201/319 183/212/319
g boat-sail-a.012_Mesh
v 0.155793 0.024395 0.456813
v -0.204947 0.024395 0.456813
v 0.155793 -0.024395 0.456813
v 0.155793 0.024395 0.490966
v -0.204947 0.024395 0.490966
v -0.204947 -0.024395 0.490966
v 0.155793 -0.024395 0.490966
v -0.204947 -0.024395 0.456813
vn -0.0000 1.0000 -0.0000
vn -0.0000 -0.0000 -1.0000
vn 1.0000 -0.0000 -0.0000
vn -0.0000 -0.0000 1.0000
vn -0.0000 -1.0000 -0.0000
vn -1.0000 -0.0000 -0.0000
vt 0.343750 0.025000
vt 0.343750 0.025000
vt 0.343750 0.025000
vt 0.343750 0.225000
vt 0.343750 0.225000
vt 0.343750 0.225000
vt 0.343750 0.225000
vt 0.343750 0.025000
s 0
usemtl colormap
f 188/217/365 190/219/365 187/216/365
f 189/218/366 188/217/366 187/216/366
f 190/219/367 189/218/367 187/216/367
f 190/219/365 188/217/365 191/220/365
f 189/218/367 190/219/367 193/222/367
f 192/221/368 190/219/368 191/220/368
f 190/219/368 192/221/368 193/222/368
f 192/221/369 189/218/369 193/222/369
f 188/217/370 192/221/370 191/220/370
f 192/221/370 188/217/370 194/223/370
f 189/218/369 192/221/369 194/223/369
f 188/217/366 189/218/366 194/223/366
g boat-sail-a.013_Mesh
v -0.150789 -0.051473 0.456813
v -0.150789 -0.051473 0.490966
v -0.096632 -0.051473 0.456813
v -0.150789 -0.024395 0.437858
v -0.150789 0.051473 0.456813
v -0.150789 0.024395 0.437858
v -0.096632 0.024395 0.437858
v -0.096632 -0.024395 0.437858
v -0.096632 0.051473 0.456813
v -0.096632 0.051473 0.490966
v -0.096632 -0.051473 0.490966
v -0.150789 0.024395 0.509921
v -0.096632 0.024395 0.509921
v -0.150789 0.051473 0.490966
v -0.150789 -0.024395 0.509921
v -0.096632 -0.024395 0.509921
vn -1.0000 -0.0000 -0.0000
vn 0.0185 -0.9239 -0.3822
vn -0.0376 -0.9239 0.3808
vn -0.0000 -0.9239 -0.3827
vn -0.0152 -0.2165 -0.9762
vn 0.0071 -0.8433 -0.5374
vn -0.0000 -0.8433 -0.5374
vn -0.0152 0.8431 -0.5376
vn 0.0071 0.2163 -0.9763
vn -0.0000 0.2163 -0.9763
vn -0.0000 -0.3827 -0.9239
vn -0.0000 0.3827 -0.9239
vn -0.0001 0.3827 -0.9239
vn 0.0001 -0.3827 -0.9239
vn 1.0000 -0.0000 -0.0000
vn 0.0152 -0.8431 -0.5376
vn -0.0071 -0.2163 -0.9763
vn -0.0000 -0.2163 -0.9763
vn 0.0152 0.2165 -0.9762
vn -0.0071 0.8433 -0.5374
vn -0.0000 0.8433 -0.5374
vn -0.0185 0.9239 -0.3822
vn 0.0376 0.9239 0.3808
vn -0.0000 0.9239 -0.3827
vn 0.0152 0.8431 0.5376
vn -0.0071 0.2163 0.9763
vn -0.0000 0.2163 0.9763
vn -0.0152 0.2165 0.9762
vn 0.0071 0.8433 0.5374
vn -0.0000 0.8433 0.5374
vn 0.0185 0.9239 0.3822
vn -0.0376 0.9239 -0.3808
vn -0.0000 0.9239 0.3827
vn -0.0152 -0.8431 0.5376
vn 0.0071 -0.2163 0.9763
vn -0.0000 -0.2163 0.9763
vn -0.0000 -0.3827 0.9239
vn -0.0000 0.3827 0.9239
vn 0.0001 0.3827 0.9239
vn -0.0001 -0.3827 0.9239
vn 0.0152 -0.2165 0.9762
vn -0.0071 -0.8433 0.5374
vn -0.0000 -0.8433 0.5374
vn -0.0185 -0.9239 0.3822
vn 0.0376 -0.9239 -0.3808
vn -0.0000 -0.9239 0.3827
vt 0.343750 0.077607
vt 0.343750 0.172393
vt 0.343750 0.077607
vt 0.343750 0.025000
vt 0.343750 0.077607
vt 0.343750 0.025000
vt 0.343750 0.025000
vt 0.343750 0.025000
vt 0.343750 0.077607
vt 0.343750 0.172393
vt 0.343750 0.172393
vt 0.343750 0.225000
vt 0.343750 0.225000
vt 0.343750 0.172393
vt 0.343750 0.225000
vt 0.343750 0.225000
s 0
usemtl colormap
f 199/228/371 195/224/371 196/225/371
f 197/226/372 196/225/373 195/224/374
f 198/227/375 197/226/376 195/224/377
f 195/224/371 200/229/371 198/227/371
f 200/229/371 195/224/371 199/228/371
f 199/228/378 201/230/379 200/229/380
f 202/231/381 200/229/382 201/230/383
f 200/229/382 202/231/381 198/227/384
f 202/231/385 203/232/385 197/226/385
f 197/226/386 198/227/387 202/231/388
f 203/232/385 202/231/385 201/230/385
f 197/226/385 203/232/385 204/233/385
f 201/230/389 199/228/390 203/232/391
f 199/228/392 204/233/393 203/232/394
f 197/226/385 204/233/385 205/234/385
f 205/234/385 204/233/385 207/236/385
f 204/233/395 206/235/396 207/236/397
f 206/235/398 204/233/399 208/237/400
f 204/233/401 199/228/402 208/237/403
f 208/237/371 196/225/371 209/238/371
f 199/228/371 196/225/371 208/237/371
f 208/237/371 209/238/371 206/235/371
f 196/225/404 210/239/405 209/238/406
f 209/238/407 207/236/408 206/235/409
f 207/236/408 209/238/407 210/239/410
f 210/239/411 196/225/412 205/234/413
f 205/234/385 207/236/385 210/239/385
f 196/225/414 197/226/415 205/234/416
g boat-sail-a.014_Mesh
v 0.514339 0.024395 0.309324
v 0.207266 0.024395 0.309324
v 0.514339 -0.024395 0.309324
v 0.371450 0.024395 0.452044
v 0.267946 0.024395 0.610549
v 0.371450 -0.024395 0.452044
v 0.207266 -0.024395 0.309324
v 0.267946 -0.024395 0.610549
v 0.207266 -0.024395 0.779574
v 0.207266 0.024395 0.779574
vn -0.0000 1.0000 -0.0000
vn 0.5693 0.7282 0.3816
vn 0.6334 0.5213 0.5719
vn -0.0000 -0.0000 -1.0000
vn 0.5320 0.7275 0.4333
vn 0.5928 -0.5211 0.6141
vn 0.6031 0.5213 0.6038
vn 0.6220 0.7282 0.2877
vn 0.5822 0.7282 0.3616
vn 0.5989 -0.5213 0.6079
vn 0.5413 0.7261 0.4240
vn 0.5265 -0.7282 0.4387
vn 0.6113 0.7272 0.3122
vn 0.5219 -0.7252 0.4490
vn 0.5373 0.7282 0.4255
vn 0.5693 -0.7282 0.3816
vn -0.0000 -1.0000 -0.0000
vn 0.6334 -0.5213 0.5719
vn 0.6220 -0.7282 0.2877
vn 0.5822 -0.7282 0.3616
vn 0.5316 -0.7272 0.4342
vn 0.6210 0.7252 0.2973
vn 0.6056 -0.7282 0.3208
vn 0.6390 -0.7282 0.2478
vn 0.9381 -0.1548 0.3099
vn 0.6170 -0.7270 0.3013
vn 0.9322 0.1547 0.3271
vn 0.9298 -0.1548 0.3338
vn 0.9308 0.1548 0.3311
vn 0.6097 -0.7244 0.3217
vn 0.6213 0.7282 0.2894
vn 0.6390 0.7282 0.2478
vn 0.9381 0.1548 0.3099
vn -1.0000 -0.0000 -0.0000
vt 0.718750 0.025000
vt 0.718750 0.025000
vt 0.718750 0.025000
vt 0.718750 0.085700
vt 0.718750 0.153113
vt 0.718750 0.085700
vt 0.718750 0.025000
vt 0.718750 0.153113
vt 0.718750 0.225000
vt 0.718750 0.225000
s 0
usemtl colormap
f 212/241/417 214/243/418 211/240/419
f 213/242/420 212/241/420 211/240/420
f 214/243/421 213/242/422 211/240/423
f 212/241/417 215/244/424 214/243/425
f 213/242/426 214/243/427 216/245/428
f 215/244/429 216/245/430 214/243/431
f 216/245/432 217/246/433 213/242/434
f 218/247/435 217/246/433 216/245/436
f 216/245/437 215/244/438 218/247/439
f 217/246/433 218/247/440 219/248/441
f 218/247/442 220/249/443 219/248/444
f 220/249/445 218/247/446 215/244/447
f 215/244/448 212/241/417 220/249/449
f 212/241/450 219/248/450 220/249/450
f 219/248/450 212/241/450 217/246/450
f 212/241/420 213/242/420 217/246/420
g boat-sail-a.015_Mesh
v 0.104319 0.024395 0.509921
v -0.204947 0.024395 0.509921
v 0.104319 -0.024395 0.509921
v 0.104320 0.024395 0.980171
v -0.039590 0.024395 0.837451
v -0.143833 0.024395 0.678945
v -0.039590 -0.024395 0.837451
v -0.143833 -0.024395 0.678945
v -0.204947 -0.024395 0.509921
v 0.104320 -0.024395 0.980171
vn -0.6820 0.6871 0.2506
vn -0.0000 1.0000 -0.0000
vn -0.7271 0.6442 0.2374
vn -0.0000 -0.0000 -1.0000
vn 1.0000 -0.0000 -0.0000
vn -0.6082 0.6871 0.3975
vn -0.6870 0.3644 0.6287
vn -0.6783 0.6871 0.2606
vn -0.6022 0.6871 0.4065
vn -0.6351 0.6880 0.3511
vn -0.5817 -0.6890 0.4322
vn -0.5680 0.6871 0.4531
vn -0.5740 -0.6881 0.4439
vn -0.6274 0.6890 0.3628
vn -0.6411 -0.6871 0.3419
vn -0.7153 0.6441 0.2713
vn -0.6682 -0.6893 0.2799
vn -0.6578 0.6871 0.3086
vn -0.6783 -0.6871 0.2606
vn -0.0000 -1.0000 -0.0000
vn -0.6022 -0.6871 0.4065
vn -0.6624 -0.6882 0.2960
vn -0.7093 0.6435 0.2878
vn -0.7193 -0.6442 0.2601
vn -0.6820 -0.6871 0.2506
vn -0.7271 -0.6442 0.2374
vn -0.6082 -0.6871 0.3975
vn -0.6870 -0.3644 0.6287
vn -0.6587 -0.3644 0.6583
vn -0.5436 0.6886 0.4799
vn -0.5567 -0.6871 0.4669
vn -0.5509 0.6878 0.4727
vn -0.6629 -0.3642 0.6541
vn -0.6558 0.3644 0.6612
vt 0.718750 0.025000
vt 0.718750 0.025000
vt 0.718750 0.025000
vt 0.718750 0.225000
vt 0.718750 0.164300
vt 0.718750 0.096887
vt 0.718750 0.164300
vt 0.718750 0.096887
vt 0.718750 0.025000
vt 0.718750 0.225000
s 0
usemtl colormap
f 226/255/451 221/250/452 222/251/453
f 223/252/454 222/251/454 221/250/454
f 224/253/455 223/252/455 221/250/455
f 221/250/452 225/254/456 224/253/457
f 221/250/452 226/255/458 225/254/459
f 226/255/460 227/256/461 225/254/462
f 227/256/463 226/255/464 228/257/465
f 222/251/466 228/257/467 226/255/468
f 228/257/469 223/252/470 227/256/471
f 228/257/472 222/251/473 229/258/474
f 223/252/470 228/257/475 229/258/476
f 222/251/454 223/252/454 229/258/454
f 227/256/477 223/252/470 230/259/478
f 230/259/479 225/254/480 227/256/481
f 225/254/482 230/259/483 224/253/484
f 223/252/455 224/253/455 230/259/455
