# Blender 3.3.1
# www.blender.org
mtllib Vehicle_Boat_Fishing.mtl
g boat-fishing-small_Mesh
v -0.451100 -0.106080 -0.000000
v -0.451100 0.106080 0.000000
v -0.503100 -0.176800 0.078000
v -0.503100 0.176800 0.078000
v 0.265460 -0.058032 -0.000000
v 0.224900 -0.106080 -0.000000
v 0.386100 -0.096720 0.078000
v 0.318500 -0.176800 0.078000
v 0.386100 0.096720 0.078000
v 0.412100 -0.000000 0.078000
v 0.468975 0.126945 0.182000
v 0.503100 -0.000000 0.182000
v 0.265460 0.058032 0.000000
v 0.281060 0.000000 0.000000
v -0.503100 0.232050 0.182000
v 0.380250 0.232050 0.182000
v 0.318500 0.176800 0.078000
v -0.503100 -0.232050 0.182000
v 0.380250 -0.232050 0.182000
v 0.468975 -0.126945 0.182000
v 0.224900 0.106080 0.000000
v -0.503100 -0.076050 0.208000
v -0.503100 -0.232050 0.260000
v -0.503100 -0.076050 0.234000
v -0.503100 -0.128050 0.260000
v -0.503100 0.076050 0.208000
v -0.503100 0.232050 0.260000
v -0.503100 0.076050 0.234000
v -0.503100 0.128050 0.260000
v 0.356096 -0.180050 0.208000
v 0.421766 -0.102256 0.208000
v 0.356096 -0.180050 0.260000
v 0.421766 -0.102256 0.260000
v 0.449254 -0.000000 0.208000
v 0.449254 -0.000000 0.260000
v 0.421766 0.102256 0.208000
v 0.421766 0.102256 0.260000
v 0.356096 0.180050 0.208000
v 0.356096 0.180050 0.260000
v -0.451100 -0.076050 0.208000
v -0.451100 -0.180050 0.208000
v -0.451100 -0.076050 0.234000
v -0.451100 -0.180050 0.260000
v -0.451100 -0.128050 0.260000
v -0.451100 0.180050 0.208000
v -0.451100 0.076050 0.208000
v -0.451100 0.180050 0.260000
v -0.451100 0.076050 0.234000
v -0.451100 0.128050 0.260000
v 0.468975 0.126945 0.260000
v 0.503100 -0.000000 0.260000
v 0.468975 -0.126945 0.260000
v 0.380250 -0.232050 0.260000
v 0.380250 0.232050 0.260000
vn -0.8321 -0.0000 -0.5547
vn 0.4728 -0.2370 -0.8487
vn 0.1766 -0.6144 -0.7690
vn 0.4649 -0.2578 -0.8470
vn 0.4728 -0.2369 -0.8487
vn 0.2899 -0.5097 -0.8100
vn 0.6815 0.3474 -0.6441
vn 0.7526 -0.0000 -0.6585
vn 0.6739 0.3642 -0.6428
vn 0.5115 -0.0000 -0.8593
vn 0.4649 0.2578 -0.8470
vn 0.4728 0.2369 -0.8487
vn 0.3762 0.7069 -0.5989
vn -0.0000 0.8831 -0.4692
vn 0.2794 0.7693 -0.5745
vn 0.2793 -0.7693 -0.5746
vn -0.0000 -0.8831 -0.4692
vn 0.2794 -0.7693 -0.5746
vn 0.3762 -0.7069 -0.5989
vn -0.0000 -0.7408 -0.6717
vn 0.6815 -0.3474 -0.6441
vn 0.6739 -0.3642 -0.6428
vn 0.1766 0.6144 -0.7690
vn 0.2899 0.5097 -0.8100
vn 0.4728 0.2370 -0.8487
vn 0.2793 0.7693 -0.5746
vn -0.0000 0.7408 -0.6717
vn -0.0000 -0.0000 -1.0000
vn -1.0000 -0.0000 -0.0000
vn -0.7641 0.6451 -0.0000
vn -0.8861 0.4634 -0.0000
vn -0.8861 -0.4634 -0.0000
vn -0.7641 -0.6451 -0.0000
vn 1.0000 -0.0000 -0.0000
vn -0.0000 0.8507 0.5257
vn -0.0000 0.4472 0.8944
vn -0.0000 0.8506 0.5257
vn -0.0000 1.0000 -0.0000
vn -0.0000 -1.0000 -0.0000
vn -0.0000 -0.8506 0.5257
vn -0.0000 -0.4472 0.8944
vn -0.0000 -0.8507 0.5257
vn 0.8861 0.4634 -0.0000
vn 0.8861 -0.4634 -0.0000
vn 0.4213 -0.9069 -0.0000
vn -0.0000 -0.0000 1.0000
vn 0.4213 0.9069 -0.0000
vt 0.718750 0.025000
vt 0.718750 0.025000
vt 0.843750 0.335000
vt 0.718750 0.085000
vt 0.843750 0.335000
vt 0.718750 0.085000
vt 0.718750 0.025000
vt 0.718750 0.025000
vt 0.718750 0.085000
vt 0.718750 0.085000
vt 0.718750 0.085000
vt 0.718750 0.085000
vt 0.718750 0.165000
vt 0.843750 0.415000
vt 0.718750 0.165000
vt 0.843750 0.415000
vt 0.718750 0.025000
vt 0.718750 0.025000
vt 0.718750 0.165000
vt 0.843750 0.415000
vt 0.718750 0.165000
vt 0.843750 0.415000
vt 0.718750 0.085000
vt 0.718750 0.165000
vt 0.843750 0.415000
vt 0.718750 0.165000
vt 0.843750 0.415000
vt 0.718750 0.165000
vt 0.843750 0.415000
vt 0.718750 0.025000
vt 0.843750 0.435000
vt 0.343750 0.185000
vt 0.843750 0.475000
vt 0.843750 0.455000
vt 0.843750 0.475000
vt 0.843750 0.435000
vt 0.343750 0.185000
vt 0.843750 0.475000
vt 0.843750 0.455000
vt 0.843750 0.475000
vt 0.843750 0.435000
vt 0.343750 0.185000
vt 0.843750 0.435000
vt 0.343750 0.185000
vt 0.843750 0.475000
vt 0.843750 0.475000
vt 0.843750 0.435000
vt 0.343750 0.185000
vt 0.843750 0.475000
vt 0.843750 0.435000
vt 0.343750 0.185000
vt 0.843750 0.475000
vt 0.843750 0.435000
vt 0.343750 0.185000
vt 0.843750 0.475000
vt 0.843750 0.435000
vt 0.343750 0.185000
vt 0.843750 0.435000
vt 0.343750 0.185000
vt 0.843750 0.455000
vt 0.843750 0.475000
vt 0.843750 0.475000
vt 0.843750 0.435000
vt 0.343750 0.185000
vt 0.843750 0.435000
vt 0.343750 0.185000
vt 0.843750 0.475000
vt 0.843750 0.455000
vt 0.843750 0.475000
vt 0.843750 0.475000
vt 0.843750 0.475000
vt 0.843750 0.475000
vt 0.843750 0.475000
vt 0.843750 0.475000
s 0
f 3/4/1 2/2/1 1/1/1
f 2/2/1 3/4/1 4/6/1
f 7/9/2 6/8/3 5/7/4
f 6/8/3 7/9/5 8/10/6
f 11/13/7 10/12/8 9/11/9
f 10/12/8 11/13/7 12/15/8
f 10/12/10 13/17/11 9/11/12
f 13/17/11 10/12/10 14/18/10
f 7/9/5 14/18/10 10/12/10
f 14/18/10 7/9/5 5/7/4
f 16/21/13 4/6/14 15/19/14
f 4/6/14 16/21/13 17/23/15
f 8/10/16 18/24/17 3/4/17
f 18/24/17 8/10/18 19/26/19
f 1/1/20 8/10/6 3/4/20
f 8/10/6 1/1/20 6/8/3
f 20/28/21 8/10/16 7/9/22
f 8/10/16 20/28/21 19/26/19
f 9/11/12 21/30/23 17/23/24
f 21/30/23 9/11/25 13/17/11
f 11/13/7 17/23/26 16/21/13
f 17/23/26 11/13/7 9/11/9
f 17/23/24 2/2/27 4/6/27
f 2/2/27 17/23/24 21/30/23
f 13/17/28 2/2/28 21/30/28
f 2/2/28 13/17/28 1/1/28
f 1/1/28 13/17/28 14/18/28
f 1/1/28 14/18/28 5/7/28
f 1/1/28 5/7/28 6/8/28
f 12/15/8 7/9/22 10/12/8
f 7/9/22 12/15/8 20/28/21
f 18/25/29 4/5/29 3/3/29
f 4/5/29 18/25/29 15/20/29
f 15/20/29 18/25/29 22/31/29
f 22/31/29 18/25/29 23/33/29
f 22/31/29 23/33/29 24/34/29
f 24/34/29 23/33/29 25/35/29
f 26/36/29 15/20/29 22/31/29
f 15/20/29 26/36/29 27/38/29
f 27/38/29 26/36/29 28/39/29
f 27/38/29 28/39/29 29/40/29
f 32/45/30 31/43/31 30/41/30
f 31/43/31 32/45/30 33/46/31
f 33/46/31 34/47/29 31/43/31
f 34/47/29 33/46/31 35/49/29
f 35/49/29 36/50/32 34/47/29
f 36/50/32 35/49/29 37/52/32
f 36/50/32 39/55/33 38/53/33
f 39/55/33 36/50/32 37/52/32
f 42/60/34 41/58/34 40/56/34
f 41/58/34 42/60/34 43/61/34
f 43/61/34 42/60/34 44/62/34
f 47/67/34 46/65/34 45/63/34
f 46/65/34 47/67/34 48/68/34
f 48/68/34 47/67/34 49/69/34
f 24/34/35 44/62/36 42/60/35
f 44/62/36 24/34/35 25/35/36
f 42/60/37 22/31/38 24/34/37
f 22/31/38 42/60/37 40/56/38
f 26/36/39 48/68/40 28/39/40
f 48/68/40 26/36/39 46/65/39
f 29/40/41 48/68/42 49/69/41
f 48/68/42 29/40/41 28/39/42
f 50/70/43 12/16/34 11/14/43
f 12/16/34 50/70/43 51/71/34
f 52/72/44 19/27/45 20/29/44
f 19/27/45 52/72/44 53/73/45
f 38/53/39 47/67/39 45/63/39
f 47/67/39 38/53/39 39/55/39
f 47/67/46 29/40/46 49/69/46
f 47/67/46 27/38/46 29/40/46
f 27/38/46 47/67/46 39/55/46
f 39/55/46 54/74/46 27/38/46
f 54/74/46 39/55/46 50/70/46
f 50/70/46 39/55/46 37/52/46
f 50/70/46 37/52/46 51/71/46
f 51/71/46 37/52/46 35/49/46
f 51/71/46 35/49/46 52/72/46
f 52/72/46 35/49/46 33/46/46
f 52/72/46 33/46/46 32/45/46
f 52/72/46 32/45/46 53/73/46
f 53/73/46 32/45/46 43/61/46
f 43/61/46 23/33/46 53/73/46
f 43/61/46 25/35/46 23/33/46
f 25/35/46 43/61/46 44/62/46
f 54/74/47 11/14/43 16/22/47
f 11/14/43 54/74/47 50/70/43
f 32/45/38 41/58/38 43/61/38
f 41/58/38 32/45/38 30/41/38
f 54/74/47 15/20/38 27/38/38
f 15/20/38 54/74/47 16/22/47
f 51/71/34 20/29/44 12/16/34
f 20/29/44 51/71/34 52/72/44
f 19/27/45 23/33/39 18/25/39
f 23/33/39 19/27/45 53/73/45
f 9/11/28 4/6/28 17/23/28
f 4/6/28 9/11/28 3/4/28
f 3/4/28 9/11/28 10/12/28
f 3/4/28 10/12/28 7/9/28
f 3/4/28 7/9/28 8/10/28
f 45/64/46 36/51/46 38/54/46
f 36/51/46 45/64/46 46/66/46
f 36/51/46 46/66/46 34/48/46
f 34/48/46 46/66/46 26/37/46
f 34/48/46 26/37/46 22/32/46
f 34/48/46 22/32/46 40/57/46
f 40/57/46 31/44/46 34/48/46
f 31/44/46 40/57/46 41/59/46
f 31/44/46 41/59/46 30/42/46
f 3/4/1 2/2/1 1/1/1
f 2/2/1 3/4/1 4/6/1
f 7/9/2 6/8/3 5/7/4
f 6/8/3 7/9/5 8/10/6
f 11/13/7 10/12/8 9/11/9
f 10/12/8 11/13/7 12/15/8
f 10/12/10 13/17/11 9/11/12
f 13/17/11 10/12/10 14/18/10
f 7/9/5 14/18/10 10/12/10
f 14/18/10 7/9/5 5/7/4
f 16/21/13 4/6/14 15/19/14
f 4/6/14 16/21/13 17/23/15
f 8/10/16 18/24/17 3/4/17
f 18/24/17 8/10/18 19/26/19
f 1/1/20 8/10/6 3/4/20
f 8/10/6 1/1/20 6/8/3
f 20/28/21 8/10/16 7/9/22
f 8/10/16 20/28/21 19/26/19
f 9/11/12 21/30/23 17/23/24
f 21/30/23 9/11/25 13/17/11
f 11/13/7 17/23/26 16/21/13
f 17/23/26 11/13/7 9/11/9
f 17/23/24 2/2/27 4/6/27
f 2/2/27 17/23/24 21/30/23
f 13/17/28 2/2/28 21/30/28
f 2/2/28 13/17/28 1/1/28
f 1/1/28 13/17/28 14/18/28
f 1/1/28 14/18/28 5/7/28
f 1/1/28 5/7/28 6/8/28
f 12/15/8 7/9/22 10/12/8
f 7/9/22 12/15/8 20/28/21
f 18/25/29 4/5/29 3/3/29
f 4/5/29 18/25/29 15/20/29
f 15/20/29 18/25/29 22/31/29
f 22/31/29 18/25/29 23/33/29
f 22/31/29 23/33/29 24/34/29
f 24/34/29 23/33/29 25/35/29
f 26/36/29 15/20/29 22/31/29
f 15/20/29 26/36/29 27/38/29
f 27/38/29 26/36/29 28/39/29
f 27/38/29 28/39/29 29/40/29
f 32/45/30 31/43/31 30/41/30
f 31/43/31 32/45/30 33/46/31
f 33/46/31 34/47/29 31/43/31
f 34/47/29 33/46/31 35/49/29
f 35/49/29 36/50/32 34/47/29
f 36/50/32 35/49/29 37/52/32
f 36/50/32 39/55/33 38/53/33
f 39/55/33 36/50/32 37/52/32
f 42/60/34 41/58/34 40/56/34
f 41/58/34 42/60/34 43/61/34
f 43/61/34 42/60/34 44/62/34
f 47/67/34 46/65/34 45/63/34
f 46/65/34 47/67/34 48/68/34
f 48/68/34 47/67/34 49/69/34
f 24/34/35 44/62/36 42/60/35
f 44/62/36 24/34/35 25/35/36
f 42/60/37 22/31/38 24/34/37
f 22/31/38 42/60/37 40/56/38
f 26/36/39 48/68/40 28/39/40
f 48/68/40 26/36/39 46/65/39
f 29/40/41 48/68/42 49/69/41
f 48/68/42 29/40/41 28/39/42
f 50/70/43 12/16/34 11/14/43
f 12/16/34 50/70/43 51/71/34
f 52/72/44 19/27/45 20/29/44
f 19/27/45 52/72/44 53/73/45
f 38/53/39 47/67/39 45/63/39
f 47/67/39 38/53/39 39/55/39
f 47/67/46 29/40/46 49/69/46
f 47/67/46 27/38/46 29/40/46
f 27/38/46 47/67/46 39/55/46
f 39/55/46 54/74/46 27/38/46
f 54/74/46 39/55/46 50/70/46
f 50/70/46 39/55/46 37/52/46
f 50/70/46 37/52/46 51/71/46
f 51/71/46 37/52/46 35/49/46
f 51/71/46 35/49/46 52/72/46
f 52/72/46 35/49/46 33/46/46
f 52/72/46 33/46/46 32/45/46
f 52/72/46 32/45/46 53/73/46
f 53/73/46 32/45/46 43/61/46
f 43/61/46 23/33/46 53/73/46
f 43/61/46 25/35/46 23/33/46
f 25/35/46 43/61/46 44/62/46
f 54/74/47 11/14/43 16/22/47
f 11/14/43 54/74/47 50/70/43
f 32/45/38 41/58/38 43/61/38
f 41/58/38 32/45/38 30/41/38
f 54/74/47 15/20/38 27/38/38
f 15/20/38 54/74/47 16/22/47
f 51/71/34 20/29/44 12/16/34
f 20/29/44 51/71/34 52/72/44
f 19/27/45 23/33/39 18/25/39
f 23/33/39 19/27/45 53/73/45
f 9/11/28 4/6/28 17/23/28
f 4/6/28 9/11/28 3/4/28
f 3/4/28 9/11/28 10/12/28
f 3/4/28 10/12/28 7/9/28
f 3/4/28 7/9/28 8/10/28
f 45/64/46 36/51/46 38/54/46
f 36/51/46 45/64/46 46/66/46
f 36/51/46 46/66/46 34/48/46
f 34/48/46 46/66/46 26/37/46
f 34/48/46 26/37/46 22/32/46
f 34/48/46 22/32/46 40/57/46
f 40/57/46 31/44/46 34/48/46
f 31/44/46 40/57/46 41/59/46
f 31/44/46 41/59/46 30/42/46
g boat-fishing-small.001_Mesh
v 0.016900 0.154050 0.208000
v 0.016900 0.154050 0.390000
v 0.016900 -0.154050 0.208000
v 0.221439 0.154050 0.390000
v 0.221439 0.154050 0.208000
v 0.258208 0.138820 0.390000
v 0.258208 0.138820 0.208000
v 0.258208 0.138820 0.299000
v 0.273439 0.102050 0.208000
v 0.273439 -0.102050 0.208000
v 0.273439 0.102050 0.299000
v 0.273439 -0.102050 0.299000
v 0.273439 0.102050 0.390000
v 0.325439 -0.112393 0.390000
v 0.325439 0.112393 0.390000
v 0.273439 -0.102050 0.390000
v 0.258208 -0.138820 0.390000
v 0.258208 -0.138820 0.299000
v 0.258208 -0.138820 0.208000
v 0.221439 -0.154050 0.208000
v 0.221439 -0.154050 0.390000
v 0.016900 -0.154050 0.390000
v 0.298007 -0.178619 0.390000
v -0.035100 -0.180050 0.390000
v -0.035100 -0.180050 0.442000
v -0.009100 -0.206050 0.390000
v 0.231782 -0.206050 0.390000
v -0.035100 0.180050 0.390000
v -0.035100 0.180050 0.442000
v -0.009100 0.206050 0.442000
v -0.009100 0.206050 0.390000
v 0.298007 0.178619 0.390000
v 0.298007 0.178619 0.442000
v 0.231782 0.206050 0.390000
v 0.231782 0.206050 0.442000
v 0.325439 0.112393 0.442000
v 0.325439 -0.112393 0.442000
v 0.298007 -0.178619 0.442000
v 0.231782 -0.206050 0.442000
v -0.009100 -0.206050 0.442000
vn 0.1951 0.9808 -0.0000
vn -0.0000 1.0000 -0.0000
vn -1.0000 -0.0000 -0.0000
vn 0.3827 0.9239 -0.0000
vn -0.0000 -0.0000 -0.0000
vn 0.9239 0.3827 -0.0000
vn 0.9808 0.1951 -0.0000
vn 0.9808 -0.1951 -0.0001
vn 0.9808 -0.1951 -0.0000
vn 0.9808 0.1951 0.0001
vn -0.0000 -0.0000 -1.0000
vn 0.9239 -0.3827 -0.0000
vn 0.1951 -0.9808 -0.0000
vn 0.3827 -0.9239 -0.0000
vn -0.0000 -1.0000 -0.0000
vn -0.3827 -0.9239 -0.0000
vn -0.9239 -0.3827 -0.0000
vn -0.9239 0.3827 -0.0002
vn -0.9239 0.3827 -0.0000
vn -0.9239 -0.3827 0.0002
vn -0.3827 0.9239 -0.0000
vn 0.7071 0.7071 -0.0000
vn -0.0000 -0.0000 1.0000
vn -0.3827 0.9239 -0.0001
vn 0.9808 0.1951 -0.0001
vn 0.9808 -0.1951 0.0001
vn 0.7071 -0.7071 -0.0000
vn -0.3827 -0.9239 0.0001
vt 0.718750 0.025000
vt 0.843750 0.430556
vt 0.718750 0.180556
vt 0.718750 0.025000
vt 0.718750 0.180556
vt 0.843750 0.430556
vt 0.718750 0.025000
vt 0.718750 0.180556
vt 0.093750 0.225000
vt 0.843750 0.430556
vt 0.718750 0.025000
vt 0.718750 0.102778
vt 0.093750 0.025000
vt 0.718750 0.025000
vt 0.718750 0.025000
vt 0.718750 0.102778
vt 0.093750 0.025000
vt 0.093750 0.025000
vt 0.718750 0.102778
vt 0.843750 0.430556
vt 0.093750 0.225000
vt 0.843750 0.430556
vt 0.843750 0.430556
vt 0.843750 0.430556
vt 0.093750 0.225000
vt 0.093750 0.225000
vt 0.718750 0.180556
vt 0.843750 0.430556
vt 0.093750 0.025000
vt 0.718750 0.102778
vt 0.718750 0.025000
vt 0.718750 0.025000
vt 0.718750 0.180556
vt 0.843750 0.430556
vt 0.843750 0.430556
vt 0.718750 0.180556
vt 0.843750 0.430556
vt 0.843750 0.430556
vt 0.843750 0.475000
vt 0.843750 0.430556
vt 0.843750 0.430556
vt 0.843750 0.430556
vt 0.843750 0.475000
vt 0.843750 0.475000
vt 0.843750 0.430556
vt 0.843750 0.430556
vt 0.843750 0.475000
vt 0.843750 0.430556
vt 0.843750 0.475000
vt 0.843750 0.475000
vt 0.843750 0.475000
vt 0.843750 0.475000
vt 0.843750 0.475000
vt 0.843750 0.475000
s 0
f 58/79/48 55/75/49 56/77/49
f 57/78/50 56/77/50 55/75/50
f 58/79/48 55/75/49 56/77/49
f 57/78/50 56/77/50 55/75/50
f 55/75/49 58/79/48 59/81/48
f 55/75/49 58/79/48 59/81/48
f 60/82/51 59/81/48 58/79/48
f 60/82/51 59/81/48 58/79/48
f 59/81/48 60/82/51 61/85/51
f 59/81/48 60/82/51 61/85/51
f 61/85/52 60/82/52 62/86/52
f 61/85/52 60/82/52 62/86/52
f 62/86/53 63/88/54 61/85/53
f 62/86/53 63/88/54 61/85/53
f 65/90/54 64/89/55 63/88/54
f 65/90/54 64/89/55 63/88/54
f 63/88/54 62/86/53 65/90/54
f 63/88/54 62/86/53 65/90/54
f 65/91/54 60/83/53 67/95/54
f 60/83/53 65/91/54 62/87/53
f 65/91/54 60/83/53 67/95/54
f 60/83/53 65/91/54 62/87/53
f 64/89/56 65/90/57 66/93/56
f 64/89/56 65/90/57 66/93/56
f 67/95/54 66/92/55 65/91/54
f 67/95/54 66/92/55 65/91/54
f 67/94/58 68/96/58 70/98/58
f 67/94/58 69/97/58 68/96/58
f 67/94/58 68/96/58 70/98/58
f 67/94/58 69/97/58 68/96/58
f 60/84/58 69/97/58 67/94/58
f 60/84/58 69/97/58 67/94/58
f 66/92/56 67/95/57 70/99/56
f 66/92/56 67/95/57 70/99/56
f 70/98/58 68/96/58 71/102/58
f 70/98/58 68/96/58 71/102/58
f 72/103/59 70/99/56 71/100/59
f 72/103/59 70/99/56 71/100/59
f 70/99/56 72/103/59 66/92/56
f 70/99/56 72/103/59 66/92/56
f 73/105/59 66/93/56 72/104/59
f 71/101/52 73/105/52 72/104/52
f 73/105/59 66/93/56 72/104/59
f 71/101/52 73/105/52 72/104/52
f 75/107/60 73/105/61 71/101/61
f 75/107/60 73/105/61 71/101/61
f 66/93/56 73/105/59 64/89/56
f 66/93/56 73/105/59 64/89/56
f 73/105/61 75/107/60 74/106/60
f 73/105/61 75/107/60 74/106/60
f 78/112/58 76/109/58 75/108/58
f 76/110/62 74/106/60 75/107/60
f 78/112/58 76/109/58 75/108/58
f 76/110/62 74/106/60 75/107/60
f 71/102/58 77/111/58 75/108/58
f 71/102/58 77/111/58 75/108/58
f 78/112/58 75/108/58 77/111/58
f 78/112/58 75/108/58 77/111/58
f 78/112/58 56/76/58 76/109/58
f 78/112/58 56/76/58 76/109/58
f 80/114/63 79/113/64 78/112/64
f 79/113/64 82/116/65 78/112/64
f 80/114/63 79/113/64 78/112/64
f 79/113/64 82/116/65 78/112/64
f 78/112/58 81/115/58 80/114/58
f 78/112/58 81/115/58 80/114/58
f 78/112/58 77/111/58 81/115/58
f 78/112/58 77/111/58 81/115/58
f 82/116/58 56/76/58 78/112/58
f 82/116/58 56/76/58 78/112/58
f 82/116/58 86/120/58 56/76/58
f 82/116/58 86/120/58 56/76/58
f 82/116/66 79/113/67 83/117/66
f 84/118/68 82/116/66 83/117/66
f 82/116/66 79/113/67 83/117/66
f 84/118/68 82/116/66 83/117/66
f 82/116/66 84/118/68 85/119/68
f 82/116/66 84/118/68 85/119/68
f 85/119/58 86/120/58 82/116/58
f 85/119/58 86/120/58 82/116/58
f 86/120/58 85/119/58 88/122/58
f 86/120/58 85/119/58 88/122/58
f 69/97/58 58/80/58 86/120/58
f 56/76/58 86/120/58 58/80/58
f 69/97/58 58/80/58 86/120/58
f 56/76/58 86/120/58 58/80/58
f 87/121/69 69/97/54 86/120/69
f 87/121/69 69/97/54 86/120/69
f 88/122/48 87/121/69 86/120/69
f 88/122/48 87/121/69 86/120/69
f 85/119/68 89/123/48 88/122/48
f 87/121/69 88/122/48 89/123/48
f 85/119/68 89/123/48 88/122/48
f 87/121/69 88/122/48 89/123/48
f 89/123/70 83/117/70 87/121/70
f 83/117/70 89/123/70 84/118/70
f 89/123/70 83/117/70 87/121/70
f 83/117/70 89/123/70 84/118/70
f 89/123/48 85/119/68 84/118/71
f 89/123/48 85/119/68 84/118/71
f 69/97/54 87/121/69 90/124/54
f 69/97/54 87/121/69 90/124/54
f 87/121/70 79/113/70 90/124/70
f 87/121/70 79/113/70 90/124/70
f 87/121/70 83/117/70 79/113/70
f 87/121/70 83/117/70 79/113/70
f 68/96/56 90/124/72 91/125/56
f 90/124/54 68/96/73 69/97/54
f 68/96/56 90/124/72 91/125/56
f 90/124/54 68/96/73 69/97/54
f 90/124/70 79/113/70 91/125/70
f 90/124/70 79/113/70 91/125/70
f 91/125/56 77/111/74 68/96/56
f 91/125/56 77/111/74 68/96/56
f 77/111/74 91/125/56 92/126/74
f 77/111/74 91/125/56 92/126/74
f 91/125/70 79/113/70 92/126/70
f 91/125/70 79/113/70 92/126/70
f 93/127/60 77/111/74 92/126/74
f 93/127/60 77/111/74 92/126/74
f 92/126/70 79/113/70 93/127/70
f 92/126/70 79/113/70 93/127/70
f 77/111/74 93/127/60 81/115/60
f 77/111/74 93/127/60 81/115/60
f 94/128/63 81/115/60 93/127/60
f 94/128/63 81/115/60 93/127/60
f 93/127/70 79/113/70 94/128/70
f 93/127/70 79/113/70 94/128/70
f 79/113/64 80/114/63 94/128/63
f 79/113/64 80/114/63 94/128/63
f 81/115/60 94/128/63 80/114/75
f 81/115/60 94/128/63 80/114/75
f 71/102/58 68/96/58 77/111/58
f 71/102/58 68/96/58 77/111/58
f 74/106/60 76/110/62 57/78/62
f 74/106/60 76/110/62 57/78/62
f 56/77/50 57/78/50 76/110/50
f 56/77/50 57/78/50 76/110/50
f 58/80/58 69/97/58 60/84/58
f 58/80/58 69/97/58 60/84/58
g boat-fishing-small.002_Mesh
v 0.360424 0.050591 0.208000
v 0.360424 -0.050591 0.208000
v 0.360424 0.050591 0.247000
v 0.273439 0.073320 0.208000
v 0.273439 0.073320 0.260000
v 0.360424 -0.050591 0.247000
v 0.273439 -0.073320 0.260000
v 0.273439 -0.073320 0.208000
vn 0.7142 -0.0000 0.6999
vn 1.0000 -0.0000 -0.0000
vn 0.2528 0.9675 -0.0000
vn 0.1478 -0.0000 0.9890
vn 0.2528 -0.9675 -0.0000
vt 0.718750 0.025000
vt 0.718750 0.025000
vt 0.718750 0.175000
vt 0.718750 0.025000
vt 0.718750 0.225000
vt 0.718750 0.175000
vt 0.718750 0.225000
vt 0.718750 0.025000
s 0
f 97/131/76 96/130/77 95/129/77
f 97/131/76 96/130/77 95/129/77
f 98/132/78 97/131/78 95/129/78
f 98/132/78 97/131/78 95/129/78
f 97/131/78 98/132/78 99/133/78
f 97/131/78 98/132/78 99/133/78
f 99/133/79 100/134/76 97/131/76
f 99/133/79 100/134/76 97/131/76
f 100/134/76 99/133/79 101/135/79
f 100/134/76 99/133/79 101/135/79
f 96/130/80 101/135/80 102/136/80
f 101/135/80 96/130/80 100/134/80
f 96/130/80 101/135/80 102/136/80
f 101/135/80 96/130/80 100/134/80
f 96/130/77 97/131/76 100/134/76
f 96/130/77 97/131/76 100/134/76
g boat-fishing-small.003_Mesh
v -0.090350 0.144300 0.676000
v -0.070850 0.144300 0.676000
v -0.090350 0.124800 0.676000
v -0.100100 0.154050 0.208000
v -0.061100 0.154050 0.208000
v -0.061100 0.115050 0.208000
v -0.070850 0.124800 0.676000
v -0.100100 0.115050 0.208000
vn 0.7068 0.7068 0.0295
vn -0.7068 0.7068 0.0295
vn -0.0000 -0.0000 1.0000
vn -0.7068 -0.7068 0.0295
vn 0.7068 0.7068 0.0294
vn 0.7068 -0.7068 0.0294
vn 0.7068 -0.7068 0.0295
vn -0.7068 0.7068 0.0294
vt 0.718750 0.225000
vt 0.718750 0.225000
vt 0.718750 0.225000
vt 0.718750 0.025000
vt 0.718750 0.025000
vt 0.718750 0.025000
vt 0.718750 0.225000
vt 0.718750 0.025000
s 0
f 107/141/81 103/137/82 104/138/81
f 105/139/83 104/138/83 103/137/83
f 107/141/81 103/137/82 104/138/81
f 105/139/83 104/138/83 103/137/83
f 106/140/82 105/139/84 103/137/82
f 106/140/82 105/139/84 103/137/82
f 103/137/82 107/141/85 106/140/82
f 103/137/82 107/141/85 106/140/82
f 104/138/81 108/142/86 107/141/81
f 104/138/81 108/142/86 107/141/81
f 108/142/87 104/138/81 109/143/87
f 108/142/87 104/138/81 109/143/87
f 105/139/84 108/142/87 109/143/87
f 108/142/86 105/139/84 110/144/84
f 105/139/84 108/142/87 109/143/87
f 108/142/86 105/139/84 110/144/84
f 105/139/84 106/140/88 110/144/84
f 105/139/84 106/140/88 110/144/84
f 104/138/83 105/139/83 109/143/83
f 104/138/83 105/139/83 109/143/83
g boat-fishing-small.004_Mesh
v -0.090350 -0.124800 0.676000
v -0.070850 -0.124800 0.676000
v -0.090350 -0.144300 0.676000
v -0.100100 -0.115050 0.208000
v -0.061100 -0.115050 0.208000
v -0.061100 -0.154050 0.208000
v -0.070850 -0.144300 0.676000
v -0.100100 -0.154050 0.208000
vn 0.7068 0.7068 0.0295
vn -0.7068 0.7068 0.0295
vn -0.0000 -0.0000 1.0000
vn -0.7068 -0.7068 0.0295
vn 0.7068 0.7068 0.0294
vn 0.7068 -0.7068 0.0294
vn 0.7068 -0.7068 0.0295
vn -0.7068 0.7068 0.0294
vt 0.718750 0.225000
vt 0.718750 0.225000
vt 0.718750 0.225000
vt 0.718750 0.025000
vt 0.718750 0.025000
vt 0.718750 0.025000
vt 0.718750 0.225000
vt 0.718750 0.025000
s 0
f 115/149/89 111/145/90 112/146/89
f 113/147/91 112/146/91 111/145/91
f 115/149/89 111/145/90 112/146/89
f 113/147/91 112/146/91 111/145/91
f 114/148/90 113/147/92 111/145/90
f 114/148/90 113/147/92 111/145/90
f 111/145/90 115/149/93 114/148/90
f 111/145/90 115/149/93 114/148/90
f 112/146/89 116/150/94 115/149/89
f 112/146/89 116/150/94 115/149/89
f 116/150/95 112/146/89 117/151/95
f 116/150/95 112/146/89 117/151/95
f 113/147/92 116/150/95 117/151/95
f 116/150/94 113/147/92 118/152/92
f 113/147/92 116/150/95 117/151/95
f 116/150/94 113/147/92 118/152/92
f 113/147/92 114/148/96 118/152/92
f 113/147/92 114/148/96 118/152/92
f 112/146/91 113/147/91 117/151/91
f 112/146/91 113/147/91 117/151/91
g boat-fishing-small.005_Mesh
v 0.169439 -0.052000 0.455000
v 0.169439 -0.052000 0.442000
v 0.065439 -0.052000 0.468000
v 0.169439 0.052000 0.455000
v 0.169439 0.052000 0.442000
v 0.065439 0.052000 0.442000
v 0.065439 0.052000 0.468000
v 0.065439 -0.052000 0.442000
vn 1.0000 -0.0000 -0.0000
vn 0.7497 -0.0000 0.6618
vn -0.0000 -1.0000 -0.0000
vn 0.1240 -0.0000 0.9923
vn -0.0000 1.0000 -0.0000
vn -1.0000 -0.0000 -0.0000
vt 0.843750 0.375000
vt 0.843750 0.275000
vt 0.843750 0.475000
vt 0.843750 0.375000
vt 0.843750 0.275000
vt 0.843750 0.275000
vt 0.843750 0.475000
vt 0.843750 0.275000
s 0
f 120/154/97 122/156/98 119/153/98
f 121/155/99 120/154/99 119/153/99
f 120/154/97 122/156/98 119/153/98
f 121/155/99 120/154/99 119/153/99
f 122/156/98 121/155/100 119/153/98
f 122/156/98 121/155/100 119/153/98
f 121/155/100 122/156/98 125/159/100
f 121/155/100 122/156/98 125/159/100
f 124/158/101 122/156/101 123/157/101
f 122/156/98 120/154/97 123/157/97
f 124/158/101 122/156/101 123/157/101
f 122/156/98 120/154/97 123/157/97
f 122/156/101 124/158/101 125/159/101
f 122/156/101 124/158/101 125/159/101
f 124/158/102 121/155/102 125/159/102
f 124/158/102 121/155/102 125/159/102
f 121/155/102 124/158/102 126/160/102
f 121/155/102 124/158/102 126/160/102
f 120/154/99 121/155/99 126/160/99
f 120/154/99 121/155/99 126/160/99
g boat-fishing-small.006_Mesh
v -0.176097 0.232050 0.260000
v -0.202097 0.232050 0.286000
v -0.306097 0.232050 0.260000
v -0.202097 0.180050 0.286000
v -0.176097 0.180050 0.260000
v -0.306097 0.180050 0.260000
v -0.280097 0.232050 0.286000
v -0.280097 0.180050 0.286000
vn 0.3827 -0.0000 0.9239
vn 0.7071 -0.0000 0.7071
vn -0.0000 1.0000 -0.0000
vn -0.0000 -1.0000 -0.0000
vn -0.7071 -0.0000 0.7071
vn -0.3827 0.0002 0.9239
vn -0.3827 -0.0000 0.9239
vn 0.3827 0.0001 0.9239
vn -0.3827 -0.0001 0.9239
vt 0.843750 0.325000
vt 0.843750 0.425000
vt 0.843750 0.325000
vt 0.843750 0.425000
vt 0.843750 0.325000
vt 0.843750 0.325000
vt 0.843750 0.425000
vt 0.843750 0.425000
s 0
f 130/164/103 127/161/104 128/162/103
f 129/163/105 128/162/105 127/161/105
f 130/164/103 127/161/104 128/162/103
f 129/163/105 128/162/105 127/161/105
f 127/161/104 130/164/103 131/165/104
f 127/161/104 130/164/103 131/165/104
f 130/164/106 132/166/106 131/165/106
f 130/164/106 132/166/106 131/165/106
f 132/166/107 133/167/108 129/163/107
f 132/166/107 133/167/108 129/163/107
f 133/167/109 132/166/107 134/168/109
f 133/167/109 132/166/107 134/168/109
f 132/166/106 130/164/106 134/168/106
f 132/166/106 130/164/106 134/168/106
f 134/168/109 128/162/110 133/167/109
f 134/168/109 128/162/110 133/167/109
f 128/162/103 134/168/111 130/164/103
f 128/162/103 134/168/111 130/164/103
f 128/162/105 129/163/105 133/167/105
f 128/162/105 129/163/105 133/167/105
g boat-fishing-small.007_Mesh
v -0.176097 -0.180050 0.260000
v -0.202097 -0.180050 0.286000
v -0.306097 -0.180050 0.260000
v -0.202097 -0.232050 0.286000
v -0.176097 -0.232050 0.260000
v -0.306097 -0.232050 0.260000
v -0.280097 -0.180050 0.286000
v -0.280097 -0.232050 0.286000
vn 0.3827 -0.0000 0.9239
vn 0.7071 -0.0000 0.7071
vn -0.0000 1.0000 -0.0000
vn -0.0000 -1.0000 -0.0000
vn -0.7071 -0.0000 0.7071
vn -0.3827 -0.0000 0.9239
vn 0.3827 0.0001 0.9239
vn -0.3827 -0.0001 0.9239
vt 0.843750 0.325000
vt 0.843750 0.425000
vt 0.843750 0.325000
vt 0.843750 0.425000
vt 0.843750 0.325000
vt 0.843750 0.325000
vt 0.843750 0.425000
vt 0.843750 0.425000
s 0
f 138/172/112 135/169/113 136/170/112
f 137/171/114 136/170/114 135/169/114
f 138/172/112 135/169/113 136/170/112
f 137/171/114 136/170/114 135/169/114
f 135/169/113 138/172/112 139/173/113
f 135/169/113 138/172/112 139/173/113
f 138/172/115 140/174/115 139/173/115
f 138/172/115 140/174/115 139/173/115
f 140/174/116 141/175/117 137/171/116
f 140/174/116 141/175/117 137/171/116
f 141/175/117 140/174/116 142/176/117
f 141/175/117 140/174/116 142/176/117
f 140/174/115 138/172/115 142/176/115
f 140/174/115 138/172/115 142/176/115
f 142/176/117 136/170/118 141/175/117
f 142/176/117 136/170/118 141/175/117
f 136/170/112 142/176/119 138/172/112
f 136/170/112 142/176/119 138/172/112
f 136/170/114 137/171/114 141/175/114
f 136/170/114 137/171/114 141/175/114
