# Blender 3.3.1
# www.blender.org
mtllib antiair_canon.mtl
o Canon.002
v -0.298802 -0.228998 0.361959
v -0.298802 -0.031374 0.361959
v -0.361986 -0.195038 0.361959
v -0.328025 -0.228998 0.361959
v -0.361334 -0.201663 0.361959
v -0.359401 -0.208034 0.361959
v -0.356262 -0.213906 0.361959
v -0.352039 -0.219051 0.361959
v -0.346893 -0.223275 0.361959
v -0.341022 -0.226414 0.361959
v -0.334651 -0.228346 0.361959
v -0.328025 -0.031374 0.361959
v -0.361986 -0.065336 0.361959
v -0.334651 -0.032027 0.361959
v -0.341022 -0.033960 0.361959
v -0.346893 -0.037098 0.361959
v -0.352039 -0.041322 0.361959
v -0.356262 -0.046468 0.361959
v -0.359401 -0.052339 0.361959
v -0.361334 -0.058710 0.361959
v -0.298802 -0.225666 0.009539
v -0.298802 -0.228998 0.012871
v -0.298802 -0.228022 0.010514
v -0.298802 -0.034706 0.009539
v -0.298802 -0.031374 0.012871
v -0.298802 -0.032350 0.010514
v -0.327862 -0.225666 0.009539
v -0.328025 -0.228998 0.012871
v -0.327978 -0.228022 0.010514
v -0.358654 -0.194874 0.009539
v -0.361986 -0.195038 0.012871
v -0.361010 -0.194990 0.010514
v -0.333998 -0.225062 0.009539
v -0.334651 -0.228346 0.012871
v -0.334459 -0.227384 0.010514
v -0.339740 -0.223320 0.009539
v -0.341022 -0.226414 0.012871
v -0.340646 -0.225507 0.010514
v -0.345033 -0.220491 0.009539
v -0.346893 -0.223275 0.012871
v -0.346348 -0.222459 0.010514
v -0.349672 -0.216684 0.009539
v -0.352039 -0.219051 0.012871
v -0.351346 -0.218358 0.010514
v -0.353479 -0.212046 0.009539
v -0.356262 -0.213906 0.012871
v -0.355447 -0.213361 0.010514
v -0.356308 -0.206753 0.009539
v -0.359401 -0.208034 0.012871
v -0.358494 -0.207659 0.010514
v -0.358050 -0.201010 0.009539
v -0.361333 -0.201663 0.012871
v -0.360372 -0.201472 0.010514
v -0.358654 -0.065499 0.009539
v -0.361986 -0.065336 0.012871
v -0.361010 -0.065384 0.010514
v -0.327862 -0.034706 0.009539
v -0.328025 -0.031374 0.012871
v -0.327978 -0.032350 0.010514
v -0.358050 -0.059363 0.009539
v -0.361333 -0.058710 0.012871
v -0.360372 -0.058902 0.010514
v -0.356308 -0.053621 0.009539
v -0.359401 -0.052339 0.012871
v -0.358494 -0.052715 0.010514
v -0.353479 -0.048328 0.009539
v -0.356262 -0.046468 0.012871
v -0.355447 -0.047013 0.010514
v -0.349672 -0.043689 0.009539
v -0.352039 -0.041322 0.012871
v -0.351346 -0.042015 0.010514
v -0.345033 -0.039882 0.009539
v -0.346893 -0.037098 0.012871
v -0.346348 -0.037914 0.010514
v -0.339740 -0.037053 0.009539
v -0.341022 -0.033960 0.012871
v -0.340646 -0.034866 0.010514
v -0.333998 -0.035310 0.009539
v -0.334651 -0.032027 0.012871
v -0.334459 -0.032990 0.010514
v -0.370478 -0.172151 0.240681
v -0.370478 -0.161678 0.240681
v -0.298802 -0.172151 0.240681
v -0.298802 -0.172151 0.371541
v -0.298802 -0.161678 0.240681
v -0.298802 -0.161678 0.371541
v -0.360315 -0.172151 0.371541
v -0.370478 -0.172151 0.363840
v -0.370478 -0.161678 0.363840
v -0.360315 -0.161678 0.371541
v -0.370478 -0.088222 0.240681
v -0.370478 -0.098696 0.240681
v -0.298802 -0.088222 0.240681
v -0.298802 -0.088222 0.371541
v -0.298802 -0.098696 0.240681
v -0.298802 -0.098696 0.371541
v -0.360315 -0.088222 0.371541
v -0.370478 -0.088222 0.363840
v -0.370478 -0.098696 0.363840
v -0.360315 -0.098696 0.371541
v -0.365781 -0.161678 0.243266
v -0.365781 -0.161678 0.276245
v -0.365781 -0.098696 0.243266
v -0.365781 -0.098696 0.276244
v -0.361986 -0.161678 0.243266
v -0.361986 -0.161678 0.276245
v -0.361986 -0.098696 0.243266
v -0.361986 -0.098696 0.276244
v -0.298802 0.228998 0.361959
v -0.298802 0.031374 0.361959
v -0.361986 0.195038 0.361959
v -0.328025 0.228998 0.361959
v -0.361334 0.201663 0.361959
v -0.359401 0.208034 0.361959
v -0.356262 0.213906 0.361959
v -0.352039 0.219051 0.361959
v -0.346893 0.223275 0.361959
v -0.341022 0.226414 0.361959
v -0.334651 0.228346 0.361959
v -0.328025 0.031374 0.361959
v -0.361986 0.065336 0.361959
v -0.334651 0.032027 0.361959
v -0.341022 0.033960 0.361959
v -0.346893 0.037098 0.361959
v -0.352039 0.041322 0.361959
v -0.356262 0.046468 0.361959
v -0.359401 0.052339 0.361959
v -0.361334 0.058710 0.361959
v -0.298802 0.225666 0.009539
v -0.298802 0.228998 0.012871
v -0.298802 0.228022 0.010514
v -0.298802 0.034706 0.009539
v -0.298802 0.031374 0.012871
v -0.298802 0.032350 0.010514
v -0.327862 0.225666 0.009539
v -0.328025 0.228998 0.012871
v -0.327978 0.228022 0.010514
v -0.358654 0.194874 0.009539
v -0.361986 0.195038 0.012871
v -0.361010 0.194990 0.010514
v -0.333998 0.225062 0.009539
v -0.334651 0.228346 0.012871
v -0.334459 0.227384 0.010514
v -0.339740 0.223320 0.009539
v -0.341022 0.226414 0.012871
v -0.340646 0.225507 0.010514
v -0.345033 0.220491 0.009539
v -0.346893 0.223275 0.012871
v -0.346348 0.222459 0.010514
v -0.349672 0.216684 0.009539
v -0.352039 0.219051 0.012871
v -0.351346 0.218358 0.010514
v -0.353479 0.212046 0.009539
v -0.356262 0.213906 0.012871
v -0.355447 0.213361 0.010514
v -0.356308 0.206753 0.009539
v -0.359401 0.208034 0.012871
v -0.358494 0.207659 0.010514
v -0.358050 0.201010 0.009539
v -0.361333 0.201663 0.012871
v -0.360372 0.201472 0.010514
v -0.358654 0.065499 0.009539
v -0.361986 0.065336 0.012871
v -0.361010 0.065384 0.010514
v -0.327862 0.034706 0.009539
v -0.328025 0.031374 0.012871
v -0.327978 0.032350 0.010514
v -0.358050 0.059363 0.009539
v -0.361333 0.058710 0.012871
v -0.360372 0.058901 0.010514
v -0.356308 0.053621 0.009539
v -0.359401 0.052339 0.012871
v -0.358494 0.052715 0.010514
v -0.353479 0.048328 0.009539
v -0.356262 0.046468 0.012871
v -0.355447 0.047013 0.010514
v -0.349672 0.043689 0.009539
v -0.352039 0.041322 0.012871
v -0.351346 0.042015 0.010514
v -0.345033 0.039882 0.009539
v -0.346893 0.037098 0.012871
v -0.346348 0.037914 0.010514
v -0.339740 0.037053 0.009539
v -0.341022 0.033960 0.012871
v -0.340646 0.034866 0.010514
v -0.333998 0.035310 0.009539
v -0.334651 0.032027 0.012871
v -0.334459 0.032989 0.010514
v -0.370478 0.172151 0.240681
v -0.370478 0.161678 0.240681
v -0.298802 0.172151 0.240681
v -0.298802 0.172151 0.371541
v -0.298802 0.161678 0.240681
v -0.298802 0.161678 0.371541
v -0.360315 0.172151 0.371541
v -0.370479 0.172151 0.363840
v -0.370479 0.161678 0.363840
v -0.360315 0.161678 0.371541
v -0.370478 0.088222 0.240681
v -0.370478 0.098696 0.240681
v -0.298802 0.088222 0.240681
v -0.298802 0.088222 0.371541
v -0.298802 0.098696 0.240681
v -0.298802 0.098696 0.371541
v -0.360315 0.088222 0.371541
v -0.370479 0.088222 0.363840
v -0.370479 0.098696 0.363840
v -0.360315 0.098696 0.371541
v -0.365781 0.161678 0.243266
v -0.365781 0.161678 0.276244
v -0.365781 0.098696 0.243266
v -0.365781 0.098696 0.276244
v -0.361986 0.161678 0.243266
v -0.361986 0.161678 0.276244
v -0.361986 0.098696 0.243266
v -0.361986 0.098696 0.276244
v -0.330642 -0.181515 0.365589
v -0.338131 -0.183522 0.365589
v -0.343614 -0.189004 0.365589
v -0.345620 -0.196493 0.365589
v -0.343614 -0.203982 0.365589
v -0.338131 -0.209464 0.365589
v -0.330642 -0.211470 0.365589
v -0.323154 -0.209464 0.365589
v -0.317671 -0.203982 0.365589
v -0.315665 -0.196493 0.365589
v -0.317671 -0.189004 0.365589
v -0.323154 -0.183522 0.365589
v -0.330642 -0.181515 0.363576
v -0.338131 -0.183522 0.363576
v -0.343614 -0.189004 0.363576
v -0.345620 -0.196493 0.363576
v -0.343614 -0.203982 0.363576
v -0.338131 -0.209464 0.363576
v -0.330642 -0.211470 0.363576
v -0.323154 -0.209464 0.363576
v -0.317671 -0.203982 0.363576
v -0.315664 -0.196493 0.363576
v -0.317671 -0.189004 0.363576
v -0.323154 -0.183522 0.363576
v -0.330642 -0.184421 0.365589
v -0.336678 -0.186038 0.365589
v -0.341097 -0.190457 0.365589
v -0.342714 -0.196493 0.365589
v -0.341097 -0.202529 0.365589
v -0.336678 -0.206947 0.365589
v -0.330642 -0.208565 0.365589
v -0.324607 -0.206947 0.365589
v -0.320188 -0.202529 0.365589
v -0.318571 -0.196493 0.365589
v -0.320188 -0.190457 0.365589
v -0.324607 -0.186038 0.365589
v -0.330642 -0.184421 0.366827
v -0.336678 -0.186038 0.366827
v -0.341097 -0.190457 0.366827
v -0.342714 -0.196493 0.366827
v -0.341097 -0.202529 0.366827
v -0.336678 -0.206947 0.366827
v -0.330642 -0.208565 0.366827
v -0.324607 -0.206947 0.366827
v -0.320188 -0.202529 0.366827
v -0.318571 -0.196493 0.366827
v -0.320188 -0.190457 0.366827
v -0.324607 -0.186038 0.366827
v -0.330642 -0.194086 0.366827
v -0.331846 -0.194408 0.366827
v -0.332727 -0.195290 0.366827
v -0.333049 -0.196493 0.366827
v -0.332727 -0.197697 0.366827
v -0.331846 -0.198578 0.366827
v -0.330642 -0.198900 0.366827
v -0.329439 -0.198578 0.366827
v -0.328558 -0.197697 0.366827
v -0.328235 -0.196493 0.366827
v -0.328558 -0.195289 0.366827
v -0.329439 -0.194408 0.366827
v -0.330642 -0.194086 0.746344
v -0.331846 -0.194408 0.746344
v -0.332727 -0.195290 0.746344
v -0.333049 -0.196493 0.746344
v -0.332727 -0.197697 0.746344
v -0.331846 -0.198578 0.746344
v -0.330642 -0.198900 0.746344
v -0.329439 -0.198578 0.746344
v -0.328558 -0.197697 0.746344
v -0.328235 -0.196493 0.746344
v -0.328558 -0.195290 0.746344
v -0.329439 -0.194408 0.746344
v -0.348293 -0.214142 0.361959
v -0.348293 -0.214142 0.363576
v -0.348293 -0.178842 0.361959
v -0.348293 -0.178842 0.363576
v -0.312992 -0.214142 0.361959
v -0.312992 -0.214142 0.363576
v -0.312992 -0.178842 0.361959
v -0.312992 -0.178842 0.363576
v -0.298802 -0.298802 0.000000
v 0.298802 -0.298802 0.000000
v -0.298802 0.298802 0.000000
v 0.298802 0.298802 0.000000
v 0.298802 -0.298802 0.017503
v 0.298802 0.298802 0.017502
v 0.271243 -0.298802 0.000000
v 0.271243 0.298802 0.000000
v 0.271243 -0.298802 0.017503
v 0.271242 0.298802 0.017502
v -0.278542 -0.298802 0.402466
v -0.298802 -0.298802 0.391918
v -0.298802 0.298802 0.391918
v -0.278542 0.298802 0.402466
v 0.468505 0.098799 0.834066
v 0.393284 -0.076165 0.886738
v 0.366119 0.015075 0.905758
v 0.428610 -0.098798 0.862002
v 0.409822 0.090101 0.875158
v 0.526494 -0.036083 0.793462
v 0.487294 0.090101 0.820911
v 0.409822 -0.090100 0.875158
v 0.517155 -0.057803 0.800002
v 0.379958 0.057804 0.896068
v 0.370621 0.036083 0.902606
v 0.487293 -0.090100 0.820911
v 0.526494 0.036083 0.793462
v 0.468506 -0.098798 0.834067
v 0.503831 -0.076165 0.809331
v 0.379958 -0.057803 0.896068
v 0.366119 -0.015075 0.905758
v 0.428610 0.098799 0.862002
v 0.517155 0.057804 0.800002
v 0.503831 0.076166 0.809331
v 0.370621 -0.036083 0.902606
v 0.393283 0.076166 0.886738
v 0.530995 -0.015075 0.790311
v 0.460987 -0.128024 0.839330
v 0.530995 0.015075 0.790311
v 0.460987 -0.099913 0.839330
v 0.436166 -0.099918 0.856710
v 0.460970 0.099916 0.839343
v 0.436102 0.099910 0.856757
v 0.436166 -0.128032 0.856710
v 0.460970 0.128029 0.839343
v 0.436102 0.128021 0.856757
v 0.343802 0.015075 0.921385
v 0.343802 -0.015075 0.921385
v 0.553312 -0.015075 0.774685
v 0.553312 0.015075 0.774685
v 0.077270 0.098798 0.275326
v 0.002049 -0.076165 0.327996
v -0.025116 0.015075 0.347016
v 0.037374 -0.098798 0.303261
v 0.018586 0.090100 0.316417
v 0.135259 -0.036083 0.234722
v 0.096058 0.090101 0.262170
v 0.018586 -0.090101 0.316417
v 0.125921 -0.057803 0.241259
v -0.011276 0.057804 0.337326
v -0.020614 0.036083 0.343865
v 0.096059 -0.090101 0.262170
v 0.135259 0.036083 0.234722
v 0.077270 -0.098798 0.275326
v 0.112596 -0.076165 0.250590
v -0.011276 -0.057804 0.337326
v -0.025116 -0.015075 0.347016
v 0.037374 0.098798 0.303261
v 0.125921 0.057803 0.241259
v 0.112596 0.076165 0.250590
v -0.020614 -0.036083 0.343865
v 0.002049 0.076165 0.327996
v 0.139760 -0.015075 0.231570
v 0.069752 -0.128024 0.280590
v 0.139760 0.015075 0.231570
v 0.069752 -0.099913 0.280590
v 0.044931 -0.099918 0.297970
v 0.069735 0.099915 0.280602
v 0.044866 0.099909 0.298014
v 0.044931 -0.128032 0.297970
v 0.069735 0.128029 0.280602
v 0.044866 0.128021 0.298014
v -0.047433 0.015075 0.362642
v -0.047433 -0.015075 0.362642
v 0.162077 -0.015075 0.215943
v 0.162077 0.015075 0.215943
v 0.609674 -0.232103 0.735220
v 0.638686 -0.196685 0.714906
v 0.638686 0.196687 0.714905
v 0.609674 0.232104 0.735220
v 0.258429 -0.196686 0.981163
v 0.287441 -0.232103 0.960850
v 0.287441 0.232104 0.960850
v 0.258429 0.196686 0.981163
v -0.105801 -0.232104 0.399240
v -0.134814 -0.196686 0.419555
v -0.134814 0.196686 0.419555
v -0.105801 0.232104 0.399240
v 0.245443 -0.196686 0.153297
v 0.216430 -0.232104 0.173611
v 0.216430 0.232104 0.173611
v 0.245443 0.196686 0.153297
v 0.609112 -0.034878 0.735613
v 0.609112 0.034878 0.735613
v 0.616292 -0.043642 0.730585
v 0.616292 0.043644 0.730585
v 0.412806 0.204767 0.873068
v 0.419987 0.196002 0.868039
v 0.477126 0.196002 0.828030
v 0.484307 0.204767 0.823002
v -0.112421 -0.043643 0.403875
v -0.105240 -0.034878 0.398847
v -0.112421 0.043643 0.403875
v 0.026745 0.196002 0.306430
v -0.105240 0.034878 0.398847
v 0.019564 0.204766 0.311458
v 0.091065 0.204766 0.261394
v 0.083885 0.196002 0.266421
v 0.026745 -0.196002 0.306430
v 0.019564 -0.204767 0.311458
v 0.091065 -0.204767 0.261394
v 0.083885 -0.196002 0.266421
v 0.223050 -0.043643 0.168976
v 0.223050 0.043643 0.168976
v 0.215870 -0.034878 0.174004
v 0.215870 0.034878 0.174004
v 0.412807 -0.204767 0.873068
v 0.419988 -0.196001 0.868039
v 0.477127 -0.196001 0.828030
v 0.484308 -0.204767 0.823002
v 0.280822 -0.043642 0.965484
v 0.280822 0.043643 0.965484
v 0.288002 0.034878 0.960457
v 0.288002 -0.034878 0.960457
v 0.638686 -0.045169 0.714906
v 0.637435 -0.043642 0.715781
v 0.638319 -0.044090 0.715162
v 0.637435 0.043644 0.715781
v 0.638686 0.045170 0.714906
v 0.638319 0.044091 0.715162
v 0.411557 -0.232103 0.873942
v 0.412807 -0.230577 0.873068
v 0.412441 -0.231656 0.873324
v 0.484308 -0.230577 0.823002
v 0.485558 -0.232103 0.822127
v 0.484674 -0.231656 0.822746
v 0.092315 -0.232104 0.260518
v 0.091065 -0.230578 0.261394
v 0.091432 -0.231656 0.261137
v 0.019564 -0.230578 0.311458
v 0.018314 -0.232104 0.312334
v 0.019198 -0.231656 0.311715
v 0.412806 0.230578 0.873068
v 0.411557 0.232104 0.873942
v 0.412441 0.231657 0.873324
v 0.485558 0.232104 0.822127
v 0.484307 0.230578 0.823002
v 0.484674 0.231657 0.822746
v -0.134814 -0.045170 0.419555
v -0.133563 -0.043643 0.418680
v -0.134447 -0.044090 0.419298
v -0.133563 0.043643 0.418680
v -0.134814 0.045170 0.419555
v -0.134447 0.044090 0.419298
v 0.018314 0.232104 0.312334
v 0.019564 0.230578 0.311458
v 0.019198 0.231656 0.311715
v 0.091065 0.230578 0.261394
v 0.092315 0.232104 0.260518
v 0.091431 0.231656 0.261137
v 0.244193 -0.043643 0.154172
v 0.245443 -0.045170 0.153297
v 0.245077 -0.044090 0.153554
v 0.245443 0.045170 0.153297
v 0.244193 0.043643 0.154172
v 0.245077 0.044090 0.153554
v 0.258429 0.045170 0.981163
v 0.259679 0.043643 0.980289
v 0.258795 0.044090 0.980907
v 0.259679 -0.043643 0.980288
v 0.258429 -0.045169 0.981163
v 0.258795 -0.044090 0.980907
v -0.162478 -0.250114 0.321198
v -0.204881 -0.198350 0.350887
v -0.170751 -0.249118 0.326990
v -0.178706 -0.246173 0.332559
v -0.186036 -0.241390 0.337692
v -0.192462 -0.234952 0.342191
v -0.197734 -0.227108 0.345883
v -0.201653 -0.218159 0.348627
v -0.204066 -0.208449 0.350317
v -0.149566 -0.198350 0.429885
v -0.107164 -0.250114 0.400195
v -0.148751 -0.208449 0.429314
v -0.146338 -0.218159 0.427624
v -0.142420 -0.227108 0.424882
v -0.137147 -0.234952 0.421189
v -0.130722 -0.241390 0.416690
v -0.123391 -0.246173 0.411557
v -0.115436 -0.249118 0.405987
v -0.204881 0.198350 0.350887
v -0.162479 0.250113 0.321198
v -0.204066 0.208449 0.350317
v -0.201654 0.218158 0.348627
v -0.197734 0.227108 0.345883
v -0.192462 0.234952 0.342191
v -0.186036 0.241390 0.337692
v -0.178706 0.246173 0.332559
v -0.170751 0.249118 0.326990
v -0.107164 0.250113 0.400195
v -0.149566 0.198350 0.429885
v -0.115436 0.249118 0.405987
v -0.123391 0.246173 0.411557
v -0.130722 0.241390 0.416690
v -0.137147 0.234952 0.421189
v -0.142420 0.227108 0.424882
v -0.146338 0.218158 0.427625
v -0.148751 0.208449 0.429314
v 0.204881 -0.198350 0.063970
v 0.162479 -0.250113 0.093659
v 0.204066 -0.208449 0.064539
v 0.201653 -0.218159 0.066230
v 0.197734 -0.227108 0.068973
v 0.192462 -0.234952 0.072665
v 0.186036 -0.241390 0.077164
v 0.178706 -0.246173 0.082297
v 0.170751 -0.249118 0.087867
v 0.217794 -0.250113 0.172657
v 0.260195 -0.198350 0.142967
v 0.226066 -0.249118 0.166865
v 0.234021 -0.246173 0.161295
v 0.241351 -0.241390 0.156162
v 0.247776 -0.234952 0.151663
v 0.253050 -0.227108 0.147970
v 0.256968 -0.218159 0.145227
v 0.259381 -0.208449 0.143538
v 0.162479 0.250113 0.093659
v 0.204881 0.198350 0.063970
v 0.170751 0.249118 0.087867
v 0.178706 0.246173 0.082297
v 0.186036 0.241390 0.077164
v 0.192462 0.234952 0.072665
v 0.197734 0.227108 0.068973
v 0.201653 0.218159 0.066229
v 0.204066 0.208449 0.064539
v 0.260195 0.198350 0.142967
v 0.217794 0.250113 0.172657
v 0.259381 0.208449 0.143538
v 0.256968 0.218159 0.145227
v 0.253050 0.227108 0.147970
v 0.247776 0.234952 0.151662
v 0.241351 0.241390 0.156162
v 0.234021 0.246173 0.161294
v 0.226066 0.249118 0.166865
v 0.468505 0.098799 0.834066
v 0.393284 -0.076165 0.886738
v 0.366119 0.015075 0.905758
v 0.428610 -0.098798 0.862002
v 0.409822 0.090101 0.875158
v 0.526494 -0.036083 0.793462
v 0.487294 0.090101 0.820911
v 0.409822 -0.090100 0.875158
v 0.517155 -0.057803 0.800002
v 0.379958 0.057804 0.896068
v 0.370621 0.036083 0.902606
v 0.487293 -0.090100 0.820911
v 0.526494 0.036083 0.793462
v 0.468506 -0.098798 0.834067
v 0.503831 -0.076165 0.809331
v 0.379958 -0.057803 0.896068
v 0.366119 -0.015075 0.905758
v 0.428610 0.098799 0.862002
v 0.517155 0.057804 0.800002
v 0.503831 0.076166 0.809331
v 0.370621 -0.036083 0.902606
v 0.393283 0.076166 0.886738
v 0.530995 -0.015075 0.790311
v 0.460987 -0.128024 0.839330
v 0.530995 0.015075 0.790311
v 0.460987 -0.099913 0.839330
v 0.436166 -0.099918 0.856710
v 0.460970 0.099916 0.839343
v 0.436102 0.099910 0.856757
v 0.436166 -0.128032 0.856710
v 0.460970 0.128029 0.839343
v 0.436102 0.128021 0.856757
v 0.343802 0.015075 0.921385
v 0.343802 -0.015075 0.921385
v 0.553312 -0.015075 0.774685
v 0.553312 0.015075 0.774685
v 0.468678 0.109048 0.833946
v 0.387574 -0.084032 0.890735
v 0.359231 0.024562 0.910582
v 0.428437 -0.109047 0.862123
v 0.405820 0.099407 0.877960
v 0.534544 -0.039810 0.787826
v 0.491294 0.099407 0.818110
v 0.405820 -0.099406 0.877960
v 0.524241 -0.063774 0.795040
v 0.372874 0.063774 0.901030
v 0.362570 0.039810 0.908243
v 0.491294 -0.099406 0.818110
v 0.534544 0.039810 0.787826
v 0.468678 -0.109047 0.833946
v 0.509540 -0.084032 0.805334
v 0.372874 -0.063774 0.901030
v 0.359231 -0.024562 0.910582
v 0.428437 0.109048 0.862123
v 0.524241 0.063774 0.795040
v 0.509540 0.084032 0.805334
v 0.362570 -0.039810 0.908243
v 0.387574 0.084032 0.890735
v 0.537883 -0.024562 0.785487
v 0.528800 -0.036083 0.796756
v 0.537883 0.024562 0.785487
v 0.412126 0.090101 0.878451
v 0.430915 -0.098798 0.865295
v 0.489599 -0.090100 0.824204
v 0.372926 0.036083 0.905900
v 0.368426 0.015075 0.909051
v 0.382265 0.057804 0.899361
v 0.519462 -0.057803 0.803295
v 0.335050 0.024562 0.927514
v 0.335050 -0.024562 0.927514
v 0.562065 -0.024562 0.768556
v 0.562065 0.024562 0.768556
v 0.412127 -0.090100 0.878451
v 0.489599 0.090101 0.824204
v 0.470810 0.098799 0.837360
v 0.395590 -0.076165 0.890031
v 0.468678 0.138568 0.833946
v 0.428437 0.138568 0.862123
v 0.428437 -0.138567 0.862123
v 0.468678 -0.138567 0.833946
v 0.528800 0.036083 0.796756
v 0.470811 -0.098798 0.837360
v 0.506137 -0.076165 0.812625
v 0.382265 -0.057803 0.899361
v 0.368426 -0.015075 0.909051
v 0.430915 0.098799 0.865295
v 0.519462 0.057804 0.803294
v 0.506137 0.076166 0.812625
v 0.372926 -0.036083 0.905900
v 0.395590 0.076166 0.890031
v 0.533301 -0.015075 0.793604
v 0.463294 -0.128024 0.842624
v 0.533301 0.015075 0.793604
v 0.463294 -0.099913 0.842624
v 0.438472 -0.099918 0.860004
v 0.463276 0.099916 0.842636
v 0.438407 0.099910 0.860050
v 0.438472 -0.128032 0.860004
v 0.463276 0.128029 0.842636
v 0.438407 0.128021 0.860050
v 0.346109 0.015075 0.924678
v 0.346109 -0.015075 0.924678
v 0.555618 -0.015075 0.777978
v 0.555618 0.015075 0.777978
v 0.470983 0.109048 0.837239
v 0.389881 -0.084032 0.894028
v 0.361536 0.024562 0.913874
v 0.430742 -0.109047 0.865416
v 0.408126 0.099407 0.881253
v 0.536850 -0.039810 0.791119
v 0.493601 0.099407 0.821403
v 0.408126 -0.099406 0.881253
v 0.526547 -0.063774 0.798334
v 0.375179 0.063774 0.904322
v 0.364877 0.039810 0.911536
v 0.493601 -0.099406 0.821403
v 0.536850 0.039810 0.791119
v 0.470983 -0.109047 0.837239
v 0.511846 -0.084032 0.808627
v 0.375179 -0.063774 0.904322
v 0.361536 -0.024562 0.913874
v 0.430742 0.109048 0.865416
v 0.526547 0.063774 0.798334
v 0.511846 0.084032 0.808627
v 0.364877 -0.039810 0.911536
v 0.389881 0.084032 0.894028
v 0.540190 -0.024562 0.788781
v 0.540190 0.024562 0.788781
v 0.337355 0.024562 0.930806
v 0.337355 -0.024562 0.930806
v 0.564371 -0.024562 0.771849
v 0.564371 0.024562 0.771849
v 0.470983 0.138568 0.837240
v 0.430742 0.138568 0.865416
v 0.430742 -0.138567 0.865416
v 0.470983 -0.138567 0.837239
vn -0.0000 1.0000 -0.0000
vn -0.0000 -1.0000 -0.0000
vn -0.0000 -0.0000 1.0000
vn -0.2903 -0.9569 -0.0000
vn -0.0979 -0.9952 -0.0000
vn -0.9952 -0.0981 -0.0000
vn -0.4714 -0.8819 -0.0000
vn -0.6344 -0.7730 -0.0000
vn -0.7730 -0.6344 -0.0000
vn -0.8819 -0.4714 -0.0000
vn -0.9570 -0.2902 -0.0000
vn -0.9952 0.0981 -0.0000
vn -1.0000 -0.0000 -0.0000
vn -0.9569 0.2903 -0.0000
vn -0.2898 0.9571 -0.0000
vn -0.4714 0.8819 -0.0000
vn -0.6344 0.7730 -0.0000
vn -0.7730 0.6344 -0.0000
vn -0.8819 0.4714 -0.0000
vn -0.0980 0.9952 -0.0000
vn -0.0375 -0.3807 -0.9240
vn -0.0905 -0.9194 -0.3828
vn -0.1110 -0.3660 -0.9240
vn -0.2682 -0.8841 -0.3827
vn -0.1803 -0.3373 -0.9240
vn -0.4355 -0.8147 -0.3828
vn -0.2426 -0.2957 -0.9240
vn -0.5861 -0.7143 -0.3824
vn -0.2957 -0.2427 -0.9240
vn -0.7142 -0.5862 -0.3825
vn -0.3374 -0.1803 -0.9239
vn -0.8147 -0.4355 -0.3829
vn -0.3659 -0.1110 -0.9240
vn -0.8843 -0.2682 -0.3823
vn -0.8841 -0.2682 -0.3828
vn -0.3807 -0.0375 -0.9239
vn -0.9195 -0.0904 -0.3826
vn -0.9193 -0.0904 -0.3830
vn -0.0376 0.3809 -0.9239
vn -0.0907 0.9195 -0.3826
vn -0.1111 0.3661 -0.9239
vn -0.2682 0.8840 -0.3828
vn -0.1803 0.3377 -0.9238
vn -0.4356 0.8149 -0.3825
vn -0.2426 0.2956 -0.9240
vn -0.5861 0.7142 -0.3825
vn -0.2957 0.2427 -0.9239
vn -0.7142 0.5861 -0.3827
vn -0.3374 0.1803 -0.9240
vn -0.8148 0.4356 -0.3825
vn -0.3661 0.1110 -0.9239
vn -0.8841 0.2681 -0.3828
vn -0.3806 0.0374 -0.9240
vn -0.9194 0.0903 -0.3829
vn -0.9194 0.0909 -0.3827
vn -0.9193 0.0904 -0.3831
vn -0.9239 -0.0000 -0.3826
vn -0.3826 -0.0000 -0.9239
vn -0.0000 0.9239 -0.3826
vn -0.0000 0.3825 -0.9240
vn -0.0000 -0.9239 -0.3826
vn -0.0000 -0.3825 -0.9240
vn -0.0000 -0.0000 -1.0000
vn -0.6039 -0.0000 0.7970
vn 1.0000 -0.0000 -0.0000
vn 0.6039 -0.0000 -0.7970
vn -0.2902 0.9570 -0.0000
vn -0.9570 0.2902 -0.0000
vn -0.9569 -0.2903 -0.0000
vn -0.2898 -0.9571 -0.0000
vn -0.0980 -0.9952 -0.0000
vn -0.0375 0.3806 -0.9240
vn -0.0906 0.9195 -0.3826
vn -0.1111 0.3660 -0.9240
vn -0.2682 0.8841 -0.3827
vn -0.1803 0.3373 -0.9240
vn -0.4355 0.8149 -0.3825
vn -0.2427 0.2957 -0.9240
vn -0.5861 0.7143 -0.3825
vn -0.2957 0.2427 -0.9240
vn -0.7142 0.5862 -0.3825
vn -0.3374 0.1803 -0.9239
vn -0.8149 0.4355 -0.3825
vn -0.3659 0.1110 -0.9240
vn -0.8841 0.2683 -0.3826
vn -0.3807 0.0375 -0.9239
vn -0.9195 0.0904 -0.3826
vn -0.0375 -0.3806 -0.9240
vn -0.0906 -0.9195 -0.3826
vn -0.1111 -0.3660 -0.9240
vn -0.2682 -0.8842 -0.3825
vn -0.4356 -0.8148 -0.3825
vn -0.2427 -0.2957 -0.9240
vn -0.5861 -0.7142 -0.3827
vn -0.2957 -0.2427 -0.9239
vn -0.8148 -0.4354 -0.3828
vn -0.3661 -0.1110 -0.9239
vn -0.8840 -0.2683 -0.3828
vn 0.0002 0.3828 -0.9238
vn -0.0000 0.3829 -0.9238
vn -0.0000 0.3830 -0.9238
vn -0.6039 -0.0000 0.7971
vn 0.6039 -0.0000 -0.7971
vn -0.7071 -0.7071 -0.0000
vn 0.2588 0.9659 -0.0000
vn -0.7071 0.7071 -0.0000
vn 0.9659 -0.2589 0.0004
vn -0.2588 -0.9659 -0.0000
vn -0.9659 0.2588 -0.0000
vn 0.9659 0.2588 -0.0000
vn 0.2588 -0.9659 -0.0000
vn -0.9659 -0.2588 -0.0000
vn 0.7071 0.7071 -0.0000
vn -0.2588 0.9659 -0.0000
vn 0.7071 -0.7071 -0.0000
vn -0.9659 0.2587 -0.0000
vn 0.9659 0.2587 -0.0000
vn 0.2589 -0.9659 -0.0000
vn -0.9659 -0.2587 -0.0000
vn 0.7070 0.7072 -0.0000
vn -0.2589 0.9659 -0.0000
vn 0.7070 -0.7072 -0.0000
vn -0.7070 -0.7072 -0.0000
vn 0.2589 0.9659 -0.0000
vn -0.7070 0.7072 -0.0000
vn 0.9659 -0.2587 -0.0000
vn -0.2589 -0.9659 -0.0000
vn -0.9661 0.2582 -0.0000
vn 0.9660 0.2587 -0.0000
vn -0.9660 -0.2584 -0.0000
vn 0.7068 0.7075 -0.0000
vn 0.7068 -0.7074 -0.0000
vn -0.7068 -0.7074 -0.0000
vn 0.9660 -0.2586 -0.0000
vn -0.4618 -0.0000 0.8870
vn 0.5736 -0.0000 0.8192
vn -0.6132 -0.6631 0.4293
vn 0.8192 -0.0000 -0.5736
vn 0.5736 -0.0000 0.8191
vn -0.8192 -0.0000 0.5736
vn -0.6132 0.6631 0.4293
vn -0.7925 -0.2531 0.5549
vn 0.5738 0.0002 0.8190
vn 0.0987 -0.9927 -0.0691
vn -0.2905 0.9350 0.2034
vn 0.2905 -0.9350 -0.2034
vn -0.0987 -0.9927 0.0691
vn 0.4654 0.8230 -0.3258
vn 0.6131 0.6631 -0.4293
vn 0.0002 -1.0000 -0.0002
vn 0.7925 -0.2531 -0.5549
vn 0.0987 0.9927 -0.0691
vn 0.7925 0.2531 -0.5549
vn 0.4653 -0.8230 -0.3258
vn 0.7253 0.4647 -0.5079
vn -0.2905 -0.9350 0.2034
vn 0.2905 0.9350 -0.2034
vn -0.7253 0.4647 0.5079
vn -0.4653 0.8230 0.3258
vn 0.7253 -0.4647 -0.5079
vn -0.4653 -0.8230 0.3258
vn -0.7925 0.2531 0.5549
vn -0.0987 0.9927 0.0691
vn 0.6131 -0.6631 -0.4293
vn -0.7253 -0.4647 0.5079
vn -0.0002 1.0000 0.0002
vn 0.5792 0.7071 -0.4056
vn 0.5792 -0.7071 -0.4056
vn -0.5792 0.7071 0.4056
vn -0.5792 -0.7071 0.4056
vn 0.5792 0.7072 -0.4056
vn 0.7570 0.3822 -0.5300
vn 0.3137 0.9238 -0.2196
vn 0.3134 -0.9239 -0.2194
vn 0.7568 -0.3826 -0.5299
vn -0.3137 -0.9238 0.2196
vn -0.7567 -0.3830 0.5298
vn 0.3137 -0.9238 -0.2196
vn -0.3137 0.9238 0.2197
vn -0.7568 0.3826 0.5299
vn 0.7567 0.3828 -0.5299
vn 0.3140 0.9236 -0.2199
vn -0.7567 0.3830 0.5298
vn -0.3134 0.9239 0.2195
vn -0.7568 -0.3828 0.5299
vn -0.3135 -0.9239 0.2195
vn -0.8191 -0.0000 0.5736
vn -0.0803 -0.9952 0.0563
vn -0.2378 -0.9569 0.1665
vn -0.3861 -0.8819 0.2704
vn -0.5197 -0.7730 0.3639
vn -0.6332 -0.6344 0.4434
vn -0.7224 -0.4714 0.5058
vn -0.7839 -0.2903 0.5489
vn -0.8152 -0.0980 0.5708
vn -0.0803 0.9952 0.0562
vn -0.2378 0.9569 0.1665
vn -0.3861 0.8819 0.2704
vn -0.5197 0.7730 0.3639
vn -0.6332 0.6344 0.4434
vn -0.7224 0.4714 0.5059
vn -0.7839 0.2903 0.5489
vn -0.8152 0.0980 0.5708
vn 0.8152 0.0980 -0.5708
vn 0.7839 0.2903 -0.5489
vn 0.7224 0.4714 -0.5058
vn 0.6332 0.6344 -0.4434
vn 0.5197 0.7730 -0.3639
vn 0.3861 0.8819 -0.2704
vn 0.2378 0.9570 -0.1665
vn 0.0803 0.9952 -0.0562
vn 0.0803 -0.9952 -0.0562
vn 0.2378 -0.9569 -0.1665
vn 0.3861 -0.8819 -0.2704
vn 0.5197 -0.7730 -0.3639
vn 0.6332 -0.6344 -0.4434
vn 0.7224 -0.4714 -0.5059
vn 0.7839 -0.2903 -0.5489
vn 0.8152 -0.0980 -0.5708
vn -0.5736 0.0001 -0.8192
vn -0.5736 -0.0000 -0.8191
vn -0.5736 -0.0000 -0.8192
vn -0.5735 -0.0000 -0.8192
vn 0.5735 -0.0000 0.8192
vn -0.5735 -0.0001 -0.8192
vn -0.5735 0.0001 -0.8192
vn -0.5736 0.0001 -0.8191
vn -0.5736 -0.0001 -0.8191
vn -0.5736 -0.0001 -0.8192
vn 0.5736 0.0001 0.8191
vn 0.5736 -0.0001 0.8191
vn 0.5735 0.0001 0.8192
vn 0.5736 -0.0001 0.8192
vn 0.5736 0.0001 0.8192
vn 0.5735 -0.0001 0.8192
vn 0.7913 0.2583 -0.5541
vn -0.7252 -0.4647 0.5080
vn -0.7253 0.4648 0.5079
vn 0.7254 -0.4647 -0.5078
vn -0.2904 0.9350 0.2034
vn -0.4654 0.8230 0.3258
vn 0.6132 0.6631 -0.4292
vn 0.8191 -0.0000 -0.5737
vn 0.7252 0.4648 -0.5080
vn -0.2700 0.9441 0.1891
vn 0.6133 -0.6632 -0.4290
vn -0.7925 0.2530 0.5549
vn -0.2905 -0.9350 0.2033
vn -0.2701 -0.9441 0.1891
vn 0.7927 -0.2532 -0.5546
vn -0.6132 0.6631 0.4294
vn 0.2701 -0.9441 -0.1891
vn 0.7926 0.2530 -0.5548
vn 0.4653 0.8230 -0.3258
vn 0.4653 -0.8230 -0.3259
vn -0.7925 -0.2530 0.5549
vn -0.7253 -0.4647 0.5080
vn -0.6131 0.6631 0.4294
vn 0.8192 -0.0000 -0.5735
vn 0.7914 -0.2583 -0.5541
vn 0.0002 -1.0000 -0.0001
vn 0.2700 0.9441 -0.1891
vn -0.7913 0.2583 0.5542
vn 0.6132 -0.6631 -0.4293
vn -0.7914 -0.2584 0.5540
vn 0.2905 -0.9350 -0.2033
vn -0.4653 -0.8230 0.3259
vn -0.9571 -0.2899 -0.0000
vn -0.2900 0.9570 -0.0000
vn -0.2682 -0.8840 -0.3828
vn -0.4355 -0.8148 -0.3827
vn -0.5861 -0.7143 -0.3825
vn -0.2956 -0.2426 -0.9240
vn -0.3374 -0.1803 -0.9240
vn -0.8149 -0.4355 -0.3825
vn -0.3661 -0.1111 -0.9239
vn -0.8841 -0.2683 -0.3826
vn -0.3805 -0.0374 -0.9240
vn -0.9194 -0.0904 -0.3827
vn -0.9194 -0.0905 -0.3827
vn -0.9194 -0.0908 -0.3826
vn -0.0375 0.3808 -0.9239
vn -0.0906 0.9194 -0.3828
vn -0.1110 0.3660 -0.9240
vn -0.2681 0.8842 -0.3824
vn -0.1803 0.3372 -0.9240
vn -0.4356 0.8148 -0.3825
vn -0.2427 0.2957 -0.9239
vn -0.5861 0.7142 -0.3827
vn -0.8148 0.4354 -0.3828
vn -0.3659 0.1111 -0.9240
vn -0.8842 0.2684 -0.3822
vn -0.9192 0.0906 -0.3832
vn -0.9193 0.0903 -0.3830
vn -0.0000 -0.3824 -0.9240
vn -0.9571 0.2899 -0.0000
vn -0.2900 -0.9570 -0.0000
vn -0.0375 0.3807 -0.9240
vn -0.2681 0.8842 -0.3826
vn -0.4355 0.8148 -0.3827
vn -0.2426 0.2957 -0.9240
vn -0.5861 0.7141 -0.3828
vn -0.2956 0.2426 -0.9240
vn -0.8147 0.4355 -0.3829
vn -0.3661 0.1111 -0.9239
vn -0.8843 0.2682 -0.3823
vn -0.3805 0.0374 -0.9240
vn -0.9196 0.0906 -0.3823
vn -0.0906 -0.9195 -0.3825
vn -0.2682 -0.8841 -0.3826
vn -0.4356 -0.8149 -0.3825
vn -0.2427 -0.2957 -0.9239
vn -0.5861 -0.7142 -0.3825
vn -0.7142 -0.5861 -0.3827
vn -0.8148 -0.4356 -0.3825
vn -0.3659 -0.1111 -0.9240
vn -0.8843 -0.2682 -0.3822
vn -0.9196 -0.0906 -0.3822
vn -0.0000 0.3831 -0.9237
vn 0.0005 0.3826 -0.9239
vn 0.9659 -0.2588 -0.0000
vn 0.9659 0.2589 0.0004
vn -0.9661 -0.2581 -0.0000
vn 0.7068 -0.7075 -0.0000
vn -0.7068 -0.7075 -0.0000
vn 0.9660 -0.2587 -0.0000
vn 0.0002 -0.0000 1.0000
vn 0.0001 -0.0000 1.0000
vn -0.0002 -0.0000 1.0000
vn -0.0001 -0.0000 1.0000
vn -0.6131 -0.6631 0.4293
vn 0.5741 -0.0000 0.8188
vn 0.5736 0.0021 0.8191
vn 0.5736 0.0003 0.8192
vn 0.5730 -0.0000 0.8196
vn -0.6131 0.6631 0.4293
vn 0.5736 0.0002 0.8192
vn 0.5728 -0.0000 0.8197
vn 0.5736 -0.0004 0.8191
vn 0.5730 -0.0000 0.8195
vn 0.5737 -0.0004 0.8190
vn -0.2904 -0.9350 0.2034
vn 0.2904 0.9350 -0.2034
vn -0.4654 0.8230 0.3259
vn -0.4654 -0.8230 0.3258
vn 0.5738 -0.0002 0.8190
vn 0.5734 -0.0001 0.8193
vn 0.5735 -0.0002 0.8192
vn 0.5736 0.0004 0.8192
vn 0.5732 -0.0000 0.8194
vn 0.5736 -0.0004 0.8192
vn 0.5739 -0.0000 0.8189
vn 0.5736 0.0012 0.8191
vn 0.5793 -0.7071 -0.4056
vn 0.7566 0.3832 -0.5298
vn 0.3140 0.9236 -0.2198
vn 0.7567 -0.3830 -0.5298
vn -0.3139 -0.9237 0.2199
vn -0.7568 -0.3827 0.5299
vn 0.3140 -0.9236 -0.2199
vn 0.7568 -0.3828 -0.5299
vn -0.3138 0.9237 0.2197
vn -0.7566 0.3832 0.5298
vn 0.7567 0.3830 -0.5298
vn 0.3137 0.9238 -0.2197
vn -0.7567 0.3829 0.5299
vn -0.3136 0.9238 0.2196
vn -0.7566 -0.3831 0.5298
vn -0.3137 -0.9237 0.2197
vn 0.5737 -0.0000 0.8191
vn 0.5738 0.0003 0.8190
vn 0.5736 -0.0002 0.8191
vn 0.5737 -0.0001 0.8191
vn 0.5738 -0.0000 0.8190
vn 0.5739 -0.0000 0.8190
vn 0.5731 -0.0002 0.8195
vn 0.5734 -0.0003 0.8193
vn 0.5736 -0.0003 0.8191
vn 0.5735 0.0002 0.8192
vn 0.5734 0.0001 0.8193
vn 0.5736 -0.0002 0.8192
vn 0.5737 0.0001 0.8191
vn -0.7224 -0.4714 0.5059
vn -0.7224 0.4714 0.5058
vn 0.2378 0.9569 -0.1665
vn 0.7914 0.2583 -0.5541
vn 0.7252 -0.4647 -0.5080
vn -0.4653 0.8230 0.3259
vn 0.6131 0.6631 -0.4294
vn 0.7254 0.4647 -0.5078
vn 0.6131 -0.6631 -0.4294
vn 0.4653 0.8230 -0.3259
vn 0.7926 -0.2530 -0.5548
vn -0.7253 0.4647 0.5080
vn -0.6131 -0.6631 0.4294
vn 0.2700 -0.9441 -0.1891
vn 0.7927 0.2532 -0.5546
vn 0.4654 -0.8230 -0.3257
vn 0.7913 -0.2583 -0.5541
vn 0.8191 -0.0000 -0.5736
vn -0.7914 0.2584 0.5540
vn -0.7913 -0.2583 0.5542
vt 0.636528 0.113197
vt 0.651361 0.149195
vt 0.658795 0.113200
vt 0.636543 0.149195
vt 0.648815 0.144457
vt 0.642760 0.113175
vt 0.651361 0.147004
vt 0.638729 0.113188
vt 0.649311 0.144506
vt 0.642258 0.113176
vt 0.649789 0.144651
vt 0.641754 0.113177
vt 0.650229 0.144886
vt 0.641250 0.113179
vt 0.650615 0.145203
vt 0.640746 0.113180
vt 0.650932 0.145589
vt 0.640242 0.113182
vt 0.651167 0.146029
vt 0.639738 0.113184
vt 0.651312 0.146507
vt 0.639234 0.113185
vt 0.656605 0.113190
vt 0.636543 0.147004
vt 0.639089 0.144457
vt 0.652576 0.113175
vt 0.636592 0.146507
vt 0.656104 0.113188
vt 0.636737 0.146029
vt 0.655600 0.113185
vt 0.636972 0.145589
vt 0.655096 0.113183
vt 0.637289 0.145203
vt 0.654592 0.113181
vt 0.637674 0.144886
vt 0.654088 0.113179
vt 0.638115 0.144651
vt 0.653584 0.113178
vt 0.638592 0.144506
vt 0.653080 0.113176
vt 0.651097 0.149302
vt 0.636648 0.139358
vt 0.636652 0.139549
vt 0.651289 0.149303
vt 0.636761 0.149302
vt 0.658675 0.139352
vt 0.658670 0.139544
vt 0.636569 0.149303
vt 0.651090 0.151486
vt 0.638842 0.139305
vt 0.638846 0.139497
vt 0.651282 0.151496
vt 0.648784 0.153782
vt 0.642817 0.139288
vt 0.642815 0.139480
vt 0.648794 0.153974
vt 0.651043 0.151946
vt 0.639340 0.139292
vt 0.651232 0.151984
vt 0.639344 0.139488
vt 0.650913 0.152375
vt 0.639839 0.139287
vt 0.651090 0.152449
vt 0.639841 0.139482
vt 0.650701 0.152770
vt 0.640336 0.139285
vt 0.650860 0.152877
vt 0.640337 0.139478
vt 0.650416 0.153115
vt 0.640829 0.139283
vt 0.650551 0.153251
vt 0.640830 0.139474
vt 0.650069 0.153398
vt 0.641323 0.139281
vt 0.650176 0.153558
vt 0.641323 0.139474
vt 0.649674 0.153609
vt 0.641820 0.139280
vt 0.649747 0.153786
vt 0.641819 0.139474
vt 0.649244 0.153738
vt 0.642318 0.139281
vt 0.649281 0.153926
vt 0.642317 0.139476
vt 0.639078 0.153790
vt 0.652502 0.139279
vt 0.652504 0.139471
vt 0.639069 0.153981
vt 0.636768 0.151490
vt 0.656479 0.139299
vt 0.636576 0.151500
vt 0.656474 0.139492
vt 0.638618 0.153745
vt 0.652997 0.139274
vt 0.638581 0.153934
vt 0.652998 0.139466
vt 0.638188 0.153616
vt 0.653493 0.139273
vt 0.638115 0.153795
vt 0.653492 0.139466
vt 0.637792 0.153406
vt 0.653989 0.139274
vt 0.637685 0.153566
vt 0.653988 0.139468
vt 0.637444 0.153122
vt 0.654486 0.139276
vt 0.637309 0.153259
vt 0.654485 0.139470
vt 0.637159 0.152776
vt 0.654984 0.139278
vt 0.636999 0.152883
vt 0.654982 0.139472
vt 0.636946 0.152380
vt 0.655481 0.139281
vt 0.636768 0.152455
vt 0.655479 0.139476
vt 0.636815 0.151950
vt 0.655980 0.139286
vt 0.636626 0.151989
vt 0.655977 0.139482
vt 0.008030 0.158497
vt 0.006417 0.169138
vt 0.021804 0.148644
vt 0.004866 0.169138
vt 0.009580 0.158497
vt 0.032477 0.148644
vt 0.006417 0.158529
vt 0.011194 0.148644
vt 0.008030 0.129274
vt 0.011194 0.129274
vt 0.004866 0.158529
vt 0.043086 0.148644
vt 0.009580 0.129274
vt 0.043086 0.129274
vt 0.008030 0.138379
vt 0.020299 0.129274
vt 0.008030 0.140267
vt 0.021804 0.130414
vt 0.032477 0.130414
vt 0.009580 0.140267
vt 0.033981 0.129274
vt 0.009580 0.138379
vt 0.009612 0.158497
vt 0.011162 0.169138
vt 0.032445 0.148644
vt 0.009612 0.169138
vt 0.011162 0.158497
vt 0.043118 0.168046
vt 0.011162 0.158528
vt 0.021835 0.148644
vt 0.009612 0.129274
vt 0.021835 0.129274
vt 0.009612 0.158528
vt 0.053728 0.168046
vt 0.011162 0.129274
vt 0.053728 0.148676
vt 0.009612 0.138379
vt 0.030941 0.129274
vt 0.009612 0.140267
vt 0.032445 0.130414
vt 0.043118 0.149815
vt 0.011162 0.140267
vt 0.044622 0.148676
vt 0.011162 0.138379
vt 0.322947 0.696918
vt 0.308632 0.696918
vt 0.322947 0.669578
vt 0.308632 0.669578
vt 0.324594 0.696918
vt 0.306985 0.696918
vt 0.324594 0.669578
vt 0.306985 0.669578
vt 0.658758 0.150912
vt 0.636543 0.144336
vt 0.681023 0.150914
vt 0.651361 0.144336
vt 0.639089 0.139598
vt 0.664990 0.150935
vt 0.636543 0.142145
vt 0.660960 0.150922
vt 0.638592 0.139647
vt 0.664488 0.150934
vt 0.638115 0.139792
vt 0.663984 0.150933
vt 0.637674 0.140027
vt 0.663480 0.150931
vt 0.637289 0.140344
vt 0.662976 0.150930
vt 0.636972 0.140730
vt 0.662472 0.150928
vt 0.636737 0.141170
vt 0.661968 0.150926
vt 0.636592 0.141648
vt 0.661464 0.150924
vt 0.678834 0.150923
vt 0.651361 0.142145
vt 0.648815 0.139598
vt 0.674807 0.150935
vt 0.651312 0.141648
vt 0.678334 0.150925
vt 0.651167 0.141170
vt 0.677830 0.150927
vt 0.650932 0.140730
vt 0.677326 0.150929
vt 0.650615 0.140344
vt 0.676822 0.150930
vt 0.650229 0.140027
vt 0.676318 0.150932
vt 0.649789 0.139792
vt 0.675814 0.150933
vt 0.649311 0.139647
vt 0.675310 0.150934
vt 0.659025 0.116014
vt 0.658884 0.124754
vt 0.658889 0.124562
vt 0.658834 0.116015
vt 0.673361 0.116014
vt 0.680922 0.124770
vt 0.680918 0.124579
vt 0.673553 0.116015
vt 0.659032 0.118198
vt 0.661078 0.124807
vt 0.658840 0.118208
vt 0.661083 0.124615
vt 0.661338 0.120495
vt 0.665053 0.124825
vt 0.661328 0.120686
vt 0.665051 0.124633
vt 0.659079 0.118658
vt 0.661577 0.124820
vt 0.658890 0.118696
vt 0.661580 0.124625
vt 0.659210 0.119087
vt 0.662075 0.124825
vt 0.659033 0.119161
vt 0.662077 0.124631
vt 0.659422 0.119482
vt 0.662572 0.124828
vt 0.659262 0.119589
vt 0.662573 0.124635
vt 0.659706 0.119827
vt 0.663066 0.124829
vt 0.663066 0.124638
vt 0.659571 0.119963
vt 0.660053 0.120111
vt 0.663559 0.124832
vt 0.663559 0.124638
vt 0.659946 0.120270
vt 0.660448 0.120321
vt 0.664056 0.124832
vt 0.664056 0.124638
vt 0.660375 0.120498
vt 0.660878 0.120450
vt 0.664555 0.124832
vt 0.660841 0.120639
vt 0.664553 0.124637
vt 0.671045 0.120502
vt 0.674752 0.124838
vt 0.674754 0.124645
vt 0.671054 0.120693
vt 0.673354 0.118202
vt 0.678727 0.124822
vt 0.673546 0.118212
vt 0.678722 0.124629
vt 0.671505 0.120457
vt 0.675250 0.124845
vt 0.671542 0.120645
vt 0.675251 0.124650
vt 0.671934 0.120328
vt 0.675745 0.124844
vt 0.675745 0.124653
vt 0.672008 0.120506
vt 0.672331 0.120118
vt 0.676239 0.124845
vt 0.672437 0.120278
vt 0.676238 0.124652
vt 0.672678 0.119834
vt 0.676735 0.124843
vt 0.672813 0.119971
vt 0.676734 0.124650
vt 0.672964 0.119488
vt 0.677232 0.124841
vt 0.673123 0.119595
vt 0.677230 0.124647
vt 0.673176 0.119092
vt 0.677729 0.124839
vt 0.673354 0.119167
vt 0.677727 0.124644
vt 0.673308 0.118662
vt 0.678228 0.124834
vt 0.673496 0.118701
vt 0.678225 0.124639
vt 0.006417 0.158497
vt 0.008030 0.169138
vt 0.021835 0.168046
vt 0.009581 0.169138
vt 0.004866 0.158497
vt 0.053728 0.148644
vt 0.008030 0.158529
vt 0.032445 0.168046
vt 0.006417 0.129274
vt 0.032445 0.148676
vt 0.009581 0.158529
vt 0.043118 0.148644
vt 0.004866 0.129274
vt 0.043118 0.129274
vt 0.006417 0.138379
vt 0.023340 0.148676
vt 0.006417 0.140267
vt 0.021835 0.149815
vt 0.053728 0.130414
vt 0.004866 0.140267
vt 0.052223 0.129274
vt 0.004866 0.138379
vt 0.007999 0.158497
vt 0.006448 0.169138
vt 0.032477 0.168046
vt 0.007999 0.169138
vt 0.006448 0.158497
vt 0.021804 0.168046
vt 0.006448 0.158529
vt 0.043086 0.168046
vt 0.007999 0.129274
vt 0.043086 0.148676
vt 0.007999 0.158529
vt 0.011194 0.168046
vt 0.006448 0.129274
vt 0.011194 0.148676
vt 0.007999 0.138379
vt 0.033981 0.148676
vt 0.007999 0.140267
vt 0.032477 0.149816
vt 0.021804 0.149815
vt 0.006448 0.140267
vt 0.020299 0.148676
vt 0.006448 0.138379
vt 0.322947 0.697637
vt 0.308632 0.697637
vt 0.322947 0.724976
vt 0.308632 0.724976
vt 0.324594 0.697637
vt 0.306985 0.697637
vt 0.324594 0.724976
vt 0.306985 0.724976
vt 0.538565 0.291115
vt 0.539693 0.290153
vt 0.540954 0.289434
vt 0.542282 0.288959
vt 0.543602 0.288751
vt 0.544858 0.288721
vt 0.546066 0.288844
vt 0.547306 0.289080
vt 0.548631 0.289560
vt 0.549994 0.290331
vt 0.551224 0.291528
vt 0.537527 0.292320
vt 0.552267 0.293089
vt 0.538278 0.290833
vt 0.539455 0.289827
vt 0.540785 0.289077
vt 0.542184 0.288595
vt 0.543566 0.288398
vt 0.544866 0.288384
vt 0.546110 0.288507
vt 0.547395 0.288723
vt 0.548813 0.289171
vt 0.550251 0.289983
vt 0.551591 0.291201
vt 0.537213 0.292043
vt 0.552710 0.292785
vt 0.538973 0.291508
vt 0.540039 0.290617
vt 0.541207 0.289946
vt 0.542433 0.289526
vt 0.543646 0.289275
vt 0.544833 0.289217
vt 0.545995 0.289300
vt 0.547163 0.289594
vt 0.548380 0.290093
vt 0.549567 0.290871
vt 0.550706 0.291947
vt 0.538114 0.292601
vt 0.551615 0.293306
vt 0.539163 0.291693
vt 0.540196 0.290832
vt 0.541320 0.290181
vt 0.542502 0.289763
vt 0.543678 0.289512
vt 0.544832 0.289449
vt 0.545959 0.289533
vt 0.547085 0.289829
vt 0.548254 0.290331
vt 0.549383 0.291096
vt 0.550456 0.292157
vt 0.551329 0.293499
vt 0.538308 0.292761
vt 0.541747 0.294311
vt 0.542271 0.294084
vt 0.542830 0.293891
vt 0.543414 0.293737
vt 0.544034 0.293754
vt 0.544652 0.293685
vt 0.545264 0.293800
vt 0.545885 0.293826
vt 0.546465 0.294023
vt 0.547067 0.294170
vt 0.547577 0.294436
vt 0.541192 0.294528
vt 0.548129 0.294739
vt 0.537745 0.470243
vt 0.523943 0.384422
vt 0.538278 0.470255
vt 0.524213 0.383953
vt 0.538810 0.470267
vt 0.524682 0.383683
vt 0.539343 0.470280
vt 0.525223 0.383683
vt 0.539876 0.470293
vt 0.525691 0.383953
vt 0.540408 0.470305
vt 0.525962 0.384421
vt 0.540941 0.470318
vt 0.525962 0.384962
vt 0.541474 0.470331
vt 0.525691 0.385431
vt 0.542006 0.470345
vt 0.525223 0.385701
vt 0.542539 0.470358
vt 0.524682 0.385701
vt 0.543071 0.470372
vt 0.524214 0.385431
vt 0.543648 0.470386
vt 0.537213 0.470230
vt 0.523943 0.384962
vt 0.246819 0.613987
vt 0.318458 0.605912
vt 0.246117 0.613987
vt 0.317756 0.605912
vt 0.302433 0.621235
vt 0.318458 0.651882
vt 0.246819 0.598663
vt 0.246117 0.598663
vt 0.317756 0.651882
vt 0.302433 0.636558
vt 0.318458 0.621235
vt 0.317756 0.621235
vt 0.318458 0.636558
vt 0.317756 0.636558
vt 0.136879 0.306586
vt 0.165524 0.382081
vt 0.136879 0.370019
vt 0.136879 0.328516
vt 0.165524 0.360151
vt 0.158810 0.370019
vt 0.180294 0.360090
vt 0.158810 0.306586
vt 0.180294 0.338160
vt 0.158810 0.328516
vt 0.166167 0.360151
vt 0.136879 0.329158
vt 0.158810 0.329158
vt 0.179651 0.338160
vt 0.165524 0.361162
vt 0.136879 0.327505
vt 0.180294 0.339171
vt 0.158810 0.327505
vt 0.166167 0.361162
vt 0.136879 0.330169
vt 0.179651 0.339171
vt 0.158810 0.330169
vt 0.180294 0.381338
vt 0.136879 0.354799
vt 0.179907 0.382081
vt 0.136879 0.355637
vt 0.165911 0.360090
vt 0.158810 0.355637
vt 0.165524 0.359347
vt 0.158810 0.354799
vt 0.216282 0.365932
vt 0.365518 0.134478
vt 0.226078 0.384598
vt 0.365518 0.103818
vt 0.365518 0.093859
vt 0.229616 0.374864
vt 0.221478 0.387012
vt 0.365518 0.106962
vt 0.365518 0.087752
vt 0.223925 0.366860
vt 0.208729 0.380321
vt 0.365518 0.119983
vt 0.365518 0.132906
vt 0.213835 0.366860
vt 0.223925 0.386084
vt 0.365518 0.105391
vt 0.209946 0.382639
vt 0.365518 0.118411
vt 0.365518 0.090896
vt 0.227814 0.370305
vt 0.229030 0.372622
vt 0.365518 0.092468
vt 0.365518 0.115267
vt 0.213835 0.386084
vt 0.365518 0.128190
vt 0.208729 0.372622
vt 0.216282 0.387012
vt 0.365518 0.113695
vt 0.211681 0.384598
vt 0.365518 0.116839
vt 0.227814 0.382639
vt 0.365518 0.102246
vt 0.229616 0.378080
vt 0.365518 0.099283
vt 0.221478 0.365932
vt 0.365518 0.086180
vt 0.209946 0.370305
vt 0.365518 0.129762
vt 0.211681 0.368346
vt 0.365518 0.131334
vt 0.229030 0.380321
vt 0.365518 0.100675
vt 0.226078 0.368346
vt 0.365518 0.089324
vt 0.208143 0.378080
vt 0.365518 0.121375
vt 0.365518 0.111301
vt 0.217261 0.390130
vt 0.208143 0.374864
vt 0.365518 0.126799
vt 0.217261 0.387131
vt 0.365518 0.113103
vt 0.220493 0.387132
vt 0.365518 0.107558
vt 0.217263 0.365813
vt 0.365518 0.135072
vt 0.365518 0.085589
vt 0.220502 0.365813
vt 0.220493 0.390131
vt 0.365518 0.109360
vt 0.365518 0.136874
vt 0.217263 0.362813
vt 0.365518 0.081842
vt 0.220502 0.362814
vt 0.365518 0.083788
vt 0.365518 0.095605
vt 0.232523 0.374864
vt 0.365518 0.097537
vt 0.232523 0.378080
vt 0.365518 0.123121
vt 0.205237 0.378080
vt 0.365518 0.125053
vt 0.205237 0.374864
vt 0.321807 0.134478
vt 0.311928 0.804336
vt 0.321807 0.103818
vt 0.286772 0.886338
vt 0.321807 0.093859
vt 0.324877 0.868343
vt 0.321807 0.106962
vt 0.266560 0.880138
vt 0.321807 0.087752
vt 0.331356 0.828910
vt 0.321807 0.119983
vt 0.248886 0.824287
vt 0.321807 0.132906
vt 0.302199 0.800009
vt 0.321807 0.105390
vt 0.276290 0.884465
vt 0.321807 0.118411
vt 0.245763 0.834467
vt 0.321807 0.090896
vt 0.332726 0.850007
vt 0.321807 0.092468
vt 0.329603 0.860187
vt 0.321807 0.115267
vt 0.247132 0.855564
vt 0.321807 0.128190
vt 0.270939 0.802038
vt 0.321807 0.113695
vt 0.251545 0.865255
vt 0.321807 0.116839
vt 0.245167 0.845098
vt 0.321807 0.102247
vt 0.297398 0.885648
vt 0.321807 0.099283
vt 0.315664 0.877638
vt 0.321807 0.086180
vt 0.326943 0.819220
vt 0.321807 0.129762
vt 0.281091 0.798826
vt 0.321807 0.131334
vt 0.291717 0.798136
vt 0.321807 0.100674
vt 0.307550 0.882436
vt 0.321807 0.089324
vt 0.333322 0.839376
vt 0.321807 0.121375
vt 0.253611 0.816131
vt 0.321807 0.111301
vt 0.245444 0.877069
vt 0.321807 0.126799
vt 0.262825 0.806836
vt 0.321807 0.113103
vt 0.254034 0.868403
vt 0.321807 0.107558
vt 0.263374 0.877664
vt 0.321807 0.135072
vt 0.315105 0.806803
vt 0.321807 0.085589
vt 0.324463 0.816082
vt 0.321807 0.109360
vt 0.254783 0.886331
vt 0.321807 0.081842
vt 0.321807 0.136874
vt 0.323696 0.798136
vt 0.321807 0.083788
vt 0.333053 0.807416
vt 0.321807 0.095605
vt 0.333276 0.876668
vt 0.321807 0.097537
vt 0.324063 0.885963
vt 0.321807 0.123121
vt 0.245212 0.807806
vt 0.321807 0.125053
vt 0.254426 0.798511
vt 0.197896 0.401234
vt 0.244498 0.333760
vt 0.244498 0.329905
vt 0.194118 0.397455
vt 0.244498 0.294971
vt 0.194118 0.355489
vt 0.197896 0.351710
vt 0.244498 0.291116
vt 0.192091 0.436549
vt 0.244498 0.372548
vt 0.243641 0.397455
vt 0.239863 0.401234
vt 0.244498 0.368693
vt 0.239863 0.351710
vt 0.244498 0.411336
vt 0.244498 0.407481
vt 0.243641 0.355489
vt 0.191730 0.368693
vt 0.191730 0.372548
vt 0.191730 0.407481
vt 0.191730 0.411336
vt 0.191730 0.329904
vt 0.191730 0.333760
vt 0.191730 0.291116
vt 0.244547 0.436549
vt 0.191730 0.294971
vt 0.244498 0.315122
vt 0.197969 0.380193
vt 0.197969 0.372751
vt 0.244498 0.309754
vt 0.197034 0.381128
vt 0.244498 0.316076
vt 0.197034 0.371816
vt 0.244498 0.308799
vt 0.223536 0.354627
vt 0.244498 0.425164
vt 0.222601 0.355562
vt 0.244498 0.426118
vt 0.215159 0.355562
vt 0.244498 0.431487
vt 0.192091 0.450296
vt 0.214224 0.354627
vt 0.244498 0.432441
vt 0.191729 0.386376
vt 0.191730 0.387330
vt 0.191730 0.393653
vt 0.191730 0.426118
vt 0.191730 0.392699
vt 0.191730 0.425164
vt 0.244547 0.450296
vt 0.191730 0.432441
vt 0.191730 0.431487
vt 0.191730 0.353911
vt 0.191730 0.354865
vt 0.191730 0.347588
vt 0.191730 0.348542
vt 0.191730 0.316076
vt 0.191730 0.308799
vt 0.191730 0.315122
vt 0.191730 0.309753
vt 0.223536 0.398317
vt 0.244498 0.354865
vt 0.222601 0.397382
vt 0.244498 0.353911
vt 0.215159 0.397382
vt 0.244498 0.348542
vt 0.214224 0.398317
vt 0.244498 0.347588
vt 0.240725 0.381128
vt 0.244498 0.386376
vt 0.240725 0.371816
vt 0.244498 0.393653
vt 0.244498 0.392699
vt 0.239790 0.372751
vt 0.244498 0.387330
vt 0.239790 0.380193
vt 0.194118 0.381291
vt 0.244498 0.318243
vt 0.194281 0.381128
vt 0.244498 0.318063
vt 0.244498 0.318153
vt 0.194166 0.381176
vt 0.194281 0.371816
vt 0.244498 0.306813
vt 0.194118 0.371653
vt 0.244498 0.306633
vt 0.244498 0.306723
vt 0.194166 0.371768
vt 0.244498 0.357031
vt 0.223699 0.401234
vt 0.223536 0.401071
vt 0.244498 0.356851
vt 0.223583 0.401186
vt 0.244498 0.356941
vt 0.244498 0.345601
vt 0.214224 0.401071
vt 0.214061 0.401234
vt 0.244498 0.345421
vt 0.214176 0.401186
vt 0.244498 0.345511
vt 0.191730 0.345421
vt 0.191730 0.345601
vt 0.191730 0.345511
vt 0.191730 0.356851
vt 0.191730 0.357031
vt 0.191730 0.356941
vt 0.244498 0.423178
vt 0.223536 0.351873
vt 0.223699 0.351710
vt 0.244498 0.422998
vt 0.223583 0.351758
vt 0.244498 0.423088
vt 0.192091 0.448142
vt 0.214061 0.351710
vt 0.214224 0.351873
vt 0.192091 0.448321
vt 0.214176 0.351758
vt 0.192091 0.448232
vt 0.191730 0.384210
vt 0.191730 0.384389
vt 0.191729 0.384299
vt 0.191730 0.395640
vt 0.191730 0.395819
vt 0.191730 0.395729
vt 0.191730 0.422998
vt 0.191730 0.423178
vt 0.191730 0.423088
vt 0.244547 0.448321
vt 0.244547 0.448142
vt 0.244547 0.448232
vt 0.191730 0.318063
vt 0.191730 0.318243
vt 0.191730 0.318153
vt 0.191730 0.306633
vt 0.191730 0.306813
vt 0.191730 0.306723
vt 0.243641 0.371653
vt 0.244498 0.395819
vt 0.243479 0.371816
vt 0.244498 0.395639
vt 0.243594 0.371768
vt 0.244498 0.395729
vt 0.243479 0.381128
vt 0.244498 0.384389
vt 0.243642 0.381291
vt 0.244498 0.384210
vt 0.243594 0.381176
vt 0.244498 0.384300
vt 0.508223 0.407597
vt 0.508223 0.337486
vt 0.508223 0.407986
vt 0.508223 0.408374
vt 0.508223 0.408763
vt 0.508223 0.409152
vt 0.508223 0.335931
vt 0.508223 0.336320
vt 0.508223 0.336709
vt 0.508223 0.337097
vt 0.557467 0.419386
vt 0.511917 0.337486
vt 0.555484 0.421369
vt 0.511917 0.407597
vt 0.557429 0.419773
vt 0.511917 0.337097
vt 0.557316 0.420145
vt 0.511917 0.336709
vt 0.557133 0.420488
vt 0.511917 0.336320
vt 0.556886 0.420788
vt 0.511917 0.409152
vt 0.511917 0.335931
vt 0.556586 0.421035
vt 0.511917 0.408763
vt 0.556243 0.421218
vt 0.511917 0.408374
vt 0.555871 0.421331
vt 0.511917 0.407985
vt 0.508223 0.352682
vt 0.508223 0.355791
vt 0.508223 0.353070
vt 0.508223 0.353459
vt 0.508223 0.353848
vt 0.508223 0.354236
vt 0.508223 0.354625
vt 0.508223 0.355014
vt 0.508223 0.355402
vt 0.555484 0.402208
vt 0.511917 0.355791
vt 0.557467 0.404191
vt 0.511917 0.352682
vt 0.555871 0.402246
vt 0.511917 0.355402
vt 0.556243 0.402359
vt 0.511917 0.355014
vt 0.511917 0.354625
vt 0.556586 0.402542
vt 0.556886 0.402789
vt 0.511917 0.354236
vt 0.557133 0.403089
vt 0.511917 0.353848
vt 0.557316 0.403432
vt 0.511917 0.353459
vt 0.511917 0.353070
vt 0.557429 0.403804
vt 0.508223 0.389292
vt 0.508223 0.392401
vt 0.508223 0.389680
vt 0.508223 0.390069
vt 0.508223 0.390458
vt 0.508223 0.390846
vt 0.508223 0.391235
vt 0.508223 0.391624
vt 0.508223 0.392013
vt 0.540288 0.421369
vt 0.511917 0.392401
vt 0.511917 0.389292
vt 0.538306 0.419386
vt 0.511917 0.392013
vt 0.539902 0.421331
vt 0.539530 0.421218
vt 0.511917 0.391624
vt 0.511917 0.391235
vt 0.539187 0.421035
vt 0.538886 0.420788
vt 0.511917 0.390846
vt 0.538640 0.420488
vt 0.511917 0.390458
vt 0.511917 0.390069
vt 0.538457 0.420145
vt 0.538344 0.419773
vt 0.511917 0.389680
vt 0.508223 0.370987
vt 0.508223 0.374096
vt 0.508223 0.371375
vt 0.508223 0.371764
vt 0.508223 0.372153
vt 0.508223 0.372541
vt 0.508223 0.372930
vt 0.508223 0.373319
vt 0.508223 0.373707
vt 0.511917 0.374096
vt 0.538306 0.404191
vt 0.540288 0.402208
vt 0.511917 0.370987
vt 0.538344 0.403804
vt 0.511917 0.373707
vt 0.511917 0.373319
vt 0.538457 0.403432
vt 0.538640 0.403089
vt 0.511917 0.372930
vt 0.538886 0.402789
vt 0.511917 0.372541
vt 0.511917 0.372153
vt 0.539187 0.402542
vt 0.539530 0.402359
vt 0.511917 0.371764
vt 0.511917 0.371375
vt 0.539902 0.402246
vt 0.552998 0.316601
vt 0.508792 0.327755
vt 0.517133 0.304457
vt 0.509367 0.337340
vt 0.535120 0.303910
vt 0.540533 0.350986
vt 0.553051 0.321280
vt 0.509058 0.332874
vt 0.535629 0.350304
vt 0.524886 0.304416
vt 0.519942 0.304013
vt 0.525814 0.350148
vt 0.553772 0.336301
vt 0.522148 0.350198
vt 0.530522 0.349962
vt 0.507930 0.322779
vt 0.506940 0.316018
vt 0.539184 0.303637
vt 0.553210 0.331851
vt 0.552858 0.326644
vt 0.506897 0.318460
vt 0.530151 0.304430
vt 0.543456 0.350548
vt 0.517558 0.348413
vt 0.553558 0.338651
vt 0.521439 0.349930
vt 0.509814 0.338229
vt 0.552574 0.315696
vt 0.539988 0.303898
vt 0.511973 0.342674
vt 0.550569 0.311119
vt 0.544398 0.305405
vt 0.512805 0.306326
vt 0.507961 0.312092
vt 0.547773 0.348654
vt 0.552426 0.342536
vt 0.554361 0.314951
vt 0.506768 0.327980
vt 0.516545 0.302839
vt 0.508110 0.338994
vt 0.535007 0.301939
vt 0.540660 0.352931
vt 0.555276 0.321301
vt 0.506958 0.332991
vt 0.535418 0.352439
vt 0.524901 0.302273
vt 0.519727 0.302190
vt 0.525776 0.351884
vt 0.555373 0.336428
vt 0.520990 0.351252
vt 0.530424 0.352001
vt 0.505978 0.323128
vt 0.505632 0.315743
vt 0.540423 0.302395
vt 0.555236 0.331760
vt 0.555082 0.326656
vt 0.505307 0.318442
vt 0.530056 0.302290
vt 0.544114 0.352222
vt 0.540549 0.350247
vt 0.554786 0.338988
vt 0.535201 0.304632
vt 0.509959 0.337234
vt 0.525779 0.349480
vt 0.519942 0.304735
vt 0.517263 0.304854
vt 0.524845 0.305250
vt 0.535719 0.349486
vt 0.510818 0.304251
vt 0.505919 0.311242
vt 0.549777 0.350730
vt 0.554645 0.343343
vt 0.509835 0.332848
vt 0.552238 0.321263
vt 0.552390 0.316711
vt 0.509622 0.327660
vt 0.552922 0.309149
vt 0.545532 0.303175
vt 0.509682 0.344630
vt 0.516476 0.350409
vt 0.553162 0.336332
vt 0.522181 0.349732
vt 0.530537 0.349164
vt 0.508678 0.322615
vt 0.507287 0.316077
vt 0.539172 0.304159
vt 0.552429 0.331927
vt 0.551994 0.326664
vt 0.507512 0.318366
vt 0.530196 0.305263
vt 0.543364 0.350126
vt 0.518156 0.347710
vt 0.553214 0.338609
vt 0.521520 0.349706
vt 0.510088 0.338081
vt 0.552262 0.315802
vt 0.539909 0.304153
vt 0.512771 0.342100
vt 0.549758 0.311702
vt 0.543773 0.306214
vt 0.513358 0.307062
vt 0.508711 0.312549
vt 0.547175 0.347934
vt 0.551675 0.342055
vt 0.551171 0.316097
vt 0.555340 0.314743
vt 0.511877 0.327394
vt 0.506016 0.328057
vt 0.517419 0.305818
vt 0.516354 0.301996
vt 0.511156 0.337755
vt 0.507170 0.339218
vt 0.535501 0.306544
vt 0.535009 0.301250
vt 0.540920 0.348401
vt 0.540685 0.353750
vt 0.550058 0.321124
vt 0.556078 0.321276
vt 0.511912 0.332845
vt 0.506228 0.333065
vt 0.535931 0.347226
vt 0.535345 0.353203
vt 0.524645 0.307530
vt 0.524913 0.301487
vt 0.519648 0.306517
vt 0.519654 0.301375
vt 0.525601 0.347745
vt 0.525724 0.352573
vt 0.551689 0.336719
vt 0.556078 0.336496
vt 0.521677 0.348876
vt 0.520880 0.351915
vt 0.530469 0.346994
vt 0.530382 0.352731
vt 0.510707 0.322138
vt 0.505252 0.323239
vt 0.508066 0.316082
vt 0.504952 0.315673
vt 0.539781 0.305089
vt 0.540503 0.301649
vt 0.550336 0.332291
vt 0.555965 0.331743
vt 0.549620 0.326775
vt 0.555875 0.326663
vt 0.508976 0.317842
vt 0.504593 0.318450
vt 0.530303 0.307561
vt 0.530038 0.301521
vt 0.543198 0.349152
vt 0.544327 0.353212
vt 0.552449 0.338554
vt 0.555461 0.339146
vt 0.555578 0.339017
vt 0.515400 0.308954
vt 0.510247 0.303547
vt 0.510177 0.314189
vt 0.505325 0.311015
vt 0.545122 0.346146
vt 0.550396 0.351458
vt 0.550157 0.340388
vt 0.555276 0.343569
vt 0.547663 0.313875
vt 0.553621 0.308698
vt 0.541828 0.307783
vt 0.545972 0.302423
vt 0.514935 0.339941
vt 0.508932 0.345193
vt 0.520000 0.346420
vt 0.516181 0.350992
s 0
usemtl Diffuse.006
f 12/23/1 25/46/1 58/90/1
f 1/1/2 28/50/2 22/42/2
f 19/37/3 9/17/3 1/2/3
f 11/22/4 37/62/4 34/58/4
f 4/8/5 34/58/5 28/50/5
f 5/10/6 31/54/6 52/82/6
f 10/20/7 40/66/7 37/62/7
f 9/18/8 43/70/8 40/66/8
f 8/16/9 46/74/9 43/70/9
f 7/14/10 49/78/10 46/74/10
f 6/12/11 52/82/11 49/78/11
f 61/94/12 13/26/12 20/40/12
f 3/6/13 55/86/13 31/54/13
f 64/98/14 20/40/14 19/38/14
f 79/118/15 15/30/15 14/28/15
f 76/114/16 16/32/16 15/30/16
f 73/110/17 17/34/17 16/32/17
f 70/106/18 18/36/18 17/34/18
f 67/102/19 19/38/19 18/36/19
f 58/90/20 14/28/20 12/23/20
f 33/57/21 29/52/21 35/59/21
f 35/60/22 28/50/22 34/58/22
f 36/61/23 35/59/23 38/63/23
f 35/60/24 37/62/24 38/64/24
f 39/65/25 38/63/25 41/67/25
f 38/64/26 40/66/26 41/68/26
f 42/69/27 41/67/27 44/71/27
f 41/68/28 43/70/28 44/72/28
f 42/69/29 47/75/29 45/73/29
f 47/76/30 43/70/30 46/74/30
f 45/73/31 50/79/31 48/77/31
f 50/80/32 46/74/32 49/78/32
f 48/77/33 53/83/33 51/81/33
f 53/84/34 49/78/34 52/82/35
f 51/81/36 32/56/36 30/53/36
f 53/84/37 31/54/38 32/55/37
f 78/117/39 59/91/39 57/89/39
f 80/120/40 58/90/40 59/92/40
f 75/113/41 80/119/41 78/117/41
f 80/120/42 76/114/42 79/118/42
f 72/109/43 77/115/43 75/113/43
f 77/116/44 73/110/44 76/114/44
f 69/105/45 74/111/45 72/109/45
f 74/112/46 70/106/46 73/110/46
f 66/101/47 71/107/47 69/105/47
f 71/108/48 67/102/48 70/106/48
f 66/101/49 65/99/49 68/103/49
f 68/104/50 64/98/50 67/102/50
f 60/93/51 65/99/51 63/97/51
f 65/100/52 61/94/52 64/98/52
f 60/93/53 56/88/53 62/95/53
f 62/96/54 55/86/55 61/94/56
f 31/54/57 56/87/57 32/55/57
f 56/88/58 30/53/58 32/56/58
f 25/46/59 59/92/59 58/90/59
f 26/48/60 57/89/60 59/91/60
f 22/42/61 29/51/61 23/43/61
f 23/44/62 27/49/62 21/41/62
f 78/117/63 42/69/63 30/53/63
f 90/142/3 84/129/3 86/133/3
f 88/137/13 82/125/13 81/121/13
f 85/131/63 81/122/63 82/124/63
f 89/139/1 86/134/1 85/132/1
f 90/142/64 88/137/64 87/135/64
f 84/130/2 88/138/2 81/123/2
f 100/164/63 94/151/63 96/155/63
f 98/159/65 92/147/65 91/143/65
f 95/153/3 91/144/3 92/146/3
f 99/161/1 96/156/1 95/154/1
f 100/164/66 98/159/66 97/157/66
f 94/152/2 98/160/2 91/145/2
f 102/166/13 103/167/13 101/165/13
f 107/171/63 101/165/63 103/167/63
f 104/168/3 106/170/3 108/172/3
f 133/218/2 120/195/2 166/262/2
f 136/222/1 109/173/1 130/214/1
f 115/185/3 125/205/3 120/196/3
f 145/234/67 119/194/67 142/230/67
f 142/230/20 112/180/20 136/222/20
f 139/226/12 113/182/12 160/254/12
f 148/238/16 118/192/16 145/234/16
f 151/242/17 117/190/17 148/238/17
f 154/246/18 116/188/18 151/242/18
f 157/250/19 115/186/19 154/246/19
f 160/254/68 114/184/68 157/250/68
f 121/198/6 169/266/6 128/212/6
f 163/258/13 111/178/13 139/226/13
f 128/212/69 172/270/69 127/210/69
f 123/202/70 187/290/70 122/200/70
f 124/204/7 184/286/7 123/202/7
f 125/206/8 181/282/8 124/204/8
f 126/208/9 178/278/9 125/206/9
f 127/210/10 175/274/10 126/208/10
f 122/200/71 166/262/71 120/195/71
f 141/229/72 137/223/72 135/221/72
f 143/232/73 136/222/73 137/224/73
f 144/233/74 143/231/74 141/229/74
f 145/234/75 143/232/75 146/236/75
f 147/237/76 146/235/76 144/233/76
f 148/238/77 146/236/77 149/240/77
f 150/241/78 149/239/78 147/237/78
f 151/242/79 149/240/79 152/243/79
f 155/248/80 150/241/80 153/245/80
f 155/247/81 151/242/81 152/243/81
f 158/252/82 153/245/82 156/249/82
f 158/251/83 154/246/83 155/247/83
f 161/255/84 156/249/84 159/253/84
f 161/256/85 157/250/85 158/251/85
f 140/227/86 159/253/86 138/225/86
f 139/226/87 161/256/87 140/228/87
f 167/263/88 186/289/88 165/261/88
f 166/262/89 188/292/89 167/264/89
f 188/291/90 183/285/90 186/289/90
f 188/292/91 184/286/91 185/288/91
f 185/287/25 180/281/25 183/285/25
f 185/288/92 181/282/92 182/284/92
f 182/283/93 177/277/93 180/281/93
f 182/284/94 178/278/94 179/280/94
f 179/279/95 174/273/95 177/277/95
f 179/280/30 175/274/30 176/276/30
f 174/273/31 173/272/31 171/269/31
f 176/276/96 172/270/96 173/271/96
f 173/272/97 168/265/97 171/269/97
f 172/270/98 170/268/98 173/271/98
f 168/265/36 164/260/36 162/257/36
f 170/268/37 163/258/37 164/259/37
f 139/226/57 164/259/57 163/258/57
f 138/225/58 164/260/58 140/227/58
f 167/264/61 133/218/61 166/262/61
f 165/261/62 134/220/62 167/263/62
f 130/214/59 137/224/59 136/222/59
f 131/216/99 135/221/100 137/223/101
f 144/233/63 180/281/63 168/265/63
f 192/301/3 198/314/3 194/305/3
f 190/297/13 196/309/13 189/293/13
f 189/294/63 193/303/63 190/296/63
f 193/304/2 198/313/2 197/311/2
f 196/309/102 198/314/102 195/307/102
f 189/295/1 195/308/1 192/302/1
f 202/323/63 208/336/63 204/327/63
f 200/319/65 206/331/65 199/315/65
f 199/316/3 203/325/3 200/318/3
f 203/326/2 208/335/2 207/333/2
f 206/331/103 208/336/103 205/329/103
f 199/317/1 205/330/1 202/324/1
f 211/339/13 210/338/13 209/337/13
f 209/337/63 215/343/63 211/339/63
f 214/342/3 212/340/3 216/344/3
f 221/349/104 234/363/104 222/350/104
f 228/356/105 229/358/105 217/345/105
f 218/346/106 231/360/106 219/347/106
f 226/354/107 237/366/107 238/367/107
f 222/350/108 235/364/108 223/351/108
f 219/347/109 232/361/109 220/348/109
f 226/354/110 239/368/110 227/355/110
f 223/351/111 236/365/111 224/352/111
f 220/348/112 233/362/112 221/349/112
f 227/355/113 240/370/113 228/357/113
f 217/345/114 230/359/114 218/346/114
f 224/352/115 237/366/115 225/353/115
f 222/350/3 245/375/3 221/349/3
f 217/345/3 252/382/3 228/356/3
f 218/346/3 243/373/3 242/372/3
f 225/353/3 250/380/3 249/379/3
f 223/351/3 246/376/3 222/350/3
f 219/347/3 244/374/3 243/373/3
f 227/355/3 250/380/3 226/354/3
f 223/351/3 248/378/3 247/377/3
f 221/349/3 244/374/3 220/348/3
f 228/357/3 251/381/3 227/355/3
f 217/345/3 242/372/3 241/371/3
f 224/352/3 249/379/3 248/378/3
f 244/374/116 255/386/116 243/373/116
f 251/381/117 262/393/117 250/380/117
f 248/378/118 259/390/118 247/377/118
f 245/375/119 256/387/119 244/374/119
f 252/383/120 263/394/120 251/381/120
f 242/372/121 253/384/121 241/371/121
f 249/379/122 260/391/122 248/378/122
f 246/376/123 257/388/123 245/375/123
f 241/371/124 264/396/124 252/382/124
f 243/373/125 254/385/125 242/372/125
f 250/380/126 261/392/126 249/379/126
f 247/377/127 258/389/127 246/376/127
f 256/387/3 267/399/3 255/386/3
f 263/394/3 274/406/3 262/393/3
f 260/391/3 271/403/3 259/390/3
f 256/387/3 269/401/3 268/400/3
f 264/395/3 275/407/3 263/394/3
f 254/385/3 265/397/3 253/384/3
f 260/391/3 273/405/3 272/404/3
f 258/389/3 269/401/3 257/388/3
f 264/396/3 265/397/3 276/408/3
f 255/386/3 266/398/3 254/385/3
f 262/393/3 273/405/3 261/392/3
f 258/389/3 271/403/3 270/402/3
f 271/403/108 282/420/108 270/402/108
f 268/400/128 279/414/128 267/399/128
f 275/407/129 286/428/129 274/406/129
f 272/404/111 283/422/111 271/403/111
f 269/401/130 280/416/130 268/400/130
f 276/409/131 287/430/131 275/407/131
f 266/398/114 277/410/114 265/397/114
f 273/405/132 284/424/132 272/404/132
f 270/402/133 281/418/133 269/401/133
f 265/397/105 288/433/105 276/408/105
f 267/399/106 278/412/106 266/398/106
f 274/406/134 285/426/134 273/405/134
f 281/419/3 285/427/3 277/411/3
f 290/437/13 291/441/13 289/435/13
f 292/443/1 295/447/1 291/440/1
f 296/448/65 293/445/65 295/447/65
f 294/446/2 289/436/2 293/445/2
f 292/444/3 294/446/3 296/448/3
f 304/466/63 298/452/63 303/464/63
f 305/468/3 302/461/3 306/470/3
f 298/453/2 305/467/2 303/463/2
f 300/458/65 301/460/65 298/452/65
f 303/463/2 307/471/2 308/473/2
f 304/465/1 302/462/1 300/457/1
f 299/455/1 310/477/1 306/469/1
f 297/451/13 309/476/13 299/454/13
f 299/456/63 303/464/63 297/449/63
f 308/474/135 310/478/135 309/476/135
f 307/472/136 306/470/136 310/478/136
f 312/481/136 326/509/136 387/635/136
f 366/590/137 329/516/137 330/518/137
f 395/646/138 431/702/138 384/627/138
f 340/537/139 424/687/139 425/689/139
f 426/692/140 444/726/140 440/719/140
f 406/665/140 464/752/140 413/674/140
f 319/496/141 361/580/141 325/508/141
f 403/660/138 462/750/138 449/731/138
f 359/576/142 335/528/142 323/503/142
f 456/744/1 427/694/1 407/668/1
f 341/540/143 404/661/143 403/659/143
f 328/514/144 375/608/144 339/535/144
f 322/501/145 360/578/145 324/506/145
f 380/619/138 343/544/138 344/546/138
f 332/521/136 342/542/136 390/641/136
f 325/507/136 334/526/136 384/628/136
f 351/560/146 328/514/146 315/487/146
f 374/606/147 311/480/147 338/534/147
f 458/746/2 428/696/2 474/764/2
f 393/644/140 473/762/140 390/640/140
f 340/538/138 373/604/138 337/532/138
f 312/482/148 354/566/148 348/554/148
f 383/626/2 443/725/2 396/647/2
f 312/482/149 362/582/149 326/510/149
f 330/517/136 346/551/136 386/631/136
f 378/615/150 341/541/150 342/543/150
f 349/556/151 321/500/151 313/483/151
f 382/623/140 345/548/140 346/550/140
f 337/532/152 350/558/152 314/486/152
f 331/520/153 363/584/153 327/512/153
f 345/548/1 369/596/1 333/524/1
f 332/522/154 351/560/154 315/487/154
f 375/608/138 342/543/138 339/535/138
f 331/520/155 362/582/155 367/592/155
f 335/528/2 382/623/2 346/550/2
f 311/480/156 353/564/156 317/491/156
f 314/486/157 354/566/157 318/494/157
f 343/544/2 349/556/2 313/483/2
f 319/496/158 352/562/158 355/568/158
f 325/508/159 358/574/159 322/501/159
f 344/546/1 363/584/1 380/619/1
f 321/500/160 356/570/160 320/497/160
f 353/564/161 330/518/161 317/491/161
f 333/524/162 352/562/162 316/490/162
f 336/530/163 360/578/163 372/602/163
f 356/570/164 332/522/164 320/497/164
f 329/516/165 359/576/165 323/503/165
f 336/530/140 370/598/140 334/525/140
f 377/613/140 338/534/140 341/539/140
f 370/598/166 340/538/166 334/525/166
f 371/601/136 353/565/136 375/609/136
f 397/648/167 385/629/167 398/650/167
f 383/626/168 395/646/168 384/627/168
f 394/645/169 390/640/169 389/639/169
f 388/637/170 392/643/170 391/642/170
f 385/629/138 470/758/138 398/650/138
f 402/658/2 471/759/2 434/708/2
f 404/662/1 414/676/1 410/671/1
f 386/633/1 465/753/1 452/737/1
f 389/639/1 461/749/1 394/645/1
f 400/654/138 421/683/138 422/684/138
f 345/549/139 399/652/139 400/653/139
f 446/728/138 423/686/138 438/716/138
f 424/688/2 418/680/2 425/690/2
f 388/637/2 447/729/2 437/713/2
f 408/669/140 429/697/140 411/672/140
f 387/634/140 455/743/140 392/643/140
f 343/545/139 429/698/139 430/700/139
f 406/667/169 414/676/169 405/664/169
f 412/673/171 404/662/171 410/671/171
f 401/656/167 421/683/167 399/651/167
f 402/658/168 422/684/168 420/682/168
f 417/679/170 425/690/170 418/680/170
f 416/678/168 424/688/168 423/686/168
f 408/669/169 427/694/169 430/699/169
f 428/696/170 411/672/170 429/697/170
f 462/750/172 451/736/172 449/731/172
f 463/751/173 450/734/173 451/736/173
f 434/708/174 472/760/174 436/711/174
f 472/760/175 435/710/175 436/711/175
f 458/746/176 475/766/176 460/748/176
f 475/766/177 459/747/177 460/748/177
f 447/729/178 439/718/178 437/713/178
f 448/730/175 438/716/175 439/718/175
f 465/753/179 454/742/179 452/737/179
f 466/754/180 453/740/180 454/742/180
f 431/702/181 469/757/181 433/705/181
f 469/757/182 432/704/182 433/705/182
f 455/743/183 478/772/183 457/745/183
f 478/772/184 456/744/184 457/745/184
f 444/726/185 442/724/185 440/719/185
f 442/724/186 443/725/186 441/722/186
f 419/681/1 432/704/1 467/755/1
f 524/839/2 479/773/2 516/830/2
f 542/865/138 515/829/138 534/857/138
f 550/882/136 494/796/136 529/848/136
f 488/784/187 497/802/187 480/774/187
f 506/812/1 533/856/1 498/803/1
f 479/773/188 496/801/188 481/775/188
f 496/801/189 482/776/189 481/775/189
f 482/776/190 494/797/190 483/777/190
f 483/777/191 493/794/191 484/778/191
f 493/795/192 485/780/192 484/779/192
f 485/780/193 491/790/193 486/781/193
f 486/781/194 490/788/194 487/782/194
f 490/788/195 480/774/195 487/782/195
f 498/803/196 508/816/196 506/812/196
f 505/810/197 509/818/197 508/816/197
f 509/818/198 503/808/198 510/819/198
f 503/808/199 511/822/199 510/819/199
f 502/807/200 512/824/200 511/822/200
f 501/806/201 513/826/201 512/824/201
f 513/826/202 499/804/202 514/827/202
f 499/804/203 507/814/203 514/827/203
f 534/857/204 544/870/204 542/865/204
f 544/870/205 540/863/205 545/871/205
f 540/863/206 546/874/206 545/871/206
f 539/862/207 547/876/207 546/874/207
f 547/876/208 537/860/208 548/877/208
f 537/860/209 549/880/209 548/877/209
f 549/880/210 535/858/210 550/881/210
f 535/858/211 543/868/211 550/881/211
f 524/839/212 523/837/212 526/842/212
f 523/837/213 527/845/213 526/842/213
f 527/845/214 521/835/214 528/846/214
f 521/835/215 529/849/215 528/846/215
f 529/849/216 519/833/216 530/851/216
f 530/851/217 518/832/217 531/852/217
f 518/832/218 532/855/218 531/852/218
f 532/855/219 515/829/219 525/840/219
f 587/919/220 593/925/220 551/883/220
f 587/919/221 578/910/221 581/913/221
f 628/960/222 627/959/222 581/913/222
f 604/936/223 628/960/223 582/914/223
f 604/936/223 579/911/223 568/900/223
f 591/923/221 604/936/221 568/900/221
f 608/940/221 591/923/221 555/887/221
f 596/928/221 608/940/221 572/904/221
f 597/929/221 596/928/221 560/892/221
f 589/921/222 597/929/222 561/893/222
f 589/921/221 553/885/221 583/915/221
f 620/952/221 619/951/221 583/915/221
f 603/935/222 620/952/222 584/916/222
f 603/935/221 567/899/221 571/903/221
f 607/939/222 603/935/222 571/903/222
f 588/920/222 566/898/222 552/884/222
f 655/987/224 625/957/224 661/999/224
f 594/926/221 588/920/221 558/890/221
f 590/922/221 594/926/221 554/886/221
f 590/922/221 577/909/221 580/912/221
f 630/962/222 629/961/222 580/912/222
f 600/932/223 630/962/223 574/906/223
f 600/932/223 576/908/223 564/896/223
f 598/930/221 600/932/221 564/896/221
f 598/930/222 562/894/222 565/897/222
f 601/933/223 565/897/223 559/891/223
f 595/927/221 559/891/221 556/888/221
f 609/941/225 592/924/225 556/888/225
f 609/941/220 573/905/220 585/917/220
f 602/934/221 571/903/221 566/898/221
f 611/943/222 622/954/222 586/918/222
f 611/943/221 575/907/221 563/895/221
f 599/931/226 611/943/226 563/895/226
f 605/937/221 599/931/221 569/901/221
f 606/938/222 605/937/222 570/902/222
f 593/925/222 606/938/222 557/889/222
f 587/919/227 551/883/227 578/910/227
f 587/919/221 581/913/221 627/959/221
f 628/960/228 581/913/228 582/914/228
f 604/936/223 582/914/223 579/911/223
f 591/923/221 568/900/221 555/887/221
f 608/940/222 555/887/222 572/904/222
f 596/928/221 572/904/221 560/892/221
f 597/929/222 560/892/222 561/893/222
f 589/921/222 561/893/222 553/885/222
f 589/921/222 583/915/222 619/951/222
f 620/952/222 583/915/222 584/916/222
f 603/935/222 584/916/222 567/899/222
f 607/939/222 571/903/222 602/934/222
f 602/934/221 566/898/221 588/920/221
f 588/920/222 552/884/222 558/890/222
f 594/926/222 558/890/222 554/886/222
f 590/922/221 554/886/221 577/909/221
f 590/922/221 580/912/221 629/961/221
f 630/962/228 580/912/228 574/906/228
f 600/932/223 574/906/223 576/908/223
f 598/930/221 564/896/221 562/894/221
f 598/930/222 565/897/222 601/933/222
f 601/933/221 559/891/221 595/927/221
f 595/927/223 556/888/223 592/924/223
f 609/941/221 556/888/221 573/905/221
f 609/941/222 585/917/222 621/953/222
f 586/918/222 622/954/222 585/917/222
f 611/943/229 586/918/229 575/907/229
f 599/931/223 563/895/223 569/901/223
f 605/937/221 569/901/221 570/902/221
f 606/938/222 570/902/222 557/889/222
f 593/925/222 557/889/222 551/883/222
f 585/917/222 622/954/222 621/953/222
f 655/987/139 649/981/139 646/978/139
f 684/1046/136 649/981/136 683/1044/136
f 672/1021/224 650/982/224 684/1046/224
f 672/1021/224 636/968/224 647/979/224
f 659/995/136 636/968/136 672/1021/136
f 676/1029/139 612/944/139 659/995/139
f 664/1005/136 640/972/136 676/1029/136
f 665/1007/139 617/949/139 664/1005/139
f 657/991/224 615/947/224 665/1007/224
f 657/991/230 651/983/230 616/948/230
f 680/1038/136 651/983/136 679/1036/136
f 671/1019/231 652/984/231 680/1038/231
f 671/1019/224 639/971/224 635/967/224
f 675/1027/224 639/971/224 671/1019/224
f 656/989/224 626/958/224 634/966/224
f 662/1001/136 623/955/136 656/989/136
f 658/993/136 613/945/136 662/1001/136
f 658/993/136 648/980/136 645/977/136
f 686/1050/136 648/980/136 685/1048/136
f 668/1013/139 642/974/139 686/1050/139
f 668/1013/139 632/964/139 644/976/139
f 666/1009/136 632/964/136 668/1013/136
f 666/1009/232 633/965/232 614/946/232
f 669/1015/139 618/950/139 633/965/139
f 663/1003/139 610/942/139 618/950/139
f 677/1031/139 610/942/139 660/997/139
f 677/1031/136 653/985/136 641/973/136
f 670/1017/139 634/966/139 639/971/139
f 678/1033/136 654/986/136 682/1042/136
f 678/1033/136 631/963/136 643/975/136
f 667/1011/139 631/963/139 678/1033/139
f 673/1023/136 637/969/136 667/1011/136
f 674/1025/136 638/970/136 673/1023/136
f 661/999/233 624/956/233 674/1025/233
f 655/987/139 646/978/139 625/957/139
f 655/987/224 683/1044/224 649/981/224
f 684/1046/234 650/982/234 649/981/234
f 672/1021/224 647/979/224 650/982/224
f 659/995/136 612/944/136 636/968/136
f 676/1029/234 640/972/234 612/944/234
f 664/1005/136 617/949/136 640/972/136
f 665/1007/136 615/947/136 617/949/136
f 657/991/224 616/948/224 615/947/224
f 657/991/230 679/1036/230 651/983/230
f 680/1038/224 652/984/224 651/983/224
f 671/1019/231 635/967/231 652/984/231
f 675/1027/136 670/1017/136 639/971/136
f 670/1017/139 656/989/139 634/966/139
f 656/989/136 623/955/136 626/958/136
f 662/1001/136 613/945/136 623/955/136
f 658/993/136 645/977/136 613/945/136
f 658/993/224 685/1048/224 648/980/224
f 686/1050/136 642/974/136 648/980/136
f 668/1013/139 644/976/139 642/974/139
f 666/1009/234 614/946/234 632/964/234
f 666/1009/139 669/1015/139 633/965/139
f 669/1015/136 663/1003/136 618/950/136
f 663/1003/139 660/997/139 610/942/139
f 677/1031/136 641/973/136 610/942/136
f 677/1031/136 681/1040/136 653/985/136
f 654/986/224 653/985/224 682/1042/224
f 678/1033/136 643/975/136 654/986/136
f 667/1011/139 637/969/139 631/963/139
f 673/1023/136 638/970/136 637/969/136
f 674/1025/136 624/956/136 638/970/136
f 661/999/235 625/957/235 624/956/235
f 653/985/224 681/1040/224 682/1042/224
f 611/943/236 667/1012/236 678/1034/236
f 563/895/237 637/969/237 569/901/237
f 622/954/1 678/1035/1 682/1043/1
f 558/890/157 613/945/157 554/886/157
f 559/891/238 610/942/238 556/888/238
f 620/952/140 679/1037/140 619/951/140
f 627/959/138 655/988/138 587/919/138
f 560/892/239 615/947/239 561/893/239
f 604/936/187 684/1047/187 628/960/187
f 619/951/1 657/992/1 589/921/1
f 562/894/240 632/964/240 614/946/240
f 620/952/2 671/1020/2 680/1039/2
f 565/897/241 614/946/241 633/965/241
f 621/953/2 677/1032/2 609/941/2
f 566/898/242 626/958/242 552/884/242
f 630/962/2 685/1049/2 629/961/2
f 622/954/243 681/1041/243 621/953/243
f 566/898/244 639/971/244 634/966/244
f 629/961/187 658/994/187 590/922/187
f 604/936/245 659/996/245 672/1022/245
f 572/904/246 617/949/246 560/892/246
f 627/959/1 684/1047/1 683/1045/1
f 606/938/148 661/1000/148 674/1026/148
f 573/905/247 610/942/247 641/973/247
f 605/937/155 667/1012/155 599/931/155
f 564/896/163 644/976/163 632/964/163
f 551/883/248 624/956/248 625/957/248
f 590/922/249 662/1002/249 594/926/249
f 554/886/152 645/977/152 577/909/152
f 561/893/250 616/948/250 553/885/250
f 595/927/160 660/998/160 663/1004/160
f 568/900/144 647/979/144 636/968/144
f 565/897/251 618/950/251 559/891/251
f 596/928/158 665/1008/158 664/1006/158
f 580/912/166 642/974/166 574/906/166
f 569/901/137 638/970/137 570/902/137
f 598/930/252 668/1014/252 600/932/252
f 578/910/140 649/981/140 581/913/140
f 571/903/253 635/967/253 639/971/253
f 601/933/154 666/1010/154 598/930/154
f 552/884/254 623/955/254 558/890/254
f 572/904/255 612/944/255 640/972/255
f 588/920/137 670/1018/137 602/934/137
f 574/906/187 644/976/187 576/908/187
f 575/907/256 631/963/256 563/895/256
f 602/934/257 675/1028/257 607/939/257
f 586/918/2 643/975/2 575/907/2
f 578/910/147 625/957/147 646/978/147
f 608/940/258 664/1006/258 676/1030/258
f 582/914/138 647/979/138 579/911/138
f 577/909/259 648/980/259 580/912/259
f 609/941/260 660/998/260 592/924/260
f 583/915/243 652/984/243 584/916/243
f 582/914/261 649/981/261 650/982/261
f 587/919/262 661/1000/262 593/925/262
f 553/885/2 651/983/2 583/915/2
f 600/932/138 686/1051/138 630/962/138
f 589/921/263 665/1008/263 597/929/263
f 567/899/1 652/984/1 635/967/1
f 595/927/264 669/1016/264 601/933/264
f 585/917/1 641/973/1 653/985/1
f 605/937/149 674/1026/149 673/1024/149
f 585/917/140 654/986/140 586/918/140
f 603/935/265 675/1028/265 671/1020/265
f 555/887/266 636/968/266 612/944/266
f 594/926/267 656/990/267 588/920/267
f 591/923/241 676/1030/241 659/996/241
f 557/889/161 638/970/161 624/956/161
f 12/23/1 2/3/1 25/46/1
f 1/1/2 4/8/2 28/50/2
f 1/2/3 2/4/3 12/24/3
f 12/24/3 14/27/3 15/29/3
f 15/29/3 16/31/3 17/33/3
f 17/33/3 18/35/3 19/37/3
f 19/37/3 20/39/3 13/25/3
f 13/25/3 3/5/3 5/9/3
f 5/9/3 6/11/3 7/13/3
f 7/13/3 8/15/3 9/17/3
f 9/17/3 10/19/3 11/21/3
f 11/21/3 4/7/3 1/2/3
f 1/2/3 12/24/3 15/29/3
f 15/29/3 17/33/3 19/37/3
f 19/37/3 13/25/3 5/9/3
f 5/9/3 7/13/3 9/17/3
f 9/17/3 11/21/3 1/2/3
f 1/2/3 15/29/3 19/37/3
f 19/37/3 5/9/3 9/17/3
f 11/22/4 10/20/4 37/62/4
f 4/8/5 11/22/5 34/58/5
f 5/10/6 3/6/6 31/54/6
f 10/20/7 9/18/7 40/66/7
f 9/18/8 8/16/8 43/70/8
f 8/16/9 7/14/9 46/74/9
f 7/14/10 6/12/10 49/78/10
f 6/12/268 5/10/268 52/82/268
f 61/94/12 55/86/12 13/26/12
f 3/6/13 13/26/13 55/86/13
f 64/98/68 61/94/68 20/40/68
f 79/118/269 76/114/269 15/30/269
f 76/114/16 73/110/16 16/32/16
f 73/110/17 70/106/17 17/34/17
f 70/106/18 67/102/18 18/36/18
f 67/102/19 64/98/19 19/38/19
f 58/90/20 79/118/20 14/28/20
f 33/57/88 27/49/88 29/52/88
f 35/60/89 29/51/89 28/50/89
f 36/61/90 33/57/90 35/59/90
f 35/60/270 34/58/270 37/62/270
f 39/65/25 36/61/25 38/63/25
f 38/64/271 37/62/271 40/66/271
f 42/69/93 39/65/93 41/67/93
f 41/68/272 40/66/272 43/70/272
f 42/69/273 44/71/273 47/75/273
f 47/76/30 44/72/30 43/70/30
f 45/73/274 47/75/274 50/79/274
f 50/80/275 47/76/275 46/74/275
f 48/77/276 50/79/276 53/83/276
f 53/84/277 50/80/277 49/78/277
f 51/81/278 53/83/278 32/56/278
f 53/84/279 52/82/280 31/54/281
f 78/117/282 80/119/282 59/91/282
f 80/120/283 79/118/283 58/90/283
f 75/113/284 77/115/284 80/119/284
f 80/120/285 77/116/285 76/114/285
f 72/109/286 74/111/286 77/115/286
f 77/116/287 74/112/287 73/110/287
f 69/105/288 71/107/288 74/111/288
f 74/112/289 71/108/289 70/106/289
f 66/101/80 68/103/80 71/107/80
f 71/108/81 68/104/81 67/102/81
f 66/101/82 63/97/82 65/99/82
f 68/104/290 65/100/290 64/98/290
f 60/93/291 62/95/291 65/99/291
f 65/100/292 62/96/292 61/94/292
f 60/93/86 54/85/86 56/88/86
f 62/96/293 56/87/56 55/86/294
f 31/54/57 55/86/57 56/87/57
f 56/88/58 54/85/58 30/53/58
f 25/46/59 26/47/59 59/92/59
f 26/48/60 24/45/60 57/89/60
f 22/42/61 28/50/61 29/51/61
f 23/44/295 29/52/295 27/49/295
f 30/53/63 54/85/63 60/93/63
f 60/93/63 63/97/63 66/101/63
f 66/101/63 69/105/63 72/109/63
f 72/109/63 75/113/63 78/117/63
f 78/117/63 57/89/63 24/45/63
f 24/45/63 21/41/63 27/49/63
f 27/49/63 33/57/63 36/61/63
f 36/61/63 39/65/63 42/69/63
f 42/69/63 45/73/63 48/77/63
f 48/77/63 51/81/63 30/53/63
f 30/53/63 60/93/63 66/101/63
f 66/101/63 72/109/63 78/117/63
f 78/117/63 24/45/63 27/49/63
f 27/49/63 36/61/63 42/69/63
f 42/69/63 48/77/63 30/53/63
f 30/53/63 66/101/63 78/117/63
f 78/117/63 27/49/63 42/69/63
f 90/142/3 87/135/3 84/129/3
f 88/137/13 89/140/13 82/125/13
f 85/131/63 83/127/63 81/122/63
f 85/132/1 82/126/1 89/139/1
f 89/139/1 90/141/1 86/134/1
f 90/142/64 89/140/64 88/137/64
f 81/123/2 83/128/2 84/130/2
f 84/130/2 87/136/2 88/138/2
f 100/164/63 97/157/63 94/151/63
f 98/159/65 99/162/65 92/147/65
f 95/153/3 93/149/3 91/144/3
f 95/154/1 92/148/1 99/161/1
f 99/161/1 100/163/1 96/156/1
f 100/164/66 99/162/66 98/159/66
f 91/145/2 93/150/2 94/152/2
f 94/152/2 97/158/2 98/160/2
f 102/166/13 104/168/13 103/167/13
f 107/171/63 105/169/63 101/165/63
f 104/168/3 102/166/3 106/170/3
f 133/218/2 110/175/2 120/195/2
f 136/222/1 112/180/1 109/173/1
f 120/196/3 110/176/3 109/174/3
f 109/174/3 112/179/3 119/193/3
f 119/193/3 118/191/3 117/189/3
f 117/189/3 116/187/3 115/185/3
f 115/185/3 114/183/3 113/181/3
f 113/181/3 111/177/3 121/197/3
f 121/197/3 128/211/3 127/209/3
f 127/209/3 126/207/3 125/205/3
f 125/205/3 124/203/3 123/201/3
f 123/201/3 122/199/3 120/196/3
f 120/196/3 109/174/3 119/193/3
f 119/193/3 117/189/3 115/185/3
f 115/185/3 113/181/3 121/197/3
f 121/197/3 127/209/3 125/205/3
f 125/205/3 123/201/3 120/196/3
f 120/196/3 119/193/3 115/185/3
f 115/185/3 121/197/3 125/205/3
f 145/234/67 118/192/67 119/194/67
f 142/230/20 119/194/20 112/180/20
f 139/226/12 111/178/12 113/182/12
f 148/238/16 117/190/16 118/192/16
f 151/242/17 116/188/17 117/190/17
f 154/246/18 115/186/18 116/188/18
f 157/250/19 114/184/19 115/186/19
f 160/254/296 113/182/296 114/184/296
f 121/198/6 163/258/6 169/266/6
f 163/258/13 121/198/13 111/178/13
f 128/212/11 169/266/11 172/270/11
f 123/202/297 184/286/297 187/290/297
f 124/204/7 181/282/7 184/286/7
f 125/206/8 178/278/8 181/282/8
f 126/208/9 175/274/9 178/278/9
f 127/210/10 172/270/10 175/274/10
f 122/200/71 187/290/71 166/262/71
f 141/229/298 143/231/298 137/223/298
f 143/232/73 142/230/73 136/222/73
f 144/233/284 146/235/284 143/231/284
f 145/234/299 142/230/299 143/232/299
f 147/237/76 149/239/76 146/235/76
f 148/238/300 145/234/300 146/236/300
f 150/241/301 152/244/301 149/239/301
f 151/242/302 148/238/302 149/240/302
f 155/248/303 152/244/303 150/241/303
f 155/247/81 154/246/81 151/242/81
f 158/252/49 155/248/49 153/245/49
f 158/251/304 157/250/304 154/246/304
f 161/255/305 158/252/305 156/249/305
f 161/256/306 160/254/306 157/250/306
f 140/227/307 161/255/307 159/253/307
f 139/226/308 160/254/308 161/256/308
f 167/263/21 188/291/21 186/289/21
f 166/262/309 187/290/309 188/292/309
f 188/291/23 185/287/23 183/285/23
f 188/292/310 187/290/310 184/286/310
f 185/287/25 182/283/25 180/281/25
f 185/288/311 184/286/311 181/282/311
f 182/283/312 179/279/312 177/277/312
f 182/284/313 181/282/313 178/278/313
f 179/279/29 176/275/29 174/273/29
f 179/280/314 178/278/314 175/274/314
f 174/273/274 176/275/274 173/272/274
f 176/276/315 175/274/315 172/270/315
f 173/272/316 170/267/316 168/265/316
f 172/270/317 169/266/317 170/268/317
f 168/265/278 170/267/278 164/260/278
f 170/268/318 169/266/318 163/258/318
f 139/226/57 140/228/57 164/259/57
f 138/225/58 162/257/58 164/260/58
f 167/264/61 134/219/61 133/218/61
f 165/261/62 132/217/62 134/220/62
f 130/214/59 131/215/59 137/224/59
f 131/216/319 129/213/319 135/221/320
f 168/265/63 162/257/63 138/225/63
f 138/225/63 159/253/63 156/249/63
f 156/249/63 153/245/63 150/241/63
f 150/241/63 147/237/63 144/233/63
f 144/233/63 141/229/63 135/221/63
f 135/221/63 129/213/63 132/217/63
f 132/217/63 165/261/63 186/289/63
f 186/289/63 183/285/63 180/281/63
f 180/281/63 177/277/63 174/273/63
f 174/273/63 171/269/63 168/265/63
f 168/265/63 138/225/63 156/249/63
f 156/249/63 150/241/63 144/233/63
f 144/233/63 135/221/63 132/217/63
f 132/217/63 186/289/63 180/281/63
f 180/281/63 174/273/63 168/265/63
f 168/265/63 156/249/63 144/233/63
f 144/233/63 132/217/63 180/281/63
f 192/301/3 195/307/3 198/314/3
f 190/297/13 197/312/13 196/309/13
f 189/294/63 191/299/63 193/303/63
f 197/311/2 190/298/2 193/304/2
f 193/304/2 194/306/2 198/313/2
f 196/309/102 197/312/102 198/314/102
f 192/302/1 191/300/1 189/295/1
f 189/295/1 196/310/1 195/308/1
f 202/323/63 205/329/63 208/336/63
f 200/319/65 207/334/65 206/331/65
f 199/316/3 201/321/3 203/325/3
f 207/333/2 200/320/2 203/326/2
f 203/326/2 204/328/2 208/335/2
f 206/331/103 207/334/103 208/336/103
f 202/324/1 201/322/1 199/317/1
f 199/317/1 206/332/1 205/330/1
f 211/339/13 212/340/13 210/338/13
f 209/337/63 213/341/63 215/343/63
f 214/342/3 210/338/3 212/340/3
f 221/349/104 233/362/104 234/363/104
f 228/356/105 240/369/105 229/358/105
f 218/346/106 230/359/106 231/360/106
f 226/354/321 225/353/321 237/366/321
f 222/350/108 234/363/108 235/364/108
f 219/347/109 231/360/109 232/361/109
f 226/354/322 238/367/322 239/368/322
f 223/351/111 235/364/111 236/365/111
f 220/348/112 232/361/112 233/362/112
f 227/355/113 239/368/113 240/370/113
f 217/345/114 229/358/114 230/359/114
f 224/352/115 236/365/115 237/366/115
f 222/350/3 246/376/3 245/375/3
f 217/345/3 241/371/3 252/382/3
f 218/346/3 219/347/3 243/373/3
f 225/353/3 226/354/3 250/380/3
f 223/351/3 247/377/3 246/376/3
f 219/347/3 220/348/3 244/374/3
f 227/355/3 251/381/3 250/380/3
f 223/351/3 224/352/3 248/378/3
f 221/349/3 245/375/3 244/374/3
f 228/357/3 252/383/3 251/381/3
f 217/345/3 218/346/3 242/372/3
f 224/352/3 225/353/3 249/379/3
f 244/374/116 256/387/116 255/386/116
f 251/381/117 263/394/117 262/393/117
f 248/378/118 260/391/118 259/390/118
f 245/375/119 257/388/119 256/387/119
f 252/383/120 264/395/120 263/394/120
f 242/372/121 254/385/121 253/384/121
f 249/379/122 261/392/122 260/391/122
f 246/376/123 258/389/123 257/388/123
f 241/371/124 253/384/124 264/396/124
f 243/373/125 255/386/125 254/385/125
f 250/380/126 262/393/126 261/392/126
f 247/377/127 259/390/127 258/389/127
f 256/387/3 268/400/3 267/399/3
f 263/394/3 275/407/3 274/406/3
f 260/391/3 272/404/3 271/403/3
f 256/387/3 257/388/3 269/401/3
f 264/395/3 276/409/3 275/407/3
f 254/385/3 266/398/3 265/397/3
f 260/391/3 261/392/3 273/405/3
f 258/389/3 270/402/3 269/401/3
f 264/396/3 253/384/3 265/397/3
f 255/386/3 267/399/3 266/398/3
f 262/393/3 274/406/3 273/405/3
f 258/389/3 259/390/3 271/403/3
f 271/403/108 283/422/108 282/420/108
f 268/400/128 280/416/128 279/414/128
f 275/407/110 287/430/110 286/428/110
f 272/404/111 284/424/111 283/422/111
f 269/401/323 281/418/323 280/416/323
f 276/409/113 288/432/113 287/430/113
f 266/398/114 278/412/114 277/410/114
f 273/405/324 285/426/324 284/424/324
f 270/402/325 282/420/325 281/418/325
f 265/397/105 277/410/105 288/433/105
f 267/399/106 279/414/106 278/412/106
f 274/406/326 286/428/326 285/426/326
f 277/411/3 278/413/3 279/415/3
f 279/415/327 280/417/327 281/419/327
f 281/419/328 282/421/328 283/423/328
f 283/423/329 284/425/329 285/427/329
f 285/427/329 286/429/329 287/431/329
f 287/431/3 288/434/3 277/411/3
f 277/411/328 279/415/328 281/419/328
f 281/419/3 283/423/3 285/427/3
f 285/427/330 287/431/330 277/411/330
f 290/437/13 292/442/13 291/441/13
f 292/443/1 296/448/1 295/447/1
f 296/448/65 294/446/65 293/445/65
f 294/446/2 290/438/2 289/436/2
f 292/444/3 290/439/3 294/446/3
f 304/466/63 300/458/63 298/452/63
f 305/468/3 301/460/3 302/461/3
f 298/453/2 301/459/2 305/467/2
f 300/458/65 302/461/65 301/460/65
f 308/473/2 297/450/2 303/463/2
f 303/463/2 305/467/2 307/471/2
f 304/465/1 306/469/1 302/462/1
f 306/469/1 304/465/1 299/455/1
f 299/455/1 309/475/1 310/477/1
f 297/451/13 308/474/13 309/476/13
f 299/456/63 304/466/63 303/464/63
f 308/474/135 307/472/135 310/478/135
f 307/472/136 305/468/136 306/470/136
f 387/635/136 388/636/136 340/537/136
f 340/537/139 337/531/139 314/485/139
f 340/537/136 314/485/136 318/493/136
f 327/511/136 344/547/136 387/635/136
f 331/519/139 327/511/139 387/635/139
f 387/635/136 340/537/136 318/493/136
f 387/635/136 318/493/136 312/481/136
f 326/509/136 331/519/136 387/635/136
f 366/590/331 365/588/331 329/516/331
f 395/646/138 468/756/138 431/702/138
f 426/691/332 440/720/332 442/723/332
f 442/723/333 441/721/333 383/625/333
f 383/625/139 334/526/139 340/537/139
f 388/636/334 437/714/334 439/717/334
f 439/717/335 438/715/335 423/685/335
f 388/636/136 439/717/136 423/685/136
f 426/691/136 442/723/136 383/625/136
f 425/689/136 426/691/136 383/625/136
f 340/537/136 388/636/136 423/685/136
f 340/537/139 423/685/139 424/687/139
f 425/689/136 383/625/136 340/537/136
f 426/692/140 417/679/140 444/726/140
f 406/665/140 453/740/140 464/752/140
f 319/496/336 355/568/336 361/580/336
f 403/660/138 412/673/138 462/750/138
f 359/576/256 371/600/256 335/528/256
f 456/744/1 476/768/1 427/694/1
f 389/638/139 342/542/139 341/540/139
f 386/631/337 452/738/337 454/741/337
f 454/741/338 453/739/338 406/666/338
f 386/631/136 454/741/136 406/666/136
f 451/735/339 450/733/339 389/638/339
f 403/659/340 449/732/340 451/735/340
f 403/659/136 451/735/136 389/638/136
f 341/540/136 386/631/136 406/666/136
f 341/540/136 406/666/136 405/663/136
f 403/659/136 389/638/136 341/540/136
f 341/540/136 405/663/136 404/661/136
f 328/514/144 364/586/144 375/608/144
f 322/501/240 358/574/240 360/578/240
f 380/619/138 379/617/138 343/544/138
f 390/641/136 343/545/136 313/484/136
f 390/641/136 313/484/136 321/499/136
f 342/542/136 389/638/136 390/641/136
f 328/513/224 339/536/224 342/542/224
f 315/488/139 328/513/139 342/542/139
f 390/641/136 321/499/136 320/498/136
f 332/521/136 315/488/136 342/542/136
f 390/641/139 320/498/139 332/521/139
f 384/628/136 345/549/136 333/523/136
f 384/628/224 333/523/224 316/489/224
f 334/526/136 383/625/136 384/628/136
f 324/505/224 336/529/224 334/526/224
f 322/502/231 324/505/231 334/526/231
f 384/628/139 316/489/139 319/495/139
f 325/507/341 322/502/341 334/526/341
f 384/628/136 319/495/136 325/507/136
f 351/560/146 364/586/146 328/514/146
f 374/606/147 347/552/147 311/480/147
f 458/746/2 409/670/2 428/696/2
f 393/644/140 459/747/140 473/762/140
f 340/538/138 376/610/138 373/604/138
f 312/482/254 318/494/254 354/566/254
f 383/626/2 441/722/2 443/725/2
f 312/482/149 348/554/149 362/582/149
f 386/631/136 341/540/136 338/533/136
f 386/631/231 338/533/231 311/479/231
f 346/551/139 385/630/139 386/631/139
f 323/504/136 335/527/136 346/551/136
f 329/515/224 323/504/224 346/551/224
f 386/631/136 311/479/136 317/492/136
f 330/517/235 329/515/235 346/551/235
f 386/631/139 317/492/139 330/517/139
f 378/615/150 377/612/150 341/541/150
f 349/556/151 357/572/151 321/500/151
f 382/623/140 381/621/140 345/548/140
f 337/532/152 373/604/152 350/558/152
f 331/520/153 367/592/153 363/584/153
f 345/548/1 381/621/1 369/596/1
f 332/522/154 368/594/154 351/560/154
f 375/608/138 378/615/138 342/543/138
f 331/520/155 326/510/155 362/582/155
f 335/528/2 371/600/2 382/623/2
f 311/480/342 347/552/342 353/564/342
f 314/486/343 350/558/343 354/566/343
f 343/544/2 379/617/2 349/556/2
f 319/496/158 316/490/158 352/562/158
f 325/508/344 361/580/344 358/574/344
f 344/546/1 327/512/1 363/584/1
f 321/500/160 357/572/160 356/570/160
f 353/564/345 366/590/345 330/518/345
f 333/524/247 369/596/247 352/562/247
f 336/530/163 324/506/163 360/578/163
f 356/570/164 368/594/164 332/522/164
f 329/516/165 365/588/165 359/576/165
f 336/530/140 372/602/140 370/598/140
f 377/613/140 374/606/140 338/534/140
f 370/598/166 376/610/166 340/538/166
f 373/605/139 376/611/139 370/599/139
f 372/603/232 360/579/232 358/575/232
f 373/605/139 370/599/139 372/603/139
f 354/567/233 350/559/233 373/605/233
f 362/583/235 348/555/235 354/567/235
f 363/585/230 367/593/230 362/583/230
f 379/618/136 380/620/136 363/585/136
f 356/571/231 357/573/231 349/557/231
f 349/557/136 379/618/136 363/585/136
f 363/585/139 362/583/139 354/567/139
f 354/567/139 373/605/139 372/603/139
f 372/603/136 358/575/136 361/581/136
f 361/581/346 355/569/346 352/563/346
f 369/597/136 381/622/136 382/624/136
f 361/581/224 352/563/224 369/597/224
f 354/567/139 372/603/139 361/581/139
f 349/557/136 363/585/136 354/567/136
f 368/595/231 356/571/231 349/557/231
f 364/587/231 351/561/231 368/595/231
f 377/614/136 378/616/136 375/609/136
f 375/609/231 364/587/231 368/595/231
f 368/595/136 349/557/136 354/567/136
f 354/567/136 361/581/136 369/597/136
f 369/597/136 382/624/136 371/601/136
f 371/601/347 359/577/347 365/589/347
f 365/589/348 366/591/348 353/565/348
f 353/565/235 347/553/235 374/607/235
f 374/607/136 377/614/136 375/609/136
f 375/609/139 368/595/139 354/567/139
f 354/567/136 369/597/136 371/601/136
f 371/601/139 365/589/139 353/565/139
f 353/565/233 374/607/233 375/609/233
f 375/609/136 354/567/136 371/601/136
f 397/648/167 386/632/167 385/629/167
f 383/626/168 396/647/168 395/646/168
f 394/645/169 393/644/169 390/640/169
f 388/637/170 387/634/170 392/643/170
f 385/629/138 435/710/138 470/758/138
f 402/658/2 420/682/2 471/759/2
f 404/662/1 405/664/1 414/676/1
f 386/633/1 397/649/1 465/753/1
f 389/639/1 450/734/1 461/749/1
f 400/654/138 399/651/138 421/683/138
f 402/657/349 434/707/349 436/712/349
f 436/712/338 435/709/338 385/630/338
f 385/630/139 346/551/139 345/549/139
f 384/628/350 431/701/350 433/706/350
f 433/706/351 432/703/351 401/655/351
f 384/628/136 433/706/136 401/655/136
f 402/657/136 436/712/136 385/630/136
f 400/653/139 402/657/139 385/630/139
f 345/549/139 384/628/139 401/655/139
f 345/549/233 401/655/233 399/652/233
f 400/653/139 385/630/139 345/549/139
f 446/728/138 416/678/138 423/686/138
f 424/688/2 415/677/2 418/680/2
f 388/637/2 391/642/2 447/729/2
f 408/669/140 430/699/140 429/697/140
f 387/634/140 477/770/140 455/743/140
f 427/693/337 476/767/337 478/771/337
f 478/771/352 477/769/352 387/635/352
f 387/635/136 344/547/136 343/545/136
f 390/641/352 473/761/352 475/765/352
f 475/765/353 474/763/353 428/695/353
f 390/641/139 475/765/139 428/695/139
f 427/693/136 478/771/136 387/635/136
f 430/700/224 427/693/224 387/635/224
f 343/545/136 390/641/136 428/695/136
f 343/545/230 428/695/230 429/698/230
f 430/700/139 387/635/139 343/545/139
f 406/667/169 413/675/169 414/676/169
f 412/673/167 403/660/167 404/662/167
f 401/656/167 419/681/167 421/683/167
f 402/658/354 400/654/354 422/684/354
f 417/679/170 426/692/170 425/690/170
f 416/678/168 415/677/168 424/688/168
f 408/669/169 407/668/169 427/694/169
f 428/696/170 409/670/170 411/672/170
f 462/750/355 463/751/355 451/736/355
f 463/751/356 461/749/356 450/734/356
f 434/708/178 471/759/178 472/760/178
f 472/760/357 470/758/357 435/710/357
f 458/746/358 474/764/358 475/766/358
f 475/766/359 473/762/359 459/747/359
f 447/729/360 448/730/360 439/718/360
f 448/730/361 446/728/361 438/716/361
f 465/753/362 466/754/362 454/742/362
f 466/754/363 464/752/363 453/740/363
f 431/702/364 468/756/364 469/757/364
f 469/757/365 467/755/365 432/704/365
f 455/743/366 477/770/366 478/772/366
f 478/772/367 476/768/367 456/744/367
f 444/726/368 445/727/185 442/724/368
f 442/724/369 445/727/369 443/725/369
f 419/681/1 401/656/1 432/704/1
f 524/839/2 489/786/2 479/773/2
f 542/865/138 525/840/138 515/829/138
f 525/841/370 542/866/370 544/869/370
f 544/869/347 545/872/347 546/873/347
f 546/873/371 547/875/371 548/878/371
f 548/878/139 549/879/139 550/882/139
f 550/882/230 543/867/230 506/811/230
f 506/811/372 508/815/372 509/817/372
f 509/817/139 510/820/139 511/821/139
f 511/821/373 512/823/373 513/825/373
f 513/825/374 514/828/374 507/813/374
f 507/813/375 488/783/375 490/787/375
f 490/787/376 491/789/376 492/791/376
f 492/791/377 493/793/377 494/796/377
f 494/796/139 495/798/139 496/800/139
f 496/800/234 489/785/234 524/838/234
f 524/838/378 526/843/378 527/844/378
f 527/844/379 528/847/379 529/848/379
f 529/848/380 530/850/380 531/853/380
f 531/853/139 532/854/139 525/841/139
f 525/841/224 544/869/224 546/873/224
f 546/873/139 548/878/139 550/882/139
f 550/882/381 506/811/381 509/817/381
f 509/817/136 511/821/136 513/825/136
f 513/825/139 507/813/139 490/787/139
f 490/787/382 492/791/382 494/796/382
f 494/796/234 496/800/234 524/838/234
f 524/838/232 527/844/232 529/848/232
f 529/848/224 531/853/224 525/841/224
f 525/841/136 546/873/136 550/882/136
f 550/882/136 509/817/136 513/825/136
f 513/825/136 490/787/136 494/796/136
f 494/796/136 524/838/136 529/848/136
f 529/848/136 525/841/136 550/882/136
f 550/882/136 513/825/136 494/796/136
f 488/784/187 507/814/187 497/802/187
f 506/812/1 543/868/1 533/856/1
f 479/773/188 489/786/188 496/801/188
f 496/801/189 495/799/189 482/776/189
f 482/776/190 495/799/190 494/797/190
f 483/777/191 494/797/191 493/794/191
f 493/795/192 492/792/192 485/780/192
f 485/780/383 492/792/383 491/790/383
f 486/781/194 491/790/194 490/788/194
f 490/788/195 488/784/195 480/774/195
f 498/803/196 505/810/196 508/816/196
f 505/810/197 504/809/197 509/818/197
f 509/818/198 504/809/198 503/808/198
f 503/808/199 502/807/199 511/822/199
f 502/807/200 501/806/200 512/824/200
f 501/806/384 500/805/384 513/826/384
f 513/826/202 500/805/202 499/804/202
f 499/804/203 497/802/203 507/814/203
f 534/857/204 541/864/204 544/870/204
f 544/870/205 541/864/205 540/863/205
f 540/863/206 539/862/206 546/874/206
f 539/862/207 538/861/207 547/876/207
f 547/876/208 538/861/208 537/860/208
f 537/860/209 536/859/209 549/880/209
f 549/880/385 536/859/385 535/858/385
f 535/858/211 533/856/211 543/868/211
f 524/839/212 516/830/212 523/837/212
f 523/837/213 522/836/213 527/845/213
f 527/845/214 522/836/214 521/835/214
f 521/835/215 520/834/215 529/849/215
f 529/849/216 520/834/216 519/833/216
f 530/851/217 519/833/217 518/832/217
f 518/832/218 517/831/218 532/855/218
f 532/855/219 517/831/219 515/829/219
f 611/943/386 599/931/386 667/1012/386
f 563/895/165 631/963/165 637/969/165
f 622/954/1 611/943/1 678/1035/1
f 558/890/157 623/955/157 613/945/157
f 559/891/238 618/950/238 610/942/238
f 620/952/140 680/1039/140 679/1037/140
f 627/959/259 683/1045/259 655/988/259
f 560/892/387 617/949/387 615/947/387
f 604/936/140 672/1022/140 684/1047/140
f 619/951/1 679/1037/1 657/992/1
f 562/894/145 564/896/145 632/964/145
f 620/952/2 603/935/2 671/1020/2
f 565/897/388 562/894/388 614/946/388
f 621/953/2 681/1041/2 677/1032/2
f 566/898/389 634/966/389 626/958/389
f 630/962/2 686/1051/2 685/1049/2
f 622/954/243 682/1043/243 681/1041/243
f 566/898/390 571/903/390 639/971/390
f 629/961/140 685/1049/140 658/994/140
f 604/936/245 591/923/245 659/996/245
f 572/904/391 640/972/391 617/949/391
f 627/959/1 628/960/1 684/1047/1
f 606/938/392 593/925/392 661/1000/392
f 573/905/247 556/888/247 610/942/247
f 605/937/155 673/1024/155 667/1012/155
f 564/896/163 576/908/163 644/976/163
f 551/883/156 557/889/156 624/956/156
f 590/922/249 658/994/249 662/1002/249
f 554/886/152 613/945/152 645/977/152
f 561/893/393 615/947/393 616/948/393
f 595/927/160 592/924/160 660/998/160
f 568/900/144 579/911/144 647/979/144
f 565/897/141 633/965/141 618/950/141
f 596/928/394 597/929/394 665/1008/394
f 580/912/166 648/980/166 642/974/166
f 569/901/395 637/969/395 638/970/395
f 598/930/396 666/1010/396 668/1014/396
f 578/910/140 646/978/140 649/981/140
f 571/903/397 567/899/397 635/967/397
f 601/933/154 669/1016/154 666/1010/154
f 552/884/148 626/958/148 623/955/148
f 572/904/398 555/887/398 612/944/398
f 588/920/395 656/990/395 670/1018/395
f 574/906/187 642/974/187 644/976/187
f 575/907/256 643/975/256 631/963/256
f 602/934/165 670/1018/165 675/1028/165
f 586/918/2 654/986/2 643/975/2
f 578/910/147 551/883/147 625/957/147
f 608/940/336 596/928/336 664/1006/336
f 582/914/138 650/982/138 647/979/138
f 577/909/259 645/977/259 648/980/259
f 609/941/399 677/1032/399 660/998/399
f 583/915/243 651/983/243 652/984/243
f 582/914/150 581/913/150 649/981/150
f 587/919/262 655/988/262 661/1000/262
f 553/885/2 616/948/2 651/983/2
f 600/932/400 668/1014/400 686/1051/400
f 589/921/401 657/992/401 665/1008/401
f 567/899/1 584/916/1 652/984/1
f 595/927/391 663/1004/391 669/1016/391
f 585/917/1 573/905/1 641/973/1
f 605/937/149 606/938/149 674/1026/149
f 585/917/140 653/985/140 654/986/140
f 603/935/402 607/939/402 675/1028/402
f 555/887/146 568/900/146 636/968/146
f 594/926/161 662/1002/161 656/990/161
f 591/923/388 608/940/388 676/1030/388
f 557/889/345 570/902/345 638/970/345
