# Blender 3.3.1
# www.blender.org
o boat-fishing-small
v -0.451100 -0.106080 0.000000
v -0.451100 0.106080 0.000000
v -0.503100 -0.176800 0.078000
v -0.503100 0.176800 0.078000
v 0.265460 -0.058032 -0.000000
v 0.224900 -0.106080 -0.000000
v 0.386100 -0.096720 0.078000
v 0.318500 -0.176800 0.078000
v 0.386100 0.096720 0.078000
v 0.412100 -0.000000 0.078000
v 0.468975 0.126945 0.182000
v 0.503100 -0.000000 0.182000
v 0.265460 0.058032 -0.000000
v 0.281060 -0.000000 -0.000000
v -0.503100 0.232050 0.182000
v 0.380250 0.232050 0.182000
v 0.318500 0.176800 0.078000
v -0.503100 -0.232050 0.182000
v 0.380250 -0.232050 0.182000
v 0.468975 -0.126945 0.182000
v 0.224900 0.106080 -0.000000
v 0.016900 0.154050 0.208000
v 0.016900 0.154050 0.390000
v 0.016900 -0.154050 0.208000
v 0.016900 -0.154050 0.390000
v 0.221439 0.154050 0.390000
v 0.221439 0.154050 0.208000
v 0.258208 0.138820 0.390000
v 0.258208 0.138820 0.208000
v 0.258208 0.138820 0.299000
v 0.221439 -0.154050 0.208000
v 0.221439 -0.154050 0.390000
v 0.258208 -0.138820 0.208000
v 0.258208 -0.138820 0.390000
v 0.258208 -0.138820 0.299000
v 0.273439 -0.102050 0.208000
v 0.273439 -0.102050 0.299000
v 0.273439 0.102050 0.208000
v 0.273439 0.102050 0.299000
v 0.360424 0.050591 0.208000
v 0.360424 -0.050591 0.208000
v 0.360424 0.050591 0.247000
v 0.360424 -0.050591 0.247000
v 0.273439 0.073320 0.208000
v 0.273439 0.073320 0.260000
v 0.273439 -0.073320 0.260000
v 0.273439 -0.073320 0.208000
v -0.090350 0.144300 0.676000
v -0.070850 0.144300 0.676000
v -0.090350 0.124800 0.676000
v -0.070850 0.124800 0.676000
v -0.100100 0.115050 0.208000
v -0.100100 0.154050 0.208000
v -0.061100 0.154050 0.208000
v -0.061100 0.115050 0.208000
v -0.090350 -0.124800 0.676000
v -0.070850 -0.124800 0.676000
v -0.090350 -0.144300 0.676000
v -0.070850 -0.144300 0.676000
v -0.100100 -0.154050 0.208000
v -0.100100 -0.115050 0.208000
v -0.061100 -0.115050 0.208000
v -0.061100 -0.154050 0.208000
v -0.503100 -0.076050 0.208000
v -0.503100 -0.232050 0.260000
v -0.503100 -0.076050 0.234000
v -0.503100 -0.128050 0.260000
v -0.503100 0.076050 0.208000
v -0.503100 0.232050 0.260000
v -0.503100 0.076050 0.234000
v -0.503100 0.128050 0.260000
v 0.356096 -0.180050 0.208000
v 0.421766 -0.102256 0.208000
v 0.356096 -0.180050 0.260000
v 0.421766 -0.102256 0.260000
v 0.449254 -0.000000 0.208000
v 0.449254 -0.000000 0.260000
v 0.421766 0.102256 0.208000
v 0.421766 0.102256 0.260000
v 0.356096 0.180050 0.208000
v 0.356096 0.180050 0.260000
v -0.451100 -0.076050 0.208000
v -0.451100 -0.180050 0.208000
v -0.451100 -0.076050 0.234000
v -0.451100 -0.180050 0.260000
v -0.451100 -0.128050 0.260000
v -0.451100 0.180050 0.208000
v -0.451100 0.076050 0.208000
v -0.451100 0.180050 0.260000
v -0.451100 0.076050 0.234000
v -0.451100 0.128050 0.260000
v 0.468975 0.126945 0.260000
v 0.503100 -0.000000 0.260000
v 0.468975 -0.126945 0.260000
v 0.380250 -0.232050 0.260000
v 0.380250 0.232050 0.260000
v 0.325439 -0.112393 0.390000
v 0.298007 -0.178619 0.390000
v 0.325439 -0.112393 0.442000
v 0.298007 -0.178619 0.442000
v 0.325439 0.112393 0.390000
v 0.325439 0.112393 0.442000
v 0.298007 0.178619 0.390000
v 0.298007 0.178619 0.442000
v 0.231782 0.206050 0.442000
v 0.231782 0.206050 0.390000
v 0.231782 -0.206050 0.390000
v 0.231782 -0.206050 0.442000
v -0.035100 0.180050 0.442000
v -0.035100 0.180050 0.390000
v -0.009100 0.206050 0.442000
v -0.009100 0.206050 0.390000
v -0.035100 -0.180050 0.390000
v -0.035100 -0.180050 0.442000
v -0.009100 -0.206050 0.390000
v -0.009100 -0.206050 0.442000
v 0.273439 0.102050 0.390000
v 0.273439 -0.102050 0.390000
v 0.169439 -0.052000 0.455000
v 0.169439 -0.052000 0.442000
v 0.065439 -0.052000 0.468000
v 0.065439 -0.052000 0.442000
v 0.169439 0.052000 0.442000
v 0.169439 0.052000 0.455000
v 0.065439 0.052000 0.442000
v 0.065439 0.052000 0.468000
v -0.176097 0.232050 0.260000
v -0.202097 0.232050 0.286000
v -0.306097 0.232050 0.260000
v -0.280097 0.232050 0.286000
v -0.202097 0.180050 0.286000
v -0.280097 0.180050 0.286000
v -0.176097 0.180050 0.260000
v -0.306097 0.180050 0.260000
v -0.176097 -0.180050 0.260000
v -0.202097 -0.180050 0.286000
v -0.306097 -0.180050 0.260000
v -0.280097 -0.180050 0.286000
v -0.202097 -0.232050 0.286000
v -0.280097 -0.232050 0.286000
v -0.176097 -0.232050 0.260000
v -0.306097 -0.232050 0.260000
vn -0.8321 -0.0000 -0.5547
vn 0.4728 -0.2370 -0.8487
vn 0.1766 -0.6144 -0.7690
vn 0.4649 -0.2578 -0.8470
vn 0.4728 -0.2369 -0.8487
vn 0.2899 -0.5097 -0.8100
vn 0.6815 0.3474 -0.6441
vn 0.7526 -0.0000 -0.6585
vn 0.6739 0.3642 -0.6428
vn 0.5115 -0.0000 -0.8593
vn 0.4649 0.2578 -0.8470
vn 0.4728 0.2369 -0.8487
vn 0.3762 0.7069 -0.5989
vn -0.0000 0.8831 -0.4692
vn 0.2794 0.7693 -0.5745
vn 0.2793 -0.7693 -0.5746
vn -0.0000 -0.8831 -0.4692
vn 0.2794 -0.7693 -0.5746
vn 0.3762 -0.7069 -0.5989
vn -0.0000 -0.7408 -0.6717
vn 0.6815 -0.3474 -0.6441
vn 0.6739 -0.3642 -0.6428
vn 0.1766 0.6144 -0.7690
vn 0.2899 0.5097 -0.8100
vn 0.4728 0.2370 -0.8487
vn 0.2793 0.7693 -0.5746
vn -0.0000 0.7408 -0.6717
vn -0.0000 -0.0000 -1.0000
vn -1.0000 -0.0000 -0.0000
vn 0.3827 0.9239 -0.0000
vn 0.1951 0.9808 -0.0000
vn 0.3827 -0.9239 -0.0000
vn 0.1951 -0.9808 -0.0000
vn 0.9808 -0.1951 -0.0000
vn 0.9239 -0.3827 -0.0000
vn 0.9808 0.1951 -0.0000
vn 0.9239 0.3827 -0.0000
vn -0.0000 -1.0000 -0.0000
vn -0.0000 1.0000 -0.0000
vn 0.7142 -0.0000 0.6999
vn 1.0000 -0.0000 -0.0000
vn 0.2528 0.9675 -0.0000
vn 0.1478 -0.0000 0.9890
vn 0.2528 -0.9675 -0.0000
vn -0.0000 -0.0000 1.0000
vn -0.7068 -0.7068 0.0295
vn -0.7068 0.7068 0.0294
vn -0.7068 0.7068 0.0295
vn 0.7068 0.7068 0.0295
vn 0.7068 -0.7068 0.0294
vn 0.7068 -0.7068 0.0295
vn 0.7068 0.7068 0.0294
vn -0.7641 0.6451 -0.0000
vn -0.8861 0.4634 -0.0000
vn -0.8861 -0.4634 -0.0000
vn -0.7641 -0.6451 -0.0000
vn -0.0000 0.8507 0.5257
vn -0.0000 0.4472 0.8944
vn 0.0002 0.8507 0.5257
vn -0.0000 0.8506 0.5257
vn -0.0000 -0.8506 0.5257
vn -0.0000 -0.4472 0.8944
vn -0.0002 -0.8507 0.5257
vn -0.0000 -0.8507 0.5257
vn 0.8861 0.4634 -0.0000
vn 0.8861 -0.4634 -0.0000
vn 0.4213 -0.9069 -0.0000
vn 0.4213 0.9069 -0.0000
vn 0.7071 -0.7071 -0.0000
vn 0.7071 0.7071 -0.0000
vn -0.3827 0.9239 -0.0000
vn -0.9239 0.3827 -0.0000
vn -0.9239 -0.3827 -0.0000
vn -0.3827 -0.9239 -0.0000
vn 0.7497 -0.0000 0.6618
vn 0.1240 -0.0000 0.9923
vn 0.3827 -0.0000 0.9239
vn -0.3827 -0.0000 0.9239
vn -0.7071 -0.0000 0.7071
vn -0.3827 0.0002 0.9239
vn 0.7071 -0.0000 0.7071
vt 0.718750 0.025000
vt 0.718750 0.025000
vt 0.843750 0.335000
vt 0.718750 0.085000
vt 0.843750 0.335000
vt 0.718750 0.085000
vt 0.718750 0.025000
vt 0.718750 0.025000
vt 0.718750 0.085000
vt 0.718750 0.085000
vt 0.718750 0.085000
vt 0.718750 0.085000
vt 0.718750 0.165000
vt 0.843750 0.415000
vt 0.718750 0.165000
vt 0.843750 0.415000
vt 0.718750 0.025000
vt 0.718750 0.025000
vt 0.718750 0.165000
vt 0.843750 0.415000
vt 0.718750 0.165000
vt 0.843750 0.415000
vt 0.718750 0.085000
vt 0.718750 0.165000
vt 0.843750 0.415000
vt 0.718750 0.165000
vt 0.843750 0.415000
vt 0.718750 0.165000
vt 0.843750 0.415000
vt 0.718750 0.025000
vt 0.718750 0.025000
vt 0.718750 0.180556
vt 0.843750 0.430556
vt 0.718750 0.025000
vt 0.718750 0.180556
vt 0.843750 0.430556
vt 0.718750 0.180556
vt 0.843750 0.430556
vt 0.718750 0.025000
vt 0.718750 0.180556
vt 0.843750 0.430556
vt 0.093750 0.225000
vt 0.718750 0.025000
vt 0.718750 0.102778
vt 0.093750 0.025000
vt 0.718750 0.025000
vt 0.718750 0.180556
vt 0.843750 0.430556
vt 0.718750 0.025000
vt 0.718750 0.180556
vt 0.843750 0.430556
vt 0.093750 0.225000
vt 0.718750 0.102778
vt 0.093750 0.025000
vt 0.718750 0.025000
vt 0.718750 0.102778
vt 0.093750 0.025000
vt 0.718750 0.025000
vt 0.718750 0.102778
vt 0.093750 0.025000
vt 0.718750 0.025000
vt 0.718750 0.025000
vt 0.718750 0.175000
vt 0.718750 0.175000
vt 0.718750 0.025000
vt 0.718750 0.225000
vt 0.718750 0.225000
vt 0.718750 0.025000
vt 0.718750 0.225000
vt 0.718750 0.225000
vt 0.718750 0.225000
vt 0.718750 0.225000
vt 0.718750 0.025000
vt 0.718750 0.025000
vt 0.718750 0.025000
vt 0.718750 0.025000
vt 0.718750 0.225000
vt 0.718750 0.225000
vt 0.718750 0.225000
vt 0.718750 0.225000
vt 0.718750 0.025000
vt 0.718750 0.025000
vt 0.718750 0.025000
vt 0.718750 0.025000
vt 0.843750 0.435000
vt 0.343750 0.185000
vt 0.843750 0.475000
vt 0.843750 0.455000
vt 0.843750 0.475000
vt 0.843750 0.435000
vt 0.343750 0.185000
vt 0.843750 0.475000
vt 0.843750 0.455000
vt 0.843750 0.475000
vt 0.843750 0.435000
vt 0.343750 0.185000
vt 0.843750 0.435000
vt 0.343750 0.185000
vt 0.843750 0.475000
vt 0.843750 0.475000
vt 0.843750 0.435000
vt 0.343750 0.185000
vt 0.843750 0.475000
vt 0.843750 0.435000
vt 0.343750 0.185000
vt 0.843750 0.475000
vt 0.843750 0.435000
vt 0.343750 0.185000
vt 0.843750 0.475000
vt 0.843750 0.435000
vt 0.343750 0.185000
vt 0.843750 0.435000
vt 0.343750 0.185000
vt 0.843750 0.455000
vt 0.843750 0.475000
vt 0.843750 0.475000
vt 0.843750 0.435000
vt 0.343750 0.185000
vt 0.843750 0.435000
vt 0.343750 0.185000
vt 0.843750 0.475000
vt 0.843750 0.455000
vt 0.843750 0.475000
vt 0.843750 0.475000
vt 0.843750 0.475000
vt 0.843750 0.475000
vt 0.843750 0.475000
vt 0.843750 0.475000
vt 0.843750 0.430556
vt 0.843750 0.430556
vt 0.843750 0.475000
vt 0.843750 0.475000
vt 0.843750 0.430556
vt 0.843750 0.475000
vt 0.843750 0.430556
vt 0.843750 0.475000
vt 0.843750 0.475000
vt 0.843750 0.430556
vt 0.843750 0.430556
vt 0.843750 0.475000
vt 0.843750 0.475000
vt 0.843750 0.430556
vt 0.843750 0.475000
vt 0.843750 0.430556
vt 0.843750 0.430556
vt 0.843750 0.475000
vt 0.843750 0.430556
vt 0.843750 0.475000
vt 0.843750 0.430556
vt 0.093750 0.225000
vt 0.843750 0.430556
vt 0.093750 0.225000
vt 0.843750 0.375000
vt 0.843750 0.275000
vt 0.843750 0.475000
vt 0.843750 0.275000
vt 0.843750 0.275000
vt 0.843750 0.375000
vt 0.843750 0.275000
vt 0.843750 0.475000
vt 0.843750 0.325000
vt 0.843750 0.425000
vt 0.843750 0.325000
vt 0.843750 0.425000
vt 0.843750 0.425000
vt 0.843750 0.425000
vt 0.843750 0.325000
vt 0.843750 0.325000
vt 0.843750 0.325000
vt 0.843750 0.425000
vt 0.843750 0.325000
vt 0.843750 0.425000
vt 0.843750 0.425000
vt 0.843750 0.425000
vt 0.843750 0.325000
vt 0.843750 0.325000
s 0
f 3/4/1 2/2/1 1/1/1
f 2/2/1 3/4/1 4/6/1
f 7/9/2 6/8/3 5/7/4
f 6/8/3 7/9/5 8/10/6
f 11/13/7 10/12/8 9/11/9
f 10/12/8 11/13/7 12/15/8
f 10/12/10 13/17/11 9/11/12
f 13/17/11 10/12/10 14/18/10
f 7/9/5 14/18/10 10/12/10
f 14/18/10 7/9/5 5/7/4
f 16/21/13 4/6/14 15/19/14
f 4/6/14 16/21/13 17/23/15
f 8/10/16 18/24/17 3/4/17
f 18/24/17 8/10/18 19/26/19
f 1/1/20 8/10/6 3/4/20
f 8/10/6 1/1/20 6/8/3
f 20/28/21 8/10/16 7/9/22
f 8/10/16 20/28/21 19/26/19
f 9/11/12 21/30/23 17/23/24
f 21/30/23 9/11/25 13/17/11
f 11/13/7 17/23/26 16/21/13
f 17/23/26 11/13/7 9/11/9
f 17/23/24 2/2/27 4/6/27
f 2/2/27 17/23/24 21/30/23
f 13/17/28 2/2/28 21/30/28
f 2/2/28 13/17/28 1/1/28
f 1/1/28 13/17/28 14/18/28
f 1/1/28 14/18/28 5/7/28
f 1/1/28 5/7/28 6/8/28
f 12/15/8 7/9/22 10/12/8
f 7/9/22 12/15/8 20/28/21
f 24/34/29 23/32/29 22/31/29
f 23/32/29 24/34/29 25/35/29
f 28/40/30 27/39/31 26/37/31
f 27/39/31 28/40/30 29/43/30
f 29/43/30 28/40/30 30/44/30
f 33/49/32 32/47/33 31/46/33
f 32/47/33 33/49/32 34/50/32
f 34/50/32 33/49/32 35/53/32
f 37/56/34 33/49/35 36/55/34
f 33/49/35 37/56/34 35/53/35
f 39/59/36 36/55/34 38/58/36
f 36/55/34 39/59/36 37/56/34
f 30/44/37 38/58/36 29/43/37
f 38/58/36 30/44/37 39/59/36
f 31/46/33 25/35/38 24/34/38
f 25/35/38 31/46/33 32/47/33
f 26/37/31 22/31/39 23/32/39
f 22/31/39 26/37/31 27/39/31
f 42/63/40 41/62/41 40/61/41
f 41/62/41 42/63/40 43/64/40
f 44/65/42 42/63/42 40/61/42
f 42/63/42 44/65/42 45/66/42
f 43/64/40 45/66/43 46/67/43
f 45/66/43 43/64/40 42/63/40
f 46/67/44 41/62/44 43/64/44
f 41/62/44 46/67/44 47/68/44
f 50/71/45 49/70/45 48/69/45
f 49/70/45 50/71/45 51/72/45
f 50/71/46 53/74/47 52/73/46
f 53/74/48 50/71/46 48/69/48
f 49/70/49 55/76/50 54/75/49
f 55/76/51 49/70/49 51/72/51
f 48/69/48 54/75/52 53/74/48
f 54/75/49 48/69/48 49/70/49
f 55/76/50 50/71/46 52/73/46
f 50/71/46 55/76/51 51/72/51
f 58/79/45 57/78/45 56/77/45
f 57/78/45 58/79/45 59/80/45
f 58/79/46 61/82/47 60/81/46
f 61/82/48 58/79/46 56/77/48
f 57/78/49 63/84/50 62/83/49
f 63/84/51 57/78/49 59/80/51
f 56/77/48 62/83/52 61/82/48
f 62/83/49 56/77/48 57/78/49
f 63/84/50 58/79/46 60/81/46
f 58/79/46 63/84/51 59/80/51
f 18/25/29 4/5/29 3/3/29
f 4/5/29 18/25/29 15/20/29
f 15/20/29 18/25/29 64/85/29
f 64/85/29 18/25/29 65/87/29
f 64/85/29 65/87/29 66/88/29
f 66/88/29 65/87/29 67/89/29
f 68/90/29 15/20/29 64/85/29
f 15/20/29 68/90/29 69/92/29
f 69/92/29 68/90/29 70/93/29
f 69/92/29 70/93/29 71/94/29
f 74/99/53 73/97/54 72/95/53
f 73/97/54 74/99/53 75/100/54
f 75/100/54 76/101/29 73/97/54
f 76/101/29 75/100/54 77/103/29
f 77/103/29 78/104/55 76/101/29
f 78/104/55 77/103/29 79/106/55
f 78/104/55 81/109/56 80/107/56
f 81/109/56 78/104/55 79/106/55
f 84/114/41 83/112/41 82/110/41
f 83/112/41 84/114/41 85/115/41
f 85/115/41 84/114/41 86/116/41
f 89/121/41 88/119/41 87/117/41
f 88/119/41 89/121/41 90/122/41
f 90/122/41 89/121/41 91/123/41
f 66/88/57 86/116/58 84/114/57
f 86/116/58 66/88/59 67/89/58
f 84/114/60 64/85/39 66/88/60
f 64/85/39 84/114/60 82/110/39
f 68/90/38 90/122/61 70/93/61
f 90/122/61 68/90/38 88/119/38
f 71/94/62 90/122/63 91/123/62
f 90/122/64 71/94/62 70/93/64
f 92/124/65 12/16/41 11/14/65
f 12/16/41 92/124/65 93/125/41
f 94/126/66 19/27/67 20/29/66
f 19/27/67 94/126/66 95/127/67
f 80/107/38 89/121/38 87/117/38
f 89/121/38 80/107/38 81/109/38
f 89/121/45 71/94/45 91/123/45
f 89/121/45 69/92/45 71/94/45
f 69/92/45 89/121/45 81/109/45
f 81/109/45 96/128/45 69/92/45
f 96/128/45 81/109/45 92/124/45
f 92/124/45 81/109/45 79/106/45
f 92/124/45 79/106/45 93/125/45
f 93/125/45 79/106/45 77/103/45
f 93/125/45 77/103/45 94/126/45
f 94/126/45 77/103/45 75/100/45
f 94/126/45 75/100/45 74/99/45
f 94/126/45 74/99/45 95/127/45
f 95/127/45 74/99/45 85/115/45
f 85/115/45 65/87/45 95/127/45
f 85/115/45 67/89/45 65/87/45
f 67/89/45 85/115/45 86/116/45
f 96/128/68 11/14/65 16/22/68
f 11/14/65 96/128/68 92/124/65
f 74/99/39 83/112/39 85/115/39
f 83/112/39 74/99/39 72/95/39
f 96/128/68 15/20/39 69/92/39
f 15/20/39 96/128/68 16/22/68
f 93/125/41 20/29/66 12/16/41
f 20/29/66 93/125/41 94/126/66
f 19/27/67 65/87/38 18/25/38
f 65/87/38 19/27/67 95/127/67
f 99/131/34 98/130/69 97/129/34
f 98/130/69 99/131/34 100/132/69
f 102/134/36 97/129/34 101/133/36
f 97/129/34 102/134/36 99/131/34
f 104/136/70 101/133/36 103/135/70
f 101/133/36 104/136/70 102/134/36
f 104/136/70 106/138/31 105/137/31
f 106/138/31 104/136/70 103/135/70
f 98/130/69 108/140/33 107/139/33
f 108/140/33 98/130/69 100/132/69
f 111/143/71 110/142/72 109/141/72
f 110/142/72 111/143/71 112/144/71
f 114/146/73 110/142/72 113/145/73
f 110/142/72 114/146/73 109/141/72
f 115/147/74 114/146/73 113/145/73
f 114/146/73 115/147/74 116/148/74
f 107/139/33 116/148/74 115/147/74
f 116/148/74 107/139/33 108/140/33
f 103/135/28 112/144/28 106/138/28
f 112/144/28 103/135/28 110/142/28
f 110/142/28 103/135/28 23/33/28
f 110/142/28 23/33/28 113/145/28
f 23/33/28 103/135/28 26/38/28
f 113/145/28 23/33/28 25/36/28
f 101/133/28 26/38/28 103/135/28
f 26/38/28 101/133/28 28/41/28
f 28/41/28 101/133/28 117/149/28
f 117/149/28 101/133/28 97/129/28
f 117/149/28 97/129/28 118/151/28
f 118/151/28 97/129/28 34/51/28
f 34/51/28 97/129/28 98/130/28
f 34/51/28 98/130/28 32/48/28
f 113/145/28 25/36/28 32/48/28
f 113/145/28 32/48/28 98/130/28
f 113/145/28 98/130/28 107/139/28
f 113/145/28 107/139/28 115/147/28
f 109/141/45 105/137/45 111/143/45
f 105/137/45 109/141/45 104/136/45
f 104/136/45 109/141/45 114/146/45
f 104/136/45 114/146/45 102/134/45
f 102/134/45 114/146/45 99/131/45
f 99/131/45 114/146/45 100/132/45
f 100/132/45 114/146/45 108/140/45
f 108/140/45 114/146/45 116/148/45
f 105/137/31 112/144/71 111/143/71
f 112/144/71 105/137/31 106/138/31
f 121/155/38 120/154/38 119/153/38
f 120/154/38 121/155/38 122/156/38
f 124/158/75 120/154/41 123/157/41
f 120/154/41 124/158/75 119/153/75
f 125/159/39 124/158/39 123/157/39
f 124/158/39 125/159/39 126/160/39
f 121/155/29 125/159/29 122/156/29
f 125/159/29 121/155/29 126/160/29
f 124/158/75 121/155/76 119/153/75
f 121/155/76 124/158/75 126/160/76
f 129/163/39 128/162/39 127/161/39
f 128/162/39 129/163/39 130/164/39
f 128/162/77 132/166/78 131/165/77
f 132/166/78 128/162/77 130/164/78
f 131/165/38 134/168/38 133/167/38
f 134/168/38 131/165/38 132/166/38
f 130/164/78 134/168/79 132/166/78
f 134/168/79 130/164/80 129/163/79
f 127/161/81 131/165/77 133/167/81
f 131/165/77 127/161/81 128/162/77
f 137/171/39 136/170/39 135/169/39
f 136/170/39 137/171/39 138/172/39
f 136/170/77 140/174/78 139/173/77
f 140/174/78 136/170/77 138/172/78
f 139/173/38 142/176/38 141/175/38
f 142/176/38 139/173/38 140/174/38
f 138/172/78 142/176/79 140/174/78
f 142/176/79 138/172/78 137/171/79
f 135/169/81 139/173/77 141/175/81
f 139/173/77 135/169/81 136/170/77
f 9/11/28 4/6/28 17/23/28
f 4/6/28 9/11/28 3/4/28
f 3/4/28 9/11/28 10/12/28
f 3/4/28 10/12/28 7/9/28
f 3/4/28 7/9/28 8/10/28
f 87/118/45 78/105/45 80/108/45
f 78/105/45 87/118/45 88/120/45
f 78/105/45 88/120/45 76/102/45
f 76/102/45 88/120/45 68/91/45
f 76/102/45 68/91/45 64/86/45
f 76/102/45 64/86/45 82/111/45
f 82/111/45 73/98/45 76/102/45
f 73/98/45 82/111/45 83/113/45
f 73/98/45 83/113/45 72/96/45
f 28/42/37 39/60/36 30/45/37
f 39/60/36 28/42/37 117/150/36
f 118/152/34 35/54/35 37/57/34
f 35/54/35 118/152/34 34/52/35
f 117/150/36 37/57/34 39/60/36
f 37/57/34 117/150/36 118/152/34
f 3/4/1 2/2/1 1/1/1
f 2/2/1 3/4/1 4/6/1
f 7/9/2 6/8/3 5/7/4
f 6/8/3 7/9/5 8/10/6
f 11/13/7 10/12/8 9/11/9
f 10/12/8 11/13/7 12/15/8
f 10/12/10 13/17/11 9/11/12
f 13/17/11 10/12/10 14/18/10
f 7/9/5 14/18/10 10/12/10
f 14/18/10 7/9/5 5/7/4
f 16/21/13 4/6/14 15/19/14
f 4/6/14 16/21/13 17/23/15
f 8/10/16 18/24/17 3/4/17
f 18/24/17 8/10/18 19/26/19
f 1/1/20 8/10/6 3/4/20
f 8/10/6 1/1/20 6/8/3
f 20/28/21 8/10/16 7/9/22
f 8/10/16 20/28/21 19/26/19
f 9/11/12 21/30/23 17/23/24
f 21/30/23 9/11/25 13/17/11
f 11/13/7 17/23/26 16/21/13
f 17/23/26 11/13/7 9/11/9
f 17/23/24 2/2/27 4/6/27
f 2/2/27 17/23/24 21/30/23
f 13/17/28 2/2/28 21/30/28
f 2/2/28 13/17/28 1/1/28
f 1/1/28 13/17/28 14/18/28
f 1/1/28 14/18/28 5/7/28
f 1/1/28 5/7/28 6/8/28
f 12/15/8 7/9/22 10/12/8
f 7/9/22 12/15/8 20/28/21
f 24/34/29 23/32/29 22/31/29
f 23/32/29 24/34/29 25/35/29
f 28/40/30 27/39/31 26/37/31
f 27/39/31 28/40/30 29/43/30
f 29/43/30 28/40/30 30/44/30
f 33/49/32 32/47/33 31/46/33
f 32/47/33 33/49/32 34/50/32
f 34/50/32 33/49/32 35/53/32
f 37/56/34 33/49/35 36/55/34
f 33/49/35 37/56/34 35/53/35
f 39/59/36 36/55/34 38/58/36
f 36/55/34 39/59/36 37/56/34
f 30/44/37 38/58/36 29/43/37
f 38/58/36 30/44/37 39/59/36
f 31/46/33 25/35/38 24/34/38
f 25/35/38 31/46/33 32/47/33
f 26/37/31 22/31/39 23/32/39
f 22/31/39 26/37/31 27/39/31
f 42/63/40 41/62/41 40/61/41
f 41/62/41 42/63/40 43/64/40
f 44/65/42 42/63/42 40/61/42
f 42/63/42 44/65/42 45/66/42
f 43/64/40 45/66/43 46/67/43
f 45/66/43 43/64/40 42/63/40
f 46/67/44 41/62/44 43/64/44
f 41/62/44 46/67/44 47/68/44
f 50/71/45 49/70/45 48/69/45
f 49/70/45 50/71/45 51/72/45
f 50/71/46 53/74/47 52/73/46
f 53/74/48 50/71/46 48/69/48
f 49/70/49 55/76/50 54/75/49
f 55/76/51 49/70/49 51/72/51
f 48/69/48 54/75/52 53/74/48
f 54/75/49 48/69/48 49/70/49
f 55/76/50 50/71/46 52/73/46
f 50/71/46 55/76/51 51/72/51
f 58/79/45 57/78/45 56/77/45
f 57/78/45 58/79/45 59/80/45
f 58/79/46 61/82/47 60/81/46
f 61/82/48 58/79/46 56/77/48
f 57/78/49 63/84/50 62/83/49
f 63/84/51 57/78/49 59/80/51
f 56/77/48 62/83/52 61/82/48
f 62/83/49 56/77/48 57/78/49
f 63/84/50 58/79/46 60/81/46
f 58/79/46 63/84/51 59/80/51
f 18/25/29 4/5/29 3/3/29
f 4/5/29 18/25/29 15/20/29
f 15/20/29 18/25/29 64/85/29
f 64/85/29 18/25/29 65/87/29
f 64/85/29 65/87/29 66/88/29
f 66/88/29 65/87/29 67/89/29
f 68/90/29 15/20/29 64/85/29
f 15/20/29 68/90/29 69/92/29
f 69/92/29 68/90/29 70/93/29
f 69/92/29 70/93/29 71/94/29
f 74/99/53 73/97/54 72/95/53
f 73/97/54 74/99/53 75/100/54
f 75/100/54 76/101/29 73/97/54
f 76/101/29 75/100/54 77/103/29
f 77/103/29 78/104/55 76/101/29
f 78/104/55 77/103/29 79/106/55
f 78/104/55 81/109/56 80/107/56
f 81/109/56 78/104/55 79/106/55
f 84/114/41 83/112/41 82/110/41
f 83/112/41 84/114/41 85/115/41
f 85/115/41 84/114/41 86/116/41
f 89/121/41 88/119/41 87/117/41
f 88/119/41 89/121/41 90/122/41
f 90/122/41 89/121/41 91/123/41
f 66/88/57 86/116/58 84/114/57
f 86/116/58 66/88/59 67/89/58
f 84/114/60 64/85/39 66/88/60
f 64/85/39 84/114/60 82/110/39
f 68/90/38 90/122/61 70/93/61
f 90/122/61 68/90/38 88/119/38
f 71/94/62 90/122/63 91/123/62
f 90/122/64 71/94/62 70/93/64
f 92/124/65 12/16/41 11/14/65
f 12/16/41 92/124/65 93/125/41
f 94/126/66 19/27/67 20/29/66
f 19/27/67 94/126/66 95/127/67
f 80/107/38 89/121/38 87/117/38
f 89/121/38 80/107/38 81/109/38
f 89/121/45 71/94/45 91/123/45
f 89/121/45 69/92/45 71/94/45
f 69/92/45 89/121/45 81/109/45
f 81/109/45 96/128/45 69/92/45
f 96/128/45 81/109/45 92/124/45
f 92/124/45 81/109/45 79/106/45
f 92/124/45 79/106/45 93/125/45
f 93/125/45 79/106/45 77/103/45
f 93/125/45 77/103/45 94/126/45
f 94/126/45 77/103/45 75/100/45
f 94/126/45 75/100/45 74/99/45
f 94/126/45 74/99/45 95/127/45
f 95/127/45 74/99/45 85/115/45
f 85/115/45 65/87/45 95/127/45
f 85/115/45 67/89/45 65/87/45
f 67/89/45 85/115/45 86/116/45
f 96/128/68 11/14/65 16/22/68
f 11/14/65 96/128/68 92/124/65
f 74/99/39 83/112/39 85/115/39
f 83/112/39 74/99/39 72/95/39
f 96/128/68 15/20/39 69/92/39
f 15/20/39 96/128/68 16/22/68
f 93/125/41 20/29/66 12/16/41
f 20/29/66 93/125/41 94/126/66
f 19/27/67 65/87/38 18/25/38
f 65/87/38 19/27/67 95/127/67
f 99/131/34 98/130/69 97/129/34
f 98/130/69 99/131/34 100/132/69
f 102/134/36 97/129/34 101/133/36
f 97/129/34 102/134/36 99/131/34
f 104/136/70 101/133/36 103/135/70
f 101/133/36 104/136/70 102/134/36
f 104/136/70 106/138/31 105/137/31
f 106/138/31 104/136/70 103/135/70
f 98/130/69 108/140/33 107/139/33
f 108/140/33 98/130/69 100/132/69
f 111/143/71 110/142/72 109/141/72
f 110/142/72 111/143/71 112/144/71
f 114/146/73 110/142/72 113/145/73
f 110/142/72 114/146/73 109/141/72
f 115/147/74 114/146/73 113/145/73
f 114/146/73 115/147/74 116/148/74
f 107/139/33 116/148/74 115/147/74
f 116/148/74 107/139/33 108/140/33
f 103/135/28 112/144/28 106/138/28
f 112/144/28 103/135/28 110/142/28
f 110/142/28 103/135/28 23/33/28
f 110/142/28 23/33/28 113/145/28
f 23/33/28 103/135/28 26/38/28
f 113/145/28 23/33/28 25/36/28
f 101/133/28 26/38/28 103/135/28
f 26/38/28 101/133/28 28/41/28
f 28/41/28 101/133/28 117/149/28
f 117/149/28 101/133/28 97/129/28
f 117/149/28 97/129/28 118/151/28
f 118/151/28 97/129/28 34/51/28
f 34/51/28 97/129/28 98/130/28
f 34/51/28 98/130/28 32/48/28
f 113/145/28 25/36/28 32/48/28
f 113/145/28 32/48/28 98/130/28
f 113/145/28 98/130/28 107/139/28
f 113/145/28 107/139/28 115/147/28
f 109/141/45 105/137/45 111/143/45
f 105/137/45 109/141/45 104/136/45
f 104/136/45 109/141/45 114/146/45
f 104/136/45 114/146/45 102/134/45
f 102/134/45 114/146/45 99/131/45
f 99/131/45 114/146/45 100/132/45
f 100/132/45 114/146/45 108/140/45
f 108/140/45 114/146/45 116/148/45
f 105/137/31 112/144/71 111/143/71
f 112/144/71 105/137/31 106/138/31
f 121/155/38 120/154/38 119/153/38
f 120/154/38 121/155/38 122/156/38
f 124/158/75 120/154/41 123/157/41
f 120/154/41 124/158/75 119/153/75
f 125/159/39 124/158/39 123/157/39
f 124/158/39 125/159/39 126/160/39
f 121/155/29 125/159/29 122/156/29
f 125/159/29 121/155/29 126/160/29
f 124/158/75 121/155/76 119/153/75
f 121/155/76 124/158/75 126/160/76
f 129/163/39 128/162/39 127/161/39
f 128/162/39 129/163/39 130/164/39
f 128/162/77 132/166/78 131/165/77
f 132/166/78 128/162/77 130/164/78
f 131/165/38 134/168/38 133/167/38
f 134/168/38 131/165/38 132/166/38
f 130/164/78 134/168/79 132/166/78
f 134/168/79 130/164/80 129/163/79
f 127/161/81 131/165/77 133/167/81
f 131/165/77 127/161/81 128/162/77
f 137/171/39 136/170/39 135/169/39
f 136/170/39 137/171/39 138/172/39
f 136/170/77 140/174/78 139/173/77
f 140/174/78 136/170/77 138/172/78
f 139/173/38 142/176/38 141/175/38
f 142/176/38 139/173/38 140/174/38
f 138/172/78 142/176/79 140/174/78
f 142/176/79 138/172/78 137/171/79
f 135/169/81 139/173/77 141/175/81
f 139/173/77 135/169/81 136/170/77
f 9/11/28 4/6/28 17/23/28
f 4/6/28 9/11/28 3/4/28
f 3/4/28 9/11/28 10/12/28
f 3/4/28 10/12/28 7/9/28
f 3/4/28 7/9/28 8/10/28
f 87/118/45 78/105/45 80/108/45
f 78/105/45 87/118/45 88/120/45
f 78/105/45 88/120/45 76/102/45
f 76/102/45 88/120/45 68/91/45
f 76/102/45 68/91/45 64/86/45
f 76/102/45 64/86/45 82/111/45
f 82/111/45 73/98/45 76/102/45
f 73/98/45 82/111/45 83/113/45
f 73/98/45 83/113/45 72/96/45
f 28/42/37 39/60/36 30/45/37
f 39/60/36 28/42/37 117/150/36
f 118/152/34 35/54/35 37/57/34
f 35/54/35 118/152/34 34/52/35
f 117/150/36 37/57/34 39/60/36
f 37/57/34 117/150/36 118/152/34
