# Blender 3.3.1
# www.blender.org
mtllib boat_sail.mtl
o boat-sail-a
v -0.429198 -0.110205 0.000000
v -0.429198 0.110205 0.000000
v -0.455304 -0.183675 0.054158
v -0.455304 0.183675 0.054158
v -0.483355 -0.241678 0.162472
v -0.483355 0.241678 0.162472
v 0.059015 0.110205 -0.000000
v 0.157346 0.048224 -0.000000
v 0.184038 -0.000000 -0.000000
v 0.157346 -0.048224 -0.000000
v 0.059015 -0.110205 -0.000000
v 0.263341 0.241678 0.162472
v 0.185841 0.183675 0.054157
v 0.349725 0.080374 0.054157
v 0.478978 0.105755 0.162472
v 0.537513 -0.000000 0.162472
v 0.394212 -0.000000 0.054157
v 0.478978 -0.105755 0.162472
v 0.349725 -0.080374 0.054157
v 0.263341 -0.241678 0.162472
v 0.185841 -0.183675 0.054157
v 0.438331 -0.067358 0.243708
v 0.475613 -0.000000 0.243708
v 0.478978 -0.105755 0.243708
v 0.247696 -0.187520 0.243708
v 0.537513 -0.000000 0.243708
v 0.263341 -0.241678 0.243708
v 0.438331 0.067357 0.243708
v -0.429198 -0.187520 0.243709
v 0.478978 0.105755 0.243708
v -0.483355 -0.241678 0.243709
v -0.429198 0.187520 0.243709
v -0.483355 0.241678 0.243709
v 0.247696 0.187520 0.243708
v 0.263341 0.241678 0.243708
v 0.031067 -0.076775 0.189551
v 0.031067 -0.076775 0.236262
v 0.282716 -0.076775 0.189551
v 0.259360 -0.076775 0.236262
v 0.282716 -0.076775 0.212906
v 0.031067 0.076775 0.236262
v 0.031067 0.076775 0.189551
v 0.259360 0.076775 0.236262
v 0.282716 0.076775 0.189551
v 0.282716 0.076775 0.212906
v 0.003988 -0.133363 0.328279
v 0.031067 -0.106284 0.328279
v 0.031067 -0.133363 0.352023
v -0.293804 -0.133363 0.328279
v 0.031067 0.106284 0.328279
v 0.003988 0.133363 0.328279
v 0.031067 0.133363 0.352023
v -0.293804 0.133363 0.328279
v -0.293804 -0.133363 0.214548
v -0.293804 0.133363 0.214548
v 0.003988 -0.133363 0.214548
v 0.031067 -0.106284 0.214548
v 0.031067 0.106284 0.214548
v 0.003988 0.133363 0.214548
v 0.247696 -0.187520 0.189551
v 0.438331 -0.067358 0.189551
v 0.247696 0.187520 0.189551
v 0.438331 0.067357 0.189551
v 0.475613 -0.000000 0.189551
v -0.429198 0.187520 0.189551
v -0.429198 -0.187520 0.189551
v 0.085224 0.160441 0.328279
v 0.085224 -0.160441 0.328279
v 0.085224 0.160441 0.366189
v 0.085224 -0.160441 0.366189
v 0.058145 0.187520 0.366189
v 0.058145 0.187520 0.328279
v 0.058145 -0.187520 0.328279
v 0.058145 -0.187520 0.366189
v -0.347961 -0.160441 0.328279
v -0.347961 0.160441 0.328279
v -0.347961 -0.160441 0.366189
v -0.347961 0.160441 0.366189
v -0.320883 0.187520 0.366189
v -0.320883 0.187520 0.328279
v -0.320883 -0.187520 0.328279
v -0.320883 -0.187520 0.366189
v -0.019084 0.076775 0.366189
v -0.019084 -0.076775 0.366189
v -0.019084 0.076775 0.382538
v -0.019084 -0.076775 0.382538
v -0.042439 0.076775 0.398886
v -0.042439 -0.076775 0.398886
v -0.270733 -0.076775 0.366189
v -0.270733 0.076775 0.366189
v -0.270733 -0.076775 0.382538
v -0.270733 0.076775 0.382538
v -0.247377 0.076775 0.398886
v -0.247377 -0.076775 0.398886
v -0.239647 0.241678 0.243709
v -0.266725 0.241678 0.270787
v -0.375040 0.241678 0.243709
v -0.347961 0.241678 0.270787
v -0.266725 0.187520 0.270787
v -0.347961 0.187520 0.270787
v -0.239647 0.187520 0.243709
v -0.375040 0.187520 0.243709
v -0.239647 -0.187520 0.243709
v -0.266725 -0.187520 0.270787
v -0.375040 -0.187520 0.243709
v -0.347962 -0.187520 0.270787
v -0.266725 -0.241678 0.270787
v -0.347962 -0.241678 0.270787
v -0.239647 -0.241678 0.243709
v -0.375040 -0.241678 0.243709
v 0.193613 -0.187520 0.243708
v 0.166534 -0.187520 0.270787
v 0.058219 -0.187520 0.243708
v 0.085298 -0.187520 0.270787
v 0.166534 -0.241678 0.270787
v 0.085298 -0.241678 0.270787
v 0.193613 -0.241678 0.243708
v 0.058219 -0.241678 0.243708
v 0.193613 0.241678 0.243708
v 0.166534 0.241678 0.270787
v 0.058219 0.241678 0.243708
v 0.085298 0.241678 0.270787
v 0.166534 0.187520 0.270787
v 0.085298 0.187520 0.270787
v 0.193613 0.187520 0.243708
v 0.058219 0.187520 0.243708
v 0.136920 0.032689 0.247246
v 0.174666 0.032689 0.247246
v 0.141709 0.024395 0.980171
v 0.169877 0.024395 0.980171
v 0.193539 -0.000000 0.247246
v 0.174666 -0.032689 0.247246
v 0.183962 -0.000000 0.980171
v 0.169877 -0.024395 0.980171
v 0.136920 -0.032689 0.247246
v 0.118047 -0.000000 0.247246
v 0.141709 -0.024395 0.980171
v 0.127624 -0.000000 0.980171
v 0.180188 -0.051473 0.517830
v 0.131398 -0.051473 0.517830
v 0.180188 -0.051473 0.555740
v 0.131398 -0.051473 0.555740
v 0.207266 -0.024395 0.555740
v 0.207266 -0.024395 0.517830
v 0.104319 0.024395 0.517830
v 0.104319 0.024395 0.555740
v 0.104319 -0.024395 0.517830
v 0.104319 -0.024395 0.555740
v 0.131398 0.051473 0.517830
v 0.180188 0.051473 0.517830
v 0.131398 0.051473 0.555740
v 0.180188 0.051473 0.555740
v 0.207266 0.024395 0.555740
v 0.207266 0.024395 0.517830
v 0.180188 -0.051473 0.309324
v 0.131398 -0.051473 0.309324
v 0.180188 -0.051473 0.347234
v 0.131398 -0.051473 0.347234
v 0.207266 -0.024395 0.347234
v 0.207266 -0.024395 0.309324
v 0.104319 0.024395 0.309324
v 0.104319 0.024395 0.347234
v 0.104319 -0.024395 0.309324
v 0.104319 -0.024395 0.347234
v 0.131398 0.051473 0.309324
v 0.180188 0.051473 0.309324
v 0.131398 0.051473 0.347234
v 0.180188 0.051473 0.347234
v 0.207266 0.024395 0.347234
v 0.207266 0.024395 0.309324
v 0.180188 -0.051473 0.915887
v 0.131398 -0.051473 0.915887
v 0.180188 -0.051473 0.953797
v 0.131398 -0.051473 0.953797
v 0.207267 -0.024395 0.953797
v 0.207267 -0.024395 0.915887
v 0.104320 0.024395 0.915887
v 0.104320 0.024395 0.953797
v 0.104320 -0.024395 0.915887
v 0.104320 -0.024395 0.953797
v 0.131398 0.051473 0.915887
v 0.180188 0.051473 0.915887
v 0.131398 0.051473 0.953797
v 0.180188 0.051473 0.953797
v 0.207267 0.024395 0.953797
v 0.207267 0.024395 0.915887
v 0.155793 0.024395 0.456813
v -0.204947 0.024395 0.456813
v 0.155793 -0.024395 0.456813
v -0.204947 -0.024395 0.456813
v -0.204947 0.024395 0.490966
v 0.155793 0.024395 0.490966
v -0.204947 -0.024395 0.490966
v 0.155793 -0.024395 0.490966
v -0.150789 -0.051473 0.456813
v -0.150789 -0.051473 0.490966
v -0.096632 -0.051473 0.456813
v -0.096632 -0.051473 0.490966
v -0.096632 -0.024395 0.437858
v -0.150789 -0.024395 0.437858
v -0.150789 0.024395 0.509921
v -0.096632 0.024395 0.509921
v -0.150789 -0.024395 0.509921
v -0.096632 -0.024395 0.509921
v -0.150789 0.051473 0.490966
v -0.150789 0.051473 0.456813
v -0.096632 0.051473 0.490966
v -0.096632 0.051473 0.456813
v -0.096632 0.024395 0.437858
v -0.150789 0.024395 0.437858
v 0.514339 0.024395 0.309324
v 0.207266 0.024395 0.309324
v 0.514339 -0.024395 0.309324
v 0.207266 -0.024395 0.309324
v 0.207266 -0.024395 0.779574
v 0.207266 0.024395 0.779574
v 0.371450 0.024395 0.452044
v 0.267946 0.024395 0.610549
v 0.371450 -0.024395 0.452044
v 0.267946 -0.024395 0.610549
v 0.104319 0.024395 0.509921
v -0.204947 0.024395 0.509921
v 0.104319 -0.024395 0.509921
v -0.204947 -0.024395 0.509921
v 0.104320 0.024395 0.980171
v 0.104320 -0.024395 0.980171
v -0.039590 0.024395 0.837451
v -0.143833 0.024395 0.678945
v -0.039590 -0.024395 0.837451
v -0.143833 -0.024395 0.678945
vn -0.9008 -0.0000 -0.4342
vn -0.9681 -0.0000 -0.2507
vn -0.0000 -0.0000 -1.0000
vn 0.2709 0.7544 -0.5978
vn -0.0000 0.8816 -0.4721
vn 0.1621 0.8170 -0.5534
vn 0.4799 0.5323 -0.6974
vn 0.1621 0.8170 -0.5535
vn 0.2709 0.7544 -0.5979
vn 0.5242 0.4407 -0.7287
vn 0.6030 -0.0000 -0.7977
vn 0.5241 0.4407 -0.7287
vn 0.6030 -0.0000 -0.7978
vn 0.5241 -0.4407 -0.7287
vn 0.4799 -0.5323 -0.6974
vn 0.2709 -0.7544 -0.5979
vn 0.5242 -0.4407 -0.7287
vn 0.2709 -0.7544 -0.5978
vn 0.1621 -0.8170 -0.5535
vn -0.0000 -0.8816 -0.4721
vn 0.1621 -0.8170 -0.5534
vn -0.0000 -0.5934 -0.8049
vn 0.1588 -0.3934 -0.9055
vn 0.0641 -0.5181 -0.8529
vn 0.2361 -0.1920 -0.9526
vn 0.2207 -0.2620 -0.9395
vn 0.2495 -0.0000 -0.9684
vn 0.2207 0.2620 -0.9395
vn 0.2361 0.1920 -0.9526
vn 0.0641 0.5181 -0.8529
vn 0.1588 0.3934 -0.9055
vn -0.0000 0.5934 -0.8049
vn -0.0000 -0.0000 1.0000
vn -0.0000 -1.0000 -0.0000
vn -0.0000 1.0000 -0.0000
vn 0.9239 -0.0000 0.3827
vn 1.0000 -0.0000 -0.0000
vn 0.3827 -0.0000 0.9239
vn 0.3827 0.0001 0.9239
vn -0.5504 0.5504 0.6277
vn -0.5504 -0.5504 0.6277
vn -1.0000 -0.0000 -0.0000
vn 0.3817 -0.9239 0.0279
vn 0.3824 -0.9239 0.0155
vn 0.3827 -0.9239 -0.0000
vn 0.9234 -0.3831 0.0227
vn 0.3828 -0.9238 -0.0093
vn 0.3831 -0.9234 -0.0227
vn 0.9238 -0.3828 0.0093
vn 0.9239 -0.3827 -0.0000
vn 0.9239 -0.3823 0.0181
vn 0.9239 0.3811 -0.0344
vn 0.9239 0.3823 -0.0181
vn 0.9239 -0.3811 0.0344
vn 0.9239 0.3827 -0.0000
vn 0.3831 0.9234 0.0227
vn 0.9238 0.3828 -0.0093
vn 0.9234 0.3831 -0.0227
vn 0.3828 0.9238 0.0093
vn 0.3827 0.9239 -0.0000
vn 0.3824 0.9239 -0.0155
vn 0.3817 0.9239 -0.0279
vn 0.7269 0.6867 -0.0000
vn 0.5332 0.8460 -0.0000
vn 0.7269 -0.6867 0.0001
vn 0.7269 -0.6867 -0.0000
vn 0.5332 -0.8460 -0.0000
vn -0.7269 0.6867 -0.0000
vn -0.5332 0.8460 -0.0000
vn -0.7269 -0.6867 -0.0000
vn -0.5332 -0.8460 -0.0000
vn 0.9239 0.3826 -0.0061
vn 0.9239 -0.3826 0.0097
vn 0.9239 -0.3826 0.0061
vn 0.9239 0.3826 -0.0097
vn 0.9224 0.3841 -0.0394
vn 0.3830 0.9236 0.0186
vn 0.3841 0.9224 0.0394
vn 0.9236 0.3830 -0.0186
vn 0.9224 -0.3841 0.0394
vn 0.3830 -0.9236 -0.0186
vn 0.3841 -0.9224 -0.0394
vn 0.9236 -0.3830 0.0186
vn -0.9239 -0.3826 -0.0061
vn -0.9239 0.3826 0.0097
vn -0.9239 -0.3827 -0.0000
vn -0.9239 0.3826 0.0061
vn -0.9239 -0.3826 -0.0097
vn -0.9239 0.3827 -0.0000
vn -0.3841 0.9224 -0.0394
vn -0.9236 0.3830 0.0186
vn -0.9224 0.3841 0.0394
vn -0.3830 0.9236 -0.0186
vn -0.3827 0.9239 -0.0000
vn -0.3841 -0.9224 0.0394
vn -0.9236 -0.3830 -0.0186
vn -0.9224 -0.3841 -0.0394
vn -0.3830 -0.9236 0.0186
vn -0.3827 -0.9239 -0.0000
vn 0.3826 -0.9239 0.0083
vn -0.3827 -0.9239 -0.0052
vn -0.3826 -0.9239 -0.0083
vn 0.3827 -0.9239 0.0052
vn 0.3826 0.9239 -0.0083
vn -0.3827 0.9239 0.0052
vn -0.3826 0.9239 0.0083
vn 0.3827 0.9239 -0.0052
vn -0.0000 -0.6593 -0.7519
vn -0.4015 -0.0000 -0.9158
vn 0.0721 0.1443 -0.9869
vn 0.9557 0.1941 -0.2213
vn -0.5504 -0.5504 -0.6277
vn 0.2975 0.8924 -0.3392
vn 0.9239 0.0111 0.3825
vn 0.9239 0.0044 0.3827
vn 0.2163 0.0069 0.9763
vn 0.8433 -0.0028 0.5374
vn 0.8433 -0.0000 0.5374
vn 0.8433 -0.0069 0.5374
vn 0.2163 0.0028 0.9763
vn 0.2163 0.0001 0.9763
vn -0.9239 -0.0111 0.3825
vn -0.9239 -0.0044 0.3827
vn -0.9239 -0.0000 0.3827
vn -0.3827 -0.0000 0.9239
vn -0.8433 0.0069 0.5374
vn -0.2163 -0.0028 0.9763
vn -0.2163 -0.0000 0.9763
vn -0.2163 -0.0069 0.9763
vn -0.8433 0.0028 0.5374
vn -0.8433 0.0002 0.5374
vn -0.7071 -0.0000 0.7071
vn 0.7071 -0.0000 0.7071
vn -0.5000 0.8660 0.0111
vn 0.4999 0.8659 0.0165
vn -0.5000 0.8659 0.0127
vn 0.5000 0.8659 0.0145
vn -0.5000 0.8660 0.0076
vn 0.5000 0.8659 0.0127
vn 0.9999 -0.0000 0.0111
vn 0.4999 -0.8659 0.0165
vn 0.9999 -0.0000 0.0127
vn 0.4999 -0.8659 0.0145
vn 1.0000 -0.0000 0.0076
vn 0.4999 -0.8660 0.0127
vn -0.5000 -0.8660 0.0111
vn -0.9999 -0.0000 0.0165
vn -0.4999 -0.8660 0.0127
vn -0.9999 -0.0000 0.0145
vn -0.5000 -0.8660 0.0076
vn -0.9999 -0.0000 0.0127
vn -0.9999 -0.0000 0.0111
vn -0.4999 0.8659 0.0165
vn -0.4999 0.8659 0.0145
vn -1.0000 -0.0000 0.0076
vn -0.4999 0.8660 0.0127
vn -0.5000 -0.8659 0.0127
vn 0.5000 -0.8659 0.0145
vn 0.5000 -0.8659 0.0127
vn 0.5000 0.8660 0.0111
vn 0.9999 -0.0000 0.0165
vn 0.4999 0.8660 0.0127
vn 0.9999 -0.0000 0.0145
vn 0.5000 0.8660 0.0076
vn 0.3822 -0.9239 -0.0192
vn -0.3807 -0.9239 0.0390
vn -0.3822 -0.9239 0.0192
vn 0.3807 -0.9239 -0.0390
vn -0.9239 -0.3807 0.0390
vn -0.9239 0.3822 -0.0192
vn -0.9239 0.3807 -0.0390
vn -0.9239 -0.3822 0.0192
vn -0.3822 0.9239 -0.0192
vn 0.3807 0.9239 0.0390
vn 0.3822 0.9239 0.0192
vn -0.3807 0.9239 -0.0390
vn 0.9239 -0.3807 -0.0390
vn 0.9239 0.3822 0.0192
vn 0.9239 0.3807 0.0390
vn 0.9239 -0.3822 -0.0192
vn 0.0185 -0.9239 -0.3822
vn -0.0376 -0.9239 0.3808
vn -0.0000 -0.9239 -0.3827
vn -0.0185 -0.9239 0.3822
vn 0.0376 -0.9239 -0.3808
vn -0.0000 -0.9239 0.3827
vn 0.0152 -0.8431 -0.5376
vn -0.0071 -0.2163 -0.9763
vn -0.0000 -0.2163 -0.9763
vn -0.0152 -0.2165 -0.9762
vn 0.0071 -0.8433 -0.5374
vn -0.0000 -0.8433 -0.5374
vn -0.0000 -0.3827 0.9239
vn -0.0000 0.3827 0.9239
vn -0.0152 -0.8431 0.5376
vn 0.0071 -0.2163 0.9763
vn -0.0000 -0.2163 0.9763
vn 0.0152 -0.2165 0.9762
vn -0.0071 -0.8433 0.5374
vn -0.0000 -0.8433 0.5374
vn 0.0185 0.9239 0.3822
vn -0.0376 0.9239 -0.3808
vn -0.0000 0.9239 0.3827
vn -0.0185 0.9239 -0.3822
vn 0.0376 0.9239 0.3808
vn -0.0000 0.9239 -0.3827
vn -0.0152 0.2165 0.9762
vn 0.0071 0.8433 0.5374
vn -0.0000 0.8433 0.5374
vn 0.0152 0.8431 0.5376
vn -0.0071 0.2163 0.9763
vn -0.0000 0.2163 0.9763
vn -0.0000 -0.3827 -0.9239
vn -0.0000 0.3827 -0.9239
vn 0.0152 0.2165 -0.9762
vn -0.0071 0.8433 -0.5374
vn -0.0000 0.8433 -0.5374
vn -0.0152 0.8431 -0.5376
vn 0.0071 0.2163 -0.9763
vn -0.0000 0.2163 -0.9763
vn 0.5693 0.7282 0.3816
vn 0.6334 0.5213 0.5719
vn 0.5320 0.7275 0.4333
vn 0.5928 -0.5211 0.6141
vn 0.6031 0.5213 0.6038
vn 0.6220 0.7282 0.2877
vn 0.5822 0.7282 0.3616
vn 0.6390 0.7282 0.2478
vn 0.9381 0.1548 0.3099
vn 0.5989 -0.5213 0.6079
vn 0.5413 0.7261 0.4240
vn 0.5265 -0.7282 0.4387
vn 0.6113 0.7272 0.3122
vn 0.5219 -0.7252 0.4490
vn 0.5373 0.7282 0.4255
vn 0.5693 -0.7282 0.3816
vn 0.6334 -0.5213 0.5719
vn 0.9308 0.1548 0.3311
vn 0.6097 -0.7244 0.3217
vn 0.6213 0.7282 0.2894
vn 0.5316 -0.7272 0.4342
vn 0.6210 0.7252 0.2973
vn 0.6056 -0.7282 0.3208
vn 0.6220 -0.7282 0.2877
vn 0.5822 -0.7282 0.3616
vn 0.6170 -0.7270 0.3013
vn 0.9322 0.1547 0.3271
vn 0.9298 -0.1548 0.3338
vn 0.6390 -0.7282 0.2478
vn 0.9381 -0.1548 0.3099
vn -0.6082 0.6871 0.3975
vn -0.6870 0.3644 0.6287
vn -0.5509 0.6878 0.4727
vn -0.6629 -0.3642 0.6541
vn -0.6558 0.3644 0.6612
vn -0.6783 0.6871 0.2606
vn -0.6022 0.6871 0.4065
vn -0.6820 0.6871 0.2506
vn -0.7271 0.6442 0.2374
vn -0.6587 -0.3644 0.6583
vn -0.5436 0.6886 0.4799
vn -0.5567 -0.6871 0.4669
vn -0.6351 0.6880 0.3511
vn -0.5817 -0.6890 0.4322
vn -0.5680 0.6871 0.4531
vn -0.6082 -0.6871 0.3975
vn -0.6870 -0.3644 0.6287
vn -0.7153 0.6441 0.2713
vn -0.6682 -0.6893 0.2799
vn -0.6578 0.6871 0.3086
vn -0.5740 -0.6881 0.4440
vn -0.6274 0.6890 0.3628
vn -0.6411 -0.6871 0.3419
vn -0.6783 -0.6871 0.2606
vn -0.6022 -0.6871 0.4065
vn -0.6624 -0.6882 0.2960
vn -0.7093 0.6435 0.2878
vn -0.7193 -0.6442 0.2601
vn -0.6820 -0.6871 0.2506
vn -0.7271 -0.6442 0.2374
vt 0.718750 0.025000
vt 0.718750 0.025000
vt 0.718750 0.069444
vt 0.718750 0.069444
vt 0.718750 0.158333
vt 0.718750 0.408333
vt 0.718750 0.158333
vt 0.718750 0.408333
vt 0.718750 0.025000
vt 0.718750 0.025000
vt 0.718750 0.025000
vt 0.718750 0.025000
vt 0.718750 0.025000
vt 0.718750 0.158333
vt 0.718750 0.408333
vt 0.718750 0.069444
vt 0.718750 0.069444
vt 0.718750 0.158333
vt 0.718750 0.408333
vt 0.718750 0.158333
vt 0.718750 0.408333
vt 0.718750 0.069444
vt 0.718750 0.158333
vt 0.718750 0.408333
vt 0.718750 0.069444
vt 0.718750 0.158333
vt 0.718750 0.408333
vt 0.718750 0.069444
vt 0.718750 0.225000
vt 0.718750 0.475000
vt 0.718750 0.225000
vt 0.718750 0.475000
vt 0.718750 0.225000
vt 0.718750 0.475000
vt 0.718750 0.225000
vt 0.718750 0.475000
vt 0.718750 0.225000
vt 0.718750 0.475000
vt 0.718750 0.225000
vt 0.718750 0.475000
vt 0.718750 0.225000
vt 0.718750 0.475000
vt 0.718750 0.225000
vt 0.718750 0.475000
vt 0.718750 0.225000
vt 0.718750 0.475000
vt 0.718750 0.225000
vt 0.718750 0.475000
vt 0.718750 0.225000
vt 0.718750 0.475000
vt 0.718750 0.225000
vt 0.718750 0.475000
vt 0.718750 0.225000
vt 0.718750 0.475000
vt 0.718750 0.225000
vt 0.718750 0.475000
vt 0.718750 0.025000
vt 0.718750 0.225000
vt 0.718750 0.025000
vt 0.718750 0.225000
vt 0.718750 0.125000
vt 0.718750 0.225000
vt 0.718750 0.025000
vt 0.718750 0.225000
vt 0.718750 0.025000
vt 0.718750 0.125000
vt 0.718750 0.175000
vt 0.718750 0.425000
vt 0.718750 0.175000
vt 0.718750 0.425000
vt 0.718750 0.175000
vt 0.718750 0.425000
vt 0.718750 0.175000
vt 0.718750 0.425000
vt 0.718750 0.175000
vt 0.718750 0.425000
vt 0.718750 0.175000
vt 0.718750 0.425000
vt 0.718750 0.175000
vt 0.718750 0.425000
vt 0.718750 0.175000
vt 0.718750 0.425000
vt 0.718750 0.025000
vt 0.718750 0.025000
vt 0.718750 0.025000
vt 0.718750 0.025000
vt 0.718750 0.025000
vt 0.718750 0.025000
vt 0.718750 0.430556
vt 0.718750 0.430556
vt 0.718750 0.430556
vt 0.718750 0.430556
vt 0.718750 0.430556
vt 0.718750 0.430556
vt 0.718750 0.430556
vt 0.718750 0.425000
vt 0.718750 0.425000
vt 0.718750 0.475000
vt 0.718750 0.475000
vt 0.718750 0.475000
vt 0.718750 0.425000
vt 0.718750 0.425000
vt 0.718750 0.475000
vt 0.718750 0.425000
vt 0.718750 0.425000
vt 0.718750 0.475000
vt 0.718750 0.475000
vt 0.718750 0.475000
vt 0.718750 0.425000
vt 0.718750 0.425000
vt 0.718750 0.475000
vt 0.718750 0.275000
vt 0.718750 0.275000
vt 0.718750 0.375000
vt 0.718750 0.375000
vt 0.718750 0.475000
vt 0.718750 0.475000
vt 0.718750 0.275000
vt 0.718750 0.275000
vt 0.718750 0.375000
vt 0.718750 0.375000
vt 0.718750 0.475000
vt 0.718750 0.475000
vt 0.718750 0.025000
vt 0.718750 0.225000
vt 0.718750 0.025000
vt 0.718750 0.225000
vt 0.718750 0.225000
vt 0.718750 0.225000
vt 0.718750 0.025000
vt 0.718750 0.025000
vt 0.718750 0.025000
vt 0.718750 0.225000
vt 0.718750 0.025000
vt 0.718750 0.225000
vt 0.718750 0.225000
vt 0.718750 0.225000
vt 0.718750 0.025000
vt 0.718750 0.025000
vt 0.718750 0.025000
vt 0.718750 0.225000
vt 0.718750 0.025000
vt 0.718750 0.225000
vt 0.718750 0.225000
vt 0.718750 0.225000
vt 0.718750 0.025000
vt 0.718750 0.025000
vt 0.718750 0.025000
vt 0.718750 0.225000
vt 0.718750 0.025000
vt 0.718750 0.225000
vt 0.718750 0.225000
vt 0.718750 0.225000
vt 0.718750 0.025000
vt 0.718750 0.025000
vt 0.343750 0.025000
vt 0.343750 0.025000
vt 0.343750 0.225000
vt 0.343750 0.225000
vt 0.343750 0.025000
vt 0.343750 0.025000
vt 0.343750 0.225000
vt 0.343750 0.225000
vt 0.343750 0.025000
vt 0.343750 0.025000
vt 0.343750 0.225000
vt 0.343750 0.225000
vt 0.343750 0.077607
vt 0.343750 0.172393
vt 0.343750 0.077607
vt 0.343750 0.172393
vt 0.343750 0.025000
vt 0.343750 0.025000
vt 0.343750 0.225000
vt 0.343750 0.225000
vt 0.343750 0.225000
vt 0.343750 0.225000
vt 0.343750 0.172393
vt 0.343750 0.077607
vt 0.343750 0.172393
vt 0.343750 0.077607
vt 0.343750 0.025000
vt 0.343750 0.025000
vt 0.343750 0.077607
vt 0.343750 0.172393
vt 0.343750 0.077607
vt 0.343750 0.172393
vt 0.343750 0.025000
vt 0.343750 0.025000
vt 0.343750 0.225000
vt 0.343750 0.225000
vt 0.343750 0.225000
vt 0.343750 0.225000
vt 0.343750 0.172393
vt 0.343750 0.077607
vt 0.343750 0.172393
vt 0.343750 0.077607
vt 0.343750 0.025000
vt 0.343750 0.025000
vt 0.343750 0.077607
vt 0.343750 0.172393
vt 0.343750 0.077607
vt 0.343750 0.172393
vt 0.343750 0.025000
vt 0.343750 0.025000
vt 0.343750 0.225000
vt 0.343750 0.225000
vt 0.343750 0.225000
vt 0.343750 0.225000
vt 0.343750 0.172393
vt 0.343750 0.077607
vt 0.343750 0.172393
vt 0.343750 0.077607
vt 0.343750 0.025000
vt 0.343750 0.025000
vt 0.343750 0.025000
vt 0.343750 0.025000
vt 0.343750 0.025000
vt 0.343750 0.025000
vt 0.343750 0.225000
vt 0.343750 0.225000
vt 0.343750 0.225000
vt 0.343750 0.225000
vt 0.343750 0.077607
vt 0.343750 0.172393
vt 0.343750 0.077607
vt 0.343750 0.172393
vt 0.343750 0.025000
vt 0.343750 0.025000
vt 0.343750 0.225000
vt 0.343750 0.225000
vt 0.343750 0.225000
vt 0.343750 0.225000
vt 0.343750 0.172393
vt 0.343750 0.077607
vt 0.343750 0.172393
vt 0.343750 0.077607
vt 0.343750 0.025000
vt 0.343750 0.025000
vt 0.718750 0.025000
vt 0.718750 0.025000
vt 0.718750 0.025000
vt 0.718750 0.025000
vt 0.718750 0.225000
vt 0.718750 0.225000
vt 0.718750 0.085700
vt 0.718750 0.153113
vt 0.718750 0.085700
vt 0.718750 0.153113
vt 0.718750 0.025000
vt 0.718750 0.025000
vt 0.718750 0.025000
vt 0.718750 0.025000
vt 0.718750 0.225000
vt 0.718750 0.225000
vt 0.718750 0.164300
vt 0.718750 0.096887
vt 0.718750 0.164300
vt 0.718750 0.096887
s 0
usemtl colormap
f 3/3/1 2/2/1 1/1/1
f 2/2/1 3/3/1 4/4/1
f 5/5/2 4/4/2 3/3/2
f 4/4/2 5/5/2 6/7/2
f 8/10/3 2/2/3 7/9/3
f 2/2/3 8/10/3 1/1/3
f 1/1/3 8/10/3 9/11/3
f 1/1/3 9/11/3 10/12/3
f 1/1/3 10/12/3 11/13/3
f 12/14/4 4/4/5 6/7/5
f 4/4/5 12/14/4 13/16/6
f 12/14/4 14/17/7 13/16/8
f 14/17/7 12/14/9 15/18/10
f 16/20/11 14/17/7 15/18/12
f 14/17/7 16/20/13 17/22/11
f 18/23/14 17/22/11 16/20/13
f 17/22/11 18/23/14 19/25/15
f 20/26/16 19/25/15 18/23/17
f 19/25/15 20/26/18 21/28/19
f 20/26/18 3/3/20 21/28/21
f 3/3/20 20/26/18 5/5/20
f 1/1/22 21/28/23 3/3/22
f 21/28/23 1/1/22 11/13/24
f 11/13/24 19/25/25 21/28/23
f 19/25/25 11/13/24 10/12/26
f 9/11/27 19/25/25 10/12/26
f 19/25/25 9/11/27 17/22/27
f 8/10/28 17/22/27 9/11/27
f 17/22/27 8/10/28 14/17/29
f 7/9/30 14/17/29 8/10/28
f 14/17/29 7/9/30 13/16/31
f 7/9/30 4/4/32 13/16/31
f 4/4/32 7/9/30 2/2/32
f 24/33/33 23/31/33 22/29/33
f 24/33/33 22/29/33 25/35/33
f 26/37/33 23/31/33 24/33/33
f 24/33/33 25/35/33 27/39/33
f 26/37/33 28/41/33 23/31/33
f 27/39/33 25/35/33 29/43/33
f 30/45/33 28/41/33 26/37/33
f 29/43/33 31/47/33 27/39/33
f 32/49/33 31/47/33 29/43/33
f 32/49/33 33/51/33 31/47/33
f 30/45/33 34/53/33 28/41/33
f 33/51/33 32/49/33 34/53/33
f 35/55/33 34/53/33 30/45/33
f 34/53/33 35/55/33 33/51/33
f 38/59/34 37/58/34 36/57/34
f 37/58/34 38/59/34 39/60/34
f 39/60/34 38/59/34 40/61/34
f 43/64/35 42/63/35 41/62/35
f 42/63/35 43/64/35 44/65/35
f 44/65/35 43/64/35 45/66/35
f 45/66/36 38/59/37 44/65/37
f 38/59/37 45/66/36 40/61/36
f 43/64/38 40/61/36 45/66/36
f 40/61/36 43/64/38 39/60/39
f 41/62/33 39/60/38 43/64/38
f 39/60/38 41/62/33 37/58/33
f 48/71/40 47/69/40 46/67/40
f 47/69/33 49/73/33 46/67/33
f 50/75/33 49/73/33 47/69/33
f 51/77/33 49/73/33 50/75/33
f 50/75/41 52/79/41 51/77/41
f 49/73/33 51/77/33 53/81/33
f 49/73/42 55/84/42 54/83/42
f 55/84/42 49/73/42 53/81/42
f 56/85/43 49/73/34 54/83/34
f 49/73/34 56/85/44 46/67/45
f 57/86/46 46/67/47 56/85/45
f 46/67/48 57/86/49 47/69/50
f 57/86/51 50/75/52 47/69/50
f 50/75/53 57/86/54 58/87/55
f 59/88/56 50/75/57 58/87/55
f 50/75/58 59/88/59 51/77/60
f 55/84/35 51/77/61 59/88/60
f 51/77/62 55/84/35 53/81/35
f 58/87/3 55/84/3 59/88/3
f 55/84/3 58/87/3 54/83/3
f 54/83/3 58/87/3 57/86/3
f 54/83/3 57/86/3 56/85/3
f 31/48/42 6/8/42 5/6/42
f 6/8/42 31/48/42 33/52/42
f 30/46/63 16/21/37 15/19/63
f 16/21/37 30/46/63 26/38/37
f 30/46/63 12/15/64 35/56/64
f 12/15/64 30/46/63 15/19/63
f 26/38/37 18/24/65 16/21/37
f 18/24/66 26/38/37 24/34/66
f 18/24/66 27/40/67 20/27/67
f 27/40/67 18/24/66 24/34/66
f 22/30/68 60/89/69 25/36/69
f 60/89/69 22/30/68 61/90/68
f 63/92/70 34/54/71 62/91/71
f 34/54/71 63/92/70 28/42/70
f 23/32/42 63/92/70 64/93/42
f 63/92/70 23/32/42 28/42/70
f 22/30/68 64/93/42 61/90/68
f 64/93/42 22/30/68 23/32/42
f 32/50/37 66/95/37 65/94/37
f 66/95/37 32/50/37 29/44/37
f 35/56/35 6/8/35 33/52/35
f 6/8/35 35/56/35 12/15/35
f 20/27/34 31/48/34 5/6/34
f 31/48/34 20/27/34 27/40/34
f 65/94/33 63/92/33 62/91/33
f 63/92/33 65/94/33 66/95/33
f 63/92/33 66/95/33 64/93/33
f 64/93/33 66/95/33 61/90/33
f 61/90/33 66/95/33 60/89/33
f 62/91/34 32/50/34 65/94/34
f 32/50/34 62/91/34 34/54/34
f 25/36/35 66/95/35 29/44/35
f 66/95/35 25/36/35 60/89/35
f 69/98/72 68/97/73 67/96/55
f 68/97/74 69/98/75 70/99/50
f 69/98/76 72/101/77 71/100/60
f 72/101/78 69/98/79 67/96/55
f 68/97/80 74/103/81 73/102/45
f 74/103/82 68/97/83 70/99/50
f 77/106/84 76/105/85 75/104/86
f 76/105/87 77/106/88 78/107/89
f 79/108/90 76/105/91 78/107/89
f 76/105/92 79/108/93 80/109/94
f 81/110/95 77/106/96 75/104/86
f 77/106/97 81/110/98 82/111/99
f 73/102/100 82/111/101 81/110/99
f 82/111/102 73/102/103 74/103/45
f 78/107/33 71/100/33 79/108/33
f 71/100/33 78/107/33 69/98/33
f 69/98/33 78/107/33 77/106/33
f 69/98/33 77/106/33 70/99/33
f 70/99/33 77/106/33 82/111/33
f 70/99/33 82/111/33 74/103/33
f 71/100/104 80/109/105 79/108/94
f 80/109/106 71/100/107 72/101/60
f 67/96/3 80/109/3 72/101/3
f 80/109/3 67/96/3 76/105/3
f 76/105/108 67/96/108 52/80/108
f 52/80/109 67/96/109 68/97/109
f 53/82/110 76/105/110 52/80/110
f 53/82/35 52/80/35 51/78/35
f 52/80/111 68/97/111 50/76/111
f 76/105/3 53/82/3 75/104/3
f 50/76/3 68/97/3 47/70/3
f 47/70/112 68/97/112 48/72/112
f 48/72/113 68/97/113 46/68/113
f 46/68/3 68/97/3 49/74/3
f 75/104/3 53/82/3 49/74/3
f 75/104/3 49/74/3 68/97/3
f 75/104/3 68/97/3 73/102/3
f 75/104/3 73/102/3 81/110/3
f 85/114/114 84/113/37 83/112/37
f 84/113/37 85/114/115 86/115/36
f 87/116/116 86/115/117 85/114/118
f 86/115/119 87/116/120 88/117/121
f 91/120/122 90/119/42 89/118/42
f 90/119/42 91/120/123 92/121/124
f 93/122/125 88/117/38 87/116/38
f 88/117/38 93/122/125 94/123/125
f 92/121/126 94/123/127 93/122/128
f 94/123/129 92/121/130 91/120/131
f 84/113/34 91/120/34 89/118/34
f 91/120/34 84/113/34 94/123/34
f 94/123/34 84/113/34 88/117/34
f 88/117/34 84/113/34 86/115/34
f 93/122/35 90/119/35 92/121/35
f 90/119/35 93/122/35 83/112/35
f 83/112/35 93/122/35 87/116/35
f 83/112/35 87/116/35 85/114/35
f 97/126/35 96/125/35 95/124/35
f 96/125/35 97/126/35 98/127/35
f 96/125/38 100/129/125 99/128/38
f 100/129/125 96/125/38 98/127/125
f 99/128/34 102/131/34 101/130/34
f 102/131/34 99/128/34 100/129/34
f 98/127/125 102/131/132 100/129/125
f 102/131/132 98/127/125 97/126/132
f 95/124/133 99/128/38 101/130/133
f 99/128/38 95/124/133 96/125/38
f 105/134/35 104/133/35 103/132/35
f 104/133/35 105/134/35 106/135/35
f 104/133/38 108/137/125 107/136/38
f 108/137/125 104/133/38 106/135/125
f 107/136/34 110/139/34 109/138/34
f 110/139/34 107/136/34 108/137/34
f 106/135/125 110/139/132 108/137/125
f 110/139/132 106/135/125 105/134/132
f 103/132/133 107/136/38 109/138/133
f 107/136/38 103/132/133 104/133/38
f 113/142/35 112/141/35 111/140/35
f 112/141/35 113/142/35 114/143/35
f 112/141/38 116/145/125 115/144/38
f 116/145/125 112/141/38 114/143/125
f 115/144/34 118/147/34 117/146/34
f 118/147/34 115/144/34 116/145/34
f 114/143/125 118/147/132 116/145/125
f 118/147/132 114/143/125 113/142/132
f 111/140/133 115/144/38 117/146/133
f 115/144/38 111/140/133 112/141/38
f 121/150/35 120/149/35 119/148/35
f 120/149/35 121/150/35 122/151/35
f 120/149/38 124/153/125 123/152/38
f 124/153/125 120/149/38 122/151/125
f 123/152/34 126/155/34 125/154/34
f 126/155/34 123/152/34 124/153/34
f 122/151/125 126/155/132 124/153/125
f 126/155/132 122/151/125 121/150/132
f 119/148/133 123/152/38 125/154/133
f 123/152/38 119/148/133 120/149/38
f 3/3/1 2/2/1 1/1/1
f 2/2/1 3/3/1 4/4/1
f 5/5/2 4/4/2 3/3/2
f 4/4/2 5/5/2 6/7/2
f 8/10/3 2/2/3 7/9/3
f 2/2/3 8/10/3 1/1/3
f 1/1/3 8/10/3 9/11/3
f 1/1/3 9/11/3 10/12/3
f 1/1/3 10/12/3 11/13/3
f 12/14/4 4/4/5 6/7/5
f 4/4/5 12/14/4 13/16/6
f 12/14/4 14/17/7 13/16/8
f 14/17/7 12/14/9 15/18/10
f 16/20/11 14/17/7 15/18/12
f 14/17/7 16/20/13 17/22/11
f 18/23/14 17/22/11 16/20/13
f 17/22/11 18/23/14 19/25/15
f 20/26/16 19/25/15 18/23/17
f 19/25/15 20/26/18 21/28/19
f 20/26/18 3/3/20 21/28/21
f 3/3/20 20/26/18 5/5/20
f 1/1/22 21/28/23 3/3/22
f 21/28/23 1/1/22 11/13/24
f 11/13/24 19/25/25 21/28/23
f 19/25/25 11/13/24 10/12/26
f 9/11/27 19/25/25 10/12/26
f 19/25/25 9/11/27 17/22/27
f 8/10/28 17/22/27 9/11/27
f 17/22/27 8/10/28 14/17/29
f 7/9/30 14/17/29 8/10/28
f 14/17/29 7/9/30 13/16/31
f 7/9/30 4/4/32 13/16/31
f 4/4/32 7/9/30 2/2/32
f 24/33/33 23/31/33 22/29/33
f 24/33/33 22/29/33 25/35/33
f 26/37/33 23/31/33 24/33/33
f 24/33/33 25/35/33 27/39/33
f 26/37/33 28/41/33 23/31/33
f 27/39/33 25/35/33 29/43/33
f 30/45/33 28/41/33 26/37/33
f 29/43/33 31/47/33 27/39/33
f 32/49/33 31/47/33 29/43/33
f 32/49/33 33/51/33 31/47/33
f 30/45/33 34/53/33 28/41/33
f 33/51/33 32/49/33 34/53/33
f 35/55/33 34/53/33 30/45/33
f 34/53/33 35/55/33 33/51/33
f 38/59/34 37/58/34 36/57/34
f 37/58/34 38/59/34 39/60/34
f 39/60/34 38/59/34 40/61/34
f 43/64/35 42/63/35 41/62/35
f 42/63/35 43/64/35 44/65/35
f 44/65/35 43/64/35 45/66/35
f 45/66/36 38/59/37 44/65/37
f 38/59/37 45/66/36 40/61/36
f 43/64/38 40/61/36 45/66/36
f 40/61/36 43/64/38 39/60/39
f 41/62/33 39/60/38 43/64/38
f 39/60/38 41/62/33 37/58/33
f 48/71/40 47/69/40 46/67/40
f 47/69/33 49/73/33 46/67/33
f 50/75/33 49/73/33 47/69/33
f 51/77/33 49/73/33 50/75/33
f 50/75/41 52/79/41 51/77/41
f 49/73/33 51/77/33 53/81/33
f 49/73/42 55/84/42 54/83/42
f 55/84/42 49/73/42 53/81/42
f 56/85/43 49/73/34 54/83/34
f 49/73/34 56/85/44 46/67/45
f 57/86/46 46/67/47 56/85/45
f 46/67/48 57/86/49 47/69/50
f 57/86/51 50/75/52 47/69/50
f 50/75/53 57/86/54 58/87/55
f 59/88/56 50/75/57 58/87/55
f 50/75/58 59/88/59 51/77/60
f 55/84/35 51/77/61 59/88/60
f 51/77/62 55/84/35 53/81/35
f 58/87/3 55/84/3 59/88/3
f 55/84/3 58/87/3 54/83/3
f 54/83/3 58/87/3 57/86/3
f 54/83/3 57/86/3 56/85/3
f 31/48/42 6/8/42 5/6/42
f 6/8/42 31/48/42 33/52/42
f 30/46/63 16/21/37 15/19/63
f 16/21/37 30/46/63 26/38/37
f 30/46/63 12/15/64 35/56/64
f 12/15/64 30/46/63 15/19/63
f 26/38/37 18/24/65 16/21/37
f 18/24/66 26/38/37 24/34/66
f 18/24/66 27/40/67 20/27/67
f 27/40/67 18/24/66 24/34/66
f 22/30/68 60/89/69 25/36/69
f 60/89/69 22/30/68 61/90/68
f 63/92/70 34/54/71 62/91/71
f 34/54/71 63/92/70 28/42/70
f 23/32/42 63/92/70 64/93/42
f 63/92/70 23/32/42 28/42/70
f 22/30/68 64/93/42 61/90/68
f 64/93/42 22/30/68 23/32/42
f 32/50/37 66/95/37 65/94/37
f 66/95/37 32/50/37 29/44/37
f 35/56/35 6/8/35 33/52/35
f 6/8/35 35/56/35 12/15/35
f 20/27/34 31/48/34 5/6/34
f 31/48/34 20/27/34 27/40/34
f 65/94/33 63/92/33 62/91/33
f 63/92/33 65/94/33 66/95/33
f 63/92/33 66/95/33 64/93/33
f 64/93/33 66/95/33 61/90/33
f 61/90/33 66/95/33 60/89/33
f 62/91/34 32/50/34 65/94/34
f 32/50/34 62/91/34 34/54/34
f 25/36/35 66/95/35 29/44/35
f 66/95/35 25/36/35 60/89/35
f 69/98/72 68/97/73 67/96/55
f 68/97/74 69/98/75 70/99/50
f 69/98/76 72/101/77 71/100/60
f 72/101/78 69/98/79 67/96/55
f 68/97/80 74/103/81 73/102/45
f 74/103/82 68/97/83 70/99/50
f 77/106/84 76/105/85 75/104/86
f 76/105/87 77/106/88 78/107/89
f 79/108/90 76/105/91 78/107/89
f 76/105/92 79/108/93 80/109/94
f 81/110/95 77/106/96 75/104/86
f 77/106/97 81/110/98 82/111/99
f 73/102/100 82/111/101 81/110/99
f 82/111/102 73/102/103 74/103/45
f 78/107/33 71/100/33 79/108/33
f 71/100/33 78/107/33 69/98/33
f 69/98/33 78/107/33 77/106/33
f 69/98/33 77/106/33 70/99/33
f 70/99/33 77/106/33 82/111/33
f 70/99/33 82/111/33 74/103/33
f 71/100/104 80/109/105 79/108/94
f 80/109/106 71/100/107 72/101/60
f 67/96/3 80/109/3 72/101/3
f 80/109/3 67/96/3 76/105/3
f 76/105/108 67/96/108 52/80/108
f 52/80/109 67/96/109 68/97/109
f 53/82/110 76/105/110 52/80/110
f 53/82/35 52/80/35 51/78/35
f 52/80/111 68/97/111 50/76/111
f 76/105/3 53/82/3 75/104/3
f 50/76/3 68/97/3 47/70/3
f 47/70/112 68/97/112 48/72/112
f 48/72/113 68/97/113 46/68/113
f 46/68/3 68/97/3 49/74/3
f 75/104/3 53/82/3 49/74/3
f 75/104/3 49/74/3 68/97/3
f 75/104/3 68/97/3 73/102/3
f 75/104/3 73/102/3 81/110/3
f 85/114/114 84/113/37 83/112/37
f 84/113/37 85/114/115 86/115/36
f 87/116/116 86/115/117 85/114/118
f 86/115/119 87/116/120 88/117/121
f 91/120/122 90/119/42 89/118/42
f 90/119/42 91/120/123 92/121/124
f 93/122/125 88/117/38 87/116/38
f 88/117/38 93/122/125 94/123/125
f 92/121/126 94/123/127 93/122/128
f 94/123/129 92/121/130 91/120/131
f 84/113/34 91/120/34 89/118/34
f 91/120/34 84/113/34 94/123/34
f 94/123/34 84/113/34 88/117/34
f 88/117/34 84/113/34 86/115/34
f 93/122/35 90/119/35 92/121/35
f 90/119/35 93/122/35 83/112/35
f 83/112/35 93/122/35 87/116/35
f 83/112/35 87/116/35 85/114/35
f 97/126/35 96/125/35 95/124/35
f 96/125/35 97/126/35 98/127/35
f 96/125/38 100/129/125 99/128/38
f 100/129/125 96/125/38 98/127/125
f 99/128/34 102/131/34 101/130/34
f 102/131/34 99/128/34 100/129/34
f 98/127/125 102/131/132 100/129/125
f 102/131/132 98/127/125 97/126/132
f 95/124/133 99/128/38 101/130/133
f 99/128/38 95/124/133 96/125/38
f 105/134/35 104/133/35 103/132/35
f 104/133/35 105/134/35 106/135/35
f 104/133/38 108/137/125 107/136/38
f 108/137/125 104/133/38 106/135/125
f 107/136/34 110/139/34 109/138/34
f 110/139/34 107/136/34 108/137/34
f 106/135/125 110/139/132 108/137/125
f 110/139/132 106/135/125 105/134/132
f 103/132/133 107/136/38 109/138/133
f 107/136/38 103/132/133 104/133/38
f 113/142/35 112/141/35 111/140/35
f 112/141/35 113/142/35 114/143/35
f 112/141/38 116/145/125 115/144/38
f 116/145/125 112/141/38 114/143/125
f 115/144/34 118/147/34 117/146/34
f 118/147/34 115/144/34 116/145/34
f 114/143/125 118/147/132 116/145/125
f 118/147/132 114/143/125 113/142/132
f 111/140/133 115/144/38 117/146/133
f 115/144/38 111/140/133 112/141/38
f 121/150/35 120/149/35 119/148/35
f 120/149/35 121/150/35 122/151/35
f 120/149/38 124/153/125 123/152/38
f 124/153/125 120/149/38 122/151/125
f 123/152/34 126/155/34 125/154/34
f 126/155/34 123/152/34 124/153/34
f 122/151/125 126/155/132 124/153/125
f 126/155/132 122/151/125 121/150/132
f 119/148/133 123/152/38 125/154/133
f 123/152/38 119/148/133 120/149/38
f 129/158/134 128/157/135 127/156/136
f 128/157/137 129/158/138 130/159/139
f 133/162/140 132/161/141 131/160/142
f 132/161/143 133/162/144 134/163/145
f 137/166/146 136/165/147 135/164/148
f 136/165/149 137/166/150 138/167/151
f 138/167/152 127/156/153 136/165/151
f 127/156/154 138/167/155 129/158/156
f 132/161/141 137/166/146 135/164/157
f 137/166/150 132/161/158 134/163/159
f 130/159/160 131/160/161 128/157/162
f 131/160/163 130/159/164 133/162/142
f 138/167/33 130/159/33 129/158/33
f 130/159/33 138/167/33 133/162/33
f 133/162/33 138/167/33 137/166/33
f 133/162/33 137/166/33 134/163/33
f 131/160/3 127/156/3 128/157/3
f 127/156/3 131/160/3 136/165/3
f 136/165/3 131/160/3 132/161/3
f 136/165/3 132/161/3 135/164/3
f 141/170/165 140/169/166 139/168/45
f 140/169/167 141/170/168 142/171/99
f 141/170/82 144/173/83 143/172/50
f 144/173/80 141/170/81 139/168/45
f 147/176/169 146/175/170 145/174/89
f 146/175/171 147/176/172 148/177/86
f 140/169/95 148/177/96 147/176/86
f 148/177/97 140/169/98 142/171/99
f 151/180/173 150/179/174 149/178/94
f 150/179/175 151/180/176 152/181/60
f 145/174/92 151/180/93 149/178/94
f 151/180/90 145/174/91 146/175/89
f 143/172/177 154/183/178 153/182/55
f 154/183/179 143/172/180 144/173/50
f 153/182/76 150/179/77 152/181/60
f 150/179/78 153/182/79 154/183/55
f 139/168/3 154/183/3 144/173/3
f 154/183/3 139/168/3 150/179/3
f 150/179/3 139/168/3 140/169/3
f 150/179/3 140/169/3 149/178/3
f 149/178/3 140/169/3 147/176/3
f 149/178/3 147/176/3 145/174/3
f 152/181/33 143/172/33 153/182/33
f 143/172/33 152/181/33 141/170/33
f 141/170/33 152/181/33 151/180/33
f 141/170/33 151/180/33 142/171/33
f 142/171/33 151/180/33 146/175/33
f 142/171/33 146/175/33 148/177/33
f 157/186/165 156/185/166 155/184/45
f 156/185/167 157/186/168 158/187/99
f 157/186/82 160/189/83 159/188/50
f 160/189/80 157/186/81 155/184/45
f 163/192/169 162/191/170 161/190/89
f 162/191/171 163/192/172 164/193/86
f 156/185/95 164/193/96 163/192/86
f 164/193/97 156/185/98 158/187/99
f 167/196/173 166/195/174 165/194/94
f 166/195/175 167/196/176 168/197/60
f 161/190/92 167/196/93 165/194/94
f 167/196/90 161/190/91 162/191/89
f 159/188/177 170/199/178 169/198/55
f 170/199/179 159/188/180 160/189/50
f 169/198/76 166/195/77 168/197/60
f 166/195/78 169/198/79 170/199/55
f 155/184/3 170/199/3 160/189/3
f 170/199/3 155/184/3 166/195/3
f 166/195/3 155/184/3 156/185/3
f 166/195/3 156/185/3 165/194/3
f 165/194/3 156/185/3 163/192/3
f 165/194/3 163/192/3 161/190/3
f 168/197/33 159/188/33 169/198/33
f 159/188/33 168/197/33 157/186/33
f 157/186/33 168/197/33 167/196/33
f 157/186/33 167/196/33 158/187/33
f 158/187/33 167/196/33 162/191/33
f 158/187/33 162/191/33 164/193/33
f 173/202/165 172/201/166 171/200/45
f 172/201/167 173/202/168 174/203/99
f 173/202/82 176/205/83 175/204/50
f 176/205/80 173/202/81 171/200/45
f 179/208/169 178/207/170 177/206/89
f 178/207/171 179/208/172 180/209/86
f 172/201/95 180/209/96 179/208/86
f 180/209/97 172/201/98 174/203/99
f 183/212/173 182/211/174 181/210/94
f 182/211/175 183/212/176 184/213/60
f 177/206/92 183/212/93 181/210/94
f 183/212/90 177/206/91 178/207/89
f 175/204/177 186/215/178 185/214/55
f 186/215/179 175/204/180 176/205/50
f 185/214/76 182/211/77 184/213/60
f 182/211/78 185/214/79 186/215/55
f 171/200/3 186/215/3 176/205/3
f 186/215/3 171/200/3 182/211/3
f 182/211/3 171/200/3 172/201/3
f 182/211/3 172/201/3 181/210/3
f 181/210/3 172/201/3 179/208/3
f 181/210/3 179/208/3 177/206/3
f 184/213/33 175/204/33 185/214/33
f 175/204/33 184/213/33 173/202/33
f 173/202/33 184/213/33 183/212/33
f 173/202/33 183/212/33 174/203/33
f 174/203/33 183/212/33 178/207/33
f 174/203/33 178/207/33 180/209/33
f 189/218/3 188/217/3 187/216/3
f 188/217/3 189/218/3 190/219/3
f 193/222/33 192/221/33 191/220/33
f 192/221/33 193/222/33 194/223/33
f 189/218/34 193/222/34 190/219/34
f 193/222/34 189/218/34 194/223/34
f 193/222/42 188/217/42 190/219/42
f 188/217/42 193/222/42 191/220/42
f 192/221/35 188/217/35 191/220/35
f 188/217/35 192/221/35 187/216/35
f 192/221/37 189/218/37 187/216/37
f 189/218/37 192/221/37 194/223/37
f 197/226/181 196/225/182 195/224/183
f 196/225/184 197/226/185 198/227/186
f 197/226/187 200/229/188 199/228/189
f 200/229/190 197/226/191 195/224/192
f 203/232/193 202/231/194 201/230/194
f 202/231/194 203/232/193 204/233/193
f 196/225/195 204/233/196 203/232/197
f 204/233/198 196/225/199 198/227/200
f 207/236/201 206/235/202 205/234/203
f 206/235/204 207/236/205 208/237/206
f 201/230/207 207/236/208 205/234/209
f 207/236/210 201/230/211 202/231/212
f 199/228/213 210/239/214 209/238/214
f 210/239/214 199/228/213 200/229/213
f 209/238/215 206/235/216 208/237/217
f 206/235/218 209/238/219 210/239/220
f 195/224/42 210/239/42 200/229/42
f 210/239/42 195/224/42 206/235/42
f 206/235/42 195/224/42 196/225/42
f 206/235/42 196/225/42 205/234/42
f 205/234/42 196/225/42 203/232/42
f 205/234/42 203/232/42 201/230/42
f 208/237/37 199/228/37 209/238/37
f 199/228/37 208/237/37 197/226/37
f 197/226/37 208/237/37 207/236/37
f 197/226/37 207/236/37 198/227/37
f 198/227/37 207/236/37 202/231/37
f 198/227/37 202/231/37 204/233/37
f 213/242/3 212/241/3 211/240/3
f 212/241/3 213/242/3 214/243/3
f 215/244/42 212/241/42 214/243/42
f 212/241/42 215/244/42 216/245/42
f 212/241/35 217/246/221 211/240/222
f 217/246/223 213/242/224 211/240/225
f 212/241/35 218/247/226 217/246/227
f 218/247/228 212/241/35 216/245/229
f 213/242/230 217/246/231 219/248/232
f 218/247/233 219/248/234 217/246/235
f 219/248/236 214/243/34 213/242/237
f 216/245/238 220/249/239 218/247/240
f 219/248/241 218/247/242 220/249/243
f 220/249/244 214/243/34 219/248/245
f 220/249/246 216/245/247 215/244/248
f 214/243/34 220/249/249 215/244/250
f 223/252/3 222/251/3 221/250/3
f 222/251/3 223/252/3 224/253/3
f 225/254/37 223/252/37 221/250/37
f 223/252/37 225/254/37 226/255/37
f 221/250/35 227/256/251 225/254/252
f 227/256/253 226/255/254 225/254/255
f 221/250/35 228/257/256 227/256/257
f 228/257/258 221/250/35 222/251/259
f 226/255/260 227/256/261 229/258/262
f 228/257/263 229/258/264 227/256/265
f 229/258/266 223/252/34 226/255/267
f 222/251/268 230/259/269 228/257/270
f 229/258/271 228/257/272 230/259/273
f 230/259/274 223/252/34 229/258/275
f 230/259/276 222/251/277 224/253/278
f 223/252/34 230/259/279 224/253/280
