# Blender 3.3.1
# www.blender.org
o boat-row-large
v -0.285895 -0.170640 0.230400
v -0.199495 -0.170640 0.201600
v -0.285895 -0.257040 0.230400
v -0.199495 -0.257040 0.201600
v 0.257036 0.170640 0.086400
v 0.257036 0.170640 0.144000
v 0.257036 -0.170640 0.086400
v 0.257036 -0.170640 0.144000
v -0.285895 0.257040 0.230400
v -0.199495 0.257040 0.201600
v -0.285895 0.170640 0.230400
v -0.199495 0.170640 0.201600
v 0.170636 -0.170640 0.201600
v 0.170636 -0.257040 0.201600
v 0.279534 0.257040 0.230400
v 0.487927 0.140616 0.230400
v 0.257036 0.257040 0.230400
v 0.257036 0.170640 0.230400
v 0.424781 0.076925 0.230400
v 0.568078 -0.000000 0.230400
v 0.468628 -0.000000 0.230400
v 0.487927 -0.140616 0.230400
v 0.424781 -0.076925 0.230400
v 0.257036 -0.170640 0.230400
v 0.279534 -0.257040 0.230400
v 0.257036 -0.257040 0.230400
v 0.424781 0.076925 0.144000
v 0.468628 -0.000000 0.144000
v 0.424781 -0.076925 0.144000
v -0.372295 0.257040 0.230400
v -0.458695 0.170640 0.230400
v -0.372295 0.170640 0.230400
v -0.458695 -0.170640 0.230400
v -0.372295 -0.170640 0.230400
v -0.372295 -0.257040 0.230400
v 0.170636 0.257040 0.201600
v 0.170636 0.170640 0.201600
v -0.248455 0.170640 0.144000
v -0.248455 -0.170640 0.144000
v -0.372295 0.170640 0.144000
v -0.372295 -0.170640 0.144000
v -0.248455 0.170640 0.086400
v -0.248455 -0.170640 0.086400
v -0.372295 -0.170640 0.086400
v -0.372295 0.170640 0.086400
v 0.064025 0.170640 0.144000
v 0.064025 -0.170640 0.144000
v -0.059815 0.170640 0.144000
v -0.059815 -0.170640 0.144000
v 0.064025 0.170640 0.086400
v 0.064025 -0.170640 0.086400
v -0.059815 -0.170640 0.086400
v -0.059815 0.170640 0.086400
v -0.372295 0.170640 0.086400
v -0.372295 -0.170640 0.086400
v 0.279534 -0.257040 0.115200
v -0.372295 -0.257040 0.115200
v -0.458695 -0.170640 0.115200
v 0.487927 -0.140616 0.115200
v 0.568078 -0.000000 0.115200
v -0.458695 0.170640 0.115200
v 0.487927 0.140616 0.115200
v -0.372295 0.257040 0.115200
v 0.279534 0.257040 0.115200
v 0.192099 0.195840 -0.000000
v -0.352240 0.195840 0.000000
v 0.350874 0.107136 -0.000000
v -0.352240 -0.195840 0.000000
v 0.411942 -0.000000 -0.000000
v 0.350874 -0.107136 -0.000000
v 0.192098 -0.195840 -0.000000
v -0.123649 -0.413278 0.142253
v -0.066049 -0.413278 0.142253
v -0.149281 -0.433643 0.121888
v -0.040417 -0.433643 0.121888
v -0.149281 -0.494737 0.060794
v -0.040417 -0.494737 0.060794
v -0.149281 -0.392913 0.081159
v -0.123649 -0.372549 0.101524
v -0.149281 -0.454008 0.020065
v -0.040417 -0.392913 0.081159
v -0.066049 -0.372549 0.101524
v -0.123649 -0.209631 0.305170
v -0.123649 -0.189267 0.284806
v -0.066049 -0.209631 0.305170
v -0.066049 -0.189267 0.284806
v -0.040417 -0.454008 0.020065
v -0.123649 0.413278 0.142253
v -0.066049 0.413278 0.142253
v -0.123649 0.209631 0.305170
v -0.066049 0.209631 0.305170
v -0.123649 0.189267 0.284806
v -0.066049 0.189267 0.284806
v -0.149281 0.454008 0.020065
v -0.149281 0.494737 0.060794
v -0.149281 0.392913 0.081159
v -0.149281 0.433643 0.121888
v -0.040417 0.494737 0.060794
v -0.040417 0.433643 0.121888
v -0.040417 0.454008 0.020065
v -0.040417 0.392913 0.081159
v -0.066049 0.372549 0.101524
v -0.123649 0.372549 0.101524
vn 0.3162 -0.0000 0.9487
vn 0.1602 -0.0000 0.9871
vn -1.0000 -0.0000 -0.0000
vn -0.1602 -0.0000 0.9871
vn -0.0000 -0.0000 1.0000
vn -0.0000 -0.0000 -0.0000
vn -0.3162 -0.0000 0.9487
vn 1.0000 -0.0000 -0.0000
vn -0.0000 -1.0000 -0.0000
vn -0.2806 -0.9598 -0.0000
vn -0.1674 -0.9859 -0.0000
vn -0.7041 -0.7101 -0.0000
vn -0.7041 0.7101 -0.0000
vn -0.1674 0.9859 -0.0000
vn -0.2806 0.9598 -0.0000
vn -0.0000 1.0000 -0.0000
vn -0.3827 -0.9239 -0.0000
vn 0.2520 -0.9677 -0.0000
vn -0.9239 -0.3827 -0.0000
vn 0.7041 -0.7101 -0.0000
vn -0.9239 0.3827 -0.0000
vn -0.3827 0.9239 -0.0000
vn 0.7041 0.7101 -0.0000
vn 0.2520 0.9677 -0.0000
vn -0.0000 -0.0000 -1.0000
vn 0.2520 0.7623 -0.5962
vn -0.4678 0.6120 -0.6377
vn -0.3280 0.8094 -0.4871
vn -0.7388 0.2364 -0.6311
vn -0.7388 -0.2364 -0.6311
vn 0.1423 0.8253 -0.5464
vn -0.4677 0.6120 -0.6377
vn -0.4678 -0.6120 -0.6377
vn -0.3280 -0.8094 -0.4871
vn 0.4561 0.5473 -0.7017
vn 0.5064 0.4525 -0.7340
vn 0.5937 -0.0000 -0.8047
vn 0.5064 -0.4525 -0.7340
vn 0.4561 -0.5473 -0.7017
vn 0.2520 -0.7623 -0.5962
vn 0.1423 -0.8253 -0.5464
vn -0.0000 -0.7071 0.7071
vn -0.0000 -0.6746 0.7381
vn -0.9346 0.2515 0.2515
vn -0.9296 0.2606 0.2606
vn 0.9346 0.2515 0.2515
vn 0.9296 0.2606 0.2606
vn -0.0000 0.7071 0.7071
vn -0.0000 -0.6746 0.7382
vn -0.0000 -0.6247 0.7809
vn -0.0000 -0.7071 -0.7071
vn -0.9296 0.2607 0.2606
vn 0.9296 0.2607 0.2606
vn -0.0000 0.7071 -0.7071
vn -0.0000 0.6247 0.7809
vn -0.0000 0.6746 0.7382
vn -0.9346 -0.2515 0.2515
vn -0.0000 0.6746 0.7381
vn 0.9346 -0.2515 0.2515
vn 0.9296 -0.2606 0.2606
vn -0.9296 -0.2606 0.2606
vn -0.9296 -0.2607 0.2606
vn 0.9296 -0.2607 0.2606
vt 0.843750 0.225000
vt 0.718750 0.225000
vt 0.843750 0.200000
vt 0.718750 0.200000
vt 0.843750 0.225000
vt 0.718750 0.225000
vt 0.843750 0.200000
vt 0.718750 0.200000
vt 0.843750 0.100000
vt 0.718750 0.100000
vt 0.843750 0.150000
vt 0.718750 0.150000
vt 0.843750 0.100000
vt 0.718750 0.100000
vt 0.843750 0.150000
vt 0.718750 0.150000
vt 0.843750 0.225000
vt 0.718750 0.225000
vt 0.843750 0.200000
vt 0.718750 0.200000
vt 0.843750 0.225000
vt 0.718750 0.225000
vt 0.843750 0.200000
vt 0.718750 0.200000
vt 0.843750 0.200000
vt 0.718750 0.200000
vt 0.843750 0.200000
vt 0.718750 0.200000
vt 0.843750 0.225000
vt 0.718750 0.225000
vt 0.843750 0.225000
vt 0.718750 0.225000
vt 0.843750 0.225000
vt 0.718750 0.225000
vt 0.843750 0.225000
vt 0.718750 0.225000
vt 0.843750 0.225000
vt 0.718750 0.225000
vt 0.843750 0.225000
vt 0.718750 0.225000
vt 0.843750 0.225000
vt 0.718750 0.225000
vt 0.843750 0.225000
vt 0.718750 0.225000
vt 0.843750 0.225000
vt 0.718750 0.225000
vt 0.843750 0.225000
vt 0.718750 0.225000
vt 0.843750 0.225000
vt 0.718750 0.225000
vt 0.843750 0.225000
vt 0.718750 0.225000
vt 0.843750 0.150000
vt 0.718750 0.150000
vt 0.843750 0.150000
vt 0.718750 0.150000
vt 0.843750 0.150000
vt 0.718750 0.150000
vt 0.843750 0.225000
vt 0.718750 0.225000
vt 0.843750 0.225000
vt 0.718750 0.225000
vt 0.843750 0.225000
vt 0.718750 0.225000
vt 0.843750 0.225000
vt 0.718750 0.225000
vt 0.843750 0.225000
vt 0.718750 0.225000
vt 0.843750 0.225000
vt 0.718750 0.225000
vt 0.843750 0.200000
vt 0.718750 0.200000
vt 0.843750 0.200000
vt 0.718750 0.200000
vt 0.843750 0.225000
vt 0.843750 0.225000
vt 0.843750 0.225000
vt 0.843750 0.225000
vt 0.843750 0.125000
vt 0.843750 0.125000
vt 0.843750 0.125000
vt 0.843750 0.125000
vt 0.843750 0.225000
vt 0.843750 0.225000
vt 0.843750 0.225000
vt 0.843750 0.225000
vt 0.843750 0.125000
vt 0.843750 0.125000
vt 0.843750 0.125000
vt 0.843750 0.125000
vt 0.718750 0.100000
vt 0.718750 0.100000
vt 0.718750 0.125000
vt 0.718750 0.125000
vt 0.718750 0.125000
vt 0.718750 0.125000
vt 0.718750 0.125000
vt 0.718750 0.125000
vt 0.718750 0.125000
vt 0.718750 0.125000
vt 0.718750 0.125000
vt 0.718750 0.025000
vt 0.718750 0.025000
vt 0.718750 0.025000
vt 0.718750 0.025000
vt 0.718750 0.025000
vt 0.718750 0.025000
vt 0.718750 0.025000
vt 0.843750 0.110714
vt 0.843750 0.110714
vt 0.843750 0.096429
vt 0.843750 0.096429
vt 0.843750 0.053571
vt 0.843750 0.053571
vt 0.843750 0.067857
vt 0.843750 0.082143
vt 0.843750 0.025000
vt 0.843750 0.067857
vt 0.843750 0.082143
vt 0.843750 0.225000
vt 0.843750 0.210714
vt 0.843750 0.225000
vt 0.843750 0.210714
vt 0.843750 0.025000
vt 0.843750 0.110714
vt 0.843750 0.110714
vt 0.843750 0.225000
vt 0.843750 0.225000
vt 0.843750 0.210714
vt 0.843750 0.210714
vt 0.843750 0.025000
vt 0.843750 0.053571
vt 0.843750 0.067857
vt 0.843750 0.096429
vt 0.843750 0.053571
vt 0.843750 0.096429
vt 0.843750 0.025000
vt 0.843750 0.067857
vt 0.843750 0.082143
vt 0.843750 0.082143
s 0
f 3/5/1 2/3/2 1/1/1
f 2/3/2 3/5/1 4/7/2
f 7/13/3 6/11/3 5/9/3
f 6/11/3 7/13/3 8/15/3
f 11/21/1 10/19/2 9/17/1
f 10/19/2 11/21/1 12/23/2
f 2/3/2 14/27/4 13/25/4
f 14/27/4 2/3/2 4/7/2
f 17/33/5 16/31/5 15/29/5
f 16/31/5 17/33/5 18/35/5
f 16/31/5 18/35/5 19/37/5
f 16/31/5 19/37/5 20/39/5
f 20/39/5 19/37/5 21/41/5
f 20/39/5 21/41/5 22/43/5
f 22/43/5 21/41/5 23/45/5
f 22/43/5 23/45/5 24/47/5
f 22/43/5 24/47/5 25/49/5
f 25/49/5 24/47/5 26/51/5
f 8/15/5 27/53/5 6/11/5
f 27/53/5 8/15/5 28/55/5
f 28/55/5 8/15/5 29/57/5
f 30/59/5 11/21/5 9/17/5
f 11/21/5 30/59/5 31/61/5
f 11/21/6 31/61/6 32/63/6
f 32/63/5 31/61/5 33/65/5
f 32/63/5 33/65/5 34/67/5
f 34/67/5 33/65/5 35/69/5
f 34/67/5 35/69/5 3/5/5
f 3/5/5 1/1/5 34/67/5
f 10/19/2 37/73/4 36/71/4
f 37/73/4 10/19/2 12/23/2
f 13/25/4 26/51/7 24/47/7
f 26/51/7 13/25/4 14/27/4
f 36/71/4 18/35/7 17/33/7
f 18/35/7 36/71/4 37/73/4
f 40/77/5 39/76/5 38/75/5
f 39/76/5 40/77/5 41/78/5
f 38/75/8 43/80/8 42/79/8
f 43/80/8 38/75/8 39/76/8
f 41/78/3 45/82/3 44/81/3
f 45/82/3 41/78/3 40/77/3
f 48/85/5 47/84/5 46/83/5
f 47/84/5 48/85/5 49/86/5
f 46/83/8 51/88/8 50/87/8
f 51/88/8 46/83/8 47/84/8
f 49/86/3 53/90/3 52/89/3
f 53/90/3 49/86/3 48/85/3
f 54/91/5 7/14/5 5/10/5
f 7/14/5 54/91/5 55/92/5
f 5/10/9 32/64/9 54/91/9
f 32/64/9 5/10/9 12/24/9
f 32/64/9 12/24/9 11/22/9
f 12/24/9 5/10/9 37/74/9
f 37/74/9 5/10/9 18/36/10
f 18/36/10 5/10/9 6/12/11
f 27/54/12 18/36/10 6/12/11
f 18/36/10 27/54/12 19/38/12
f 27/54/12 21/42/3 19/38/12
f 21/42/3 27/54/12 28/56/3
f 28/56/3 23/46/13 21/42/3
f 23/46/13 28/56/3 29/58/13
f 8/16/14 23/46/13 29/58/13
f 23/46/13 8/16/14 24/48/15
f 7/14/16 24/48/15 8/16/14
f 7/14/16 13/26/16 24/48/15
f 7/14/16 2/4/16 13/26/16
f 55/92/16 2/4/16 7/14/16
f 55/92/16 1/2/16 2/4/16
f 1/2/16 55/92/16 34/68/16
f 32/64/8 55/92/8 54/91/8
f 55/92/8 32/64/8 34/68/8
f 35/70/17 4/8/9 3/6/9
f 35/70/17 56/93/18 4/8/9
f 4/8/9 56/93/18 14/28/9
f 14/28/9 56/93/18 26/52/9
f 26/52/9 56/93/18 25/50/18
f 56/93/18 35/70/17 57/94/17
f 35/70/17 58/95/19 57/94/17
f 58/95/19 35/70/17 33/66/19
f 59/96/20 25/50/18 56/93/18
f 25/50/18 59/96/20 22/44/20
f 59/96/20 20/40/8 22/44/20
f 20/40/8 59/96/20 60/97/8
f 33/66/19 61/98/21 58/95/19
f 61/98/21 33/66/19 31/62/21
f 30/60/22 61/98/21 31/62/21
f 60/97/8 16/32/23 20/40/8
f 16/32/23 60/97/8 62/99/23
f 61/98/21 30/60/22 63/100/22
f 9/18/16 63/100/22 30/60/22
f 63/100/22 9/18/16 10/20/16
f 64/101/24 16/32/23 62/99/23
f 63/100/22 10/20/16 64/101/24
f 16/32/23 64/101/24 15/30/24
f 64/101/24 10/20/16 36/72/16
f 64/101/24 17/34/16 15/30/24
f 64/101/24 36/72/16 17/34/16
f 67/104/25 66/103/25 65/102/25
f 66/103/25 67/104/25 68/105/25
f 68/105/25 67/104/25 69/106/25
f 68/105/25 69/106/25 70/107/25
f 68/105/25 70/107/25 71/108/25
f 64/101/26 66/103/27 63/100/28
f 66/103/27 61/98/29 63/100/28
f 66/103/27 58/95/30 61/98/29
f 66/103/27 64/101/26 65/102/31
f 58/95/30 66/103/32 68/105/33
f 68/105/33 57/94/34 58/95/30
f 64/101/26 67/104/35 65/102/31
f 67/104/35 64/101/26 62/99/36
f 60/97/37 67/104/35 62/99/36
f 67/104/35 60/97/37 69/106/37
f 59/96/38 69/106/37 60/97/37
f 69/106/37 59/96/38 70/107/39
f 68/105/33 56/93/40 57/94/34
f 56/93/40 70/107/39 59/96/38
f 56/93/40 68/105/33 71/108/41
f 70/107/39 56/93/40 71/108/41
f 3/5/1 2/3/2 1/1/1
f 2/3/2 3/5/1 4/7/2
f 7/13/3 6/11/3 5/9/3
f 6/11/3 7/13/3 8/15/3
f 11/21/1 10/19/2 9/17/1
f 10/19/2 11/21/1 12/23/2
f 2/3/2 14/27/4 13/25/4
f 14/27/4 2/3/2 4/7/2
f 17/33/5 16/31/5 15/29/5
f 16/31/5 17/33/5 18/35/5
f 16/31/5 18/35/5 19/37/5
f 16/31/5 19/37/5 20/39/5
f 20/39/5 19/37/5 21/41/5
f 20/39/5 21/41/5 22/43/5
f 22/43/5 21/41/5 23/45/5
f 22/43/5 23/45/5 24/47/5
f 22/43/5 24/47/5 25/49/5
f 25/49/5 24/47/5 26/51/5
f 8/15/5 27/53/5 6/11/5
f 27/53/5 8/15/5 28/55/5
f 28/55/5 8/15/5 29/57/5
f 30/59/5 11/21/5 9/17/5
f 11/21/5 30/59/5 31/61/5
f 11/21/6 31/61/6 32/63/6
f 32/63/5 31/61/5 33/65/5
f 32/63/5 33/65/5 34/67/5
f 34/67/5 33/65/5 35/69/5
f 34/67/5 35/69/5 3/5/5
f 3/5/5 1/1/5 34/67/5
f 10/19/2 37/73/4 36/71/4
f 37/73/4 10/19/2 12/23/2
f 13/25/4 26/51/7 24/47/7
f 26/51/7 13/25/4 14/27/4
f 36/71/4 18/35/7 17/33/7
f 18/35/7 36/71/4 37/73/4
f 40/77/5 39/76/5 38/75/5
f 39/76/5 40/77/5 41/78/5
f 38/75/8 43/80/8 42/79/8
f 43/80/8 38/75/8 39/76/8
f 41/78/3 45/82/3 44/81/3
f 45/82/3 41/78/3 40/77/3
f 48/85/5 47/84/5 46/83/5
f 47/84/5 48/85/5 49/86/5
f 46/83/8 51/88/8 50/87/8
f 51/88/8 46/83/8 47/84/8
f 49/86/3 53/90/3 52/89/3
f 53/90/3 49/86/3 48/85/3
f 54/91/5 7/14/5 5/10/5
f 7/14/5 54/91/5 55/92/5
f 5/10/9 32/64/9 54/91/9
f 32/64/9 5/10/9 12/24/9
f 32/64/9 12/24/9 11/22/9
f 12/24/9 5/10/9 37/74/9
f 37/74/9 5/10/9 18/36/10
f 18/36/10 5/10/9 6/12/11
f 27/54/12 18/36/10 6/12/11
f 18/36/10 27/54/12 19/38/12
f 27/54/12 21/42/3 19/38/12
f 21/42/3 27/54/12 28/56/3
f 28/56/3 23/46/13 21/42/3
f 23/46/13 28/56/3 29/58/13
f 8/16/14 23/46/13 29/58/13
f 23/46/13 8/16/14 24/48/15
f 7/14/16 24/48/15 8/16/14
f 7/14/16 13/26/16 24/48/15
f 7/14/16 2/4/16 13/26/16
f 55/92/16 2/4/16 7/14/16
f 55/92/16 1/2/16 2/4/16
f 1/2/16 55/92/16 34/68/16
f 32/64/8 55/92/8 54/91/8
f 55/92/8 32/64/8 34/68/8
f 35/70/17 4/8/9 3/6/9
f 35/70/17 56/93/18 4/8/9
f 4/8/9 56/93/18 14/28/9
f 14/28/9 56/93/18 26/52/9
f 26/52/9 56/93/18 25/50/18
f 56/93/18 35/70/17 57/94/17
f 35/70/17 58/95/19 57/94/17
f 58/95/19 35/70/17 33/66/19
f 59/96/20 25/50/18 56/93/18
f 25/50/18 59/96/20 22/44/20
f 59/96/20 20/40/8 22/44/20
f 20/40/8 59/96/20 60/97/8
f 33/66/19 61/98/21 58/95/19
f 61/98/21 33/66/19 31/62/21
f 30/60/22 61/98/21 31/62/21
f 60/97/8 16/32/23 20/40/8
f 16/32/23 60/97/8 62/99/23
f 61/98/21 30/60/22 63/100/22
f 9/18/16 63/100/22 30/60/22
f 63/100/22 9/18/16 10/20/16
f 64/101/24 16/32/23 62/99/23
f 63/100/22 10/20/16 64/101/24
f 16/32/23 64/101/24 15/30/24
f 64/101/24 10/20/16 36/72/16
f 64/101/24 17/34/16 15/30/24
f 64/101/24 36/72/16 17/34/16
f 67/104/25 66/103/25 65/102/25
f 66/103/25 67/104/25 68/105/25
f 68/105/25 67/104/25 69/106/25
f 68/105/25 69/106/25 70/107/25
f 68/105/25 70/107/25 71/108/25
f 64/101/26 66/103/27 63/100/28
f 66/103/27 61/98/29 63/100/28
f 66/103/27 58/95/30 61/98/29
f 66/103/27 64/101/26 65/102/31
f 58/95/30 66/103/32 68/105/33
f 68/105/33 57/94/34 58/95/30
f 64/101/26 67/104/35 65/102/31
f 67/104/35 64/101/26 62/99/36
f 60/97/37 67/104/35 62/99/36
f 67/104/35 60/97/37 69/106/37
f 59/96/38 69/106/37 60/97/37
f 69/106/37 59/96/38 70/107/39
f 68/105/33 56/93/40 57/94/34
f 56/93/40 70/107/39 59/96/38
f 56/93/40 68/105/33 71/108/41
f 70/107/39 56/93/40 71/108/41
f 74/111/42 73/110/43 72/109/43
f 73/110/43 74/111/42 75/112/42
f 75/112/42 74/111/42 76/113/42
f 75/112/42 76/113/42 77/114/42
f 74/111/44 79/116/44 78/115/44
f 79/116/44 74/111/44 72/109/45
f 76/113/3 78/115/44 80/117/3
f 78/115/44 76/113/3 74/111/44
f 82/119/46 75/112/46 81/118/46
f 75/112/46 82/119/46 73/110/47
f 85/122/48 84/121/48 83/120/48
f 84/121/48 85/122/48 86/123/48
f 72/109/49 85/122/50 83/120/50
f 85/122/50 72/109/49 73/110/49
f 87/124/51 76/113/51 80/117/51
f 76/113/51 87/124/51 77/114/51
f 81/118/46 77/114/8 87/124/8
f 77/114/8 81/118/46 75/112/46
f 72/109/45 84/121/3 79/116/44
f 84/121/3 72/109/52 83/120/3
f 86/123/8 73/110/47 82/119/46
f 73/110/53 86/123/8 85/122/8
f 82/119/54 84/121/54 86/123/54
f 84/121/54 82/119/54 79/116/54
f 79/116/54 82/119/54 81/118/54
f 79/116/54 81/118/54 78/115/54
f 78/115/54 81/118/54 87/124/54
f 78/115/54 87/124/54 80/117/54
f 90/127/55 89/126/56 88/125/56
f 89/126/56 90/127/55 91/128/55
f 93/130/42 90/127/42 92/129/42
f 90/127/42 93/130/42 91/128/42
f 96/133/57 95/132/3 94/131/3
f 95/132/3 96/133/57 97/134/57
f 97/134/48 98/135/48 95/132/48
f 98/135/48 97/134/48 99/136/48
f 99/136/48 97/134/48 88/125/58
f 99/136/48 88/125/58 89/126/58
f 101/138/51 94/131/51 100/137/51
f 94/131/51 101/138/51 96/133/51
f 96/133/51 101/138/51 102/139/51
f 96/133/51 102/139/51 103/140/51
f 103/140/51 102/139/51 93/130/51
f 103/140/51 93/130/51 92/129/51
f 99/136/59 102/139/59 101/138/59
f 102/139/59 99/136/59 89/126/60
f 103/140/57 97/134/57 96/133/57
f 97/134/57 103/140/57 88/125/61
f 92/129/3 88/125/61 103/140/57
f 88/125/62 92/129/3 90/127/3
f 89/126/60 93/130/8 102/139/59
f 93/130/8 89/126/63 91/128/8
f 98/135/8 101/138/59 100/137/8
f 101/138/59 98/135/8 99/136/59
f 98/135/54 94/131/54 95/132/54
f 94/131/54 98/135/54 100/137/54
