# Blender 3.3.1
# www.blender.org
mtllib coin.mtl
o Cylinder.001
v 0.000000 0.000894 0.566323
v 0.000000 -0.000894 0.566323
v 0.043612 0.000894 0.561974
v 0.043612 -0.000894 0.561974
v 0.085549 0.000894 0.549095
v 0.085549 -0.000894 0.549095
v 0.124197 0.000894 0.528181
v 0.124197 -0.000894 0.528181
v 0.158073 0.000894 0.500034
v 0.158073 -0.000894 0.500034
v 0.185875 0.000894 0.465738
v 0.185875 -0.000894 0.465738
v 0.206533 0.000894 0.426610
v 0.206533 -0.000894 0.426610
v 0.219254 0.000894 0.384153
v 0.219254 -0.000894 0.384153
v 0.223550 0.000894 0.340000
v 0.223550 -0.000894 0.340000
v 0.219254 0.000894 0.295847
v 0.219254 -0.000894 0.295847
v 0.206533 0.000894 0.253390
v 0.206533 -0.000894 0.253390
v 0.185875 0.000894 0.214262
v 0.185875 -0.000894 0.214262
v 0.158073 0.000894 0.179966
v 0.158073 -0.000894 0.179966
v 0.124197 0.000894 0.151819
v 0.124197 -0.000894 0.151819
v 0.085549 0.000894 0.130905
v 0.085549 -0.000894 0.130905
v 0.043612 0.000894 0.118026
v 0.043612 -0.000894 0.118026
v -0.000000 0.000894 0.113677
v -0.000000 -0.000894 0.113677
v -0.043612 0.000894 0.118026
v -0.043612 -0.000894 0.118026
v -0.085549 0.000894 0.130905
v -0.085549 -0.000894 0.130905
v -0.124197 0.000894 0.151819
v -0.124197 -0.000894 0.151819
v -0.158073 0.000894 0.179966
v -0.158073 -0.000894 0.179966
v -0.185875 0.000894 0.214262
v -0.185875 -0.000894 0.214262
v -0.206533 0.000894 0.253390
v -0.206533 -0.000894 0.253390
v -0.219254 0.000894 0.295847
v -0.219254 -0.000894 0.295847
v -0.223550 0.000894 0.340000
v -0.223550 -0.000894 0.340000
v -0.219254 0.000894 0.384153
v -0.219254 -0.000894 0.384153
v -0.206533 0.000894 0.426610
v -0.206533 -0.000894 0.426610
v -0.185875 0.000894 0.465738
v -0.185875 -0.000894 0.465738
v -0.158073 0.000894 0.500034
v -0.158073 -0.000894 0.500034
v -0.124197 0.000894 0.528181
v -0.124197 -0.000894 0.528181
v -0.085549 0.000894 0.549095
v -0.085549 -0.000894 0.549095
v -0.043612 0.000894 0.561974
v -0.043612 -0.000894 0.561974
v 0.000000 0.008048 0.541195
v 0.039251 0.008048 0.537329
v 0.039251 -0.008048 0.537329
v 0.000000 -0.008048 0.541195
v 0.076994 0.008048 0.525880
v 0.076994 -0.008048 0.525880
v 0.111778 0.008048 0.507287
v 0.111778 -0.008048 0.507287
v 0.142266 0.008048 0.482266
v 0.142266 -0.008048 0.482266
v 0.167287 0.008048 0.451778
v 0.167287 -0.008048 0.451778
v 0.185880 0.008048 0.416994
v 0.185880 -0.008048 0.416994
v 0.197329 0.008048 0.379251
v 0.197329 -0.008048 0.379251
v 0.201195 0.008048 0.340000
v 0.201195 -0.008048 0.340000
v 0.197329 0.008048 0.300749
v 0.197329 -0.008048 0.300749
v 0.185880 0.008048 0.263006
v 0.185880 -0.008048 0.263006
v 0.167287 0.008048 0.228222
v 0.167287 -0.008048 0.228222
v 0.142266 0.008048 0.197734
v 0.142266 -0.008048 0.197734
v 0.111778 0.008048 0.172713
v 0.111778 -0.008048 0.172713
v 0.076994 0.008048 0.154120
v 0.076994 -0.008048 0.154120
v 0.039251 0.008048 0.142671
v 0.039251 -0.008048 0.142671
v 0.000000 0.008048 0.138805
v 0.000000 -0.008048 0.138805
v -0.039251 0.008048 0.142671
v -0.039251 -0.008048 0.142671
v -0.076994 0.008048 0.154120
v -0.076994 -0.008048 0.154120
v -0.111778 0.008048 0.172713
v -0.111778 -0.008048 0.172713
v -0.142266 0.008048 0.197734
v -0.142266 -0.008048 0.197734
v -0.167287 0.008048 0.228222
v -0.167287 -0.008048 0.228222
v -0.185880 0.008048 0.263006
v -0.185880 -0.008048 0.263006
v -0.197329 0.008048 0.300749
v -0.197329 -0.008048 0.300749
v -0.201195 0.008048 0.340000
v -0.201195 -0.008048 0.340000
v -0.197329 0.008048 0.379251
v -0.197329 -0.008048 0.379251
v -0.185880 0.008048 0.416994
v -0.185880 -0.008048 0.416994
v -0.167287 0.008048 0.451778
v -0.167287 -0.008048 0.451778
v -0.142266 0.008048 0.482266
v -0.142266 -0.008048 0.482266
v -0.111778 0.008048 0.507287
v -0.111778 -0.008048 0.507287
v -0.076994 0.008048 0.525880
v -0.076994 -0.008048 0.525880
v -0.039251 0.008048 0.537329
v -0.039251 -0.008048 0.537329
v 0.000000 0.012519 0.563550
v 0.043612 0.012519 0.559254
v 0.043612 -0.012519 0.559254
v 0.000000 -0.012519 0.563550
v 0.085549 0.012519 0.546533
v 0.085549 -0.012519 0.546533
v 0.124197 0.012519 0.525875
v 0.124197 -0.012519 0.525875
v 0.158073 0.012519 0.498073
v 0.158073 -0.012519 0.498073
v 0.185875 0.012519 0.464198
v 0.185875 -0.012519 0.464198
v 0.206533 0.012519 0.425549
v 0.206533 -0.012519 0.425549
v 0.219254 0.012519 0.383612
v 0.219254 -0.012519 0.383612
v 0.223550 0.012519 0.340000
v 0.223550 -0.012519 0.340000
v 0.219254 0.012519 0.296388
v 0.219254 -0.012519 0.296388
v 0.206533 0.012519 0.254451
v 0.206533 -0.012519 0.254451
v 0.185875 0.012519 0.215803
v 0.185875 -0.012519 0.215803
v 0.158073 0.012519 0.181927
v 0.158073 -0.012519 0.181927
v 0.124197 0.012519 0.154125
v 0.124197 -0.012519 0.154125
v 0.085549 0.012519 0.133467
v 0.085549 -0.012519 0.133467
v 0.043612 0.012519 0.120746
v 0.043612 -0.012519 0.120746
v -0.000000 0.012519 0.116450
v -0.000000 -0.012519 0.116450
v -0.043612 0.012519 0.120746
v -0.043612 -0.012519 0.120746
v -0.085549 0.012519 0.133467
v -0.085549 -0.012519 0.133467
v -0.124197 0.012519 0.154125
v -0.124197 -0.012519 0.154125
v -0.158073 0.012519 0.181927
v -0.158073 -0.012519 0.181927
v -0.185875 0.012519 0.215803
v -0.185875 -0.012519 0.215803
v -0.206533 0.012519 0.254451
v -0.206533 -0.012519 0.254451
v -0.219254 0.012519 0.296388
v -0.219254 -0.012519 0.296388
v -0.223550 0.012519 0.340000
v -0.223550 -0.012519 0.340000
v -0.219254 0.012519 0.383612
v -0.219254 -0.012519 0.383612
v -0.206533 0.012519 0.425549
v -0.206533 -0.012519 0.425549
v -0.185875 0.012519 0.464198
v -0.185875 -0.012519 0.464198
v -0.158073 0.012519 0.498073
v -0.158073 -0.012519 0.498073
v -0.124197 0.012519 0.525875
v -0.124197 -0.012519 0.525875
v -0.085549 0.012519 0.546533
v -0.085549 -0.012519 0.546533
v -0.043612 0.012519 0.559254
v -0.043612 -0.012519 0.559254
v 0.000000 0.011267 0.541195
v 0.039251 0.011267 0.537329
v 0.039251 -0.011267 0.537329
v 0.000000 -0.011267 0.541195
v 0.076994 0.011267 0.525880
v 0.076994 -0.011267 0.525880
v 0.111778 0.011267 0.507287
v 0.111778 -0.011267 0.507287
v 0.142266 0.011267 0.482266
v 0.142266 -0.011267 0.482266
v 0.167287 0.011267 0.451778
v 0.167287 -0.011267 0.451778
v 0.185880 0.011267 0.416994
v 0.185880 -0.011267 0.416994
v 0.197329 0.011267 0.379251
v 0.197329 -0.011267 0.379251
v 0.201195 0.011267 0.340000
v 0.201195 -0.011267 0.340000
v 0.197329 0.011267 0.300749
v 0.197329 -0.011267 0.300749
v 0.185880 0.011267 0.263006
v 0.185880 -0.011267 0.263006
v 0.167287 0.011267 0.228222
v 0.167287 -0.011267 0.228222
v 0.142266 0.011267 0.197734
v 0.142266 -0.011267 0.197734
v 0.111778 0.011267 0.172713
v 0.111778 -0.011267 0.172713
v 0.076994 0.011267 0.154120
v 0.076994 -0.011267 0.154120
v 0.039251 0.011267 0.142671
v 0.039251 -0.011267 0.142671
v 0.000000 0.011267 0.138805
v 0.000000 -0.011267 0.138805
v -0.039251 0.011267 0.142671
v -0.039251 -0.011267 0.142671
v -0.076994 0.011267 0.154120
v -0.076994 -0.011267 0.154120
v -0.111778 0.011267 0.172713
v -0.111778 -0.011267 0.172713
v -0.142266 0.011267 0.197734
v -0.142266 -0.011267 0.197734
v -0.167287 0.011267 0.228222
v -0.167287 -0.011267 0.228222
v -0.185880 0.011267 0.263006
v -0.185880 -0.011267 0.263006
v -0.197329 0.011267 0.300749
v -0.197329 -0.011267 0.300749
v -0.201195 0.011267 0.340000
v -0.201195 -0.011267 0.340000
v -0.197329 0.011267 0.379251
v -0.197329 -0.011267 0.379251
v -0.185880 0.011267 0.416994
v -0.185880 -0.011267 0.416994
v -0.167287 0.011267 0.451778
v -0.167287 -0.011267 0.451778
v -0.142266 0.011267 0.482266
v -0.142266 -0.011267 0.482266
v -0.111778 0.011267 0.507287
v -0.111778 -0.011267 0.507287
v -0.076994 0.011267 0.525880
v -0.076994 -0.011267 0.525880
v -0.039251 0.011267 0.537329
v -0.039251 -0.011267 0.537329
v -0.041822 -0.025431 0.200800
v -0.041822 -0.025431 0.479200
v -0.041822 0.025431 0.200800
v -0.041822 0.025431 0.479200
v 0.041822 -0.025431 0.200800
v 0.041822 -0.025431 0.479200
v 0.041822 0.025431 0.200800
v 0.041822 0.025431 0.479200
v -0.041822 -0.025431 0.340000
v -0.041822 0.025431 0.340000
v 0.041822 0.025431 0.340000
v 0.041822 -0.025431 0.340000
v -0.041822 -0.025431 0.381881
v -0.041822 0.025431 0.381881
v 0.041822 0.025431 0.381881
v 0.041822 -0.025431 0.381881
v -0.041822 0.025431 0.297882
v 0.041822 0.025431 0.297882
v 0.041822 -0.025431 0.297882
v -0.041822 -0.025431 0.297882
v -0.139865 -0.025431 0.297882
v -0.139865 -0.025431 0.340000
v -0.139865 0.025431 0.381881
v -0.139865 0.025431 0.340000
v 0.139865 0.025431 0.381881
v 0.139865 0.025431 0.340000
v 0.139865 -0.025431 0.381881
v 0.139865 -0.025431 0.340000
v -0.139865 -0.025431 0.381881
v -0.139865 0.025431 0.297882
v 0.139865 0.025431 0.297882
v 0.139865 -0.025431 0.297882
vn 0.0992 -0.0000 0.9951
vn 0.2936 -0.0000 0.9559
vn 0.4759 -0.0000 0.8795
vn 0.6391 -0.0000 0.7692
vn 0.7768 -0.0000 0.6297
vn 0.8843 -0.0000 0.4669
vn 0.9579 -0.0000 0.2870
vn 0.9953 -0.0000 0.0968
vn 0.9953 -0.0000 -0.0968
vn 0.9579 -0.0000 -0.2870
vn 0.8843 -0.0000 -0.4669
vn 0.7768 -0.0000 -0.6297
vn 0.6391 -0.0000 -0.7692
vn 0.4759 -0.0000 -0.8795
vn 0.2936 -0.0000 -0.9559
vn 0.0992 -0.0000 -0.9951
vn -0.0992 -0.0000 -0.9951
vn -0.2936 -0.0000 -0.9559
vn -0.4759 -0.0000 -0.8795
vn -0.6391 -0.0000 -0.7692
vn -0.7768 -0.0000 -0.6297
vn -0.8843 -0.0000 -0.4669
vn -0.9579 -0.0000 -0.2870
vn -0.9953 -0.0000 -0.0968
vn -0.9953 -0.0000 0.0968
vn -0.9579 -0.0000 0.2870
vn -0.8843 -0.0000 0.4669
vn -0.7768 -0.0000 0.6297
vn -0.6391 -0.0000 0.7692
vn -0.4759 -0.0000 0.8795
vn 0.7730 -0.0000 -0.6344
vn -0.2936 -0.0000 0.9559
vn -0.0992 -0.0000 0.9951
vn 0.0965 -0.2310 -0.9682
vn -0.0000 -1.0000 -0.0000
vn -0.0000 1.0000 -0.0000
vn -0.2903 -0.0000 -0.9569
vn 0.8819 -0.0000 -0.4714
vn 0.0955 0.2268 -0.9693
vn -0.0980 -0.0000 -0.9952
vn 0.9569 -0.0000 -0.2903
vn 0.2865 -0.2183 -0.9329
vn -0.0965 -0.2310 0.9682
vn 0.2840 0.2064 -0.9363
vn -0.0955 0.2268 0.9693
vn 0.9952 -0.0000 -0.0980
vn 0.4672 -0.1903 -0.8634
vn -0.2865 -0.2183 0.9329
vn 0.9952 -0.0000 0.0980
vn 0.4643 0.1723 -0.8687
vn -0.2840 0.2064 0.9363
vn 0.9569 -0.0000 0.2903
vn 0.6318 -0.1508 -0.7604
vn -0.4672 -0.1903 0.8634
vn 0.6291 0.1293 -0.7665
vn -0.4643 0.1723 0.8687
vn 0.8819 -0.0000 0.4714
vn 0.7725 -0.1056 -0.6262
vn -0.6318 -0.1508 0.7604
vn 0.7730 -0.0000 0.6344
vn 0.7703 0.0838 -0.6322
vn -0.6291 0.1293 0.7665
vn 0.6344 -0.0000 0.7730
vn 0.8826 -0.0618 -0.4660
vn -0.7725 -0.1056 0.6262
vn 0.8811 0.0430 -0.4710
vn -0.7703 0.0838 0.6322
vn 0.4714 -0.0000 0.8819
vn 0.9576 -0.0262 -0.2869
vn -0.8826 -0.0618 0.4660
vn 0.2903 -0.0000 0.9569
vn 0.9569 0.0135 -0.2903
vn -0.8811 0.0430 0.4710
vn 0.0980 -0.0000 0.9952
vn 0.9953 -0.0045 -0.0968
vn -0.9576 -0.0262 0.2869
vn -0.9569 0.0135 0.2903
vn -0.0980 -0.0000 0.9952
vn -0.9953 -0.0045 0.0968
vn -0.2903 -0.0000 0.9569
vn 0.9953 0.0045 0.0968
vn -0.9952 -0.0000 0.0980
vn 0.0434 -0.9984 0.0356
vn 0.0265 0.9984 -0.0495
vn -0.0356 0.9984 -0.0434
vn 0.0265 -0.9984 -0.0495
vn -0.0356 0.9984 0.0434
vn -0.0356 -0.9984 -0.0434
vn 0.0495 0.9984 0.0265
vn -0.0356 -0.9984 0.0434
vn 0.0163 0.9984 -0.0538
vn 0.0495 -0.9984 0.0265
vn -0.0434 0.9984 -0.0356
vn 0.0163 -0.9984 -0.0538
vn -0.0265 0.9984 0.0495
vn -0.0434 -0.9984 -0.0356
vn 0.0538 0.9984 0.0163
vn -0.0265 -0.9984 0.0495
vn 0.0055 0.9984 -0.0559
vn 0.0538 -0.9984 0.0163
vn -0.0495 0.9984 -0.0265
vn 0.0055 -0.9984 -0.0559
vn -0.0163 0.9984 0.0538
vn -0.0495 -0.9984 -0.0265
vn 0.0559 0.9984 0.0055
vn -0.0163 -0.9984 0.0538
vn 0.0559 -0.9984 0.0055
vn -0.0538 0.9984 -0.0163
vn -0.0055 0.9984 0.0559
vn -0.0538 -0.9984 -0.0163
vn 0.0559 0.9984 -0.0055
vn -0.0055 -0.9984 0.0559
vn 0.0559 -0.9984 -0.0055
vn -0.0559 0.9984 -0.0055
vn 0.0055 0.9984 0.0559
vn -0.0559 -0.9984 -0.0055
vn 0.0538 0.9984 -0.0163
vn 0.0055 -0.9984 0.0559
vn 0.0538 -0.9984 -0.0163
vn -0.0559 0.9984 0.0055
vn 0.0163 0.9984 0.0538
vn -0.0559 -0.9984 0.0055
vn -0.0055 0.9984 -0.0559
vn 0.0495 0.9984 -0.0265
vn 0.0163 -0.9984 0.0538
vn -0.0055 -0.9984 -0.0559
vn 0.0495 -0.9984 -0.0265
vn -0.0538 0.9984 0.0163
vn 0.0265 0.9984 0.0495
vn -0.0538 -0.9984 0.0163
vn 0.0434 0.9984 -0.0356
vn 0.0265 -0.9984 0.0495
vn -0.0163 0.9984 -0.0538
vn 0.0434 -0.9984 -0.0356
vn -0.0495 0.9984 0.0265
vn -0.0163 -0.9984 -0.0538
vn 0.0356 0.9984 0.0434
vn -0.0495 -0.9984 0.0265
vn 0.0356 0.9984 -0.0434
vn 0.0356 -0.9984 0.0434
vn -0.0265 0.9984 -0.0495
vn 0.0356 -0.9984 -0.0434
vn -0.0434 0.9984 0.0356
vn -0.0265 -0.9984 -0.0495
vn 0.0434 0.9984 0.0356
vn -0.0434 -0.9984 0.0356
vn -0.4714 -0.0000 -0.8819
vn -0.0965 0.2310 -0.9682
vn 0.6344 -0.0000 -0.7730
vn -0.0955 -0.2268 -0.9693
vn -0.6344 -0.0000 -0.7730
vn 0.4714 -0.0000 -0.8819
vn 0.0965 0.2310 0.9682
vn -0.2865 0.2183 -0.9329
vn 0.0955 -0.2268 0.9693
vn -0.7730 -0.0000 -0.6344
vn -0.2840 -0.2064 -0.9363
vn 0.2903 -0.0000 -0.9569
vn -0.8819 -0.0000 -0.4714
vn -0.4672 0.1903 -0.8634
vn 0.0980 -0.0000 -0.9952
vn 0.2865 0.2183 0.9329
vn -0.4643 -0.1723 -0.8687
vn 0.2840 -0.2064 0.9363
vn -0.9569 -0.0000 -0.2903
vn -0.6318 0.1508 -0.7604
vn 0.4672 0.1903 0.8634
vn -0.9952 -0.0000 -0.0980
vn -0.6291 -0.1293 -0.7665
vn 0.4643 -0.1723 0.8687
vn -0.7725 0.1056 -0.6262
vn 0.6318 0.1508 0.7604
vn -0.7703 -0.0838 -0.6322
vn 0.6291 -0.1293 0.7665
vn -0.9569 -0.0000 0.2903
vn -0.8826 0.0618 -0.4660
vn 0.7725 0.1056 0.6262
vn -0.8819 -0.0000 0.4714
vn -0.8811 -0.0430 -0.4710
vn 0.7703 -0.0838 0.6322
vn -0.7730 -0.0000 0.6344
vn -0.9576 0.0262 -0.2869
vn 0.8826 0.0618 0.4660
vn -0.9569 -0.0135 -0.2903
vn 0.8811 -0.0430 0.4710
vn -0.6344 -0.0000 0.7730
vn -0.9953 0.0045 -0.0968
vn 0.9576 0.0262 0.2869
vn -0.4714 -0.0000 0.8819
vn 0.9569 -0.0135 0.2903
vn -1.0000 -0.0000 -0.0000
vn 1.0000 -0.0000 -0.0000
vn -0.0000 -0.0000 -1.0000
vn -0.0000 -0.0000 1.0000
vn 0.0955 -0.2268 -0.9693
vn 0.0965 0.2310 -0.9682
vn 0.2840 -0.2064 -0.9363
vn -0.0955 -0.2268 0.9693
vn 0.2865 0.2183 -0.9329
vn -0.0965 0.2310 0.9682
vn 0.4643 -0.1723 -0.8687
vn -0.2840 -0.2064 0.9363
vn 0.4672 0.1903 -0.8634
vn -0.2865 0.2183 0.9329
vn 0.6291 -0.1293 -0.7665
vn -0.4643 -0.1723 0.8687
vn 0.6318 0.1508 -0.7604
vn -0.4672 0.1903 0.8634
vn 0.7703 -0.0838 -0.6322
vn -0.6291 -0.1293 0.7665
vn 0.7725 0.1056 -0.6262
vn -0.6318 0.1508 0.7604
vn 0.8811 -0.0430 -0.4710
vn -0.7703 -0.0838 0.6322
vn 0.8826 0.0618 -0.4660
vn -0.7725 0.1056 0.6262
vn 0.9569 -0.0135 -0.2903
vn -0.8811 -0.0430 0.4710
vn 0.9576 0.0262 -0.2869
vn -0.8826 0.0618 0.4660
vn -0.9569 -0.0135 0.2903
vn 0.9953 0.0045 -0.0968
vn -0.9576 0.0262 0.2869
vn 0.9953 -0.0045 0.0968
vn -0.9953 0.0045 0.0968
vn -0.0955 0.2268 -0.9693
vn -0.0965 -0.2310 -0.9682
vn 0.0955 0.2268 0.9693
vn -0.2840 0.2064 -0.9363
vn 0.0965 -0.2310 0.9682
vn -0.2865 -0.2183 -0.9329
vn -0.4643 0.1723 -0.8687
vn 0.2840 0.2064 0.9363
vn -0.4672 -0.1903 -0.8634
vn 0.2865 -0.2183 0.9329
vn -0.6291 0.1293 -0.7665
vn 0.4643 0.1723 0.8687
vn -0.6318 -0.1508 -0.7604
vn 0.4672 -0.1903 0.8634
vn -0.7703 0.0838 -0.6322
vn 0.6291 0.1293 0.7665
vn -0.7725 -0.1056 -0.6262
vn 0.6318 -0.1508 0.7604
vn -0.8811 0.0430 -0.4710
vn 0.7703 0.0838 0.6322
vn -0.8826 -0.0618 -0.4660
vn 0.7725 -0.1056 0.6262
vn -0.9569 0.0135 -0.2903
vn 0.8811 0.0430 0.4710
vn -0.9576 -0.0262 -0.2869
vn 0.8826 -0.0618 0.4660
vn 0.9569 0.0135 0.2903
vn -0.9953 -0.0045 -0.0968
vn 0.9576 -0.0262 0.2869
vt 0.343750 0.375000
vt 0.275541 0.322293
vt 0.343750 0.480000
vt 0.275541 0.427293
vt 0.343750 0.375000
vt 0.275541 0.322293
vt 0.343750 0.480000
vt 0.275541 0.427293
vt 0.343750 0.375000
vt 0.275541 0.322293
vt 0.343750 0.480000
vt 0.275541 0.427293
vt 0.343750 0.375000
vt 0.275541 0.322293
vt 0.343750 0.480000
vt 0.275541 0.427293
vt 0.343750 0.375000
vt 0.275541 0.322293
vt 0.343750 0.480000
vt 0.275541 0.427293
vt 0.343750 0.375000
vt 0.275541 0.322293
vt 0.343750 0.480000
vt 0.275541 0.427293
vt 0.343750 0.375000
vt 0.275541 0.322293
vt 0.343750 0.480000
vt 0.275541 0.427293
vt 0.343750 0.375000
vt 0.275541 0.322293
vt 0.343750 0.480000
vt 0.275541 0.427293
vt 0.275541 0.322293
vt 0.343750 0.375000
vt 0.275541 0.427293
vt 0.343750 0.480000
vt 0.343750 0.375000
vt 0.275541 0.322293
vt 0.343750 0.480000
vt 0.275541 0.427293
vt 0.343750 0.375000
vt 0.275541 0.322293
vt 0.343750 0.480000
vt 0.275541 0.427293
vt 0.343750 0.375000
vt 0.275541 0.322293
vt 0.343750 0.480000
vt 0.275541 0.427293
vt 0.343750 0.375000
vt 0.275541 0.322293
vt 0.343750 0.480000
vt 0.275541 0.427293
vt 0.343750 0.375000
vt 0.275541 0.322293
vt 0.343750 0.480000
vt 0.275541 0.427293
vt 0.343750 0.375000
vt 0.275541 0.322293
vt 0.343750 0.480000
vt 0.275541 0.427293
vt 0.343750 0.375000
vt 0.275541 0.322293
vt 0.343750 0.480000
vt 0.275541 0.427293
vt 0.343750 0.375000
vt 0.275541 0.322293
vt 0.343750 0.480000
vt 0.275541 0.427293
vt 0.343750 0.375000
vt 0.275541 0.322293
vt 0.343750 0.480000
vt 0.275541 0.427293
vt 0.343750 0.375000
vt 0.275541 0.322293
vt 0.343750 0.480000
vt 0.275541 0.427293
vt 0.343750 0.375000
vt 0.275541 0.322293
vt 0.343750 0.480000
vt 0.275541 0.427293
vt 0.343750 0.375000
vt 0.275541 0.322293
vt 0.343750 0.480000
vt 0.275541 0.427293
vt 0.343750 0.375000
vt 0.275541 0.322293
vt 0.343750 0.480000
vt 0.275541 0.427293
vt 0.343750 0.375000
vt 0.275541 0.322293
vt 0.343750 0.480000
vt 0.275541 0.427293
vt 0.343750 0.375000
vt 0.275541 0.322293
vt 0.343750 0.480000
vt 0.275541 0.427293
vt 0.343750 0.375000
vt 0.275541 0.322293
vt 0.343750 0.480000
vt 0.275541 0.427293
vt 0.343750 0.375000
vt 0.275541 0.322293
vt 0.343750 0.480000
vt 0.275541 0.427293
vt 0.343750 0.375000
vt 0.275541 0.322293
vt 0.343750 0.480000
vt 0.275541 0.427293
vt 0.343750 0.375000
vt 0.275541 0.322293
vt 0.343750 0.480000
vt 0.275541 0.427293
vt 0.343750 0.375000
vt 0.275541 0.322293
vt 0.343750 0.480000
vt 0.275541 0.427293
vt 0.343750 0.375000
vt 0.275541 0.322293
vt 0.343750 0.480000
vt 0.275541 0.427293
vt 0.343750 0.375000
vt 0.275541 0.322293
vt 0.343750 0.480000
vt 0.275541 0.427293
vt 0.343750 0.375000
vt 0.275541 0.322293
vt 0.343750 0.480000
vt 0.275541 0.427293
vt 0.343750 0.372900
vt 0.343750 0.371932
vt 0.343750 0.371932
vt 0.343750 0.372900
vt 0.343750 0.369064
vt 0.343750 0.369064
vt 0.343750 0.364406
vt 0.343750 0.364406
vt 0.343750 0.358138
vt 0.343750 0.358138
vt 0.343750 0.350501
vt 0.343750 0.350501
vt 0.343750 0.341787
vt 0.343750 0.341787
vt 0.343750 0.332333
vt 0.343750 0.332333
vt 0.343750 0.322500
vt 0.343750 0.322500
vt 0.343750 0.312667
vt 0.343750 0.312667
vt 0.343750 0.303213
vt 0.343750 0.303213
vt 0.343750 0.294499
vt 0.343750 0.294499
vt 0.343750 0.286862
vt 0.343750 0.286862
vt 0.343750 0.280594
vt 0.343750 0.280594
vt 0.343750 0.275936
vt 0.343750 0.275936
vt 0.343750 0.273068
vt 0.343750 0.273068
vt 0.343750 0.272100
vt 0.343750 0.272100
vt 0.343750 0.273068
vt 0.343750 0.273068
vt 0.343750 0.275936
vt 0.343750 0.275936
vt 0.343750 0.280594
vt 0.343750 0.280594
vt 0.343750 0.286862
vt 0.343750 0.286862
vt 0.343750 0.294499
vt 0.343750 0.294499
vt 0.343750 0.303213
vt 0.343750 0.303213
vt 0.343750 0.312667
vt 0.343750 0.312667
vt 0.343750 0.322500
vt 0.343750 0.322500
vt 0.343750 0.332333
vt 0.343750 0.332333
vt 0.343750 0.341787
vt 0.343750 0.341787
vt 0.343750 0.350501
vt 0.343750 0.350501
vt 0.343750 0.358138
vt 0.343750 0.358138
vt 0.343750 0.364406
vt 0.343750 0.364406
vt 0.343750 0.369064
vt 0.343750 0.369064
vt 0.343750 0.371932
vt 0.343750 0.371932
vt 0.275541 0.322293
vt 0.275541 0.322293
vt 0.275541 0.427293
vt 0.275541 0.427293
vt 0.275541 0.322293
vt 0.275541 0.427293
vt 0.275541 0.322293
vt 0.275541 0.427293
vt 0.275541 0.322293
vt 0.275541 0.427293
vt 0.275541 0.322293
vt 0.275541 0.427293
vt 0.275541 0.322293
vt 0.275541 0.427293
vt 0.343750 0.375000
vt 0.275541 0.322293
vt 0.343750 0.480000
vt 0.275541 0.427293
vt 0.343750 0.375000
vt 0.275541 0.322293
vt 0.343750 0.480000
vt 0.275541 0.427293
vt 0.275541 0.322293
vt 0.275541 0.427293
vt 0.275541 0.322293
vt 0.275541 0.427293
vt 0.275541 0.322293
vt 0.275541 0.427293
vt 0.275541 0.322293
vt 0.275541 0.427293
vt 0.275541 0.322293
vt 0.275541 0.427293
vt 0.275541 0.322293
vt 0.275541 0.427293
vt 0.275541 0.322293
vt 0.275541 0.427293
vt 0.275541 0.322293
vt 0.275541 0.427293
vt 0.275541 0.322293
vt 0.275541 0.427293
vt 0.275541 0.322293
vt 0.275541 0.427293
vt 0.275541 0.322293
vt 0.275541 0.427293
vt 0.275541 0.322293
vt 0.275541 0.427293
vt 0.275541 0.322293
vt 0.275541 0.427293
vt 0.275541 0.322293
vt 0.275541 0.427293
vt 0.275541 0.322293
vt 0.275541 0.427293
vt 0.275541 0.322293
vt 0.275541 0.427293
vt 0.275541 0.322293
vt 0.275541 0.427293
vt 0.275541 0.322293
vt 0.275541 0.427293
vt 0.275541 0.322293
vt 0.275541 0.427293
vt 0.275541 0.322293
vt 0.275541 0.427293
vt 0.275541 0.322293
vt 0.275541 0.427293
vt 0.275541 0.322293
vt 0.275541 0.427293
vt 0.275541 0.322293
vt 0.275541 0.427293
vt 0.275541 0.322293
vt 0.343750 0.372900
vt 0.343750 0.371932
vt 0.275541 0.322293
vt 0.275541 0.427293
vt 0.343750 0.371932
vt 0.275541 0.427293
vt 0.343750 0.372900
vt 0.275541 0.322293
vt 0.343750 0.369064
vt 0.275541 0.427293
vt 0.343750 0.369064
vt 0.275541 0.322293
vt 0.343750 0.364406
vt 0.275541 0.427293
vt 0.343750 0.364406
vt 0.275541 0.322293
vt 0.343750 0.358138
vt 0.275541 0.427293
vt 0.343750 0.358138
vt 0.275541 0.322293
vt 0.343750 0.350501
vt 0.275541 0.427293
vt 0.343750 0.350501
vt 0.275541 0.322293
vt 0.343750 0.341787
vt 0.275541 0.427293
vt 0.343750 0.341787
vt 0.275541 0.322293
vt 0.343750 0.332333
vt 0.275541 0.427293
vt 0.343750 0.332333
vt 0.275541 0.322293
vt 0.343750 0.322500
vt 0.275541 0.427293
vt 0.343750 0.322500
vt 0.275541 0.322293
vt 0.343750 0.312667
vt 0.275541 0.427293
vt 0.343750 0.312667
vt 0.275541 0.322293
vt 0.343750 0.303213
vt 0.275541 0.427293
vt 0.343750 0.303213
vt 0.275541 0.322293
vt 0.343750 0.294499
vt 0.275541 0.427293
vt 0.343750 0.294499
vt 0.275541 0.322293
vt 0.343750 0.286862
vt 0.275541 0.427293
vt 0.343750 0.286862
vt 0.275541 0.322293
vt 0.343750 0.280594
vt 0.275541 0.427293
vt 0.343750 0.280594
vt 0.275541 0.322293
vt 0.343750 0.275936
vt 0.275541 0.427293
vt 0.343750 0.275936
vt 0.343750 0.273068
vt 0.275541 0.322293
vt 0.343750 0.273068
vt 0.275541 0.427293
vt 0.343750 0.272100
vt 0.275541 0.322293
vt 0.343750 0.272100
vt 0.275541 0.427293
vt 0.343750 0.273068
vt 0.275541 0.322293
vt 0.343750 0.273068
vt 0.275541 0.427293
vt 0.343750 0.275936
vt 0.275541 0.322293
vt 0.343750 0.275936
vt 0.275541 0.427293
vt 0.343750 0.280594
vt 0.275541 0.322293
vt 0.343750 0.280594
vt 0.275541 0.427293
vt 0.343750 0.286862
vt 0.275541 0.322293
vt 0.343750 0.286862
vt 0.275541 0.427293
vt 0.343750 0.294499
vt 0.275541 0.322293
vt 0.343750 0.294499
vt 0.275541 0.427293
vt 0.343750 0.303213
vt 0.275541 0.322293
vt 0.343750 0.303213
vt 0.275541 0.427293
vt 0.343750 0.312667
vt 0.275541 0.322293
vt 0.343750 0.312667
vt 0.275541 0.427293
vt 0.343750 0.322500
vt 0.275541 0.322293
vt 0.343750 0.322500
vt 0.275541 0.427293
vt 0.343750 0.332333
vt 0.275541 0.322293
vt 0.343750 0.332333
vt 0.275541 0.427293
vt 0.343750 0.341787
vt 0.275541 0.322293
vt 0.343750 0.341787
vt 0.275541 0.427293
vt 0.343750 0.350501
vt 0.275541 0.322293
vt 0.343750 0.350501
vt 0.275541 0.427293
vt 0.275541 0.322293
vt 0.343750 0.358138
vt 0.275541 0.427293
vt 0.343750 0.358138
vt 0.275541 0.322293
vt 0.343750 0.364406
vt 0.275541 0.427293
vt 0.343750 0.364406
vt 0.275541 0.322293
vt 0.343750 0.369064
vt 0.275541 0.427293
vt 0.343750 0.369064
vt 0.275541 0.322293
vt 0.343750 0.371932
vt 0.275541 0.427293
vt 0.343750 0.371932
vt 0.593750 0.427500
vt 0.593750 0.270000
vt 0.593750 0.480000
vt 0.593750 0.270000
vt 0.593750 0.480000
vt 0.593750 0.427500
vt 0.593750 0.375000
vt 0.593750 0.322500
vt 0.593750 0.322500
vt 0.593750 0.375000
vt 0.593750 0.427500
vt 0.593750 0.427500
vt 0.593750 0.375000
vt 0.593750 0.375000
vt 0.593750 0.480000
vt 0.593750 0.322500
vt 0.593750 0.375000
vt 0.593750 0.427500
vt 0.593750 0.480000
vt 0.593750 0.270000
vt 0.593750 0.322500
vt 0.593750 0.375000
vt 0.593750 0.427500
vt 0.593750 0.322500
vt 0.593750 0.375000
vt 0.593750 0.427500
vt 0.593750 0.270000
vt 0.593750 0.480000
vt 0.593750 0.270000
vt 0.593750 0.480000
vt 0.593750 0.270000
vt 0.593750 0.480000
vt 0.593750 0.322500
vt 0.593750 0.322500
vt 0.593750 0.375000
vt 0.593750 0.375000
vt 0.593750 0.427500
vt 0.593750 0.427500
vt 0.593750 0.270000
vt 0.593750 0.480000
vt 0.593750 0.322500
vt 0.593750 0.375000
vt 0.593750 0.427500
s 0
usemtl Material.002
f 2/3/1 3/5/1 1/1/1
f 3/5/2 6/11/2 5/9/2
f 5/9/3 8/15/3 7/13/3
f 7/13/4 10/19/4 9/17/4
f 9/17/5 12/23/5 11/21/5
f 11/21/6 14/27/6 13/25/6
f 13/25/7 16/31/7 15/29/7
f 15/29/8 18/36/8 17/34/8
f 17/34/9 20/39/9 19/37/9
f 19/37/10 22/43/10 21/41/10
f 21/41/11 24/47/11 23/45/11
f 23/45/12 26/51/12 25/49/12
f 25/49/13 28/55/13 27/53/13
f 27/53/14 30/59/14 29/57/14
f 29/57/15 32/63/15 31/61/15
f 32/63/16 33/65/16 31/61/16
f 34/67/17 35/69/17 33/65/17
f 36/71/18 37/73/18 35/69/18
f 38/75/19 39/77/19 37/73/19
f 40/79/20 41/81/20 39/77/20
f 42/83/21 43/85/21 41/81/21
f 44/87/22 45/89/22 43/85/22
f 46/91/23 47/93/23 45/89/23
f 48/95/24 49/97/24 47/93/24
f 50/99/25 51/101/25 49/97/25
f 52/103/26 53/105/26 51/101/26
f 54/107/27 55/109/27 53/105/27
f 56/111/28 57/113/28 55/109/28
f 58/115/29 59/117/29 57/113/29
f 60/119/30 61/121/30 59/117/30
f 121/185/31 247/369/31 249/374/31
f 62/123/32 63/125/32 61/121/32
f 64/127/33 1/1/33 63/125/33
f 32/64/34 162/230/34 34/68/34
f 102/166/35 86/150/35 70/134/35
f 95/159/36 111/175/36 127/191/36
f 66/130/37 197/270/37 69/133/37
f 120/184/38 246/367/38 118/182/38
f 31/62/39 161/229/39 159/227/39
f 67/131/40 196/268/40 68/132/40
f 119/183/38 245/365/38 247/369/38
f 65/129/40 194/263/40 66/130/40
f 116/180/41 246/367/41 244/363/41
f 30/60/42 160/228/42 32/64/42
f 64/128/43 132/196/43 2/4/43
f 117/181/41 243/361/41 245/365/41
f 29/58/44 159/227/44 157/225/44
f 63/126/45 129/193/45 191/259/45
f 116/180/46 242/359/46 114/178/46
f 115/179/46 241/357/46 243/361/46
f 28/56/47 158/226/47 30/60/47
f 62/124/48 192/260/48 64/128/48
f 112/176/49 242/359/49 240/355/49
f 27/54/50 157/225/50 155/223/50
f 61/122/51 191/259/51 189/257/51
f 111/175/49 241/357/49 113/177/49
f 110/174/52 240/355/52 238/351/52
f 26/52/53 156/224/53 28/56/53
f 60/120/54 190/258/54 62/124/54
f 111/175/52 237/349/52 239/353/52
f 25/50/55 155/223/55 153/221/55
f 59/118/56 189/257/56 187/255/56
f 108/172/57 238/351/57 236/347/57
f 109/173/57 235/345/57 237/349/57
f 24/48/58 154/222/58 26/52/58
f 58/116/59 188/256/59 60/120/59
f 106/170/60 236/347/60 234/343/60
f 23/46/61 153/221/61 151/219/61
f 57/114/62 187/255/62 185/253/62
f 107/171/60 233/341/60 235/345/60
f 104/168/63 234/343/63 232/339/63
f 22/44/64 152/220/64 24/48/64
f 56/112/65 186/254/65 58/116/65
f 103/167/63 233/341/63 105/169/63
f 21/42/66 151/219/66 149/217/66
f 55/110/67 185/253/67 183/251/67
f 104/168/68 230/335/68 102/166/68
f 101/165/68 231/337/68 103/167/68
f 20/40/69 150/218/69 22/44/69
f 54/108/70 184/252/70 56/112/70
f 102/166/71 228/331/71 100/164/71
f 19/38/72 149/217/72 147/215/72
f 53/106/73 183/251/73 181/249/73
f 101/165/71 227/329/71 229/333/71
f 100/164/74 226/327/74 98/162/74
f 18/35/75 148/216/75 20/40/75
f 52/104/76 182/250/76 54/108/76
f 97/161/74 227/329/74 99/163/74
f 17/33/46 147/215/46 145/212/46
f 51/102/77 181/249/77 179/247/77
f 98/162/78 224/323/78 96/160/78
f 95/159/78 225/325/78 97/161/78
f 18/36/49 144/209/49 146/213/49
f 50/100/79 180/248/79 52/104/79
f 96/160/80 222/320/80 94/158/80
f 17/34/81 143/207/81 15/29/81
f 49/98/82 179/247/82 177/245/82
f 93/157/80 223/321/80 95/159/80
f 170/238/83 236/348/83 172/240/83
f 187/255/84 253/381/84 251/377/84
f 137/201/85 199/273/85 135/199/85
f 190/258/86 252/379/86 254/383/86
f 155/223/87 217/309/87 153/221/87
f 136/200/88 202/279/88 138/202/88
f 171/239/89 237/350/89 235/346/89
f 154/222/90 220/315/90 156/224/90
f 189/257/91 255/385/91 253/381/91
f 174/242/92 236/348/92 238/352/92
f 139/203/93 201/277/93 137/201/93
f 190/258/94 256/387/94 192/260/94
f 157/225/95 219/313/95 155/223/95
f 138/202/96 204/283/96 140/204/96
f 173/241/97 239/354/97 237/350/97
f 156/224/98 222/319/98 158/226/98
f 129/193/99 255/385/99 191/259/99
f 176/244/100 238/352/100 240/356/100
f 141/205/101 203/281/101 139/203/101
f 192/260/102 196/267/102 132/196/102
f 159/227/103 221/317/103 157/225/103
f 140/204/104 206/287/104 142/206/104
f 175/243/105 241/358/105 239/354/105
f 158/226/106 224/324/106 160/228/106
f 178/246/107 240/356/107 242/360/107
f 143/208/108 205/285/108 141/205/108
f 161/229/109 223/322/109 159/227/109
f 142/206/110 208/291/110 144/210/110
f 177/245/111 243/362/111 241/358/111
f 160/228/112 226/328/112 162/230/112
f 180/248/113 242/360/113 244/364/113
f 145/212/114 207/289/114 143/208/114
f 163/231/115 225/326/115 161/229/115
f 144/210/116 210/295/116 146/214/116
f 179/247/117 245/366/117 243/362/117
f 162/230/118 228/332/118 164/232/118
f 182/250/119 244/364/119 246/368/119
f 147/215/120 209/293/120 145/212/120
f 165/233/121 227/330/121 163/231/121
f 146/214/122 212/299/122 148/216/122
f 130/194/123 193/261/123 129/193/123
f 181/249/124 247/370/124 245/366/124
f 166/234/125 228/332/125 230/336/125
f 132/196/126 195/265/126 131/195/126
f 184/252/127 246/368/127 248/372/127
f 149/217/128 211/297/128 147/215/128
f 165/233/129 231/338/129 229/334/129
f 148/216/130 214/303/130 150/218/130
f 185/253/131 247/370/131 183/251/131
f 168/236/132 230/336/132 232/340/132
f 133/197/133 194/264/133 130/194/133
f 186/254/134 248/372/134 250/375/134
f 151/219/135 213/301/135 149/217/135
f 131/195/136 198/271/136 134/198/136
f 167/235/137 233/342/137 231/338/137
f 150/218/138 216/307/138 152/220/138
f 185/253/139 251/377/139 249/373/139
f 170/238/140 232/340/140 234/344/140
f 135/199/141 197/269/141 133/197/141
f 188/256/142 250/375/142 252/379/142
f 153/221/143 215/305/143 151/219/143
f 134/198/144 200/275/144 136/200/144
f 169/237/145 235/346/145 233/342/145
f 152/220/146 218/311/146 154/222/146
f 70/134/37 195/266/37 67/131/37
f 120/184/31 250/376/31 248/371/31
f 69/133/147 199/274/147 71/135/147
f 35/70/148 161/229/148 33/66/148
f 123/187/149 249/374/149 251/378/149
f 72/136/147 198/272/147 70/134/147
f 36/72/150 162/230/150 164/232/150
f 124/188/149 250/376/149 122/186/149
f 71/135/151 201/278/151 73/137/151
f 123/187/152 253/382/152 125/189/152
f 3/6/153 129/193/153 1/2/153
f 74/138/151 200/276/151 72/136/151
f 37/74/154 163/231/154 35/70/154
f 126/190/152 252/380/152 124/188/152
f 4/8/155 132/196/155 131/195/155
f 73/137/156 203/282/156 75/139/156
f 38/76/157 164/232/157 166/234/157
f 125/189/158 255/386/158 127/191/158
f 76/140/156 202/280/156 74/138/156
f 126/190/158 256/388/158 254/384/158
f 75/139/159 205/286/159 77/141/159
f 39/78/160 165/233/160 37/74/160
f 127/191/161 193/262/161 65/129/161
f 5/10/162 130/194/162 3/6/162
f 78/142/159 204/284/159 76/140/159
f 40/80/163 166/234/163 168/236/163
f 68/132/161 256/388/161 128/192/161
f 6/12/164 131/195/164 134/198/164
f 77/141/165 207/290/165 79/143/165
f 80/144/165 206/288/165 78/142/165
f 41/82/166 167/235/166 39/78/166
f 7/14/167 133/197/167 5/10/167
f 79/143/168 209/294/168 81/145/168
f 42/84/169 168/236/169 170/238/169
f 8/16/170 134/198/170 136/200/170
f 82/146/168 208/292/168 80/144/168
f 81/145/82 211/298/82 83/147/82
f 43/86/171 169/237/171 41/82/171
f 9/18/172 135/199/172 7/14/172
f 84/148/82 210/296/82 82/146/82
f 44/88/173 170/238/173 172/240/173
f 10/20/174 136/200/174 138/202/174
f 83/147/175 213/302/175 85/149/175
f 86/150/175 212/300/175 84/148/175
f 45/90/176 171/239/176 43/86/176
f 11/22/177 137/201/177 9/18/177
f 85/149/178 215/306/178 87/151/178
f 46/92/179 172/240/179 174/242/179
f 12/24/180 138/202/180 140/204/180
f 88/152/178 214/304/178 86/150/178
f 87/151/181 217/310/181 89/153/181
f 47/94/182 173/241/182 45/90/182
f 13/26/183 139/203/183 11/22/183
f 90/154/181 216/308/181 88/152/181
f 48/96/184 174/242/184 176/244/184
f 14/28/185 140/204/185 142/206/185
f 89/153/186 219/314/186 91/155/186
f 92/156/186 218/312/186 90/154/186
f 49/98/187 175/243/187 47/94/187
f 15/30/188 141/205/188 13/26/188
f 91/155/189 221/318/189 93/157/189
f 50/100/168 176/244/168 178/246/168
f 16/32/190 142/206/190 144/210/190
f 94/158/189 220/316/189 92/156/189
f 269/408/191 260/397/191 270/409/191
f 260/397/36 271/410/36 270/409/36
f 264/402/192 272/411/192 271/410/192
f 262/400/35 269/407/35 272/411/35
f 263/401/193 257/389/193 259/395/193
f 260/398/194 262/400/194 264/402/194
f 268/406/35 276/416/35 275/414/35
f 267/405/36 287/430/36 274/413/36
f 266/404/36 274/413/36 273/412/36
f 268/406/35 283/425/35 272/411/35
f 272/411/35 265/403/35 268/406/35
f 273/412/193 277/417/193 286/429/193
f 270/409/36 267/405/36 266/404/36
f 271/410/194 283/425/194 281/423/194
f 257/390/191 273/412/191 259/396/191
f 273/412/36 263/401/36 259/396/36
f 274/413/192 261/399/192 263/401/192
f 275/414/35 257/391/35 261/399/35
f 282/424/192 288/431/192 287/430/192
f 277/417/191 280/422/191 286/429/191
f 281/423/192 284/426/192 282/424/192
f 285/427/191 280/422/191 278/419/191
f 265/403/35 277/418/35 276/416/35
f 275/414/35 284/426/35 268/406/35
f 266/404/36 279/421/36 270/409/36
f 269/407/35 278/420/35 265/403/35
f 269/408/194 279/421/194 285/427/194
f 275/414/193 287/430/193 288/431/193
f 271/410/36 282/424/36 267/405/36
f 273/412/36 280/422/36 266/404/36
f 2/3/1 4/7/1 3/5/1
f 3/5/2 4/7/2 6/11/2
f 5/9/3 6/11/3 8/15/3
f 7/13/4 8/15/4 10/19/4
f 9/17/5 10/19/5 12/23/5
f 11/21/6 12/23/6 14/27/6
f 13/25/7 14/27/7 16/31/7
f 15/29/8 16/31/8 18/36/8
f 17/34/9 18/36/9 20/39/9
f 19/37/10 20/39/10 22/43/10
f 21/41/11 22/43/11 24/47/11
f 23/45/12 24/47/12 26/51/12
f 25/49/13 26/51/13 28/55/13
f 27/53/14 28/55/14 30/59/14
f 29/57/15 30/59/15 32/63/15
f 32/63/16 34/67/16 33/65/16
f 34/67/17 36/71/17 35/69/17
f 36/71/18 38/75/18 37/73/18
f 38/75/19 40/79/19 39/77/19
f 40/79/20 42/83/20 41/81/20
f 42/83/21 44/87/21 43/85/21
f 44/87/22 46/91/22 45/89/22
f 46/91/23 48/95/23 47/93/23
f 48/95/24 50/99/24 49/97/24
f 50/99/25 52/103/25 51/101/25
f 52/103/26 54/107/26 53/105/26
f 54/107/27 56/111/27 55/109/27
f 56/111/28 58/115/28 57/113/28
f 58/115/29 60/119/29 59/117/29
f 60/119/30 62/123/30 61/121/30
f 121/185/31 119/183/31 247/369/31
f 62/123/32 64/127/32 63/125/32
f 64/127/33 2/3/33 1/1/33
f 32/64/195 160/228/195 162/230/195
f 70/134/35 67/131/35 68/132/35
f 68/132/35 128/192/35 126/190/35
f 126/190/35 124/188/35 122/186/35
f 122/186/35 120/184/35 118/182/35
f 118/182/35 116/180/35 114/178/35
f 114/178/35 112/176/35 110/174/35
f 110/174/35 108/172/35 106/170/35
f 106/170/35 104/168/35 102/166/35
f 102/166/35 100/164/35 98/162/35
f 98/162/35 96/160/35 94/158/35
f 94/158/35 92/156/35 90/154/35
f 90/154/35 88/152/35 86/150/35
f 86/150/35 84/148/35 82/146/35
f 82/146/35 80/144/35 78/142/35
f 78/142/35 76/140/35 74/138/35
f 74/138/35 72/136/35 70/134/35
f 70/134/35 68/132/35 126/190/35
f 126/190/35 122/186/35 118/182/35
f 118/182/35 114/178/35 110/174/35
f 110/174/35 106/170/35 102/166/35
f 102/166/35 98/162/35 94/158/35
f 94/158/35 90/154/35 86/150/35
f 86/150/35 82/146/35 78/142/35
f 78/142/35 74/138/35 70/134/35
f 70/134/35 126/190/35 118/182/35
f 118/182/35 110/174/35 102/166/35
f 102/166/35 94/158/35 86/150/35
f 86/150/35 78/142/35 70/134/35
f 70/134/35 118/182/35 102/166/35
f 127/191/36 65/129/36 66/130/36
f 66/130/36 69/133/36 71/135/36
f 71/135/36 73/137/36 75/139/36
f 75/139/36 77/141/36 79/143/36
f 79/143/36 81/145/36 83/147/36
f 83/147/36 85/149/36 87/151/36
f 87/151/36 89/153/36 91/155/36
f 91/155/36 93/157/36 95/159/36
f 95/159/36 97/161/36 99/163/36
f 99/163/36 101/165/36 103/167/36
f 103/167/36 105/169/36 107/171/36
f 107/171/36 109/173/36 111/175/36
f 111/175/36 113/177/36 115/179/36
f 115/179/36 117/181/36 119/183/36
f 119/183/36 121/185/36 123/187/36
f 123/187/36 125/189/36 127/191/36
f 127/191/36 66/130/36 71/135/36
f 71/135/36 75/139/36 79/143/36
f 79/143/36 83/147/36 87/151/36
f 87/151/36 91/155/36 95/159/36
f 95/159/36 99/163/36 103/167/36
f 103/167/36 107/171/36 111/175/36
f 111/175/36 115/179/36 119/183/36
f 119/183/36 123/187/36 127/191/36
f 127/191/36 71/135/36 79/143/36
f 79/143/36 87/151/36 95/159/36
f 95/159/36 103/167/36 111/175/36
f 111/175/36 119/183/36 127/191/36
f 127/191/36 79/143/36 95/159/36
f 66/130/37 194/263/37 197/270/37
f 120/184/38 248/371/38 246/367/38
f 31/62/196 33/66/196 161/229/196
f 67/131/40 195/266/40 196/268/40
f 119/183/38 117/181/38 245/365/38
f 65/129/40 193/262/40 194/263/40
f 116/180/41 118/182/41 246/367/41
f 30/60/197 158/226/197 160/228/197
f 64/128/198 192/260/198 132/196/198
f 117/181/41 115/179/41 243/361/41
f 29/58/199 31/62/199 159/227/199
f 63/126/200 1/2/200 129/193/200
f 116/180/46 244/363/46 242/359/46
f 115/179/46 113/177/46 241/357/46
f 28/56/201 156/224/201 158/226/201
f 62/124/202 190/258/202 192/260/202
f 112/176/49 114/178/49 242/359/49
f 27/54/203 29/58/203 157/225/203
f 61/122/204 63/126/204 191/259/204
f 111/175/49 239/353/49 241/357/49
f 110/174/52 112/176/52 240/355/52
f 26/52/205 154/222/205 156/224/205
f 60/120/206 188/256/206 190/258/206
f 111/175/52 109/173/52 237/349/52
f 25/50/207 27/54/207 155/223/207
f 59/118/208 61/122/208 189/257/208
f 108/172/57 110/174/57 238/351/57
f 109/173/57 107/171/57 235/345/57
f 24/48/209 152/220/209 154/222/209
f 58/116/210 186/254/210 188/256/210
f 106/170/60 108/172/60 236/347/60
f 23/46/211 25/50/211 153/221/211
f 57/114/212 59/118/212 187/255/212
f 107/171/60 105/169/60 233/341/60
f 104/168/63 106/170/63 234/343/63
f 22/44/213 150/218/213 152/220/213
f 56/112/214 184/252/214 186/254/214
f 103/167/63 231/337/63 233/341/63
f 21/42/215 23/46/215 151/219/215
f 55/110/216 57/114/216 185/253/216
f 104/168/68 232/339/68 230/335/68
f 101/165/68 229/333/68 231/337/68
f 20/40/217 148/216/217 150/218/217
f 54/108/218 182/250/218 184/252/218
f 102/166/71 230/335/71 228/331/71
f 19/38/219 21/42/219 149/217/219
f 53/106/220 55/110/220 183/251/220
f 101/165/71 99/163/71 227/329/71
f 100/164/74 228/331/74 226/327/74
f 18/35/46 146/214/46 148/216/46
f 52/104/221 180/248/221 182/250/221
f 97/161/74 225/325/74 227/329/74
f 17/33/222 19/38/222 147/215/222
f 51/102/223 53/106/223 181/249/223
f 98/162/78 226/327/78 224/323/78
f 95/159/78 223/321/78 225/325/78
f 18/36/224 16/31/224 144/209/224
f 50/100/82 178/246/82 180/248/82
f 96/160/80 224/323/80 222/320/80
f 17/34/49 145/211/49 143/207/49
f 49/98/225 51/102/225 179/247/225
f 93/157/80 221/318/80 223/321/80
f 170/238/83 234/344/83 236/348/83
f 187/255/84 189/257/84 253/381/84
f 137/201/85 201/277/85 199/273/85
f 190/258/86 188/256/86 252/379/86
f 155/223/87 219/313/87 217/309/87
f 136/200/88 200/275/88 202/279/88
f 171/239/89 173/241/89 237/350/89
f 154/222/90 218/311/90 220/315/90
f 189/257/91 191/259/91 255/385/91
f 174/242/92 172/240/92 236/348/92
f 139/203/93 203/281/93 201/277/93
f 190/258/94 254/383/94 256/387/94
f 157/225/95 221/317/95 219/313/95
f 138/202/96 202/279/96 204/283/96
f 173/241/97 175/243/97 239/354/97
f 156/224/98 220/315/98 222/319/98
f 129/193/99 193/261/99 255/385/99
f 176/244/100 174/242/100 238/352/100
f 141/205/101 205/285/101 203/281/101
f 192/260/102 256/387/102 196/267/102
f 159/227/103 223/322/103 221/317/103
f 140/204/104 204/283/104 206/287/104
f 175/243/105 177/245/105 241/358/105
f 158/226/106 222/319/106 224/324/106
f 178/246/107 176/244/107 240/356/107
f 143/208/108 207/289/108 205/285/108
f 161/229/109 225/326/109 223/322/109
f 142/206/110 206/287/110 208/291/110
f 177/245/111 179/247/111 243/362/111
f 160/228/112 224/324/112 226/328/112
f 180/248/113 178/246/113 242/360/113
f 145/212/114 209/293/114 207/289/114
f 163/231/115 227/330/115 225/326/115
f 144/210/116 208/291/116 210/295/116
f 179/247/117 181/249/117 245/366/117
f 162/230/118 226/328/118 228/332/118
f 182/250/119 180/248/119 244/364/119
f 147/215/120 211/297/120 209/293/120
f 165/233/121 229/334/121 227/330/121
f 146/214/122 210/295/122 212/299/122
f 130/194/123 194/264/123 193/261/123
f 181/249/124 183/251/124 247/370/124
f 166/234/125 164/232/125 228/332/125
f 132/196/126 196/267/126 195/265/126
f 184/252/127 182/250/127 246/368/127
f 149/217/128 213/301/128 211/297/128
f 165/233/129 167/235/129 231/338/129
f 148/216/130 212/299/130 214/303/130
f 185/253/131 249/373/131 247/370/131
f 168/236/132 166/234/132 230/336/132
f 133/197/133 197/269/133 194/264/133
f 186/254/134 184/252/134 248/372/134
f 151/219/135 215/305/135 213/301/135
f 131/195/136 195/265/136 198/271/136
f 167/235/137 169/237/137 233/342/137
f 150/218/138 214/303/138 216/307/138
f 185/253/139 187/255/139 251/377/139
f 170/238/140 168/236/140 232/340/140
f 135/199/141 199/273/141 197/269/141
f 188/256/142 186/254/142 250/375/142
f 153/221/143 217/309/143 215/305/143
f 134/198/144 198/271/144 200/275/144
f 169/237/145 171/239/145 235/346/145
f 152/220/146 216/307/146 218/311/146
f 70/134/37 198/272/37 195/266/37
f 120/184/31 122/186/31 250/376/31
f 69/133/147 197/270/147 199/274/147
f 35/70/226 163/231/226 161/229/226
f 123/187/149 121/185/149 249/374/149
f 72/136/147 200/276/147 198/272/147
f 36/72/227 34/68/227 162/230/227
f 124/188/149 252/380/149 250/376/149
f 71/135/151 199/274/151 201/278/151
f 123/187/152 251/378/152 253/382/152
f 3/6/228 130/194/228 129/193/228
f 74/138/151 202/280/151 200/276/151
f 37/74/229 165/233/229 163/231/229
f 126/190/152 254/384/152 252/380/152
f 4/8/230 2/4/230 132/196/230
f 73/137/156 201/278/156 203/282/156
f 38/76/231 36/72/231 164/232/231
f 125/189/158 253/382/158 255/386/158
f 76/140/156 204/284/156 202/280/156
f 126/190/158 128/192/158 256/388/158
f 75/139/159 203/282/159 205/286/159
f 39/78/232 167/235/232 165/233/232
f 127/191/161 255/386/161 193/262/161
f 5/10/233 133/197/233 130/194/233
f 78/142/159 206/288/159 204/284/159
f 40/80/234 38/76/234 166/234/234
f 68/132/161 196/268/161 256/388/161
f 6/12/235 4/8/235 131/195/235
f 77/141/165 205/286/165 207/290/165
f 80/144/165 208/292/165 206/288/165
f 41/82/236 169/237/236 167/235/236
f 7/14/237 135/199/237 133/197/237
f 79/143/168 207/290/168 209/294/168
f 42/84/238 40/80/238 168/236/238
f 8/16/239 6/12/239 134/198/239
f 82/146/168 210/296/168 208/292/168
f 81/145/82 209/294/82 211/298/82
f 43/86/240 171/239/240 169/237/240
f 9/18/241 137/201/241 135/199/241
f 84/148/82 212/300/82 210/296/82
f 44/88/242 42/84/242 170/238/242
f 10/20/243 8/16/243 136/200/243
f 83/147/175 211/298/175 213/302/175
f 86/150/175 214/304/175 212/300/175
f 45/90/244 173/241/244 171/239/244
f 11/22/245 139/203/245 137/201/245
f 85/149/178 213/302/178 215/306/178
f 46/92/246 44/88/246 172/240/246
f 12/24/247 10/20/247 138/202/247
f 88/152/178 216/308/178 214/304/178
f 87/151/181 215/306/181 217/310/181
f 47/94/248 175/243/248 173/241/248
f 13/26/249 141/205/249 139/203/249
f 90/154/181 218/312/181 216/308/181
f 48/96/250 46/92/250 174/242/250
f 14/28/251 12/24/251 140/204/251
f 89/153/186 217/310/186 219/314/186
f 92/156/186 220/316/186 218/312/186
f 49/98/168 177/245/168 175/243/168
f 15/30/252 143/208/252 141/205/252
f 91/155/189 219/314/189 221/318/189
f 50/100/253 48/96/253 176/244/253
f 16/32/254 14/28/254 142/206/254
f 94/158/189 222/320/189 220/316/189
f 269/408/191 258/392/191 260/397/191
f 260/397/36 264/402/36 271/410/36
f 264/402/192 262/400/192 272/411/192
f 262/400/35 258/393/35 269/407/35
f 263/401/193 261/399/193 257/389/193
f 260/398/194 258/394/194 262/400/194
f 268/406/35 265/403/35 276/416/35
f 267/405/36 282/424/36 287/430/36
f 266/404/36 267/405/36 274/413/36
f 268/406/35 284/426/35 283/425/35
f 272/411/35 269/407/35 265/403/35
f 273/412/193 276/415/193 277/417/193
f 270/409/36 271/410/36 267/405/36
f 271/410/194 272/411/194 283/425/194
f 257/390/191 276/415/191 273/412/191
f 273/412/36 274/413/36 263/401/36
f 274/413/192 275/414/192 261/399/192
f 275/414/35 276/416/35 257/391/35
f 282/424/192 284/426/192 288/431/192
f 277/417/191 278/419/191 280/422/191
f 281/423/192 283/425/192 284/426/192
f 285/427/191 279/421/191 280/422/191
f 265/403/35 278/420/35 277/418/35
f 275/414/35 288/431/35 284/426/35
f 266/404/36 280/422/36 279/421/36
f 269/407/35 285/428/35 278/420/35
f 269/408/194 270/409/194 279/421/194
f 275/414/193 274/413/193 287/430/193
f 271/410/36 281/423/36 282/424/36
f 273/412/36 286/429/36 280/422/36
