# Blender 3.3.1
# www.blender.org
mtllib drone.mtl
o Drone_inimigo
v -0.047855 -0.073131 0.160179
v -0.067678 0.000009 0.160179
v -0.047855 0.073149 0.310179
v -0.000000 -0.141635 0.235179
v -0.064017 0.040535 0.160179
v -0.064017 0.040535 0.310179
v -0.026517 0.097849 0.160179
v -0.000000 0.000009 0.135179
v -0.000000 -0.103427 0.160179
v -0.000000 -0.103427 0.310179
v -0.067678 0.000009 0.310179
v -0.047855 0.073149 0.160179
v -0.000000 0.103444 0.310179
v -0.026517 -0.097831 0.160179
v -0.064017 -0.040518 0.160179
v -0.092678 0.000009 0.235179
v -0.026517 0.097849 0.310179
v -0.035355 0.130462 0.235179
v -0.244579 0.274283 0.292702
v -0.233186 0.287471 0.292702
v -0.253209 0.256869 0.292702
v -0.290582 0.319646 0.378103
v -0.294194 0.323869 0.378103
v -0.296332 0.318893 0.378103
v -0.290938 0.327137 0.378103
v -0.085355 0.054044 0.235179
v -0.254018 0.288709 0.252657
v -0.264602 0.264082 0.252657
v -0.065533 0.100166 0.235179
v -0.237905 0.304884 0.252657
v -0.133097 0.153873 0.241296
v -0.186871 0.216884 0.246540
v -0.118097 0.176798 0.241296
v -0.127151 0.167710 0.241296
v -0.178862 0.229125 0.246540
v -0.183696 0.224272 0.246540
v -0.178862 0.229125 0.224275
v -0.133097 0.153873 0.219032
v -0.183696 0.224272 0.224275
v -0.186871 0.216884 0.224275
v -0.118097 0.176798 0.219032
v -0.127151 0.167710 0.219032
v -0.159850 0.204730 0.222305
v -0.148470 0.186018 0.221001
v -0.161052 0.203524 0.222305
v -0.161842 0.201687 0.222305
v -0.144740 0.191719 0.221001
v -0.146992 0.189459 0.221001
v -0.144740 0.191719 0.096947
v -0.159850 0.204730 0.098251
v -0.146992 0.189459 0.096947
v -0.148470 0.186018 0.096947
v -0.161842 0.201687 0.098251
v -0.161052 0.203524 0.098251
v -0.145926 0.180699 0.096621
v -0.164799 0.206957 0.098577
v -0.165983 0.204202 0.098577
v -0.140332 0.189250 0.096621
v -0.143708 0.185860 0.096621
v -0.162996 0.208767 0.098577
v -0.162996 0.208767 0.088954
v -0.145926 0.180699 0.086998
v -0.165983 0.204202 0.088954
v -0.140332 0.189250 0.086998
v -0.143708 0.185860 0.086998
v -0.164799 0.206957 0.088954
v 0.047855 -0.073131 0.160179
v 0.067678 0.000009 0.310179
v 0.047855 0.073149 0.160179
v 0.047855 0.073149 0.310179
v -0.000000 0.103444 0.160179
v 0.026517 -0.097831 0.160179
v 0.064017 -0.040518 0.160179
v 0.064017 0.040535 0.160179
v -0.000000 0.000009 0.335179
v 0.085355 -0.054027 0.235179
v 0.047855 -0.073131 0.310179
v 0.067678 0.000009 0.160179
v 0.064017 -0.040518 0.310179
v 0.092678 0.000009 0.235179
v 0.026517 0.097849 0.160179
v -0.000000 0.141653 0.235179
v 0.085355 0.054044 0.235179
v 0.065533 -0.100149 0.235179
v 0.035355 -0.130444 0.235179
v -0.288280 0.322310 0.378103
v -0.292326 0.316127 0.378103
v -0.291452 0.320642 0.407881
v -0.290518 0.321723 0.407881
v -0.292916 0.322355 0.407881
v -0.292159 0.319215 0.407881
v -0.293783 0.320337 0.407881
v -0.291596 0.323680 0.407881
v -0.291094 0.326172 0.410021
v -0.295596 0.319291 0.410021
v -0.292252 0.316983 0.410021
v -0.293811 0.323444 0.410021
v -0.288875 0.322143 0.410021
v -0.290796 0.319919 0.410021
v -0.290562 0.328808 0.412307
v -0.297513 0.318185 0.412307
v -0.292350 0.314621 0.412307
v -0.294757 0.324596 0.412307
v -0.287137 0.322588 0.412307
v -0.290104 0.319155 0.412307
v -0.290973 0.326770 0.414007
v -0.296031 0.319040 0.414007
v -0.292274 0.316447 0.414007
v -0.294026 0.323706 0.414007
v -0.288481 0.322244 0.414007
v -0.290639 0.319746 0.414007
v -0.291267 0.325310 0.415497
v -0.294969 0.319653 0.415497
v -0.292219 0.317755 0.415497
v -0.293502 0.323068 0.415497
v -0.289443 0.321998 0.415497
v -0.291023 0.320169 0.415497
v -0.291965 0.324345 0.416493
v -0.294711 0.320148 0.416493
v -0.292672 0.318740 0.416493
v -0.293623 0.322681 0.416493
v -0.290612 0.321888 0.416493
v -0.291784 0.320531 0.416493
v -0.047855 -0.073131 0.310179
v -0.064017 -0.040518 0.310179
v -0.026517 -0.097831 0.310179
v -0.035355 -0.130444 0.235179
v -0.244579 -0.274265 0.292702
v -0.233186 -0.287453 0.292702
v -0.253209 -0.256851 0.292702
v -0.290582 -0.319628 0.378103
v -0.288280 -0.322293 0.378103
v -0.294194 -0.323851 0.378103
v -0.292326 -0.316110 0.378103
v -0.296332 -0.318875 0.378103
v -0.290938 -0.327119 0.378103
v -0.085355 -0.054027 0.235179
v -0.254018 -0.288691 0.252657
v -0.264602 -0.264064 0.252657
v -0.065533 -0.100149 0.235179
v -0.237905 -0.304867 0.252657
v -0.133097 -0.153855 0.241296
v -0.186871 -0.216867 0.246540
v -0.118097 -0.176781 0.241296
v -0.127151 -0.167692 0.241296
v -0.178862 -0.229108 0.246540
v -0.183696 -0.224255 0.246540
v -0.178862 -0.229108 0.224275
v -0.133097 -0.153855 0.219032
v -0.183696 -0.224255 0.224275
v -0.186871 -0.216867 0.224275
v -0.118097 -0.176781 0.219032
v -0.127151 -0.167692 0.219032
v -0.159850 -0.204713 0.222305
v -0.148470 -0.186001 0.221001
v -0.161052 -0.203506 0.222305
v -0.161842 -0.201669 0.222305
v -0.144740 -0.191701 0.221001
v -0.146992 -0.189441 0.221001
v -0.144740 -0.191701 0.096947
v -0.159850 -0.204713 0.098251
v -0.146992 -0.189441 0.096947
v -0.148470 -0.186001 0.096947
v -0.161842 -0.201669 0.098251
v -0.161052 -0.203506 0.098251
v -0.145926 -0.180681 0.096621
v -0.164799 -0.206939 0.098577
v -0.165983 -0.204184 0.098577
v -0.140332 -0.189232 0.096621
v -0.143708 -0.185842 0.096621
v -0.162996 -0.208749 0.098577
v -0.162996 -0.208749 0.088954
v -0.145926 -0.180681 0.086998
v -0.165983 -0.204184 0.088954
v -0.140332 -0.189232 0.086998
v -0.143708 -0.185842 0.086998
v -0.164799 -0.206939 0.088954
v -0.291452 -0.320625 0.407881
v -0.290518 -0.321705 0.407881
v -0.292916 -0.322337 0.407881
v -0.292159 -0.319198 0.407881
v -0.293784 -0.320319 0.407881
v -0.291596 -0.323663 0.407881
v -0.291094 -0.326155 0.410021
v -0.295596 -0.319273 0.410021
v -0.292252 -0.316965 0.410021
v -0.293811 -0.323427 0.410021
v -0.288875 -0.322126 0.410021
v -0.290796 -0.319902 0.410021
v -0.290562 -0.328790 0.412307
v -0.297513 -0.318167 0.412307
v -0.292350 -0.314604 0.412307
v -0.294757 -0.324579 0.412307
v -0.287137 -0.322571 0.412307
v -0.290104 -0.319137 0.412307
v -0.290973 -0.326752 0.414007
v -0.296031 -0.319023 0.414007
v -0.292274 -0.316429 0.414007
v -0.294026 -0.323688 0.414007
v -0.288481 -0.322227 0.414007
v -0.290639 -0.319728 0.414007
v -0.291267 -0.325293 0.415497
v -0.294969 -0.319635 0.415497
v -0.292219 -0.317737 0.415497
v -0.293502 -0.323050 0.415497
v -0.289443 -0.321980 0.415497
v -0.291023 -0.320152 0.415497
v -0.291965 -0.324327 0.416493
v -0.294711 -0.320131 0.416493
v -0.292672 -0.318723 0.416493
v -0.293623 -0.322663 0.416493
v -0.290612 -0.321870 0.416493
v -0.291784 -0.320514 0.416493
v 0.026517 -0.097831 0.310179
v 0.244579 -0.274265 0.292702
v 0.233186 -0.287453 0.292702
v 0.253209 -0.256851 0.292702
v 0.290582 -0.319628 0.378103
v 0.288280 -0.322293 0.378103
v 0.294194 -0.323851 0.378103
v 0.292326 -0.316110 0.378103
v 0.296332 -0.318875 0.378103
v 0.290938 -0.327119 0.378103
v 0.254018 -0.288691 0.252657
v 0.264602 -0.264064 0.252657
v 0.237905 -0.304867 0.252657
v 0.133097 -0.153855 0.241296
v 0.186871 -0.216867 0.246540
v 0.118097 -0.176781 0.241296
v 0.127151 -0.167692 0.241296
v 0.178862 -0.229108 0.246540
v 0.183696 -0.224255 0.246540
v 0.178862 -0.229108 0.224275
v 0.133097 -0.153855 0.219032
v 0.183696 -0.224255 0.224275
v 0.186871 -0.216867 0.224275
v 0.118097 -0.176781 0.219032
v 0.127151 -0.167692 0.219032
v 0.159850 -0.204713 0.222305
v 0.148470 -0.186001 0.221001
v 0.161052 -0.203506 0.222305
v 0.161842 -0.201669 0.222305
v 0.144740 -0.191701 0.221001
v 0.146992 -0.189441 0.221001
v 0.144740 -0.191701 0.096947
v 0.159850 -0.204713 0.098251
v 0.146992 -0.189441 0.096947
v 0.148470 -0.186001 0.096947
v 0.161842 -0.201669 0.098251
v 0.161052 -0.203506 0.098251
v 0.145927 -0.180681 0.096621
v 0.164799 -0.206939 0.098577
v 0.165984 -0.204184 0.098577
v 0.140332 -0.189232 0.096621
v 0.143708 -0.185842 0.096621
v 0.162996 -0.208749 0.098577
v 0.162996 -0.208749 0.088954
v 0.145927 -0.180681 0.086998
v 0.165984 -0.204184 0.088954
v 0.140332 -0.189232 0.086998
v 0.143708 -0.185842 0.086998
v 0.164799 -0.206939 0.088954
v 0.291451 -0.320625 0.407881
v 0.290518 -0.321705 0.407881
v 0.292916 -0.322337 0.407881
v 0.292159 -0.319198 0.407881
v 0.293784 -0.320319 0.407881
v 0.291596 -0.323663 0.407881
v 0.291094 -0.326155 0.410021
v 0.295596 -0.319273 0.410021
v 0.292252 -0.316965 0.410021
v 0.293811 -0.323427 0.410021
v 0.288875 -0.322126 0.410021
v 0.290796 -0.319902 0.410021
v 0.290562 -0.328790 0.412307
v 0.297513 -0.318167 0.412307
v 0.292350 -0.314604 0.412307
v 0.294757 -0.324579 0.412307
v 0.287137 -0.322571 0.412307
v 0.290104 -0.319137 0.412307
v 0.290973 -0.326752 0.414007
v 0.296031 -0.319023 0.414007
v 0.292274 -0.316429 0.414007
v 0.294026 -0.323688 0.414007
v 0.288481 -0.322227 0.414007
v 0.290639 -0.319728 0.414007
v 0.291267 -0.325293 0.415497
v 0.294969 -0.319635 0.415497
v 0.292219 -0.317737 0.415497
v 0.293502 -0.323050 0.415497
v 0.289443 -0.321980 0.415497
v 0.291023 -0.320152 0.415497
v 0.291965 -0.324327 0.416493
v 0.294711 -0.320131 0.416493
v 0.292672 -0.318723 0.416493
v 0.293623 -0.322663 0.416493
v 0.290612 -0.321870 0.416493
v 0.291784 -0.320514 0.416493
v 0.064017 0.040535 0.310179
v 0.026516 0.097849 0.310179
v 0.035355 0.130462 0.235179
v 0.244579 0.274283 0.292702
v 0.233186 0.287471 0.292702
v 0.253209 0.256869 0.292702
v 0.290582 0.319646 0.378103
v 0.288280 0.322310 0.378103
v 0.294194 0.323869 0.378103
v 0.292326 0.316127 0.378103
v 0.296332 0.318893 0.378103
v 0.290938 0.327137 0.378103
v 0.254018 0.288709 0.252657
v 0.264602 0.264082 0.252657
v 0.065533 0.100166 0.235179
v 0.237905 0.304884 0.252657
v 0.133097 0.153873 0.241296
v 0.186871 0.216884 0.246540
v 0.118097 0.176798 0.241296
v 0.127151 0.167710 0.241296
v 0.178862 0.229125 0.246540
v 0.183696 0.224272 0.246540
v 0.178862 0.229125 0.224275
v 0.133097 0.153873 0.219032
v 0.183696 0.224272 0.224275
v 0.186871 0.216884 0.224275
v 0.118097 0.176798 0.219032
v 0.127151 0.167710 0.219032
v 0.159850 0.204730 0.222305
v 0.148470 0.186018 0.221001
v 0.161052 0.203524 0.222305
v 0.161842 0.201687 0.222305
v 0.144740 0.191719 0.221001
v 0.146992 0.189459 0.221001
v 0.144740 0.191719 0.096947
v 0.159850 0.204730 0.098251
v 0.146992 0.189459 0.096947
v 0.148470 0.186018 0.096947
v 0.161842 0.201687 0.098251
v 0.161052 0.203524 0.098251
v 0.145927 0.180699 0.096621
v 0.164799 0.206957 0.098577
v 0.165984 0.204202 0.098577
v 0.140332 0.189250 0.096621
v 0.143708 0.185860 0.096621
v 0.162996 0.208767 0.098577
v 0.162996 0.208767 0.088954
v 0.145927 0.180699 0.086998
v 0.165984 0.204202 0.088954
v 0.140332 0.189250 0.086998
v 0.143708 0.185860 0.086998
v 0.164799 0.206957 0.088954
v 0.291451 0.320642 0.407881
v 0.290518 0.321723 0.407881
v 0.292916 0.322355 0.407881
v 0.292159 0.319215 0.407881
v 0.293784 0.320337 0.407881
v 0.291596 0.323680 0.407881
v 0.291094 0.326172 0.410021
v 0.295596 0.319291 0.410021
v 0.292252 0.316983 0.410021
v 0.293811 0.323444 0.410021
v 0.288875 0.322143 0.410021
v 0.290796 0.319919 0.410021
v 0.290562 0.328808 0.412307
v 0.297513 0.318185 0.412307
v 0.292350 0.314621 0.412307
v 0.294757 0.324596 0.412307
v 0.287137 0.322588 0.412307
v 0.290104 0.319155 0.412307
v 0.290973 0.326770 0.414007
v 0.296031 0.319040 0.414007
v 0.292274 0.316447 0.414007
v 0.294026 0.323706 0.414007
v 0.288481 0.322244 0.414007
v 0.290639 0.319746 0.414007
v 0.291267 0.325310 0.415497
v 0.294969 0.319653 0.415497
v 0.292219 0.317755 0.415497
v 0.293502 0.323068 0.415497
v 0.289443 0.321998 0.415497
v 0.291023 0.320169 0.415497
v 0.291965 0.324345 0.416493
v 0.294711 0.320148 0.416493
v 0.292672 0.318740 0.416493
v 0.293623 0.322681 0.416493
v 0.290612 0.321888 0.416493
v 0.291784 0.320531 0.416493
vn -0.8496 -0.4210 -0.3176
vn -0.1883 0.8923 -0.4102
vn -0.9475 0.1284 0.2927
vn -0.9452 0.0854 -0.3151
vn -0.8496 0.4210 -0.3176
vn -0.2715 0.8576 0.4369
vn -0.9452 -0.0854 -0.3151
vn -0.6992 0.6041 -0.3824
vn -0.6992 -0.6041 -0.3824
vn -0.1883 -0.8923 -0.4102
vn -0.2715 -0.8576 0.4369
vn -0.0495 0.2346 0.9708
vn -0.2158 0.1864 0.9585
vn -0.2821 0.1398 0.9491
vn -0.3463 0.0313 0.9376
vn -0.3463 -0.0313 0.9376
vn -0.2821 -0.1398 0.9491
vn -0.2158 -0.1864 0.9585
vn -0.0495 -0.2346 0.9708
vn -0.0495 -0.2346 -0.9708
vn -0.2158 -0.1864 -0.9585
vn -0.2821 -0.1398 -0.9491
vn -0.3463 -0.0313 -0.9376
vn -0.3463 0.0313 -0.9376
vn -0.2821 0.1398 -0.9491
vn -0.2158 0.1864 -0.9585
vn -0.0495 0.2346 -0.9708
vn -0.9475 -0.1284 0.2927
vn 0.6453 0.7254 0.2394
vn -0.0588 0.0292 0.9978
vn -0.0471 0.0407 0.9981
vn -0.7531 -0.6507 0.0971
vn -0.6521 0.6496 -0.3909
vn 0.6040 -0.5218 0.6025
vn 0.7351 0.6491 0.1956
vn 0.7277 -0.3606 0.5835
vn -0.8516 0.3660 -0.3753
vn -0.7506 -0.6538 0.0958
vn -0.0508 0.0410 -0.9979
vn -0.0454 0.0452 -0.9979
vn -0.0583 0.0332 -0.9977
vn -0.0623 0.0268 -0.9977
vn -0.0474 0.0472 -0.9978
vn -0.0673 0.0289 -0.9973
vn 0.7085 -0.7057 -0.0000
vn 0.9187 -0.3949 -0.0000
vn 0.6525 0.7578 -0.0000
vn -0.7085 0.7057 -0.0000
vn -0.7607 -0.6491 -0.0000
vn -0.9187 0.3949 -0.0000
vn -0.0508 0.0409 -0.9979
vn 0.0509 -0.0409 0.9979
vn 0.0454 -0.0452 0.9979
vn 0.0584 -0.0332 0.9977
vn 0.0623 -0.0268 0.9977
vn 0.0474 -0.0472 0.9978
vn 0.0673 -0.0289 0.9973
vn -0.9187 0.3948 -0.0000
vn -0.0463 0.0462 -0.9979
vn -0.0647 0.0278 -0.9975
vn 0.8648 -0.3717 -0.3377
vn 0.1883 0.8923 -0.4102
vn 0.9452 0.0854 0.3151
vn 0.9452 0.0854 -0.3151
vn 0.9475 -0.1284 0.2927
vn 0.8496 0.4210 -0.3176
vn 0.1883 0.8923 0.4102
vn 0.9475 -0.1284 -0.2927
vn 0.6992 0.6041 -0.3824
vn 0.6600 -0.6574 -0.3636
vn 0.2715 -0.8576 -0.4369
vn 0.2715 -0.8576 0.4369
vn 0.0495 0.2346 0.9708
vn 0.2158 0.1864 0.9585
vn 0.2821 0.1398 0.9491
vn 0.3463 0.0313 0.9376
vn 0.3463 -0.0313 0.9376
vn 0.2821 -0.1398 0.9491
vn 0.2158 -0.1864 0.9585
vn 0.0495 -0.2346 0.9708
vn 0.0495 -0.2346 -0.9708
vn 0.2158 -0.1864 -0.9585
vn 0.2821 -0.1398 -0.9491
vn 0.3463 -0.0313 -0.9376
vn 0.3463 0.0313 -0.9376
vn 0.2821 0.1398 -0.9491
vn 0.2158 0.1864 -0.9585
vn 0.0495 0.2346 -0.9708
vn 0.7560 -0.6531 0.0439
vn -0.7069 0.7042 0.0661
vn -0.9171 0.3941 0.0594
vn 0.8735 0.4810 0.0751
vn -0.5659 -0.8198 0.0882
vn 0.8953 -0.4436 0.0410
vn -0.7930 0.3408 -0.5050
vn -0.4258 -0.6168 -0.6620
vn 0.6950 0.3827 -0.6087
vn 0.6894 -0.5956 -0.4122
vn 0.8248 -0.4087 -0.3906
vn -0.5925 0.5902 -0.5482
vn 0.6906 -0.5966 -0.4088
vn -0.5943 0.5920 -0.5444
vn 0.8261 -0.4093 -0.3873
vn -0.4276 -0.6195 -0.6583
vn -0.7950 0.3417 -0.5013
vn 0.6975 0.3841 -0.6049
vn 0.6859 -0.5926 0.4224
vn 0.8211 -0.4068 0.4004
vn -0.5872 0.5849 0.5595
vn -0.7869 0.3382 0.5162
vn -0.4202 -0.6087 0.6730
vn 0.6872 0.3785 0.6200
vn -0.8243 0.3543 0.4416
vn -0.4560 -0.6606 0.5964
vn 0.7360 0.4053 0.5422
vn 0.7072 -0.6110 0.3557
vn 0.8439 -0.4182 0.3361
vn -0.6205 0.6180 0.4828
vn 0.6840 -0.3389 0.6460
vn -0.6963 0.6936 0.1846
vn -0.9180 0.3945 0.0415
vn -0.4963 -0.7191 0.4864
vn 0.5946 0.3274 0.7344
vn 0.5862 -0.5065 0.6323
vn -0.0000 -0.0000 1.0000
vn 0.6453 -0.7254 0.2394
vn -0.0588 -0.0292 0.9978
vn -0.0471 -0.0407 0.9981
vn -0.7531 0.6507 0.0970
vn -0.6521 -0.6496 -0.3909
vn 0.6040 0.5218 0.6025
vn 0.7351 -0.6491 0.1956
vn 0.7277 0.3606 0.5835
vn -0.8516 -0.3660 -0.3753
vn -0.7506 0.6538 0.0958
vn -0.0508 -0.0409 -0.9979
vn -0.0454 -0.0452 -0.9979
vn -0.0583 -0.0332 -0.9977
vn -0.0623 -0.0268 -0.9977
vn -0.0474 -0.0472 -0.9978
vn -0.0673 -0.0289 -0.9973
vn 0.7085 0.7057 -0.0000
vn 0.9187 0.3949 -0.0000
vn 0.6525 -0.7578 -0.0000
vn -0.7085 -0.7057 -0.0000
vn -0.7607 0.6491 -0.0000
vn -0.9187 -0.3949 -0.0000
vn -0.0508 -0.0410 -0.9979
vn 0.0509 0.0409 0.9979
vn 0.0454 0.0452 0.9979
vn 0.0584 0.0332 0.9977
vn 0.0623 0.0268 0.9977
vn 0.0474 0.0472 0.9978
vn 0.0673 0.0289 0.9973
vn -0.9187 -0.3948 -0.0000
vn -0.0463 -0.0462 -0.9979
vn -0.0647 -0.0278 -0.9975
vn 0.7560 0.6531 0.0439
vn -0.7069 -0.7042 0.0661
vn -0.9171 -0.3942 0.0594
vn 0.8735 -0.4810 0.0751
vn -0.5659 0.8198 0.0882
vn 0.8953 0.4436 0.0410
vn -0.7930 -0.3408 -0.5050
vn -0.4258 0.6168 -0.6620
vn 0.6950 -0.3827 -0.6087
vn 0.6894 0.5956 -0.4122
vn 0.8249 0.4087 -0.3906
vn -0.5926 -0.5902 -0.5482
vn 0.6906 0.5966 -0.4088
vn -0.5943 -0.5920 -0.5444
vn 0.8261 0.4094 -0.3873
vn -0.4276 0.6195 -0.6583
vn -0.7950 -0.3417 -0.5013
vn 0.6975 -0.3841 -0.6049
vn 0.6859 0.5925 0.4225
vn 0.8210 0.4069 0.4004
vn -0.5872 -0.5849 0.5595
vn -0.7869 -0.3382 0.5162
vn -0.4202 0.6087 0.6730
vn 0.6872 -0.3785 0.6201
vn -0.8243 -0.3543 0.4415
vn -0.4560 0.6606 0.5964
vn 0.7360 -0.4053 0.5422
vn 0.7072 0.6110 0.3557
vn 0.8439 0.4182 0.3361
vn -0.6205 -0.6180 0.4828
vn 0.6839 0.3389 0.6460
vn -0.6963 -0.6936 0.1846
vn -0.9179 -0.3945 0.0416
vn -0.4964 0.7191 0.4864
vn 0.5945 -0.3274 0.7344
vn 0.5863 0.5065 0.6323
vn -0.6453 -0.7254 0.2394
vn 0.0588 -0.0292 0.9978
vn 0.0471 -0.0407 0.9981
vn 0.7531 0.6507 0.0970
vn 0.6521 -0.6496 -0.3909
vn -0.6040 0.5218 0.6025
vn -0.7351 -0.6491 0.1956
vn -0.7277 0.3606 0.5835
vn 0.8516 -0.3660 -0.3753
vn 0.7506 0.6538 0.0958
vn 0.0508 -0.0410 -0.9979
vn 0.0454 -0.0452 -0.9979
vn 0.0583 -0.0332 -0.9977
vn 0.0623 -0.0268 -0.9977
vn 0.0474 -0.0472 -0.9978
vn 0.0673 -0.0289 -0.9973
vn -0.6525 -0.7578 -0.0000
vn 0.7607 0.6491 -0.0000
vn 0.0508 -0.0409 -0.9979
vn -0.0509 0.0409 0.9979
vn -0.0454 0.0452 0.9979
vn -0.0584 0.0332 0.9977
vn -0.0623 0.0268 0.9977
vn -0.0474 0.0472 0.9978
vn -0.0673 0.0289 0.9973
vn 0.0463 -0.0462 -0.9979
vn 0.0647 -0.0278 -0.9975
vn -0.7560 0.6531 0.0439
vn 0.7069 -0.7042 0.0661
vn 0.9171 -0.3942 0.0594
vn -0.8735 -0.4810 0.0751
vn 0.5658 0.8198 0.0882
vn -0.8953 0.4436 0.0410
vn 0.7930 -0.3408 -0.5050
vn 0.4257 0.6168 -0.6620
vn -0.6950 -0.3827 -0.6087
vn -0.6894 0.5956 -0.4123
vn -0.8249 0.4087 -0.3906
vn 0.5926 -0.5902 -0.5482
vn -0.6906 0.5966 -0.4089
vn 0.5943 -0.5920 -0.5443
vn -0.8261 0.4093 -0.3873
vn 0.4276 0.6195 -0.6583
vn 0.7950 -0.3417 -0.5013
vn -0.6975 -0.3841 -0.6049
vn -0.6859 0.5926 0.4224
vn -0.8210 0.4069 0.4004
vn 0.5872 -0.5849 0.5595
vn 0.7869 -0.3382 0.5162
vn 0.4202 0.6087 0.6730
vn -0.6872 -0.3785 0.6200
vn 0.8243 -0.3543 0.4415
vn 0.4560 0.6606 0.5964
vn -0.7360 -0.4053 0.5422
vn -0.7072 0.6110 0.3557
vn -0.8439 0.4182 0.3361
vn 0.6205 -0.6180 0.4828
vn -0.6839 0.3389 0.6460
vn 0.6963 -0.6936 0.1846
vn 0.9179 -0.3945 0.0415
vn 0.4964 0.7191 0.4864
vn -0.5946 -0.3274 0.7344
vn -0.5863 0.5065 0.6323
vn -0.6453 0.7254 0.2394
vn 0.0588 0.0292 0.9978
vn 0.0471 0.0407 0.9981
vn 0.7531 -0.6507 0.0971
vn 0.6521 0.6496 -0.3909
vn -0.6040 -0.5218 0.6025
vn -0.7351 0.6491 0.1956
vn -0.7277 -0.3606 0.5835
vn 0.8516 0.3660 -0.3753
vn 0.7506 -0.6538 0.0958
vn 0.0508 0.0409 -0.9979
vn 0.0454 0.0452 -0.9979
vn 0.0583 0.0332 -0.9977
vn 0.0623 0.0268 -0.9977
vn 0.0474 0.0472 -0.9978
vn 0.0673 0.0289 -0.9973
vn -0.6525 0.7578 -0.0000
vn 0.7607 -0.6491 -0.0000
vn 0.0508 0.0410 -0.9979
vn -0.0509 -0.0409 0.9979
vn -0.0454 -0.0452 0.9979
vn -0.0584 -0.0332 0.9977
vn -0.0623 -0.0268 0.9977
vn -0.0474 -0.0472 0.9978
vn -0.0673 -0.0289 0.9973
vn 0.0463 0.0462 -0.9979
vn 0.0647 0.0278 -0.9975
vn -0.7560 -0.6531 0.0439
vn 0.7069 0.7042 0.0661
vn 0.9171 0.3942 0.0594
vn -0.8735 0.4810 0.0751
vn 0.5659 -0.8198 0.0882
vn -0.8953 -0.4436 0.0410
vn 0.7930 0.3408 -0.5050
vn 0.4257 -0.6168 -0.6620
vn -0.6950 0.3827 -0.6087
vn -0.6894 -0.5956 -0.4123
vn -0.8249 -0.4087 -0.3906
vn 0.5926 0.5902 -0.5482
vn -0.6906 -0.5966 -0.4089
vn 0.5943 0.5920 -0.5444
vn -0.8261 -0.4093 -0.3873
vn 0.4276 -0.6195 -0.6583
vn 0.7950 0.3417 -0.5013
vn -0.6975 0.3841 -0.6049
vn -0.6859 -0.5926 0.4225
vn -0.8210 -0.4068 0.4005
vn 0.5872 0.5849 0.5595
vn 0.7869 0.3382 0.5162
vn 0.4202 -0.6087 0.6730
vn -0.6872 0.3785 0.6201
vn 0.8243 0.3543 0.4415
vn 0.4560 -0.6606 0.5963
vn -0.7360 0.4054 0.5422
vn -0.7072 -0.6110 0.3557
vn -0.8439 -0.4182 0.3361
vn 0.6205 0.6180 0.4828
vn -0.6840 -0.3389 0.6460
vn 0.6963 0.6936 0.1846
vn 0.9179 0.3945 0.0415
vn 0.4964 -0.7191 0.4864
vn -0.5945 0.3274 0.7344
vn -0.5863 -0.5065 0.6323
vn -0.8648 -0.3717 -0.3377
vn -0.2715 0.8576 -0.4369
vn -0.9452 0.0854 0.3151
vn -0.9475 0.1284 -0.2927
vn -0.8648 0.3717 -0.3377
vn -0.1883 0.8923 0.4102
vn -0.9475 -0.1284 -0.2927
vn -0.6600 0.6574 -0.3637
vn -0.6600 -0.6574 -0.3636
vn -0.2715 -0.8576 -0.4369
vn -0.1883 -0.8923 0.4102
vn -0.9452 -0.0854 0.3151
vn -0.7531 -0.6507 0.0970
vn 0.8220 0.4527 0.3456
vn -0.5425 -0.7859 0.2968
vn -0.7607 -0.6492 -0.0000
vn 0.0508 -0.0410 0.9979
vn 0.0583 -0.0333 0.9977
vn 0.8496 -0.4210 -0.3176
vn 0.2715 0.8576 -0.4369
vn 0.9475 0.1284 0.2927
vn 0.9475 0.1284 -0.2927
vn 0.9452 -0.0854 0.3151
vn 0.8648 0.3717 -0.3377
vn 0.2715 0.8576 0.4369
vn 0.9452 -0.0854 -0.3151
vn 0.6600 0.6574 -0.3636
vn 0.6992 -0.6041 -0.3824
vn 0.1883 -0.8923 -0.4102
vn 0.1883 -0.8923 0.4102
vn -0.9171 0.3942 0.0594
vn -0.4257 -0.6168 -0.6620
vn 0.8249 -0.4087 -0.3906
vn 0.8261 -0.4094 -0.3873
vn 0.6872 0.3785 0.6201
vn -0.8243 0.3543 0.4415
vn 0.6839 -0.3389 0.6460
vn -0.9179 0.3945 0.0416
vn -0.4964 -0.7191 0.4864
vn 0.5945 0.3274 0.7344
vn 0.5863 -0.5065 0.6323
vn 0.8220 -0.4527 0.3456
vn -0.5425 0.7859 0.2968
vn 0.0508 0.0410 0.9979
vn 0.0583 0.0333 0.9977
vn -0.4257 0.6168 -0.6620
vn 0.6894 0.5956 -0.4123
vn 0.8249 0.4087 -0.3905
vn 0.6859 0.5925 0.4224
vn 0.8211 0.4069 0.4004
vn 0.6872 -0.3785 0.6200
vn 0.8439 0.4182 0.3360
vn -0.6205 -0.6180 0.4827
vn 0.6839 0.3389 0.6461
vn -0.9179 -0.3945 0.0415
vn 0.5946 -0.3274 0.7344
vn 0.5862 0.5065 0.6323
vn -0.8220 -0.4527 0.3456
vn 0.5425 0.7859 0.2968
vn -0.0508 0.0410 0.9979
vn -0.0583 0.0333 0.9977
vn 0.5659 0.8198 0.0882
vn -0.6894 0.5956 -0.4122
vn -0.8249 0.4087 -0.3905
vn 0.5943 -0.5920 -0.5444
vn -0.8261 0.4094 -0.3873
vn -0.6859 0.5926 0.4225
vn -0.8210 0.4068 0.4005
vn -0.6872 -0.3785 0.6201
vn -0.7360 -0.4054 0.5422
vn 0.9179 -0.3945 0.0416
vn -0.5945 -0.3274 0.7344
vn 0.7531 -0.6507 0.0970
vn -0.8220 0.4527 0.3456
vn 0.5425 -0.7859 0.2968
vn 0.7607 -0.6492 -0.0000
vn -0.0508 -0.0410 0.9979
vn -0.0583 -0.0333 0.9977
vn 0.7070 0.7042 0.0661
vn 0.5658 -0.8198 0.0882
vn -0.6894 -0.5956 -0.4122
vn 0.5943 0.5920 -0.5443
vn -0.6859 -0.5926 0.4224
vn -0.8211 -0.4068 0.4004
vn -0.6872 0.3785 0.6200
vn 0.4560 -0.6606 0.5964
vn -0.7360 0.4053 0.5422
vn -0.5862 -0.5065 0.6323
vt 0.863071 0.344443
vt 0.862404 0.378857
vt 0.526992 0.114114
vt 0.528383 0.095374
vt 0.863969 0.281128
vt 0.861654 0.393886
vt 0.526591 0.111327
vt 0.859851 0.404804
vt 0.860758 0.360319
vt 0.862374 0.320466
vt 0.527721 0.098832
vt 0.526518 0.106618
vt 0.860737 0.402007
vt 0.527721 0.114404
vt 0.862896 0.329704
vt 0.862961 0.361658
vt 0.864863 0.406554
vt 0.525273 0.106618
vt 0.527402 0.115478
vt 0.858998 0.449584
vt 0.528252 0.120693
vt 0.526240 0.147641
vt 0.526610 0.147789
vt 0.525849 0.146860
vt 0.526243 0.164645
vt 0.526751 0.165359
vt 0.526974 0.165700
vt 0.525936 0.164592
vt 0.526564 0.164898
vt 0.529511 0.122521
vt 0.863019 0.435854
vt 0.525335 0.113339
vt 0.527591 0.148657
vt 0.525127 0.146205
vt 0.528015 0.148782
vt 0.860911 0.449985
vt 0.528823 0.122541
vt 0.527266 0.147712
vt 0.528533 0.131736
vt 0.528154 0.138769
vt 0.528145 0.131123
vt 0.528328 0.131345
vt 0.527892 0.138285
vt 0.528015 0.138683
vt 0.528045 0.137653
vt 0.528392 0.132209
vt 0.528057 0.137666
vt 0.528081 0.137614
vt 0.528242 0.132128
vt 0.528308 0.132351
vt 0.528157 0.135257
vt 0.528210 0.134493
vt 0.528160 0.135262
vt 0.528169 0.135194
vt 0.528178 0.134500
vt 0.528193 0.134510
vt 0.528196 0.134440
vt 0.528200 0.134463
vt 0.528194 0.134438
vt 0.528193 0.134432
vt 0.528193 0.134442
vt 0.528196 0.134448
vt 0.528194 0.134432
vt 0.528196 0.134458
vt 0.528194 0.134453
vt 0.528195 0.134435
vt 0.528194 0.134434
vt 0.528197 0.134464
vt 0.528196 0.134457
vt 0.528194 0.134432
vt 0.528195 0.134453
vt 0.528195 0.134434
vt 0.528195 0.134433
vt 0.528195 0.134455
vt 0.860779 0.318631
vt 0.527986 0.106618
vt 0.858445 0.376195
vt 0.528016 0.110840
vt 0.859142 0.400172
vt 0.861665 0.315833
vt 0.859862 0.326752
vt 0.858555 0.358980
vt 0.527399 0.106618
vt 0.528522 0.095064
vt 0.858497 0.284784
vt 0.528253 0.106049
vt 0.528016 0.102396
vt 0.859112 0.341781
vt 0.528031 0.104507
vt 0.528184 0.106618
vt 0.856653 0.314084
vt 0.858620 0.390934
vt 0.857547 0.439510
vt 0.528383 0.117862
vt 0.855709 0.353534
vt 0.528253 0.107187
vt 0.528522 0.118172
vt 0.860605 0.270653
vt 0.528483 0.096528
vt 0.862518 0.271054
vt 0.528383 0.097677
vt 0.526367 0.164667
vt 0.526103 0.164460
vt 0.526180 0.179162
vt 0.526241 0.179242
vt 0.526431 0.179508
vt 0.526107 0.179211
vt 0.526006 0.179227
vt 0.526539 0.179745
vt 0.526341 0.179423
vt 0.526316 0.180266
vt 0.526011 0.180069
vt 0.526522 0.180772
vt 0.526120 0.179965
vt 0.526394 0.180111
vt 0.526247 0.179809
vt 0.526182 0.179665
vt 0.526305 0.180935
vt 0.526477 0.181558
vt 0.526040 0.180758
vt 0.526139 0.180313
vt 0.526354 0.180491
vt 0.526251 0.180121
vt 0.526192 0.180101
vt 0.526299 0.180716
vt 0.526381 0.181603
vt 0.526105 0.181088
vt 0.526157 0.180501
vt 0.526326 0.180730
vt 0.526248 0.180315
vt 0.526208 0.180366
vt 0.526289 0.180679
vt 0.526298 0.181487
vt 0.526177 0.181237
vt 0.526183 0.180677
vt 0.526297 0.180836
vt 0.526248 0.180476
vt 0.526222 0.180567
vt 0.526282 0.180710
vt 0.526238 0.181233
vt 0.526202 0.180827
vt 0.526277 0.180884
vt 0.526249 0.180612
vt 0.526232 0.180729
vt 0.526992 0.099122
vt 0.526591 0.101909
vt 0.527402 0.097758
vt 0.865071 0.299795
vt 0.528252 0.092544
vt 0.526240 0.065595
vt 0.526610 0.065447
vt 0.525849 0.066376
vt 0.526243 0.048591
vt 0.526367 0.048569
vt 0.526751 0.047877
vt 0.526103 0.048776
vt 0.526974 0.047536
vt 0.525936 0.048644
vt 0.526564 0.048338
vt 0.865807 0.367104
vt 0.525335 0.099897
vt 0.529511 0.090715
vt 0.527591 0.064579
vt 0.525127 0.067031
vt 0.528015 0.064454
vt 0.865807 0.329229
vt 0.528823 0.090695
vt 0.527266 0.065524
vt 0.528533 0.081500
vt 0.528154 0.074467
vt 0.528145 0.082113
vt 0.528328 0.081891
vt 0.527892 0.074951
vt 0.528015 0.074553
vt 0.528045 0.075583
vt 0.528392 0.081027
vt 0.528057 0.075570
vt 0.528082 0.075622
vt 0.528242 0.081108
vt 0.528308 0.080886
vt 0.528157 0.077979
vt 0.528210 0.078743
vt 0.528160 0.077974
vt 0.528169 0.078043
vt 0.528178 0.078736
vt 0.528193 0.078726
vt 0.528196 0.078798
vt 0.528197 0.078789
vt 0.528195 0.078799
vt 0.528193 0.078805
vt 0.528189 0.078801
vt 0.528193 0.078799
vt 0.528194 0.078805
vt 0.528194 0.078785
vt 0.528193 0.078786
vt 0.528195 0.078803
vt 0.528195 0.078803
vt 0.528196 0.078781
vt 0.528195 0.078785
vt 0.528195 0.078805
vt 0.528193 0.078787
vt 0.528195 0.078804
vt 0.528195 0.078804
vt 0.528194 0.078785
vt 0.526180 0.034074
vt 0.526242 0.033994
vt 0.526431 0.033728
vt 0.526107 0.034025
vt 0.526006 0.034010
vt 0.526539 0.033491
vt 0.526341 0.033814
vt 0.526316 0.032970
vt 0.526011 0.033167
vt 0.526522 0.032465
vt 0.526120 0.033271
vt 0.526394 0.033125
vt 0.526247 0.033427
vt 0.526182 0.033572
vt 0.526305 0.032302
vt 0.526477 0.031678
vt 0.526040 0.032478
vt 0.526139 0.032923
vt 0.526354 0.032746
vt 0.526251 0.033116
vt 0.526192 0.033136
vt 0.526299 0.032520
vt 0.526381 0.031634
vt 0.526105 0.032149
vt 0.526157 0.032735
vt 0.526326 0.032507
vt 0.526248 0.032921
vt 0.526208 0.032870
vt 0.526289 0.032558
vt 0.526298 0.031749
vt 0.526177 0.031999
vt 0.526183 0.032559
vt 0.526297 0.032400
vt 0.526248 0.032760
vt 0.526222 0.032670
vt 0.526282 0.032526
vt 0.526238 0.032003
vt 0.526202 0.032409
vt 0.526277 0.032352
vt 0.526249 0.032624
vt 0.526232 0.032508
vt 0.527975 0.100294
vt 0.529319 0.102258
vt 0.529326 0.101813
vt 0.529298 0.102770
vt 0.529633 0.102188
vt 0.529636 0.102194
vt 0.529654 0.102144
vt 0.529629 0.102185
vt 0.529629 0.102165
vt 0.529645 0.102192
vt 0.529385 0.100299
vt 0.529332 0.103833
vt 0.529410 0.099649
vt 0.529354 0.100782
vt 0.528814 0.097600
vt 0.529057 0.098739
vt 0.528773 0.098380
vt 0.528790 0.098008
vt 0.529030 0.099212
vt 0.529050 0.099003
vt 0.529013 0.098882
vt 0.528825 0.097916
vt 0.529013 0.098866
vt 0.529012 0.098820
vt 0.528815 0.098224
vt 0.528826 0.098097
vt 0.528928 0.098545
vt 0.528902 0.098402
vt 0.528928 0.098541
vt 0.528926 0.098520
vt 0.528901 0.098468
vt 0.528902 0.098438
vt 0.528899 0.098426
vt 0.528899 0.098426
vt 0.528899 0.098429
vt 0.528898 0.098432
vt 0.528898 0.098441
vt 0.528899 0.098433
vt 0.528899 0.098429
vt 0.528899 0.098431
vt 0.528899 0.098434
vt 0.528899 0.098428
vt 0.528899 0.098429
vt 0.528899 0.098429
vt 0.528899 0.098429
vt 0.528899 0.098429
vt 0.528899 0.098432
vt 0.528899 0.098428
vt 0.528899 0.098429
vt 0.528899 0.098430
vt 0.529650 0.102457
vt 0.529651 0.102457
vt 0.529656 0.102459
vt 0.529648 0.102461
vt 0.529659 0.102465
vt 0.529654 0.102459
vt 0.529654 0.102471
vt 0.529658 0.102490
vt 0.529649 0.102476
vt 0.529655 0.102472
vt 0.529652 0.102467
vt 0.529650 0.102467
vt 0.529653 0.102475
vt 0.529648 0.102496
vt 0.529649 0.102482
vt 0.529654 0.102479
vt 0.529652 0.102473
vt 0.529651 0.102476
vt 0.529653 0.102478
vt 0.529649 0.102500
vt 0.529650 0.102485
vt 0.529654 0.102484
vt 0.529652 0.102477
vt 0.529651 0.102480
vt 0.529653 0.102481
vt 0.529651 0.102500
vt 0.529651 0.102488
vt 0.529653 0.102487
vt 0.529652 0.102480
vt 0.529651 0.102484
vt 0.529653 0.102483
vt 0.529652 0.102498
vt 0.529651 0.102490
vt 0.529653 0.102488
vt 0.529652 0.102483
vt 0.529652 0.102487
vt 0.528031 0.108729
vt 0.527975 0.112942
vt 0.856446 0.420843
vt 0.528383 0.115559
vt 0.529319 0.110978
vt 0.529326 0.111423
vt 0.529298 0.110467
vt 0.529633 0.111048
vt 0.529636 0.111042
vt 0.529654 0.111092
vt 0.529629 0.111052
vt 0.529629 0.111071
vt 0.529645 0.111044
vt 0.529385 0.112937
vt 0.529332 0.109403
vt 0.529410 0.113588
vt 0.855709 0.391409
vt 0.528483 0.116708
vt 0.529354 0.112454
vt 0.528814 0.115636
vt 0.529057 0.114497
vt 0.528773 0.114856
vt 0.528790 0.115228
vt 0.529030 0.114025
vt 0.529050 0.114234
vt 0.529013 0.114354
vt 0.528825 0.115320
vt 0.529013 0.114370
vt 0.529012 0.114416
vt 0.528815 0.115012
vt 0.528826 0.115139
vt 0.528928 0.114691
vt 0.528902 0.114834
vt 0.528928 0.114695
vt 0.528926 0.114717
vt 0.528901 0.114768
vt 0.528902 0.114798
vt 0.528899 0.114810
vt 0.528899 0.114811
vt 0.528899 0.114807
vt 0.528898 0.114805
vt 0.528898 0.114795
vt 0.528899 0.114803
vt 0.528898 0.114807
vt 0.528899 0.114805
vt 0.528899 0.114802
vt 0.528899 0.114808
vt 0.528899 0.114807
vt 0.528899 0.114810
vt 0.528899 0.114807
vt 0.528898 0.114807
vt 0.528899 0.114804
vt 0.528899 0.114808
vt 0.528899 0.114807
vt 0.528899 0.114805
vt 0.529650 0.110780
vt 0.529651 0.110779
vt 0.529656 0.110777
vt 0.529648 0.110775
vt 0.529659 0.110771
vt 0.529654 0.110778
vt 0.529654 0.110765
vt 0.529658 0.110746
vt 0.529649 0.110760
vt 0.529655 0.110765
vt 0.529652 0.110769
vt 0.529650 0.110769
vt 0.529653 0.110761
vt 0.529648 0.110740
vt 0.529649 0.110754
vt 0.529654 0.110757
vt 0.529652 0.110763
vt 0.529651 0.110761
vt 0.529653 0.110759
vt 0.529649 0.110737
vt 0.529650 0.110751
vt 0.529654 0.110752
vt 0.529652 0.110759
vt 0.529651 0.110756
vt 0.529653 0.110756
vt 0.529651 0.110736
vt 0.529651 0.110748
vt 0.529653 0.110749
vt 0.529652 0.110756
vt 0.529651 0.110752
vt 0.529653 0.110753
vt 0.529652 0.110738
vt 0.529651 0.110746
vt 0.529653 0.110748
vt 0.529652 0.110753
vt 0.529652 0.110749
s 0
usemtl drone
f 1/1/1 137/160/1 15/16/1
f 18/20/2 71/79/2 7/8/2
f 16/18/3 6/7/3 26/32/3
f 16/17/4 5/6/4 2/2/4
f 26/31/5 12/13/5 5/6/5
f 18/21/6 13/14/6 82/94/6
f 15/16/7 16/17/7 2/2/7
f 29/36/8 7/8/8 12/13/8
f 14/15/9 140/166/9 1/1/9
f 9/10/10 127/148/10 14/15/10
f 10/11/11 127/149/11 4/4/11
f 13/14/12 17/19/12 75/83/12
f 17/19/13 3/3/13 75/83/13
f 3/3/14 6/7/14 75/83/14
f 6/7/15 11/12/15 75/83/15
f 11/12/16 125/146/16 75/83/16
f 125/146/17 124/145/17 75/83/17
f 124/145/18 126/147/18 75/83/18
f 126/147/19 10/11/19 75/83/19
f 9/10/20 14/15/20 8/9/20
f 14/15/21 1/1/21 8/9/21
f 1/1/22 15/16/22 8/9/22
f 15/16/23 2/2/23 8/9/23
f 2/2/24 5/6/24 8/9/24
f 5/6/25 12/13/25 8/9/25
f 12/13/26 7/8/26 8/9/26
f 7/8/27 71/79/27 8/9/27
f 125/146/28 16/18/28 137/161/28
f 18/21/29 20/23/29 17/19/29
f 3/3/30 21/24/30 6/7/30
f 17/19/31 19/22/31 3/3/31
f 21/24/32 26/32/32 6/7/32
f 27/33/33 25/29/33 30/38/33
f 86/102/34 19/22/34 20/23/34
f 25/29/35 20/23/35 30/38/35
f 19/22/36 87/103/36 21/24/36
f 24/27/37 27/33/37 28/35/37
f 21/24/38 24/28/38 28/34/38
f 18/21/39 35/43/39 30/38/39
f 35/43/40 27/33/40 30/38/40
f 28/35/41 31/39/41 26/30/41
f 36/44/42 28/35/42 27/33/42
f 29/37/43 33/41/43 18/21/43
f 31/39/44 29/37/44 26/30/44
f 42/50/45 33/41/45 34/42/45
f 38/46/46 34/42/46 31/39/46
f 33/41/47 37/45/47 35/43/47
f 37/45/48 36/44/48 35/43/48
f 40/48/49 31/39/49 32/40/49
f 39/47/50 32/40/50 36/44/50
f 42/50/43 47/55/43 41/49/43
f 44/52/44 42/50/44 38/46/44
f 41/49/51 43/51/51 37/45/51
f 43/51/40 39/47/40 37/45/40
f 40/48/41 44/52/41 38/46/41
f 45/53/42 40/48/42 39/47/42
f 50/58/48 45/53/48 43/51/48
f 53/61/49 44/52/49 46/54/49
f 54/62/50 46/54/50 45/53/50
f 51/59/45 47/55/45 48/56/45
f 52/60/46 48/56/46 44/52/46
f 47/55/47 50/58/47 43/51/47
f 58/66/52 50/58/52 49/57/52
f 50/58/53 56/64/53 54/62/53
f 57/65/54 52/60/54 53/61/54
f 54/62/55 57/65/55 53/61/55
f 59/67/56 49/57/56 51/59/56
f 52/60/57 59/67/57 51/59/57
f 65/73/45 58/66/45 59/67/45
f 62/70/46 59/67/46 55/63/46
f 58/66/47 61/69/47 60/68/47
f 61/69/48 56/64/48 60/68/48
f 63/71/49 55/63/49 57/65/49
f 66/74/58 57/65/58 56/64/58
f 61/69/59 64/72/59 65/73/59
f 62/70/60 63/71/60 65/73/60
f 63/71/60 66/74/60 65/73/60
f 66/74/59 61/69/59 65/73/59
f 67/75/61 76/85/61 84/98/61
f 71/79/62 301/334/62 81/92/62
f 80/90/63 299/332/63 68/76/63
f 74/82/64 80/91/64 78/88/64
f 80/90/65 79/89/65 76/86/65
f 69/77/66 83/95/66 74/82/66
f 301/335/67 13/14/67 300/333/67
f 73/81/68 80/91/68 76/85/68
f 81/92/69 313/348/69 69/77/69
f 72/80/70 84/98/70 85/100/70
f 9/10/71 85/100/71 4/5/71
f 85/101/72 10/11/72 4/4/72
f 13/14/73 75/83/73 300/333/73
f 300/333/74 75/83/74 70/78/74
f 70/78/75 75/83/75 299/332/75
f 299/332/76 75/83/76 68/76/76
f 68/76/77 75/83/77 79/89/77
f 79/89/78 75/83/78 77/87/78
f 77/87/79 75/83/79 214/246/79
f 214/246/80 75/83/80 10/11/80
f 9/10/81 8/9/81 72/80/81
f 72/80/82 8/9/82 67/75/82
f 67/75/83 8/9/83 73/81/83
f 73/81/84 8/9/84 78/88/84
f 78/88/85 8/9/85 74/82/85
f 74/82/86 8/9/86 69/77/86
f 69/77/87 8/9/87 81/92/87
f 81/92/88 8/9/88 71/79/88
f 22/25/89 89/105/89 88/104/89
f 23/26/90 93/110/90 25/29/90
f 23/26/91 92/109/91 90/106/91
f 86/102/92 93/110/92 89/105/92
f 24/28/93 91/107/93 92/108/93
f 22/25/94 91/107/94 87/103/94
f 92/109/95 97/115/95 90/106/95
f 91/107/96 95/112/96 92/108/96
f 93/110/97 98/116/97 89/105/97
f 89/105/98 99/117/98 88/104/98
f 91/107/99 99/117/99 96/114/99
f 93/110/100 97/115/100 94/111/100
f 98/116/101 105/124/101 99/117/101
f 94/111/102 103/122/102 100/118/102
f 96/114/103 105/124/103 102/121/103
f 96/114/104 101/120/104 95/112/104
f 95/113/105 103/122/105 97/115/105
f 94/111/106 104/123/106 98/116/106
f 105/124/107 110/130/107 111/131/107
f 105/124/108 108/128/108 102/121/108
f 103/122/109 106/125/109 100/118/109
f 103/122/110 107/126/110 109/129/110
f 101/120/111 108/128/111 107/127/111
f 104/123/112 106/125/112 110/130/112
f 109/129/113 113/133/113 115/136/113
f 107/127/114 114/135/114 113/134/114
f 110/130/115 112/132/115 116/137/115
f 111/131/116 116/137/116 117/138/116
f 111/131/117 114/135/117 108/128/117
f 109/129/118 112/132/118 106/125/118
f 117/138/119 120/141/119 114/135/119
f 115/136/120 118/139/120 112/132/120
f 115/136/121 119/140/121 121/142/121
f 113/134/122 120/141/122 119/140/122
f 116/137/123 118/139/123 122/143/123
f 117/138/124 122/143/124 123/144/124
f 119/140/125 123/144/125 121/142/125
f 121/142/125 122/143/125 118/139/125
f 127/149/126 129/151/126 141/168/126
f 124/145/127 130/152/127 128/150/127
f 126/147/128 128/150/128 129/151/128
f 137/161/129 130/152/129 125/146/129
f 138/163/130 136/159/130 133/155/130
f 128/150/131 132/154/131 129/151/131
f 129/151/132 136/159/132 141/168/132
f 128/150/133 134/156/133 131/153/133
f 138/163/134 135/157/134 139/165/134
f 135/158/135 130/152/135 139/164/135
f 127/149/136 146/173/136 144/171/136
f 138/163/137 146/173/137 141/168/137
f 139/165/138 142/169/138 143/170/138
f 139/165/139 147/174/139 138/163/139
f 140/167/140 144/171/140 145/172/140
f 140/167/141 142/169/141 137/162/141
f 144/171/142 153/180/142 145/172/142
f 145/172/143 149/176/143 142/169/143
f 144/171/144 148/175/144 152/179/144
f 147/174/145 148/175/145 146/173/145
f 142/169/146 151/178/146 143/170/146
f 143/170/147 150/177/147 147/174/147
f 153/180/140 158/185/140 159/186/140
f 153/180/141 155/182/141 149/176/141
f 152/179/148 154/181/148 158/185/148
f 150/177/137 154/181/137 148/175/137
f 151/178/138 155/182/138 157/184/138
f 151/178/139 156/183/139 150/177/139
f 156/183/145 161/188/145 154/181/145
f 155/182/146 164/191/146 157/184/146
f 157/184/147 165/192/147 156/183/147
f 158/185/142 162/189/142 159/186/142
f 159/186/143 163/190/143 155/182/143
f 158/185/144 161/188/144 160/187/144
f 161/188/149 169/196/149 160/187/149
f 161/188/150 167/194/150 171/198/150
f 163/190/151 168/195/151 164/191/151
f 165/192/152 168/195/152 167/194/152
f 160/187/153 170/197/153 162/189/153
f 163/190/154 170/197/154 166/193/154
f 169/196/142 176/203/142 170/197/142
f 170/197/143 173/200/143 166/193/143
f 169/196/144 172/199/144 175/202/144
f 167/194/145 172/199/145 171/198/145
f 166/193/146 174/201/146 168/195/146
f 168/195/155 177/204/155 167/194/155
f 172/199/156 176/203/156 175/202/156
f 173/200/157 176/203/157 174/201/157
f 174/201/157 176/203/157 177/204/157
f 177/204/156 176/203/156 172/199/156
f 131/153/158 179/206/158 132/154/158
f 183/211/159 133/155/159 136/159/159
f 133/155/160 182/210/160 135/157/160
f 132/154/161 183/211/161 136/159/161
f 135/158/162 181/208/162 134/156/162
f 181/208/163 131/153/163 134/156/163
f 187/216/164 182/210/164 180/207/164
f 185/213/165 181/208/165 182/209/165
f 188/217/166 183/211/166 179/206/166
f 189/218/167 179/206/167 178/205/167
f 181/208/168 189/218/168 178/205/168
f 183/211/169 187/216/169 180/207/169
f 195/225/170 188/217/170 189/218/170
f 184/212/171 193/223/171 187/216/171
f 186/215/172 195/225/172 189/218/172
f 191/221/173 186/215/173 185/213/173
f 193/223/174 185/214/174 187/216/174
f 194/224/175 184/212/175 188/217/175
f 195/225/176 200/231/176 194/224/176
f 198/229/177 195/225/177 192/222/177
f 196/226/178 193/223/178 190/219/178
f 193/223/179 197/227/179 191/220/179
f 191/221/180 198/229/180 192/222/180
f 194/224/181 196/226/181 190/219/181
f 199/230/182 203/234/182 197/227/182
f 197/228/183 204/236/183 198/229/183
f 200/231/184 202/233/184 196/226/184
f 201/232/185 206/238/185 200/231/185
f 204/236/186 201/232/186 198/229/186
f 202/233/187 199/230/187 196/226/187
f 210/242/188 207/239/188 204/236/188
f 208/240/189 205/237/189 202/233/189
f 205/237/190 209/241/190 203/234/190
f 203/235/191 210/242/191 204/236/191
f 206/238/192 208/240/192 202/233/192
f 207/239/193 212/244/193 206/238/193
f 213/245/125 209/241/125 211/243/125
f 212/244/125 211/243/125 208/240/125
f 85/101/194 216/248/194 214/246/194
f 77/87/195 217/249/195 79/89/195
f 214/246/196 215/247/196 77/87/196
f 217/249/197 76/86/197 79/89/197
f 224/256/198 223/255/198 226/259/198
f 219/251/199 215/247/199 216/248/199
f 223/255/200 216/248/200 226/259/200
f 215/247/201 221/253/201 217/249/201
f 222/254/202 224/256/202 225/258/202
f 217/249/203 222/254/203 225/257/203
f 85/101/204 231/264/204 226/259/204
f 231/264/205 224/256/205 226/259/205
f 225/258/206 227/260/206 76/84/206
f 232/265/207 225/258/207 224/256/207
f 84/99/208 229/262/208 85/101/208
f 227/260/209 84/99/209 76/84/209
f 238/271/48 229/262/48 230/263/48
f 234/267/50 230/263/50 227/260/50
f 229/262/210 233/266/210 231/264/210
f 233/266/45 232/265/45 231/264/45
f 236/269/211 227/260/211 228/261/211
f 235/268/46 228/261/46 232/265/46
f 238/271/208 243/276/208 237/270/208
f 240/273/209 238/271/209 234/267/209
f 237/270/212 239/272/212 233/266/212
f 239/272/205 235/268/205 233/266/205
f 236/269/206 240/273/206 234/267/206
f 241/274/207 236/269/207 235/268/207
f 246/279/45 241/274/45 239/272/45
f 249/282/211 240/273/211 242/275/211
f 250/283/46 242/275/46 241/274/46
f 247/280/48 243/276/48 244/277/48
f 248/281/50 244/277/50 240/273/50
f 243/276/210 246/279/210 239/272/210
f 254/287/213 246/279/213 245/278/213
f 246/279/214 252/285/214 250/283/214
f 253/286/215 248/281/215 249/282/215
f 250/283/216 253/286/216 249/282/216
f 255/288/217 245/278/217 247/280/217
f 248/281/218 255/288/218 247/280/218
f 261/294/48 254/287/48 255/288/48
f 258/291/50 255/288/50 251/284/50
f 254/287/210 257/290/210 256/289/210
f 257/290/45 252/285/45 256/289/45
f 259/292/211 251/284/211 253/286/211
f 262/295/46 253/286/46 252/285/46
f 257/290/219 260/293/219 261/294/219
f 258/291/220 259/292/220 261/294/220
f 259/292/220 262/295/220 261/294/220
f 262/295/219 257/290/219 261/294/219
f 218/250/221 264/297/221 263/296/221
f 220/252/222 268/301/222 223/255/222
f 220/252/223 267/300/223 265/298/223
f 219/251/224 268/301/224 264/297/224
f 222/254/225 266/299/225 267/300/225
f 218/250/226 266/299/226 221/253/226
f 267/300/227 272/305/227 265/298/227
f 266/299/228 270/303/228 267/300/228
f 268/301/229 273/306/229 264/297/229
f 264/297/230 274/307/230 263/296/230
f 266/299/231 274/307/231 271/304/231
f 268/301/232 272/305/232 269/302/232
f 273/306/233 280/313/233 274/307/233
f 269/302/234 278/311/234 275/308/234
f 271/304/235 280/313/235 277/310/235
f 271/304/236 276/309/236 270/303/236
f 270/303/237 278/311/237 272/305/237
f 269/302/238 279/312/238 273/306/238
f 280/313/239 285/318/239 286/319/239
f 280/313/240 283/316/240 277/310/240
f 278/311/241 281/314/241 275/308/241
f 278/311/242 282/315/242 284/317/242
f 276/309/243 283/316/243 282/315/243
f 279/312/244 281/314/244 285/318/244
f 284/317/245 288/321/245 290/323/245
f 282/315/246 289/322/246 288/321/246
f 285/318/247 287/320/247 291/324/247
f 286/319/248 291/324/248 292/325/248
f 286/319/249 289/322/249 283/316/249
f 284/317/250 287/320/250 281/314/250
f 292/325/251 295/328/251 289/322/251
f 290/323/252 293/326/252 287/320/252
f 290/323/253 294/327/253 296/329/253
f 288/321/254 295/328/254 294/327/254
f 291/324/255 293/326/255 297/330/255
f 292/325/256 297/330/256 298/331/256
f 294/327/125 298/331/125 296/329/125
f 296/329/125 297/330/125 293/326/125
f 301/335/257 303/337/257 314/350/257
f 70/78/258 304/338/258 302/336/258
f 300/333/259 302/336/259 303/337/259
f 83/96/260 304/338/260 299/332/260
f 311/345/261 310/344/261 307/341/261
f 302/336/262 306/340/262 303/337/262
f 303/337/263 310/344/263 314/350/263
f 302/336/264 308/342/264 305/339/264
f 311/345/265 309/343/265 312/347/265
f 309/343/266 304/338/266 312/346/266
f 301/335/267 319/355/267 317/353/267
f 311/345/268 319/355/268 314/350/268
f 312/347/269 315/351/269 316/352/269
f 312/347/270 320/356/270 311/345/270
f 313/349/271 317/353/271 318/354/271
f 313/349/272 315/351/272 83/97/272
f 317/353/145 326/362/145 318/354/145
f 318/354/147 322/358/147 315/351/147
f 317/353/273 321/357/273 325/361/273
f 320/356/142 321/357/142 319/355/142
f 315/351/274 324/360/274 316/352/274
f 316/352/143 323/359/143 320/356/143
f 326/362/271 331/367/271 332/368/271
f 326/362/272 328/364/272 322/358/272
f 325/361/275 327/363/275 331/367/275
f 323/359/268 327/363/268 321/357/268
f 324/360/269 328/364/269 330/366/269
f 324/360/270 329/365/270 323/359/270
f 329/365/142 334/370/142 327/363/142
f 328/364/274 337/373/274 330/366/274
f 330/366/143 338/374/143 329/365/143
f 331/367/145 335/371/145 332/368/145
f 332/368/147 336/372/147 328/364/147
f 331/367/273 334/370/273 333/369/273
f 334/370/276 342/378/276 333/369/276
f 334/370/277 340/376/277 344/380/277
f 336/372/278 341/377/278 337/373/278
f 338/374/279 341/377/279 340/376/279
f 333/369/280 343/379/280 335/371/280
f 336/372/281 343/379/281 339/375/281
f 342/378/145 349/385/145 343/379/145
f 343/379/147 346/382/147 339/375/147
f 342/378/273 345/381/273 348/384/273
f 340/376/142 345/381/142 344/380/142
f 339/375/274 347/383/274 341/377/274
f 341/377/143 350/386/143 340/376/143
f 345/381/282 349/385/282 348/384/282
f 346/382/283 349/385/283 347/383/283
f 347/383/283 349/385/283 350/386/283
f 350/386/282 349/385/282 345/381/282
f 305/339/284 352/388/284 306/340/284
f 356/392/285 307/341/285 310/344/285
f 307/341/286 355/391/286 309/343/286
f 306/340/287 356/392/287 310/344/287
f 309/343/288 354/390/288 308/342/288
f 354/390/289 305/339/289 308/342/289
f 360/396/290 355/391/290 353/389/290
f 358/394/291 354/390/291 355/391/291
f 361/397/292 356/392/292 352/388/292
f 362/398/293 352/388/293 351/387/293
f 354/390/294 362/398/294 351/387/294
f 356/392/295 360/396/295 353/389/295
f 368/404/296 361/397/296 362/398/296
f 357/393/297 366/402/297 360/396/297
f 359/395/298 368/404/298 362/398/298
f 364/400/299 359/395/299 358/394/299
f 366/402/300 358/394/300 360/396/300
f 367/403/301 357/393/301 361/397/301
f 368/404/302 373/409/302 367/403/302
f 371/407/303 368/404/303 365/401/303
f 369/405/304 366/402/304 363/399/304
f 366/402/305 370/406/305 364/400/305
f 364/400/306 371/407/306 365/401/306
f 367/403/307 369/405/307 363/399/307
f 372/408/308 376/412/308 370/406/308
f 370/406/309 377/413/309 371/407/309
f 373/409/310 375/411/310 369/405/310
f 374/410/311 379/415/311 373/409/311
f 377/413/312 374/410/312 371/407/312
f 375/411/313 372/408/313 369/405/313
f 383/419/314 380/416/314 377/413/314
f 381/417/315 378/414/315 375/411/315
f 378/414/316 382/418/316 376/412/316
f 376/412/317 383/419/317 377/413/317
f 379/415/318 381/417/318 375/411/318
f 380/416/319 385/421/319 379/415/319
f 386/422/125 382/418/125 384/420/125
f 385/421/125 384/420/125 381/417/125
f 1/1/320 140/166/320 137/160/320
f 18/20/321 82/93/321 71/79/321
f 16/18/322 11/12/322 6/7/322
f 16/17/323 26/31/323 5/6/323
f 26/31/324 29/36/324 12/13/324
f 18/21/325 17/19/325 13/14/325
f 15/16/326 137/160/326 16/17/326
f 29/36/327 18/20/327 7/8/327
f 14/15/328 127/148/328 140/166/328
f 9/10/329 4/5/329 127/148/329
f 10/11/330 126/147/330 127/149/330
f 125/146/331 11/12/331 16/18/331
f 18/21/29 30/38/29 20/23/29
f 3/3/30 19/22/30 21/24/30
f 17/19/31 20/23/31 19/22/31
f 21/24/332 28/34/332 26/32/332
f 27/33/33 23/26/33 25/29/33
f 86/102/34 22/25/34 19/22/34
f 25/29/333 86/102/333 20/23/333
f 19/22/36 22/25/36 87/103/36
f 24/27/37 23/26/37 27/33/37
f 21/24/334 87/103/334 24/28/334
f 18/21/51 33/41/51 35/43/51
f 35/43/40 36/44/40 27/33/40
f 28/35/41 32/40/41 31/39/41
f 36/44/42 32/40/42 28/35/42
f 29/37/43 34/42/43 33/41/43
f 31/39/44 34/42/44 29/37/44
f 42/50/45 41/49/45 33/41/45
f 38/46/46 42/50/46 34/42/46
f 33/41/47 41/49/47 37/45/47
f 37/45/48 39/47/48 36/44/48
f 40/48/335 38/46/335 31/39/335
f 39/47/50 40/48/50 32/40/50
f 42/50/43 48/56/43 47/55/43
f 44/52/44 48/56/44 42/50/44
f 41/49/39 47/55/39 43/51/39
f 43/51/40 45/53/40 39/47/40
f 40/48/41 46/54/41 44/52/41
f 45/53/42 46/54/42 40/48/42
f 50/58/48 54/62/48 45/53/48
f 53/61/335 52/60/335 44/52/335
f 54/62/50 53/61/50 46/54/50
f 51/59/45 49/57/45 47/55/45
f 52/60/46 51/59/46 48/56/46
f 47/55/47 49/57/47 50/58/47
f 58/66/336 60/68/336 50/58/336
f 50/58/53 60/68/53 56/64/53
f 57/65/337 55/63/337 52/60/337
f 54/62/55 56/64/55 57/65/55
f 59/67/56 58/66/56 49/57/56
f 52/60/57 55/63/57 59/67/57
f 65/73/45 64/72/45 58/66/45
f 62/70/46 65/73/46 59/67/46
f 58/66/47 64/72/47 61/69/47
f 61/69/48 66/74/48 56/64/48
f 63/71/335 62/70/335 55/63/335
f 66/74/58 63/71/58 57/65/58
f 67/75/338 73/81/338 76/85/338
f 71/79/339 82/93/339 301/334/339
f 80/90/340 83/96/340 299/332/340
f 74/82/341 83/95/341 80/91/341
f 80/90/342 68/76/342 79/89/342
f 69/77/343 313/348/343 83/95/343
f 301/335/344 82/94/344 13/14/344
f 73/81/345 78/88/345 80/91/345
f 81/92/346 301/334/346 313/348/346
f 72/80/347 67/75/347 84/98/347
f 9/10/348 72/80/348 85/100/348
f 85/101/349 214/246/349 10/11/349
f 22/25/89 86/102/89 89/105/89
f 23/26/90 90/106/90 93/110/90
f 23/26/350 24/27/350 92/109/350
f 86/102/92 25/29/92 93/110/92
f 24/28/93 87/103/93 91/107/93
f 22/25/94 88/104/94 91/107/94
f 92/109/95 95/113/95 97/115/95
f 91/107/351 96/114/351 95/112/351
f 93/110/97 94/111/97 98/116/97
f 89/105/98 98/116/98 99/117/98
f 91/107/352 88/104/352 99/117/352
f 93/110/100 90/106/100 97/115/100
f 98/116/101 104/123/101 105/124/101
f 94/111/102 97/115/102 103/122/102
f 96/114/353 99/117/353 105/124/353
f 96/114/104 102/121/104 101/120/104
f 95/113/105 101/119/105 103/122/105
f 94/111/106 100/118/106 104/123/106
f 105/124/107 104/123/107 110/130/107
f 105/124/108 111/131/108 108/128/108
f 103/122/109 109/129/109 106/125/109
f 103/122/110 101/119/110 107/126/110
f 101/120/111 102/121/111 108/128/111
f 104/123/354 100/118/354 106/125/354
f 109/129/355 107/126/355 113/133/355
f 107/127/114 108/128/114 114/135/114
f 110/130/115 106/125/115 112/132/115
f 111/131/116 110/130/116 116/137/116
f 111/131/117 117/138/117 114/135/117
f 109/129/118 115/136/118 112/132/118
f 117/138/356 123/144/356 120/141/356
f 115/136/120 121/142/120 118/139/120
f 115/136/357 113/133/357 119/140/357
f 113/134/358 114/135/358 120/141/358
f 116/137/359 112/132/359 118/139/359
f 117/138/360 116/137/360 122/143/360
f 119/140/125 120/141/125 123/144/125
f 121/142/125 123/144/125 122/143/125
f 127/149/126 126/147/126 129/151/126
f 124/145/127 125/146/127 130/152/127
f 126/147/128 124/145/128 128/150/128
f 137/161/129 139/164/129 130/152/129
f 138/163/130 141/168/130 136/159/130
f 128/150/131 131/153/131 132/154/131
f 129/151/361 132/154/361 136/159/361
f 128/150/133 130/152/133 134/156/133
f 138/163/134 133/155/134 135/157/134
f 135/158/362 134/156/362 130/152/362
f 127/149/148 141/168/148 146/173/148
f 138/163/137 147/174/137 146/173/137
f 139/165/138 137/162/138 142/169/138
f 139/165/139 143/170/139 147/174/139
f 140/167/140 127/149/140 144/171/140
f 140/167/141 145/172/141 142/169/141
f 144/171/142 152/179/142 153/180/142
f 145/172/143 153/180/143 149/176/143
f 144/171/144 146/173/144 148/175/144
f 147/174/145 150/177/145 148/175/145
f 142/169/146 149/176/146 151/178/146
f 143/170/147 151/178/147 150/177/147
f 153/180/140 152/179/140 158/185/140
f 153/180/141 159/186/141 155/182/141
f 152/179/136 148/175/136 154/181/136
f 150/177/137 156/183/137 154/181/137
f 151/178/138 149/176/138 155/182/138
f 151/178/139 157/184/139 156/183/139
f 156/183/145 165/192/145 161/188/145
f 155/182/146 163/190/146 164/191/146
f 157/184/147 164/191/147 165/192/147
f 158/185/142 160/187/142 162/189/142
f 159/186/143 162/189/143 163/190/143
f 158/185/144 154/181/144 161/188/144
f 161/188/363 171/198/363 169/196/363
f 161/188/150 165/192/150 167/194/150
f 163/190/364 166/193/364 168/195/364
f 165/192/152 164/191/152 168/195/152
f 160/187/153 169/196/153 170/197/153
f 163/190/154 162/189/154 170/197/154
f 169/196/142 175/202/142 176/203/142
f 170/197/143 176/203/143 173/200/143
f 169/196/144 171/198/144 172/199/144
f 167/194/145 177/204/145 172/199/145
f 166/193/146 173/200/146 174/201/146
f 168/195/155 174/201/155 177/204/155
f 131/153/158 178/205/158 179/206/158
f 183/211/159 180/207/159 133/155/159
f 133/155/160 180/207/160 182/210/160
f 132/154/161 179/206/161 183/211/161
f 135/158/162 182/209/162 181/208/162
f 181/208/163 178/205/163 131/153/163
f 187/216/164 185/214/164 182/210/164
f 185/213/365 186/215/365 181/208/365
f 188/217/166 184/212/166 183/211/166
f 189/218/366 188/217/366 179/206/366
f 181/208/367 186/215/367 189/218/367
f 183/211/169 184/212/169 187/216/169
f 195/225/170 194/224/170 188/217/170
f 184/212/171 190/219/171 193/223/171
f 186/215/172 192/222/172 195/225/172
f 191/221/173 192/222/173 186/215/173
f 193/223/174 191/220/174 185/214/174
f 194/224/175 190/219/175 184/212/175
f 195/225/368 201/232/368 200/231/368
f 198/229/369 201/232/369 195/225/369
f 196/226/178 199/230/178 193/223/178
f 193/223/179 199/230/179 197/227/179
f 191/221/180 197/228/180 198/229/180
f 194/224/370 200/231/370 196/226/370
f 199/230/182 205/237/182 203/234/182
f 197/228/183 203/235/183 204/236/183
f 200/231/184 206/238/184 202/233/184
f 201/232/185 207/239/185 206/238/185
f 204/236/371 207/239/371 201/232/371
f 202/233/372 205/237/372 199/230/372
f 210/242/373 213/245/373 207/239/373
f 208/240/189 211/243/189 205/237/189
f 205/237/374 211/243/374 209/241/374
f 203/235/191 209/241/191 210/242/191
f 206/238/375 212/244/375 208/240/375
f 207/239/376 213/245/376 212/244/376
f 213/245/125 210/242/125 209/241/125
f 212/244/125 213/245/125 211/243/125
f 85/101/194 226/259/194 216/248/194
f 77/87/195 215/247/195 217/249/195
f 214/246/196 216/248/196 215/247/196
f 217/249/197 225/257/197 76/86/197
f 224/256/198 220/252/198 223/255/198
f 219/251/199 218/250/199 215/247/199
f 223/255/377 219/251/377 216/248/377
f 215/247/201 218/250/201 221/253/201
f 222/254/202 220/252/202 224/256/202
f 217/249/378 221/253/378 222/254/378
f 85/101/212 229/262/212 231/264/212
f 231/264/205 232/265/205 224/256/205
f 225/258/206 228/261/206 227/260/206
f 232/265/207 228/261/207 225/258/207
f 84/99/208 230/263/208 229/262/208
f 227/260/209 230/263/209 84/99/209
f 238/271/48 237/270/48 229/262/48
f 234/267/50 238/271/50 230/263/50
f 229/262/210 237/270/210 233/266/210
f 233/266/45 235/268/45 232/265/45
f 236/269/211 234/267/211 227/260/211
f 235/268/46 236/269/46 228/261/46
f 238/271/208 244/277/208 243/276/208
f 240/273/209 244/277/209 238/271/209
f 237/270/204 243/276/204 239/272/204
f 239/272/205 241/274/205 235/268/205
f 236/269/206 242/275/206 240/273/206
f 241/274/207 242/275/207 236/269/207
f 246/279/45 250/283/45 241/274/45
f 249/282/211 248/281/211 240/273/211
f 250/283/46 249/282/46 242/275/46
f 247/280/48 245/278/48 243/276/48
f 248/281/50 247/280/50 244/277/50
f 243/276/210 245/278/210 246/279/210
f 254/287/379 256/289/379 246/279/379
f 246/279/214 256/289/214 252/285/214
f 253/286/380 251/284/380 248/281/380
f 250/283/216 252/285/216 253/286/216
f 255/288/217 254/287/217 245/278/217
f 248/281/218 251/284/218 255/288/218
f 261/294/48 260/293/48 254/287/48
f 258/291/50 261/294/50 255/288/50
f 254/287/210 260/293/210 257/290/210
f 257/290/45 262/295/45 252/285/45
f 259/292/211 258/291/211 251/284/211
f 262/295/46 259/292/46 253/286/46
f 218/250/221 219/251/221 264/297/221
f 220/252/222 265/298/222 268/301/222
f 220/252/223 222/254/223 267/300/223
f 219/251/224 223/255/224 268/301/224
f 222/254/381 221/253/381 266/299/381
f 218/250/226 263/296/226 266/299/226
f 267/300/227 270/303/227 272/305/227
f 266/299/228 271/304/228 270/303/228
f 268/301/229 269/302/229 273/306/229
f 264/297/382 273/306/382 274/307/382
f 266/299/383 263/296/383 274/307/383
f 268/301/232 265/298/232 272/305/232
f 273/306/233 279/312/233 280/313/233
f 269/302/384 272/305/384 278/311/384
f 271/304/385 274/307/385 280/313/385
f 271/304/236 277/310/236 276/309/236
f 270/303/237 276/309/237 278/311/237
f 269/302/238 275/308/238 279/312/238
f 280/313/386 279/312/386 285/318/386
f 280/313/387 286/319/387 283/316/387
f 278/311/241 284/317/241 281/314/241
f 278/311/242 276/309/242 282/315/242
f 276/309/243 277/310/243 283/316/243
f 279/312/388 275/308/388 281/314/388
f 284/317/245 282/315/245 288/321/245
f 282/315/246 283/316/246 289/322/246
f 285/318/389 281/314/389 287/320/389
f 286/319/248 285/318/248 291/324/248
f 286/319/249 292/325/249 289/322/249
f 284/317/250 290/323/250 287/320/250
f 292/325/251 298/331/251 295/328/251
f 290/323/252 296/329/252 293/326/252
f 290/323/390 288/321/390 294/327/390
f 288/321/254 289/322/254 295/328/254
f 291/324/391 287/320/391 293/326/391
f 292/325/256 291/324/256 297/330/256
f 294/327/125 295/328/125 298/331/125
f 296/329/125 298/331/125 297/330/125
f 301/335/257 300/333/257 303/337/257
f 70/78/258 299/332/258 304/338/258
f 300/333/259 70/78/259 302/336/259
f 83/96/392 312/346/392 304/338/392
f 311/345/261 314/350/261 310/344/261
f 302/336/262 305/339/262 306/340/262
f 303/337/393 306/340/393 310/344/393
f 302/336/264 304/338/264 308/342/264
f 311/345/265 307/341/265 309/343/265
f 309/343/394 308/342/394 304/338/394
f 301/335/275 314/350/275 319/355/275
f 311/345/268 320/356/268 319/355/268
f 312/347/269 83/97/269 315/351/269
f 312/347/270 316/352/270 320/356/270
f 313/349/271 301/335/271 317/353/271
f 313/349/272 318/354/272 315/351/272
f 317/353/145 325/361/145 326/362/145
f 318/354/147 326/362/147 322/358/147
f 317/353/273 319/355/273 321/357/273
f 320/356/142 323/359/142 321/357/142
f 315/351/395 322/358/395 324/360/395
f 316/352/143 324/360/143 323/359/143
f 326/362/271 325/361/271 331/367/271
f 326/362/272 332/368/272 328/364/272
f 325/361/267 321/357/267 327/363/267
f 323/359/268 329/365/268 327/363/268
f 324/360/269 322/358/269 328/364/269
f 324/360/270 330/366/270 329/365/270
f 329/365/142 338/374/142 334/370/142
f 328/364/274 336/372/274 337/373/274
f 330/366/143 337/373/143 338/374/143
f 331/367/145 333/369/145 335/371/145
f 332/368/147 335/371/147 336/372/147
f 331/367/273 327/363/273 334/370/273
f 334/370/396 344/380/396 342/378/396
f 334/370/277 338/374/277 340/376/277
f 336/372/397 339/375/397 341/377/397
f 338/374/279 337/373/279 341/377/279
f 333/369/280 342/378/280 343/379/280
f 336/372/281 335/371/281 343/379/281
f 342/378/145 348/384/145 349/385/145
f 343/379/147 349/385/147 346/382/147
f 342/378/273 344/380/273 345/381/273
f 340/376/142 350/386/142 345/381/142
f 339/375/395 346/382/395 347/383/395
f 341/377/143 347/383/143 350/386/143
f 305/339/284 351/387/284 352/388/284
f 356/392/398 353/389/398 307/341/398
f 307/341/286 353/389/286 355/391/286
f 306/340/287 352/388/287 356/392/287
f 309/343/399 355/391/399 354/390/399
f 354/390/289 351/387/289 305/339/289
f 360/396/290 358/394/290 355/391/290
f 358/394/291 359/395/291 354/390/291
f 361/397/292 357/393/292 356/392/292
f 362/398/400 361/397/400 352/388/400
f 354/390/294 359/395/294 362/398/294
f 356/392/295 357/393/295 360/396/295
f 368/404/296 367/403/296 361/397/296
f 357/393/401 363/399/401 366/402/401
f 359/395/298 365/401/298 368/404/298
f 364/400/299 365/401/299 359/395/299
f 366/402/300 364/400/300 358/394/300
f 367/403/301 363/399/301 357/393/301
f 368/404/402 374/410/402 373/409/402
f 371/407/403 374/410/403 368/404/403
f 369/405/304 372/408/304 366/402/304
f 366/402/305 372/408/305 370/406/305
f 364/400/306 370/406/306 371/407/306
f 367/403/404 373/409/404 369/405/404
f 372/408/308 378/414/308 376/412/308
f 370/406/405 376/412/405 377/413/405
f 373/409/406 379/415/406 375/411/406
f 374/410/311 380/416/311 379/415/311
f 377/413/312 380/416/312 374/410/312
f 375/411/313 378/414/313 372/408/313
f 383/419/314 386/422/314 380/416/314
f 381/417/315 384/420/315 378/414/315
f 378/414/316 384/420/316 382/418/316
f 376/412/317 382/418/317 383/419/317
f 379/415/318 385/421/318 381/417/318
f 380/416/407 386/422/407 385/421/407
f 386/422/125 383/419/125 382/418/125
f 385/421/125 386/422/125 384/420/125
