# Blender 3.3.1
# www.blender.org
mtllib drone_blade.mtl
o Drone_inimigo.001
v 0.156411 -0.153491 0.392200
v -0.062772 0.088643 0.392200
v -0.062772 0.088643 0.405878
v -0.003240 0.002889 0.401537
v 0.002399 0.000041 0.401537
v 0.002786 -0.002419 0.401537
v -0.000715 0.002049 0.401537
v -0.001443 -0.000284 0.401537
v 0.000524 -0.001059 0.401537
v 0.098617 -0.046476 0.392200
v -0.180151 0.166026 0.392200
v -0.052663 0.005883 0.392200
v 0.040872 -0.059371 0.405878
v 0.040872 -0.059371 0.392200
v 0.156411 -0.153491 0.392200
v 0.118339 -0.116052 0.404802
v 0.139079 -0.139372 0.405878
v 0.074458 -0.034796 0.404788
v 0.098617 -0.046476 0.392200
v 0.081449 -0.032102 0.405878
v -0.180151 0.166026 0.392200
v -0.107981 0.099475 0.404107
v -0.161823 0.153944 0.405878
v -0.031444 0.003328 0.404080
v -0.052663 0.005883 0.392200
v -0.034554 -0.006750 0.405878
vn -0.0000 -0.0000 1.0000
vn 0.5504 0.8349 -0.0000
vn -0.0488 -0.0077 0.9988
vn 0.6419 0.7668 -0.0000
vn -0.0611 -0.0927 0.9938
vn -0.1032 -0.1234 0.9870
vn 0.1333 0.1636 0.9775
vn 0.0904 0.0512 0.9946
vn 0.0977 0.1409 0.9852
vn -0.5722 -0.8201 -0.0000
vn -0.6316 -0.7753 -0.0000
vn 0.7199 0.6513 0.2399
vn 0.1132 -0.6107 0.7838
vn -0.6723 -0.6745 0.3050
vn -0.4412 0.2878 0.8500
vn -0.4855 -0.3867 0.7840
vn 0.5506 0.2974 0.7800
vn -0.0597 -0.0321 0.9977
vn -0.0218 -0.0657 0.9976
vn -0.1711 -0.2654 0.9488
vn -0.1053 -0.1258 0.9865
vn 0.0758 0.1261 0.9891
vn 0.0907 0.0719 0.9933
vn 0.1157 0.2935 0.9489
vn 0.1008 0.1445 0.9844
vn -0.4862 -0.3870 0.7835
vn 0.5503 0.2973 0.7803
vt 0.034752 0.054641
vt 0.038310 0.181318
vt 0.037438 0.179602
vt 0.035641 0.139439
vt 0.035727 0.136431
vt 0.035614 0.135636
vt 0.035702 0.138200
vt 0.035540 0.137990
vt 0.035586 0.136846
vt 0.038310 0.088259
vt 0.036243 0.223826
vt 0.032877 0.159378
vt 0.034354 0.106808
vt 0.033404 0.105358
vt 0.034752 0.054641
vt 0.035953 0.075718
vt 0.035142 0.084276
vt 0.034891 0.073272
vt 0.037054 0.102601
vt 0.037447 0.091777
vt 0.038310 0.088259
vt 0.037492 0.100656
vt 0.036243 0.223826
vt 0.035059 0.187270
vt 0.036062 0.181458
vt 0.036522 0.205600
vt 0.034453 0.149939
vt 0.033785 0.157848
vt 0.032877 0.159378
vt 0.033814 0.148403
s 0
usemtl drone
f 10/10/1 15/15/1 1/1/1
f 12/12/1 21/23/1 11/11/1
f 21/23/2 3/3/2 2/2/2
f 6/6/3 18/19/3 5/5/3
f 2/2/4 20/22/4 19/21/4
f 3/3/5 22/25/5 4/4/5
f 18/19/6 3/3/6 7/7/6
f 13/13/7 16/17/7 6/6/7
f 4/4/8 24/27/8 8/8/8
f 24/27/9 13/13/9 9/9/9
f 14/14/10 26/30/10 25/29/10
f 15/15/11 13/13/11 14/14/11
f 15/15/12 16/16/12 17/18/12
f 18/19/13 19/20/13 20/22/13
f 21/23/14 22/24/14 23/26/14
f 24/27/15 25/28/15 26/30/15
f 22/25/16 25/29/16 24/27/16
f 19/21/17 16/17/17 15/15/17
f 10/10/1 19/21/1 15/15/1
f 12/12/1 25/29/1 21/23/1
f 2/2/1 11/11/1 21/23/1
f 21/23/2 23/26/2 3/3/2
f 6/6/18 16/17/18 18/19/18
f 2/2/4 3/3/4 20/22/4
f 19/21/1 10/10/1 2/2/1
f 4/4/19 7/7/19 3/3/19
f 3/3/5 23/26/5 22/25/5
f 7/7/20 5/5/20 18/19/20
f 18/19/21 20/22/21 3/3/21
f 6/6/22 9/9/22 13/13/22
f 13/13/7 17/18/7 16/17/7
f 4/4/23 22/25/23 24/27/23
f 9/9/24 8/8/24 24/27/24
f 24/27/25 26/30/25 13/13/25
f 14/14/10 13/13/10 26/30/10
f 25/29/1 12/12/1 14/14/1
f 14/14/1 1/1/1 15/15/1
f 15/15/11 17/18/11 13/13/11
f 22/25/26 21/23/26 25/29/26
f 19/21/27 18/19/27 16/17/27
