# Blender 3.3.1
# www.blender.org
o flag
v 0.025000 -0.050000 0.500000
v -0.025000 -0.050000 0.500000
v 0.025000 -0.050000 0.600000
v -0.025000 -0.050000 0.600000
v 0.050000 -0.025000 0.500000
v 0.050000 0.025000 0.500000
v 0.025000 0.050000 0.500000
v -0.025000 0.050000 0.500000
v -0.050000 -0.025000 0.500000
v -0.050000 0.025000 0.500000
v -0.050000 -0.025000 0.600000
v -0.025000 0.050000 0.600000
v 0.025000 0.050000 0.600000
v -0.050000 0.025000 0.600000
v 0.050000 0.025000 0.600000
v 0.050000 -0.025000 0.600000
v 0.050000 -0.025000 0.900000
v 0.050000 -0.025000 0.800000
v 0.025000 -0.050000 0.900000
v 0.025000 -0.050000 0.800000
v 0.050000 0.025000 0.900000
v 0.025000 0.050000 0.900000
v -0.025000 0.050000 0.900000
v -0.025000 -0.050000 0.900000
v -0.050000 0.025000 0.900000
v -0.050000 -0.025000 0.900000
v -0.025000 0.050000 0.800000
v -0.050000 0.025000 0.800000
v 0.050000 0.025000 0.800000
v -0.025000 -0.050000 0.800000
v 0.025000 0.050000 0.800000
v -0.050000 -0.025000 0.800000
v 0.014476 -0.381539 0.500000
v 0.014476 -0.381539 0.900000
v 0.014476 -0.418462 0.500000
v 0.014476 -0.418462 0.900000
v 0.025612 -0.171124 0.500000
v 0.025612 -0.171124 0.900000
v -0.017817 -0.265740 0.500000
v -0.017817 -0.265740 0.900000
v -0.017817 -0.311183 0.500000
v -0.017817 -0.311183 0.900000
v 0.000000 -0.450000 0.500000
v 0.000000 -0.450000 0.900000
v 0.000000 -0.350000 0.500000
v 0.000000 -0.350000 0.900000
v 0.025612 -0.105799 0.500000
v 0.025612 -0.105799 0.900000
v 0.000000 -0.050000 0.500000
v 0.000000 -0.050000 0.900000
v -0.025000 0.025000 0.000000
v 0.025000 0.025000 0.000000
v -0.025000 0.025000 0.950000
v 0.025000 0.025000 0.950000
v 0.025000 -0.025000 0.950000
v -0.025000 -0.025000 0.950000
v 0.025000 -0.025000 -0.000000
v -0.025000 -0.025000 -0.000000
vn 0.3827 -0.9239 -0.0000
vn -0.3827 -0.9239 -0.0000
vn -0.0000 -0.0000 -1.0000
vn -0.9239 -0.3827 -0.0000
vn -0.9239 -0.3827 0.0001
vn -0.3827 0.9239 -0.0000
vn 0.3827 0.9239 -0.0000
vn -0.9239 0.3827 -0.0000
vn -0.0000 -0.0000 1.0000
vn 0.9239 -0.3827 -0.0000
vn 0.3827 -0.9239 0.0001
vn -0.3827 0.9239 0.0001
vn 0.9239 0.3827 -0.0000
vn 0.3827 0.9239 -0.0001
vn -0.3827 -0.9239 -0.0001
vn 0.9239 0.3827 0.0001
vn -0.9769 0.2135 -0.0000
vn -0.9769 -0.2135 -0.0000
vn 0.9769 0.2135 -0.0000
vn 0.9769 -0.2135 -0.0000
vn -0.9088 0.4172 -0.0000
vn 0.9088 -0.4172 -0.0000
vn -0.9088 -0.4172 -0.0000
vn 0.9088 0.4172 -0.0000
vn -0.0000 1.0000 -0.0000
vn -0.0000 -1.0000 -0.0000
vn 1.0000 -0.0000 -0.0000
vn -1.0000 -0.0000 -0.0000
vt 0.593750 0.275000
vt 0.593750 0.275000
vt 0.593750 0.325000
vt 0.593750 0.325000
vt 0.593750 0.275000
vt 0.593750 0.275000
vt 0.593750 0.275000
vt 0.593750 0.275000
vt 0.593750 0.275000
vt 0.593750 0.275000
vt 0.593750 0.325000
vt 0.593750 0.325000
vt 0.593750 0.325000
vt 0.593750 0.325000
vt 0.593750 0.325000
vt 0.593750 0.325000
vt 0.593750 0.475000
vt 0.593750 0.425000
vt 0.593750 0.475000
vt 0.593750 0.425000
vt 0.593750 0.475000
vt 0.593750 0.475000
vt 0.593750 0.475000
vt 0.593750 0.475000
vt 0.593750 0.475000
vt 0.593750 0.475000
vt 0.593750 0.425000
vt 0.593750 0.425000
vt 0.593750 0.425000
vt 0.593750 0.425000
vt 0.593750 0.425000
vt 0.593750 0.425000
vt 0.593750 0.275000
vt 0.593750 0.475000
vt 0.593750 0.275000
vt 0.593750 0.475000
vt 0.593750 0.275000
vt 0.593750 0.475000
vt 0.593750 0.275000
vt 0.593750 0.475000
vt 0.593750 0.275000
vt 0.593750 0.475000
vt 0.593750 0.275000
vt 0.593750 0.475000
vt 0.593750 0.275000
vt 0.593750 0.475000
vt 0.593750 0.275000
vt 0.593750 0.475000
vt 0.593750 0.275000
vt 0.593750 0.475000
vt 0.468750 0.025000
vt 0.468750 0.025000
vt 0.468750 0.225000
vt 0.468750 0.225000
vt 0.468750 0.225000
vt 0.468750 0.225000
vt 0.468750 0.025000
vt 0.468750 0.025000
s 0
f 3/3/1 2/2/2 1/1/1
f 2/2/2 3/3/1 4/4/2
f 1/1/3 6/6/3 5/5/3
f 6/6/3 1/1/3 7/7/3
f 7/7/3 1/1/3 2/2/3
f 7/7/3 2/2/3 8/8/3
f 8/8/3 2/2/3 9/9/3
f 8/8/3 9/9/3 10/10/3
f 2/2/2 11/11/4 9/9/5
f 11/11/4 2/2/2 4/4/2
f 12/12/6 7/7/7 8/8/6
f 7/7/7 12/12/6 13/13/7
f 10/10/8 12/12/6 8/8/6
f 12/12/6 10/10/8 14/14/8
f 9/9/4 14/14/8 10/10/8
f 14/14/8 9/9/4 11/11/4
f 13/13/9 16/16/9 15/15/9
f 16/16/9 13/13/9 3/3/9
f 3/3/9 13/13/9 12/12/9
f 3/3/9 12/12/9 4/4/9
f 4/4/9 12/12/9 14/14/9
f 4/4/9 14/14/9 11/11/9
f 19/19/1 18/18/10 17/17/10
f 18/18/10 19/19/1 20/20/11
f 22/22/9 17/17/9 21/21/9
f 17/17/9 22/22/9 19/19/9
f 19/19/9 22/22/9 23/23/9
f 19/19/9 23/23/9 24/24/9
f 24/24/9 23/23/9 25/25/9
f 24/24/9 25/25/9 26/26/9
f 28/28/8 23/23/6 27/27/12
f 23/23/6 28/28/8 25/25/8
f 17/17/10 29/29/13 21/21/13
f 29/29/13 17/17/10 18/18/10
f 19/19/1 30/30/2 20/20/1
f 30/30/2 19/19/1 24/24/2
f 23/23/6 31/31/7 27/27/6
f 31/31/7 23/23/6 22/22/7
f 21/21/13 31/31/7 22/22/14
f 31/31/7 21/21/13 29/29/13
f 32/32/4 25/25/8 28/28/8
f 25/25/8 32/32/4 26/26/4
f 30/30/2 26/26/4 32/32/4
f 26/26/4 30/30/2 24/24/15
f 20/20/3 29/29/3 18/18/3
f 29/29/3 20/20/3 31/31/3
f 31/31/3 20/20/3 30/30/3
f 31/31/3 30/30/3 27/27/3
f 27/27/3 30/30/3 32/32/3
f 27/27/3 32/32/3 28/28/3
f 3/3/1 5/5/10 16/16/10
f 5/5/10 3/3/1 1/1/1
f 15/15/13 7/7/7 13/13/7
f 7/7/7 15/15/13 6/6/16
f 16/16/10 6/6/13 15/15/13
f 6/6/13 16/16/10 5/5/10
f 35/35/17 34/34/18 33/33/18
f 34/34/18 35/35/17 36/36/17
f 33/33/19 34/34/19 35/35/20
f 36/36/20 35/35/20 34/34/19
f 39/39/17 38/38/17 37/37/17
f 38/38/17 39/39/17 40/40/17
f 37/37/20 38/38/20 39/39/20
f 40/40/20 39/39/20 38/38/20
f 41/41/18 40/40/17 39/39/17
f 40/40/17 41/41/18 42/42/18
f 39/39/20 40/40/20 41/41/19
f 42/42/19 41/41/19 40/40/20
f 43/43/21 36/36/17 35/35/17
f 36/36/17 43/43/21 44/44/21
f 35/35/20 36/36/20 43/43/22
f 44/44/22 43/43/22 36/36/20
f 45/45/23 42/42/18 41/41/18
f 42/42/18 45/45/23 46/46/23
f 46/46/23 45/45/23 33/33/18
f 46/46/23 33/33/18 34/34/18
f 41/41/19 42/42/19 45/45/24
f 46/46/24 45/45/24 42/42/19
f 33/33/19 45/45/24 46/46/24
f 34/34/19 33/33/19 46/46/24
f 37/37/17 48/48/18 47/47/18
f 48/48/18 37/37/17 38/38/17
f 47/47/19 48/48/19 37/37/20
f 38/38/20 37/37/20 48/48/19
f 47/47/18 50/50/23 49/49/23
f 50/50/23 47/47/18 48/48/18
f 49/49/24 50/50/24 47/47/19
f 48/48/19 47/47/19 50/50/24
f 53/53/25 52/52/25 51/51/25
f 52/52/25 53/53/25 54/54/25
f 53/53/9 55/55/9 54/54/9
f 55/55/9 53/53/9 56/56/9
f 58/58/3 52/52/3 57/57/3
f 52/52/3 58/58/3 51/51/3
f 55/55/26 58/58/26 57/57/26
f 58/58/26 55/55/26 56/56/26
f 55/55/27 52/52/27 54/54/27
f 52/52/27 55/55/27 57/57/27
f 58/58/28 53/53/28 51/51/28
f 53/53/28 58/58/28 56/56/28
f 3/3/1 2/2/2 1/1/1
f 2/2/2 3/3/1 4/4/2
f 1/1/3 6/6/3 5/5/3
f 6/6/3 1/1/3 7/7/3
f 7/7/3 1/1/3 2/2/3
f 7/7/3 2/2/3 8/8/3
f 8/8/3 2/2/3 9/9/3
f 8/8/3 9/9/3 10/10/3
f 2/2/2 11/11/4 9/9/5
f 11/11/4 2/2/2 4/4/2
f 12/12/6 7/7/7 8/8/6
f 7/7/7 12/12/6 13/13/7
f 10/10/8 12/12/6 8/8/6
f 12/12/6 10/10/8 14/14/8
f 9/9/4 14/14/8 10/10/8
f 14/14/8 9/9/4 11/11/4
f 13/13/9 16/16/9 15/15/9
f 16/16/9 13/13/9 3/3/9
f 3/3/9 13/13/9 12/12/9
f 3/3/9 12/12/9 4/4/9
f 4/4/9 12/12/9 14/14/9
f 4/4/9 14/14/9 11/11/9
f 19/19/1 18/18/10 17/17/10
f 18/18/10 19/19/1 20/20/11
f 22/22/9 17/17/9 21/21/9
f 17/17/9 22/22/9 19/19/9
f 19/19/9 22/22/9 23/23/9
f 19/19/9 23/23/9 24/24/9
f 24/24/9 23/23/9 25/25/9
f 24/24/9 25/25/9 26/26/9
f 28/28/8 23/23/6 27/27/12
f 23/23/6 28/28/8 25/25/8
f 17/17/10 29/29/13 21/21/13
f 29/29/13 17/17/10 18/18/10
f 19/19/1 30/30/2 20/20/1
f 30/30/2 19/19/1 24/24/2
f 23/23/6 31/31/7 27/27/6
f 31/31/7 23/23/6 22/22/7
f 21/21/13 31/31/7 22/22/14
f 31/31/7 21/21/13 29/29/13
f 32/32/4 25/25/8 28/28/8
f 25/25/8 32/32/4 26/26/4
f 30/30/2 26/26/4 32/32/4
f 26/26/4 30/30/2 24/24/15
f 20/20/3 29/29/3 18/18/3
f 29/29/3 20/20/3 31/31/3
f 31/31/3 20/20/3 30/30/3
f 31/31/3 30/30/3 27/27/3
f 27/27/3 30/30/3 32/32/3
f 27/27/3 32/32/3 28/28/3
f 3/3/1 5/5/10 16/16/10
f 5/5/10 3/3/1 1/1/1
f 15/15/13 7/7/7 13/13/7
f 7/7/7 15/15/13 6/6/16
f 16/16/10 6/6/13 15/15/13
f 6/6/13 16/16/10 5/5/10
f 35/35/17 34/34/18 33/33/18
f 34/34/18 35/35/17 36/36/17
f 33/33/19 34/34/19 35/35/20
f 36/36/20 35/35/20 34/34/19
f 39/39/17 38/38/17 37/37/17
f 38/38/17 39/39/17 40/40/17
f 37/37/20 38/38/20 39/39/20
f 40/40/20 39/39/20 38/38/20
f 41/41/18 40/40/17 39/39/17
f 40/40/17 41/41/18 42/42/18
f 39/39/20 40/40/20 41/41/19
f 42/42/19 41/41/19 40/40/20
f 43/43/21 36/36/17 35/35/17
f 36/36/17 43/43/21 44/44/21
f 35/35/20 36/36/20 43/43/22
f 44/44/22 43/43/22 36/36/20
f 45/45/23 42/42/18 41/41/18
f 42/42/18 45/45/23 46/46/23
f 46/46/23 45/45/23 33/33/18
f 46/46/23 33/33/18 34/34/18
f 41/41/19 42/42/19 45/45/24
f 46/46/24 45/45/24 42/42/19
f 33/33/19 45/45/24 46/46/24
f 34/34/19 33/33/19 46/46/24
f 37/37/17 48/48/18 47/47/18
f 48/48/18 37/37/17 38/38/17
f 47/47/19 48/48/19 37/37/20
f 38/38/20 37/37/20 48/48/19
f 47/47/18 50/50/23 49/49/23
f 50/50/23 47/47/18 48/48/18
f 49/49/24 50/50/24 47/47/19
f 48/48/19 47/47/19 50/50/24
f 53/53/25 52/52/25 51/51/25
f 52/52/25 53/53/25 54/54/25
f 53/53/9 55/55/9 54/54/9
f 55/55/9 53/53/9 56/56/9
f 58/58/3 52/52/3 57/57/3
f 52/52/3 58/58/3 51/51/3
f 55/55/26 58/58/26 57/57/26
f 58/58/26 55/55/26 56/56/26
f 55/55/27 52/52/27 54/54/27
f 52/52/27 55/55/27 57/57/27
f 58/58/28 53/53/28 51/51/28
f 53/53/28 58/58/28 56/56/28
