# Blender 3.3.1
# www.blender.org
o gate-finish
v 0.150000 0.581512 0.723236
v 0.150000 0.335736 0.969012
v 0.050000 0.671170 0.775000
v 0.050000 0.387500 1.058670
v -0.050000 0.387500 1.058670
v -0.050000 0.671170 0.775000
v -0.150000 0.335736 0.969012
v -0.150000 0.581512 0.723236
v -0.150000 -0.335736 0.969012
v -0.150000 0.000000 1.058972
v -0.050000 -0.387500 1.058670
v -0.050000 0.000000 1.162500
v 0.050000 -0.000000 1.162500
v 0.050000 -0.387500 1.058670
v 0.150000 -0.000000 1.058972
v 0.150000 -0.335736 0.969012
v 0.150000 -0.581512 0.723236
v 0.150000 -0.671472 0.387500
v 0.050000 -0.671170 0.775000
v 0.050000 -0.775000 0.387500
v -0.050000 -0.775000 0.387500
v -0.050000 -0.671170 0.775000
v -0.150000 -0.581512 0.723236
v -0.150000 -0.671472 0.387500
v -0.150000 0.567642 0.000000
v -0.050000 0.671170 0.000000
v -0.150000 0.671472 0.387500
v -0.050000 0.775000 0.387500
v 0.050000 0.775000 0.387500
v 0.050000 0.671170 -0.000000
v 0.150000 0.567642 -0.000000
v 0.150000 0.671472 0.387500
v 0.150000 -0.457704 -0.000000
v 0.150000 -0.561535 0.387500
v -0.150000 -0.457704 0.000000
v -0.150000 -0.561535 0.387500
v 0.150000 -0.486303 0.668267
v -0.150000 -0.486303 0.668267
v -0.150000 -0.280767 0.873803
v 0.150000 -0.280767 0.873803
v -0.150000 0.000000 0.949035
v 0.150000 -0.000000 0.949035
v -0.150000 0.280767 0.873803
v 0.150000 0.280767 0.873803
v -0.150000 0.486303 0.668267
v 0.150000 0.486303 0.668267
v -0.150000 0.561535 0.387500
v 0.150000 0.561535 0.387500
v -0.150000 0.457704 0.000000
v 0.150000 0.457704 -0.000000
v 0.150000 -0.567642 -0.000000
v -0.150000 -0.567642 0.000000
v 0.050000 -0.671170 -0.000000
v -0.050000 -0.671170 0.000000
vn 0.3692 0.8048 0.4646
vn 0.9049 0.2129 0.3687
vn 0.9049 0.3687 0.2129
vn 0.3692 0.8048 0.4647
vn 0.3692 0.4647 0.8048
vn 0.3693 0.8048 0.4646
vn -0.3693 0.4646 0.8048
vn 0.3693 0.4647 0.8048
vn -0.3693 0.8048 0.4647
vn -0.3692 0.8048 0.4647
vn -0.9049 0.2129 0.3687
vn -0.3692 0.4647 0.8048
vn -0.3692 0.8048 0.4646
vn -0.9049 0.3687 0.2129
vn -0.3692 -0.4647 0.8048
vn -0.9049 -0.0000 0.4257
vn -0.9049 -0.2128 0.3687
vn -0.3692 -0.0000 0.9293
vn -0.3693 -0.4647 0.8048
vn 0.3693 -0.0000 0.9293
vn -0.3693 -0.0000 0.9293
vn 0.3693 -0.4647 0.8048
vn 0.3692 -0.4647 0.8048
vn 0.9049 -0.0000 0.4257
vn 0.3692 -0.0000 0.9293
vn 0.9049 -0.2128 0.3687
vn 0.3692 -0.8048 0.4647
vn 0.9049 -0.4257 -0.0000
vn 0.9049 -0.3687 0.2128
vn 0.3692 -0.9293 -0.0000
vn 0.3693 -0.8048 0.4647
vn -0.3693 -0.9293 -0.0000
vn 0.3693 -0.9293 -0.0000
vn -0.3693 -0.8048 0.4647
vn -0.9049 -0.3687 0.2129
vn -0.3692 -0.9293 -0.0000
vn -0.3692 -0.8048 0.4647
vn -0.9049 -0.3687 0.2128
vn -0.9049 -0.4257 -0.0000
vn -0.9049 0.4257 -0.0000
vn -0.4041 0.8835 -0.2368
vn -0.9444 0.3175 -0.0851
vn -0.4041 0.8836 -0.2367
vn -0.3692 0.9293 -0.0000
vn 0.3693 0.9293 -0.0000
vn -0.4041 0.8835 -0.2367
vn -0.3693 0.9293 -0.0000
vn 0.4041 0.8835 -0.2367
vn 0.3692 0.9293 -0.0000
vn 0.9444 0.3175 -0.0850
vn 0.4041 0.8836 -0.2367
vn 0.9444 0.3175 -0.0851
vn 0.9049 0.4257 -0.0000
vn -0.0000 0.9659 0.2588
vn -0.0000 1.0000 -0.0000
vn -0.0000 0.8660 -0.5000
vn -0.0000 0.5000 -0.8660
vn -0.0000 -0.0000 -1.0000
vn -0.0000 -0.5000 -0.8660
vn -0.0000 -0.8660 -0.5000
vn -0.0000 -1.0000 -0.0000
vn -0.0000 -0.9659 0.2588
vn -0.4041 -0.8835 -0.2367
vn 0.4041 -0.8835 -0.2367
vn -0.9049 0.3687 0.2128
vn 0.3693 0.8048 0.4647
vn -0.3693 0.4647 0.8048
vn 0.9049 0.2128 0.3687
vn 0.9049 0.3687 0.2128
vn -0.9049 0.2128 0.3687
vn 0.9049 -0.2129 0.3687
vn 0.3692 -0.8048 0.4646
vn 0.9049 -0.3687 0.2129
vn -0.3692 -0.8048 0.4646
vn -0.9049 -0.2129 0.3687
vn -0.4041 -0.8835 -0.2368
vn -0.9444 -0.3175 -0.0851
vn -0.4041 -0.8836 -0.2367
vn 0.9444 -0.3175 -0.0850
vn 0.4041 -0.8836 -0.2367
vn 0.9444 -0.3175 -0.0851
vn -0.3693 -0.8048 0.4646
vn 0.3693 -0.4646 0.8048
vn -0.9048 -0.4257 -0.0000
vn -1.0000 -0.0000 -0.0000
vn -0.9048 -0.3687 0.2129
vn -0.9048 -0.3687 0.2128
vn -0.9048 -0.2129 0.3687
vn -0.9048 -0.2128 0.3687
vn -0.9048 0.2129 0.3687
vn -0.9048 -0.0000 0.4257
vn -0.9048 0.2128 0.3687
vn -0.9048 0.3687 0.2129
vn -0.9048 0.3687 0.2128
vn -0.9048 0.4257 -0.0000
vn 0.9048 0.4257 -0.0000
vn 1.0000 -0.0000 -0.0000
vn 0.9048 0.3687 0.2129
vn 0.9048 0.3687 0.2128
vn 0.9048 0.2129 0.3687
vn 0.9048 0.2128 0.3687
vn 0.9048 -0.2129 0.3687
vn 0.9048 -0.0000 0.4257
vn 0.9048 -0.2128 0.3687
vn 0.9048 -0.3687 0.2129
vn 0.9048 -0.4257 -0.0000
vt 0.593750 0.149428
vt 0.343750 0.149428
vt 0.343750 0.399428
vt 0.593750 0.191712
vt 0.343750 0.191712
vt 0.343750 0.441712
vt 0.593750 0.158333
vt 0.343750 0.158333
vt 0.593750 0.207137
vt 0.343750 0.207137
vt 0.593750 0.207137
vt 0.343750 0.207137
vt 0.593750 0.158333
vt 0.343750 0.158333
vt 0.593750 0.191712
vt 0.343750 0.191712
vt 0.343750 0.441712
vt 0.593750 0.149428
vt 0.343750 0.149428
vt 0.343750 0.399428
vt 0.593750 0.191712
vt 0.343750 0.191712
vt 0.343750 0.441712
vt 0.593750 0.207189
vt 0.343750 0.207189
vt 0.343750 0.457189
vt 0.593750 0.207137
vt 0.343750 0.207137
vt 0.593750 0.225000
vt 0.343750 0.225000
vt 0.593750 0.225000
vt 0.343750 0.225000
vt 0.593750 0.207137
vt 0.343750 0.207137
vt 0.593750 0.207189
vt 0.343750 0.207189
vt 0.343750 0.457189
vt 0.593750 0.191712
vt 0.343750 0.191712
vt 0.343750 0.441712
vt 0.593750 0.149428
vt 0.343750 0.149428
vt 0.343750 0.399428
vt 0.593750 0.091667
vt 0.343750 0.091667
vt 0.343750 0.341667
vt 0.593750 0.158333
vt 0.343750 0.158333
vt 0.593750 0.091667
vt 0.343750 0.091667
vt 0.593750 0.091667
vt 0.343750 0.091667
vt 0.593750 0.158333
vt 0.343750 0.158333
vt 0.593750 0.149428
vt 0.343750 0.149428
vt 0.343750 0.399428
vt 0.593750 0.091667
vt 0.343750 0.091667
vt 0.343750 0.341667
vt 0.593750 0.025000
vt 0.343750 0.275000
vt 0.593750 0.025000
vt 0.593750 0.091667
vt 0.343750 0.091667
vt 0.343750 0.341667
vt 0.593750 0.091667
vt 0.343750 0.091667
vt 0.593750 0.091667
vt 0.343750 0.091667
vt 0.593750 0.025000
vt 0.593750 0.025000
vt 0.343750 0.275000
vt 0.593750 0.091667
vt 0.343750 0.091667
vt 0.343750 0.341667
vt 0.593750 0.025000
vt 0.343750 0.275000
vt 0.593750 0.091667
vt 0.343750 0.341667
vt 0.593750 0.025000
vt 0.343750 0.275000
vt 0.593750 0.091667
vt 0.343750 0.341667
vt 0.593750 0.139971
vt 0.343750 0.389971
vt 0.593750 0.139971
vt 0.343750 0.389971
vt 0.593750 0.175332
vt 0.343750 0.425332
vt 0.593750 0.175332
vt 0.343750 0.425332
vt 0.593750 0.188275
vt 0.343750 0.438275
vt 0.593750 0.188275
vt 0.343750 0.438275
vt 0.593750 0.175332
vt 0.343750 0.425332
vt 0.593750 0.175332
vt 0.343750 0.425332
vt 0.593750 0.139971
vt 0.343750 0.389971
vt 0.593750 0.139971
vt 0.343750 0.389971
vt 0.593750 0.091667
vt 0.343750 0.341667
vt 0.593750 0.091667
vt 0.343750 0.341667
vt 0.593750 0.025000
vt 0.343750 0.275000
vt 0.593750 0.025000
vt 0.343750 0.275000
vt 0.593750 0.025000
vt 0.343750 0.025000
vt 0.343750 0.275000
vt 0.593750 0.025000
vt 0.343750 0.025000
vt 0.343750 0.275000
vt 0.593750 0.025000
vt 0.343750 0.025000
vt 0.593750 0.025000
vt 0.343750 0.025000
s 0
f 3/7/1 2/4/2 1/1/3
f 2/4/2 3/7/4 4/9/5
f 3/7/6 5/11/7 4/9/8
f 5/11/7 3/7/6 6/13/9
f 6/13/10 7/15/11 5/11/12
f 7/15/11 6/13/13 8/18/14
f 11/27/15 10/24/16 9/21/17
f 10/24/16 11/27/15 12/29/18
f 11/27/19 13/31/20 12/29/21
f 13/31/20 11/27/19 14/33/22
f 14/33/23 15/35/24 13/31/25
f 15/35/24 14/33/23 16/38/26
f 19/47/27 18/44/28 17/41/29
f 18/44/28 19/47/27 20/49/30
f 19/47/31 21/51/32 20/49/33
f 21/51/32 19/47/31 22/53/34
f 23/55/35 21/51/36 22/53/37
f 21/51/36 23/55/38 24/58/39
f 27/64/40 26/63/41 25/61/42
f 26/63/43 27/64/40 28/67/44
f 29/69/45 26/63/46 28/67/47
f 26/63/46 29/69/45 30/71/48
f 29/69/49 31/72/50 30/71/51
f 31/72/52 29/69/49 32/74/53
f 35/81/54 34/79/55 33/77/54
f 34/79/55 35/81/54 36/83/55
f 36/83/55 37/85/56 34/79/55
f 37/85/56 36/83/55 38/87/56
f 39/89/57 37/85/56 38/87/56
f 37/85/56 39/89/57 40/91/57
f 41/93/58 40/91/57 39/89/57
f 40/91/57 41/93/58 42/95/58
f 43/97/59 42/95/58 41/93/58
f 42/95/58 43/97/59 44/99/59
f 45/101/60 44/99/59 43/97/59
f 44/99/59 45/101/60 46/103/60
f 47/105/61 46/103/60 45/101/60
f 46/103/60 47/105/61 48/107/61
f 49/109/62 48/107/61 47/105/61
f 48/107/61 49/109/62 50/111/62
f 31/72/58 26/63/58 30/71/58
f 26/63/58 31/72/58 25/61/58
f 25/61/58 31/72/58 50/111/58
f 25/61/58 50/111/58 49/109/58
f 51/113/58 35/81/58 33/77/58
f 35/81/58 51/113/58 52/116/58
f 52/116/58 51/113/58 53/119/58
f 52/116/58 53/119/58 54/121/58
f 54/122/63 20/50/33 21/52/32
f 20/50/33 54/122/63 53/120/64
f 8/19/65 28/68/44 27/65/40
f 28/68/44 8/19/14 6/14/10
f 3/8/66 28/68/47 6/14/9
f 28/68/47 3/8/66 29/70/45
f 12/30/21 4/10/8 5/12/67
f 4/10/8 12/30/21 13/32/20
f 4/10/5 15/36/24 2/5/68
f 15/36/24 4/10/5 13/32/25
f 3/8/4 32/75/53 29/70/49
f 32/75/53 3/8/4 1/2/69
f 10/25/16 5/12/12 7/16/70
f 5/12/12 10/25/16 12/30/18
f 16/39/71 19/48/72 17/42/73
f 19/48/27 16/39/71 14/34/23
f 22/54/74 9/22/75 23/56/35
f 9/22/75 22/54/37 11/28/15
f 54/122/76 24/59/39 52/117/77
f 24/59/39 54/122/78 21/52/36
f 51/114/79 20/50/30 53/120/80
f 20/50/30 51/114/81 18/45/28
f 22/54/82 14/34/83 11/28/19
f 14/34/83 22/54/82 19/48/31
f 24/60/84 35/82/85 52/118/77
f 35/82/85 24/60/84 36/84/85
f 36/84/85 24/60/84 23/57/86
f 36/84/85 23/57/87 38/88/85
f 38/88/85 23/57/86 39/90/85
f 39/90/85 23/57/86 9/23/88
f 39/90/85 9/23/89 41/94/85
f 7/17/90 41/94/85 9/23/88
f 7/17/90 9/23/88 10/26/91
f 7/17/92 43/98/85 41/94/85
f 8/20/93 43/98/85 7/17/90
f 8/20/93 45/102/85 43/98/85
f 8/20/94 47/106/85 45/102/85
f 27/66/95 47/106/85 8/20/93
f 27/66/95 49/110/85 47/106/85
f 49/110/85 27/66/95 25/62/42
f 32/76/96 50/112/97 31/73/52
f 50/112/97 32/76/96 48/108/97
f 48/108/97 32/76/96 1/3/98
f 48/108/97 1/3/99 46/104/97
f 46/104/97 1/3/98 44/100/97
f 44/100/97 1/3/98 2/6/100
f 44/100/97 2/6/101 42/96/97
f 16/40/102 42/96/97 2/6/100
f 16/40/102 2/6/100 15/37/103
f 16/40/104 40/92/97 42/96/97
f 17/43/105 40/92/97 16/40/102
f 17/43/105 37/86/97 40/92/97
f 18/46/106 37/86/97 17/43/105
f 18/46/106 34/80/97 37/86/97
f 18/46/106 33/78/97 34/80/97
f 33/78/97 18/46/106 51/115/81
f 3/7/1 2/4/2 1/1/3
f 2/4/2 3/7/4 4/9/5
f 3/7/6 5/11/7 4/9/8
f 5/11/7 3/7/6 6/13/9
f 6/13/10 7/15/11 5/11/12
f 7/15/11 6/13/13 8/18/14
f 11/27/15 10/24/16 9/21/17
f 10/24/16 11/27/15 12/29/18
f 11/27/19 13/31/20 12/29/21
f 13/31/20 11/27/19 14/33/22
f 14/33/23 15/35/24 13/31/25
f 15/35/24 14/33/23 16/38/26
f 19/47/27 18/44/28 17/41/29
f 18/44/28 19/47/27 20/49/30
f 19/47/31 21/51/32 20/49/33
f 21/51/32 19/47/31 22/53/34
f 23/55/35 21/51/36 22/53/37
f 21/51/36 23/55/38 24/58/39
f 27/64/40 26/63/41 25/61/42
f 26/63/43 27/64/40 28/67/44
f 29/69/45 26/63/46 28/67/47
f 26/63/46 29/69/45 30/71/48
f 29/69/49 31/72/50 30/71/51
f 31/72/52 29/69/49 32/74/53
f 35/81/54 34/79/55 33/77/54
f 34/79/55 35/81/54 36/83/55
f 36/83/55 37/85/56 34/79/55
f 37/85/56 36/83/55 38/87/56
f 39/89/57 37/85/56 38/87/56
f 37/85/56 39/89/57 40/91/57
f 41/93/58 40/91/57 39/89/57
f 40/91/57 41/93/58 42/95/58
f 43/97/59 42/95/58 41/93/58
f 42/95/58 43/97/59 44/99/59
f 45/101/60 44/99/59 43/97/59
f 44/99/59 45/101/60 46/103/60
f 47/105/61 46/103/60 45/101/60
f 46/103/60 47/105/61 48/107/61
f 49/109/62 48/107/61 47/105/61
f 48/107/61 49/109/62 50/111/62
f 31/72/58 26/63/58 30/71/58
f 26/63/58 31/72/58 25/61/58
f 25/61/58 31/72/58 50/111/58
f 25/61/58 50/111/58 49/109/58
f 51/113/58 35/81/58 33/77/58
f 35/81/58 51/113/58 52/116/58
f 52/116/58 51/113/58 53/119/58
f 52/116/58 53/119/58 54/121/58
f 54/122/63 20/50/33 21/52/32
f 20/50/33 54/122/63 53/120/64
f 8/19/65 28/68/44 27/65/40
f 28/68/44 8/19/14 6/14/10
f 3/8/66 28/68/47 6/14/9
f 28/68/47 3/8/66 29/70/45
f 12/30/21 4/10/8 5/12/67
f 4/10/8 12/30/21 13/32/20
f 4/10/5 15/36/24 2/5/68
f 15/36/24 4/10/5 13/32/25
f 3/8/4 32/75/53 29/70/49
f 32/75/53 3/8/4 1/2/69
f 10/25/16 5/12/12 7/16/70
f 5/12/12 10/25/16 12/30/18
f 16/39/71 19/48/72 17/42/73
f 19/48/27 16/39/71 14/34/23
f 22/54/74 9/22/75 23/56/35
f 9/22/75 22/54/37 11/28/15
f 54/122/76 24/59/39 52/117/77
f 24/59/39 54/122/78 21/52/36
f 51/114/79 20/50/30 53/120/80
f 20/50/30 51/114/81 18/45/28
f 22/54/82 14/34/83 11/28/19
f 14/34/83 22/54/82 19/48/31
f 24/60/84 35/82/85 52/118/77
f 35/82/85 24/60/84 36/84/85
f 36/84/85 24/60/84 23/57/86
f 36/84/85 23/57/87 38/88/85
f 38/88/85 23/57/86 39/90/85
f 39/90/85 23/57/86 9/23/88
f 39/90/85 9/23/89 41/94/85
f 7/17/90 41/94/85 9/23/88
f 7/17/90 9/23/88 10/26/91
f 7/17/92 43/98/85 41/94/85
f 8/20/93 43/98/85 7/17/90
f 8/20/93 45/102/85 43/98/85
f 8/20/94 47/106/85 45/102/85
f 27/66/95 47/106/85 8/20/93
f 27/66/95 49/110/85 47/106/85
f 49/110/85 27/66/95 25/62/42
f 32/76/96 50/112/97 31/73/52
f 50/112/97 32/76/96 48/108/97
f 48/108/97 32/76/96 1/3/98
f 48/108/97 1/3/99 46/104/97
f 46/104/97 1/3/98 44/100/97
f 44/100/97 1/3/98 2/6/100
f 44/100/97 2/6/101 42/96/97
f 16/40/102 42/96/97 2/6/100
f 16/40/102 2/6/100 15/37/103
f 16/40/104 40/92/97 42/96/97
f 17/43/105 40/92/97 16/40/102
f 17/43/105 37/86/97 40/92/97
f 18/46/106 37/86/97 17/43/105
f 18/46/106 34/80/97 37/86/97
f 18/46/106 33/78/97 34/80/97
f 33/78/97 18/46/106 51/115/81
