# Blender 3.3.1
# www.blender.org
o Cylinder.001
v -0.024000 0.600000 0.400000
v 0.024000 0.600000 0.400000
v -0.024000 0.588471 0.282946
v 0.024000 0.588471 0.282946
v -0.024000 0.554328 0.170390
v 0.024000 0.554328 0.170390
v -0.024000 0.498882 0.066658
v 0.024000 0.498882 0.066658
v -0.024000 0.424264 -0.024264
v 0.024000 0.424264 -0.024264
v -0.024000 0.333342 -0.098882
v 0.024000 0.333342 -0.098882
v -0.024000 0.229610 -0.154328
v 0.024000 0.229610 -0.154328
v -0.024000 0.117054 -0.188471
v 0.024000 0.117054 -0.188471
v -0.024000 -0.000000 -0.200000
v 0.024000 0.000000 -0.200000
v -0.024000 -0.117054 -0.188471
v 0.024000 -0.117054 -0.188471
v -0.024000 -0.229610 -0.154328
v 0.024000 -0.229610 -0.154328
v -0.024000 -0.333342 -0.098882
v 0.024000 -0.333342 -0.098882
v -0.024000 -0.424264 -0.024264
v 0.024000 -0.424264 -0.024264
v -0.024000 -0.498882 0.066658
v 0.024000 -0.498882 0.066658
v -0.024000 -0.554328 0.170390
v 0.024000 -0.554328 0.170390
v -0.024000 -0.588471 0.282946
v 0.024000 -0.588471 0.282946
v -0.024000 -0.600000 0.400000
v 0.024000 -0.600000 0.400000
v -0.024000 -0.588471 0.517054
v 0.024000 -0.588471 0.517054
v -0.024000 -0.554328 0.629610
v 0.024000 -0.554328 0.629610
v -0.024000 -0.498882 0.733342
v 0.024000 -0.498882 0.733342
v -0.024000 -0.424264 0.824264
v 0.024000 -0.424264 0.824264
v -0.024000 -0.333342 0.898882
v 0.024000 -0.333342 0.898882
v -0.024000 -0.229610 0.954328
v 0.024000 -0.229610 0.954328
v -0.024000 -0.117054 0.988471
v 0.024000 -0.117054 0.988471
v -0.024000 -0.000000 1.000000
v 0.024000 0.000000 1.000000
v -0.024000 0.117054 0.988471
v 0.024000 0.117054 0.988471
v -0.024000 0.229610 0.954328
v 0.024000 0.229610 0.954328
v -0.024000 0.333342 0.898882
v 0.024000 0.333342 0.898882
v -0.024000 0.424264 0.824264
v 0.024000 0.424264 0.824264
v -0.024000 0.498882 0.733342
v 0.024000 0.498882 0.733342
v -0.024000 0.554328 0.629610
v 0.024000 0.554328 0.629610
v -0.024000 0.588471 0.517054
v 0.024000 0.588471 0.517054
v 0.150000 0.581512 0.723236
v 0.150000 0.335736 0.969012
v 0.050000 0.671170 0.775000
v 0.050000 0.387500 1.058670
v -0.050000 0.387500 1.058670
v -0.050000 0.671170 0.775000
v -0.150000 0.335736 0.969012
v -0.150000 0.581512 0.723236
v -0.150000 -0.335736 0.969012
v -0.150000 0.000000 1.058972
v -0.050000 -0.387500 1.058670
v -0.050000 0.000000 1.162500
v 0.050000 -0.000000 1.162500
v 0.050000 -0.387500 1.058670
v 0.150000 -0.000000 1.058972
v 0.150000 -0.335736 0.969012
v 0.150000 -0.581512 0.723236
v 0.150000 -0.671472 0.387500
v 0.050000 -0.671170 0.775000
v 0.050000 -0.775000 0.387500
v -0.050000 -0.775000 0.387500
v -0.050000 -0.671170 0.775000
v -0.150000 -0.581512 0.723236
v -0.150000 -0.671472 0.387500
v -0.150000 0.567642 0.000000
v -0.050000 0.671170 0.000000
v -0.150000 0.671472 0.387500
v -0.050000 0.775000 0.387500
v 0.050000 0.775000 0.387500
v 0.050000 0.671170 -0.000000
v 0.150000 0.567642 -0.000000
v 0.150000 0.671472 0.387500
v 0.150000 -0.457704 0.000000
v 0.150000 -0.561535 0.387500
v -0.150000 -0.457704 0.000000
v -0.150000 -0.561535 0.387500
v 0.150000 -0.486303 0.668267
v -0.150000 -0.486303 0.668267
v -0.150000 -0.280767 0.873803
v 0.150000 -0.280767 0.873803
v -0.150000 0.000000 0.949035
v 0.150000 -0.000000 0.949035
v -0.150000 0.280767 0.873803
v 0.150000 0.280767 0.873803
v -0.150000 0.486303 0.668267
v 0.150000 0.486303 0.668267
v -0.150000 0.561535 0.387500
v 0.150000 0.561535 0.387500
v -0.150000 0.457704 0.000000
v 0.150000 0.457704 0.000000
v 0.150000 -0.567642 0.000000
v -0.150000 -0.567642 0.000000
v 0.050000 -0.671170 0.000000
v -0.050000 -0.671170 0.000000
vn -0.0000 0.9952 -0.0980
vn -0.0000 0.9569 -0.2903
vn -0.0000 0.8819 -0.4714
vn -0.0000 0.7730 -0.6344
vn -0.0000 0.6344 -0.7730
vn -0.0000 0.4714 -0.8819
vn -0.0000 0.2903 -0.9569
vn -0.0000 0.0980 -0.9952
vn -0.0000 -0.0980 -0.9952
vn -0.0000 -0.2903 -0.9569
vn -0.0000 -0.4714 -0.8819
vn -0.0000 -0.6344 -0.7730
vn -0.0000 -0.7730 -0.6344
vn -0.0000 -0.8819 -0.4714
vn -0.0000 -0.9569 -0.2903
vn -0.0000 -0.9952 -0.0980
vn -0.0000 -0.9952 0.0980
vn -0.0000 -0.9569 0.2903
vn -0.0000 -0.8819 0.4714
vn -0.0000 -0.7730 0.6344
vn -0.0000 -0.6344 0.7730
vn -0.0000 -0.4714 0.8819
vn -0.0000 -0.2903 0.9569
vn -0.0000 -0.0980 0.9952
vn -0.0000 0.0980 0.9952
vn -0.0000 0.2903 0.9569
vn -0.0000 0.4714 0.8819
vn -0.0000 0.6344 0.7730
vn -0.0000 0.7730 0.6344
vn -0.0000 0.8819 0.4714
vn 1.0000 -0.0000 -0.0000
vn -0.0000 0.9569 0.2903
vn -0.0000 0.9952 0.0980
vn -1.0000 -0.0000 -0.0000
vn 0.7071 0.5000 0.5000
vn -0.0000 0.7071 0.7071
vn -0.7071 0.5000 0.5000
vn -0.7071 -0.1830 0.6830
vn -0.0000 -0.2588 0.9659
vn 0.7071 -0.1830 0.6830
vn 0.7071 -0.6830 0.1830
vn -0.0000 -0.9659 0.2588
vn -0.7071 -0.6830 0.1830
vn -0.7071 0.6830 -0.1830
vn -0.0000 0.9659 -0.2588
vn 0.7071 0.6830 -0.1830
vn -0.0000 0.9659 0.2588
vn -0.0000 0.7071 -0.7071
vn -0.0000 0.2588 -0.9659
vn -0.0000 -0.2588 -0.9659
vn -0.0000 -0.7071 -0.7071
vn -0.0000 -0.9659 -0.2588
vn -0.0000 -0.0000 -1.0000
vn -0.7071 0.6830 0.1830
vn -0.0000 0.2588 0.9659
vn 0.7071 0.1830 0.6830
vn 0.7071 0.6830 0.1830
vn -0.7071 0.1830 0.6830
vn 0.7071 -0.5000 0.5000
vn -0.7071 -0.5000 0.5000
vn -0.7071 -0.6830 -0.1830
vn 0.7071 -0.6830 -0.1830
vn -0.0000 -0.7071 0.7071
vt 0.059242 0.213413
vt 0.029242 0.213413
vt 0.051742 0.213113
vt 0.059242 0.228413
vt 0.036742 0.213113
vt 0.029242 0.228413
vt 0.058305 0.213413
vt 0.053147 0.212975
vt 0.058305 0.228413
vt 0.038147 0.212975
vt 0.057367 0.213413
vt 0.054498 0.212565
vt 0.057367 0.228413
vt 0.039498 0.212565
vt 0.056430 0.213413
vt 0.055742 0.211900
vt 0.056430 0.228413
vt 0.040742 0.211900
vt 0.055492 0.213413
vt 0.056834 0.211004
vt 0.055492 0.228413
vt 0.041834 0.211004
vt 0.054555 0.213413
vt 0.057729 0.209913
vt 0.054555 0.228413
vt 0.042729 0.209913
vt 0.053617 0.213413
vt 0.058394 0.208668
vt 0.053617 0.228413
vt 0.043394 0.208668
vt 0.052680 0.213413
vt 0.058804 0.207318
vt 0.052680 0.228413
vt 0.043804 0.207318
vt 0.051742 0.213413
vt 0.058942 0.205913
vt 0.051742 0.228413
vt 0.043942 0.205913
vt 0.050805 0.213413
vt 0.058804 0.204508
vt 0.050805 0.228413
vt 0.043804 0.204508
vt 0.049867 0.213413
vt 0.058394 0.203158
vt 0.049867 0.228413
vt 0.043394 0.203158
vt 0.048930 0.213413
vt 0.057729 0.201913
vt 0.048930 0.228413
vt 0.042729 0.201913
vt 0.047992 0.213413
vt 0.056834 0.200822
vt 0.047992 0.228413
vt 0.041834 0.200822
vt 0.047055 0.213413
vt 0.055742 0.199927
vt 0.047055 0.228413
vt 0.040742 0.199927
vt 0.046117 0.213413
vt 0.054498 0.199261
vt 0.046117 0.228413
vt 0.039498 0.199261
vt 0.045180 0.213413
vt 0.053147 0.198851
vt 0.045180 0.228413
vt 0.038147 0.198851
vt 0.044242 0.213413
vt 0.051742 0.198713
vt 0.044242 0.228413
vt 0.036742 0.198713
vt 0.043305 0.213413
vt 0.050338 0.198851
vt 0.043305 0.228413
vt 0.035338 0.198851
vt 0.042367 0.213413
vt 0.048987 0.199261
vt 0.042367 0.228413
vt 0.033987 0.199261
vt 0.041430 0.213413
vt 0.047742 0.199927
vt 0.041430 0.228413
vt 0.032742 0.199927
vt 0.040492 0.213413
vt 0.046651 0.200822
vt 0.040492 0.228413
vt 0.031651 0.200822
vt 0.039555 0.213413
vt 0.045756 0.201913
vt 0.039555 0.228413
vt 0.030756 0.201913
vt 0.038617 0.213413
vt 0.045090 0.203158
vt 0.038617 0.228413
vt 0.030090 0.203158
vt 0.037680 0.213413
vt 0.044681 0.204508
vt 0.037680 0.228413
vt 0.029681 0.204508
vt 0.036742 0.213413
vt 0.044542 0.205913
vt 0.036742 0.228413
vt 0.029542 0.205913
vt 0.035805 0.213413
vt 0.044681 0.207318
vt 0.035805 0.228413
vt 0.029681 0.207318
vt 0.034867 0.213413
vt 0.045090 0.208668
vt 0.034867 0.228413
vt 0.030090 0.208668
vt 0.033930 0.213413
vt 0.045756 0.209913
vt 0.033930 0.228413
vt 0.030756 0.209913
vt 0.032992 0.213413
vt 0.046651 0.211004
vt 0.032992 0.228413
vt 0.031651 0.211004
vt 0.032055 0.213413
vt 0.047742 0.211900
vt 0.032055 0.228413
vt 0.032742 0.211900
vt 0.031117 0.213413
vt 0.048987 0.212565
vt 0.033987 0.212565
vt 0.031117 0.228413
vt 0.030180 0.213413
vt 0.050338 0.212975
vt 0.035338 0.212975
vt 0.030180 0.228413
vt 0.593750 0.149428
vt 0.343750 0.149428
vt 0.343750 0.399428
vt 0.593750 0.191712
vt 0.343750 0.191712
vt 0.343750 0.441712
vt 0.593750 0.158333
vt 0.343750 0.158333
vt 0.593750 0.207137
vt 0.343750 0.207137
vt 0.593750 0.207137
vt 0.343750 0.207137
vt 0.593750 0.158333
vt 0.343750 0.158333
vt 0.593750 0.191712
vt 0.343750 0.191712
vt 0.343750 0.441712
vt 0.593750 0.149428
vt 0.343750 0.149428
vt 0.343750 0.399428
vt 0.593750 0.191712
vt 0.343750 0.191712
vt 0.343750 0.441712
vt 0.593750 0.207189
vt 0.343750 0.207189
vt 0.343750 0.457189
vt 0.593750 0.207137
vt 0.343750 0.207137
vt 0.593750 0.225000
vt 0.343750 0.225000
vt 0.593750 0.225000
vt 0.343750 0.225000
vt 0.593750 0.207137
vt 0.343750 0.207137
vt 0.593750 0.207189
vt 0.343750 0.207189
vt 0.343750 0.457189
vt 0.593750 0.191712
vt 0.343750 0.191712
vt 0.343750 0.441712
vt 0.593750 0.149428
vt 0.343750 0.149428
vt 0.343750 0.399428
vt 0.593750 0.091667
vt 0.343750 0.091667
vt 0.343750 0.341667
vt 0.593750 0.158333
vt 0.343750 0.158333
vt 0.593750 0.091667
vt 0.343750 0.091667
vt 0.593750 0.091667
vt 0.343750 0.091667
vt 0.593750 0.158333
vt 0.343750 0.158333
vt 0.593750 0.149428
vt 0.343750 0.149428
vt 0.343750 0.399428
vt 0.593750 0.091667
vt 0.343750 0.091667
vt 0.343750 0.341667
vt 0.593750 0.025000
vt 0.343750 0.275000
vt 0.593750 0.025000
vt 0.593750 0.091667
vt 0.343750 0.091667
vt 0.343750 0.341667
vt 0.593750 0.091667
vt 0.343750 0.091667
vt 0.593750 0.091667
vt 0.343750 0.091667
vt 0.593750 0.025000
vt 0.593750 0.025000
vt 0.343750 0.275000
vt 0.593750 0.091667
vt 0.343750 0.091667
vt 0.343750 0.341667
vt 0.593750 0.025000
vt 0.343750 0.275000
vt 0.593750 0.091667
vt 0.343750 0.341667
vt 0.593750 0.025000
vt 0.343750 0.275000
vt 0.593750 0.091667
vt 0.343750 0.341667
vt 0.593750 0.139971
vt 0.343750 0.389971
vt 0.593750 0.139971
vt 0.343750 0.389971
vt 0.593750 0.175332
vt 0.343750 0.425332
vt 0.593750 0.175332
vt 0.343750 0.425332
vt 0.593750 0.188275
vt 0.343750 0.438275
vt 0.593750 0.188275
vt 0.343750 0.438275
vt 0.593750 0.175332
vt 0.343750 0.425332
vt 0.593750 0.175332
vt 0.343750 0.425332
vt 0.593750 0.139971
vt 0.343750 0.389971
vt 0.593750 0.139971
vt 0.343750 0.389971
vt 0.593750 0.091667
vt 0.343750 0.341667
vt 0.593750 0.091667
vt 0.343750 0.341667
vt 0.593750 0.025000
vt 0.343750 0.275000
vt 0.593750 0.025000
vt 0.343750 0.275000
vt 0.593750 0.025000
vt 0.343750 0.025000
vt 0.343750 0.275000
vt 0.593750 0.025000
vt 0.343750 0.025000
vt 0.343750 0.275000
vt 0.593750 0.025000
vt 0.343750 0.025000
vt 0.593750 0.025000
vt 0.343750 0.025000
s 0
f 2/4/1 3/7/1 1/1/1
f 4/9/2 5/11/2 3/7/2
f 6/13/3 7/15/3 5/11/3
f 8/17/4 9/19/4 7/15/4
f 10/21/5 11/23/5 9/19/5
f 12/25/6 13/27/6 11/23/6
f 14/29/7 15/31/7 13/27/7
f 16/33/8 17/35/8 15/31/8
f 18/37/9 19/39/9 17/35/9
f 20/41/10 21/43/10 19/39/10
f 22/45/11 23/47/11 21/43/11
f 24/49/12 25/51/12 23/47/12
f 26/53/13 27/55/13 25/51/13
f 28/57/14 29/59/14 27/55/14
f 30/61/15 31/63/15 29/59/15
f 32/65/16 33/67/16 31/63/16
f 34/69/17 35/71/17 33/67/17
f 36/73/18 37/75/18 35/71/18
f 38/77/19 39/79/19 37/75/19
f 40/81/20 41/83/20 39/79/20
f 42/85/21 43/87/21 41/83/21
f 44/89/22 45/91/22 43/87/22
f 46/93/23 47/95/23 45/91/23
f 48/97/24 49/99/24 47/95/24
f 50/101/25 51/103/25 49/99/25
f 52/105/26 53/107/26 51/103/26
f 54/109/27 55/111/27 53/107/27
f 56/113/28 57/115/28 55/111/28
f 58/117/29 59/119/29 57/115/29
f 60/121/30 61/123/30 59/119/30
f 38/78/31 22/46/31 6/14/31
f 62/126/32 63/127/32 61/123/32
f 64/130/33 1/2/33 63/127/33
f 31/64/34 47/96/34 63/128/34
f 67/137/35 66/134/35 65/131/35
f 66/134/35 67/137/35 68/139/35
f 67/137/36 69/141/36 68/139/36
f 69/141/36 67/137/36 70/143/36
f 70/143/37 71/145/37 69/141/37
f 71/145/37 70/143/37 72/148/37
f 75/157/38 74/154/38 73/151/38
f 74/154/38 75/157/38 76/159/38
f 75/157/39 77/161/39 76/159/39
f 77/161/39 75/157/39 78/163/39
f 78/163/40 79/165/40 77/161/40
f 79/165/40 78/163/40 80/168/40
f 83/177/41 82/174/41 81/171/41
f 82/174/41 83/177/41 84/179/41
f 83/177/42 85/181/42 84/179/42
f 85/181/42 83/177/42 86/183/42
f 87/185/43 85/181/43 86/183/43
f 85/181/43 87/185/43 88/188/43
f 91/194/44 90/193/44 89/191/44
f 90/193/44 91/194/44 92/197/44
f 93/199/45 90/193/45 92/197/45
f 90/193/45 93/199/45 94/201/45
f 93/199/46 95/202/46 94/201/46
f 95/202/46 93/199/46 96/204/46
f 99/211/47 98/209/47 97/207/47
f 98/209/47 99/211/47 100/213/47
f 100/213/45 101/215/45 98/209/45
f 101/215/45 100/213/45 102/217/45
f 103/219/48 101/215/48 102/217/48
f 101/215/48 103/219/48 104/221/48
f 105/223/49 104/221/49 103/219/49
f 104/221/49 105/223/49 106/225/49
f 107/227/50 106/225/50 105/223/50
f 106/225/50 107/227/50 108/229/50
f 109/231/51 108/229/51 107/227/51
f 108/229/51 109/231/51 110/233/51
f 111/235/52 110/233/52 109/231/52
f 110/233/52 111/235/52 112/237/52
f 113/239/42 112/237/42 111/235/42
f 112/237/42 113/239/42 114/241/42
f 95/202/53 90/193/53 94/201/53
f 90/193/53 95/202/53 89/191/53
f 89/191/53 95/202/53 114/241/53
f 89/191/53 114/241/53 113/239/53
f 115/243/53 99/211/53 97/207/53
f 99/211/53 115/243/53 116/246/53
f 116/246/53 115/243/53 117/249/53
f 116/246/53 117/249/53 118/251/53
f 118/252/52 84/180/52 85/182/52
f 84/180/52 118/252/52 117/250/52
f 72/149/54 92/198/54 91/195/54
f 92/198/54 72/149/54 70/144/54
f 67/138/47 92/198/47 70/144/47
f 92/198/47 67/138/47 93/200/47
f 76/160/55 68/140/55 69/142/55
f 68/140/55 76/160/55 77/162/55
f 68/140/56 79/166/56 66/135/56
f 79/166/56 68/140/56 77/162/56
f 67/138/57 96/205/57 93/200/57
f 96/205/57 67/138/57 65/132/57
f 74/155/58 69/142/58 71/146/58
f 69/142/58 74/155/58 76/160/58
f 80/169/59 83/178/59 81/172/59
f 83/178/59 80/169/59 78/164/59
f 86/184/60 73/152/60 87/186/60
f 73/152/60 86/184/60 75/158/60
f 118/252/61 88/189/61 116/247/61
f 88/189/61 118/252/61 85/182/61
f 115/244/62 84/180/62 117/250/62
f 84/180/62 115/244/62 82/175/62
f 86/184/63 78/164/63 75/158/63
f 78/164/63 86/184/63 83/178/63
f 88/190/34 99/212/34 116/248/34
f 99/212/34 88/190/34 100/214/34
f 100/214/34 88/190/34 87/187/34
f 100/214/34 87/187/34 102/218/34
f 102/218/34 87/187/34 103/220/34
f 103/220/34 87/187/34 73/153/34
f 103/220/34 73/153/34 105/224/34
f 71/147/34 105/224/34 73/153/34
f 71/147/34 73/153/34 74/156/34
f 71/147/34 107/228/34 105/224/34
f 72/150/34 107/228/34 71/147/34
f 72/150/34 109/232/34 107/228/34
f 72/150/34 111/236/34 109/232/34
f 91/196/34 111/236/34 72/150/34
f 91/196/34 113/240/34 111/236/34
f 113/240/34 91/196/34 89/192/34
f 96/206/31 114/242/31 95/203/31
f 114/242/31 96/206/31 112/238/31
f 112/238/31 96/206/31 65/133/31
f 112/238/31 65/133/31 110/234/31
f 110/234/31 65/133/31 108/230/31
f 108/230/31 65/133/31 66/136/31
f 108/230/31 66/136/31 106/226/31
f 80/170/31 106/226/31 66/136/31
f 80/170/31 66/136/31 79/167/31
f 80/170/31 104/222/31 106/226/31
f 81/173/31 104/222/31 80/170/31
f 81/173/31 101/216/31 104/222/31
f 82/176/31 101/216/31 81/173/31
f 82/176/31 98/210/31 101/216/31
f 82/176/31 97/208/31 98/210/31
f 97/208/31 82/176/31 115/245/31
f 67/137/35 66/134/35 65/131/35
f 66/134/35 67/137/35 68/139/35
f 67/137/36 69/141/36 68/139/36
f 69/141/36 67/137/36 70/143/36
f 70/143/37 71/145/37 69/141/37
f 71/145/37 70/143/37 72/148/37
f 75/157/38 74/154/38 73/151/38
f 74/154/38 75/157/38 76/159/38
f 75/157/39 77/161/39 76/159/39
f 77/161/39 75/157/39 78/163/39
f 78/163/40 79/165/40 77/161/40
f 79/165/40 78/163/40 80/168/40
f 83/177/41 82/174/41 81/171/41
f 82/174/41 83/177/41 84/179/41
f 83/177/42 85/181/42 84/179/42
f 85/181/42 83/177/42 86/183/42
f 87/185/43 85/181/43 86/183/43
f 85/181/43 87/185/43 88/188/43
f 91/194/44 90/193/44 89/191/44
f 90/193/44 91/194/44 92/197/44
f 93/199/45 90/193/45 92/197/45
f 90/193/45 93/199/45 94/201/45
f 93/199/46 95/202/46 94/201/46
f 95/202/46 93/199/46 96/204/46
f 99/211/47 98/209/47 97/207/47
f 98/209/47 99/211/47 100/213/47
f 100/213/45 101/215/45 98/209/45
f 101/215/45 100/213/45 102/217/45
f 103/219/48 101/215/48 102/217/48
f 101/215/48 103/219/48 104/221/48
f 105/223/49 104/221/49 103/219/49
f 104/221/49 105/223/49 106/225/49
f 107/227/50 106/225/50 105/223/50
f 106/225/50 107/227/50 108/229/50
f 109/231/51 108/229/51 107/227/51
f 108/229/51 109/231/51 110/233/51
f 111/235/52 110/233/52 109/231/52
f 110/233/52 111/235/52 112/237/52
f 113/239/42 112/237/42 111/235/42
f 112/237/42 113/239/42 114/241/42
f 95/202/53 90/193/53 94/201/53
f 90/193/53 95/202/53 89/191/53
f 89/191/53 95/202/53 114/241/53
f 89/191/53 114/241/53 113/239/53
f 115/243/53 99/211/53 97/207/53
f 99/211/53 115/243/53 116/246/53
f 116/246/53 115/243/53 117/249/53
f 116/246/53 117/249/53 118/251/53
f 118/252/52 84/180/52 85/182/52
f 84/180/52 118/252/52 117/250/52
f 72/149/54 92/198/54 91/195/54
f 92/198/54 72/149/54 70/144/54
f 67/138/47 92/198/47 70/144/47
f 92/198/47 67/138/47 93/200/47
f 76/160/55 68/140/55 69/142/55
f 68/140/55 76/160/55 77/162/55
f 68/140/56 79/166/56 66/135/56
f 79/166/56 68/140/56 77/162/56
f 67/138/57 96/205/57 93/200/57
f 96/205/57 67/138/57 65/132/57
f 74/155/58 69/142/58 71/146/58
f 69/142/58 74/155/58 76/160/58
f 80/169/59 83/178/59 81/172/59
f 83/178/59 80/169/59 78/164/59
f 86/184/60 73/152/60 87/186/60
f 73/152/60 86/184/60 75/158/60
f 118/252/61 88/189/61 116/247/61
f 88/189/61 118/252/61 85/182/61
f 115/244/62 84/180/62 117/250/62
f 84/180/62 115/244/62 82/175/62
f 86/184/63 78/164/63 75/158/63
f 78/164/63 86/184/63 83/178/63
f 88/190/34 99/212/34 116/248/34
f 99/212/34 88/190/34 100/214/34
f 100/214/34 88/190/34 87/187/34
f 100/214/34 87/187/34 102/218/34
f 102/218/34 87/187/34 103/220/34
f 103/220/34 87/187/34 73/153/34
f 103/220/34 73/153/34 105/224/34
f 71/147/34 105/224/34 73/153/34
f 71/147/34 73/153/34 74/156/34
f 71/147/34 107/228/34 105/224/34
f 72/150/34 107/228/34 71/147/34
f 72/150/34 109/232/34 107/228/34
f 72/150/34 111/236/34 109/232/34
f 91/196/34 111/236/34 72/150/34
f 91/196/34 113/240/34 111/236/34
f 113/240/34 91/196/34 89/192/34
f 96/206/31 114/242/31 95/203/31
f 114/242/31 96/206/31 112/238/31
f 112/238/31 96/206/31 65/133/31
f 112/238/31 65/133/31 110/234/31
f 110/234/31 65/133/31 108/230/31
f 108/230/31 65/133/31 66/136/31
f 108/230/31 66/136/31 106/226/31
f 80/170/31 106/226/31 66/136/31
f 80/170/31 66/136/31 79/167/31
f 80/170/31 104/222/31 106/226/31
f 81/173/31 104/222/31 80/170/31
f 81/173/31 101/216/31 104/222/31
f 82/176/31 101/216/31 81/173/31
f 82/176/31 98/210/31 101/216/31
f 82/176/31 97/208/31 98/210/31
f 97/208/31 82/176/31 115/245/31
f 2/4/1 4/9/1 3/7/1
f 4/9/2 6/13/2 5/11/2
f 6/13/3 8/17/3 7/15/3
f 8/17/4 10/21/4 9/19/4
f 10/21/5 12/25/5 11/23/5
f 12/25/6 14/29/6 13/27/6
f 14/29/7 16/33/7 15/31/7
f 16/33/8 18/37/8 17/35/8
f 18/37/9 20/41/9 19/39/9
f 20/41/10 22/45/10 21/43/10
f 22/45/11 24/49/11 23/47/11
f 24/49/12 26/53/12 25/51/12
f 26/53/13 28/57/13 27/55/13
f 28/57/14 30/61/14 29/59/14
f 30/61/15 32/65/15 31/63/15
f 32/65/16 34/69/16 33/67/16
f 34/69/17 36/73/17 35/71/17
f 36/73/18 38/77/18 37/75/18
f 38/77/19 40/81/19 39/79/19
f 40/81/20 42/85/20 41/83/20
f 42/85/21 44/89/21 43/87/21
f 44/89/22 46/93/22 45/91/22
f 46/93/23 48/97/23 47/95/23
f 48/97/24 50/101/24 49/99/24
f 50/101/25 52/105/25 51/103/25
f 52/105/26 54/109/26 53/107/26
f 54/109/27 56/113/27 55/111/27
f 56/113/28 58/117/28 57/115/28
f 58/117/29 60/121/29 59/119/29
f 60/121/30 62/126/30 61/123/30
f 6/14/31 4/10/31 2/5/31
f 2/5/31 64/129/31 62/125/31
f 62/125/31 60/122/31 58/118/31
f 58/118/31 56/114/31 54/110/31
f 54/110/31 52/106/31 50/102/31
f 50/102/31 48/98/31 46/94/31
f 46/94/31 44/90/31 42/86/31
f 42/86/31 40/82/31 38/78/31
f 38/78/31 36/74/31 34/70/31
f 34/70/31 32/66/31 30/62/31
f 30/62/31 28/58/31 26/54/31
f 26/54/31 24/50/31 22/46/31
f 22/46/31 20/42/31 18/38/31
f 18/38/31 16/34/31 14/30/31
f 14/30/31 12/26/31 10/22/31
f 10/22/31 8/18/31 6/14/31
f 6/14/31 2/5/31 62/125/31
f 62/125/31 58/118/31 54/110/31
f 54/110/31 50/102/31 46/94/31
f 46/94/31 42/86/31 38/78/31
f 38/78/31 34/70/31 30/62/31
f 30/62/31 26/54/31 22/46/31
f 22/46/31 18/38/31 14/30/31
f 14/30/31 10/22/31 6/14/31
f 6/14/31 62/125/31 54/110/31
f 54/110/31 46/94/31 38/78/31
f 38/78/31 30/62/31 22/46/31
f 22/46/31 14/30/31 6/14/31
f 6/14/31 54/110/31 38/78/31
f 62/126/32 64/130/32 63/127/32
f 64/130/33 2/6/33 1/2/33
f 63/128/34 1/3/34 3/8/34
f 3/8/34 5/12/34 7/16/34
f 7/16/34 9/20/34 11/24/34
f 11/24/34 13/28/34 15/32/34
f 15/32/34 17/36/34 19/40/34
f 19/40/34 21/44/34 23/48/34
f 23/48/34 25/52/34 27/56/34
f 27/56/34 29/60/34 31/64/34
f 31/64/34 33/68/34 35/72/34
f 35/72/34 37/76/34 39/80/34
f 39/80/34 41/84/34 43/88/34
f 43/88/34 45/92/34 47/96/34
f 47/96/34 49/100/34 51/104/34
f 51/104/34 53/108/34 55/112/34
f 55/112/34 57/116/34 59/120/34
f 59/120/34 61/124/34 63/128/34
f 63/128/34 3/8/34 7/16/34
f 7/16/34 11/24/34 15/32/34
f 15/32/34 19/40/34 23/48/34
f 23/48/34 27/56/34 31/64/34
f 31/64/34 35/72/34 39/80/34
f 39/80/34 43/88/34 47/96/34
f 47/96/34 51/104/34 55/112/34
f 55/112/34 59/120/34 63/128/34
f 63/128/34 7/16/34 15/32/34
f 15/32/34 23/48/34 31/64/34
f 31/64/34 39/80/34 47/96/34
f 47/96/34 55/112/34 63/128/34
f 63/128/34 15/32/34 31/64/34
