# Blender 3.3.1
# www.blender.org
o Cylinder
v 0.050000 0.600000 0.400000
v -0.050000 0.600000 0.400000
v 0.050000 0.588471 0.517054
v -0.050000 0.588471 0.517054
v 0.050000 0.554328 0.629610
v -0.050000 0.554328 0.629610
v 0.050000 0.498882 0.733342
v -0.050000 0.498882 0.733342
v 0.050000 0.424264 0.824264
v -0.050000 0.424264 0.824264
v 0.050000 0.333342 0.898882
v -0.050000 0.333342 0.898882
v 0.050000 0.229610 0.954328
v -0.050000 0.229610 0.954328
v 0.050000 0.117054 0.988471
v -0.050000 0.117054 0.988471
v 0.050000 -0.000000 1.000000
v -0.050000 0.000000 1.000000
v 0.050000 -0.117054 0.988471
v -0.050000 -0.117054 0.988471
v 0.050000 -0.229610 0.954328
v -0.050000 -0.229610 0.954328
v 0.050000 -0.333342 0.898882
v -0.050000 -0.333342 0.898882
v 0.050000 -0.424264 0.824264
v -0.050000 -0.424264 0.824264
v 0.050000 -0.498882 0.733342
v -0.050000 -0.498882 0.733342
v 0.050000 -0.554328 0.629610
v -0.050000 -0.554328 0.629610
v 0.050000 -0.588471 0.517054
v -0.050000 -0.588471 0.517054
v 0.050000 -0.600000 0.400000
v -0.050000 -0.600000 0.400000
v 0.050000 -0.588471 0.282946
v -0.050000 -0.588471 0.282946
v 0.050000 -0.554328 0.170390
v -0.050000 -0.554328 0.170390
v 0.050000 -0.498882 0.066658
v -0.050000 -0.498882 0.066658
v 0.050000 -0.424264 -0.024264
v -0.050000 -0.424264 -0.024264
v 0.050000 -0.333342 -0.098882
v -0.050000 -0.333342 -0.098882
v 0.050000 -0.229610 -0.154328
v -0.050000 -0.229610 -0.154328
v 0.050000 -0.117054 -0.188471
v -0.050000 -0.117054 -0.188471
v 0.050000 -0.000000 -0.200000
v -0.050000 0.000000 -0.200000
v 0.050000 0.117054 -0.188471
v -0.050000 0.117054 -0.188471
v 0.050000 0.229610 -0.154328
v -0.050000 0.229610 -0.154328
v 0.050000 0.333342 -0.098882
v -0.050000 0.333342 -0.098882
v 0.050000 0.424264 -0.024264
v -0.050000 0.424264 -0.024264
v 0.050000 0.498882 0.066658
v -0.050000 0.498882 0.066658
v 0.050000 0.554328 0.170390
v -0.050000 0.554328 0.170390
v 0.050000 0.588471 0.282946
v -0.050000 0.588471 0.282946
v 0.150000 -0.335736 0.969012
v 0.050000 -0.387500 1.058670
v 0.150000 -0.000000 1.058972
v 0.050000 -0.000000 1.162500
v 0.150000 0.567642 -0.000000
v 0.150000 0.457704 -0.000000
v 0.150000 0.671472 0.387500
v 0.150000 0.561535 0.387500
v 0.150000 0.581512 0.723236
v 0.150000 0.486303 0.668267
v 0.150000 0.280767 0.873803
v 0.150000 0.335736 0.969012
v 0.150000 -0.000000 0.949035
v 0.150000 -0.280767 0.873803
v 0.150000 -0.581512 0.723236
v 0.150000 -0.486303 0.668267
v 0.150000 -0.671472 0.387500
v 0.150000 -0.561535 0.387500
v 0.150000 -0.457704 -0.000000
v 0.150000 -0.567642 -0.000000
v -0.050000 -0.775000 0.387500
v 0.050000 -0.775000 0.387500
v -0.050000 -0.671170 -0.000000
v 0.050000 -0.671170 -0.000000
v -0.150000 -0.671472 0.387500
v -0.150000 -0.581512 0.723236
v -0.050000 -0.671170 0.775000
v 0.050000 0.671170 -0.000000
v 0.050000 0.775000 0.387500
v -0.150000 0.567642 -0.000000
v -0.050000 0.671170 -0.000000
v -0.150000 0.671472 0.387500
v -0.050000 0.775000 0.387500
v -0.150000 -0.335736 0.969012
v -0.150000 0.000000 1.058972
v -0.050000 -0.387500 1.058670
v -0.050000 0.000000 1.162500
v -0.150000 0.581512 0.723236
v -0.050000 0.671170 0.775000
v 0.050000 -0.671170 0.775000
v 0.050000 0.671170 0.775000
v -0.150000 0.335736 0.969012
v -0.050000 0.387500 1.058670
v 0.050000 0.387500 1.058670
v -0.150000 -0.567642 -0.000000
v -0.150000 -0.457704 -0.000000
v -0.150000 -0.561535 0.387500
v -0.150000 -0.486303 0.668267
v -0.150000 -0.280767 0.873803
v -0.150000 0.000000 0.949035
v -0.150000 0.280767 0.873803
v -0.150000 0.486303 0.668267
v -0.150000 0.561535 0.387500
v -0.150000 0.457704 -0.000000
vn -0.0000 0.9952 0.0980
vn -0.0000 0.9569 0.2903
vn -0.0000 0.8819 0.4714
vn -0.0000 0.7730 0.6344
vn -0.0000 0.6344 0.7730
vn -0.0000 0.4714 0.8819
vn -0.0000 0.2903 0.9569
vn -0.0000 0.0980 0.9952
vn -0.0000 -0.0980 0.9952
vn -0.0000 -0.2903 0.9569
vn -0.0000 -0.4714 0.8819
vn -0.0000 -0.6344 0.7730
vn -0.0000 -0.7730 0.6344
vn -0.0000 -0.8819 0.4714
vn -0.0000 -0.9569 0.2903
vn -0.0000 -0.9952 0.0980
vn -0.0000 -0.9952 -0.0980
vn -0.0000 -0.9569 -0.2903
vn -0.0000 -0.8819 -0.4714
vn -0.0000 -0.7730 -0.6344
vn -0.0000 -0.6344 -0.7730
vn -0.0000 -0.4714 -0.8819
vn -0.0000 -0.2903 -0.9569
vn -0.0000 -0.0980 -0.9952
vn -0.0000 0.0980 -0.9952
vn -0.0000 0.2903 -0.9569
vn -0.0000 0.4714 -0.8819
vn -0.0000 0.6344 -0.7730
vn -0.0000 0.7730 -0.6344
vn -0.0000 0.8819 -0.4714
vn -1.0000 -0.0000 -0.0000
vn -0.0000 0.9569 -0.2903
vn -0.0000 0.9952 -0.0980
vn 1.0000 -0.0000 -0.0000
vn 0.7071 -0.1830 0.6830
vn -0.0000 -0.9659 -0.2588
vn -0.7071 -0.6830 0.1830
vn 0.7071 -0.6830 -0.1830
vn 0.7071 0.6830 -0.1830
vn -0.7071 0.6830 -0.1830
vn -0.7071 -0.1830 0.6830
vn -0.7071 0.6830 0.1830
vn -0.0000 -0.7071 0.7071
vn 0.7071 -0.5000 0.5000
vn 0.7071 0.6830 0.1830
vn -0.0000 -0.9659 0.2588
vn -0.7071 0.1830 0.6830
vn -0.7071 -0.5000 0.5000
vn -0.0000 -0.2588 0.9659
vn 0.7071 0.1830 0.6830
vn -0.0000 0.2588 0.9659
vn -0.0000 0.9659 0.2588
vn -0.7071 -0.6830 -0.1830
vn -0.0000 0.7071 0.7071
vn 0.7071 0.5000 0.5000
vn -0.7071 0.5000 0.5000
vn 0.7071 -0.6830 0.1830
vn -0.0000 0.9659 -0.2588
vn -0.0000 -0.0000 -1.0000
vn -0.0000 -0.7071 -0.7071
vn -0.0000 -0.2588 -0.9659
vn -0.0000 0.2588 -0.9659
vn -0.0000 0.7071 -0.7071
vt 0.508906 0.792059
vt 0.498906 0.792059
vt 0.506406 0.791959
vt 0.508906 0.797059
vt 0.501406 0.791959
vt 0.498906 0.797059
vt 0.508594 0.792059
vt 0.506874 0.791913
vt 0.508594 0.797059
vt 0.501875 0.791913
vt 0.508281 0.792059
vt 0.507325 0.791777
vt 0.508281 0.797059
vt 0.502325 0.791777
vt 0.507969 0.792059
vt 0.507740 0.791555
vt 0.507969 0.797059
vt 0.502740 0.791555
vt 0.507656 0.792059
vt 0.508103 0.791256
vt 0.507656 0.797059
vt 0.503103 0.791256
vt 0.507344 0.792059
vt 0.508402 0.790893
vt 0.507344 0.797059
vt 0.503402 0.790893
vt 0.507031 0.792059
vt 0.508624 0.790478
vt 0.507031 0.797059
vt 0.503624 0.790478
vt 0.506719 0.792059
vt 0.508760 0.790028
vt 0.506719 0.797059
vt 0.503760 0.790028
vt 0.506406 0.792059
vt 0.508806 0.789559
vt 0.506406 0.797059
vt 0.503806 0.789559
vt 0.506094 0.792059
vt 0.508760 0.789091
vt 0.506094 0.797059
vt 0.503760 0.789091
vt 0.505781 0.792059
vt 0.508624 0.788641
vt 0.505781 0.797059
vt 0.503624 0.788641
vt 0.505469 0.792059
vt 0.508402 0.788226
vt 0.505469 0.797059
vt 0.503402 0.788226
vt 0.505156 0.792059
vt 0.508103 0.787862
vt 0.505156 0.797059
vt 0.503103 0.787862
vt 0.504844 0.792059
vt 0.507740 0.787564
vt 0.504844 0.797059
vt 0.502740 0.787564
vt 0.504531 0.792059
vt 0.507325 0.787342
vt 0.504531 0.797059
vt 0.502325 0.787342
vt 0.504219 0.792059
vt 0.506874 0.787205
vt 0.504219 0.797059
vt 0.501875 0.787205
vt 0.503906 0.792059
vt 0.506406 0.787159
vt 0.503906 0.797059
vt 0.501406 0.787159
vt 0.503594 0.792059
vt 0.505938 0.787205
vt 0.503594 0.797059
vt 0.500938 0.787205
vt 0.503281 0.792059
vt 0.505488 0.787342
vt 0.503281 0.797059
vt 0.500488 0.787342
vt 0.502969 0.792059
vt 0.505073 0.787564
vt 0.502969 0.797059
vt 0.500073 0.787564
vt 0.502656 0.792059
vt 0.504709 0.787862
vt 0.502656 0.797059
vt 0.499709 0.787862
vt 0.502344 0.792059
vt 0.504411 0.788226
vt 0.502344 0.797059
vt 0.499411 0.788226
vt 0.502031 0.792059
vt 0.504189 0.788641
vt 0.502031 0.797059
vt 0.499189 0.788641
vt 0.501719 0.792059
vt 0.504052 0.789091
vt 0.501719 0.797059
vt 0.499052 0.789091
vt 0.501406 0.792059
vt 0.504006 0.789559
vt 0.501406 0.797059
vt 0.499006 0.789559
vt 0.501094 0.792059
vt 0.504052 0.790028
vt 0.501094 0.797059
vt 0.499052 0.790028
vt 0.500781 0.792059
vt 0.504189 0.790478
vt 0.500781 0.797059
vt 0.499189 0.790478
vt 0.500469 0.792059
vt 0.504411 0.790893
vt 0.500469 0.797059
vt 0.499411 0.790893
vt 0.500156 0.792059
vt 0.504709 0.791256
vt 0.500156 0.797059
vt 0.499709 0.791256
vt 0.499844 0.792059
vt 0.505073 0.791555
vt 0.499844 0.797059
vt 0.500073 0.791555
vt 0.499531 0.792059
vt 0.505488 0.791777
vt 0.500488 0.791777
vt 0.499531 0.797059
vt 0.499219 0.792059
vt 0.505938 0.791913
vt 0.500938 0.791913
vt 0.499219 0.797059
vt 0.343750 0.441712
vt 0.343750 0.457137
vt 0.343750 0.457189
vt 0.343750 0.475000
vt 0.343750 0.275000
vt 0.593750 0.025000
vt 0.343750 0.275000
vt 0.593750 0.025000
vt 0.343750 0.341667
vt 0.343750 0.341667
vt 0.593750 0.091667
vt 0.343750 0.399428
vt 0.343750 0.389971
vt 0.593750 0.139971
vt 0.343750 0.425332
vt 0.593750 0.175332
vt 0.343750 0.441712
vt 0.343750 0.438275
vt 0.593750 0.188275
vt 0.343750 0.425332
vt 0.593750 0.175332
vt 0.343750 0.399428
vt 0.343750 0.389971
vt 0.593750 0.139971
vt 0.343750 0.341667
vt 0.343750 0.341667
vt 0.593750 0.091667
vt 0.343750 0.275000
vt 0.593750 0.025000
vt 0.343750 0.275000
vt 0.593750 0.025000
vt 0.343750 0.341667
vt 0.343750 0.341667
vt 0.343750 0.275000
vt 0.593750 0.025000
vt 0.343750 0.275000
vt 0.593750 0.025000
vt 0.343750 0.341667
vt 0.343750 0.399428
vt 0.343750 0.408333
vt 0.343750 0.275000
vt 0.593750 0.025000
vt 0.343750 0.341667
vt 0.343750 0.275000
vt 0.593750 0.025000
vt 0.343750 0.275000
vt 0.593750 0.025000
vt 0.343750 0.341667
vt 0.343750 0.341667
vt 0.343750 0.441712
vt 0.343750 0.457189
vt 0.343750 0.457137
vt 0.343750 0.475000
vt 0.343750 0.399428
vt 0.343750 0.408333
vt 0.343750 0.408333
vt 0.343750 0.408333
vt 0.343750 0.441712
vt 0.343750 0.457137
vt 0.343750 0.457137
vt 0.343750 0.275000
vt 0.593750 0.025000
vt 0.343750 0.275000
vt 0.593750 0.025000
vt 0.343750 0.341667
vt 0.593750 0.091667
vt 0.343750 0.389971
vt 0.593750 0.139971
vt 0.343750 0.425332
vt 0.593750 0.175332
vt 0.343750 0.438275
vt 0.593750 0.188275
vt 0.343750 0.425332
vt 0.593750 0.175332
vt 0.343750 0.389971
vt 0.593750 0.139971
vt 0.343750 0.341667
vt 0.593750 0.091667
vt 0.343750 0.275000
vt 0.593750 0.025000
s 0
f 2/4/1 3/7/1 1/1/1
f 4/9/2 5/11/2 3/7/2
f 6/13/3 7/15/3 5/11/3
f 8/17/4 9/19/4 7/15/4
f 10/21/5 11/23/5 9/19/5
f 12/25/6 13/27/6 11/23/6
f 14/29/7 15/31/7 13/27/7
f 16/33/8 17/35/8 15/31/8
f 18/37/9 19/39/9 17/35/9
f 20/41/10 21/43/10 19/39/10
f 22/45/11 23/47/11 21/43/11
f 24/49/12 25/51/12 23/47/12
f 26/53/13 27/55/13 25/51/13
f 28/57/14 29/59/14 27/55/14
f 30/61/15 31/63/15 29/59/15
f 32/65/16 33/67/16 31/63/16
f 34/69/17 35/71/17 33/67/17
f 36/73/18 37/75/18 35/71/18
f 38/77/19 39/79/19 37/75/19
f 40/81/20 41/83/20 39/79/20
f 42/85/21 43/87/21 41/83/21
f 44/89/22 45/91/22 43/87/22
f 46/93/23 47/95/23 45/91/23
f 48/97/24 49/99/24 47/95/24
f 50/101/25 51/103/25 49/99/25
f 52/105/26 53/107/26 51/103/26
f 54/109/27 55/111/27 53/107/27
f 56/113/28 57/115/28 55/111/28
f 58/117/29 59/119/29 57/115/29
f 60/121/30 61/123/30 59/119/30
f 38/78/31 22/46/31 6/14/31
f 62/126/32 63/127/32 61/123/32
f 64/130/33 1/2/33 63/127/33
f 31/64/34 47/96/34 63/128/34
f 67/133/35 66/132/35 65/131/35
f 66/132/35 67/133/35 68/134/35
f 71/139/34 70/137/34 69/135/34
f 70/137/34 71/139/34 72/140/34
f 72/140/34 71/139/34 73/142/34
f 72/140/34 73/142/34 74/143/34
f 74/143/34 73/142/34 75/145/34
f 75/145/34 73/142/34 76/147/34
f 75/145/34 76/147/34 77/148/34
f 65/131/34 77/148/34 76/147/34
f 65/131/34 76/147/34 67/133/34
f 65/131/34 78/150/34 77/148/34
f 79/152/34 78/150/34 65/131/34
f 79/152/34 80/153/34 78/150/34
f 81/155/34 80/153/34 79/152/34
f 81/155/34 82/156/34 80/153/34
f 81/155/34 83/158/34 82/156/34
f 83/158/34 81/155/34 84/160/34
f 87/164/36 86/163/36 85/162/36
f 86/163/36 87/164/36 88/166/36
f 85/162/37 90/169/37 89/168/37
f 90/169/37 85/162/37 91/170/37
f 84/160/38 86/163/38 88/166/38
f 86/163/38 84/160/38 81/155/38
f 93/173/39 69/135/39 92/171/39
f 69/135/39 93/173/39 71/139/39
f 96/178/40 95/176/40 94/174/40
f 95/176/40 96/178/40 97/179/40
f 100/182/41 99/181/41 98/180/41
f 99/181/41 100/182/41 101/183/41
f 102/184/42 97/179/42 96/178/42
f 97/179/42 102/184/42 103/185/42
f 91/170/43 66/132/43 100/182/43
f 66/132/43 91/170/43 104/186/43
f 65/131/44 104/186/44 79/152/44
f 104/186/44 65/131/44 66/132/44
f 105/187/45 71/139/45 93/173/45
f 71/139/45 105/187/45 73/142/45
f 85/162/46 104/186/46 91/170/46
f 104/186/46 85/162/46 86/163/46
f 99/181/47 107/189/47 106/188/47
f 107/189/47 99/181/47 101/183/47
f 91/170/48 98/180/48 90/169/48
f 98/180/48 91/170/48 100/182/48
f 100/182/49 68/134/49 101/183/49
f 68/134/49 100/182/49 66/132/49
f 108/190/50 67/133/50 76/147/50
f 67/133/50 108/190/50 68/134/50
f 101/183/51 108/190/51 107/189/51
f 108/190/51 101/183/51 68/134/51
f 105/187/52 97/179/52 103/185/52
f 97/179/52 105/187/52 93/173/52
f 87/164/53 89/168/53 109/191/53
f 89/168/53 87/164/53 85/162/53
f 107/189/54 105/187/54 103/185/54
f 105/187/54 107/189/54 108/190/54
f 89/168/31 110/193/31 109/191/31
f 110/193/31 89/168/31 111/195/31
f 111/195/31 89/168/31 90/169/31
f 111/195/31 90/169/31 112/197/31
f 112/197/31 90/169/31 113/199/31
f 113/199/31 90/169/31 98/180/31
f 113/199/31 98/180/31 114/201/31
f 106/188/31 114/201/31 98/180/31
f 106/188/31 98/180/31 99/181/31
f 106/188/31 115/203/31 114/201/31
f 102/184/31 115/203/31 106/188/31
f 102/184/31 116/205/31 115/203/31
f 102/184/31 117/207/31 116/205/31
f 96/178/31 117/207/31 102/184/31
f 96/178/31 118/209/31 117/207/31
f 118/209/31 96/178/31 94/174/31
f 105/187/55 76/147/55 73/142/55
f 76/147/55 105/187/55 108/190/55
f 106/188/56 103/185/56 102/184/56
f 103/185/56 106/188/56 107/189/56
f 81/155/57 104/186/57 86/163/57
f 104/186/57 81/155/57 79/152/57
f 93/173/58 95/176/58 97/179/58
f 95/176/58 93/173/58 92/171/58
f 69/136/59 95/177/59 92/172/59
f 95/177/59 69/136/59 94/175/59
f 94/175/59 69/136/59 70/138/59
f 94/175/59 70/138/59 118/210/59
f 72/141/46 118/210/46 70/138/46
f 118/210/46 72/141/46 117/208/46
f 74/144/36 117/208/36 72/141/36
f 117/208/36 74/144/36 116/206/36
f 75/146/60 116/206/60 74/144/60
f 116/206/60 75/146/60 115/204/60
f 77/149/61 115/204/61 75/146/61
f 115/204/61 77/149/61 114/202/61
f 78/151/62 114/202/62 77/149/62
f 114/202/62 78/151/62 113/200/62
f 80/154/63 113/200/63 78/151/63
f 113/200/63 80/154/63 112/198/63
f 80/154/58 111/196/58 112/198/58
f 111/196/58 80/154/58 82/157/58
f 82/157/52 110/194/52 111/196/52
f 110/194/52 82/157/52 83/159/52
f 84/161/59 110/194/59 83/159/59
f 110/194/59 84/161/59 109/192/59
f 109/192/59 84/161/59 88/167/59
f 109/192/59 88/167/59 87/165/59
f 67/133/35 66/132/35 65/131/35
f 66/132/35 67/133/35 68/134/35
f 71/139/34 70/137/34 69/135/34
f 70/137/34 71/139/34 72/140/34
f 72/140/34 71/139/34 73/142/34
f 72/140/34 73/142/34 74/143/34
f 74/143/34 73/142/34 75/145/34
f 75/145/34 73/142/34 76/147/34
f 75/145/34 76/147/34 77/148/34
f 65/131/34 77/148/34 76/147/34
f 65/131/34 76/147/34 67/133/34
f 65/131/34 78/150/34 77/148/34
f 79/152/34 78/150/34 65/131/34
f 79/152/34 80/153/34 78/150/34
f 81/155/34 80/153/34 79/152/34
f 81/155/34 82/156/34 80/153/34
f 81/155/34 83/158/34 82/156/34
f 83/158/34 81/155/34 84/160/34
f 87/164/36 86/163/36 85/162/36
f 86/163/36 87/164/36 88/166/36
f 85/162/37 90/169/37 89/168/37
f 90/169/37 85/162/37 91/170/37
f 84/160/38 86/163/38 88/166/38
f 86/163/38 84/160/38 81/155/38
f 93/173/39 69/135/39 92/171/39
f 69/135/39 93/173/39 71/139/39
f 96/178/40 95/176/40 94/174/40
f 95/176/40 96/178/40 97/179/40
f 100/182/41 99/181/41 98/180/41
f 99/181/41 100/182/41 101/183/41
f 102/184/42 97/179/42 96/178/42
f 97/179/42 102/184/42 103/185/42
f 91/170/43 66/132/43 100/182/43
f 66/132/43 91/170/43 104/186/43
f 65/131/44 104/186/44 79/152/44
f 104/186/44 65/131/44 66/132/44
f 105/187/45 71/139/45 93/173/45
f 71/139/45 105/187/45 73/142/45
f 85/162/46 104/186/46 91/170/46
f 104/186/46 85/162/46 86/163/46
f 99/181/47 107/189/47 106/188/47
f 107/189/47 99/181/47 101/183/47
f 91/170/48 98/180/48 90/169/48
f 98/180/48 91/170/48 100/182/48
f 100/182/49 68/134/49 101/183/49
f 68/134/49 100/182/49 66/132/49
f 108/190/50 67/133/50 76/147/50
f 67/133/50 108/190/50 68/134/50
f 101/183/51 108/190/51 107/189/51
f 108/190/51 101/183/51 68/134/51
f 105/187/52 97/179/52 103/185/52
f 97/179/52 105/187/52 93/173/52
f 87/164/53 89/168/53 109/191/53
f 89/168/53 87/164/53 85/162/53
f 107/189/54 105/187/54 103/185/54
f 105/187/54 107/189/54 108/190/54
f 89/168/31 110/193/31 109/191/31
f 110/193/31 89/168/31 111/195/31
f 111/195/31 89/168/31 90/169/31
f 111/195/31 90/169/31 112/197/31
f 112/197/31 90/169/31 113/199/31
f 113/199/31 90/169/31 98/180/31
f 113/199/31 98/180/31 114/201/31
f 106/188/31 114/201/31 98/180/31
f 106/188/31 98/180/31 99/181/31
f 106/188/31 115/203/31 114/201/31
f 102/184/31 115/203/31 106/188/31
f 102/184/31 116/205/31 115/203/31
f 102/184/31 117/207/31 116/205/31
f 96/178/31 117/207/31 102/184/31
f 96/178/31 118/209/31 117/207/31
f 118/209/31 96/178/31 94/174/31
f 105/187/55 76/147/55 73/142/55
f 76/147/55 105/187/55 108/190/55
f 106/188/56 103/185/56 102/184/56
f 103/185/56 106/188/56 107/189/56
f 81/155/57 104/186/57 86/163/57
f 104/186/57 81/155/57 79/152/57
f 93/173/58 95/176/58 97/179/58
f 95/176/58 93/173/58 92/171/58
f 69/136/59 95/177/59 92/172/59
f 95/177/59 69/136/59 94/175/59
f 94/175/59 69/136/59 70/138/59
f 94/175/59 70/138/59 118/210/59
f 72/141/46 118/210/46 70/138/46
f 118/210/46 72/141/46 117/208/46
f 74/144/36 117/208/36 72/141/36
f 117/208/36 74/144/36 116/206/36
f 75/146/60 116/206/60 74/144/60
f 116/206/60 75/146/60 115/204/60
f 77/149/61 115/204/61 75/146/61
f 115/204/61 77/149/61 114/202/61
f 78/151/62 114/202/62 77/149/62
f 114/202/62 78/151/62 113/200/62
f 80/154/63 113/200/63 78/151/63
f 113/200/63 80/154/63 112/198/63
f 80/154/58 111/196/58 112/198/58
f 111/196/58 80/154/58 82/157/58
f 82/157/52 110/194/52 111/196/52
f 110/194/52 82/157/52 83/159/52
f 84/161/59 110/194/59 83/159/59
f 110/194/59 84/161/59 109/192/59
f 109/192/59 84/161/59 88/167/59
f 109/192/59 88/167/59 87/165/59
f 2/4/1 4/9/1 3/7/1
f 4/9/2 6/13/2 5/11/2
f 6/13/3 8/17/3 7/15/3
f 8/17/4 10/21/4 9/19/4
f 10/21/5 12/25/5 11/23/5
f 12/25/6 14/29/6 13/27/6
f 14/29/7 16/33/7 15/31/7
f 16/33/8 18/37/8 17/35/8
f 18/37/9 20/41/9 19/39/9
f 20/41/10 22/45/10 21/43/10
f 22/45/11 24/49/11 23/47/11
f 24/49/12 26/53/12 25/51/12
f 26/53/13 28/57/13 27/55/13
f 28/57/14 30/61/14 29/59/14
f 30/61/15 32/65/15 31/63/15
f 32/65/16 34/69/16 33/67/16
f 34/69/17 36/73/17 35/71/17
f 36/73/18 38/77/18 37/75/18
f 38/77/19 40/81/19 39/79/19
f 40/81/20 42/85/20 41/83/20
f 42/85/21 44/89/21 43/87/21
f 44/89/22 46/93/22 45/91/22
f 46/93/23 48/97/23 47/95/23
f 48/97/24 50/101/24 49/99/24
f 50/101/25 52/105/25 51/103/25
f 52/105/26 54/109/26 53/107/26
f 54/109/27 56/113/27 55/111/27
f 56/113/28 58/117/28 57/115/28
f 58/117/29 60/121/29 59/119/29
f 60/121/30 62/126/30 61/123/30
f 6/14/31 4/10/31 2/5/31
f 2/5/31 64/129/31 62/125/31
f 62/125/31 60/122/31 58/118/31
f 58/118/31 56/114/31 54/110/31
f 54/110/31 52/106/31 50/102/31
f 50/102/31 48/98/31 46/94/31
f 46/94/31 44/90/31 42/86/31
f 42/86/31 40/82/31 38/78/31
f 38/78/31 36/74/31 34/70/31
f 34/70/31 32/66/31 30/62/31
f 30/62/31 28/58/31 26/54/31
f 26/54/31 24/50/31 22/46/31
f 22/46/31 20/42/31 18/38/31
f 18/38/31 16/34/31 14/30/31
f 14/30/31 12/26/31 10/22/31
f 10/22/31 8/18/31 6/14/31
f 6/14/31 2/5/31 62/125/31
f 62/125/31 58/118/31 54/110/31
f 54/110/31 50/102/31 46/94/31
f 46/94/31 42/86/31 38/78/31
f 38/78/31 34/70/31 30/62/31
f 30/62/31 26/54/31 22/46/31
f 22/46/31 18/38/31 14/30/31
f 14/30/31 10/22/31 6/14/31
f 6/14/31 62/125/31 54/110/31
f 54/110/31 46/94/31 38/78/31
f 38/78/31 30/62/31 22/46/31
f 22/46/31 14/30/31 6/14/31
f 6/14/31 54/110/31 38/78/31
f 62/126/32 64/130/32 63/127/32
f 64/130/33 2/6/33 1/2/33
f 63/128/34 1/3/34 3/8/34
f 3/8/34 5/12/34 7/16/34
f 7/16/34 9/20/34 11/24/34
f 11/24/34 13/28/34 15/32/34
f 15/32/34 17/36/34 19/40/34
f 19/40/34 21/44/34 23/48/34
f 23/48/34 25/52/34 27/56/34
f 27/56/34 29/60/34 31/64/34
f 31/64/34 33/68/34 35/72/34
f 35/72/34 37/76/34 39/80/34
f 39/80/34 41/84/34 43/88/34
f 43/88/34 45/92/34 47/96/34
f 47/96/34 49/100/34 51/104/34
f 51/104/34 53/108/34 55/112/34
f 55/112/34 57/116/34 59/120/34
f 59/120/34 61/124/34 63/128/34
f 63/128/34 3/8/34 7/16/34
f 7/16/34 11/24/34 15/32/34
f 15/32/34 19/40/34 23/48/34
f 23/48/34 27/56/34 31/64/34
f 31/64/34 35/72/34 39/80/34
f 39/80/34 43/88/34 47/96/34
f 47/96/34 51/104/34 55/112/34
f 55/112/34 59/120/34 63/128/34
f 63/128/34 7/16/34 15/32/34
f 15/32/34 23/48/34 31/64/34
f 31/64/34 39/80/34 47/96/34
f 47/96/34 55/112/34 63/128/34
f 63/128/34 15/32/34 31/64/34
