# Blender 3.3.1
# www.blender.org
o indicator-special-lines
v 0.791421 1.000000 0.000000
v 0.000000 0.208579 -0.000000
v 0.650000 1.000000 0.000000
v 0.000000 0.350000 -0.000000
v 1.000000 1.000000 0.000000
v 1.000000 0.925736 0.000000
v 0.932843 1.000000 0.000000
v 0.074264 0.000000 -0.000000
v 0.000000 0.067157 -0.000000
v 0.000000 0.000000 -0.000000
v 1.000000 0.784314 0.000000
v 1.000000 0.642893 0.000000
v 0.215685 0.000000 -0.000000
v 0.357107 0.000000 -0.000000
v 0.225736 1.000000 0.000000
v 0.000000 0.774264 0.000000
v 0.084315 1.000000 0.000000
v 0.000000 0.915685 0.000000
v 0.508579 1.000000 0.000000
v 0.000000 0.491421 -0.000000
v 0.367157 1.000000 0.000000
v 0.000000 0.632843 0.000000
v 1.000000 0.218629 -0.000000
v 1.000000 0.077208 -0.000000
v 0.781371 0.000000 -0.000000
v 0.922792 0.000000 -0.000000
v 1.000000 0.501472 0.000000
v 1.000000 0.360050 -0.000000
v 0.498528 0.000000 -0.000000
v 0.639950 0.000000 -0.000000
vn -0.0000 -0.0000 1.0000
vt 0.281250 0.375000
vt 0.281250 0.375000
vt 0.281250 0.375000
vt 0.281250 0.375000
vt 0.281250 0.375000
vt 0.281250 0.375000
vt 0.281250 0.375000
vt 0.281250 0.375000
vt 0.281250 0.375000
vt 0.281250 0.375000
vt 0.281250 0.375000
vt 0.281250 0.375000
vt 0.281250 0.375000
vt 0.281250 0.375000
vt 0.281250 0.375000
vt 0.281250 0.375000
vt 0.281250 0.375000
vt 0.281250 0.375000
vt 0.281250 0.375000
vt 0.281250 0.375000
vt 0.281250 0.375000
vt 0.281250 0.375000
vt 0.281250 0.375000
vt 0.281250 0.375000
vt 0.281250 0.375000
vt 0.281250 0.375000
vt 0.281250 0.375000
vt 0.281250 0.375000
vt 0.281250 0.375000
vt 0.281250 0.375000
s 0
f 3/3/1 2/2/1 1/1/1
f 2/2/1 3/3/1 4/4/1
f 7/7/1 6/6/1 5/5/1
f 6/6/1 7/7/1 8/8/1
f 8/8/1 7/7/1 9/9/1
f 8/8/1 9/9/1 10/10/1
f 13/13/1 12/12/1 11/11/1
f 12/12/1 13/13/1 14/14/1
f 17/17/1 16/16/1 15/15/1
f 16/16/1 17/17/1 18/18/1
f 21/21/1 20/20/1 19/19/1
f 20/20/1 21/21/1 22/22/1
f 25/25/1 24/24/1 23/23/1
f 24/24/1 25/25/1 26/26/1
f 29/29/1 28/28/1 27/27/1
f 28/28/1 29/29/1 30/30/1
f 3/3/1 2/2/1 1/1/1
f 2/2/1 3/3/1 4/4/1
f 7/7/1 6/6/1 5/5/1
f 6/6/1 7/7/1 8/8/1
f 8/8/1 7/7/1 9/9/1
f 8/8/1 9/9/1 10/10/1
f 13/13/1 12/12/1 11/11/1
f 12/12/1 13/13/1 14/14/1
f 17/17/1 16/16/1 15/15/1
f 16/16/1 17/17/1 18/18/1
f 21/21/1 20/20/1 19/19/1
f 20/20/1 21/21/1 22/22/1
f 25/25/1 24/24/1 23/23/1
f 24/24/1 25/25/1 26/26/1
f 29/29/1 28/28/1 27/27/1
f 28/28/1 29/29/1 30/30/1
