# Blender 3.3.1
# www.blender.org
o key
v -0.187481 -0.142118 0.413735
v -0.279675 -0.117571 0.442988
v -0.187481 -0.041942 0.427852
v -0.226496 -0.031554 0.440232
v -0.187481 -0.038449 0.326747
v -0.279675 -0.013903 0.356000
v 0.375723 -0.173160 0.324106
v 0.308511 -0.173160 0.324106
v 0.375723 -0.138593 0.365301
v 0.308511 -0.138593 0.365301
v 0.146362 -0.086759 0.321807
v 0.213574 -0.086759 0.321807
v 0.146362 0.007743 0.381796
v 0.308511 -0.086759 0.321807
v 0.375723 -0.086759 0.321807
v 0.375723 0.007743 0.381796
v 0.213574 -0.138593 0.365301
v -0.095287 -0.117571 0.442988
v -0.148467 -0.031554 0.440232
v -0.069082 -0.076906 0.491452
v -0.133275 -0.007980 0.468326
v -0.057099 -0.058310 0.513613
v -0.132306 -0.006476 0.470119
v 0.213574 -0.173160 0.324106
v 0.213574 -0.121326 0.280612
v 0.146362 -0.173160 0.324106
v 0.146362 -0.121326 0.280612
v 0.409555 -0.095926 0.468784
v 0.409555 0.007743 0.381796
v 0.375723 -0.095926 0.468784
v 0.308511 -0.121326 0.280612
v -0.095287 -0.013903 0.356000
v -0.069082 0.026763 0.404463
v -0.057099 0.045358 0.426625
v -0.242656 -0.006476 0.470119
v -0.226496 0.018602 0.500006
v -0.317863 0.045358 0.426625
v -0.279675 0.104619 0.497249
v -0.279675 0.000951 0.584237
v -0.187481 0.028990 0.512385
v -0.187481 0.025498 0.613491
v -0.148467 0.018602 0.500006
v -0.095287 0.000951 0.584237
v -0.187481 0.129166 0.526503
v -0.133275 -0.004972 0.471911
v -0.069082 -0.039715 0.535774
v -0.069082 0.063954 0.448786
v -0.095287 0.104619 0.497249
v -0.317863 -0.058310 0.513613
v 0.375723 -0.121326 0.280612
v -0.015253 0.110297 0.504016
v 0.002355 0.082974 0.471453
v -0.036107 0.142660 0.542584
v 0.002355 -0.020694 0.558441
v -0.036107 0.038991 0.629572
v -0.015253 0.006629 0.591004
v 0.146362 -0.138593 0.365301
v 0.146362 -0.095926 0.468784
v 0.409555 -0.020694 0.558441
v 0.002355 -0.095926 0.468784
v -0.036107 -0.155611 0.397653
v -0.338855 -0.155611 0.397653
v -0.187481 -0.195915 0.349622
v -0.401556 -0.058310 0.513613
v -0.338855 0.038991 0.629572
v -0.187481 0.079295 0.677604
v -0.187481 0.182963 0.590616
v -0.036107 -0.051943 0.310665
v -0.187481 -0.092247 0.262633
v 0.409555 0.082974 0.471453
v 0.002355 0.007743 0.381796
v -0.338855 -0.051943 0.310665
v -0.401556 0.045358 0.426625
v -0.338855 0.142660 0.542584
vn -0.0000 -0.1395 0.9902
vn 0.4729 -0.2655 0.8401
vn 0.4730 -0.2655 0.8401
vn 0.4729 0.8735 -0.1156
vn -0.0000 0.9994 0.0345
vn 0.4730 0.8735 -0.1155
vn 0.4730 0.8735 -0.1156
vn -0.0000 -0.8553 0.5181
vn -0.0000 -0.7660 0.6428
vn -0.0000 -0.8809 0.4733
vn -0.0000 0.5359 -0.8443
vn -0.0000 0.6191 -0.7853
vn -0.0000 0.6587 -0.7524
vn 0.7071 -0.4545 -0.5417
vn -0.7071 -0.4545 -0.5417
vn 0.7071 -0.4545 -0.5416
vn -0.6446 -0.3772 0.6650
vn -0.4729 -0.2655 0.8402
vn -0.6689 -0.5695 0.4778
vn -0.6688 -0.5695 0.4778
vn -0.0000 -0.6428 -0.7660
vn -1.0000 -0.0000 -0.0000
vn -0.4729 0.8735 -0.1156
vn -0.6446 0.7204 -0.2560
vn -0.4729 0.8735 -0.1155
vn -0.6689 0.5695 -0.4779
vn -0.6689 0.5695 -0.4778
vn -0.6688 0.5695 -0.4779
vn 0.6689 0.5695 -0.4778
vn 0.4729 0.2655 -0.8402
vn 0.6688 0.5695 -0.4778
vn -0.4730 0.8735 -0.1155
vn -0.4730 0.8735 -0.1156
vn -0.0000 -0.9994 -0.0345
vn 0.4730 -0.8735 0.1155
vn 0.4730 -0.8735 0.1156
vn 0.4729 -0.8735 0.1156
vn -0.4730 -0.8735 0.1155
vn -0.4730 -0.8735 0.1156
vn -0.4729 -0.8735 0.1156
vn -0.0000 0.7660 -0.6428
vn 0.4730 0.2655 -0.8401
vn -0.0000 0.1395 -0.9902
vn 0.4729 0.2655 -0.8401
vn -0.6446 -0.7204 0.2560
vn -0.6689 -0.5695 0.4779
vn -0.4729 -0.8735 0.1155
vn -0.6446 0.3772 -0.6650
vn -0.6688 0.5695 -0.4778
vn -0.4729 0.2655 -0.8402
vn -0.4729 -0.2655 0.8401
vn -0.4730 -0.2655 0.8401
vn 0.4729 -0.8735 0.1155
vn 0.6689 -0.5695 0.4778
vn 0.6688 -0.5695 0.4779
vn 0.6688 0.5695 -0.4779
vn 0.4729 0.8735 -0.1155
vn -0.4730 0.2655 -0.8401
vn -0.4729 0.2655 -0.8401
vn 1.0000 -0.0000 -0.0000
vn 0.4729 -0.2655 0.8402
vn 0.6688 -0.5695 0.4778
vn 0.7071 0.4545 0.5417
vn 0.9239 0.2460 0.2931
vn 0.9239 0.2460 0.2932
vn -0.0000 0.6428 0.7661
vn -0.0000 0.6428 0.7660
vn -0.0000 -0.6428 -0.7661
vn 0.9239 -0.2460 -0.2932
vn -0.9239 -0.2460 -0.2932
vn -0.0000 0.7661 -0.6428
vn -0.9239 0.2460 0.2932
vn -0.7071 0.4545 0.5417
vn -0.0000 -0.9245 0.3812
vt 0.343750 0.317046
vt 0.343750 0.334558
vt 0.343750 0.351533
vt 0.343750 0.358944
vt 0.343750 0.317046
vt 0.343750 0.334558
vt 0.343750 0.276412
vt 0.343750 0.276412
vt 0.343750 0.301072
vt 0.343750 0.301072
vt 0.343750 0.301072
vt 0.343750 0.301072
vt 0.343750 0.349999
vt 0.343750 0.301072
vt 0.343750 0.301072
vt 0.343750 0.349999
vt 0.343750 0.301072
vt 0.343750 0.334558
vt 0.343750 0.358944
vt 0.343750 0.363568
vt 0.343750 0.375761
vt 0.343750 0.376834
vt 0.343750 0.376834
vt 0.343750 0.276412
vt 0.343750 0.276412
vt 0.343750 0.276412
vt 0.343750 0.276412
vt 0.343750 0.349999
vt 0.343750 0.349999
vt 0.343750 0.349999
vt 0.343750 0.276412
vt 0.343750 0.334558
vt 0.343750 0.363568
vt 0.343750 0.376834
vt 0.343750 0.376834
vt 0.343750 0.394724
vt 0.343750 0.376834
vt 0.343750 0.419110
vt 0.343750 0.419110
vt 0.343750 0.402135
vt 0.343750 0.436622
vt 0.343750 0.394724
vt 0.343750 0.419110
vt 0.343750 0.436622
vt 0.343750 0.377907
vt 0.343750 0.390100
vt 0.343750 0.390100
vt 0.343750 0.419110
vt 0.343750 0.376834
vt 0.343750 0.276412
vt 0.343750 0.423161
vt 0.343750 0.403669
vt 0.343750 0.446248
vt 0.343750 0.403669
vt 0.343750 0.446248
vt 0.343750 0.423161
vt 0.343750 0.301072
vt 0.343750 0.349999
vt 0.343750 0.403669
vt 0.343750 0.349999
vt 0.343750 0.307420
vt 0.343750 0.307420
vt 0.343750 0.278668
vt 0.343750 0.376834
vt 0.343750 0.446248
vt 0.343750 0.475000
vt 0.343750 0.475000
vt 0.343750 0.307420
vt 0.343750 0.278668
vt 0.343750 0.403669
vt 0.343750 0.349999
vt 0.343750 0.307420
vt 0.343750 0.376834
vt 0.343750 0.446248
s 0
f 3/3/1 2/2/2 1/1/1
f 2/2/3 3/3/1 4/4/3
f 6/6/4 3/3/5 5/5/5
f 3/3/5 6/6/6 4/4/7
f 9/9/8 8/8/9 7/7/9
f 8/8/9 9/9/8 10/10/10
f 13/13/11 12/12/12 11/11/13
f 12/12/12 13/13/11 14/14/12
f 14/14/12 13/13/11 15/15/13
f 15/15/13 13/13/11 16/16/11
f 17/17/14 14/14/15 10/10/15
f 14/14/15 17/17/16 12/12/14
f 20/20/17 19/19/18 18/18/18
f 19/19/18 20/20/17 21/21/17
f 21/21/17 20/20/17 22/22/19
f 21/21/17 22/22/19 23/23/20
f 26/26/21 25/25/21 24/24/21
f 25/25/21 26/26/21 27/27/21
f 30/30/21 29/29/21 28/28/21
f 29/29/21 30/30/21 16/16/21
f 8/8/22 14/14/15 31/31/22
f 14/14/15 8/8/22 10/10/15
f 19/19/23 33/33/24 32/32/25
f 33/33/24 19/19/25 21/21/24
f 33/33/24 21/21/24 34/34/26
f 34/34/27 21/21/24 23/23/28
f 37/37/29 36/36/30 35/35/31
f 36/36/30 37/37/31 38/38/30
f 3/3/5 32/32/23 5/5/5
f 32/32/32 3/3/5 19/19/33
f 40/40/34 39/39/35 36/36/36
f 39/39/37 40/40/34 41/41/34
f 43/43/38 40/40/34 42/42/39
f 40/40/34 43/43/40 41/41/34
f 11/11/13 25/25/41 27/27/41
f 25/25/41 11/11/13 12/12/12
f 38/38/42 40/40/43 36/36/42
f 40/40/43 38/38/44 44/44/43
f 22/22/19 45/45/45 23/23/19
f 45/45/45 22/22/46 46/46/45
f 45/45/45 46/46/45 42/42/47
f 42/42/40 46/46/45 43/43/47
f 45/45/48 34/34/27 23/23/49
f 34/34/27 45/45/48 47/47/48
f 47/47/48 45/45/48 42/42/50
f 47/47/48 42/42/50 48/48/50
f 18/18/51 3/3/1 1/1/1
f 3/3/1 18/18/52 19/19/52
f 36/36/53 49/49/54 35/35/55
f 49/49/55 36/36/53 39/39/53
f 37/37/56 4/4/57 6/6/57
f 4/4/57 37/37/29 35/35/56
f 40/40/43 48/48/58 42/42/58
f 48/48/59 40/40/43 44/44/43
f 14/14/12 50/50/41 31/31/41
f 50/50/41 14/14/12 15/15/13
f 30/30/60 15/15/60 16/16/60
f 15/15/60 30/30/60 50/50/60
f 50/50/60 30/30/60 9/9/60
f 7/7/60 50/50/60 9/9/60
f 4/4/61 49/49/62 2/2/61
f 49/49/54 4/4/61 35/35/62
f 53/53/63 52/52/64 51/51/64
f 52/52/65 53/53/63 54/54/65
f 54/54/65 53/53/63 55/55/63
f 54/54/65 55/55/63 56/56/65
f 26/26/22 11/11/22 27/27/22
f 57/57/22 11/11/22 26/26/22
f 58/58/22 11/11/22 57/57/22
f 11/11/22 58/58/22 13/13/22
f 59/59/9 30/30/9 28/28/9
f 30/30/9 59/59/9 58/58/9
f 58/58/9 59/59/9 60/60/9
f 60/60/9 59/59/9 20/20/9
f 20/20/9 59/59/9 22/22/9
f 18/18/9 60/60/9 20/20/9
f 22/22/9 59/59/9 46/46/9
f 46/46/9 59/59/9 54/54/9
f 46/46/9 54/54/9 43/43/9
f 43/43/9 54/54/9 56/56/9
f 1/1/9 60/60/9 18/18/9
f 43/43/9 56/56/9 41/41/9
f 1/1/9 61/61/9 60/60/9
f 41/41/9 56/56/9 55/55/9
f 62/62/9 61/61/9 1/1/9
f 61/61/9 62/62/9 63/63/9
f 2/2/9 62/62/9 1/1/9
f 62/62/9 2/2/9 64/64/9
f 64/64/9 2/2/9 49/49/9
f 64/64/9 49/49/9 39/39/9
f 64/64/9 39/39/9 65/65/9
f 65/65/9 39/39/9 41/41/9
f 65/65/9 41/41/9 55/55/9
f 65/65/9 55/55/9 66/66/9
f 67/67/66 55/55/63 53/53/63
f 55/55/63 67/67/67 66/66/67
f 17/17/10 26/26/9 24/24/9
f 26/26/9 17/17/10 57/57/8
f 61/61/14 69/69/21 68/68/14
f 69/69/68 61/61/14 63/63/68
f 59/59/60 29/29/60 70/70/60
f 29/29/60 59/59/60 28/28/60
f 60/60/69 68/68/14 71/71/69
f 68/68/14 60/60/69 61/61/14
f 62/62/15 73/73/70 72/72/15
f 73/73/70 62/62/15 64/64/70
f 72/72/41 68/68/41 69/69/41
f 68/68/41 72/72/41 5/5/41
f 68/68/41 5/5/41 71/71/41
f 72/72/41 6/6/41 5/5/41
f 6/6/41 72/72/41 73/73/41
f 6/6/41 73/73/41 37/37/41
f 71/71/41 5/5/41 32/32/41
f 37/37/41 73/73/41 74/74/41
f 37/37/41 74/74/41 38/38/41
f 71/71/41 32/32/41 33/33/41
f 38/38/41 74/74/41 44/44/41
f 44/44/41 74/74/41 53/53/41
f 53/53/41 74/74/41 67/67/41
f 51/51/41 44/44/41 53/53/41
f 51/51/41 48/48/41 44/44/41
f 52/52/41 48/48/41 51/51/41
f 52/52/41 47/47/41 48/48/41
f 70/70/41 47/47/41 52/52/41
f 70/70/41 71/71/41 33/33/41
f 70/70/41 34/34/41 47/47/41
f 70/70/41 33/33/41 34/34/41
f 29/29/41 71/71/41 70/70/41
f 16/16/41 71/71/71 29/29/41
f 71/71/41 16/16/41 13/13/41
f 63/63/21 72/72/15 69/69/21
f 72/72/15 63/63/68 62/62/15
f 64/64/72 74/74/73 73/73/72
f 74/74/73 64/64/72 65/65/73
f 17/17/14 25/25/60 12/12/14
f 25/25/60 17/17/14 24/24/60
f 60/60/21 13/13/21 58/58/21
f 13/13/21 60/60/21 71/71/21
f 52/52/67 59/59/67 70/70/67
f 59/59/67 52/52/67 54/54/67
f 74/74/73 66/66/66 67/67/66
f 66/66/67 74/74/73 65/65/73
f 30/30/74 10/10/10 9/9/8
f 10/10/10 30/30/74 17/17/10
f 17/17/10 30/30/74 57/57/8
f 57/57/8 30/30/74 58/58/74
f 8/8/21 50/50/21 7/7/21
f 50/50/21 8/8/21 31/31/21
f 3/3/1 2/2/2 1/1/1
f 2/2/3 3/3/1 4/4/3
f 6/6/4 3/3/5 5/5/5
f 3/3/5 6/6/6 4/4/7
f 9/9/8 8/8/9 7/7/9
f 8/8/9 9/9/8 10/10/10
f 13/13/11 12/12/12 11/11/13
f 12/12/12 13/13/11 14/14/12
f 14/14/12 13/13/11 15/15/13
f 15/15/13 13/13/11 16/16/11
f 17/17/14 14/14/15 10/10/15
f 14/14/15 17/17/16 12/12/14
f 20/20/17 19/19/18 18/18/18
f 19/19/18 20/20/17 21/21/17
f 21/21/17 20/20/17 22/22/19
f 21/21/17 22/22/19 23/23/20
f 26/26/21 25/25/21 24/24/21
f 25/25/21 26/26/21 27/27/21
f 30/30/21 29/29/21 28/28/21
f 29/29/21 30/30/21 16/16/21
f 8/8/22 14/14/15 31/31/22
f 14/14/15 8/8/22 10/10/15
f 19/19/23 33/33/24 32/32/25
f 33/33/24 19/19/25 21/21/24
f 33/33/24 21/21/24 34/34/26
f 34/34/27 21/21/24 23/23/28
f 37/37/29 36/36/30 35/35/31
f 36/36/30 37/37/31 38/38/30
f 3/3/5 32/32/23 5/5/5
f 32/32/32 3/3/5 19/19/33
f 40/40/34 39/39/35 36/36/36
f 39/39/37 40/40/34 41/41/34
f 43/43/38 40/40/34 42/42/39
f 40/40/34 43/43/40 41/41/34
f 11/11/13 25/25/41 27/27/41
f 25/25/41 11/11/13 12/12/12
f 38/38/42 40/40/43 36/36/42
f 40/40/43 38/38/44 44/44/43
f 22/22/19 45/45/45 23/23/19
f 45/45/45 22/22/46 46/46/45
f 45/45/45 46/46/45 42/42/47
f 42/42/40 46/46/45 43/43/47
f 45/45/48 34/34/27 23/23/49
f 34/34/27 45/45/48 47/47/48
f 47/47/48 45/45/48 42/42/50
f 47/47/48 42/42/50 48/48/50
f 18/18/51 3/3/1 1/1/1
f 3/3/1 18/18/52 19/19/52
f 36/36/53 49/49/54 35/35/55
f 49/49/55 36/36/53 39/39/53
f 37/37/56 4/4/57 6/6/57
f 4/4/57 37/37/29 35/35/56
f 40/40/43 48/48/58 42/42/58
f 48/48/59 40/40/43 44/44/43
f 14/14/12 50/50/41 31/31/41
f 50/50/41 14/14/12 15/15/13
f 30/30/60 15/15/60 16/16/60
f 15/15/60 30/30/60 50/50/60
f 50/50/60 30/30/60 9/9/60
f 7/7/60 50/50/60 9/9/60
f 4/4/61 49/49/62 2/2/61
f 49/49/54 4/4/61 35/35/62
f 53/53/63 52/52/64 51/51/64
f 52/52/65 53/53/63 54/54/65
f 54/54/65 53/53/63 55/55/63
f 54/54/65 55/55/63 56/56/65
f 26/26/22 11/11/22 27/27/22
f 57/57/22 11/11/22 26/26/22
f 58/58/22 11/11/22 57/57/22
f 11/11/22 58/58/22 13/13/22
f 59/59/9 30/30/9 28/28/9
f 30/30/9 59/59/9 58/58/9
f 58/58/9 59/59/9 60/60/9
f 60/60/9 59/59/9 20/20/9
f 20/20/9 59/59/9 22/22/9
f 18/18/9 60/60/9 20/20/9
f 22/22/9 59/59/9 46/46/9
f 46/46/9 59/59/9 54/54/9
f 46/46/9 54/54/9 43/43/9
f 43/43/9 54/54/9 56/56/9
f 1/1/9 60/60/9 18/18/9
f 43/43/9 56/56/9 41/41/9
f 1/1/9 61/61/9 60/60/9
f 41/41/9 56/56/9 55/55/9
f 62/62/9 61/61/9 1/1/9
f 61/61/9 62/62/9 63/63/9
f 2/2/9 62/62/9 1/1/9
f 62/62/9 2/2/9 64/64/9
f 64/64/9 2/2/9 49/49/9
f 64/64/9 49/49/9 39/39/9
f 64/64/9 39/39/9 65/65/9
f 65/65/9 39/39/9 41/41/9
f 65/65/9 41/41/9 55/55/9
f 65/65/9 55/55/9 66/66/9
f 67/67/66 55/55/63 53/53/63
f 55/55/63 67/67/67 66/66/67
f 17/17/10 26/26/9 24/24/9
f 26/26/9 17/17/10 57/57/8
f 61/61/14 69/69/21 68/68/14
f 69/69/68 61/61/14 63/63/68
f 59/59/60 29/29/60 70/70/60
f 29/29/60 59/59/60 28/28/60
f 60/60/69 68/68/14 71/71/69
f 68/68/14 60/60/69 61/61/14
f 62/62/15 73/73/70 72/72/15
f 73/73/70 62/62/15 64/64/70
f 72/72/41 68/68/41 69/69/41
f 68/68/41 72/72/41 5/5/41
f 68/68/41 5/5/41 71/71/41
f 72/72/41 6/6/41 5/5/41
f 6/6/41 72/72/41 73/73/41
f 6/6/41 73/73/41 37/37/41
f 71/71/41 5/5/41 32/32/41
f 37/37/41 73/73/41 74/74/41
f 37/37/41 74/74/41 38/38/41
f 71/71/41 32/32/41 33/33/41
f 38/38/41 74/74/41 44/44/41
f 44/44/41 74/74/41 53/53/41
f 53/53/41 74/74/41 67/67/41
f 51/51/41 44/44/41 53/53/41
f 51/51/41 48/48/41 44/44/41
f 52/52/41 48/48/41 51/51/41
f 52/52/41 47/47/41 48/48/41
f 70/70/41 47/47/41 52/52/41
f 70/70/41 71/71/41 33/33/41
f 70/70/41 34/34/41 47/47/41
f 70/70/41 33/33/41 34/34/41
f 29/29/41 71/71/41 70/70/41
f 16/16/41 71/71/71 29/29/41
f 71/71/41 16/16/41 13/13/41
f 63/63/21 72/72/15 69/69/21
f 72/72/15 63/63/68 62/62/15
f 64/64/72 74/74/73 73/73/72
f 74/74/73 64/64/72 65/65/73
f 17/17/14 25/25/60 12/12/14
f 25/25/60 17/17/14 24/24/60
f 60/60/21 13/13/21 58/58/21
f 13/13/21 60/60/21 71/71/21
f 52/52/67 59/59/67 70/70/67
f 59/59/67 52/52/67 54/54/67
f 74/74/73 66/66/66 67/67/66
f 66/66/67 74/74/73 65/65/73
f 30/30/74 10/10/10 9/9/8
f 10/10/10 30/30/74 17/17/10
f 17/17/10 30/30/74 57/57/8
f 57/57/8 30/30/74 58/58/74
f 8/8/21 50/50/21 7/7/21
f 50/50/21 8/8/21 31/31/21
