# Blender 3.3.1
# www.blender.org
mtllib missile.mtl
o Missile_centered.001
v -0.084534 -0.010264 0.494818
v -0.079622 -0.030196 0.494818
v -0.056469 -0.063740 0.494818
v -0.039574 -0.075401 0.494818
v -0.020379 -0.082681 0.494818
v 0.020379 -0.082681 0.494818
v 0.039574 -0.075401 0.494818
v 0.070082 -0.048374 0.494818
v 0.056468 0.063740 0.494818
v -0.000000 0.085155 0.494818
v -0.020379 0.082682 0.494818
v -0.039574 0.075402 0.494818
v -0.056469 0.063740 0.494818
v -0.070082 0.048374 0.494818
v -0.079622 0.030196 0.494818
v -0.084534 0.010264 0.494818
v -0.070082 -0.048374 0.494818
v 0.000000 -0.085155 0.494818
v 0.056468 -0.063740 0.494818
v 0.079622 -0.030196 0.494818
v 0.084534 -0.010264 0.494818
v 0.084534 0.010264 0.494818
v 0.079622 0.030196 0.494818
v 0.070082 0.048374 0.494818
v 0.039574 0.075402 0.494818
v 0.020378 0.082682 0.494818
v -0.000000 0.008841 0.568169
v -0.002116 0.008584 0.568169
v -0.004109 0.007828 0.568168
v -0.005863 0.006618 0.568168
v -0.007276 0.005022 0.568168
v -0.008266 0.003135 0.568168
v -0.008777 0.001066 0.568168
v -0.008777 -0.001066 0.568168
v -0.008266 -0.003135 0.568168
v -0.007276 -0.005022 0.568168
v -0.005863 -0.006618 0.568168
v -0.004109 -0.007828 0.568168
v -0.002116 -0.008584 0.568169
v 0.000000 -0.008841 0.568169
v 0.002115 -0.008584 0.568169
v 0.004108 -0.007828 0.568168
v 0.005862 -0.006618 0.568168
v 0.007275 -0.005022 0.568167
v 0.008266 -0.003135 0.568168
v 0.008775 -0.001066 0.568168
v 0.008775 0.001066 0.568168
v 0.008266 0.003135 0.568168
v 0.007275 0.005022 0.568167
v 0.005862 0.006618 0.568168
v 0.004108 0.007828 0.568168
v 0.002115 0.008584 0.568169
v -0.043818 -0.049459 0.538214
v -0.031166 -0.035178 0.556214
v -0.018514 -0.020898 0.565326
v -0.012975 -0.024721 0.565326
v -0.021842 -0.041614 0.556214
v -0.030708 -0.058508 0.538214
v 0.015813 0.064157 0.538214
v 0.011247 0.045632 0.556214
v 0.006682 0.027108 0.565326
v -0.000000 0.027919 0.565326
v -0.000000 0.046998 0.556214
v -0.000000 0.066077 0.538214
v -0.043818 0.049459 0.538214
v -0.031166 0.035178 0.556214
v -0.018514 0.020898 0.565326
v -0.022978 0.015860 0.565326
v -0.038678 0.026698 0.556214
v -0.054380 0.037536 0.538214
v 0.061783 -0.023431 0.538214
v 0.043944 -0.016666 0.556214
v 0.026105 -0.009900 0.565326
v 0.027716 -0.003366 0.565326
v 0.046655 -0.005665 0.556214
v 0.065595 -0.007965 0.538214
v -0.006682 -0.027108 0.565326
v -0.011248 -0.045632 0.556214
v -0.015814 -0.064156 0.538214
v -0.026106 0.009900 0.565326
v -0.043944 0.016666 0.556214
v -0.061783 0.023431 0.538214
v 0.027716 0.003365 0.565326
v 0.046655 0.005665 0.556214
v 0.065595 0.007965 0.538214
v 0.000000 -0.027919 0.565326
v 0.000000 -0.046998 0.556214
v 0.000000 -0.066077 0.538214
v -0.027716 0.003365 0.565326
v -0.046655 0.005665 0.556214
v -0.065595 0.007965 0.538214
v 0.026105 0.009900 0.565326
v 0.043944 0.016666 0.556214
v 0.061783 0.023431 0.538214
v 0.006682 -0.027108 0.565326
v 0.011247 -0.045632 0.556214
v 0.015813 -0.064156 0.538214
v -0.027716 -0.003366 0.565326
v -0.046655 -0.005665 0.556214
v -0.065595 -0.007965 0.538214
v 0.022977 0.015860 0.565326
v 0.038678 0.026698 0.556214
v 0.054380 0.037536 0.538214
v 0.012974 -0.024721 0.565326
v 0.021841 -0.041614 0.556214
v 0.030707 -0.058508 0.538214
v -0.026106 -0.009900 0.565326
v -0.043944 -0.016666 0.556214
v -0.061783 -0.023431 0.538214
v 0.018514 0.020898 0.565326
v 0.031166 0.035178 0.556214
v 0.043817 0.049459 0.538214
v -0.006682 0.027108 0.565326
v -0.011248 0.045632 0.556214
v -0.015814 0.064157 0.538214
v 0.018514 -0.020898 0.565326
v 0.031166 -0.035178 0.556214
v 0.043817 -0.049459 0.538214
v -0.022978 -0.015860 0.565326
v -0.038678 -0.026698 0.556214
v -0.054380 -0.037536 0.538214
v 0.012974 0.024722 0.565326
v 0.021841 0.041614 0.556214
v 0.030707 0.058508 0.538214
v -0.012975 0.024722 0.565326
v -0.021842 0.041614 0.556214
v -0.030708 0.058508 0.538214
v 0.022977 -0.015860 0.565326
v 0.038678 -0.026698 0.556214
v 0.054380 -0.037536 0.538214
v -0.035141 -0.066954 0.523094
v -0.000000 0.075616 0.523094
v -0.062231 0.042955 0.523094
v 0.075065 -0.009114 0.523094
v -0.018096 -0.073418 0.523094
v -0.070702 0.026814 0.523094
v 0.075065 0.009114 0.523094
v 0.000000 -0.075616 0.523094
v -0.075065 0.009114 0.523094
v 0.070702 0.026814 0.523094
v 0.018096 -0.073418 0.523094
v -0.075065 -0.009114 0.523094
v 0.062230 0.042955 0.523094
v 0.035141 -0.066954 0.523094
v -0.070702 -0.026814 0.523094
v 0.050142 0.056599 0.523094
v -0.018097 0.073419 0.523094
v 0.050142 -0.056599 0.523094
v -0.062231 -0.042954 0.523094
v 0.035140 0.066954 0.523094
v -0.035141 0.066954 0.523094
v 0.062230 -0.042954 0.523094
v -0.050142 -0.056599 0.523094
v 0.018096 0.073419 0.523094
v -0.050142 0.056599 0.523094
v 0.070702 -0.026814 0.523094
v -0.012689 -0.113952 0.036106
v -0.012689 0.113952 0.036105
v 0.012689 -0.113952 0.036106
v 0.012689 0.113952 0.036106
v -0.012689 -0.113952 0.271823
v -0.012689 -0.078794 0.337098
v -0.012689 0.078795 0.337098
v -0.012689 0.113952 0.271823
v 0.012689 -0.078794 0.337098
v 0.012689 -0.113952 0.271823
v 0.012688 0.113952 0.271823
v 0.012689 0.078795 0.337098
v -0.113952 0.012689 0.036106
v 0.113952 0.012689 0.036106
v -0.113952 -0.012689 0.036106
v 0.113952 -0.012689 0.036106
v -0.113952 0.012689 0.271823
v -0.078795 0.012689 0.337098
v 0.078794 0.012689 0.337098
v 0.113952 0.012689 0.271823
v -0.078795 -0.012689 0.337098
v -0.113952 -0.012689 0.271823
v 0.113952 -0.012689 0.271823
v 0.078794 -0.012689 0.337098
v -0.000000 0.085155 0.002577
v -0.000000 0.082560 0.000000
v -0.000000 0.084395 0.000754
v -0.019758 0.080161 0.000000
v -0.020379 0.082681 0.002576
v -0.020197 0.081942 0.000754
v -0.038367 0.073103 0.000000
v -0.039574 0.075401 0.002577
v -0.039220 0.074728 0.000754
v -0.054747 0.061797 0.000000
v -0.056468 0.063740 0.002577
v -0.055964 0.063170 0.000755
v -0.067946 0.046899 0.000000
v -0.070082 0.048374 0.002577
v -0.069456 0.047942 0.000755
v -0.077195 0.029276 0.000000
v -0.079622 0.030196 0.002577
v -0.078910 0.029927 0.000755
v -0.081958 0.009951 0.000000
v -0.084535 0.010264 0.002576
v -0.083780 0.010172 0.000754
v -0.081958 -0.009951 0.000000
v -0.084535 -0.010264 0.002576
v -0.083780 -0.010173 0.000754
v -0.077195 -0.029276 0.000000
v -0.079622 -0.030196 0.002577
v -0.078910 -0.029927 0.000755
v -0.067946 -0.046899 0.000000
v -0.070082 -0.048374 0.002577
v -0.069456 -0.047942 0.000755
v -0.054747 -0.061797 0.000000
v -0.056468 -0.063740 0.002577
v -0.055964 -0.063171 0.000755
v -0.038367 -0.073103 0.000000
v -0.039574 -0.075402 0.002577
v -0.039220 -0.074728 0.000754
v -0.019758 -0.080162 0.000000
v -0.020379 -0.082682 0.002576
v -0.020197 -0.081943 0.000754
v 0.000000 -0.082560 0.000000
v 0.000000 -0.085155 0.002577
v 0.000000 -0.084395 0.000754
v 0.019758 -0.080161 0.000000
v 0.020379 -0.082681 0.002577
v 0.020197 -0.081943 0.000754
v 0.038367 -0.073103 0.000000
v 0.039574 -0.075401 0.002576
v 0.039220 -0.074728 0.000754
v 0.056469 -0.063740 0.002577
v 0.054748 -0.061797 0.000000
v 0.055965 -0.063170 0.000755
v 0.067946 -0.046899 0.000000
v 0.070082 -0.048374 0.002577
v 0.069456 -0.047942 0.000755
v 0.077195 -0.029276 0.000000
v 0.079622 -0.030196 0.002576
v 0.078910 -0.029927 0.000754
v 0.081958 -0.009951 0.000000
v 0.084535 -0.010264 0.002577
v 0.083780 -0.010172 0.000754
v 0.081958 0.009951 0.000000
v 0.084535 0.010264 0.002577
v 0.083780 0.010173 0.000754
v 0.077195 0.029276 0.000000
v 0.079622 0.030196 0.002576
v 0.078910 0.029927 0.000754
v 0.067946 0.046899 0.000000
v 0.070081 0.048374 0.002577
v 0.069456 0.047942 0.000755
v 0.054748 0.061797 0.000000
v 0.056469 0.063740 0.002577
v 0.055965 0.063171 0.000755
v 0.039574 0.075402 0.002576
v 0.038367 0.073103 0.000000
v 0.039220 0.074728 0.000754
v 0.019758 0.080161 0.000000
v 0.020379 0.082681 0.002577
v 0.020197 0.081942 0.000754
vn -0.8855 -0.4647 -0.0000
vn 0.5681 0.8230 -0.0000
vn -0.3546 0.9350 -0.0000
vn 0.7485 -0.6631 -0.0000
vn -0.7485 -0.6631 -0.0000
vn 0.3546 0.9350 -0.0000
vn -0.5680 0.8230 -0.0000
vn 0.8855 -0.4647 -0.0000
vn -0.5681 -0.8230 -0.0000
vn -0.7485 0.6631 -0.0000
vn 0.9709 -0.2394 -0.0000
vn -0.3546 -0.9350 -0.0000
vn -0.1205 0.9927 -0.0000
vn -0.8855 0.4647 -0.0000
vn 1.0000 -0.0000 -0.0000
vn -0.1205 -0.9927 -0.0000
vn -0.9709 0.2394 -0.0000
vn 0.9709 0.2394 -0.0000
vn 0.1205 -0.9927 -0.0000
vn -1.0000 -0.0000 -0.0000
vn 0.8854 0.4647 -0.0000
vn 0.3546 -0.9350 -0.0000
vn -0.9709 -0.2394 -0.0000
vn 0.7485 0.6631 -0.0000
vn 0.5680 -0.8230 -0.0000
vn -0.0843 -0.1221 0.9889
vn 0.0179 0.1473 0.9889
vn -0.1111 0.0984 0.9889
vn 0.1441 -0.0355 0.9889
vn -0.0526 -0.1387 0.9889
vn -0.1314 0.0690 0.9889
vn 0.1484 -0.0000 0.9889
vn -0.0179 -0.1473 0.9889
vn -0.1441 0.0355 0.9889
vn 0.1441 0.0355 0.9889
vn 0.0179 -0.1473 0.9889
vn -0.1484 -0.0000 0.9889
vn 0.1314 0.0690 0.9889
vn 0.0526 -0.1387 0.9889
vn -0.1441 -0.0355 0.9889
vn 0.1110 0.0984 0.9889
vn -0.0179 0.1473 0.9889
vn 0.0843 -0.1221 0.9889
vn -0.1314 -0.0690 0.9889
vn 0.0843 0.1221 0.9889
vn -0.0526 0.1387 0.9889
vn 0.1110 -0.0984 0.9889
vn -0.1111 -0.0984 0.9889
vn 0.0526 0.1387 0.9889
vn -0.0843 0.1221 0.9889
vn 0.1314 -0.0690 0.9889
vn 0.7504 -0.3939 0.5308
vn 0.6100 -0.3202 0.7249
vn 0.3839 -0.2015 0.9011
vn -0.4814 0.6975 0.5308
vn -0.3913 0.5670 0.7249
vn -0.2463 0.3568 0.9011
vn 0.3006 0.7924 0.5308
vn 0.2443 0.6441 0.7249
vn 0.1537 0.4054 0.9011
vn -0.6344 -0.5620 0.5308
vn -0.5156 -0.4568 0.7249
vn -0.3246 -0.2875 0.9011
vn 0.6344 -0.5620 0.5308
vn 0.5156 -0.4568 0.7249
vn 0.3245 -0.2875 0.9011
vn -0.3005 0.7924 0.5308
vn -0.2443 0.6441 0.7249
vn -0.1538 0.4054 0.9011
vn 0.4815 0.6975 0.5308
vn 0.3913 0.5669 0.7249
vn 0.2463 0.3568 0.9011
vn -0.7504 -0.3939 0.5308
vn -0.6100 -0.3201 0.7249
vn -0.3839 -0.2015 0.9011
vn 0.4815 -0.6975 0.5308
vn 0.3913 -0.5669 0.7249
vn 0.2463 -0.3568 0.9011
vn -0.1021 0.8413 0.5308
vn -0.0830 0.6839 0.7249
vn -0.0523 0.4304 0.9011
vn 0.6344 0.5620 0.5308
vn 0.5156 0.4568 0.7249
vn 0.3245 0.2876 0.9011
vn -0.8229 -0.2028 0.5308
vn -0.6689 -0.1649 0.7249
vn -0.4210 -0.1038 0.9011
vn 0.3005 -0.7924 0.5308
vn 0.2442 -0.6442 0.7249
vn 0.1537 -0.4054 0.9011
vn 0.7504 0.3939 0.5308
vn 0.6100 0.3202 0.7249
vn 0.3839 0.2015 0.9011
vn -0.8475 -0.0000 0.5308
vn -0.6889 -0.0000 0.7249
vn -0.4336 -0.0000 0.9011
vn 0.1021 -0.8413 0.5308
vn 0.0831 -0.6839 0.7249
vn 0.0523 -0.4304 0.9011
vn 0.8229 0.2028 0.5308
vn 0.6689 0.1649 0.7249
vn 0.4210 0.1037 0.9011
vn -0.8229 0.2028 0.5308
vn -0.6689 0.1649 0.7249
vn -0.4210 0.1038 0.9011
vn -0.1021 -0.8413 0.5308
vn -0.0830 -0.6839 0.7249
vn -0.0523 -0.4304 0.9011
vn 0.8475 -0.0000 0.5308
vn 0.6889 -0.0000 0.7249
vn 0.4335 -0.0000 0.9011
vn -0.7504 0.3939 0.5308
vn -0.6100 0.3201 0.7249
vn -0.3839 0.2015 0.9011
vn -0.3005 -0.7924 0.5308
vn -0.2443 -0.6441 0.7249
vn -0.1537 -0.4054 0.9011
vn 0.8229 -0.2028 0.5308
vn 0.6689 -0.1649 0.7249
vn 0.4210 -0.1037 0.9011
vn -0.6344 0.5620 0.5308
vn -0.5157 0.4568 0.7249
vn -0.3245 0.2875 0.9011
vn 0.1021 0.8413 0.5308
vn 0.0830 0.6839 0.7249
vn 0.0523 0.4304 0.9011
vn -0.4815 -0.6975 0.5308
vn -0.3913 -0.5669 0.7249
vn -0.2463 -0.3568 0.9011
vn -0.5386 -0.7804 0.3176
vn 0.1143 0.9413 0.3176
vn -0.7098 0.6288 0.3176
vn 0.9207 -0.2269 0.3176
vn -0.3363 -0.8866 0.3176
vn -0.8396 0.4407 0.3176
vn 0.9482 -0.0000 0.3176
vn -0.1143 -0.9413 0.3176
vn -0.9207 0.2269 0.3176
vn 0.9207 0.2269 0.3176
vn 0.1143 -0.9413 0.3176
vn -0.9482 -0.0000 0.3176
vn 0.8396 0.4407 0.3176
vn 0.3363 -0.8866 0.3176
vn -0.9207 -0.2269 0.3176
vn 0.7098 0.6288 0.3176
vn -0.1143 0.9413 0.3176
vn 0.5386 -0.7804 0.3176
vn -0.8396 -0.4407 0.3176
vn 0.5387 0.7804 0.3176
vn -0.3363 0.8866 0.3176
vn 0.7098 -0.6288 0.3176
vn -0.7098 -0.6288 0.3176
vn 0.3363 0.8866 0.3176
vn -0.5386 0.7804 0.3176
vn 0.8396 -0.4407 0.3176
vn -0.0000 0.0001 1.0000
vn -0.0000 -0.0000 1.0000
vn -0.0000 -0.0000 -1.0000
vn -0.0000 1.0000 -0.0000
vn -0.0000 0.8804 0.4742
vn -0.0000 -0.8804 0.4742
vn -0.0000 -1.0000 -0.0000
vn 0.8804 -0.0000 0.4742
vn -0.8804 -0.0000 0.4742
vn 0.1205 0.9927 -0.0000
vn -0.0461 0.3798 -0.9239
vn -0.1114 0.9172 -0.3825
vn -0.3386 -0.1777 -0.9240
vn -0.3391 -0.1780 -0.9237
vn -0.8180 -0.4293 -0.3827
vn 0.2866 -0.2540 -0.9238
vn 0.6915 -0.6126 -0.3829
vn 0.1357 0.3578 -0.9239
vn 0.3275 0.8637 -0.3830
vn 0.1114 0.9172 -0.3825
vn 0.0461 0.3798 -0.9239
vn -0.1357 0.3578 -0.9239
vn -0.3276 0.8638 -0.3829
vn -0.2866 -0.2539 -0.9238
vn -0.6915 -0.6125 -0.3830
vn 0.3390 -0.1779 -0.9238
vn 0.8181 -0.4294 -0.3826
vn -0.2174 0.3149 -0.9239
vn -0.5249 0.7604 -0.3826
vn -0.2175 -0.3151 -0.9238
vn -0.5248 -0.7603 -0.3826
vn 0.3716 -0.0916 -0.9239
vn 0.8970 -0.2211 -0.3828
vn -0.2866 0.2540 -0.9238
vn -0.6915 0.6128 -0.3824
vn -0.1357 -0.3578 -0.9239
vn -0.3276 -0.8638 -0.3828
vn 0.3826 -0.0000 -0.9239
vn 0.9240 -0.0000 -0.3824
vn -0.3390 0.1779 -0.9238
vn -0.3386 0.1780 -0.9239
vn -0.3388 0.1776 -0.9240
vn -0.8181 0.4293 -0.3826
vn -0.0461 -0.3798 -0.9239
vn -0.1113 -0.9171 -0.3829
vn 0.3715 0.0916 -0.9239
vn 0.8970 0.2211 -0.3828
vn -0.3719 0.0917 -0.9237
vn -0.8970 0.2211 -0.3828
vn 0.0461 -0.3798 -0.9239
vn 0.1114 -0.9172 -0.3825
vn 0.3388 0.1778 -0.9239
vn 0.8180 0.4294 -0.3827
vn -0.3826 -0.0000 -0.9239
vn -0.9238 0.0005 -0.3828
vn -0.9239 -0.0000 -0.3825
vn 0.1356 -0.3576 -0.9240
vn 0.3277 -0.8639 -0.3825
vn 0.2866 0.2539 -0.9238
vn 0.6916 0.6127 -0.3826
vn -0.3715 -0.0916 -0.9239
vn -0.8971 -0.2211 -0.3826
vn 0.2173 -0.3149 -0.9239
vn 0.5248 -0.7603 -0.3827
vn 0.2175 0.3151 -0.9238
vn 0.5248 0.7604 -0.3826
vn -0.8854 -0.4647 -0.0000
vn -0.5681 0.8230 -0.0000
vn -0.5680 -0.8230 -0.0000
vn 0.9709 -0.2393 -0.0000
vn -0.8854 0.4647 -0.0000
vn -0.9710 0.2393 -0.0000
vn 0.9709 0.2393 -0.0000
vn 0.8855 0.4647 -0.0000
vn -0.9710 -0.2393 -0.0000
vn -0.0842 -0.1221 0.9889
vn -0.0530 -0.1387 0.9889
vn -0.1314 0.0689 0.9889
vn 0.1311 0.0692 0.9889
vn 0.0530 -0.1387 0.9889
vn 0.1113 0.0982 0.9889
vn -0.1314 -0.0689 0.9889
vn -0.0530 0.1387 0.9889
vn 0.1113 -0.0982 0.9889
vn 0.0530 0.1387 0.9889
vn -0.0842 0.1221 0.9889
vn 0.1311 -0.0692 0.9889
vn -0.3913 0.5669 0.7249
vn 0.3005 0.7924 0.5308
vn 0.2442 0.6441 0.7249
vn -0.3006 0.7924 0.5308
vn -0.1537 0.4054 0.9011
vn 0.4814 0.6975 0.5308
vn 0.3914 0.5669 0.7249
vn -0.7504 -0.3938 0.5308
vn -0.6100 -0.3202 0.7249
vn 0.4814 -0.6975 0.5308
vn 0.3914 -0.5669 0.7249
vn 0.2462 -0.3568 0.9011
vn -0.0831 0.6838 0.7249
vn -0.0522 0.4304 0.9011
vn 0.5156 0.4569 0.7249
vn 0.3245 0.2875 0.9011
vn -0.4210 -0.1037 0.9011
vn 0.2442 -0.6441 0.7249
vn 0.1538 -0.4053 0.9011
vn 0.6100 0.3201 0.7249
vn -0.4335 -0.0000 0.9011
vn 0.1022 -0.8413 0.5308
vn 0.0830 -0.6839 0.7249
vn 0.0522 -0.4304 0.9011
vn 0.6689 0.1648 0.7249
vn 0.4209 0.1038 0.9011
vn -0.4210 0.1037 0.9011
vn -0.1022 -0.8413 0.5308
vn -0.0522 -0.4304 0.9011
vn -0.7504 0.3938 0.5308
vn -0.1538 -0.4054 0.9011
vn 0.6689 -0.1648 0.7249
vn 0.4209 -0.1038 0.9011
vn -0.5156 0.4568 0.7249
vn -0.3244 0.2878 0.9011
vn 0.1022 0.8413 0.5308
vn 0.0831 0.6839 0.7249
vn 0.0522 0.4304 0.9011
vn -0.4814 -0.6975 0.5308
vn -0.2462 -0.3568 0.9011
vn -0.5387 -0.7804 0.3176
vn -0.7097 0.6288 0.3176
vn -0.3362 -0.8866 0.3176
vn 0.3362 -0.8866 0.3176
vn 0.7097 0.6288 0.3176
vn 0.5387 -0.7804 0.3176
vn -0.5387 0.7804 0.3176
vn 0.0001 -0.0015 1.0000
vn 0.0001 -0.0000 1.0000
vn -0.0008 -0.0012 1.0000
vn 0.0008 -0.0012 1.0000
vn 0.0017 -0.0011 1.0000
vn 0.0002 -0.0000 1.0000
vn -0.0011 -0.0002 1.0000
vn -0.0006 -0.0008 1.0000
vn -0.0001 -0.0015 1.0000
vn -0.0003 0.0003 1.0000
vn -0.0003 -0.0002 1.0000
vn -0.0000 0.0004 1.0000
vn 0.0004 0.0003 1.0000
vn 0.0001 -0.0004 1.0000
vn -0.0001 -0.0000 1.0000
vn -0.1113 0.9171 -0.3829
vn -0.3390 -0.1779 -0.9238
vn -0.3386 -0.1780 -0.9239
vn -0.8181 -0.4293 -0.3826
vn 0.2866 -0.2539 -0.9238
vn 0.6915 -0.6126 -0.3828
vn 0.3276 0.8638 -0.3828
vn 0.1114 0.9171 -0.3827
vn -0.3277 0.8639 -0.3825
vn -0.6915 -0.6127 -0.3826
vn 0.3388 -0.1778 -0.9239
vn 0.8180 -0.4293 -0.3827
vn -0.2175 0.3149 -0.9239
vn -0.5248 0.7603 -0.3829
vn -0.2174 -0.3149 -0.9239
vn -0.5248 -0.7603 -0.3828
vn 0.3715 -0.0916 -0.9239
vn 0.8970 -0.2211 -0.3829
vn -0.2866 0.2539 -0.9238
vn -0.6915 0.6125 -0.3830
vn -0.3276 -0.8637 -0.3829
vn 0.9238 -0.0000 -0.3828
vn -0.3386 0.1777 -0.9240
vn -0.3391 0.1780 -0.9237
vn -0.8180 0.4293 -0.3827
vn -0.1114 -0.9172 -0.3825
vn -0.1111 -0.9171 -0.3829
vn 0.3716 0.0916 -0.9239
vn -0.3715 0.0916 -0.9239
vn -0.8969 0.2211 -0.3830
vn 0.0461 -0.3797 -0.9240
vn 0.1114 -0.9173 -0.3824
vn 0.3390 0.1779 -0.9238
vn 0.8181 0.4294 -0.3826
vn -0.9239 -0.0000 -0.3827
vn -0.9239 0.0001 -0.3827
vn 0.1357 -0.3578 -0.9239
vn 0.3276 -0.8638 -0.3827
vn 0.6916 0.6126 -0.3826
vn -0.3719 -0.0917 -0.9237
vn -0.8970 -0.2211 -0.3828
vn 0.2176 -0.3152 -0.9238
vn 0.5247 -0.7603 -0.3829
vn 0.2174 0.3149 -0.9239
vn 0.5247 0.7603 -0.3830
vt 0.287368 0.429458
vt 0.692134 0.347070
vt 0.692159 0.348928
vt 0.291351 0.429630
vt 0.692213 0.352638
vt 0.298935 0.431995
vt 0.692243 0.354492
vt 0.302366 0.433994
vt 0.305554 0.436349
vt 0.692275 0.356344
vt 0.691876 0.307635
vt 0.305554 0.464143
vt 0.691876 0.311397
vt 0.298900 0.468478
vt 0.691878 0.313292
vt 0.295186 0.469996
vt 0.691886 0.317074
vt 0.287230 0.471079
vt 0.268426 0.458045
vt 0.691940 0.328376
vt 0.267334 0.446203
vt 0.691986 0.334005
vt 0.692002 0.335875
vt 0.268434 0.442389
vt 0.692021 0.337746
vt 0.270270 0.438808
vt 0.692040 0.339613
vt 0.272806 0.435607
vt 0.275979 0.433056
vt 0.692062 0.341480
vt 0.692084 0.343345
vt 0.279525 0.431074
vt 0.692108 0.345208
vt 0.283411 0.429901
vt 0.295224 0.430543
vt 0.692186 0.350784
vt 0.302329 0.466503
vt 0.691876 0.309503
vt 0.291254 0.470837
vt 0.691881 0.315183
vt 0.691892 0.318963
vt 0.283213 0.470501
vt 0.691900 0.320850
vt 0.279411 0.469200
vt 0.275958 0.467236
vt 0.691908 0.322735
vt 0.691919 0.324619
vt 0.272870 0.464731
vt 0.691929 0.326498
vt 0.270273 0.461633
vt 0.691954 0.330254
vt 0.267209 0.454194
vt 0.266881 0.450156
vt 0.691969 0.332131
vt 0.285356 0.449852
vt 0.262729 0.420133
vt 0.285461 0.449498
vt 0.262729 0.420494
vt 0.285647 0.449179
vt 0.262643 0.420845
vt 0.285894 0.448903
vt 0.262475 0.421164
vt 0.286186 0.448673
vt 0.262236 0.421435
vt 0.286524 0.448518
vt 0.261938 0.421640
vt 0.286888 0.448436
vt 0.261601 0.421768
vt 0.287263 0.448430
vt 0.261242 0.421812
vt 0.287637 0.448496
vt 0.260884 0.421768
vt 0.287990 0.448642
vt 0.260546 0.421640
vt 0.288299 0.448867
vt 0.260249 0.421435
vt 0.288559 0.449158
vt 0.260009 0.421165
vt 0.288746 0.449505
vt 0.288734 0.450947
vt 0.259842 0.420845
vt 0.288545 0.451294
vt 0.259755 0.420494
vt 0.288289 0.451583
vt 0.259755 0.420133
vt 0.287973 0.451804
vt 0.259841 0.419783
vt 0.287620 0.451949
vt 0.260009 0.419463
vt 0.287249 0.452021
vt 0.260249 0.419192
vt 0.286875 0.452015
vt 0.260546 0.418987
vt 0.286512 0.451931
vt 0.260884 0.418859
vt 0.286175 0.451776
vt 0.261242 0.418816
vt 0.285884 0.451546
vt 0.261601 0.418859
vt 0.285646 0.451262
vt 0.261938 0.418987
vt 0.285471 0.450936
vt 0.262235 0.419192
vt 0.285355 0.450585
vt 0.262475 0.419463
vt 0.285312 0.450218
vt 0.262643 0.419782
vt 0.295073 0.439655
vt 0.292756 0.443417
vt 0.290599 0.446304
vt 0.291427 0.447148
vt 0.294255 0.444677
vt 0.297369 0.441226
vt 0.275035 0.450196
vt 0.278916 0.450215
vt 0.282079 0.450216
vt 0.282184 0.449195
vt 0.279077 0.448565
vt 0.275250 0.447778
vt 0.278690 0.441440
vt 0.281440 0.444230
vt 0.283663 0.446527
vt 0.284483 0.445887
vt 0.282751 0.443176
vt 0.280575 0.439868
vt 0.285065 0.462436
vt 0.285878 0.458507
vt 0.286426 0.455285
vt 0.285406 0.455015
vt 0.284237 0.458033
vt 0.282708 0.461684
vt 0.292057 0.452269
vt 0.292069 0.448198
vt 0.295533 0.454180
vt 0.295578 0.446319
vt 0.299467 0.457220
vt 0.299512 0.443236
vt 0.285425 0.445426
vt 0.284254 0.442390
vt 0.282757 0.438727
vt 0.284469 0.454550
vt 0.282736 0.457255
vt 0.280543 0.460532
vt 0.291409 0.453312
vt 0.294232 0.455797
vt 0.297328 0.459261
vt 0.286449 0.445159
vt 0.285902 0.441925
vt 0.285126 0.437979
vt 0.283652 0.453910
vt 0.281423 0.456205
vt 0.278655 0.458980
vt 0.290575 0.454153
vt 0.292722 0.457042
vt 0.295025 0.460802
vt 0.287520 0.445105
vt 0.287635 0.441776
vt 0.287618 0.437686
vt 0.282982 0.453121
vt 0.280357 0.454915
vt 0.277110 0.457094
vt 0.289613 0.454776
vt 0.291078 0.457929
vt 0.292611 0.461907
vt 0.288600 0.445279
vt 0.289394 0.441967
vt 0.290140 0.437894
vt 0.282487 0.452218
vt 0.279557 0.453454
vt 0.275946 0.454950
vt 0.282488 0.448213
vt 0.279568 0.446975
vt 0.275980 0.445460
vt 0.288574 0.455169
vt 0.289352 0.458477
vt 0.290095 0.462570
vt 0.289640 0.445677
vt 0.291124 0.442521
vt 0.292657 0.438533
vt 0.282179 0.451237
vt 0.279084 0.451863
vt 0.275261 0.452613
vt 0.282988 0.447312
vt 0.280360 0.445508
vt 0.277117 0.443310
vt 0.287497 0.455338
vt 0.287597 0.458657
vt 0.287557 0.462730
vt 0.299311 0.438649
vt 0.272475 0.447226
vt 0.278982 0.437496
vt 0.281579 0.464332
vt 0.301922 0.440788
vt 0.301915 0.459664
vt 0.281652 0.436089
vt 0.278925 0.462896
vt 0.299262 0.461845
vt 0.284531 0.435159
vt 0.276631 0.460960
vt 0.296481 0.463535
vt 0.287546 0.434779
vt 0.274767 0.458635
vt 0.293549 0.464746
vt 0.290598 0.434996
vt 0.273339 0.456024
vt 0.273359 0.444370
vt 0.290533 0.465484
vt 0.293615 0.435691
vt 0.272513 0.453165
vt 0.274777 0.441740
vt 0.287476 0.465617
vt 0.296514 0.436942
vt 0.272200 0.450200
vt 0.276685 0.439436
vt 0.284464 0.465252
vt 0.603696 0.317997
vt 0.579457 0.335362
vt 0.579457 0.325327
vt 0.613732 0.317997
vt 0.603696 0.318017
vt 0.580574 0.335362
vt 0.613732 0.318017
vt 0.580574 0.325327
vt 0.603696 0.307617
vt 0.579457 0.345742
vt 0.579457 0.304743
vt 0.605244 0.304743
vt 0.579457 0.349007
vt 0.612184 0.304743
vt 0.579457 0.311682
vt 0.613732 0.307617
vt 0.579457 0.314947
vt 0.580574 0.349007
vt 0.580574 0.304743
vt 0.605244 0.331272
vt 0.603696 0.328397
vt 0.580574 0.345742
vt 0.613732 0.328397
vt 0.580574 0.314947
vt 0.612184 0.331272
vt 0.580574 0.311682
vt 0.591768 0.328526
vt 0.581712 0.318387
vt 0.581712 0.328423
vt 0.581732 0.328526
vt 0.591788 0.328526
vt 0.580595 0.318387
vt 0.601824 0.328526
vt 0.580595 0.328423
vt 0.591768 0.338906
vt 0.581712 0.308008
vt 0.581712 0.349007
vt 0.590220 0.341780
vt 0.581712 0.304743
vt 0.581712 0.342068
vt 0.583281 0.341780
vt 0.581732 0.338906
vt 0.581712 0.338803
vt 0.580595 0.304743
vt 0.580595 0.349007
vt 0.593336 0.341780
vt 0.591788 0.338906
vt 0.580595 0.308008
vt 0.601824 0.338906
vt 0.580595 0.338803
vt 0.600276 0.341780
vt 0.580595 0.342068
vt 0.736220 0.333612
vt 0.781469 0.055056
vt 0.736400 0.333616
vt 0.779621 0.054350
vt 0.776679 0.074275
vt 0.736194 0.335455
vt 0.774709 0.074031
vt 0.736371 0.335457
vt 0.776634 0.094093
vt 0.736169 0.337295
vt 0.774668 0.094328
vt 0.736348 0.337295
vt 0.781306 0.113311
vt 0.736144 0.339135
vt 0.779455 0.114007
vt 0.736324 0.339138
vt 0.790441 0.130825
vt 0.736122 0.340971
vt 0.788814 0.131942
vt 0.736301 0.340975
vt 0.803513 0.145649
vt 0.736102 0.342806
vt 0.802196 0.147128
vt 0.736280 0.342810
vt 0.819755 0.156905
vt 0.736083 0.344638
vt 0.736259 0.344639
vt 0.818835 0.158651
vt 0.838216 0.163934
vt 0.736064 0.346469
vt 0.837740 0.165853
vt 0.736242 0.346469
vt 0.857855 0.166332
vt 0.736047 0.348300
vt 0.857849 0.168314
vt 0.736225 0.348299
vt 0.877513 0.164062
vt 0.736030 0.350129
vt 0.877975 0.165982
vt 0.736208 0.350128
vt 0.896036 0.157147
vt 0.736015 0.351956
vt 0.896946 0.158904
vt 0.736193 0.351958
vt 0.912390 0.145973
vt 0.736002 0.353780
vt 0.913698 0.147465
vt 0.736178 0.353780
vt 0.925657 0.131169
vt 0.736664 0.307635
vt 0.736063 0.355604
vt 0.736239 0.355590
vt 0.927299 0.132281
vt 0.736847 0.307643
vt 0.934895 0.113575
vt 0.736676 0.309503
vt 0.936750 0.114278
vt 0.736856 0.309504
vt 0.939632 0.094352
vt 0.736633 0.311369
vt 0.941594 0.094590
vt 0.736815 0.311374
vt 0.939627 0.074575
vt 0.736592 0.313232
vt 0.736771 0.313236
vt 0.941594 0.074336
vt 0.736550 0.315095
vt 0.934893 0.055378
vt 0.936740 0.054680
vt 0.736732 0.315100
vt 0.925758 0.037837
vt 0.736512 0.316955
vt 0.927391 0.036718
vt 0.736692 0.316961
vt 0.912662 0.022978
vt 0.736474 0.318812
vt 0.913981 0.021497
vt 0.736653 0.318815
vt 0.896410 0.011689
vt 0.736438 0.320668
vt 0.897333 0.009942
vt 0.736618 0.320669
vt 0.877926 0.004630
vt 0.736403 0.322522
vt 0.878405 0.002706
vt 0.736584 0.322526
vt 0.858282 0.002208
vt 0.736370 0.324374
vt 0.858284 0.000230
vt 0.736549 0.324377
vt 0.838654 0.004564
vt 0.736337 0.326226
vt 0.736517 0.326227
vt 0.838182 0.002645
vt 0.820187 0.011550
vt 0.736305 0.328077
vt 0.819272 0.009803
vt 0.736485 0.328081
vt 0.736276 0.329924
vt 0.803928 0.022768
vt 0.802620 0.021283
vt 0.736454 0.329926
vt 0.790731 0.037548
vt 0.736247 0.331769
vt 0.736426 0.331769
vt 0.789101 0.036415
s 0
usemtl Diffuse.005
f 17/36/1 206/301/1 209/305/1
f 25/51/2 251/363/2 253/366/2
f 188/277/3 11/23/3 185/273/3
f 8/17/4 229/334/4 233/339/4
f 3/5/5 209/305/5 212/309/5
f 257/371/6 25/51/6 253/366/6
f 13/27/7 188/277/7 191/281/7
f 20/41/8 233/339/8 236/343/8
f 4/7/9 212/309/9 215/313/9
f 14/30/10 191/281/10 194/285/10
f 239/347/11 20/41/11 236/343/11
f 5/10/12 215/313/12 218/318/12
f 11/23/13 181/268/13 185/273/13
f 15/31/14 194/285/14 197/289/14
f 22/46/15 239/347/15 242/351/15
f 221/323/16 5/11/16 218/317/16
f 16/33/17 197/289/17 200/293/17
f 23/47/18 242/351/18 245/355/18
f 6/13/19 221/323/19 224/327/19
f 1/2/20 200/293/20 203/297/20
f 248/359/21 23/47/21 245/355/21
f 7/15/22 224/327/22 227/331/22
f 206/301/23 1/2/23 203/297/23
f 9/20/24 248/359/24 251/363/24
f 229/334/25 7/15/25 227/331/25
f 56/111/26 37/75/26 55/110/26
f 27/55/27 61/116/27 62/117/27
f 68/123/28 30/61/28 67/122/28
f 74/129/29 45/92/29 73/128/29
f 77/133/30 38/77/30 56/111/30
f 80/138/31 31/63/31 68/123/31
f 83/141/32 46/94/32 74/129/32
f 40/82/33 77/132/33 86/144/33
f 89/147/34 32/65/34 80/138/34
f 48/98/35 83/141/35 92/150/35
f 95/153/36 40/82/36 86/144/36
f 34/69/37 89/147/37 98/156/37
f 101/159/38 48/98/38 92/150/38
f 42/86/39 95/153/39 104/162/39
f 35/71/40 98/156/40 107/165/40
f 110/168/41 49/100/41 101/159/41
f 113/171/42 27/55/42 62/117/42
f 43/88/43 104/162/43 116/174/43
f 36/73/44 107/165/44 119/177/44
f 122/180/45 50/102/45 110/168/45
f 29/59/46 113/171/46 125/183/46
f 44/90/47 116/174/47 128/186/47
f 37/75/48 119/177/48 55/110/48
f 61/116/49 51/104/49 122/180/49
f 30/61/50 125/183/50 67/122/50
f 45/92/51 128/186/51 73/128/51
f 156/215/52 130/188/52 152/211/52
f 72/127/53 130/188/53 71/126/53
f 72/127/54 128/186/54 129/187/54
f 155/214/55 127/185/55 151/210/55
f 65/120/56 126/184/56 127/185/56
f 67/122/57 126/184/57 66/121/57
f 154/213/58 124/182/58 150/209/58
f 60/115/59 124/182/59 59/114/59
f 61/116/60 123/181/60 60/115/60
f 153/212/61 121/179/61 149/208/61
f 53/108/62 120/178/62 121/179/62
f 55/110/63 120/178/63 54/109/63
f 152/211/64 118/176/64 148/207/64
f 130/188/65 117/175/65 118/176/65
f 129/187/66 116/174/66 117/175/66
f 127/185/67 147/206/67 151/210/67
f 126/184/68 115/173/68 127/185/68
f 125/183/69 114/172/69 126/184/69
f 150/209/70 112/170/70 146/205/70
f 124/182/71 111/169/71 112/170/71
f 123/181/72 110/168/72 111/169/72
f 121/179/73 145/204/73 149/208/73
f 121/179/74 108/166/74 109/167/74
f 120/178/75 107/165/75 108/166/75
f 118/176/76 144/203/76 148/207/76
f 117/175/77 106/164/77 118/176/77
f 116/174/78 105/163/78 117/175/78
f 147/206/79 64/119/79 132/190/79
f 115/173/80 63/118/80 64/119/80
f 114/172/81 62/117/81 63/118/81
f 112/170/82 143/202/82 146/205/82
f 111/169/83 103/161/83 112/170/83
f 110/168/84 102/160/84 111/169/84
f 109/167/85 142/201/85 145/204/85
f 108/166/86 100/158/86 109/167/86
f 107/165/87 99/157/87 108/166/87
f 106/164/88 141/200/88 144/203/88
f 106/164/89 96/154/89 97/155/89
f 105/163/90 95/153/90 96/154/90
f 103/161/91 140/199/91 143/202/91
f 103/161/92 93/151/92 94/152/92
f 101/159/93 93/151/93 102/160/93
f 100/158/94 139/198/94 142/201/94
f 99/157/95 91/149/95 100/158/95
f 99/157/96 89/147/96 90/148/96
f 141/200/97 88/146/97 138/197/97
f 97/155/98 87/145/98 88/146/98
f 96/154/99 86/144/99 87/145/99
f 94/152/100 137/196/100 140/199/100
f 93/151/101 85/143/101 94/152/101
f 93/151/102 83/141/102 84/142/102
f 139/198/103 82/140/103 136/195/103
f 91/149/104 81/139/104 82/140/104
f 90/148/105 80/138/105 81/139/105
f 88/146/106 135/194/106 138/197/106
f 87/145/107 79/136/107 88/146/107
f 86/144/108 78/134/108 87/145/108
f 85/143/109 134/192/109 137/196/109
f 84/142/110 76/131/110 85/143/110
f 83/141/111 75/130/111 84/142/111
f 82/140/112 133/191/112 136/195/112
f 81/139/113 70/125/113 82/140/113
f 80/138/114 69/124/114 81/139/114
f 79/137/115 131/189/115 135/193/115
f 79/137/116 57/112/116 58/113/116
f 78/135/117 56/111/117 57/112/117
f 134/192/118 71/126/118 156/215/118
f 76/131/119 72/127/119 71/126/119
f 74/129/120 72/127/120 75/130/120
f 70/125/121 155/214/121 133/191/121
f 69/124/122 65/120/122 70/125/122
f 69/124/123 67/122/123 66/121/123
f 64/119/124 154/213/124 132/190/124
f 63/118/125 59/114/125 64/119/125
f 62/117/126 60/115/126 63/118/126
f 58/113/127 153/212/127 131/189/127
f 58/113/128 54/109/128 53/108/128
f 57/112/129 55/110/129 54/109/129
f 4/8/130 153/212/130 3/6/130
f 132/190/131 26/53/131 10/21/131
f 133/191/132 13/28/132 14/29/132
f 134/192/133 20/42/133 21/44/133
f 135/193/134 4/8/134 5/9/134
f 15/32/135 133/191/135 14/29/135
f 137/196/136 21/44/136 22/45/136
f 138/197/137 5/12/137 18/37/137
f 139/198/138 15/32/138 16/34/138
f 23/48/139 137/196/139 22/45/139
f 6/14/140 138/197/140 18/37/140
f 142/201/141 16/34/141 1/1/141
f 24/50/142 140/199/142 23/48/142
f 144/203/143 6/14/143 7/16/143
f 2/4/144 142/201/144 1/1/144
f 146/205/145 24/50/145 9/19/145
f 11/24/146 132/190/146 10/21/146
f 148/207/147 7/16/147 19/39/147
f 149/208/148 2/4/148 17/35/148
f 25/52/149 146/205/149 9/19/149
f 12/26/150 147/206/150 11/24/150
f 8/18/151 148/207/151 19/39/151
f 3/6/152 149/208/152 17/35/152
f 26/53/153 150/209/153 25/52/153
f 155/214/154 12/26/154 13/28/154
f 156/215/155 8/18/155 20/42/155
f 31/64/156 39/81/156 47/97/156
f 163/230/157 165/234/157 168/241/157
f 167/238/15 165/235/15 159/220/15
f 161/224/20 163/229/20 158/219/20
f 160/223/158 157/217/158 158/218/158
f 164/232/159 160/223/159 158/218/159
f 163/230/160 167/239/160 164/232/160
f 162/228/161 166/237/161 165/233/161
f 166/237/162 157/217/162 159/221/162
f 175/255/157 177/260/157 180/267/157
f 179/264/162 177/261/162 171/246/162
f 173/250/159 175/256/159 170/245/159
f 172/249/158 169/243/158 170/244/158
f 176/258/15 172/249/15 170/244/15
f 180/267/163 176/258/163 175/255/163
f 174/254/164 178/263/164 177/259/164
f 178/263/20 169/243/20 171/247/20
f 10/22/165 257/371/165 181/268/165
f 182/269/166 186/274/166 183/271/166
f 186/275/167 181/268/167 183/270/167
f 208/304/168 207/302/169 205/300/169
f 207/303/170 209/305/170 206/301/170
f 230/335/171 234/340/171 231/336/171
f 231/337/172 233/339/172 229/334/172
f 256/370/173 255/368/173 254/367/173
f 255/369/174 257/371/174 253/366/174
f 181/268/175 258/372/175 183/270/175
f 258/373/176 182/269/176 183/271/176
f 184/272/177 189/278/177 186/274/177
f 189/279/178 185/273/178 186/275/178
f 211/308/179 210/306/179 208/304/179
f 210/307/180 212/309/180 209/305/180
f 232/338/181 237/344/181 234/340/181
f 237/345/182 233/339/182 234/341/182
f 187/276/183 192/282/183 189/278/183
f 192/283/184 188/277/184 189/279/184
f 214/312/185 213/310/185 211/308/185
f 213/311/186 215/313/186 212/309/186
f 235/342/187 240/348/187 237/344/187
f 240/349/188 236/343/188 237/345/188
f 190/280/189 195/286/189 192/282/189
f 195/287/190 191/281/190 192/283/190
f 217/316/191 216/314/191 214/312/191
f 216/315/192 218/318/192 215/313/192
f 241/350/193 240/348/193 238/346/193
f 240/349/194 242/351/194 239/347/194
f 193/284/195 198/290/196 195/286/197
f 198/291/198 194/285/198 195/287/198
f 220/322/199 219/320/199 217/316/199
f 219/321/200 221/323/200 218/317/200
f 241/350/201 246/356/201 243/352/201
f 243/353/202 245/355/202 242/351/202
f 199/292/203 198/290/203 196/288/203
f 198/291/204 200/293/204 197/289/204
f 220/322/205 225/328/205 222/324/205
f 225/329/206 221/323/206 222/325/206
f 247/358/207 246/356/207 244/354/207
f 246/357/208 248/359/208 245/355/208
f 202/296/209 201/295/209 199/292/209
f 204/299/210 200/293/211 201/294/211
f 223/326/212 228/333/212 225/328/212
f 228/332/213 224/327/213 225/329/213
f 250/362/214 249/361/214 247/358/214
f 252/365/215 248/359/215 249/360/215
f 202/296/216 207/302/216 204/298/216
f 207/303/217 203/297/217 204/299/217
f 230/335/218 228/333/218 226/330/218
f 231/337/219 227/331/219 228/332/219
f 254/367/220 252/364/220 250/362/220
f 252/365/221 253/366/221 251/363/221
f 254/367/158 230/335/158 205/300/158
f 17/36/222 2/3/222 206/301/222
f 25/51/2 9/20/2 251/363/2
f 188/277/3 12/25/3 11/23/3
f 8/17/4 19/40/4 229/334/4
f 3/5/5 17/36/5 209/305/5
f 257/371/6 26/54/6 25/51/6
f 13/27/223 12/25/223 188/277/223
f 20/41/8 8/17/8 233/339/8
f 4/7/224 3/5/224 212/309/224
f 14/30/10 13/27/10 191/281/10
f 239/347/225 21/43/225 20/41/225
f 5/10/12 4/7/12 215/313/12
f 11/23/13 10/22/13 181/268/13
f 15/31/226 14/30/226 194/285/226
f 22/46/15 21/43/15 239/347/15
f 221/323/16 18/38/16 5/11/16
f 16/33/227 15/31/227 197/289/227
f 23/47/228 22/46/228 242/351/228
f 6/13/19 18/38/19 221/323/19
f 1/2/20 16/33/20 200/293/20
f 248/359/229 24/49/229 23/47/229
f 7/15/22 6/13/22 224/327/22
f 206/301/230 2/3/230 1/2/230
f 9/20/24 24/49/24 248/359/24
f 229/334/25 19/40/25 7/15/25
f 56/111/231 38/77/231 37/75/231
f 27/55/27 52/106/27 61/116/27
f 68/123/28 31/63/28 30/61/28
f 74/129/29 46/94/29 45/92/29
f 77/133/232 39/79/232 38/77/232
f 80/138/233 32/65/233 31/63/233
f 83/141/32 47/96/32 46/94/32
f 40/82/33 39/80/33 77/132/33
f 89/147/34 33/67/34 32/65/34
f 48/98/35 47/96/35 83/141/35
f 95/153/36 41/84/36 40/82/36
f 34/69/37 33/67/37 89/147/37
f 101/159/234 49/100/234 48/98/234
f 42/86/235 41/84/235 95/153/235
f 35/71/40 34/69/40 98/156/40
f 110/168/236 50/102/236 49/100/236
f 113/171/42 28/57/42 27/55/42
f 43/88/43 42/86/43 104/162/43
f 36/73/237 35/71/237 107/165/237
f 122/180/45 51/104/45 50/102/45
f 29/59/238 28/57/238 113/171/238
f 44/90/239 43/88/239 116/174/239
f 37/75/48 36/73/48 119/177/48
f 61/116/240 52/106/240 51/104/240
f 30/61/241 29/59/241 125/183/241
f 45/92/242 44/90/242 128/186/242
f 156/215/52 71/126/52 130/188/52
f 72/127/53 129/187/53 130/188/53
f 72/127/54 73/128/54 128/186/54
f 155/214/55 65/120/55 127/185/55
f 65/120/243 66/121/243 126/184/243
f 67/122/57 125/183/57 126/184/57
f 154/213/244 59/114/244 124/182/244
f 60/115/245 123/181/245 124/182/245
f 61/116/60 122/180/60 123/181/60
f 153/212/61 53/108/61 121/179/61
f 53/108/62 54/109/62 120/178/62
f 55/110/63 119/177/63 120/178/63
f 152/211/64 130/188/64 118/176/64
f 130/188/65 129/187/65 117/175/65
f 129/187/66 128/186/66 116/174/66
f 127/185/246 115/173/246 147/206/246
f 126/184/68 114/172/68 115/173/68
f 125/183/247 113/171/247 114/172/247
f 150/209/248 124/182/248 112/170/248
f 124/182/249 123/181/249 111/169/249
f 123/181/72 122/180/72 110/168/72
f 121/179/250 109/167/250 145/204/250
f 121/179/251 120/178/251 108/166/251
f 120/178/75 119/177/75 107/165/75
f 118/176/252 106/164/252 144/203/252
f 117/175/253 105/163/253 106/164/253
f 116/174/254 104/162/254 105/163/254
f 147/206/79 115/173/79 64/119/79
f 115/173/255 114/172/255 63/118/255
f 114/172/256 113/171/256 62/117/256
f 112/170/82 103/161/82 143/202/82
f 111/169/257 102/160/257 103/161/257
f 110/168/258 101/159/258 102/160/258
f 109/167/85 100/158/85 142/201/85
f 108/166/86 99/157/86 100/158/86
f 107/165/259 98/156/259 99/157/259
f 106/164/88 97/155/88 141/200/88
f 106/164/260 105/163/260 96/154/260
f 105/163/261 104/162/261 95/153/261
f 103/161/91 94/152/91 140/199/91
f 103/161/262 102/160/262 93/151/262
f 101/159/93 92/150/93 93/151/93
f 100/158/94 91/149/94 139/198/94
f 99/157/95 90/148/95 91/149/95
f 99/157/263 98/156/263 89/147/263
f 141/200/264 97/155/264 88/146/264
f 97/155/265 96/154/265 87/145/265
f 96/154/266 95/153/266 86/144/266
f 94/152/100 85/143/100 137/196/100
f 93/151/267 84/142/267 85/143/267
f 93/151/268 92/150/268 83/141/268
f 139/198/103 91/149/103 82/140/103
f 91/149/104 90/148/104 81/139/104
f 90/148/269 89/147/269 80/138/269
f 88/146/270 79/136/270 135/194/270
f 87/145/107 78/134/107 79/136/107
f 86/144/271 77/132/271 78/134/271
f 85/143/109 76/131/109 134/192/109
f 84/142/110 75/130/110 76/131/110
f 83/141/111 74/129/111 75/130/111
f 82/140/272 70/125/272 133/191/272
f 81/139/113 69/124/113 70/125/113
f 80/138/114 68/123/114 69/124/114
f 79/137/115 58/113/115 131/189/115
f 79/137/116 78/135/116 57/112/116
f 78/135/273 77/133/273 56/111/273
f 134/192/118 76/131/118 71/126/118
f 76/131/274 75/130/274 72/127/274
f 74/129/275 73/128/275 72/127/275
f 70/125/121 65/120/121 155/214/121
f 69/124/276 66/121/276 65/120/276
f 69/124/277 68/123/277 67/122/277
f 64/119/278 59/114/278 154/213/278
f 63/118/279 60/115/279 59/114/279
f 62/117/280 61/116/280 60/115/280
f 58/113/281 53/108/281 153/212/281
f 58/113/128 57/112/128 54/109/128
f 57/112/282 56/111/282 55/110/282
f 4/8/283 131/189/283 153/212/283
f 132/190/131 154/213/131 26/53/131
f 133/191/284 155/214/284 13/28/284
f 134/192/133 156/215/133 20/42/133
f 135/193/285 131/189/285 4/8/285
f 15/32/135 136/195/135 133/191/135
f 137/196/136 134/192/136 21/44/136
f 138/197/137 135/194/137 5/12/137
f 139/198/138 136/195/138 15/32/138
f 23/48/139 140/199/139 137/196/139
f 6/14/140 141/200/140 138/197/140
f 142/201/141 139/198/141 16/34/141
f 24/50/142 143/202/142 140/199/142
f 144/203/286 141/200/286 6/14/286
f 2/4/144 145/204/144 142/201/144
f 146/205/287 143/202/287 24/50/287
f 11/24/146 147/206/146 132/190/146
f 148/207/288 144/203/288 7/16/288
f 149/208/148 145/204/148 2/4/148
f 25/52/149 150/209/149 146/205/149
f 12/26/150 151/210/150 147/206/150
f 8/18/151 152/211/151 148/207/151
f 3/6/152 153/212/152 149/208/152
f 26/53/153 154/213/153 150/209/153
f 155/214/289 151/210/289 12/26/289
f 156/215/155 152/211/155 8/18/155
f 27/56/290 28/58/290 29/60/290
f 29/60/291 30/62/291 31/64/291
f 31/64/291 32/66/291 33/68/291
f 33/68/291 34/70/291 35/72/291
f 35/72/157 36/74/157 37/76/157
f 37/76/292 38/78/292 39/81/292
f 39/81/157 40/83/157 41/85/157
f 41/85/293 42/87/293 43/89/293
f 43/89/294 44/91/294 45/93/294
f 45/93/295 46/95/295 47/97/295
f 47/97/296 48/99/296 49/101/296
f 49/101/297 50/103/297 51/105/297
f 51/105/298 52/107/298 27/56/298
f 27/56/299 29/60/299 31/64/299
f 31/64/157 33/68/157 35/72/157
f 35/72/300 37/76/300 39/81/300
f 39/81/301 41/85/301 43/89/301
f 43/89/157 45/93/157 47/97/157
f 47/97/302 49/101/302 51/105/302
f 51/105/303 27/56/303 31/64/303
f 31/64/304 35/72/304 39/81/304
f 39/81/291 43/89/291 47/97/291
f 47/97/157 51/105/157 31/64/157
f 163/230/157 162/226/157 165/234/157
f 159/220/15 160/222/15 167/238/15
f 167/238/15 168/240/15 165/235/15
f 165/235/15 166/236/15 159/220/15
f 158/219/20 157/216/20 161/224/20
f 161/224/20 162/227/20 163/229/20
f 163/229/20 164/231/20 158/219/20
f 160/223/158 159/221/158 157/217/158
f 164/232/159 167/239/159 160/223/159
f 163/230/160 168/241/160 167/239/160
f 162/228/161 161/225/161 166/237/161
f 166/237/162 161/225/162 157/217/162
f 175/255/157 174/252/157 177/260/157
f 171/246/162 172/248/162 179/264/162
f 179/264/162 180/266/162 177/261/162
f 177/261/162 178/262/162 171/246/162
f 170/245/159 169/242/159 173/250/159
f 173/250/159 174/253/159 175/256/159
f 175/256/159 176/257/159 170/245/159
f 172/249/158 171/247/158 169/243/158
f 176/258/15 179/265/15 172/249/15
f 180/267/163 179/265/163 176/258/163
f 174/254/164 173/251/164 178/263/164
f 178/263/20 173/251/20 169/243/20
f 10/22/165 26/54/165 257/371/165
f 182/269/166 184/272/166 186/274/166
f 186/275/305 185/273/305 181/268/305
f 208/304/306 210/306/306 207/302/307
f 207/303/308 210/307/308 209/305/308
f 230/335/309 232/338/309 234/340/309
f 231/337/310 234/341/310 233/339/310
f 256/370/173 258/373/173 255/368/173
f 255/369/311 258/372/311 257/371/311
f 181/268/312 257/371/312 258/372/312
f 258/373/176 256/370/176 182/269/176
f 184/272/177 187/276/177 189/278/177
f 189/279/313 188/277/313 185/273/313
f 211/308/179 213/310/179 210/306/179
f 210/307/314 213/311/314 212/309/314
f 232/338/315 235/342/315 237/344/315
f 237/345/316 236/343/316 233/339/316
f 187/276/317 190/280/317 192/282/317
f 192/283/318 191/281/318 188/277/318
f 214/312/319 216/314/319 213/310/319
f 213/311/320 216/315/320 215/313/320
f 235/342/321 238/346/321 240/348/321
f 240/349/322 239/347/322 236/343/322
f 190/280/323 193/284/323 195/286/323
f 195/287/324 194/285/324 191/281/324
f 217/316/191 219/320/191 216/314/191
f 216/315/325 219/319/325 218/318/325
f 241/350/193 243/352/193 240/348/193
f 240/349/326 243/353/326 242/351/326
f 193/284/327 196/288/328 198/290/328
f 198/291/329 197/289/329 194/285/329
f 220/322/199 222/324/199 219/320/199
f 219/321/330 222/325/331 221/323/331
f 241/350/332 244/354/332 246/356/332
f 243/353/202 246/357/202 245/355/202
f 199/292/333 201/295/333 198/290/333
f 198/291/334 201/294/334 200/293/334
f 220/322/335 223/326/335 225/328/335
f 225/329/336 224/327/336 221/323/336
f 247/358/337 249/361/337 246/356/337
f 246/357/338 249/360/338 248/359/338
f 202/296/209 204/298/209 201/295/209
f 204/299/339 203/297/339 200/293/340
f 223/326/341 226/330/341 228/333/341
f 228/332/342 227/331/342 224/327/342
f 250/362/214 252/364/214 249/361/214
f 252/365/343 251/363/343 248/359/343
f 202/296/344 205/300/344 207/302/344
f 207/303/345 206/301/345 203/297/345
f 230/335/346 231/336/346 228/333/346
f 231/337/347 229/334/347 227/331/347
f 254/367/348 255/368/348 252/364/348
f 252/365/349 255/369/349 253/366/349
f 187/276/158 184/272/158 182/269/158
f 182/269/158 256/370/158 254/367/158
f 254/367/158 250/362/158 247/358/158
f 247/358/158 244/354/158 241/350/158
f 241/350/158 238/346/158 235/342/158
f 235/342/158 232/338/158 230/335/158
f 230/335/158 226/330/158 223/326/158
f 223/326/158 220/322/158 217/316/158
f 217/316/158 214/312/158 211/308/158
f 211/308/158 208/304/158 205/300/158
f 205/300/158 202/296/158 199/292/158
f 199/292/158 196/288/158 193/284/158
f 193/284/158 190/280/158 187/276/158
f 187/276/158 182/269/158 254/367/158
f 254/367/158 247/358/158 241/350/158
f 241/350/158 235/342/158 230/335/158
f 230/335/158 223/326/158 217/316/158
f 217/316/158 211/308/158 205/300/158
f 205/300/158 199/292/158 193/284/158
f 193/284/158 187/276/158 254/367/158
f 254/367/158 241/350/158 230/335/158
f 230/335/158 217/316/158 205/300/158
f 205/300/158 193/284/158 254/367/158
