# Blender 3.3.1
# www.blender.org
o number-4
v -0.060000 0.100000 0.040000
v -0.020000 0.100000 0.040000
v -0.060000 0.100000 -0.040000
v -0.020000 0.100000 -0.040000
v -0.020000 0.020000 0.040000
v -0.020000 0.020000 -0.040000
v -0.060000 -0.020000 -0.040000
v -0.060000 -0.020000 0.040000
v 0.060000 -0.100000 0.040000
v 0.020000 -0.100000 0.040000
v 0.060000 -0.100000 -0.040000
v 0.020000 -0.100000 -0.040000
v 0.020000 -0.020000 0.040000
v 0.020000 -0.020000 -0.040000
v 0.020000 0.100000 0.040000
v 0.060000 0.100000 0.040000
v 0.020000 0.100000 -0.040000
v 0.060000 0.100000 -0.040000
v 0.020000 0.020000 -0.040000
v 0.020000 0.020000 0.040000
vn -0.0000 1.0000 -0.0000
vn 1.0000 -0.0000 -0.0000
vn -1.0000 -0.0000 -0.0000
vn -0.0000 -1.0000 -0.0000
vn -0.0000 -0.0000 1.0000
vn -0.0000 -0.0000 -1.0000
vt 0.218750 0.225000
vt 0.343750 0.475000
vt 0.218750 0.225000
vt 0.343750 0.475000
vt 0.218750 0.225000
vt 0.343750 0.475000
vt 0.218750 0.225000
vt 0.343750 0.475000
vt 0.218750 0.145000
vt 0.343750 0.395000
vt 0.218750 0.145000
vt 0.343750 0.395000
vt 0.218750 0.105000
vt 0.343750 0.355000
vt 0.218750 0.105000
vt 0.343750 0.355000
vt 0.218750 0.025000
vt 0.343750 0.275000
vt 0.218750 0.025000
vt 0.343750 0.275000
vt 0.218750 0.025000
vt 0.343750 0.275000
vt 0.218750 0.025000
vt 0.343750 0.275000
vt 0.218750 0.105000
vt 0.343750 0.355000
vt 0.218750 0.105000
vt 0.343750 0.355000
vt 0.218750 0.225000
vt 0.343750 0.475000
vt 0.218750 0.225000
vt 0.343750 0.475000
vt 0.218750 0.225000
vt 0.343750 0.475000
vt 0.218750 0.225000
vt 0.343750 0.475000
vt 0.218750 0.145000
vt 0.343750 0.395000
vt 0.218750 0.145000
vt 0.343750 0.395000
s 0
f 3/5/1 1/1/1 2/3/1
f 2/3/1 4/7/1 3/5/1
f 2/3/2 5/9/2 6/11/2
f 6/11/2 4/7/2 2/3/2
f 3/5/3 7/13/3 8/15/3
f 8/15/3 1/1/3 3/5/3
f 11/21/4 9/17/4 10/19/4
f 10/19/4 12/23/4 11/21/4
f 14/27/4 13/25/4 8/15/4
f 8/15/4 7/13/4 14/27/4
f 14/27/3 12/23/3 10/19/3
f 10/19/3 13/25/3 14/27/3
f 17/33/1 15/29/1 16/31/1
f 16/31/1 18/35/1 17/33/1
f 17/33/3 19/37/3 20/39/3
f 20/39/3 15/29/3 17/33/3
f 16/31/2 9/17/2 11/21/2
f 11/21/2 18/35/2 16/31/2
f 6/11/1 5/9/1 20/39/1
f 20/39/1 19/37/1 6/11/1
f 16/32/5 15/30/5 20/40/5
f 20/40/5 13/26/5 16/32/5
f 13/26/5 20/40/5 5/10/5
f 13/26/5 10/20/5 16/32/5
f 10/20/5 9/18/5 16/32/5
f 8/16/5 13/26/5 5/10/5
f 8/16/5 5/10/5 2/4/5
f 2/4/5 1/2/5 8/16/5
f 11/22/6 12/24/6 14/28/6
f 14/28/6 19/38/6 11/22/6
f 19/38/6 17/34/6 11/22/6
f 17/34/6 18/36/6 11/22/6
f 6/12/6 19/38/6 14/28/6
f 6/12/6 14/28/6 7/14/6
f 7/14/6 3/6/6 6/12/6
f 4/8/6 6/12/6 3/6/6
f 3/5/1 1/1/1 2/3/1
f 2/3/1 4/7/1 3/5/1
f 2/3/2 5/9/2 6/11/2
f 6/11/2 4/7/2 2/3/2
f 3/5/3 7/13/3 8/15/3
f 8/15/3 1/1/3 3/5/3
f 11/21/4 9/17/4 10/19/4
f 10/19/4 12/23/4 11/21/4
f 14/27/4 13/25/4 8/15/4
f 8/15/4 7/13/4 14/27/4
f 14/27/3 12/23/3 10/19/3
f 10/19/3 13/25/3 14/27/3
f 17/33/1 15/29/1 16/31/1
f 16/31/1 18/35/1 17/33/1
f 17/33/3 19/37/3 20/39/3
f 20/39/3 15/29/3 17/33/3
f 16/31/2 9/17/2 11/21/2
f 11/21/2 18/35/2 16/31/2
f 6/11/1 5/9/1 20/39/1
f 20/39/1 19/37/1 6/11/1
f 16/32/5 15/30/5 20/40/5
f 20/40/5 13/26/5 16/32/5
f 13/26/5 20/40/5 5/10/5
f 13/26/5 10/20/5 16/32/5
f 10/20/5 9/18/5 16/32/5
f 8/16/5 13/26/5 5/10/5
f 8/16/5 5/10/5 2/4/5
f 2/4/5 1/2/5 8/16/5
f 11/22/6 12/24/6 14/28/6
f 14/28/6 19/38/6 11/22/6
f 19/38/6 17/34/6 11/22/6
f 17/34/6 18/36/6 11/22/6
f 6/12/6 19/38/6 14/28/6
f 6/12/6 14/28/6 7/14/6
f 7/14/6 3/6/6 6/12/6
f 4/8/6 6/12/6 3/6/6
