# Blender 3.3.1
# www.blender.org
o number-7
v -0.020000 -0.100000 -0.040000
v -0.020000 -0.100000 0.040000
v -0.020000 -0.060000 -0.040000
v -0.020000 -0.060000 0.040000
v 0.060000 0.060000 0.040000
v 0.060000 0.060000 -0.040000
v 0.060000 0.080000 0.040000
v 0.060000 0.080000 -0.040000
v 0.055000 0.095000 0.040000
v 0.055000 0.095000 -0.040000
v 0.040000 0.100000 0.040000
v 0.040000 0.100000 -0.040000
v 0.020000 0.060000 -0.040000
v 0.020000 0.060000 0.040000
v -0.060000 0.060000 -0.040000
v -0.060000 0.060000 0.040000
v -0.060000 0.100000 -0.040000
v -0.060000 0.100000 0.040000
v 0.020000 -0.060000 0.040000
v 0.020000 -0.060000 -0.040000
v 0.020000 -0.100000 0.040000
v 0.020000 -0.100000 -0.040000
vn -0.9871 0.1602 -0.0000
vn -1.0000 -0.0000 -0.0000
vn 0.9871 0.1602 -0.0000
vn 1.0000 -0.0000 -0.0000
vn 0.7071 0.7071 -0.0000
vn 0.9871 0.1602 -0.0001
vn 0.1602 0.9871 -0.0000
vn -0.9487 0.3162 -0.0000
vn 0.9487 -0.3162 -0.0000
vn 0.9871 -0.1602 -0.0000
vn -0.0000 -1.0000 -0.0000
vn -0.0000 1.0000 -0.0000
vn -0.0000 -0.0000 1.0000
vn -0.0000 -0.0000 -1.0000
vt 0.218750 0.025000
vt 0.343750 0.275000
vt 0.218750 0.025000
vt 0.343750 0.275000
vt 0.218750 0.065000
vt 0.343750 0.315000
vt 0.218750 0.065000
vt 0.343750 0.315000
vt 0.218750 0.185000
vt 0.343750 0.435000
vt 0.218750 0.185000
vt 0.343750 0.435000
vt 0.218750 0.205000
vt 0.343750 0.455000
vt 0.218750 0.205000
vt 0.343750 0.455000
vt 0.218750 0.220000
vt 0.343750 0.470000
vt 0.218750 0.220000
vt 0.343750 0.470000
vt 0.218750 0.225000
vt 0.343750 0.475000
vt 0.218750 0.225000
vt 0.343750 0.475000
vt 0.218750 0.185000
vt 0.343750 0.435000
vt 0.218750 0.185000
vt 0.343750 0.435000
vt 0.218750 0.185000
vt 0.343750 0.435000
vt 0.218750 0.185000
vt 0.343750 0.435000
vt 0.218750 0.225000
vt 0.343750 0.475000
vt 0.218750 0.225000
vt 0.343750 0.475000
vt 0.218750 0.065000
vt 0.343750 0.315000
vt 0.218750 0.065000
vt 0.343750 0.315000
vt 0.218750 0.025000
vt 0.343750 0.275000
vt 0.218750 0.025000
vt 0.343750 0.275000
s 0
f 3/5/1 1/1/2 2/3/2
f 2/3/2 4/7/1 3/5/1
f 7/13/3 5/9/4 6/11/4
f 6/11/4 8/15/3 7/13/3
f 9/17/5 7/13/6 8/15/3
f 8/15/3 10/19/5 9/17/5
f 12/23/7 11/21/7 9/17/5
f 9/17/5 10/19/5 12/23/7
f 13/25/8 3/5/1 4/7/1
f 4/7/1 14/27/8 13/25/8
f 17/33/2 15/29/2 16/31/2
f 16/31/2 18/35/2 17/33/2
f 5/9/9 19/37/10 20/39/10
f 20/39/10 6/11/9 5/9/9
f 22/43/11 21/41/11 2/3/11
f 2/3/11 1/1/11 22/43/11
f 17/33/12 18/35/12 11/21/7
f 11/21/7 12/23/7 17/33/12
f 19/37/10 21/41/4 22/43/4
f 22/43/4 20/39/10 19/37/10
f 13/25/11 14/27/11 16/31/11
f 16/31/11 15/29/11 13/25/11
f 14/28/13 4/8/13 2/4/13
f 2/4/13 21/42/13 14/28/13
f 21/42/13 19/38/13 14/28/13
f 14/28/13 19/38/13 11/22/13
f 16/32/13 14/28/13 11/22/13
f 11/22/13 18/36/13 16/32/13
f 19/38/13 5/10/13 11/22/13
f 5/10/13 9/18/13 11/22/13
f 5/10/13 7/14/13 9/18/13
f 22/44/14 1/2/14 3/6/14
f 3/6/14 13/26/14 22/44/14
f 13/26/14 20/40/14 22/44/14
f 13/26/14 6/12/14 20/40/14
f 13/26/14 12/24/14 6/12/14
f 12/24/14 10/20/14 6/12/14
f 10/20/14 8/16/14 6/12/14
f 17/34/14 12/24/14 13/26/14
f 13/26/14 15/30/14 17/34/14
f 3/5/1 1/1/2 2/3/2
f 2/3/2 4/7/1 3/5/1
f 7/13/3 5/9/4 6/11/4
f 6/11/4 8/15/3 7/13/3
f 9/17/5 7/13/6 8/15/3
f 8/15/3 10/19/5 9/17/5
f 12/23/7 11/21/7 9/17/5
f 9/17/5 10/19/5 12/23/7
f 13/25/8 3/5/1 4/7/1
f 4/7/1 14/27/8 13/25/8
f 17/33/2 15/29/2 16/31/2
f 16/31/2 18/35/2 17/33/2
f 5/9/9 19/37/10 20/39/10
f 20/39/10 6/11/9 5/9/9
f 22/43/11 21/41/11 2/3/11
f 2/3/11 1/1/11 22/43/11
f 17/33/12 18/35/12 11/21/7
f 11/21/7 12/23/7 17/33/12
f 19/37/10 21/41/4 22/43/4
f 22/43/4 20/39/10 19/37/10
f 13/25/11 14/27/11 16/31/11
f 16/31/11 15/29/11 13/25/11
f 14/28/13 4/8/13 2/4/13
f 2/4/13 21/42/13 14/28/13
f 21/42/13 19/38/13 14/28/13
f 14/28/13 19/38/13 11/22/13
f 16/32/13 14/28/13 11/22/13
f 11/22/13 18/36/13 16/32/13
f 19/38/13 5/10/13 11/22/13
f 5/10/13 9/18/13 11/22/13
f 5/10/13 7/14/13 9/18/13
f 22/44/14 1/2/14 3/6/14
f 3/6/14 13/26/14 22/44/14
f 13/26/14 20/40/14 22/44/14
f 13/26/14 6/12/14 20/40/14
f 13/26/14 12/24/14 6/12/14
f 12/24/14 10/20/14 6/12/14
f 10/20/14 8/16/14 6/12/14
f 17/34/14 12/24/14 13/26/14
f 13/26/14 15/30/14 17/34/14
