# Blender 3.3.1
# www.blender.org
o number-2
v 0.055000 -0.015000 0.040000
v 0.040000 -0.020000 0.040000
v 0.055000 -0.015000 -0.040000
v 0.040000 -0.020000 -0.040000
v 0.060000 -0.100000 0.040000
v -0.060000 -0.100000 0.040000
v 0.060000 -0.100000 -0.040000
v -0.060000 -0.100000 -0.040000
v 0.040000 0.100000 0.040000
v 0.055000 0.095000 0.040000
v 0.040000 0.100000 -0.040000
v 0.055000 0.095000 -0.040000
v 0.060000 0.080000 0.040000
v 0.060000 0.080000 -0.040000
v 0.020000 0.020000 -0.040000
v 0.020000 0.020000 0.040000
v 0.020000 0.060000 -0.040000
v 0.020000 0.060000 0.040000
v -0.040000 0.020000 0.040000
v -0.040000 0.020000 -0.040000
v -0.020000 -0.020000 0.040000
v -0.020000 -0.020000 -0.040000
v -0.020000 -0.060000 0.040000
v 0.060000 -0.060000 0.040000
v -0.020000 -0.060000 -0.040000
v 0.060000 -0.060000 -0.040000
v 0.060000 0.000000 0.040000
v 0.060000 0.000000 -0.040000
v -0.060000 0.100000 0.040000
v -0.060000 0.100000 -0.040000
v -0.060000 0.060000 -0.040000
v -0.060000 0.060000 0.040000
v -0.060000 -0.000000 -0.040000
v -0.060000 -0.000000 0.040000
v -0.055000 0.015000 -0.040000
v -0.055000 0.015000 0.040000
vn 0.7071 -0.7071 -0.0000
vn 0.1602 -0.9871 -0.0000
vn -0.0000 -1.0000 -0.0000
vn 0.1602 0.9871 -0.0000
vn 0.7071 0.7071 -0.0000
vn 0.9871 0.1602 -0.0000
vn 0.9871 0.1602 -0.0001
vn -1.0000 -0.0000 -0.0000
vn -0.1602 0.9871 -0.0000
vn -0.0000 1.0000 -0.0000
vn 0.9871 -0.1602 -0.0000
vn 1.0000 -0.0000 -0.0000
vn -0.7071 0.7071 -0.0000
vn -0.9871 0.1602 -0.0000
vn -0.0000 -0.0000 -1.0000
vn -0.0000 -0.0000 1.0000
vt 0.218750 0.110000
vt 0.343750 0.360000
vt 0.218750 0.105000
vt 0.343750 0.355000
vt 0.218750 0.110000
vt 0.343750 0.360000
vt 0.218750 0.105000
vt 0.343750 0.355000
vt 0.218750 0.025000
vt 0.343750 0.275000
vt 0.218750 0.025000
vt 0.343750 0.275000
vt 0.218750 0.025000
vt 0.343750 0.275000
vt 0.218750 0.025000
vt 0.343750 0.275000
vt 0.218750 0.225000
vt 0.343750 0.475000
vt 0.218750 0.220000
vt 0.343750 0.470000
vt 0.218750 0.225000
vt 0.343750 0.475000
vt 0.218750 0.220000
vt 0.343750 0.470000
vt 0.218750 0.205000
vt 0.343750 0.455000
vt 0.218750 0.205000
vt 0.343750 0.455000
vt 0.218750 0.145000
vt 0.343750 0.395000
vt 0.218750 0.145000
vt 0.343750 0.395000
vt 0.218750 0.185000
vt 0.343750 0.435000
vt 0.218750 0.185000
vt 0.343750 0.435000
vt 0.218750 0.145000
vt 0.343750 0.395000
vt 0.218750 0.145000
vt 0.343750 0.395000
vt 0.218750 0.105000
vt 0.343750 0.355000
vt 0.218750 0.105000
vt 0.343750 0.355000
vt 0.218750 0.065000
vt 0.343750 0.315000
vt 0.218750 0.065000
vt 0.343750 0.315000
vt 0.218750 0.065000
vt 0.343750 0.315000
vt 0.218750 0.065000
vt 0.343750 0.315000
vt 0.218750 0.125000
vt 0.343750 0.375000
vt 0.218750 0.125000
vt 0.343750 0.375000
vt 0.218750 0.225000
vt 0.343750 0.475000
vt 0.218750 0.225000
vt 0.343750 0.475000
vt 0.218750 0.185000
vt 0.343750 0.435000
vt 0.218750 0.185000
vt 0.343750 0.435000
vt 0.218750 0.125000
vt 0.343750 0.375000
vt 0.218750 0.125000
vt 0.343750 0.375000
vt 0.218750 0.140000
vt 0.343750 0.390000
vt 0.218750 0.140000
vt 0.343750 0.390000
s 0
f 3/5/1 1/1/1 2/3/2
f 2/3/2 4/7/2 3/5/1
f 7/13/3 5/9/3 6/11/3
f 6/11/3 8/15/3 7/13/3
f 11/21/4 9/17/4 10/19/5
f 10/19/5 12/23/5 11/21/4
f 10/19/5 13/25/7 14/27/6
f 14/27/6 12/23/5 10/19/5
f 17/33/8 15/29/8 16/31/8
f 16/31/8 18/35/8 17/33/8
f 20/39/9 19/37/9 16/31/10
f 16/31/10 15/29/10 20/39/9
f 4/7/2 2/3/2 21/41/3
f 21/41/3 22/43/3 4/7/2
f 25/49/10 23/45/10 24/47/10
f 24/47/10 26/51/10 25/49/10
f 27/53/11 1/1/1 3/5/1
f 3/5/1 28/55/11 27/53/11
f 30/59/10 29/57/10 9/17/4
f 9/17/4 11/21/4 30/59/10
f 13/25/6 27/53/11 28/55/11
f 28/55/11 14/27/6 13/25/6
f 24/47/12 5/9/12 7/13/12
f 7/13/12 26/51/12 24/47/12
f 21/41/12 23/45/12 25/49/12
f 25/49/12 22/43/12 21/41/12
f 30/59/8 31/61/8 32/63/8
f 32/63/8 29/57/8 30/59/8
f 35/69/13 33/65/14 34/67/14
f 34/67/14 36/71/13 35/69/13
f 35/69/13 36/71/13 19/37/9
f 19/37/9 20/39/9 35/69/13
f 33/65/14 8/15/8 6/11/8
f 6/11/8 34/67/14 33/65/14
f 17/33/3 18/35/3 32/63/3
f 32/63/3 31/61/3 17/33/3
f 25/50/15 26/52/15 7/14/15
f 25/50/15 7/14/15 8/16/15
f 8/16/15 33/66/15 25/50/15
f 33/66/15 35/70/15 25/50/15
f 35/70/15 20/40/15 25/50/15
f 22/44/15 25/50/15 20/40/15
f 20/40/15 15/30/15 22/44/15
f 15/30/15 4/8/15 22/44/15
f 15/30/15 17/34/15 4/8/15
f 17/34/15 11/22/15 4/8/15
f 30/60/15 11/22/15 17/34/15
f 17/34/15 31/62/15 30/60/15
f 11/22/15 12/24/15 4/8/15
f 12/24/15 3/6/15 4/8/15
f 12/24/15 14/28/15 3/6/15
f 14/28/15 28/56/15 3/6/15
f 9/18/16 29/58/16 32/64/16
f 32/64/16 18/36/16 9/18/16
f 18/36/16 16/32/16 9/18/16
f 2/4/16 9/18/16 16/32/16
f 2/4/16 10/20/16 9/18/16
f 21/42/16 2/4/16 16/32/16
f 2/4/16 1/2/16 10/20/16
f 1/2/16 13/26/16 10/20/16
f 1/2/16 27/54/16 13/26/16
f 16/32/16 19/38/16 21/42/16
f 23/46/16 21/42/16 19/38/16
f 23/46/16 19/38/16 36/72/16
f 6/12/16 23/46/16 36/72/16
f 36/72/16 34/68/16 6/12/16
f 6/12/16 5/10/16 23/46/16
f 5/10/16 24/48/16 23/46/16
f 3/5/1 1/1/1 2/3/2
f 2/3/2 4/7/2 3/5/1
f 7/13/3 5/9/3 6/11/3
f 6/11/3 8/15/3 7/13/3
f 11/21/4 9/17/4 10/19/5
f 10/19/5 12/23/5 11/21/4
f 10/19/5 13/25/7 14/27/6
f 14/27/6 12/23/5 10/19/5
f 17/33/8 15/29/8 16/31/8
f 16/31/8 18/35/8 17/33/8
f 20/39/9 19/37/9 16/31/10
f 16/31/10 15/29/10 20/39/9
f 4/7/2 2/3/2 21/41/3
f 21/41/3 22/43/3 4/7/2
f 25/49/10 23/45/10 24/47/10
f 24/47/10 26/51/10 25/49/10
f 27/53/11 1/1/1 3/5/1
f 3/5/1 28/55/11 27/53/11
f 30/59/10 29/57/10 9/17/4
f 9/17/4 11/21/4 30/59/10
f 13/25/6 27/53/11 28/55/11
f 28/55/11 14/27/6 13/25/6
f 24/47/12 5/9/12 7/13/12
f 7/13/12 26/51/12 24/47/12
f 21/41/12 23/45/12 25/49/12
f 25/49/12 22/43/12 21/41/12
f 30/59/8 31/61/8 32/63/8
f 32/63/8 29/57/8 30/59/8
f 35/69/13 33/65/14 34/67/14
f 34/67/14 36/71/13 35/69/13
f 35/69/13 36/71/13 19/37/9
f 19/37/9 20/39/9 35/69/13
f 33/65/14 8/15/8 6/11/8
f 6/11/8 34/67/14 33/65/14
f 17/33/3 18/35/3 32/63/3
f 32/63/3 31/61/3 17/33/3
f 25/50/15 26/52/15 7/14/15
f 25/50/15 7/14/15 8/16/15
f 8/16/15 33/66/15 25/50/15
f 33/66/15 35/70/15 25/50/15
f 35/70/15 20/40/15 25/50/15
f 22/44/15 25/50/15 20/40/15
f 20/40/15 15/30/15 22/44/15
f 15/30/15 4/8/15 22/44/15
f 15/30/15 17/34/15 4/8/15
f 17/34/15 11/22/15 4/8/15
f 30/60/15 11/22/15 17/34/15
f 17/34/15 31/62/15 30/60/15
f 11/22/15 12/24/15 4/8/15
f 12/24/15 3/6/15 4/8/15
f 12/24/15 14/28/15 3/6/15
f 14/28/15 28/56/15 3/6/15
f 9/18/16 29/58/16 32/64/16
f 32/64/16 18/36/16 9/18/16
f 18/36/16 16/32/16 9/18/16
f 2/4/16 9/18/16 16/32/16
f 2/4/16 10/20/16 9/18/16
f 21/42/16 2/4/16 16/32/16
f 2/4/16 1/2/16 10/20/16
f 1/2/16 13/26/16 10/20/16
f 1/2/16 27/54/16 13/26/16
f 16/32/16 19/38/16 21/42/16
f 23/46/16 21/42/16 19/38/16
f 23/46/16 19/38/16 36/72/16
f 6/12/16 23/46/16 36/72/16
f 36/72/16 34/68/16 6/12/16
f 6/12/16 5/10/16 23/46/16
f 5/10/16 24/48/16 23/46/16
