# Blender 3.3.1
# www.blender.org
mtllib present_b.mtl
o present-b-round
v -0.127500 0.636091 0.000000
v 0.127500 0.636091 0.000000
v -0.127500 0.636091 0.510000
v 0.127500 0.636091 0.510000
v -0.636091 0.127500 0.000000
v -0.636091 0.127500 0.510000
v -0.636091 -0.127500 -0.000000
v -0.636091 -0.127500 0.510000
v 0.636091 0.127500 0.510000
v 0.636091 0.127500 0.000000
v 0.636091 -0.127500 0.510000
v 0.636091 -0.127500 -0.000000
v -0.127500 -0.636091 -0.000000
v -0.127500 -0.636092 0.510000
v 0.127500 -0.636091 -0.000000
v 0.127500 -0.636092 0.510000
v 0.263478 -0.636091 -0.000000
v 0.263478 -0.636092 0.510000
v 0.636091 -0.263478 0.510000
v 0.636091 -0.263478 -0.000000
v 0.263478 0.636091 0.000000
v 0.263478 0.636091 0.510000
v -0.636091 -0.263478 -0.000000
v -0.636091 -0.263478 0.510000
v -0.263478 0.636091 0.000000
v -0.263478 0.636091 0.510000
v -0.636091 0.263478 0.000000
v -0.636091 0.263478 0.510000
v -0.508591 0.210664 0.510000
v -0.508591 0.210666 0.255000
v -0.508591 -0.210666 0.510000
v -0.508591 -0.210666 0.255000
v 0.508591 0.210666 0.255000
v 0.210666 0.508591 0.255000
v 0.508591 0.210664 0.510000
v 0.210666 0.508591 0.510000
v -0.210666 -0.508592 0.255000
v 0.210666 -0.508592 0.255000
v -0.210666 -0.508592 0.510000
v 0.210666 -0.508592 0.510000
v -0.210666 0.508591 0.255000
v -0.210666 0.508591 0.510000
v 0.508591 -0.210666 0.255000
v 0.508591 -0.210666 0.510000
v -0.263478 -0.636091 -0.000000
v -0.263478 -0.636092 0.510000
v 0.636091 0.263478 0.000000
v 0.636091 0.263478 0.510000
v 0.699841 -0.289884 0.510000
v 0.699841 -0.127500 0.510000
v 0.289884 -0.699842 0.510000
v 0.699841 0.127500 0.510000
v 0.699841 0.289884 0.510000
v 0.289884 0.699841 0.510000
v 0.127500 -0.699842 0.510000
v 0.127500 0.699841 0.510000
v -0.127500 -0.699842 0.510000
v -0.127500 0.699841 0.510000
v -0.289884 -0.699842 0.510000
v -0.289884 0.699841 0.510000
v -0.699841 -0.289884 0.510000
v -0.699841 0.289884 0.510000
v -0.699841 0.127500 0.510000
v -0.699841 -0.127500 0.510000
v -0.127500 -0.127500 0.765000
v -0.127500 -0.699842 0.765000
v -0.699841 -0.127500 0.765000
v -0.289884 -0.699842 0.765000
v -0.699841 -0.289884 0.765000
v 0.127500 -0.699842 0.765000
v 0.289884 -0.699842 0.765000
v 0.699841 -0.289884 0.765000
v 0.289884 0.699841 0.765000
v 0.699841 0.289884 0.765000
v -0.289884 0.699841 0.765000
v -0.699841 0.289884 0.765000
v 0.127500 0.699841 0.765000
v -0.127500 0.699841 0.765000
v 0.699841 0.127500 0.765000
v 0.699841 -0.127500 0.765000
v -0.699841 0.127500 0.765000
v 0.127500 -0.127500 0.765000
v 0.127500 0.127500 0.765000
v -0.127500 0.127500 0.765000
v -0.127500 0.699841 0.510000
v 0.127500 0.699841 0.510000
v -0.127500 0.699841 0.765000
v 0.127500 0.699841 0.765000
v -0.127500 -0.699842 0.510000
v -0.127500 -0.699842 0.765000
v 0.127500 -0.699842 0.510000
v 0.127500 -0.699842 0.765000
v -0.699841 -0.127500 0.765000
v -0.699841 0.127500 0.765000
v -0.127500 -0.127500 0.765000
v -0.127500 0.127500 0.765000
v 0.127500 -0.127500 0.765000
v 0.127500 0.127500 0.765000
v 0.699841 0.127500 0.765000
v 0.699841 -0.127500 0.765000
v 0.699841 0.127500 0.510000
v 0.699841 -0.127500 0.510000
v -0.699841 0.127500 0.510000
v -0.699841 -0.127500 0.510000
v -0.000000 0.127500 1.020000
v -0.000000 -0.127500 1.020000
v -0.180312 0.127500 1.200312
v -0.180312 -0.127500 1.200312
v 0.180312 0.127500 1.200312
v 0.180312 -0.127500 1.200312
v 0.360624 0.127500 1.125624
v 0.360624 -0.127500 1.125624
v 0.435312 0.127500 0.945312
v 0.435312 -0.127500 0.945312
v 0.360624 0.127500 0.765000
v 0.360624 -0.127500 0.765000
v -0.435312 0.127500 0.945312
v -0.435312 -0.127500 0.945312
v -0.360624 0.127500 0.765000
v -0.360624 -0.127500 0.765000
v -0.360624 0.127500 1.125624
v -0.360624 -0.127500 1.125624
v 0.210228 -0.127500 1.049916
v 0.263040 -0.127500 1.028040
v 0.297307 -0.127500 0.945312
v 0.275432 -0.127500 0.892500
v -0.275432 -0.127500 0.892500
v 0.052812 -0.127500 0.892500
v -0.297307 -0.127500 0.945312
v -0.052812 -0.127500 0.892500
v -0.263040 -0.127500 1.028040
v -0.210228 -0.127500 1.049916
v 0.263040 0.127500 1.028040
v 0.297307 0.127500 0.945312
v 0.210228 0.127500 1.049916
v 0.275432 0.127500 0.892500
v 0.052812 0.127500 0.892500
v -0.052812 0.127500 0.892500
v -0.210228 0.127500 1.049916
v -0.263040 0.127500 1.028040
v -0.275432 0.127500 0.892500
v -0.297307 0.127500 0.945312
vn -0.0000 1.0000 -0.0000
vn -1.0000 -0.0000 -0.0000
vn 1.0000 -0.0000 -0.0000
vn -0.0000 -1.0000 -0.0000
vn 0.3827 -0.9239 -0.0000
vn 0.9239 -0.3827 -0.0000
vn 0.3827 0.9239 -0.0000
vn -0.9239 -0.3827 -0.0000
vn -0.3827 0.9239 -0.0000
vn -0.9239 0.3827 -0.0000
vn 0.9239 0.3827 -0.0000
vn -0.3827 -0.9239 -0.0000
vn -0.0000 -0.0000 1.0000
vn -0.0000 -0.0000 -1.0000
vn -0.3827 -0.9239 -0.0003
vn 0.9239 -0.3827 -0.0001
vn 0.3827 -0.9239 0.0002
vn 0.3827 0.9239 -0.0003
vn -0.3827 0.9239 0.0002
vn -0.9239 0.3827 -0.0001
vn 0.1951 -0.0000 0.9808
vn 0.7071 -0.0000 0.7071
vn -0.7071 -0.0000 0.7071
vn -0.1951 -0.0000 0.9808
vn 0.9239 -0.0000 -0.3827
vn -0.9239 -0.0000 -0.3827
vn -0.1951 -0.0000 -0.9808
vn 0.7071 -0.0000 -0.7071
vn 0.1951 -0.0000 -0.9808
vn -0.5556 -0.0000 0.8315
vn -0.7071 -0.0000 -0.7071
vn 0.5556 -0.0000 0.8315
vt 0.468750 0.275000
vt 0.218750 0.225000
vt 0.468750 0.275000
vt 0.218750 0.225000
vt 0.468750 0.475000
vt 0.218750 0.025000
vt 0.468750 0.475000
vt 0.218750 0.025000
vt 0.468750 0.275000
vt 0.218750 0.225000
vt 0.468750 0.475000
vt 0.218750 0.025000
vt 0.468750 0.275000
vt 0.218750 0.225000
vt 0.468750 0.475000
vt 0.218750 0.025000
vt 0.468750 0.475000
vt 0.218750 0.025000
vt 0.468750 0.275000
vt 0.218750 0.225000
vt 0.468750 0.475000
vt 0.218750 0.025000
vt 0.468750 0.275000
vt 0.218750 0.225000
vt 0.468750 0.275000
vt 0.218750 0.225000
vt 0.468750 0.475000
vt 0.218750 0.025000
vt 0.468750 0.275000
vt 0.218750 0.225000
vt 0.468750 0.475000
vt 0.218750 0.025000
vt 0.218750 0.225000
vt 0.218750 0.025000
vt 0.218750 0.025000
vt 0.218750 0.225000
vt 0.218750 0.225000
vt 0.218750 0.025000
vt 0.218750 0.225000
vt 0.218750 0.025000
vt 0.218750 0.225000
vt 0.218750 0.025000
vt 0.218750 0.225000
vt 0.218750 0.025000
vt 0.218750 0.025000
vt 0.218750 0.125000
vt 0.218750 0.025000
vt 0.218750 0.125000
vt 0.218750 0.125000
vt 0.218750 0.125000
vt 0.218750 0.025000
vt 0.218750 0.025000
vt 0.218750 0.125000
vt 0.218750 0.125000
vt 0.218750 0.025000
vt 0.218750 0.025000
vt 0.218750 0.125000
vt 0.218750 0.025000
vt 0.218750 0.125000
vt 0.218750 0.025000
vt 0.218750 0.225000
vt 0.218750 0.025000
vt 0.218750 0.225000
vt 0.218750 0.025000
vt 0.218750 0.075000
vt 0.218750 0.075000
vt 0.218750 0.075000
vt 0.218750 0.075000
vt 0.218750 0.075000
vt 0.218750 0.075000
vt 0.218750 0.075000
vt 0.218750 0.075000
vt 0.218750 0.075000
vt 0.218750 0.075000
vt 0.218750 0.075000
vt 0.218750 0.075000
vt 0.218750 0.075000
vt 0.218750 0.075000
vt 0.218750 0.075000
vt 0.218750 0.075000
vt 0.218750 0.175000
vt 0.218750 0.175000
vt 0.218750 0.175000
vt 0.218750 0.175000
vt 0.218750 0.175000
vt 0.218750 0.175000
vt 0.218750 0.175000
vt 0.218750 0.175000
vt 0.218750 0.175000
vt 0.218750 0.175000
vt 0.218750 0.175000
vt 0.218750 0.175000
vt 0.218750 0.175000
vt 0.218750 0.175000
vt 0.218750 0.175000
vt 0.218750 0.175000
vt 0.218750 0.175000
vt 0.218750 0.175000
vt 0.218750 0.175000
vt 0.218750 0.175000
vt 0.468750 0.275000
vt 0.468750 0.275000
vt 0.468750 0.475000
vt 0.468750 0.475000
vt 0.468750 0.275000
vt 0.468750 0.475000
vt 0.468750 0.275000
vt 0.468750 0.475000
vt 0.468750 0.475000
vt 0.468750 0.475000
vt 0.468750 0.475000
vt 0.468750 0.475000
vt 0.468750 0.475000
vt 0.468750 0.475000
vt 0.468750 0.475000
vt 0.468750 0.475000
vt 0.468750 0.275000
vt 0.468750 0.275000
vt 0.468750 0.275000
vt 0.468750 0.275000
vt 0.468750 0.433579
vt 0.468750 0.433579
vt 0.468750 0.475000
vt 0.468750 0.475000
vt 0.468750 0.475000
vt 0.468750 0.475000
vt 0.468750 0.457843
vt 0.468750 0.457843
vt 0.468750 0.416421
vt 0.468750 0.416421
vt 0.468750 0.375000
vt 0.468750 0.375000
vt 0.468750 0.416421
vt 0.468750 0.416421
vt 0.468750 0.375000
vt 0.468750 0.375000
vt 0.468750 0.457843
vt 0.468750 0.457843
vt 0.468750 0.440451
vt 0.468750 0.375000
vt 0.468750 0.435426
vt 0.468750 0.361103
vt 0.468750 0.416421
vt 0.468750 0.308549
vt 0.468750 0.404289
vt 0.468750 0.275000
vt 0.468750 0.404289
vt 0.468750 0.275000
vt 0.468750 0.404289
vt 0.468750 0.275000
vt 0.468750 0.416421
vt 0.468750 0.308549
vt 0.468750 0.404289
vt 0.468750 0.275000
vt 0.468750 0.435426
vt 0.468750 0.361103
vt 0.468750 0.440451
vt 0.468750 0.375000
vt 0.468750 0.435426
vt 0.468750 0.361103
vt 0.468750 0.416421
vt 0.468750 0.308549
vt 0.468750 0.440451
vt 0.468750 0.375000
vt 0.468750 0.404289
vt 0.468750 0.275000
vt 0.468750 0.404289
vt 0.468750 0.275000
vt 0.468750 0.404289
vt 0.468750 0.275000
vt 0.468750 0.440451
vt 0.468750 0.375000
vt 0.468750 0.435426
vt 0.468750 0.361103
vt 0.468750 0.404289
vt 0.468750 0.275000
vt 0.468750 0.416421
vt 0.468750 0.308549
s 0
usemtl colormap.001
f 3/5/1 2/3/1 1/1/1
f 2/3/1 3/5/1 4/7/1
f 7/13/2 6/11/2 5/9/2
f 6/11/2 7/13/2 8/15/2
f 11/21/3 10/19/3 9/17/3
f 10/19/3 11/21/3 12/23/3
f 15/29/4 14/27/4 13/25/4
f 14/27/4 15/29/4 16/31/4
f 18/34/5 15/30/4 17/33/5
f 15/30/4 18/34/5 16/32/4
f 19/35/6 12/24/3 11/22/3
f 12/24/3 19/35/6 20/36/6
f 2/4/1 22/38/7 21/37/7
f 22/38/7 2/4/1 4/8/1
f 23/39/8 8/16/2 7/14/2
f 8/16/2 23/39/8 24/40/8
f 25/41/9 3/6/1 1/2/1
f 3/6/1 25/41/9 26/42/9
f 5/10/2 28/44/10 27/43/10
f 28/44/10 5/10/2 6/12/2
f 31/47/11 30/46/6 29/45/6
f 30/46/6 31/47/11 32/48/11
f 35/51/8 34/50/12 33/49/8
f 34/50/12 35/51/8 36/52/12
f 39/55/7 38/54/9 37/53/7
f 38/54/9 39/55/7 40/56/9
f 36/52/12 41/57/5 34/50/12
f 41/57/5 36/52/12 42/58/5
f 38/54/9 44/60/10 43/59/10
f 44/60/10 38/54/9 40/56/9
f 43/59/10 35/51/8 33/49/8
f 35/51/8 43/59/10 44/60/10
f 33/49/13 38/54/13 43/59/13
f 38/54/13 33/49/13 34/50/13
f 38/54/13 34/50/13 37/53/13
f 37/53/13 34/50/13 41/57/13
f 37/53/13 41/57/13 32/48/13
f 32/48/13 41/57/13 30/46/13
f 29/45/6 41/57/5 42/58/5
f 41/57/5 29/45/6 30/46/6
f 31/47/11 37/53/7 32/48/11
f 37/53/7 31/47/11 39/55/7
f 46/62/12 23/39/8 45/61/12
f 23/39/8 46/62/12 24/40/8
f 14/28/4 45/61/12 13/26/4
f 45/61/12 14/28/4 46/62/12
f 27/43/10 26/42/9 25/41/9
f 26/42/9 27/43/10 28/44/10
f 18/34/5 20/36/6 19/35/6
f 20/36/6 18/34/5 17/33/5
f 17/33/14 12/24/14 20/36/14
f 12/24/14 17/33/14 10/20/14
f 10/20/14 17/33/14 47/63/14
f 47/63/14 17/33/14 21/37/14
f 21/37/14 17/33/14 15/30/14
f 21/37/14 15/30/14 2/4/14
f 2/4/14 15/30/14 13/26/14
f 2/4/14 13/26/14 1/2/14
f 1/2/14 13/26/14 45/61/14
f 1/2/14 45/61/14 25/41/14
f 25/41/14 45/61/14 23/39/14
f 25/41/14 23/39/14 27/43/14
f 27/43/13 23/39/13 5/10/13
f 5/10/14 23/39/14 7/14/14
f 22/38/7 47/63/11 21/37/7
f 47/63/11 22/38/7 48/64/11
f 24/40/13 6/12/13 8/16/13
f 24/40/3 28/44/3 6/12/3
f 29/45/13 28/44/13 24/40/13
f 29/45/13 26/42/13 28/44/13
f 24/40/13 31/47/13 29/45/13
f 46/62/13 31/47/13 24/40/13
f 42/58/13 26/42/13 29/45/13
f 42/58/13 3/6/13 26/42/13
f 42/58/13 4/8/13 3/6/13
f 36/52/13 4/8/13 42/58/13
f 36/52/13 22/38/13 4/8/13
f 35/51/13 22/38/13 36/52/13
f 35/51/13 48/64/13 22/38/13
f 46/62/13 39/55/13 31/47/13
f 14/28/13 39/55/13 46/62/13
f 16/32/13 39/55/13 14/28/13
f 16/32/13 40/56/13 39/55/13
f 48/64/13 35/51/13 44/60/13
f 18/34/13 40/56/13 16/32/13
f 18/34/13 44/60/13 40/56/13
f 44/60/13 9/18/13 48/64/13
f 44/60/13 11/22/13 9/18/13
f 18/34/13 11/22/13 44/60/13
f 11/22/13 18/34/13 19/35/13
f 9/18/3 47/63/11 48/64/11
f 47/63/11 9/18/3 10/20/3
f 3/5/1 2/3/1 1/1/1
f 2/3/1 3/5/1 4/7/1
f 7/13/2 6/11/2 5/9/2
f 6/11/2 7/13/2 8/15/2
f 11/21/3 10/19/3 9/17/3
f 10/19/3 11/21/3 12/23/3
f 15/29/4 14/27/4 13/25/4
f 14/27/4 15/29/4 16/31/4
f 18/34/5 15/30/4 17/33/5
f 15/30/4 18/34/5 16/32/4
f 19/35/6 12/24/3 11/22/3
f 12/24/3 19/35/6 20/36/6
f 2/4/1 22/38/7 21/37/7
f 22/38/7 2/4/1 4/8/1
f 23/39/8 8/16/2 7/14/2
f 8/16/2 23/39/8 24/40/8
f 25/41/9 3/6/1 1/2/1
f 3/6/1 25/41/9 26/42/9
f 5/10/2 28/44/10 27/43/10
f 28/44/10 5/10/2 6/12/2
f 31/47/11 30/46/6 29/45/6
f 30/46/6 31/47/11 32/48/11
f 35/51/8 34/50/12 33/49/8
f 34/50/12 35/51/8 36/52/12
f 39/55/7 38/54/9 37/53/7
f 38/54/9 39/55/7 40/56/9
f 36/52/12 41/57/5 34/50/12
f 41/57/5 36/52/12 42/58/5
f 38/54/9 44/60/10 43/59/10
f 44/60/10 38/54/9 40/56/9
f 43/59/10 35/51/8 33/49/8
f 35/51/8 43/59/10 44/60/10
f 33/49/13 38/54/13 43/59/13
f 38/54/13 33/49/13 34/50/13
f 38/54/13 34/50/13 37/53/13
f 37/53/13 34/50/13 41/57/13
f 37/53/13 41/57/13 32/48/13
f 32/48/13 41/57/13 30/46/13
f 29/45/6 41/57/5 42/58/5
f 41/57/5 29/45/6 30/46/6
f 31/47/11 37/53/7 32/48/11
f 37/53/7 31/47/11 39/55/7
f 46/62/12 23/39/8 45/61/12
f 23/39/8 46/62/12 24/40/8
f 14/28/4 45/61/12 13/26/4
f 45/61/12 14/28/4 46/62/12
f 27/43/10 26/42/9 25/41/9
f 26/42/9 27/43/10 28/44/10
f 18/34/5 20/36/6 19/35/6
f 20/36/6 18/34/5 17/33/5
f 17/33/14 12/24/14 20/36/14
f 12/24/14 17/33/14 10/20/14
f 10/20/14 17/33/14 47/63/14
f 47/63/14 17/33/14 21/37/14
f 21/37/14 17/33/14 15/30/14
f 21/37/14 15/30/14 2/4/14
f 2/4/14 15/30/14 13/26/14
f 2/4/14 13/26/14 1/2/14
f 1/2/14 13/26/14 45/61/14
f 1/2/14 45/61/14 25/41/14
f 25/41/14 45/61/14 23/39/14
f 25/41/14 23/39/14 27/43/14
f 27/43/13 23/39/13 5/10/13
f 5/10/14 23/39/14 7/14/14
f 22/38/7 47/63/11 21/37/7
f 47/63/11 22/38/7 48/64/11
f 24/40/13 6/12/13 8/16/13
f 24/40/3 28/44/3 6/12/3
f 29/45/13 28/44/13 24/40/13
f 29/45/13 26/42/13 28/44/13
f 24/40/13 31/47/13 29/45/13
f 46/62/13 31/47/13 24/40/13
f 42/58/13 26/42/13 29/45/13
f 42/58/13 3/6/13 26/42/13
f 42/58/13 4/8/13 3/6/13
f 36/52/13 4/8/13 42/58/13
f 36/52/13 22/38/13 4/8/13
f 35/51/13 22/38/13 36/52/13
f 35/51/13 48/64/13 22/38/13
f 46/62/13 39/55/13 31/47/13
f 14/28/13 39/55/13 46/62/13
f 16/32/13 39/55/13 14/28/13
f 16/32/13 40/56/13 39/55/13
f 48/64/13 35/51/13 44/60/13
f 18/34/13 40/56/13 16/32/13
f 18/34/13 44/60/13 40/56/13
f 44/60/13 9/18/13 48/64/13
f 44/60/13 11/22/13 9/18/13
f 18/34/13 11/22/13 44/60/13
f 11/22/13 18/34/13 19/35/13
f 9/18/3 47/63/11 48/64/11
f 47/63/11 9/18/3 10/20/3
f 51/67/14 50/66/14 49/65/14
f 50/66/14 51/67/14 52/68/14
f 52/68/14 51/67/14 53/69/14
f 53/69/14 51/67/14 54/70/14
f 54/70/14 51/67/14 55/71/14
f 54/70/14 55/71/14 56/72/14
f 56/72/14 55/71/14 57/73/14
f 56/72/14 57/73/14 58/74/14
f 58/74/14 57/73/14 59/75/14
f 58/74/14 59/75/14 60/76/14
f 60/76/14 59/75/14 61/77/14
f 60/76/14 61/77/14 62/78/14
f 62/78/13 61/77/13 63/79/13
f 63/79/2 61/77/2 64/80/2
f 67/83/13 66/82/13 65/81/13
f 66/82/13 67/83/13 68/84/13
f 68/84/13 67/83/13 69/85/13
f 68/84/12 61/77/8 59/75/12
f 61/77/8 68/84/15 69/85/8
f 51/67/5 70/86/4 55/71/4
f 70/86/4 51/67/5 71/87/5
f 71/87/5 49/65/6 72/88/16
f 49/65/6 71/87/5 51/67/17
f 73/89/7 53/69/11 54/70/7
f 53/69/11 73/89/18 74/90/11
f 62/78/10 75/91/9 60/76/19
f 75/91/9 62/78/10 76/92/20
f 64/80/2 69/85/8 67/83/2
f 69/85/8 64/80/2 61/77/8
f 66/82/4 59/75/12 57/73/4
f 59/75/12 66/82/4 68/84/12
f 77/93/1 54/70/7 56/72/1
f 54/70/7 77/93/1 73/89/7
f 60/76/9 78/94/1 58/74/1
f 78/94/1 60/76/9 75/91/9
f 79/95/3 53/69/11 74/90/11
f 53/69/11 79/95/3 52/68/3
f 72/88/6 50/66/3 80/96/3
f 50/66/3 72/88/6 49/65/6
f 63/79/2 76/92/10 62/78/10
f 76/92/10 63/79/2 81/97/2
f 80/96/13 71/87/13 72/88/13
f 71/87/13 80/96/13 82/98/13
f 71/87/13 82/98/13 70/86/13
f 74/90/13 83/99/13 79/95/13
f 83/99/13 74/90/13 73/89/13
f 83/99/13 73/89/13 77/93/13
f 75/91/13 84/100/13 78/94/13
f 84/100/13 75/91/13 81/97/13
f 81/97/13 75/91/13 76/92/13
f 87/103/1 86/102/1 85/101/1
f 86/102/1 87/103/1 88/104/1
f 91/107/4 90/106/4 89/105/4
f 90/106/4 91/107/4 92/108/4
f 95/111/13 94/110/13 93/109/13
f 94/110/13 95/111/13 96/112/13
f 90/106/13 96/112/13 95/111/13
f 90/106/13 87/103/13 96/112/13
f 92/108/13 87/103/13 90/106/13
f 97/113/13 87/103/13 92/108/13
f 98/114/13 87/103/13 97/113/13
f 87/103/13 98/114/13 88/104/13
f 97/113/13 99/115/13 98/114/13
f 99/115/13 97/113/13 100/116/13
f 100/116/3 101/117/3 99/115/3
f 101/117/3 100/116/3 102/118/3
f 103/119/2 93/109/2 94/110/2
f 93/109/2 103/119/2 104/120/2
f 107/123/21 106/122/22 105/121/22
f 106/122/22 107/123/21 108/124/21
f 105/121/23 110/126/24 109/125/24
f 110/126/24 105/121/23 106/122/23
f 109/125/24 112/128/22 111/127/22
f 112/128/22 109/125/24 110/126/24
f 111/127/22 114/130/3 113/129/3
f 114/130/3 111/127/22 112/128/22
f 114/130/3 115/131/25 113/129/3
f 115/131/25 114/130/3 116/132/25
f 119/135/26 118/134/2 117/133/2
f 118/134/2 119/135/26 120/136/26
f 118/134/2 121/137/23 117/133/2
f 121/137/23 118/134/2 122/138/23
f 121/137/23 108/124/21 107/123/21
f 108/124/21 121/137/23 122/138/23
f 106/122/4 123/139/4 110/126/4
f 110/126/4 123/139/4 112/128/4
f 124/141/4 112/128/4 123/139/4
f 125/143/4 112/128/4 124/141/4
f 125/143/4 114/130/4 112/128/4
f 126/145/4 114/130/4 125/143/4
f 126/145/4 116/132/4 114/130/4
f 116/132/4 126/145/4 120/136/4
f 127/147/4 120/136/4 126/145/4
f 127/147/4 126/145/4 128/149/4
f 120/136/4 127/147/4 118/134/4
f 118/134/4 127/147/4 129/151/4
f 127/147/4 128/149/4 130/153/4
f 123/139/4 130/153/4 128/149/4
f 130/153/4 123/139/4 106/122/4
f 118/134/4 129/151/4 122/138/4
f 122/138/4 129/151/4 131/155/4
f 106/122/4 132/157/4 130/153/4
f 122/138/4 131/155/4 132/157/4
f 132/157/4 106/122/4 108/124/4
f 132/157/4 108/124/4 122/138/4
f 111/127/1 134/161/1 133/159/1
f 111/127/1 133/159/1 135/163/1
f 113/129/1 134/161/1 111/127/1
f 135/163/1 109/125/1 111/127/1
f 113/129/1 136/165/1 134/161/1
f 135/163/1 105/121/1 109/125/1
f 115/131/1 136/165/1 113/129/1
f 105/121/1 135/163/1 137/167/1
f 136/165/1 115/131/1 138/169/1
f 136/165/1 138/169/1 137/167/1
f 137/167/1 139/171/1 105/121/1
f 139/171/1 137/167/1 138/169/1
f 105/121/1 139/171/1 107/123/1
f 107/123/1 139/171/1 121/137/1
f 140/173/1 121/137/1 139/171/1
f 138/169/1 115/131/1 141/175/1
f 119/135/1 141/175/1 115/131/1
f 140/173/1 117/133/1 121/137/1
f 141/175/1 119/135/1 117/133/1
f 142/177/1 117/133/1 140/173/1
f 141/175/1 117/133/1 142/177/1
f 132/158/27 140/174/28 139/172/27
f 140/174/28 132/158/27 131/156/28
f 131/156/28 142/178/3 140/174/28
f 142/178/3 131/156/28 129/152/3
f 135/164/29 128/150/28 137/168/28
f 128/150/28 135/164/29 123/140/29
f 136/166/30 128/150/13 126/146/30
f 128/150/13 136/166/30 137/168/13
f 125/144/2 133/160/31 134/162/2
f 133/160/31 125/144/2 124/142/31
f 123/140/29 133/160/31 124/142/31
f 133/160/31 123/140/29 135/164/29
f 129/152/3 141/176/32 142/178/3
f 141/176/32 129/152/3 127/148/32
f 141/176/32 130/154/13 138/170/13
f 130/154/13 141/176/32 127/148/32
f 138/170/31 132/158/27 139/172/27
f 132/158/27 138/170/31 130/154/31
f 136/166/30 125/144/2 134/162/2
f 125/144/2 136/166/30 126/146/30
