# Blender 3.3.1
# www.blender.org
mtllib present_a.mtl
o present-a-round
v -0.127500 0.636091 0.000000
v 0.127500 0.636091 0.000000
v -0.127500 0.636091 0.765000
v 0.127500 0.636091 0.765000
v -0.636091 0.127500 0.000000
v -0.636091 0.127500 0.765000
v -0.636091 -0.127500 -0.000000
v -0.636091 -0.127500 0.765000
v 0.636091 0.127500 0.765000
v 0.636091 0.127500 0.000000
v 0.636091 -0.127500 0.765000
v 0.636091 -0.127500 -0.000000
v -0.127500 -0.636091 -0.000000
v -0.127500 -0.636092 0.765000
v 0.127500 -0.636091 -0.000000
v 0.127500 -0.636092 0.765000
v 0.263478 -0.636092 0.765000
v 0.263478 -0.636091 -0.000000
v 0.636091 -0.263478 -0.000000
v 0.636091 -0.263478 0.765000
v 0.263478 0.636091 0.765000
v 0.263478 0.636091 0.000000
v 0.636091 0.263478 0.000000
v 0.636091 0.263478 0.765000
v -0.636091 -0.263478 -0.000000
v -0.636091 -0.263478 0.765000
v -0.263478 -0.636092 0.765000
v -0.263478 -0.636091 -0.000000
v -0.263478 0.636091 0.000000
v -0.263478 0.636091 0.765000
v -0.636091 0.263478 0.000000
v -0.636091 0.263478 0.765000
v 0.508591 -0.210666 0.255000
v 0.210666 -0.508592 0.255000
v 0.508591 0.210666 0.255000
v 0.210666 0.508591 0.255000
v -0.210666 -0.508592 0.255000
v -0.210666 0.508591 0.255000
v -0.508591 -0.210666 0.255000
v -0.508591 0.210666 0.255000
v -0.508591 0.210664 0.765000
v -0.508591 -0.210666 0.765000
v -0.210666 0.508591 0.765000
v 0.210666 0.508591 0.765000
v 0.508591 0.210664 0.765000
v -0.210666 -0.508592 0.765000
v 0.210666 -0.508592 0.765000
v 0.508591 -0.210666 0.765000
v 0.699841 -0.289884 0.765000
v 0.699841 -0.127500 0.765000
v 0.289884 -0.699842 0.765000
v 0.699841 0.127500 0.765000
v 0.699841 0.289884 0.765000
v 0.289884 0.699841 0.765000
v 0.127500 -0.699842 0.765000
v 0.127500 0.699841 0.765000
v -0.127500 -0.699842 0.765000
v -0.127500 0.699841 0.765000
v -0.289884 -0.699842 0.765000
v -0.289884 0.699841 0.765000
v -0.699841 -0.289884 0.765000
v -0.699841 0.289884 0.765000
v -0.699841 0.127500 0.765000
v -0.699841 -0.127500 0.765000
v -0.127500 -0.127500 1.020000
v -0.127500 -0.699842 1.020000
v -0.699841 -0.127500 1.020000
v -0.289884 -0.699842 1.020000
v -0.699841 -0.289884 1.020000
v 0.127500 -0.699842 1.020000
v 0.289884 -0.699842 1.020000
v 0.699841 -0.289884 1.020000
v 0.699841 -0.127500 1.020000
v 0.127500 0.699841 1.020000
v 0.289884 0.699841 1.020000
v 0.699841 0.289884 1.020000
v 0.699841 0.127500 1.020000
v -0.127500 0.699841 1.020000
v -0.289884 0.699841 1.020000
v -0.699841 0.289884 1.020000
v -0.699841 0.127500 1.020000
v 0.127500 -0.127500 1.020000
v 0.127500 0.127500 1.020000
v -0.127500 0.127500 1.020000
v -0.127500 0.699841 0.765000
v 0.127500 0.699841 0.765000
v -0.127500 0.699840 1.020000
v 0.127500 0.699840 1.020000
v 0.127500 -0.699842 0.765000
v -0.127500 -0.699842 0.765000
v 0.127500 -0.699842 1.020000
v -0.127500 -0.699842 1.020000
v -0.699841 -0.127500 1.020000
v -0.699841 0.127500 1.020000
v -0.127500 -0.127500 1.020000
v -0.127500 0.127500 1.020000
v 0.127500 -0.127500 1.020000
v 0.127500 0.127500 1.020000
v 0.699841 0.127500 1.020000
v 0.699841 -0.127500 1.020000
v 0.699841 0.127500 0.765000
v 0.699841 -0.127500 0.765000
v -0.699841 0.127500 0.765000
v -0.699841 -0.127500 0.765000
v -0.000000 0.127500 1.275000
v -0.000000 -0.127500 1.275000
v -0.180312 0.127500 1.455312
v -0.180312 -0.127500 1.455312
v 0.180312 0.127500 1.455312
v 0.180312 -0.127500 1.455312
v 0.360624 0.127500 1.380624
v 0.360624 -0.127500 1.380624
v 0.435312 0.127500 1.200312
v 0.435312 -0.127500 1.200312
v 0.360624 0.127500 1.020000
v 0.360624 -0.127500 1.020000
v -0.435312 0.127500 1.200312
v -0.435312 -0.127500 1.200312
v -0.360624 0.127500 1.020000
v -0.360624 -0.127500 1.020000
v -0.360624 0.127500 1.380624
v -0.360624 -0.127500 1.380624
v 0.210228 -0.127500 1.304916
v 0.263040 -0.127500 1.283040
v 0.297307 -0.127500 1.200312
v 0.275432 -0.127500 1.147500
v -0.275432 -0.127500 1.147500
v 0.052812 -0.127500 1.147500
v -0.297307 -0.127500 1.200312
v -0.263040 -0.127500 1.283040
v -0.052812 -0.127500 1.147500
v -0.210228 -0.127500 1.304916
v 0.263040 0.127500 1.283040
v 0.297307 0.127500 1.200312
v 0.210228 0.127500 1.304916
v 0.275432 0.127500 1.147500
v 0.052812 0.127500 1.147500
v -0.052812 0.127500 1.147500
v -0.210228 0.127500 1.304916
v -0.263040 0.127500 1.283040
v -0.275432 0.127500 1.147500
v -0.297307 0.127500 1.200312
vn -0.0000 1.0000 -0.0000
vn -1.0000 -0.0000 -0.0000
vn 1.0000 -0.0000 -0.0000
vn -0.0000 -1.0000 -0.0000
vn 0.3827 -0.9239 -0.0000
vn 0.9239 -0.3827 -0.0000
vn 0.3827 0.9239 -0.0000
vn 0.9239 0.3827 -0.0000
vn 0.3827 0.9239 -0.0001
vn -0.9239 -0.3827 -0.0000
vn -0.3827 -0.9239 -0.0001
vn -0.3827 -0.9239 -0.0000
vn -0.3827 0.9239 -0.0000
vn -0.9239 0.3827 -0.0000
vn -0.0000 -0.0000 1.0000
vn -0.0000 -0.0000 -1.0000
vn 0.3827 -0.9239 0.0001
vn 0.9239 -0.3827 -0.0002
vn -0.9239 -0.3827 0.0001
vn 0.9239 0.3827 0.0001
vn -0.3827 0.9239 0.0001
vn -0.9239 0.3827 -0.0002
vn 0.1951 -0.0000 0.9808
vn 0.7071 -0.0000 0.7071
vn -0.7071 -0.0000 0.7071
vn -0.1951 -0.0000 0.9808
vn 0.9239 -0.0000 -0.3827
vn -0.9239 -0.0000 -0.3827
vn -0.1951 -0.0000 -0.9808
vn 0.7071 -0.0000 -0.7071
vn 0.1951 -0.0000 -0.9808
vn -0.5556 -0.0000 0.8315
vn -0.7071 -0.0000 -0.7071
vn 0.5556 -0.0000 0.8315
vt 0.468750 0.025000
vt 0.093750 0.475000
vt 0.468750 0.025000
vt 0.093750 0.475000
vt 0.468750 0.225000
vt 0.093750 0.275000
vt 0.468750 0.225000
vt 0.093750 0.275000
vt 0.468750 0.025000
vt 0.093750 0.475000
vt 0.468750 0.225000
vt 0.093750 0.275000
vt 0.468750 0.025000
vt 0.093750 0.475000
vt 0.468750 0.225000
vt 0.093750 0.275000
vt 0.468750 0.225000
vt 0.093750 0.275000
vt 0.468750 0.025000
vt 0.093750 0.475000
vt 0.468750 0.225000
vt 0.093750 0.275000
vt 0.468750 0.025000
vt 0.093750 0.475000
vt 0.468750 0.025000
vt 0.093750 0.475000
vt 0.468750 0.225000
vt 0.093750 0.275000
vt 0.468750 0.025000
vt 0.093750 0.475000
vt 0.468750 0.225000
vt 0.093750 0.275000
vt 0.093750 0.275000
vt 0.093750 0.475000
vt 0.093750 0.475000
vt 0.093750 0.275000
vt 0.093750 0.275000
vt 0.093750 0.475000
vt 0.093750 0.475000
vt 0.093750 0.275000
vt 0.093750 0.475000
vt 0.093750 0.275000
vt 0.093750 0.275000
vt 0.093750 0.475000
vt 0.093750 0.475000
vt 0.093750 0.275000
vt 0.093750 0.475000
vt 0.093750 0.275000
vt 0.093750 0.408333
vt 0.093750 0.408333
vt 0.093750 0.408333
vt 0.093750 0.408333
vt 0.093750 0.408333
vt 0.093750 0.408333
vt 0.093750 0.408333
vt 0.093750 0.408333
vt 0.093750 0.275000
vt 0.093750 0.275000
vt 0.093750 0.275000
vt 0.093750 0.275000
vt 0.093750 0.275000
vt 0.093750 0.275000
vt 0.093750 0.275000
vt 0.093750 0.275000
vt 0.093750 0.325000
vt 0.093750 0.325000
vt 0.093750 0.325000
vt 0.093750 0.325000
vt 0.093750 0.325000
vt 0.093750 0.325000
vt 0.093750 0.325000
vt 0.093750 0.325000
vt 0.093750 0.325000
vt 0.093750 0.325000
vt 0.093750 0.325000
vt 0.093750 0.325000
vt 0.093750 0.325000
vt 0.093750 0.325000
vt 0.093750 0.325000
vt 0.093750 0.325000
vt 0.093750 0.425000
vt 0.093750 0.425000
vt 0.093750 0.425000
vt 0.093750 0.425000
vt 0.093750 0.425000
vt 0.093750 0.425000
vt 0.093750 0.425000
vt 0.093750 0.425000
vt 0.093750 0.425000
vt 0.093750 0.425000
vt 0.093750 0.425000
vt 0.093750 0.425000
vt 0.093750 0.425000
vt 0.093750 0.425000
vt 0.093750 0.425000
vt 0.093750 0.425000
vt 0.093750 0.425000
vt 0.093750 0.425000
vt 0.093750 0.425000
vt 0.093750 0.425000
vt 0.468750 0.025000
vt 0.468750 0.025000
vt 0.468750 0.225000
vt 0.468750 0.225000
vt 0.468750 0.025000
vt 0.468750 0.025000
vt 0.468750 0.225000
vt 0.468750 0.225000
vt 0.468750 0.225000
vt 0.468750 0.225000
vt 0.468750 0.225000
vt 0.468750 0.225000
vt 0.468750 0.225000
vt 0.468750 0.225000
vt 0.468750 0.225000
vt 0.468750 0.225000
vt 0.468750 0.025000
vt 0.468750 0.025000
vt 0.468750 0.025000
vt 0.468750 0.025000
vt 0.468750 0.183579
vt 0.468750 0.183579
vt 0.468750 0.225000
vt 0.468750 0.225000
vt 0.468750 0.225000
vt 0.468750 0.225000
vt 0.468750 0.207843
vt 0.468750 0.207843
vt 0.468750 0.166421
vt 0.468750 0.166421
vt 0.468750 0.125000
vt 0.468750 0.125000
vt 0.468750 0.166421
vt 0.468750 0.166421
vt 0.468750 0.125000
vt 0.468750 0.125000
vt 0.468750 0.207843
vt 0.468750 0.207843
vt 0.468750 0.190451
vt 0.468750 0.125000
vt 0.468750 0.185426
vt 0.468750 0.111103
vt 0.468750 0.166421
vt 0.468750 0.058550
vt 0.468750 0.154289
vt 0.468750 0.025000
vt 0.468750 0.154289
vt 0.468750 0.025000
vt 0.468750 0.154289
vt 0.468750 0.025000
vt 0.468750 0.166421
vt 0.468750 0.058550
vt 0.468750 0.185426
vt 0.468750 0.111103
vt 0.468750 0.154289
vt 0.468750 0.025000
vt 0.468750 0.190451
vt 0.468750 0.125000
vt 0.468750 0.185426
vt 0.468750 0.111103
vt 0.468750 0.166421
vt 0.468750 0.058550
vt 0.468750 0.190451
vt 0.468750 0.125000
vt 0.468750 0.154289
vt 0.468750 0.025000
vt 0.468750 0.154289
vt 0.468750 0.025000
vt 0.468750 0.154289
vt 0.468750 0.025000
vt 0.468750 0.190451
vt 0.468750 0.125000
vt 0.468750 0.185426
vt 0.468750 0.111103
vt 0.468750 0.154289
vt 0.468750 0.025000
vt 0.468750 0.166421
vt 0.468750 0.058550
s 0
usemtl colormap
f 3/5/1 2/3/1 1/1/1
f 2/3/1 3/5/1 4/7/1
f 7/13/2 6/11/2 5/9/2
f 6/11/2 7/13/2 8/15/2
f 11/21/3 10/19/3 9/17/3
f 10/19/3 11/21/3 12/23/3
f 15/29/4 14/27/4 13/25/4
f 14/27/4 15/29/4 16/31/4
f 15/30/4 17/33/5 16/32/4
f 17/33/5 15/30/4 18/34/5
f 19/35/6 17/33/5 18/34/5
f 17/33/5 19/35/6 20/36/6
f 12/24/3 20/36/6 19/35/6
f 20/36/6 12/24/3 11/22/3
f 21/37/7 2/4/1 4/8/1
f 2/4/1 21/37/7 22/38/7
f 21/37/7 23/39/8 22/38/7
f 23/39/8 21/37/9 24/40/8
f 9/18/3 23/39/8 24/40/8
f 23/39/8 9/18/3 10/20/3
f 25/41/10 8/16/2 7/14/2
f 8/16/2 25/41/10 26/42/10
f 25/41/10 27/43/11 26/42/10
f 27/43/12 25/41/10 28/44/12
f 28/44/12 14/28/4 27/43/12
f 14/28/4 28/44/12 13/26/4
f 29/45/13 3/6/1 1/2/1
f 3/6/1 29/45/13 30/46/13
f 31/47/14 30/46/13 29/45/13
f 30/46/13 31/47/14 32/48/14
f 5/10/2 32/48/14 31/47/14
f 32/48/14 5/10/2 6/12/2
f 35/51/15 34/50/15 33/49/15
f 34/50/15 35/51/15 36/52/15
f 34/50/15 36/52/15 37/53/15
f 37/53/15 36/52/15 38/54/15
f 37/53/15 38/54/15 39/55/15
f 39/55/15 38/54/15 40/56/15
f 18/34/16 12/24/16 19/35/16
f 12/24/16 18/34/16 10/20/16
f 10/20/16 18/34/16 23/39/16
f 23/39/16 18/34/16 22/38/16
f 22/38/16 18/34/16 15/30/16
f 22/38/16 15/30/16 2/4/16
f 2/4/16 15/30/16 13/26/16
f 2/4/16 13/26/16 1/2/16
f 1/2/16 13/26/16 28/44/16
f 1/2/16 28/44/16 29/45/16
f 29/45/16 28/44/16 25/41/16
f 29/45/16 25/41/16 31/47/16
f 31/47/15 25/41/15 5/10/15
f 5/10/16 25/41/16 7/14/16
f 26/42/15 6/12/15 8/16/15
f 26/42/2 32/48/2 6/12/2
f 41/57/15 32/48/15 26/42/15
f 41/57/15 30/46/15 32/48/15
f 26/42/15 42/58/15 41/57/15
f 27/43/15 42/58/15 26/42/15
f 43/59/15 30/46/15 41/57/15
f 43/59/15 3/6/15 30/46/15
f 43/59/15 4/8/15 3/6/15
f 44/60/15 4/8/15 43/59/15
f 44/60/15 21/37/15 4/8/15
f 45/61/15 21/37/15 44/60/15
f 45/61/15 24/40/15 21/37/15
f 27/43/15 46/62/15 42/58/15
f 14/28/15 46/62/15 27/43/15
f 16/32/15 46/62/15 14/28/15
f 16/32/15 47/63/15 46/62/15
f 24/40/15 45/61/15 48/64/15
f 17/33/15 47/63/15 16/32/15
f 17/33/15 48/64/15 47/63/15
f 48/64/15 9/18/15 24/40/15
f 48/64/15 11/22/15 9/18/15
f 17/33/15 11/22/15 48/64/15
f 11/22/15 17/33/15 20/36/15
f 38/54/5 44/60/12 43/59/5
f 41/57/6 38/54/5 43/59/5
f 44/60/12 38/54/5 36/52/12
f 38/54/5 41/57/6 40/56/6
f 36/52/12 45/61/10 44/60/12
f 45/61/10 36/52/12 35/51/10
f 33/49/14 45/61/10 35/51/10
f 45/61/10 33/49/14 48/64/14
f 42/58/8 40/56/6 41/57/6
f 40/56/6 42/58/8 39/55/8
f 42/58/8 37/53/7 39/55/8
f 37/53/7 42/58/8 46/62/7
f 34/50/13 48/64/14 33/49/14
f 46/62/7 34/50/13 37/53/7
f 48/64/14 34/50/13 47/63/13
f 34/50/13 46/62/7 47/63/13
f 3/5/1 2/3/1 1/1/1
f 2/3/1 3/5/1 4/7/1
f 7/13/2 6/11/2 5/9/2
f 6/11/2 7/13/2 8/15/2
f 11/21/3 10/19/3 9/17/3
f 10/19/3 11/21/3 12/23/3
f 15/29/4 14/27/4 13/25/4
f 14/27/4 15/29/4 16/31/4
f 15/30/4 17/33/5 16/32/4
f 17/33/5 15/30/4 18/34/5
f 19/35/6 17/33/5 18/34/5
f 17/33/5 19/35/6 20/36/6
f 12/24/3 20/36/6 19/35/6
f 20/36/6 12/24/3 11/22/3
f 21/37/7 2/4/1 4/8/1
f 2/4/1 21/37/7 22/38/7
f 21/37/7 23/39/8 22/38/7
f 23/39/8 21/37/9 24/40/8
f 9/18/3 23/39/8 24/40/8
f 23/39/8 9/18/3 10/20/3
f 25/41/10 8/16/2 7/14/2
f 8/16/2 25/41/10 26/42/10
f 25/41/10 27/43/11 26/42/10
f 27/43/12 25/41/10 28/44/12
f 28/44/12 14/28/4 27/43/12
f 14/28/4 28/44/12 13/26/4
f 29/45/13 3/6/1 1/2/1
f 3/6/1 29/45/13 30/46/13
f 31/47/14 30/46/13 29/45/13
f 30/46/13 31/47/14 32/48/14
f 5/10/2 32/48/14 31/47/14
f 32/48/14 5/10/2 6/12/2
f 35/51/15 34/50/15 33/49/15
f 34/50/15 35/51/15 36/52/15
f 34/50/15 36/52/15 37/53/15
f 37/53/15 36/52/15 38/54/15
f 37/53/15 38/54/15 39/55/15
f 39/55/15 38/54/15 40/56/15
f 18/34/16 12/24/16 19/35/16
f 12/24/16 18/34/16 10/20/16
f 10/20/16 18/34/16 23/39/16
f 23/39/16 18/34/16 22/38/16
f 22/38/16 18/34/16 15/30/16
f 22/38/16 15/30/16 2/4/16
f 2/4/16 15/30/16 13/26/16
f 2/4/16 13/26/16 1/2/16
f 1/2/16 13/26/16 28/44/16
f 1/2/16 28/44/16 29/45/16
f 29/45/16 28/44/16 25/41/16
f 29/45/16 25/41/16 31/47/16
f 31/47/15 25/41/15 5/10/15
f 5/10/16 25/41/16 7/14/16
f 26/42/15 6/12/15 8/16/15
f 26/42/2 32/48/2 6/12/2
f 41/57/15 32/48/15 26/42/15
f 41/57/15 30/46/15 32/48/15
f 26/42/15 42/58/15 41/57/15
f 27/43/15 42/58/15 26/42/15
f 43/59/15 30/46/15 41/57/15
f 43/59/15 3/6/15 30/46/15
f 43/59/15 4/8/15 3/6/15
f 44/60/15 4/8/15 43/59/15
f 44/60/15 21/37/15 4/8/15
f 45/61/15 21/37/15 44/60/15
f 45/61/15 24/40/15 21/37/15
f 27/43/15 46/62/15 42/58/15
f 14/28/15 46/62/15 27/43/15
f 16/32/15 46/62/15 14/28/15
f 16/32/15 47/63/15 46/62/15
f 24/40/15 45/61/15 48/64/15
f 17/33/15 47/63/15 16/32/15
f 17/33/15 48/64/15 47/63/15
f 48/64/15 9/18/15 24/40/15
f 48/64/15 11/22/15 9/18/15
f 17/33/15 11/22/15 48/64/15
f 11/22/15 17/33/15 20/36/15
f 38/54/5 44/60/12 43/59/5
f 41/57/6 38/54/5 43/59/5
f 44/60/12 38/54/5 36/52/12
f 38/54/5 41/57/6 40/56/6
f 36/52/12 45/61/10 44/60/12
f 45/61/10 36/52/12 35/51/10
f 33/49/14 45/61/10 35/51/10
f 45/61/10 33/49/14 48/64/14
f 42/58/8 40/56/6 41/57/6
f 40/56/6 42/58/8 39/55/8
f 42/58/8 37/53/7 39/55/8
f 37/53/7 42/58/8 46/62/7
f 34/50/13 48/64/14 33/49/14
f 46/62/7 34/50/13 37/53/7
f 48/64/14 34/50/13 47/63/13
f 34/50/13 46/62/7 47/63/13
f 51/67/16 50/66/16 49/65/16
f 50/66/16 51/67/16 52/68/16
f 52/68/16 51/67/16 53/69/16
f 53/69/16 51/67/16 54/70/16
f 54/70/16 51/67/16 55/71/16
f 54/70/16 55/71/16 56/72/16
f 56/72/16 55/71/16 57/73/16
f 56/72/16 57/73/16 58/74/16
f 58/74/16 57/73/16 59/75/16
f 58/74/16 59/75/16 60/76/16
f 60/76/16 59/75/16 61/77/16
f 60/76/16 61/77/16 62/78/16
f 62/78/3 61/77/3 63/79/3
f 63/79/2 61/77/2 64/80/2
f 67/83/15 66/82/15 65/81/15
f 66/82/15 67/83/15 68/84/15
f 68/84/15 67/83/15 69/85/15
f 51/67/5 70/86/4 55/71/4
f 70/86/4 51/67/5 71/87/5
f 49/65/6 71/87/5 51/67/17
f 71/87/5 49/65/6 72/88/18
f 50/66/3 72/88/6 49/65/6
f 72/88/6 50/66/3 73/89/3
f 64/80/2 69/85/10 67/83/2
f 69/85/10 64/80/2 61/77/10
f 61/77/10 68/84/12 69/85/10
f 68/84/12 61/77/19 59/75/12
f 59/75/12 66/82/4 68/84/12
f 66/82/4 59/75/12 57/73/4
f 74/90/1 54/70/7 56/72/1
f 54/70/7 74/90/1 75/91/7
f 75/91/7 53/69/20 54/70/7
f 53/69/8 75/91/7 76/92/8
f 77/93/3 53/69/8 76/92/8
f 53/69/8 77/93/3 52/68/3
f 60/76/13 78/94/1 58/74/1
f 78/94/1 60/76/13 79/95/13
f 62/78/14 79/95/13 60/76/21
f 79/95/13 62/78/14 80/96/22
f 63/79/2 80/96/14 62/78/14
f 80/96/14 63/79/2 81/97/2
f 73/89/15 71/87/15 72/88/15
f 71/87/15 73/89/15 82/98/15
f 71/87/15 82/98/15 70/86/15
f 76/92/15 83/99/15 77/93/15
f 83/99/15 76/92/15 75/91/15
f 83/99/15 75/91/15 74/90/15
f 79/95/15 84/100/15 78/94/15
f 84/100/15 79/95/15 81/97/15
f 81/97/15 79/95/15 80/96/15
f 87/103/1 86/102/1 85/101/1
f 86/102/1 87/103/1 88/104/1
f 91/107/4 90/106/4 89/105/4
f 90/106/4 91/107/4 92/108/4
f 95/111/15 94/110/15 93/109/15
f 94/110/15 95/111/15 96/112/15
f 92/108/15 96/112/15 95/111/15
f 92/108/15 87/103/15 96/112/15
f 91/107/15 87/103/15 92/108/15
f 97/113/15 87/103/15 91/107/15
f 98/114/15 87/103/15 97/113/15
f 87/103/15 98/114/15 88/104/15
f 97/113/15 99/115/15 98/114/15
f 99/115/15 97/113/15 100/116/15
f 100/116/3 101/117/3 99/115/3
f 101/117/3 100/116/3 102/118/3
f 103/119/2 93/109/2 94/110/2
f 93/109/2 103/119/2 104/120/2
f 107/123/23 106/122/24 105/121/24
f 106/122/24 107/123/23 108/124/23
f 105/121/25 110/126/26 109/125/26
f 110/126/26 105/121/25 106/122/25
f 109/125/26 112/128/24 111/127/24
f 112/128/24 109/125/26 110/126/26
f 111/127/24 114/130/3 113/129/3
f 114/130/3 111/127/24 112/128/24
f 114/130/3 115/131/27 113/129/3
f 115/131/27 114/130/3 116/132/27
f 119/135/28 118/134/2 117/133/2
f 118/134/2 119/135/28 120/136/28
f 118/134/2 121/137/25 117/133/2
f 121/137/25 118/134/2 122/138/25
f 121/137/25 108/124/23 107/123/23
f 108/124/23 121/137/25 122/138/25
f 106/122/4 123/139/4 110/126/4
f 110/126/4 123/139/4 112/128/4
f 124/141/4 112/128/4 123/139/4
f 125/143/4 112/128/4 124/141/4
f 125/143/4 114/130/4 112/128/4
f 126/145/4 114/130/4 125/143/4
f 126/145/4 116/132/4 114/130/4
f 116/132/4 126/145/4 120/136/4
f 127/147/4 120/136/4 126/145/4
f 127/147/4 126/145/4 128/149/4
f 120/136/4 127/147/4 118/134/4
f 118/134/4 127/147/4 129/151/4
f 118/134/4 129/151/4 130/153/4
f 118/134/4 130/153/4 122/138/4
f 127/147/4 128/149/4 131/155/4
f 123/139/4 131/155/4 128/149/4
f 131/155/4 123/139/4 106/122/4
f 122/138/4 130/153/4 132/157/4
f 106/122/4 132/157/4 131/155/4
f 132/157/4 108/124/4 122/138/4
f 132/157/4 106/122/4 108/124/4
f 111/127/1 134/161/1 133/159/1
f 111/127/1 133/159/1 135/163/1
f 113/129/1 134/161/1 111/127/1
f 135/163/1 109/125/1 111/127/1
f 113/129/1 136/165/1 134/161/1
f 135/163/1 105/121/1 109/125/1
f 115/131/1 136/165/1 113/129/1
f 105/121/1 135/163/1 137/167/1
f 136/165/1 115/131/1 138/169/1
f 136/165/1 138/169/1 137/167/1
f 137/167/1 139/171/1 105/121/1
f 139/171/1 137/167/1 138/169/1
f 105/121/1 139/171/1 107/123/1
f 107/123/1 139/171/1 121/137/1
f 140/173/1 121/137/1 139/171/1
f 138/169/1 115/131/1 141/175/1
f 119/135/1 141/175/1 115/131/1
f 140/173/1 117/133/1 121/137/1
f 141/175/1 119/135/1 117/133/1
f 142/177/1 117/133/1 140/173/1
f 141/175/1 117/133/1 142/177/1
f 132/158/29 140/174/30 139/172/29
f 140/174/30 132/158/29 130/154/30
f 130/154/30 142/178/3 140/174/30
f 142/178/3 130/154/30 129/152/3
f 135/164/31 128/150/30 137/168/30
f 128/150/30 135/164/31 123/140/31
f 136/166/32 128/150/15 126/146/32
f 128/150/15 136/166/32 137/168/15
f 125/144/2 133/160/33 134/162/2
f 133/160/33 125/144/2 124/142/33
f 123/140/31 133/160/33 124/142/33
f 133/160/33 123/140/31 135/164/31
f 129/152/3 141/176/34 142/178/3
f 141/176/34 129/152/3 127/148/34
f 141/176/34 131/156/15 138/170/15
f 131/156/15 141/176/34 127/148/34
f 138/170/33 132/158/29 139/172/29
f 132/158/29 138/170/33 131/156/33
f 136/166/32 125/144/2 134/162/2
f 125/144/2 136/166/32 126/146/32
