# Blender 3.3.1
# www.blender.org
o robot-arm-a.010
v 0.105000 0.070000 0.595000
v 0.105000 -0.070000 0.595000
v 0.000000 0.070000 0.595000
v 0.245000 0.070000 0.350000
v 0.064377 0.070000 0.525000
v 0.162759 0.070000 0.352832
v 0.175000 0.070000 0.245000
v 0.162759 -0.070000 0.352832
v 0.090870 0.070000 0.245000
v 0.090870 -0.070000 0.245000
v 0.064377 -0.070000 0.525000
v 0.000000 0.070000 0.525000
v 0.000000 -0.070000 0.525000
v 0.000000 -0.070000 0.595000
v -0.064377 -0.070000 0.525000
v -0.162759 -0.070000 0.352832
v -0.064377 0.070000 0.525000
v -0.162759 0.070000 0.352832
v -0.105000 -0.070000 0.595000
v -0.105000 0.070000 0.595000
v -0.245000 -0.070000 0.350000
v -0.245000 0.070000 0.350000
v -0.175000 0.070000 0.245000
v -0.175000 -0.070000 0.245000
v -0.090870 0.070000 0.245000
v -0.090870 -0.070000 0.245000
v 0.175000 -0.070000 0.245000
v 0.245000 -0.070000 0.350000
v 0.070000 -0.000000 -0.105000
v 0.070000 0.098995 -0.063995
v -0.070000 -0.000000 -0.105000
v 0.070000 -0.098995 -0.063995
v 0.070000 -0.140000 0.175000
v -0.070000 -0.098995 -0.063995
v 0.070000 -0.140000 0.035000
v -0.070000 -0.140000 0.035000
v -0.070000 -0.140000 0.175000
v -0.070000 0.098995 -0.063995
v -0.070000 0.140000 0.175000
v -0.070000 0.140000 0.035000
v 0.070000 0.140000 0.035000
v 0.070000 0.140000 0.175000
v -0.140000 0.175000 0.175000
v -0.140000 -0.175000 0.175000
v -0.105000 0.175000 0.175000
v -0.140000 0.175000 0.315000
v -0.175000 0.140000 0.175000
v -0.175000 -0.140000 0.175000
v -0.175000 -0.070000 0.245000
v -0.175000 0.070000 0.245000
v -0.175000 -0.140000 0.315000
v -0.175000 -0.070000 0.315000
v -0.140000 -0.175000 0.315000
v 0.140000 -0.175000 0.315000
v 0.175000 -0.140000 0.315000
v 0.140000 -0.175000 0.175000
v 0.105000 -0.175000 0.175000
v -0.105000 -0.175000 0.175000
v 0.105000 0.175000 0.175000
v 0.140000 0.175000 0.175000
v 0.140000 0.175000 0.315000
v 0.175000 0.140000 0.175000
v 0.175000 -0.140000 0.175000
v 0.175000 0.140000 0.315000
v 0.175000 0.070000 0.245000
v 0.175000 0.070000 0.315000
v -0.175000 0.070000 0.315000
v -0.175000 0.140000 0.315000
v 0.175000 -0.070000 0.245000
v 0.175000 -0.070000 0.315000
vn 0.5019 -0.0000 0.8649
vn 0.9994 -0.0000 -0.0344
vn -0.0000 -0.0000 1.0000
vn -0.0000 1.0000 -0.0000
vn -0.8682 -0.0000 -0.4961
vn -0.8320 -0.0000 0.5547
vn -0.0000 -0.0000 -1.0000
vn -0.0000 -1.0000 -0.0000
vn -1.0000 -0.0000 -0.0000
vn 1.0000 -0.0000 -0.0000
vn 0.8682 -0.0000 -0.4961
vn -0.5019 -0.0000 0.8649
vn -0.9994 -0.0000 -0.0344
vn -0.8321 -0.0000 -0.5547
vn 0.8320 -0.0000 0.5547
vn 0.8321 -0.0000 -0.5547
vn -0.0000 0.7071 -0.7071
vn -0.0000 -0.7071 -0.7071
vn -0.0000 -0.9808 -0.1951
vn -0.0000 0.9808 -0.1951
vn -0.7071 0.7071 -0.0000
vn -0.7071 -0.7071 -0.0000
vn 0.7071 -0.7071 -0.0000
vn 0.7071 0.7071 -0.0000
vt 0.218750 0.225000
vt 0.343750 0.225000
vt 0.343750 0.225000
vt 0.218750 0.225000
vt 0.218750 0.225000
vt 0.343750 0.225000
vt 0.343750 0.085000
vt 0.218750 0.085000
vt 0.343750 0.185000
vt 0.343750 0.086619
vt 0.343750 0.025000
vt 0.218750 0.025000
vt 0.343750 0.086619
vt 0.343750 0.025000
vt 0.218750 0.025000
vt 0.218750 0.025000
vt 0.343750 0.025000
vt 0.343750 0.185000
vt 0.218750 0.185000
vt 0.343750 0.185000
vt 0.343750 0.185000
vt 0.218750 0.185000
vt 0.343750 0.225000
vt 0.218750 0.225000
vt 0.343750 0.185000
vt 0.343750 0.086619
vt 0.343750 0.185000
vt 0.343750 0.086619
vt 0.218750 0.225000
vt 0.343750 0.225000
vt 0.218750 0.225000
vt 0.343750 0.225000
vt 0.343750 0.085000
vt 0.218750 0.085000
vt 0.218750 0.085000
vt 0.343750 0.085000
vt 0.218750 0.025000
vt 0.343750 0.025000
vt 0.343750 0.025000
vt 0.218750 0.025000
vt 0.218750 0.025000
vt 0.343750 0.025000
vt 0.218750 0.025000
vt 0.343750 0.025000
vt 0.343750 0.025000
vt 0.218750 0.025000
vt 0.343750 0.085000
vt 0.218750 0.085000
vt 0.343750 0.025000
vt 0.343750 0.054289
vt 0.343750 0.025000
vt 0.343750 0.054289
vt 0.343750 0.225000
vt 0.343750 0.054289
vt 0.343750 0.125000
vt 0.343750 0.125000
vt 0.343750 0.225000
vt 0.343750 0.054289
vt 0.343750 0.225000
vt 0.343750 0.125000
vt 0.343750 0.125000
vt 0.343750 0.225000
vt 0.218750 0.025000
vt 0.218750 0.025000
vt 0.218750 0.025000
vt 0.218750 0.225000
vt 0.218750 0.025000
vt 0.218750 0.025000
vt 0.218750 0.125000
vt 0.218750 0.125000
vt 0.218750 0.225000
vt 0.218750 0.225000
vt 0.218750 0.225000
vt 0.218750 0.225000
vt 0.218750 0.225000
vt 0.218750 0.025000
vt 0.218750 0.025000
vt 0.218750 0.025000
vt 0.218750 0.025000
vt 0.218750 0.025000
vt 0.218750 0.225000
vt 0.218750 0.025000
vt 0.218750 0.025000
vt 0.218750 0.225000
vt 0.218750 0.125000
vt 0.218750 0.225000
vt 0.218750 0.225000
vt 0.218750 0.225000
vt 0.218750 0.125000
vt 0.218750 0.225000
s 0
f 2/4/1 4/8/2 1/1/1
f 3/5/3 2/4/1 1/1/1
f 1/2/4 5/9/4 3/6/4
f 4/7/4 6/10/4 1/2/4
f 1/2/4 6/10/4 5/9/4
f 6/10/4 7/11/4 9/14/4
f 7/11/4 6/10/4 4/7/4
f 11/18/5 6/10/5 8/13/5
f 6/10/6 10/17/6 8/13/6
f 10/17/6 6/10/6 9/14/6
f 6/10/5 11/18/5 5/9/5
f 12/20/7 11/18/7 13/21/7
f 11/18/7 12/20/7 5/9/7
f 11/18/8 2/3/8 13/21/8
f 8/13/8 2/3/8 11/18/8
f 13/21/8 2/3/8 14/23/8
f 14/23/8 15/25/8 13/21/8
f 3/5/9 13/22/9 14/24/9
f 12/19/10 14/24/10 13/22/10
f 15/25/7 12/20/7 13/21/7
f 13/22/9 3/5/9 12/19/9
f 18/28/11 15/25/11 16/26/11
f 19/30/8 16/26/8 15/25/8
f 12/20/7 15/25/7 17/27/7
f 15/25/11 18/28/11 17/27/11
f 19/30/8 15/25/8 14/23/8
f 20/31/12 21/34/13 19/29/12
f 14/24/3 20/31/12 19/29/12
f 21/33/8 16/26/8 19/30/8
f 24/39/8 16/26/8 21/33/8
f 23/37/14 21/34/13 22/35/13
f 21/34/13 20/31/12 22/35/13
f 21/34/13 23/37/14 24/40/14
f 16/26/8 24/39/8 26/44/8
f 25/41/7 24/40/7 23/37/7
f 24/40/7 25/41/7 26/43/7
f 25/42/15 16/26/15 26/44/15
f 22/36/4 25/42/4 23/38/4
f 25/42/4 22/36/4 18/28/4
f 16/26/15 25/42/15 18/28/15
f 18/28/4 22/36/4 20/32/4
f 12/20/4 20/32/4 3/6/4
f 20/31/12 14/24/3 3/5/3
f 18/28/4 20/32/4 17/27/4
f 17/27/4 20/32/4 12/20/4
f 2/4/1 3/5/3 14/24/3
f 14/24/10 12/19/10 3/5/10
f 3/6/4 5/9/4 12/20/4
f 9/15/7 27/46/7 10/16/7
f 28/47/8 10/17/8 27/45/8
f 10/17/8 28/47/8 8/13/8
f 8/13/8 28/47/8 2/3/8
f 4/8/2 2/4/1 28/48/2
f 27/46/16 4/8/2 28/48/2
f 27/46/7 9/15/7 7/12/7
f 4/8/2 27/46/16 7/12/16
f 30/50/10 33/53/10 29/49/10
f 31/51/7 30/50/17 29/49/7
f 29/49/7 34/54/18 31/51/7
f 29/49/10 33/53/10 32/52/10
f 34/54/18 29/49/7 32/52/18
f 35/55/19 34/54/18 32/52/18
f 34/54/18 35/55/19 36/56/19
f 37/57/9 34/54/9 36/56/9
f 37/57/9 31/51/9 34/54/9
f 37/57/9 38/58/9 31/51/9
f 37/57/9 40/60/9 38/58/9
f 36/56/19 33/53/8 37/57/8
f 40/60/9 37/57/9 39/59/9
f 30/50/17 40/60/20 41/61/20
f 40/60/20 30/50/17 38/58/17
f 39/59/4 41/61/20 40/60/20
f 41/61/10 33/53/10 30/50/10
f 41/61/20 39/59/4 42/62/4
f 33/53/10 41/61/10 42/62/10
f 30/50/17 31/51/7 38/58/17
f 33/53/8 36/56/19 35/55/19
f 32/52/10 33/53/10 35/55/10
f 43/63/7 44/64/7 48/68/7
f 45/65/7 44/64/7 43/63/7
f 46/66/4 45/65/4 43/63/4
f 47/67/21 46/66/21 43/63/21
f 43/63/7 48/68/7 47/67/7
f 44/64/22 51/71/22 48/68/22
f 49/69/9 48/68/9 51/71/9
f 50/70/9 48/68/9 49/69/9
f 50/70/9 47/67/9 48/68/9
f 51/71/22 44/64/22 53/73/22
f 51/71/9 52/72/9 49/69/9
f 53/73/3 52/72/3 51/71/3
f 44/64/8 54/74/8 53/73/8
f 54/74/3 52/72/3 53/73/3
f 55/75/3 52/72/3 54/74/3
f 56/76/23 55/75/23 54/74/23
f 54/74/8 57/77/8 56/76/8
f 57/77/8 54/74/8 58/78/8
f 58/78/8 54/74/8 44/64/8
f 59/79/7 58/78/7 45/65/7
f 59/79/7 57/77/7 58/78/7
f 45/65/7 58/78/7 44/64/7
f 59/79/4 46/66/4 60/80/4
f 45/65/4 46/66/4 59/79/4
f 60/80/7 57/77/7 59/79/7
f 60/80/4 46/66/4 61/81/4
f 61/81/24 62/82/24 60/80/24
f 60/80/7 56/76/7 57/77/7
f 62/82/7 56/76/7 60/80/7
f 62/82/10 65/85/10 63/83/10
f 56/76/7 62/82/7 63/83/7
f 62/82/24 61/81/24 64/84/24
f 66/86/10 62/82/10 64/84/10
f 62/82/10 66/86/10 65/85/10
f 50/70/8 66/86/8 67/87/8
f 66/86/8 50/70/8 65/85/8
f 66/86/3 61/81/3 67/87/3
f 61/81/3 66/86/3 64/84/3
f 67/87/3 46/66/3 68/88/3
f 67/87/3 61/81/3 46/66/3
f 67/87/9 47/67/9 50/70/9
f 47/67/9 67/87/9 68/88/9
f 46/66/21 47/67/21 68/88/21
f 63/83/10 65/85/10 69/89/10
f 50/70/3 69/89/3 65/85/3
f 69/89/3 50/70/3 49/69/3
f 52/72/4 69/89/4 49/69/4
f 55/75/10 69/89/10 70/90/10
f 69/89/4 52/72/4 70/90/4
f 63/83/10 69/89/10 55/75/10
f 52/72/3 55/75/3 70/90/3
f 55/75/23 56/76/23 63/83/23
