# Blender 3.3.1
# www.blender.org
o robot-arm-a.001
v -0.070000 -0.140000 0.350000
v -0.140000 -0.140000 0.350000
v -0.070000 -0.098995 0.448995
v -0.070000 -0.140000 0.280000
v 0.070000 -0.140000 0.280000
v -0.070000 -0.000000 0.490000
v -0.140000 -0.140000 0.210000
v -0.070000 0.140000 0.280000
v -0.070000 0.098995 0.448995
v -0.140000 0.098995 0.448995
v -0.070000 0.140000 0.350000
v -0.140000 0.140000 0.350000
v -0.140000 0.140000 0.210000
v 0.140000 0.140000 0.210000
v 0.070000 0.140000 0.280000
v 0.140000 -0.140000 0.210000
v 0.140000 0.140000 0.350000
v 0.140000 0.098995 0.448995
v 0.070000 0.098995 0.448995
v 0.140000 -0.000000 0.490000
v 0.070000 -0.000000 0.490000
v 0.140000 -0.098995 0.448995
v 0.070000 -0.098995 0.448995
v 0.140000 -0.140000 0.350000
v 0.070000 -0.140000 0.350000
v 0.070000 0.140000 0.350000
v -0.140000 -0.000000 0.490000
v -0.140000 -0.098995 0.448995
v 0.350000 -0.000000 -0.000000
v 0.247487 0.247487 0.000000
v 0.247487 -0.247487 -0.000000
v 0.000000 -0.350000 -0.000000
v 0.000000 0.350000 0.000000
v -0.247487 -0.247487 -0.000000
v -0.247487 0.247487 0.000000
v -0.350000 -0.000000 -0.000000
v 0.280000 -0.000000 0.210000
v 0.197990 -0.197990 0.210000
v 0.197990 0.197990 0.210000
v 0.000000 0.280000 0.210000
v 0.000000 -0.280000 0.210000
v -0.197990 0.197990 0.210000
v -0.197990 -0.197990 0.210000
v -0.280000 -0.000000 0.210000
vn -0.0000 -0.9808 0.1951
vn -0.0000 -1.0000 -0.0000
vn -0.0000 -0.7071 0.7071
vn 1.0000 -0.0000 -0.0000
vn -0.0000 -0.0000 1.0000
vn -0.0000 0.7071 0.7071
vn 0.0002 -0.0000 1.0000
vn -0.0000 0.9808 0.1951
vn -0.0000 1.0000 -0.0000
vn -1.0000 -0.0000 -0.0000
vn -0.0002 -0.0000 1.0000
vn -0.0000 -0.0000 -1.0000
vn -0.6708 0.6708 0.3162
vn -0.0000 0.9487 0.3163
vn -0.0000 0.9487 0.3162
vn 0.6708 0.6708 0.3163
vn 0.6708 0.6708 0.3162
vn 0.9487 -0.0000 0.3163
vn 0.9487 -0.0000 0.3162
vn 0.6708 -0.6708 0.3162
vn -0.0000 -0.9487 0.3163
vn -0.0000 -0.9487 0.3162
vn -0.6708 -0.6708 0.3163
vn -0.6708 -0.6708 0.3162
vn -0.9487 -0.0000 0.3162
vn -0.9487 -0.0000 0.3163
vt 0.343750 0.125000
vt 0.218750 0.125000
vt 0.343750 0.125000
vt 0.218750 0.195711
vt 0.343750 0.195711
vt 0.343750 0.075000
vt 0.218750 0.075000
vt 0.343750 0.075000
vt 0.218750 0.075000
vt 0.218750 0.225000
vt 0.343750 0.225000
vt 0.343750 0.025000
vt 0.343750 0.075000
vt 0.218750 0.075000
vt 0.343750 0.195711
vt 0.218750 0.195711
vt 0.343750 0.195711
vt 0.218750 0.125000
vt 0.343750 0.125000
vt 0.343750 0.125000
vt 0.343750 0.025000
vt 0.343750 0.025000
vt 0.343750 0.075000
vt 0.218750 0.075000
vt 0.343750 0.025000
vt 0.343750 0.125000
vt 0.343750 0.195711
vt 0.218750 0.195711
vt 0.343750 0.195711
vt 0.343750 0.225000
vt 0.343750 0.225000
vt 0.218750 0.225000
vt 0.343750 0.195711
vt 0.343750 0.195711
vt 0.218750 0.195711
vt 0.343750 0.125000
vt 0.218750 0.125000
vt 0.343750 0.125000
vt 0.343750 0.125000
vt 0.218750 0.125000
vt 0.343750 0.225000
vt 0.343750 0.195711
vt 0.343750 0.025000
vt 0.343750 0.025000
vt 0.343750 0.025000
vt 0.343750 0.025000
vt 0.343750 0.025000
vt 0.343750 0.025000
vt 0.343750 0.025000
vt 0.343750 0.025000
vt 0.343750 0.225000
vt 0.343750 0.225000
vt 0.343750 0.225000
vt 0.343750 0.225000
vt 0.343750 0.225000
vt 0.343750 0.225000
vt 0.343750 0.225000
vt 0.343750 0.225000
s 0
f 2/3/1 4/6/2 1/1/1
f 3/5/3 2/3/1 1/1/1
f 4/7/4 3/4/4 1/2/4
f 7/12/2 4/6/2 2/3/1
f 4/7/4 6/10/4 3/4/4
f 5/9/5 8/14/5 4/7/5
f 4/6/2 7/12/2 5/8/2
f 4/7/4 9/16/4 6/10/4
f 8/14/4 9/16/4 4/7/4
f 10/17/6 6/11/7 9/15/6
f 11/19/8 10/17/6 9/15/6
f 9/16/4 8/14/4 11/18/4
f 8/13/9 12/20/8 11/19/8
f 10/17/6 11/19/8 12/20/8
f 12/20/10 7/12/10 10/17/10
f 7/12/10 12/20/10 13/21/10
f 8/13/9 13/21/9 12/20/8
f 13/21/9 8/13/9 14/22/9
f 14/22/9 15/23/9 17/26/8
f 15/23/9 14/22/9 8/13/9
f 14/22/4 18/27/4 16/25/4
f 18/27/4 14/22/4 17/26/4
f 17/26/8 19/29/6 18/27/6
f 19/29/6 20/30/7 18/27/6
f 16/25/4 18/27/4 20/30/4
f 20/30/5 19/29/6 21/31/5
f 21/31/5 22/33/3 20/30/5
f 16/25/4 20/30/4 22/33/4
f 25/38/1 22/33/3 23/34/3
f 22/33/3 21/31/11 23/34/3
f 16/25/4 22/33/4 24/36/4
f 22/33/3 25/38/1 24/36/1
f 23/35/10 5/9/10 25/37/10
f 5/8/2 24/36/1 25/38/1
f 5/8/2 16/25/2 24/36/1
f 21/32/10 5/9/10 23/35/10
f 19/28/10 5/9/10 21/32/10
f 26/40/10 5/9/10 19/28/10
f 19/29/6 17/26/8 26/39/8
f 17/26/8 15/23/9 26/39/8
f 5/9/10 26/40/10 15/24/10
f 16/25/2 5/8/2 7/12/2
f 8/14/5 5/9/5 15/24/5
f 6/11/5 10/17/6 27/41/5
f 10/17/10 7/12/10 27/41/10
f 3/5/3 27/41/11 28/42/3
f 27/41/5 3/5/3 6/11/5
f 27/41/10 7/12/10 28/42/10
f 28/42/10 7/12/10 2/3/10
f 2/3/1 3/5/3 28/42/3
f 31/45/12 30/44/12 29/43/12
f 30/44/12 31/45/12 32/46/12
f 30/44/12 32/46/12 33/47/12
f 33/47/12 32/46/12 34/48/12
f 33/47/12 34/48/12 35/49/12
f 35/49/12 34/48/12 36/50/12
f 39/53/5 38/52/5 37/51/5
f 38/52/5 39/53/5 40/54/5
f 38/52/5 40/54/5 41/55/5
f 41/55/5 40/54/5 42/56/5
f 41/55/5 42/56/5 43/57/5
f 43/57/5 42/56/5 44/58/5
f 42/56/13 33/47/14 35/49/13
f 33/47/15 42/56/13 40/54/15
f 40/54/15 30/44/16 33/47/15
f 30/44/17 40/54/15 39/53/17
f 39/53/17 29/43/18 30/44/17
f 29/43/19 39/53/17 37/51/19
f 38/52/20 32/46/21 31/45/20
f 32/46/22 38/52/20 41/55/22
f 41/55/22 34/48/23 32/46/22
f 34/48/24 41/55/22 43/57/24
f 34/48/23 44/58/25 36/50/25
f 44/58/25 34/48/24 43/57/24
f 36/50/26 42/56/13 35/49/13
f 42/56/13 36/50/25 44/58/25
f 38/52/20 29/43/19 37/51/19
f 29/43/18 38/52/20 31/45/20
f 31/45/12 30/44/12 29/43/12
f 30/44/12 31/45/12 32/46/12
f 30/44/12 32/46/12 33/47/12
f 33/47/12 32/46/12 34/48/12
f 33/47/12 34/48/12 35/49/12
f 35/49/12 34/48/12 36/50/12
f 39/53/5 38/52/5 37/51/5
f 38/52/5 39/53/5 40/54/5
f 38/52/5 40/54/5 41/55/5
f 41/55/5 40/54/5 42/56/5
f 41/55/5 42/56/5 43/57/5
f 43/57/5 42/56/5 44/58/5
f 42/56/13 33/47/14 35/49/13
f 33/47/15 42/56/13 40/54/15
f 40/54/15 30/44/16 33/47/15
f 30/44/17 40/54/15 39/53/17
f 39/53/17 29/43/18 30/44/17
f 29/43/19 39/53/17 37/51/19
f 38/52/20 32/46/21 31/45/20
f 32/46/22 38/52/20 41/55/22
f 41/55/22 34/48/23 32/46/22
f 34/48/24 41/55/22 43/57/24
f 34/48/23 44/58/25 36/50/25
f 44/58/25 34/48/24 43/57/24
f 36/50/26 42/56/13 35/49/13
f 42/56/13 36/50/25 44/58/25
f 38/52/20 29/43/19 37/51/19
f 29/43/18 38/52/20 31/45/20
