# Blender 3.3.1
# www.blender.org
o robot-arm-a.002
v 0.070000 0.140000 0.175000
v 0.070000 0.140000 0.035000
v 0.070000 -0.140000 0.175000
v -0.070000 0.140000 0.175000
v -0.105000 0.140000 0.385000
v 0.105000 0.140000 0.175000
v 0.105000 0.140000 0.385000
v 0.140000 0.105000 0.175000
v 0.105000 -0.140000 0.175000
v 0.105000 -0.140000 0.385000
v 0.140000 -0.105000 0.385000
v 0.140000 -0.105000 0.175000
v 0.140000 0.105000 0.385000
v -0.070000 -0.140000 0.175000
v -0.105000 -0.140000 0.175000
v -0.105000 -0.140000 0.385000
v -0.140000 -0.105000 0.385000
v -0.140000 -0.105000 0.175000
v -0.140000 0.105000 0.385000
v -0.140000 0.105000 0.175000
v -0.105000 0.140000 0.175000
v -0.070000 0.140000 0.035000
v -0.070000 0.098995 -0.063995
v -0.070000 -0.000000 -0.105000
v -0.070000 -0.098995 -0.063995
v -0.070000 -0.140000 0.035000
v -0.070000 -0.098995 -0.063995
v 0.070000 -0.140000 0.035000
v 0.070000 -0.098995 -0.063995
v 0.070000 -0.098995 -0.063995
v 0.070000 -0.000000 -0.105000
v 0.070000 0.098995 -0.063995
v -0.070000 -0.000000 -0.105000
v -0.070000 0.098995 -0.063995
v 0.070000 -0.000000 -0.105000
v 0.070000 0.098995 -0.063995
vn -0.0000 0.9808 -0.1951
vn -0.0000 1.0000 -0.0000
vn 1.0000 -0.0000 -0.0000
vn -0.0000 -0.0000 -1.0000
vn 0.7071 0.7071 -0.0000
vn 0.9239 0.3827 -0.0000
vn -0.0000 -1.0000 -0.0000
vn 0.7071 -0.7071 -0.0000
vn 0.9239 -0.3827 -0.0000
vn 0.9239 -0.3827 0.0001
vn 0.9239 0.3827 -0.0001
vn -0.0000 -0.0000 1.0000
vn -0.7071 -0.7071 -0.0000
vn -0.9239 -0.3827 -0.0000
vn -0.9239 0.3827 -0.0000
vn -0.9239 -0.3827 -0.0001
vn -0.7071 0.7071 -0.0000
vn -0.9239 0.3827 0.0001
vn -1.0000 -0.0000 -0.0000
vn -0.0000 -0.9808 -0.1951
vn -0.0000 -0.7071 -0.7071
vn 0.0001 -0.9808 -0.1951
vn -0.0001 -0.7071 -0.7071
vn 0.0001 0.7071 -0.7071
vn -0.0000 0.7071 -0.7071
vn -0.0001 0.9808 -0.1951
vt 0.343750 0.225000
vt 0.343750 0.105000
vt 0.218750 0.105000
vt 0.343750 0.025000
vt 0.343750 0.125000
vt 0.218750 0.105000
vt 0.343750 0.225000
vt 0.343750 0.105000
vt 0.218750 0.105000
vt 0.343750 0.105000
vt 0.343750 0.225000
vt 0.218750 0.225000
vt 0.218750 0.105000
vt 0.218750 0.225000
vt 0.218750 0.105000
vt 0.218750 0.105000
vt 0.218750 0.225000
vt 0.218750 0.225000
vt 0.218750 0.105000
vt 0.218750 0.225000
vt 0.218750 0.105000
vt 0.343750 0.105000
vt 0.343750 0.225000
vt 0.218750 0.105000
vt 0.218750 0.225000
vt 0.218750 0.225000
vt 0.218750 0.105000
vt 0.218750 0.225000
vt 0.218750 0.105000
vt 0.218750 0.105000
vt 0.343750 0.025000
vt 0.343750 0.125000
vt 0.343750 0.025000
vt 0.343750 0.025000
vt 0.343750 0.025000
vt 0.343750 0.025000
vt 0.343750 0.125000
vt 0.343750 0.054289
vt 0.343750 0.025000
vt 0.343750 0.125000
vt 0.343750 0.025000
vt 0.343750 0.054289
vt 0.343750 0.025000
vt 0.343750 0.054289
vt 0.343750 0.025000
vt 0.343750 0.054289
vt 0.343750 0.025000
vt 0.343750 0.025000
s 0
f 2/5/1 4/11/2 1/1/2
f 3/8/3 2/4/3 1/2/3
f 6/13/4 3/6/4 1/3/4
f 4/9/2 5/12/2 1/3/2
f 1/3/2 5/12/2 6/13/2
f 6/13/4 9/16/4 3/6/4
f 6/13/2 5/12/2 7/14/2
f 7/14/5 8/15/6 6/13/5
f 8/15/4 9/16/4 6/13/4
f 10/17/7 3/6/7 9/16/7
f 9/16/8 11/18/9 10/17/8
f 11/18/9 9/16/8 12/19/9
f 9/16/4 8/15/4 12/19/4
f 8/15/6 11/18/9 12/19/10
f 11/18/9 8/15/6 13/20/11
f 7/14/12 11/18/12 13/20/12
f 11/18/12 7/14/12 10/17/12
f 8/15/6 7/14/5 13/20/6
f 3/6/7 10/17/7 14/21/7
f 14/21/7 10/17/7 15/24/7
f 15/24/7 10/17/7 16/25/7
f 10/17/12 5/12/12 16/25/12
f 10/17/12 7/14/12 5/12/12
f 16/25/13 18/27/14 15/24/13
f 16/25/12 19/28/12 17/26/12
f 18/27/14 16/25/13 17/26/14
f 16/25/12 5/12/12 19/28/12
f 20/29/15 17/26/16 19/28/15
f 19/28/15 21/30/17 20/29/15
f 21/30/17 19/28/15 5/12/17
f 21/30/4 18/27/4 20/29/4
f 21/30/4 15/24/4 18/27/4
f 4/9/4 15/24/4 21/30/4
f 5/12/2 4/9/2 21/30/2
f 17/26/14 20/29/18 18/27/14
f 15/24/4 4/9/4 14/21/4
f 22/31/19 14/22/19 4/10/19
f 14/22/19 22/31/19 23/33/19
f 14/22/19 23/33/19 24/34/19
f 14/22/19 24/34/19 25/35/19
f 14/22/19 25/35/19 26/36/19
f 26/37/20 3/7/7 14/23/7
f 27/38/21 28/40/20 26/37/22
f 3/7/7 26/37/20 28/40/20
f 29/41/3 3/8/3 28/39/3
f 28/40/20 27/38/21 30/42/23
f 27/38/21 31/43/4 30/42/21
f 33/45/4 32/44/24 31/43/4
f 31/43/4 27/38/23 33/45/4
f 32/44/25 33/45/4 34/46/25
f 22/32/1 32/44/25 34/46/24
f 32/44/25 22/32/1 2/5/26
f 35/47/3 3/8/3 29/41/3
f 36/48/3 3/8/3 35/47/3
f 2/4/3 3/8/3 36/48/3
f 4/11/2 2/5/1 22/32/1
