# Blender 3.3.1
# www.blender.org
mtllib robot_A5_b.mtl
o robot-arm-b.001
v 0.070000 -0.000000 -0.104970
v 0.070000 0.098995 -0.063964
v -0.070000 -0.000000 -0.104970
v -0.070000 0.098995 -0.063964
v -0.070000 0.140000 0.035030
v 0.070000 0.140000 0.035030
v -0.070000 0.140000 0.175030
v 0.070000 0.140000 0.175030
v 0.070000 -0.098995 -0.063964
v -0.070000 -0.098995 -0.063964
v 0.070000 -0.140000 0.035030
v -0.070000 -0.140000 0.035030
v 0.070000 -0.140000 0.175030
v -0.070000 -0.140000 0.175030
v -0.101036 -0.000000 0.245030
v -0.050518 -0.087500 0.245030
v -0.101036 -0.000000 0.455030
v -0.050518 -0.087500 0.455030
v 0.050518 0.087500 0.455030
v -0.050518 0.087500 0.455030
v 0.075777 0.131250 0.455030
v -0.075777 0.131250 0.455030
v 0.101036 0.175000 0.245030
v 0.050518 0.087500 0.245030
v -0.050518 0.087500 0.245030
v -0.101036 0.175000 0.245030
v 0.075777 -0.131250 0.455030
v 0.050518 -0.087500 0.455030
v 0.151554 -0.000000 0.455030
v 0.101036 -0.000000 0.455030
v 0.101036 -0.175000 0.245030
v 0.050518 -0.087500 0.245030
v 0.202073 -0.000000 0.245030
v 0.101036 -0.000000 0.245030
v -0.101036 -0.175000 0.245030
v -0.075777 -0.131250 0.455030
v -0.151554 -0.000000 0.455030
v -0.202073 -0.000000 0.245030
v -0.101036 -0.175000 0.175030
v -0.202073 -0.000000 0.175030
v 0.202073 -0.000000 0.175030
v 0.101036 -0.175000 0.175030
v 0.101036 0.175000 0.175030
v -0.101036 0.175000 0.175030
vn -0.0000 -0.0000 -1.0000
vn -0.0000 0.7071 -0.7071
vn -0.0000 1.0000 -0.0000
vn -0.0000 0.9808 -0.1951
vn -0.0000 -0.7071 -0.7071
vn -0.0000 -0.9808 -0.1951
vn -0.0000 -1.0000 -0.0000
vn 1.0000 -0.0000 -0.0000
vn -1.0000 -0.0000 -0.0000
vn 0.5000 0.8660 -0.0000
vn -0.0000 -0.0000 1.0000
vn 0.8660 -0.5000 -0.0000
vn 0.5000 -0.8660 -0.0000
vn -0.5000 -0.8660 -0.0000
vn -0.8660 -0.5000 -0.0000
vn -0.5000 0.8660 -0.0000
vn -0.8478 -0.4895 0.2040
vn 0.8478 -0.4895 0.2040
vn -0.0000 0.9790 0.2040
vt 0.343750 0.025000
vt 0.343750 0.054289
vt 0.343750 0.025000
vt 0.343750 0.054289
vt 0.343750 0.125000
vt 0.343750 0.125000
vt 0.343750 0.225000
vt 0.343750 0.225000
vt 0.343750 0.054289
vt 0.343750 0.054289
vt 0.343750 0.125000
vt 0.343750 0.125000
vt 0.343750 0.225000
vt 0.343750 0.225000
vt 0.343750 0.075000
vt 0.218750 0.075000
vt 0.343750 0.075000
vt 0.218750 0.075000
vt 0.343750 0.225000
vt 0.343750 0.225000
vt 0.343750 0.225000
vt 0.343750 0.225000
vt 0.343750 0.225000
vt 0.343750 0.225000
vt 0.343750 0.075000
vt 0.218750 0.075000
vt 0.343750 0.075000
vt 0.218750 0.075000
vt 0.343750 0.075000
vt 0.218750 0.075000
vt 0.343750 0.075000
vt 0.218750 0.075000
vt 0.343750 0.225000
vt 0.343750 0.225000
vt 0.343750 0.225000
vt 0.343750 0.225000
vt 0.343750 0.075000
vt 0.218750 0.075000
vt 0.343750 0.075000
vt 0.218750 0.075000
vt 0.343750 0.075000
vt 0.218750 0.075000
vt 0.343750 0.075000
vt 0.218750 0.075000
vt 0.343750 0.075000
vt 0.218750 0.075000
vt 0.343750 0.225000
vt 0.343750 0.225000
vt 0.343750 0.075000
vt 0.218750 0.075000
vt 0.218750 0.025000
vt 0.218750 0.025000
vt 0.218750 0.025000
vt 0.218750 0.025000
vt 0.218750 0.025000
vt 0.218750 0.025000
s 0
usemtl colormap.002
f 3/3/1 2/2/2 1/1/1
f 2/2/2 3/3/1 4/4/2
f 7/7/3 6/6/4 5/5/4
f 6/6/4 7/7/3 8/8/3
f 10/10/5 1/1/1 9/9/5
f 1/1/1 10/10/5 3/3/1
f 11/11/6 10/10/5 9/9/5
f 10/10/5 11/11/6 12/12/6
f 13/13/7 12/12/6 11/11/6
f 12/12/6 13/13/7 14/14/7
f 5/5/4 2/2/2 4/4/2
f 2/2/2 5/5/4 6/6/4
f 13/13/8 6/6/8 8/8/8
f 6/6/8 13/13/8 2/2/8
f 2/2/8 13/13/8 1/1/8
f 1/1/8 13/13/8 9/9/8
f 9/9/8 13/13/8 11/11/8
f 5/5/9 14/14/9 7/7/9
f 14/14/9 5/5/9 4/4/9
f 14/14/9 4/4/9 3/3/9
f 14/14/9 3/3/9 10/10/9
f 14/14/9 10/10/9 12/12/9
f 17/19/10 16/17/8 15/15/10
f 16/17/8 17/19/10 18/20/8
f 21/23/11 20/22/11 19/21/11
f 20/22/11 21/23/11 22/24/11
f 21/23/12 24/27/13 23/25/12
f 24/27/13 21/23/12 19/21/13
f 20/22/14 26/31/15 25/29/14
f 26/31/15 20/22/14 22/24/15
f 20/22/14 24/27/13 19/21/13
f 24/27/13 20/22/14 25/29/14
f 29/35/11 28/34/11 27/33/11
f 28/34/11 29/35/11 30/36/11
f 27/33/15 32/39/9 31/37/15
f 32/39/9 27/33/15 28/34/9
f 34/43/16 29/35/3 33/41/3
f 29/35/3 34/43/16 30/36/16
f 28/34/9 34/43/16 32/39/9
f 34/43/16 28/34/9 30/36/16
f 18/20/8 35/45/12 16/17/8
f 35/45/12 18/20/8 36/47/12
f 18/20/11 37/48/11 36/47/11
f 37/48/11 18/20/11 17/19/11
f 38/49/3 17/19/10 15/15/10
f 17/19/10 38/49/3 37/48/3
f 36/47/17 38/49/17 35/45/17
f 38/49/17 36/47/17 37/48/17
f 29/35/18 31/37/18 33/41/18
f 31/37/18 29/35/18 27/33/18
f 26/31/19 21/23/19 23/25/19
f 21/23/19 26/31/19 22/24/19
f 35/46/14 40/52/9 39/51/14
f 40/52/9 35/46/14 38/50/9
f 33/42/8 42/54/13 41/53/8
f 42/54/13 33/42/8 31/38/13
f 44/56/16 23/26/10 43/55/10
f 23/26/10 44/56/16 26/32/16
f 23/26/10 41/53/8 43/55/10
f 41/53/8 23/26/10 33/42/8
f 38/50/9 44/56/16 40/52/9
f 44/56/16 38/50/9 26/32/16
f 35/46/14 42/54/13 31/38/13
f 42/54/13 35/46/14 39/51/14
f 40/52/1 42/54/1 39/51/1
f 42/54/1 40/52/1 41/53/1
f 41/53/1 40/52/1 44/56/1
f 41/53/1 44/56/1 43/55/1
f 23/26/11 34/44/11 33/42/11
f 34/44/11 23/26/11 24/28/11
f 25/30/11 34/44/11 24/28/11
f 38/50/11 34/44/11 25/30/11
f 38/50/11 25/30/11 26/32/11
f 15/16/7 34/44/7 38/50/7
f 15/16/11 32/40/11 34/44/11
f 16/18/11 32/40/11 15/16/11
f 16/18/11 31/38/11 32/40/11
f 31/38/11 16/18/11 35/46/11
