# Blender 3.3.1
# www.blender.org
o robot-arm-a.003
v 0.105000 -0.000000 0.070000
v 0.105000 -0.000000 -0.000000
v 0.074246 -0.074246 0.070000
v 0.074246 0.074246 0.000000
v 0.074246 0.074246 0.070000
v 0.000000 0.105000 0.070000
v -0.074246 0.074246 0.070000
v 0.000000 0.105000 0.000000
v -0.074246 0.074246 0.000000
v -0.105000 -0.000000 -0.000000
v -0.105000 -0.000000 0.070000
v -0.074246 -0.074246 -0.000000
v 0.000000 -0.105000 -0.000000
v 0.000000 -0.105000 0.070000
v -0.074246 -0.074246 0.070000
v 0.074246 -0.074246 -0.000000
v -0.070000 -0.140000 0.210000
v -0.140000 -0.140000 0.210000
v -0.070000 -0.098995 0.308995
v -0.070000 -0.140000 0.140000
v -0.070000 -0.000000 0.350000
v -0.070000 0.098995 0.308995
v 0.070000 -0.140000 0.140000
v -0.140000 -0.140000 0.105000
v -0.070000 0.140000 0.140000
v -0.140000 0.140000 0.210000
v -0.140000 0.140000 0.105000
v 0.140000 0.140000 0.105000
v 0.070000 0.140000 0.140000
v -0.070000 0.140000 0.210000
v -0.140000 0.098995 0.308995
v -0.140000 -0.000000 0.350000
v -0.140000 -0.105000 0.070000
v -0.140000 0.105000 0.070000
v 0.140000 0.105000 0.070000
v 0.140000 -0.105000 0.070000
v 0.140000 0.098995 0.308995
v 0.140000 0.140000 0.210000
v 0.070000 0.098995 0.308995
v 0.140000 -0.000000 0.350000
v 0.070000 -0.000000 0.350000
v 0.140000 -0.098995 0.308995
v 0.070000 -0.098995 0.308995
v 0.140000 -0.140000 0.210000
v 0.070000 -0.140000 0.210000
v 0.140000 -0.140000 0.105000
v 0.070000 0.140000 0.210000
v -0.140000 -0.098995 0.308995
vn 0.7071 0.7071 -0.0000
vn 1.0000 -0.0000 -0.0000
vn 0.7071 -0.7071 -0.0000
vn -0.0000 1.0000 -0.0000
vn -0.7071 0.7071 -0.0000
vn -1.0000 -0.0000 -0.0000
vn -0.7071 -0.7071 -0.0000
vn -0.0000 -1.0000 -0.0000
vn -0.0000 -0.9808 0.1951
vn -0.0000 -0.7071 0.7071
vn -0.0000 -0.9239 -0.3827
vn -0.0000 -0.0000 1.0000
vn 0.0001 0.9239 -0.3827
vn -0.0000 0.9808 0.1951
vn -0.0000 0.9239 -0.3827
vn -0.0000 0.7071 0.7071
vn -0.0000 0.3827 -0.9239
vn -0.0001 -0.3827 -0.9239
vn -0.0000 -0.3827 -0.9239
vn 0.0001 0.3827 -0.9239
vn -0.0001 -0.9239 -0.3827
vt 0.093750 0.225000
vt 0.093750 0.025000
vt 0.093750 0.225000
vt 0.093750 0.025000
vt 0.093750 0.225000
vt 0.093750 0.225000
vt 0.093750 0.225000
vt 0.093750 0.025000
vt 0.093750 0.025000
vt 0.093750 0.025000
vt 0.093750 0.225000
vt 0.093750 0.025000
vt 0.093750 0.025000
vt 0.093750 0.225000
vt 0.093750 0.225000
vt 0.093750 0.025000
vt 0.343750 0.125000
vt 0.218750 0.125000
vt 0.343750 0.125000
vt 0.218750 0.195711
vt 0.343750 0.195711
vt 0.218750 0.075000
vt 0.343750 0.075000
vt 0.218750 0.225000
vt 0.343750 0.225000
vt 0.218750 0.195711
vt 0.343750 0.195711
vt 0.343750 0.075000
vt 0.218750 0.075000
vt 0.343750 0.050000
vt 0.343750 0.075000
vt 0.218750 0.075000
vt 0.343750 0.125000
vt 0.343750 0.050000
vt 0.343750 0.050000
vt 0.218750 0.075000
vt 0.343750 0.075000
vt 0.218750 0.125000
vt 0.343750 0.125000
vt 0.343750 0.195711
vt 0.343750 0.225000
vt 0.343750 0.025000
vt 0.343750 0.025000
vt 0.343750 0.025000
vt 0.343750 0.025000
vt 0.343750 0.195711
vt 0.343750 0.125000
vt 0.218750 0.195711
vt 0.343750 0.195711
vt 0.343750 0.225000
vt 0.343750 0.225000
vt 0.218750 0.225000
vt 0.343750 0.195711
vt 0.343750 0.195711
vt 0.218750 0.195711
vt 0.343750 0.125000
vt 0.218750 0.125000
vt 0.343750 0.125000
vt 0.343750 0.050000
vt 0.343750 0.125000
vt 0.218750 0.125000
vt 0.343750 0.195711
s 0
f 4/4/1 1/1/2 2/2/2
f 3/3/3 2/2/2 1/1/2
f 1/1/2 4/4/1 5/5/1
f 4/4/1 6/6/4 5/5/1
f 8/8/4 7/7/5 6/6/4
f 6/6/4 4/4/1 8/8/4
f 7/7/5 8/8/4 9/9/5
f 10/10/6 7/7/5 9/9/5
f 7/7/5 10/10/6 11/11/6
f 12/12/7 11/11/6 10/10/6
f 14/14/8 12/12/7 13/13/8
f 12/12/7 14/14/8 15/15/7
f 11/11/6 12/12/7 15/15/7
f 13/13/8 3/3/3 14/14/8
f 3/3/3 13/13/8 16/16/3
f 2/2/2 3/3/3 16/16/3
f 18/19/9 20/23/8 17/17/9
f 19/21/10 18/19/9 17/17/9
f 20/22/2 19/20/2 17/18/2
f 24/30/11 20/23/8 18/19/9
f 20/22/2 21/24/2 19/20/2
f 20/22/2 22/26/2 21/24/2
f 25/32/2 22/26/2 20/22/2
f 23/29/12 25/32/12 20/22/12
f 20/23/8 24/30/11 23/28/8
f 25/31/4 27/34/13 26/33/14
f 25/31/4 26/33/14 30/39/14
f 27/34/15 25/31/4 28/35/15
f 29/37/4 28/35/15 25/31/4
f 25/32/12 23/29/12 29/36/12
f 22/26/2 25/32/2 30/38/2
f 31/40/16 30/39/14 26/33/14
f 30/39/14 31/40/16 22/27/16
f 21/25/12 31/40/16 32/41/12
f 31/40/16 21/25/12 22/27/16
f 31/40/6 33/42/6 32/41/6
f 26/33/6 34/43/6 31/40/6
f 31/40/6 34/43/6 33/42/6
f 34/43/6 26/33/6 27/34/6
f 34/43/17 28/35/15 35/44/17
f 35/44/17 33/42/18 34/43/17
f 28/35/15 34/43/17 27/34/15
f 35/44/2 37/46/2 36/45/2
f 33/42/19 35/44/20 36/45/19
f 28/35/2 37/46/2 35/44/2
f 37/46/2 28/35/2 38/47/2
f 38/47/14 39/49/16 37/46/16
f 39/49/16 40/50/12 37/46/16
f 36/45/2 37/46/2 40/50/2
f 40/50/12 39/49/16 41/51/12
f 41/51/12 42/53/10 40/50/12
f 36/45/2 40/50/2 42/53/2
f 45/58/9 42/53/10 43/54/10
f 42/53/10 41/51/12 43/54/10
f 36/45/2 42/53/2 44/56/2
f 42/53/10 45/58/9 44/56/9
f 43/55/6 23/29/6 45/57/6
f 23/28/8 44/56/9 45/58/9
f 23/28/8 46/59/21 44/56/9
f 36/45/2 44/56/2 46/59/2
f 24/30/11 36/45/19 46/59/11
f 46/59/11 23/28/8 24/30/11
f 41/52/6 23/29/6 43/55/6
f 39/48/6 23/29/6 41/52/6
f 47/61/6 23/29/6 39/48/6
f 39/49/16 38/47/14 47/60/14
f 38/47/14 29/37/4 47/60/14
f 23/29/6 47/61/6 29/36/6
f 28/35/15 29/37/4 38/47/14
f 36/45/19 24/30/11 33/42/19
f 18/19/6 33/42/6 24/30/6
f 48/62/6 33/42/6 18/19/6
f 32/41/6 33/42/6 48/62/6
f 18/19/9 19/21/10 48/62/10
f 19/21/10 32/41/12 48/62/10
f 32/41/12 19/21/10 21/25/12
