# Blender 3.3.1
# www.blender.org
o craft_speederA
v -0.325120 0.500185 0.232208
v -0.175065 0.500185 0.232208
v -0.325120 0.250093 0.273890
v 0.025009 0.200074 0.282227
v -0.325120 0.200074 0.282227
v -0.075028 0.200074 0.282227
v -0.525194 0.250093 0.132171
v -0.525194 0.150056 0.182190
v -0.525194 0.100037 0.132171
v -0.525194 0.100037 0.382264
v -0.525194 0.150056 0.332245
v -0.525194 0.200074 0.332245
v -0.525194 0.200074 0.182190
v -0.525194 0.250093 0.382264
v 0.025009 0.150056 0.282227
v -0.025009 0.100037 0.282227
v 0.125046 0.125046 0.282227
v 0.125046 0.100037 0.282227
v 0.075028 0.150056 0.282227
v -0.525194 -0.100037 0.132171
v -0.525194 -0.200074 0.182190
v -0.525194 -0.250093 0.132171
v -0.525194 -0.250093 0.382264
v -0.525194 -0.200074 0.332245
v -0.525194 -0.150055 0.332245
v -0.525194 -0.150055 0.182190
v -0.525194 -0.100037 0.382264
v 0.125046 -0.100037 0.282227
v 0.025009 -0.150056 0.282227
v -0.025009 -0.100037 0.282227
v -0.075028 -0.200074 0.282227
v 0.125046 -0.125046 0.282227
v 0.025009 -0.200074 0.282227
v 0.075028 -0.150056 0.282227
v -0.325120 -0.200074 0.282227
v -0.325120 -0.250093 0.273890
v -0.175065 -0.500185 0.232208
v -0.325120 -0.500185 0.232208
v 0.124798 0.150056 0.182190
v 0.025009 0.150056 0.182190
v 0.124798 -0.150056 0.182190
v 0.025009 0.100037 0.182190
v 0.025009 -0.100037 0.182190
v -0.175065 -0.100037 0.182190
v 0.025009 -0.150056 0.182190
v -0.325120 -0.250093 0.182190
v -0.325120 -0.100037 0.182190
v 0.025009 -0.200074 0.182190
v -0.175065 -0.500185 0.182190
v -0.325120 -0.500185 0.182190
v -0.325120 0.100037 0.182190
v 0.025009 0.200074 0.182190
v -0.325120 0.250093 0.182190
v -0.325120 0.500185 0.182190
v -0.175065 0.500185 0.182190
v -0.175065 0.100037 0.182190
v 0.525194 -0.100037 0.284715
v 0.125046 -0.150056 0.232208
v 0.125046 -0.100037 0.232208
v 0.125046 -0.125046 0.232208
v 0.125046 0.150056 0.232208
v 0.525194 0.100037 0.284715
v 0.125046 0.125046 0.232208
v 0.125046 0.100037 0.232208
v 0.075028 -0.150056 0.232208
v 0.525194 -0.100037 0.237185
v 0.525194 0.100037 0.237185
v 0.075028 0.150056 0.232208
v -0.325120 0.127547 0.332245
v -0.175065 0.127547 0.332245
v -0.325120 0.100037 0.332245
v -0.025009 0.100037 0.332245
v -0.175065 0.100037 0.332245
v -0.075028 0.200074 0.332245
v -0.175065 0.200074 0.332245
v -0.375139 0.181942 0.457292
v -0.325120 0.200074 0.332245
v -0.300111 0.181942 0.457292
v -0.375139 0.145679 0.457292
v -0.300111 0.145679 0.457292
v 0.025009 -0.025009 0.482301
v 0.025009 -0.100037 0.482301
v -0.175065 -0.025009 0.482301
v -0.175065 -0.100037 0.482301
v -0.175065 0.100037 0.482301
v 0.025009 0.100037 0.482301
v -0.175065 0.025009 0.482301
v 0.025009 0.025009 0.482301
v -0.325120 -0.100037 0.332245
v -0.175065 -0.100037 0.332245
v -0.325120 -0.127547 0.332245
v -0.025009 -0.100037 0.332245
v -0.175065 -0.127547 0.332245
v -0.075028 -0.200074 0.332245
v -0.175065 -0.200074 0.332245
v -0.300111 -0.145679 0.457292
v -0.300111 -0.181942 0.457292
v -0.325120 -0.200074 0.332245
v -0.375139 -0.181942 0.457292
v -0.375139 -0.145679 0.457292
v 0.525194 0.100037 0.332245
v 0.048964 0.075028 0.475114
v 0.048964 -0.075028 0.475114
v 0.501240 -0.075028 0.339431
v 0.501240 0.075028 0.339431
v 0.525194 -0.100037 0.332245
v -0.175065 -0.100037 0.132171
v -0.175065 0.100037 0.132171
v -0.175065 0.000002 0.132171
v -0.425157 0.150056 0.332245
v -0.425157 0.150056 0.182190
v -0.425157 0.200074 0.182190
v -0.425157 0.200074 0.332245
v -0.425157 -0.200074 0.182190
v -0.425157 -0.150056 0.182190
v -0.425157 -0.200074 0.332245
v -0.425157 -0.150056 0.332245
v 0.175065 0.025009 0.482301
v 0.175065 -0.025009 0.482301
v -0.475176 0.250093 0.382264
v -0.475176 0.100037 0.382264
v -0.325120 0.250093 0.332245
v -0.425157 0.100037 0.365591
v -0.325120 0.250093 0.132171
v -0.425157 0.100037 0.132171
v -0.425157 -0.100037 0.132171
v -0.425157 -0.100037 0.365591
v -0.425157 0.100037 0.432282
v -0.425157 -0.100037 0.432282
v -0.175065 0.000005 0.482301
v -0.175065 0.025009 0.532319
v -0.025009 0.025009 0.532319
v 0.025009 0.025009 0.507310
v -0.175065 -0.025009 0.532319
v 0.025009 -0.025009 0.507310
v -0.025009 -0.025009 0.532319
v -0.475176 -0.100037 0.382264
v -0.325120 -0.250093 0.132171
v -0.475176 -0.250093 0.382264
v -0.325120 -0.250093 0.332245
v -0.325120 0.100037 0.132171
v -0.325120 -0.100037 0.132171
vn -0.0000 0.1644 0.9864
vn -0.0000 -0.0000 -0.0000
vn -1.0000 -0.0000 -0.0000
vn -0.0000 -0.0000 1.0000
vn -0.0000 -0.1644 0.9864
vn -0.0000 -0.0000 -1.0000
vn -0.1301 -0.0000 0.9915
vn -0.0000 -1.0000 -0.0000
vn 1.0000 -0.0000 -0.0000
vn 0.1361 -0.0000 -0.9907
vn -0.0000 1.0000 -0.0000
vn 0.1240 -0.9923 -0.0006
vn 0.1240 -0.9923 -0.0003
vn 0.4472 0.8944 -0.0000
vn 0.1240 0.9923 -0.0003
vn 0.4472 -0.8944 -0.0000
vn 0.8321 0.5547 -0.0000
vn -0.0000 0.9897 0.1435
vn -0.0000 -0.9897 0.1435
vn -0.9285 -0.0000 -0.3714
vn 0.7071 -0.0000 0.7071
vn 0.8321 -0.5547 -0.0000
vn 0.2873 -0.0000 0.9578
vn 0.2874 -0.0000 0.9578
vn 0.2425 -0.0000 -0.9701
vn 0.4012 -0.0000 0.9160
vn 0.2176 0.6529 0.7255
vn 0.2176 -0.6529 0.7255
vn -0.0569 -0.0000 0.9984
vn 0.3162 -0.0000 0.9487
vn 0.3163 -0.0000 0.9487
vn 0.8944 0.4472 -0.0000
vn -0.1961 -0.0000 0.9806
vn 0.4472 -0.0000 0.8944
vn 0.8944 -0.4472 -0.0000
vt 0.538719 0.152886
vt 0.286766 0.374245
vt 0.509843 0.173073
vt 0.533469 0.152886
vt 0.281516 0.374245
vt 0.293349 0.374245
vt 0.538719 0.161757
vt 0.518594 0.174531
vt 0.538719 0.174531
vt 0.536094 0.174531
vt 0.526469 0.163531
vt 0.520344 0.170448
vt 0.280730 0.375995
vt 0.282391 0.375995
vt 0.538719 0.163531
vt 0.286766 0.375995
vt 0.534344 0.174823
vt 0.529969 0.163531
vt 0.520344 0.166948
vt 0.278016 0.375995
vt 0.534779 0.174823
vt 0.518594 0.169573
vt 0.545719 0.169573
vt 0.536094 0.151197
vt 0.522094 0.171323
vt 0.545719 0.171323
vt 0.522094 0.151197
vt 0.523844 0.169573
vt 0.508968 0.169573
vt 0.530844 0.151197
vt 0.523844 0.178323
vt 0.523844 0.151197
vt 0.508968 0.178323
vt 0.522094 0.176573
vt 0.545719 0.176573
vt 0.532594 0.151197
vt 0.520344 0.176573
vt 0.534344 0.151197
vt 0.508968 0.176573
vt 0.520344 0.171323
vt 0.520344 0.151197
vt 0.508968 0.171323
vt 0.518594 0.178323
vt 0.518594 0.151197
vt 0.545719 0.178323
vt 0.522094 0.170448
vt 0.526469 0.174823
vt 0.280641 0.375995
vt 0.523844 0.168698
vt 0.530866 0.174823
vt 0.528219 0.174823
vt 0.522969 0.173948
vt 0.525387 0.174823
vt 0.531719 0.174823
vt 0.523844 0.173948
vt 0.530844 0.174823
vt 0.522969 0.174823
vt 0.522094 0.172198
vt 0.524719 0.174823
vt 0.527344 0.174823
vt 0.530844 0.169573
vt 0.545719 0.169573
vt 0.523844 0.151197
vt 0.534344 0.171323
vt 0.545719 0.171323
vt 0.534344 0.151197
vt 0.536094 0.169573
vt 0.508968 0.169573
vt 0.518594 0.151197
vt 0.536094 0.178323
vt 0.508968 0.178323
vt 0.536094 0.151197
vt 0.534344 0.176573
vt 0.520344 0.151197
vt 0.545719 0.176573
vt 0.532594 0.176573
vt 0.522094 0.151197
vt 0.508968 0.176573
vt 0.532594 0.171323
vt 0.508968 0.171323
vt 0.532594 0.151197
vt 0.530844 0.178323
vt 0.545719 0.178323
vt 0.530844 0.151197
vt 0.530844 0.173948
vt 0.523844 0.174823
vt 0.531719 0.174823
vt 0.532594 0.170448
vt 0.528219 0.174823
vt 0.270141 0.375995
vt 0.530844 0.168698
vt 0.523822 0.174823
vt 0.526469 0.174823
vt 0.534344 0.166948
vt 0.524719 0.163531
vt 0.272766 0.375995
vt 0.519909 0.174823
vt 0.531719 0.173948
vt 0.522969 0.174823
vt 0.529300 0.174823
vt 0.534344 0.170448
vt 0.528219 0.163531
vt 0.270052 0.375995
vt 0.268391 0.375995
vt 0.532594 0.172198
vt 0.529969 0.174823
vt 0.527344 0.174823
vt 0.515969 0.163531
vt 0.264015 0.375995
vt 0.520344 0.174823
vt 0.515969 0.161757
vt 0.536094 0.174531
vt 0.515969 0.174531
vt 0.518594 0.174531
vt 0.521219 0.152886
vt 0.269266 0.374245
vt 0.257432 0.374245
vt 0.515969 0.152886
vt 0.264015 0.374245
vt 0.544844 0.173073
vt 0.532594 0.173939
vt 0.532594 0.174137
vt 0.522977 0.171323
vt 0.523662 0.171325
vt 0.532594 0.170448
vt 0.526469 0.171323
vt 0.280641 0.372495
vt 0.522094 0.173939
vt 0.531710 0.171323
vt 0.522094 0.174137
vt 0.531025 0.171325
vt 0.530844 0.170448
vt 0.526469 0.171323
vt 0.278891 0.372018
vt 0.523844 0.170448
vt 0.528219 0.171323
vt 0.271891 0.372018
vt 0.523844 0.163448
vt 0.521219 0.171323
vt 0.522094 0.170448
vt 0.528219 0.171323
vt 0.270141 0.372495
vt 0.518594 0.158197
vt 0.536094 0.171323
vt 0.515969 0.171323
vt 0.518594 0.171323
vt 0.523844 0.158197
vt 0.515969 0.171323
vt 0.523844 0.171323
vt 0.520344 0.170448
vt 0.270052 0.372495
vt 0.268391 0.372495
vt 0.509843 0.163448
vt 0.269266 0.372495
vt 0.257432 0.372495
vt 0.509843 0.158197
vt 0.264015 0.372495
vt 0.544844 0.171323
vt 0.530844 0.158197
vt 0.530844 0.171323
vt 0.538719 0.171323
vt 0.534344 0.170448
vt 0.280730 0.372495
vt 0.282391 0.372495
vt 0.536094 0.158197
vt 0.518594 0.171323
vt 0.538719 0.171323
vt 0.536094 0.171323
vt 0.544844 0.158197
vt 0.286766 0.372495
vt 0.509843 0.171323
vt 0.544844 0.163448
vt 0.281516 0.372495
vt 0.293349 0.372495
vt 0.530844 0.163448
vt 0.533469 0.171323
vt 0.530844 0.188486
vt 0.545143 0.174912
vt 0.523844 0.174910
vt 0.545719 0.174910
vt 0.532594 0.174366
vt 0.531719 0.173073
vt 0.531034 0.173075
vt 0.532594 0.173948
vt 0.530844 0.174366
vt 0.523844 0.173073
vt 0.531719 0.173073
vt 0.531719 0.174366
vt 0.531719 0.173948
vt 0.522969 0.173073
vt 0.529300 0.173073
vt 0.522094 0.174366
vt 0.522969 0.173073
vt 0.522094 0.173948
vt 0.523654 0.173075
vt 0.523844 0.188486
vt 0.509544 0.174912
vt 0.530844 0.174910
vt 0.508968 0.174910
vt 0.522969 0.174366
vt 0.522969 0.173948
vt 0.525387 0.173073
vt 0.531719 0.173073
vt 0.523844 0.174366
vt 0.530844 0.173073
vt 0.522969 0.173073
vt 0.529969 0.173073
vt 0.532594 0.172198
vt 0.527344 0.173073
vt 0.523844 0.173247
vt 0.523844 0.188277
vt 0.545143 0.173249
vt 0.530844 0.173247
vt 0.530844 0.188277
vt 0.509544 0.173249
vt 0.524719 0.173073
vt 0.522094 0.172198
vt 0.527344 0.173073
vt 0.270928 0.359369
vt 0.264015 0.378313
vt 0.522881 0.180297
vt 0.531806 0.182578
vt 0.270928 0.364619
vt 0.269266 0.378313
vt 0.279853 0.380025
vt 0.271891 0.359369
vt 0.523844 0.158197
vt 0.530844 0.182578
vt 0.538719 0.176573
vt 0.523844 0.168698
vt 0.271891 0.369870
vt 0.276266 0.377745
vt 0.530866 0.176573
vt 0.528219 0.176573
vt 0.523844 0.163448
vt 0.281516 0.377745
vt 0.533469 0.176573
vt 0.268391 0.368119
vt 0.278016 0.377745
vt 0.534779 0.176573
vt 0.268391 0.364619
vt 0.281516 0.376668
vt 0.281516 0.377745
vt 0.282391 0.380025
vt 0.288516 0.381089
vt 0.269025 0.357619
vt 0.520978 0.185009
vt 0.286766 0.376668
vt 0.286766 0.377745
vt 0.520344 0.180297
vt 0.534344 0.182578
vt 0.534344 0.176573
vt 0.285891 0.381089
vt 0.269025 0.360244
vt 0.281756 0.386213
vt 0.270294 0.357619
vt 0.262265 0.382733
vt 0.522247 0.185009
vt 0.270294 0.360244
vt 0.264890 0.382733
vt 0.280488 0.386213
vt 0.276266 0.371620
vt 0.274516 0.373426
vt 0.526469 0.181823
vt 0.528219 0.181823
vt 0.278891 0.371620
vt 0.271891 0.373426
vt 0.528219 0.181823
vt 0.276266 0.364619
vt 0.528219 0.165969
vt 0.528219 0.181823
vt 0.521219 0.181823
vt 0.278891 0.364619
vt 0.530844 0.165969
vt 0.521219 0.181823
vt 0.271891 0.364619
vt 0.281516 0.382995
vt 0.523844 0.165969
vt 0.533469 0.181823
vt 0.271891 0.371620
vt 0.274516 0.382995
vt 0.278891 0.373426
vt 0.274516 0.364619
vt 0.526469 0.165969
vt 0.533469 0.181823
vt 0.526469 0.181823
vt 0.274516 0.371620
vt 0.276266 0.373426
vt 0.526469 0.181823
vt 0.528219 0.181823
vt 0.278891 0.359369
vt 0.523844 0.182578
vt 0.515969 0.176573
vt 0.278891 0.364619
vt 0.521219 0.176573
vt 0.279853 0.359369
vt 0.286766 0.378313
vt 0.531806 0.180297
vt 0.522881 0.182578
vt 0.278891 0.369870
vt 0.523822 0.176573
vt 0.526469 0.176573
vt 0.279853 0.364619
vt 0.270928 0.380025
vt 0.281516 0.378313
vt 0.282391 0.368119
vt 0.272766 0.377745
vt 0.519909 0.176573
vt 0.282391 0.364619
vt 0.268391 0.380025
vt 0.269266 0.377745
vt 0.269266 0.376668
vt 0.270294 0.386213
vt 0.285891 0.382733
vt 0.280488 0.360244
vt 0.269025 0.386213
vt 0.264890 0.381089
vt 0.281756 0.360244
vt 0.264015 0.377745
vt 0.264015 0.376668
vt 0.534344 0.180297
vt 0.520344 0.182578
vt 0.520344 0.176573
vt 0.262265 0.381089
vt 0.281756 0.357619
vt 0.533710 0.185009
vt 0.288516 0.382733
vt 0.280488 0.357619
vt 0.532441 0.185009
vt 0.257015 0.377745
vt 0.278891 0.355156
vt 0.530844 0.176573
vt 0.508968 0.176573
vt 0.278016 0.372551
vt 0.276549 0.175631
vt 0.274719 0.171966
vt 0.272766 0.372551
vt 0.278139 0.175631
vt 0.279969 0.171966
vt 0.272766 0.356031
vt 0.274719 0.156418
vt 0.293151 0.168734
vt 0.278016 0.356031
vt 0.279969 0.156418
vt 0.261537 0.168734
vt 0.271891 0.355156
vt 0.523844 0.176573
vt 0.545719 0.176573
vt 0.271891 0.364802
vt 0.523844 0.163448
vt 0.521219 0.169573
vt 0.278891 0.364802
vt 0.530844 0.163448
vt 0.533469 0.169573
vt 0.275391 0.364802
vt 0.527344 0.163448
vt 0.542219 0.176573
vt 0.522094 0.176573
vt 0.532594 0.154697
vt 0.542219 0.171323
vt 0.522094 0.154697
vt 0.522094 0.171323
vt 0.520344 0.154697
vt 0.520344 0.171323
vt 0.512468 0.171323
vt 0.520344 0.176573
vt 0.534344 0.154697
vt 0.512468 0.176573
vt 0.534344 0.171323
vt 0.542219 0.171323
vt 0.534344 0.154697
vt 0.532594 0.171323
vt 0.512468 0.171323
vt 0.532594 0.154697
vt 0.534344 0.176573
vt 0.520344 0.154697
vt 0.542219 0.176573
vt 0.532594 0.176573
vt 0.522094 0.154697
vt 0.512468 0.176573
vt 0.278219 0.168877
vt 0.271810 0.175996
vt 0.276469 0.176385
vt 0.276469 0.168877
vt 0.282878 0.175996
vt 0.278219 0.176385
vt 0.518594 0.152947
vt 0.536094 0.188112
vt 0.543969 0.178323
vt 0.523844 0.152947
vt 0.530844 0.188112
vt 0.510718 0.178323
vt 0.536094 0.182578
vt 0.538719 0.176573
vt 0.536094 0.176573
vt 0.530844 0.186267
vt 0.512468 0.177739
vt 0.523844 0.177739
vt 0.542219 0.177739
vt 0.538719 0.169573
vt 0.536094 0.158197
vt 0.536094 0.169573
vt 0.512468 0.169573
vt 0.523844 0.169573
vt 0.530844 0.154697
vt 0.530844 0.169573
vt 0.542219 0.169573
vt 0.523844 0.154697
vt 0.530844 0.177739
vt 0.542219 0.177739
vt 0.523844 0.186267
vt 0.512468 0.177739
vt 0.523844 0.180073
vt 0.523844 0.157046
vt 0.542219 0.180073
vt 0.530844 0.180073
vt 0.530844 0.157046
vt 0.512468 0.180073
vt 0.527344 0.165969
vt 0.527344 0.181823
vt 0.533469 0.183573
vt 0.526469 0.183573
vt 0.526469 0.163448
vt 0.528219 0.183573
vt 0.528219 0.176616
vt 0.526469 0.168698
vt 0.526469 0.182698
vt 0.528219 0.174660
vt 0.528219 0.182698
vt 0.528219 0.183573
vt 0.528219 0.163448
vt 0.521219 0.183573
vt 0.526469 0.174660
vt 0.526469 0.182698
vt 0.528219 0.182698
vt 0.526469 0.176616
vt 0.528219 0.168698
vt 0.526469 0.183573
vt 0.543969 0.178323
vt 0.523844 0.188112
vt 0.530844 0.152947
vt 0.515969 0.169573
vt 0.518594 0.158197
vt 0.518594 0.169573
vt 0.510718 0.178323
vt 0.518594 0.188112
vt 0.536094 0.152947
vt 0.515969 0.176573
vt 0.518594 0.182578
vt 0.518594 0.176573
vt 0.530844 0.158197
vt 0.530844 0.169573
vt 0.538719 0.169573
vt 0.523844 0.158197
vt 0.515969 0.169573
vt 0.523844 0.169573
s 0
f 3/7/1 2/4/1 1/1/1
f 2/4/1 3/7/1 4/11/1
f 4/11/1 3/7/1 5/15/1
f 4/11/2 5/15/2 6/18/2
f 9/28/3 8/25/3 7/22/3
f 8/25/3 9/28/3 10/31/3
f 8/25/3 10/31/3 11/34/3
f 11/34/3 10/31/3 12/37/3
f 13/40/3 7/22/3 8/25/3
f 7/22/3 13/40/3 14/43/3
f 14/43/3 13/40/3 12/37/3
f 14/43/3 12/37/3 10/31/3
f 6/19/4 15/46/4 4/12/4
f 15/46/4 6/19/4 16/49/4
f 15/46/4 16/49/4 17/52/4
f 17/52/4 16/49/4 18/55/4
f 17/52/4 19/58/4 15/46/4
f 22/67/3 21/64/3 20/61/3
f 21/64/3 22/67/3 23/70/3
f 21/64/3 23/70/3 24/73/3
f 24/73/3 23/70/3 25/76/3
f 26/79/3 20/61/3 21/64/3
f 20/61/3 26/79/3 27/82/3
f 27/82/3 26/79/3 25/76/3
f 27/82/3 25/76/3 23/70/3
f 30/91/4 29/88/4 28/85/4
f 29/88/4 30/91/4 31/94/4
f 28/85/4 29/88/4 32/98/4
f 29/88/4 31/94/4 33/101/4
f 34/105/4 32/98/4 29/88/4
f 36/111/5 31/95/5 35/108/5
f 31/95/5 36/111/5 33/102/5
f 33/102/5 36/111/5 37/115/5
f 37/115/5 36/111/5 38/118/5
f 41/128/6 40/125/6 39/121/6
f 40/125/6 41/128/6 42/132/6
f 42/132/6 41/128/6 43/135/6
f 43/135/6 41/128/6 44/138/6
f 44/138/6 41/128/6 45/140/6
f 46/143/6 44/138/6 45/140/6
f 44/138/6 46/143/6 47/147/6
f 46/143/6 45/140/6 48/150/6
f 46/143/6 48/150/6 49/153/6
f 46/143/6 49/153/6 50/156/6
f 51/159/6 40/125/6 42/132/6
f 51/159/6 52/162/6 40/125/6
f 53/165/6 52/162/6 51/159/6
f 54/169/6 52/162/6 53/165/6
f 52/162/6 54/169/6 55/172/6
f 51/159/6 42/132/6 56/175/6
f 59/185/7 58/181/7 57/177/7
f 58/181/7 59/185/7 60/188/7
f 63/200/7 62/196/7 61/192/7
f 62/196/7 63/200/7 64/204/7
f 41/129/8 65/207/8 45/141/8
f 65/207/8 41/129/8 58/182/8
f 34/106/8 45/141/8 65/207/8
f 45/141/8 34/106/8 29/89/8
f 67/213/9 57/179/9 66/210/9
f 57/179/9 67/213/9 62/198/9
f 67/214/10 41/130/10 39/122/10
f 41/130/10 67/214/10 66/211/10
f 19/59/11 68/216/11 15/47/11
f 39/123/11 15/47/11 68/216/11
f 15/47/11 39/123/11 40/126/11
f 39/123/11 68/216/11 61/193/11
f 66/212/12 58/183/12 41/131/12
f 58/183/13 66/212/13 57/178/13
f 63/201/4 61/194/4 68/217/4
f 19/60/14 63/202/14 68/218/14
f 63/202/14 19/60/14 17/53/14
f 17/54/9 64/205/9 63/203/9
f 64/205/9 17/54/9 18/56/9
f 61/195/15 67/215/15 39/124/15
f 67/215/15 61/195/15 62/197/15
f 58/184/4 60/189/4 65/208/4
f 59/186/9 32/99/9 60/190/9
f 32/99/9 59/186/9 28/86/9
f 60/191/16 34/107/16 65/209/16
f 34/107/16 60/191/16 32/100/16
f 2/5/11 54/170/11 1/2/11
f 54/170/11 2/5/11 55/173/11
f 2/6/17 52/163/17 55/174/17
f 52/163/17 2/6/17 4/13/17
f 53/166/3 1/3/3 54/171/3
f 1/3/3 53/166/3 3/8/3
f 71/226/4 70/223/4 69/219/4
f 70/223/4 71/226/4 72/231/4
f 72/230/4 71/227/4 73/235/4
f 74/238/4 70/223/4 72/231/4
f 70/223/4 74/238/4 75/241/4
f 78/253/18 77/248/18 76/245/18
f 77/248/18 78/253/18 75/242/18
f 75/243/11 5/16/11 77/249/11
f 5/16/11 75/243/11 6/20/11
f 6/20/11 75/243/11 74/239/11
f 79/256/4 78/254/4 76/246/4
f 78/254/4 79/256/4 80/259/4
f 69/220/19 80/260/19 79/257/19
f 80/260/19 69/220/19 70/224/19
f 79/258/20 77/250/20 69/221/20
f 77/250/20 79/258/20 76/247/20
f 78/255/21 70/225/21 75/244/21
f 70/225/21 78/255/21 80/261/21
f 83/269/4 82/266/4 81/262/4
f 82/266/4 83/269/4 84/273/4
f 87/283/4 86/280/4 85/276/4
f 86/280/4 87/283/4 88/287/4
f 91/296/4 90/294/4 89/291/4
f 90/294/4 91/296/4 92/300/4
f 92/300/4 91/296/4 93/303/4
f 92/300/4 93/303/4 94/306/4
f 94/306/4 93/303/4 95/309/4
f 96/313/21 95/310/21 93/304/21
f 95/310/21 96/313/21 97/316/21
f 31/96/8 98/319/8 35/109/8
f 98/319/8 31/96/8 95/311/8
f 95/311/8 31/96/8 94/307/8
f 98/320/19 97/317/19 99/324/19
f 97/317/19 98/320/19 95/312/19
f 96/314/18 91/297/18 100/327/18
f 91/297/18 96/314/18 93/305/18
f 99/325/4 96/315/4 100/328/4
f 96/315/4 99/325/4 97/318/4
f 99/326/20 91/298/20 98/321/20
f 91/298/20 99/326/20 100/329/20
f 49/154/8 38/119/8 50/157/8
f 38/119/8 49/154/8 37/116/8
f 48/151/22 37/117/22 49/155/22
f 37/117/22 48/151/22 33/103/22
f 38/120/3 46/144/3 50/158/3
f 46/144/3 38/120/3 36/112/3
f 86/281/11 73/236/11 85/277/11
f 73/236/11 86/281/11 72/232/11
f 72/232/11 86/281/11 101/330/11
f 86/282/23 102/334/23 101/331/23
f 102/334/23 86/282/23 88/288/23
f 102/334/23 88/288/23 103/337/23
f 103/337/23 88/288/23 81/263/23
f 103/337/23 81/263/23 82/267/23
f 103/337/23 82/267/23 104/340/23
f 105/343/23 101/331/23 102/334/23
f 101/331/24 105/343/24 106/346/24
f 106/346/23 105/343/23 104/340/23
f 106/346/23 104/340/23 82/267/23
f 92/302/8 84/275/8 90/295/8
f 84/275/8 92/302/8 82/268/8
f 82/268/8 92/302/8 106/348/8
f 4/14/9 40/127/9 52/164/9
f 40/127/9 4/14/9 15/48/9
f 29/90/9 48/152/9 45/142/9
f 48/152/9 29/90/9 33/104/9
f 43/136/8 44/139/8 107/351/8
f 42/133/11 108/354/11 56/176/11
f 43/137/25 108/352/25 42/134/25
f 108/352/25 43/137/25 109/355/25
f 109/355/25 43/137/25 107/349/25
f 110/357/11 8/26/11 11/35/11
f 8/26/11 110/357/11 111/360/11
f 8/27/4 112/363/4 13/41/4
f 112/363/4 8/27/4 111/361/4
f 110/358/3 112/364/3 111/362/3
f 112/364/3 110/358/3 113/366/3
f 110/359/6 12/38/6 113/367/6
f 12/38/6 110/359/6 11/36/6
f 112/365/8 12/39/8 13/42/8
f 12/39/8 112/365/8 113/368/8
f 116/375/3 115/372/3 114/369/3
f 115/372/3 116/375/3 117/378/3
f 116/376/6 25/77/6 117/379/6
f 25/77/6 116/376/6 24/74/6
f 116/377/11 21/65/11 24/75/11
f 21/65/11 116/377/11 114/370/11
f 115/373/8 25/78/8 26/80/8
f 25/78/8 115/373/8 117/380/8
f 21/66/4 115/374/4 26/81/4
f 115/374/4 21/66/4 114/371/4
f 118/381/26 104/341/26 105/344/26
f 104/341/26 118/381/26 119/384/26
f 118/382/27 105/345/27 102/335/27
f 104/342/28 119/385/28 103/338/28
f 103/339/29 118/383/29 102/336/29
f 118/383/29 103/339/29 119/386/29
f 10/32/4 120/387/4 14/44/4
f 120/387/4 10/32/4 121/390/4
f 121/391/30 122/393/30 120/388/30
f 122/393/30 121/391/30 77/251/30
f 77/251/30 121/391/30 69/222/30
f 69/222/30 121/391/30 71/228/30
f 71/228/31 121/391/30 123/396/30
f 14/45/11 124/400/11 7/23/11
f 124/400/11 14/45/11 120/389/11
f 124/400/11 120/389/11 122/394/11
f 124/400/11 122/394/11 53/167/11
f 53/167/11 122/394/11 3/9/11
f 122/395/9 5/17/9 3/10/9
f 5/17/9 122/395/9 77/252/9
f 74/240/32 16/50/32 6/21/32
f 16/50/32 74/240/32 72/233/32
f 125/403/8 10/33/8 9/29/8
f 10/33/8 125/403/8 121/392/8
f 121/392/8 125/403/8 123/397/8
f 127/409/3 125/404/3 126/406/3
f 125/404/3 127/409/3 123/398/3
f 123/398/3 127/409/3 128/413/3
f 128/413/3 127/409/3 129/416/3
f 129/417/33 85/278/33 128/414/33
f 85/278/33 129/417/33 87/284/33
f 87/284/33 129/417/33 130/419/33
f 130/419/33 129/417/33 83/270/33
f 83/270/33 129/417/33 84/274/33
f 85/279/11 123/399/11 128/415/11
f 123/399/11 85/279/11 71/229/11
f 71/229/11 85/279/11 73/237/11
f 131/421/11 88/289/11 87/285/11
f 88/289/11 131/421/11 132/424/11
f 88/289/11 132/424/11 133/427/11
f 130/420/3 131/422/3 87/286/3
f 131/422/3 130/420/3 83/271/3
f 131/422/3 83/271/3 134/430/3
f 132/425/34 135/433/34 133/428/34
f 135/433/34 132/425/34 136/436/34
f 133/429/9 81/264/9 88/290/9
f 81/264/9 133/429/9 135/434/9
f 131/423/4 136/437/4 132/426/4
f 136/437/4 131/423/4 134/431/4
f 81/265/8 134/432/8 83/272/8
f 134/432/8 81/265/8 136/438/8
f 136/438/8 81/265/8 135/435/8
f 27/83/11 126/407/11 20/62/11
f 126/407/11 27/83/11 137/439/11
f 126/407/11 137/439/11 127/410/11
f 138/442/8 23/71/8 22/68/8
f 23/71/8 138/442/8 139/445/8
f 139/445/8 138/442/8 140/448/8
f 140/448/8 138/442/8 46/145/8
f 140/448/8 46/145/8 36/113/8
f 139/446/30 127/411/30 137/440/30
f 127/411/30 139/446/30 89/292/30
f 89/292/30 139/446/30 91/299/30
f 91/299/30 139/446/30 98/322/30
f 98/322/30 139/446/30 140/449/30
f 23/72/4 137/441/4 27/84/4
f 137/441/4 23/72/4 139/447/4
f 89/293/8 129/418/8 127/412/8
f 129/418/8 89/293/8 84/275/8
f 84/275/8 89/293/8 90/295/8
f 92/301/35 31/97/35 30/92/35
f 31/97/35 92/301/35 94/308/35
f 35/110/9 140/450/9 36/114/9
f 140/450/9 35/110/9 98/323/9
f 101/332/9 57/179/9 62/198/9
f 57/179/9 101/332/9 106/347/9
f 101/333/11 16/51/11 72/234/11
f 16/51/11 101/333/11 18/57/11
f 62/199/11 18/57/11 101/333/11
f 18/57/11 62/199/11 64/206/11
f 57/180/8 28/87/8 59/187/8
f 106/348/8 28/87/8 57/180/8
f 106/348/8 30/93/8 28/87/8
f 30/93/8 106/348/8 92/302/8
f 109/356/6 141/451/6 108/353/6
f 126/408/6 141/451/6 109/356/6
f 125/405/6 141/451/6 126/408/6
f 9/30/6 141/451/6 125/405/6
f 7/24/6 141/451/6 9/30/6
f 141/451/6 7/24/6 124/401/6
f 126/408/6 109/356/6 142/454/6
f 142/454/6 109/356/6 107/350/6
f 126/408/6 142/454/6 138/443/6
f 22/69/6 126/408/6 138/443/6
f 126/408/6 22/69/6 20/63/6
f 107/351/8 47/148/8 142/455/8
f 47/148/8 107/351/8 44/139/8
f 47/149/9 138/444/9 142/456/9
f 138/444/9 47/149/9 46/146/9
f 124/402/9 51/160/9 141/452/9
f 51/160/9 124/402/9 53/168/9
f 51/161/11 108/354/11 141/453/11
f 108/354/11 51/161/11 56/176/11
