# Blender 3.3.1
# www.blender.org
mtllib trap_spike.mtl
o trap-spikes
v -0.063750 -0.318750 -0.000000
v -0.318750 -0.318750 -0.000000
v -0.082875 -0.299625 0.085000
v -0.299625 -0.299625 0.085000
v -0.318750 -0.063750 -0.000000
v -0.299625 -0.082875 0.085000
v -0.063750 -0.063750 -0.000000
v -0.082875 -0.082875 0.085000
v -0.131096 -0.251404 -0.000000
v -0.131096 -0.131096 -0.000000
v -0.131097 -0.251404 0.085000
v -0.131097 -0.131096 0.085000
v -0.251404 -0.131096 0.085000
v -0.251404 -0.131096 -0.000000
v -0.251404 -0.251404 -0.000000
v -0.251404 -0.251404 0.085000
v 0.313259 -0.317050 0.000000
v 0.058259 -0.317050 0.000000
v 0.294134 -0.297925 0.085000
v 0.077384 -0.297925 0.085000
v 0.058259 -0.062050 0.000000
v 0.077384 -0.081175 0.085000
v 0.313259 -0.062050 0.000000
v 0.294134 -0.081175 0.085000
v 0.245912 -0.249703 0.000000
v 0.245912 -0.129396 0.000000
v 0.245912 -0.249703 0.085000
v 0.245912 -0.129396 0.085000
v 0.125605 -0.129396 0.085000
v 0.125605 -0.129396 0.000000
v 0.125605 -0.249703 0.000000
v 0.125605 -0.249703 0.085000
v -0.058259 0.063750 -0.000000
v -0.313259 0.063750 -0.000000
v -0.077384 0.082875 0.085000
v -0.294134 0.082875 0.085000
v -0.313259 0.318750 -0.000000
v -0.294134 0.299625 0.085000
v -0.058259 0.318750 -0.000000
v -0.077384 0.299625 0.085000
v -0.125605 0.131096 -0.000000
v -0.125605 0.251404 -0.000000
v -0.125605 0.131096 0.085000
v -0.125605 0.251404 0.085000
v -0.245912 0.251404 0.085000
v -0.245912 0.251404 -0.000000
v -0.245912 0.131096 -0.000000
v -0.245912 0.131096 0.085000
v 0.318750 0.065450 0.000000
v 0.063750 0.065450 0.000000
v 0.299625 0.084575 0.085000
v 0.082875 0.084575 0.085000
v 0.063750 0.320450 0.000000
v 0.082875 0.301325 0.085000
v 0.318750 0.320450 0.000000
v 0.299625 0.301325 0.085000
v 0.251404 0.132797 0.000000
v 0.251404 0.253104 0.000000
v 0.251404 0.132797 0.085000
v 0.251404 0.253104 0.085000
v 0.131096 0.253104 0.085000
v 0.131096 0.253104 0.000000
v 0.131096 0.132797 0.000000
v 0.131096 0.132797 0.085000
v -0.172903 -0.209597 0.255000
v -0.209597 -0.209597 0.255000
v -0.209597 -0.172903 0.255000
v -0.172903 -0.172903 0.255000
v 0.251404 0.131096 0.085000
v 0.131096 0.131096 0.085000
v 0.209597 0.172903 0.255000
v 0.172903 0.172903 0.255000
v 0.131096 0.251404 0.085000
v 0.172903 0.209597 0.255000
v 0.251404 0.251404 0.085000
v 0.209597 0.209597 0.255000
v -0.167412 0.172903 0.255000
v -0.204106 0.172903 0.255000
v -0.204106 0.209597 0.255000
v -0.167412 0.209597 0.255000
v 0.245912 -0.249703 0.085000
v 0.125605 -0.249703 0.085000
v 0.204106 -0.207896 0.255000
v 0.167412 -0.207896 0.255000
v 0.245912 -0.129396 0.085000
v 0.204106 -0.171203 0.255000
v 0.125605 -0.129396 0.085000
v 0.167412 -0.171203 0.255000
vn 0.6738 -0.6738 0.3032
vn -0.6738 -0.6738 0.3032
vn 0.6738 -0.6738 0.3033
vn -0.6738 0.6738 0.3032
vn -0.6738 -0.6738 0.3033
vn 0.6738 0.6738 0.3032
vn 0.6738 0.6738 0.3033
vn -1.0000 -0.0000 -0.0000
vn -0.0000 -1.0000 -0.0000
vn 1.0000 -0.0000 -0.0000
vn -0.0000 1.0000 -0.0000
vn -0.0000 -0.0000 1.0000
vn -0.0000 -0.0000 -1.0000
vn 0.6678 -0.6679 0.3285
vn -0.6679 -0.6679 0.3285
vn 0.6679 -0.6679 0.3285
vn -0.6679 -0.6678 0.3285
vn -0.6679 0.6679 0.3285
vn 0.6678 0.6679 0.3285
vn 0.6679 0.6679 0.3285
vn 0.6679 0.6678 0.3285
vt 0.218750 0.025000
vt 0.218750 0.025000
vt 0.218750 0.225000
vt 0.218750 0.225000
vt 0.218750 0.025000
vt 0.218750 0.225000
vt 0.218750 0.025000
vt 0.218750 0.225000
vt 0.218750 0.025000
vt 0.218750 0.025000
vt 0.218750 0.225000
vt 0.468750 0.091667
vt 0.218750 0.225000
vt 0.468750 0.091667
vt 0.218750 0.225000
vt 0.468750 0.091667
vt 0.218750 0.025000
vt 0.218750 0.025000
vt 0.218750 0.225000
vt 0.468750 0.091667
vt 0.218750 0.025000
vt 0.218750 0.025000
vt 0.218750 0.225000
vt 0.218750 0.225000
vt 0.218750 0.025000
vt 0.218750 0.225000
vt 0.218750 0.025000
vt 0.218750 0.225000
vt 0.218750 0.025000
vt 0.218750 0.025000
vt 0.218750 0.225000
vt 0.218750 0.225000
vt 0.218750 0.225000
vt 0.218750 0.025000
vt 0.218750 0.025000
vt 0.218750 0.225000
vt 0.218750 0.025000
vt 0.218750 0.025000
vt 0.218750 0.225000
vt 0.218750 0.225000
vt 0.218750 0.025000
vt 0.218750 0.225000
vt 0.218750 0.025000
vt 0.218750 0.225000
vt 0.218750 0.025000
vt 0.218750 0.025000
vt 0.218750 0.225000
vt 0.468750 0.091667
vt 0.218750 0.225000
vt 0.468750 0.091667
vt 0.218750 0.225000
vt 0.468750 0.091667
vt 0.218750 0.025000
vt 0.218750 0.025000
vt 0.218750 0.225000
vt 0.468750 0.091667
vt 0.218750 0.025000
vt 0.218750 0.025000
vt 0.218750 0.225000
vt 0.218750 0.225000
vt 0.218750 0.025000
vt 0.218750 0.225000
vt 0.218750 0.025000
vt 0.218750 0.225000
vt 0.218750 0.025000
vt 0.218750 0.025000
vt 0.218750 0.225000
vt 0.218750 0.225000
vt 0.218750 0.225000
vt 0.218750 0.025000
vt 0.218750 0.025000
vt 0.218750 0.225000
vt 0.468750 0.225000
vt 0.468750 0.225000
vt 0.468750 0.225000
vt 0.468750 0.225000
vt 0.468750 0.091667
vt 0.468750 0.091667
vt 0.468750 0.225000
vt 0.468750 0.225000
vt 0.468750 0.091667
vt 0.468750 0.225000
vt 0.468750 0.091667
vt 0.468750 0.225000
vt 0.468750 0.225000
vt 0.468750 0.225000
vt 0.468750 0.225000
vt 0.468750 0.225000
vt 0.468750 0.091667
vt 0.468750 0.091667
vt 0.468750 0.225000
vt 0.468750 0.225000
vt 0.468750 0.091667
vt 0.468750 0.225000
vt 0.468750 0.091667
vt 0.468750 0.225000
s 0
usemtl colormap
f 3/3/1 2/2/2 1/1/3
f 2/2/2 3/3/1 4/4/2
f 4/4/2 5/5/4 2/2/5
f 5/5/4 4/4/2 6/6/4
f 8/8/6 1/1/1 7/7/7
f 1/1/1 8/8/6 3/3/1
f 5/5/4 8/8/6 7/7/7
f 8/8/6 5/5/4 6/6/4
f 11/11/8 10/10/8 9/9/8
f 10/10/8 11/11/8 12/13/8
f 13/15/9 10/10/9 12/13/9
f 10/10/9 13/15/9 14/17/9
f 13/15/10 15/18/10 14/17/10
f 15/18/10 13/15/10 16/19/10
f 15/18/11 11/11/11 9/9/11
f 11/11/11 15/18/11 16/19/11
f 3/3/12 11/11/12 4/4/12
f 11/11/12 3/3/12 8/8/12
f 16/19/12 4/4/12 11/11/12
f 11/11/12 8/8/12 12/13/12
f 4/4/12 16/19/12 6/6/12
f 12/13/12 8/8/12 13/15/12
f 6/6/12 16/19/12 13/15/12
f 6/6/12 13/15/12 8/8/12
f 2/2/13 15/18/13 1/1/13
f 15/18/13 2/2/13 5/5/13
f 9/9/13 1/1/13 15/18/13
f 15/18/13 5/5/13 14/17/13
f 1/1/13 9/9/13 7/7/13
f 14/17/13 5/5/13 10/10/13
f 7/7/13 9/9/13 10/10/13
f 7/7/13 10/10/13 5/5/13
f 19/23/1 18/22/2 17/21/3
f 18/22/2 19/23/1 20/24/2
f 20/24/2 21/25/4 18/22/5
f 21/25/4 20/24/2 22/26/4
f 24/28/6 17/21/1 23/27/7
f 17/21/1 24/28/6 19/23/1
f 21/25/4 24/28/6 23/27/7
f 24/28/6 21/25/4 22/26/4
f 27/31/8 26/30/8 25/29/8
f 26/30/8 27/31/8 28/32/8
f 29/33/9 26/30/9 28/32/9
f 26/30/9 29/33/9 30/34/9
f 29/33/10 31/35/10 30/34/10
f 31/35/10 29/33/10 32/36/10
f 31/35/11 27/31/11 25/29/11
f 27/31/11 31/35/11 32/36/11
f 19/23/12 27/31/12 20/24/12
f 27/31/12 19/23/12 24/28/12
f 32/36/12 20/24/12 27/31/12
f 27/31/12 24/28/12 28/32/12
f 20/24/12 32/36/12 22/26/12
f 28/32/12 24/28/12 29/33/12
f 22/26/12 32/36/12 29/33/12
f 22/26/12 29/33/12 24/28/12
f 18/22/13 31/35/13 17/21/13
f 31/35/13 18/22/13 21/25/13
f 25/29/13 17/21/13 31/35/13
f 31/35/13 21/25/13 30/34/13
f 17/21/13 25/29/13 23/27/13
f 30/34/13 21/25/13 26/30/13
f 23/27/13 25/29/13 26/30/13
f 23/27/13 26/30/13 21/25/13
f 35/39/1 34/38/2 33/37/3
f 34/38/2 35/39/1 36/40/2
f 36/40/2 37/41/4 34/38/5
f 37/41/4 36/40/2 38/42/4
f 40/44/6 33/37/1 39/43/7
f 33/37/1 40/44/6 35/39/1
f 37/41/4 40/44/6 39/43/7
f 40/44/6 37/41/4 38/42/4
f 43/47/8 42/46/8 41/45/8
f 42/46/8 43/47/8 44/49/8
f 45/51/9 42/46/9 44/49/9
f 42/46/9 45/51/9 46/53/9
f 45/51/10 47/54/10 46/53/10
f 47/54/10 45/51/10 48/55/10
f 47/54/11 43/47/11 41/45/11
f 43/47/11 47/54/11 48/55/11
f 35/39/12 43/47/12 36/40/12
f 43/47/12 35/39/12 40/44/12
f 48/55/12 36/40/12 43/47/12
f 43/47/12 40/44/12 44/49/12
f 36/40/12 48/55/12 38/42/12
f 44/49/12 40/44/12 45/51/12
f 38/42/12 48/55/12 45/51/12
f 38/42/12 45/51/12 40/44/12
f 34/38/13 47/54/13 33/37/13
f 47/54/13 34/38/13 37/41/13
f 41/45/13 33/37/13 47/54/13
f 47/54/13 37/41/13 46/53/13
f 33/37/13 41/45/13 39/43/13
f 46/53/13 37/41/13 42/46/13
f 39/43/13 41/45/13 42/46/13
f 39/43/13 42/46/13 37/41/13
f 51/59/1 50/58/2 49/57/3
f 50/58/2 51/59/1 52/60/2
f 52/60/2 53/61/4 50/58/5
f 53/61/4 52/60/2 54/62/4
f 56/64/6 49/57/1 55/63/7
f 49/57/1 56/64/6 51/59/1
f 53/61/4 56/64/6 55/63/7
f 56/64/6 53/61/4 54/62/4
f 59/67/8 58/66/8 57/65/8
f 58/66/8 59/67/8 60/68/8
f 61/69/9 58/66/9 60/68/9
f 58/66/9 61/69/9 62/70/9
f 61/69/10 63/71/10 62/70/10
f 63/71/10 61/69/10 64/72/10
f 63/71/11 59/67/11 57/65/11
f 59/67/11 63/71/11 64/72/11
f 51/59/12 59/67/12 52/60/12
f 59/67/12 51/59/12 56/64/12
f 64/72/12 52/60/12 59/67/12
f 59/67/12 56/64/12 60/68/12
f 52/60/12 64/72/12 54/62/12
f 60/68/12 56/64/12 61/69/12
f 54/62/12 64/72/12 61/69/12
f 54/62/12 61/69/12 56/64/12
f 50/58/13 63/71/13 49/57/13
f 63/71/13 50/58/13 53/61/13
f 57/65/13 49/57/13 63/71/13
f 63/71/13 53/61/13 62/70/13
f 49/57/13 57/65/13 55/63/13
f 62/70/13 53/61/13 58/66/13
f 55/63/13 57/65/13 58/66/13
f 55/63/13 58/66/13 53/61/13
f 3/3/1 2/2/2 1/1/3
f 2/2/2 3/3/1 4/4/2
f 4/4/2 5/5/4 2/2/5
f 5/5/4 4/4/2 6/6/4
f 8/8/6 1/1/1 7/7/7
f 1/1/1 8/8/6 3/3/1
f 5/5/4 8/8/6 7/7/7
f 8/8/6 5/5/4 6/6/4
f 11/11/8 10/10/8 9/9/8
f 10/10/8 11/11/8 12/13/8
f 13/15/9 10/10/9 12/13/9
f 10/10/9 13/15/9 14/17/9
f 13/15/10 15/18/10 14/17/10
f 15/18/10 13/15/10 16/19/10
f 15/18/11 11/11/11 9/9/11
f 11/11/11 15/18/11 16/19/11
f 3/3/12 11/11/12 4/4/12
f 11/11/12 3/3/12 8/8/12
f 16/19/12 4/4/12 11/11/12
f 11/11/12 8/8/12 12/13/12
f 4/4/12 16/19/12 6/6/12
f 12/13/12 8/8/12 13/15/12
f 6/6/12 16/19/12 13/15/12
f 6/6/12 13/15/12 8/8/12
f 2/2/13 15/18/13 1/1/13
f 15/18/13 2/2/13 5/5/13
f 9/9/13 1/1/13 15/18/13
f 15/18/13 5/5/13 14/17/13
f 1/1/13 9/9/13 7/7/13
f 14/17/13 5/5/13 10/10/13
f 7/7/13 9/9/13 10/10/13
f 7/7/13 10/10/13 5/5/13
f 19/23/1 18/22/2 17/21/3
f 18/22/2 19/23/1 20/24/2
f 20/24/2 21/25/4 18/22/5
f 21/25/4 20/24/2 22/26/4
f 24/28/6 17/21/1 23/27/7
f 17/21/1 24/28/6 19/23/1
f 21/25/4 24/28/6 23/27/7
f 24/28/6 21/25/4 22/26/4
f 27/31/8 26/30/8 25/29/8
f 26/30/8 27/31/8 28/32/8
f 29/33/9 26/30/9 28/32/9
f 26/30/9 29/33/9 30/34/9
f 29/33/10 31/35/10 30/34/10
f 31/35/10 29/33/10 32/36/10
f 31/35/11 27/31/11 25/29/11
f 27/31/11 31/35/11 32/36/11
f 19/23/12 27/31/12 20/24/12
f 27/31/12 19/23/12 24/28/12
f 32/36/12 20/24/12 27/31/12
f 27/31/12 24/28/12 28/32/12
f 20/24/12 32/36/12 22/26/12
f 28/32/12 24/28/12 29/33/12
f 22/26/12 32/36/12 29/33/12
f 22/26/12 29/33/12 24/28/12
f 18/22/13 31/35/13 17/21/13
f 31/35/13 18/22/13 21/25/13
f 25/29/13 17/21/13 31/35/13
f 31/35/13 21/25/13 30/34/13
f 17/21/13 25/29/13 23/27/13
f 30/34/13 21/25/13 26/30/13
f 23/27/13 25/29/13 26/30/13
f 23/27/13 26/30/13 21/25/13
f 35/39/1 34/38/2 33/37/3
f 34/38/2 35/39/1 36/40/2
f 36/40/2 37/41/4 34/38/5
f 37/41/4 36/40/2 38/42/4
f 40/44/6 33/37/1 39/43/7
f 33/37/1 40/44/6 35/39/1
f 37/41/4 40/44/6 39/43/7
f 40/44/6 37/41/4 38/42/4
f 43/47/8 42/46/8 41/45/8
f 42/46/8 43/47/8 44/49/8
f 45/51/9 42/46/9 44/49/9
f 42/46/9 45/51/9 46/53/9
f 45/51/10 47/54/10 46/53/10
f 47/54/10 45/51/10 48/55/10
f 47/54/11 43/47/11 41/45/11
f 43/47/11 47/54/11 48/55/11
f 35/39/12 43/47/12 36/40/12
f 43/47/12 35/39/12 40/44/12
f 48/55/12 36/40/12 43/47/12
f 43/47/12 40/44/12 44/49/12
f 36/40/12 48/55/12 38/42/12
f 44/49/12 40/44/12 45/51/12
f 38/42/12 48/55/12 45/51/12
f 38/42/12 45/51/12 40/44/12
f 34/38/13 47/54/13 33/37/13
f 47/54/13 34/38/13 37/41/13
f 41/45/13 33/37/13 47/54/13
f 47/54/13 37/41/13 46/53/13
f 33/37/13 41/45/13 39/43/13
f 46/53/13 37/41/13 42/46/13
f 39/43/13 41/45/13 42/46/13
f 39/43/13 42/46/13 37/41/13
f 51/59/1 50/58/2 49/57/3
f 50/58/2 51/59/1 52/60/2
f 52/60/2 53/61/4 50/58/5
f 53/61/4 52/60/2 54/62/4
f 56/64/6 49/57/1 55/63/7
f 49/57/1 56/64/6 51/59/1
f 53/61/4 56/64/6 55/63/7
f 56/64/6 53/61/4 54/62/4
f 59/67/8 58/66/8 57/65/8
f 58/66/8 59/67/8 60/68/8
f 61/69/9 58/66/9 60/68/9
f 58/66/9 61/69/9 62/70/9
f 61/69/10 63/71/10 62/70/10
f 63/71/10 61/69/10 64/72/10
f 63/71/11 59/67/11 57/65/11
f 59/67/11 63/71/11 64/72/11
f 51/59/12 59/67/12 52/60/12
f 59/67/12 51/59/12 56/64/12
f 64/72/12 52/60/12 59/67/12
f 59/67/12 56/64/12 60/68/12
f 52/60/12 64/72/12 54/62/12
f 60/68/12 56/64/12 61/69/12
f 54/62/12 64/72/12 61/69/12
f 54/62/12 61/69/12 56/64/12
f 50/58/13 63/71/13 49/57/13
f 63/71/13 50/58/13 53/61/13
f 57/65/13 49/57/13 63/71/13
f 63/71/13 53/61/13 62/70/13
f 49/57/13 57/65/13 55/63/13
f 62/70/13 53/61/13 58/66/13
f 55/63/13 57/65/13 58/66/13
f 55/63/13 58/66/13 53/61/13
f 65/73/14 16/20/15 11/12/16
f 16/20/15 65/73/16 66/74/15
f 66/74/17 13/16/18 16/20/15
f 13/16/18 66/74/15 67/75/18
f 13/16/18 68/76/19 12/14/20
f 68/76/20 13/16/18 67/75/18
f 68/76/21 11/12/16 12/14/20
f 11/12/16 68/76/20 65/73/16
f 68/76/12 66/74/12 65/73/12
f 66/74/12 68/76/12 67/75/12
f 71/79/14 70/78/15 69/77/16
f 70/78/15 71/79/16 72/80/15
f 72/80/17 73/81/18 70/78/15
f 73/81/18 72/80/15 74/82/18
f 76/84/21 69/77/16 75/83/20
f 69/77/16 76/84/20 71/79/16
f 73/81/18 76/84/19 75/83/20
f 76/84/20 73/81/18 74/82/18
f 76/84/12 72/80/12 71/79/12
f 72/80/12 76/84/12 74/82/12
f 77/85/14 48/56/15 43/48/16
f 48/56/15 77/85/16 78/86/15
f 78/86/17 45/52/18 48/56/15
f 45/52/18 78/86/15 79/87/18
f 80/88/12 78/86/12 77/85/12
f 78/86/12 80/88/12 79/87/12
f 80/88/21 43/48/16 44/50/20
f 43/48/16 80/88/20 77/85/16
f 45/52/18 80/88/19 44/50/20
f 80/88/20 45/52/18 79/87/18
f 83/91/14 82/90/15 81/89/16
f 82/90/15 83/91/16 84/92/15
f 86/94/21 81/89/16 85/93/20
f 81/89/16 86/94/20 83/91/16
f 84/92/17 87/95/18 82/90/15
f 87/95/18 84/92/15 88/96/18
f 86/94/12 84/92/12 83/91/12
f 84/92/12 86/94/12 88/96/12
f 87/95/18 86/94/19 85/93/20
f 86/94/20 87/95/18 88/96/18
