# Blender 3.3.1
# www.blender.org
mtllib trophy.mtl
o trophy
v -0.143276 -0.059347 0.353400
v -0.059347 -0.143276 0.353400
v -0.143276 -0.059347 0.477400
v -0.059347 -0.143276 0.477400
v 0.059347 0.143276 0.353400
v 0.143276 0.059347 0.353400
v -0.059347 0.143276 0.353400
v -0.143276 0.059347 0.353400
v 0.143276 -0.059347 0.353400
v 0.059347 -0.143276 0.353400
v -0.059347 0.143276 0.477400
v 0.059347 0.143276 0.477400
v -0.143276 0.059347 0.477400
v 0.143276 0.059347 0.477400
v 0.143276 -0.059347 0.477400
v 0.059347 -0.143276 0.477400
v -0.125983 0.052184 0.061492
v -0.043947 0.018204 0.078008
v -0.125983 -0.052184 0.061492
v -0.043947 -0.018204 0.078008
v 0.018204 0.043947 0.078008
v 0.043947 0.018204 0.078008
v 0.020500 0.049490 0.167400
v 0.049490 0.020500 0.167400
v 0.125983 0.052184 0.061492
v 0.125983 -0.052184 0.061492
v 0.043947 -0.018204 0.078008
v -0.018204 -0.043947 0.078008
v 0.018204 -0.043947 0.078008
v -0.052184 -0.125983 0.061492
v 0.052184 -0.125983 0.061492
v -0.049490 -0.020500 0.167400
v -0.020500 -0.049490 0.167400
v -0.171889 -0.071199 0.000000
v -0.171889 0.071199 -0.000000
v -0.049490 0.020500 0.167400
v -0.071199 0.171889 -0.000000
v -0.052184 0.125983 0.061492
v 0.020500 -0.049490 0.167400
v 0.071199 0.171889 -0.000000
v 0.171889 0.071199 -0.000000
v 0.052184 0.125983 0.061492
v 0.171889 -0.071199 0.000000
v 0.071199 -0.171889 0.000000
v -0.071199 -0.171889 0.000000
v 0.049490 -0.020500 0.167400
v 0.093513 0.225760 0.477400
v 0.225760 0.093513 0.477400
v -0.093513 0.225760 0.477400
v -0.225760 0.093513 0.477400
v 0.225760 -0.093513 0.477400
v 0.093513 -0.225760 0.477400
v -0.225760 -0.093513 0.477400
v -0.093513 -0.225760 0.477400
v -0.018204 0.043947 0.078008
v -0.020500 0.049490 0.167400
v -0.093513 0.225760 0.418500
v 0.093513 0.225760 0.418500
v -0.225760 0.093513 0.418500
v -0.093513 -0.225760 0.418500
v -0.225760 -0.093513 0.418500
v 0.225760 -0.093513 0.418500
v 0.093513 -0.225760 0.418500
v 0.225760 0.093513 0.418500
v -0.065394 0.157874 0.362700
v -0.055585 0.134193 0.195300
v 0.065394 0.157874 0.362700
v 0.055585 0.134193 0.195300
v 0.093513 0.225760 0.418500
v -0.093513 0.225760 0.418500
v -0.225760 0.093513 0.418500
v -0.157874 0.065394 0.362700
v 0.055585 -0.134193 0.195300
v -0.055585 -0.134193 0.195300
v -0.134193 -0.055585 0.195300
v -0.134193 0.055585 0.195300
v -0.157874 -0.065394 0.362700
v -0.065394 -0.157874 0.362700
v 0.065394 -0.157874 0.362700
v -0.225760 -0.093513 0.418500
v -0.093513 -0.225760 0.418500
v 0.093513 -0.225760 0.418500
v 0.134193 0.055585 0.195300
v 0.134193 -0.055585 0.195300
v 0.225760 0.093513 0.418500
v 0.157874 0.065394 0.362700
v 0.225760 -0.093513 0.418500
v 0.157874 -0.065394 0.362700
v -0.029450 -0.143276 0.359600
v -0.029450 -0.225760 0.359600
v 0.029450 -0.143276 0.359600
v 0.029450 -0.225760 0.359600
v 0.029450 -0.164029 0.267212
v 0.029450 -0.196471 0.288889
v -0.029450 -0.164029 0.267212
v -0.029450 -0.196471 0.288889
v 0.029450 -0.143276 0.418500
v 0.029450 -0.284660 0.418500
v -0.029450 -0.143276 0.418500
v -0.029450 -0.284660 0.418500
v 0.029450 -0.186569 0.212795
v -0.029450 -0.186569 0.212795
v 0.029450 -0.238119 0.247241
v -0.029450 -0.238119 0.247241
v 0.029450 -0.284660 0.359600
v 0.029450 -0.218148 0.321332
v 0.029450 -0.272565 0.298792
v 0.029450 -0.125760 0.259600
v 0.029450 -0.125760 0.200700
v -0.029450 -0.272565 0.298792
v -0.029450 -0.284660 0.359600
v -0.029450 -0.125760 0.200700
v -0.029450 -0.125760 0.259600
v -0.029450 -0.218148 0.321332
v 0.029450 0.238119 0.247241
v -0.029450 0.238119 0.247241
v 0.029450 0.186569 0.212795
v -0.029450 0.186569 0.212795
v 0.029450 0.284660 0.418500
v 0.029450 0.143276 0.418500
v -0.029450 0.284660 0.418500
v -0.029450 0.143276 0.418500
v 0.029450 0.225760 0.359600
v -0.029450 0.225760 0.359600
v 0.029450 0.143276 0.359600
v -0.029450 0.143276 0.359600
v 0.029450 0.125760 0.200700
v -0.029450 0.125760 0.200700
v -0.029450 0.272565 0.298792
v 0.029450 0.272565 0.298792
v -0.029450 0.284660 0.359600
v 0.029450 0.284660 0.359600
v -0.029450 0.218148 0.321332
v 0.029450 0.218148 0.321332
v -0.029450 0.196471 0.288889
v 0.029450 0.196471 0.288889
v 0.029450 0.164029 0.267212
v -0.029450 0.164029 0.267212
v -0.029450 0.125760 0.259600
v 0.029450 0.125760 0.259600
vn 0.9239 0.3827 -0.0000
vn 0.3827 0.9239 -0.0000
vn -0.0000 -0.0000 1.0000
vn -0.3827 -0.9239 -0.0000
vn 0.3827 -0.9239 -0.0000
vn 0.9239 -0.3827 -0.0000
vn -0.9239 -0.3827 -0.0000
vn -0.9239 0.3827 -0.0000
vn -0.3827 0.9239 -0.0000
vn -0.5266 -0.2182 0.8216
vn -0.1690 0.0700 0.9831
vn -0.5266 0.2182 0.8216
vn -0.5267 -0.2181 0.8216
vn -0.1690 -0.0700 0.9831
vn 0.3818 0.9218 -0.0670
vn 0.9218 0.3818 -0.0670
vn 0.3818 0.9218 -0.0669
vn 0.1690 0.0700 0.9831
vn 0.5266 -0.2182 0.8216
vn 0.5266 0.2182 0.8216
vn 0.5267 -0.2181 0.8216
vn 0.1690 -0.0700 0.9831
vn -0.2181 -0.5267 0.8216
vn 0.0700 -0.1690 0.9831
vn -0.0700 -0.1690 0.9831
vn -0.2182 -0.5266 0.8216
vn 0.2182 -0.5266 0.8216
vn -0.9218 -0.3818 -0.0670
vn -0.3818 -0.9218 -0.0669
vn -0.3818 -0.9218 -0.0670
vn -0.7186 0.2977 0.6285
vn -0.7186 -0.2977 0.6285
vn -0.5266 -0.2181 0.8216
vn -0.9218 0.3818 -0.0670
vn -0.9218 -0.3818 -0.0669
vn -0.7186 0.2976 0.6285
vn -0.2181 0.5267 0.8216
vn -0.2976 0.7186 0.6285
vn -0.2181 0.5266 0.8216
vn -0.5267 0.2181 0.8216
vn 0.3818 -0.9218 -0.0669
vn 0.3818 -0.9218 -0.0670
vn 0.2181 0.5267 0.8216
vn 0.7186 0.2976 0.6285
vn 0.2976 0.7186 0.6285
vn 0.2181 0.5266 0.8216
vn 0.5267 0.2181 0.8216
vn -0.0700 -0.1689 0.9831
vn -0.0000 -0.0000 -1.0000
vn 0.9218 -0.3818 -0.0670
vn 0.9218 -0.3818 -0.0669
vn 0.2977 -0.7186 0.6285
vn -0.2977 -0.7186 0.6285
vn -0.2181 -0.5266 0.8216
vn 0.9218 0.3818 -0.0669
vn -0.0700 0.1689 0.9831
vn -0.2182 0.5266 0.8216
vn 0.0700 0.1690 0.9831
vn 0.2182 0.5266 0.8216
vn -0.0700 0.1690 0.9831
vn 0.0700 0.1689 0.9831
vn -0.3818 0.9218 -0.0669
vn -0.3818 0.9218 -0.0670
vn 0.0700 -0.1689 0.9831
vn 0.2181 -0.5267 0.8216
vn 0.2181 -0.5266 0.8216
vn 0.7186 -0.2976 0.6285
vn 0.2976 -0.7186 0.6285
vn 0.7186 -0.2977 0.6285
vn 0.7186 0.2977 0.6285
vn 0.5266 0.2181 0.8216
vn -0.7186 -0.2976 0.6285
vn -0.2976 -0.7186 0.6285
vn 0.2977 0.7186 0.6285
vn -0.2977 0.7186 0.6285
vn -0.3827 -0.9239 -0.0002
vn 0.3827 -0.9239 0.0002
vn 0.3180 0.7678 -0.5562
vn -0.3072 0.7416 -0.5964
vn -0.3180 0.7678 -0.5562
vn -0.3071 0.7416 -0.5964
vn 0.3181 0.7678 -0.5562
vn 0.3072 0.7416 -0.5964
vn -0.2314 0.5588 -0.7964
vn 0.2314 0.5588 -0.7964
vn -0.2314 0.5587 -0.7964
vn -0.3181 0.7678 -0.5562
vn -0.5587 0.2315 -0.7964
vn -0.2315 0.5587 -0.7964
vn -0.5587 0.2314 -0.7964
vn -0.7678 0.3180 -0.5562
vn 0.3071 -0.7416 -0.5965
vn -0.1114 -0.2690 -0.9567
vn 0.1114 -0.2690 -0.9567
vn 0.3072 -0.7415 -0.5965
vn -0.3072 -0.7415 -0.5965
vn -0.7678 -0.3181 -0.5562
vn -0.7416 0.3071 -0.5964
vn -0.7416 -0.3072 -0.5964
vn -0.7416 0.3072 -0.5964
vn -0.7678 -0.3180 -0.5562
vn -0.3180 -0.7678 -0.5562
vn -0.3072 -0.7416 -0.5964
vn 0.3180 -0.7678 -0.5562
vn 0.3181 -0.7678 -0.5562
vn -0.3071 -0.7416 -0.5964
vn 0.3072 -0.7416 -0.5964
vn -0.5587 -0.2314 -0.7964
vn -0.5587 -0.2315 -0.7964
vn -0.3181 -0.7678 -0.5562
vn -0.2315 -0.5587 -0.7964
vn -0.5588 -0.2314 -0.7964
vn -0.5588 0.2314 -0.7964
vn -0.7415 -0.3072 -0.5965
vn -0.2690 -0.1114 -0.9567
vn -0.7416 -0.3071 -0.5965
vn -0.3071 -0.7416 -0.5965
vn -0.2314 -0.5587 -0.7964
vn -0.2314 -0.5588 -0.7964
vn 0.2314 -0.5588 -0.7964
vn 0.7415 -0.3072 -0.5965
vn 0.2690 0.1114 -0.9567
vn 0.7415 0.3072 -0.5965
vn 0.7416 -0.3071 -0.5965
vn 0.2690 -0.1114 -0.9567
vn 0.5588 -0.2314 -0.7964
vn 0.7678 0.3180 -0.5562
vn 0.5588 0.2314 -0.7964
vn 0.5587 -0.2314 -0.7964
vn 0.7678 -0.3180 -0.5562
vn 0.7678 0.3181 -0.5562
vn 0.7416 -0.3071 -0.5964
vn 0.7416 0.3072 -0.5964
vn 0.7416 -0.3072 -0.5964
vn 0.5587 -0.2315 -0.7964
vn 0.2315 -0.5587 -0.7964
vn -0.1114 0.2690 -0.9567
vn -0.7416 0.3071 -0.5965
vn -0.3071 0.7416 -0.5965
vn -0.7415 0.3072 -0.5965
vn -0.2690 0.1114 -0.9567
vn 0.5587 0.2315 -0.7964
vn 0.2315 0.5587 -0.7964
vn 0.5587 0.2314 -0.7964
vn 0.1114 0.2690 -0.9567
vn -0.3072 0.7415 -0.5965
vn 0.3072 0.7415 -0.5965
vn 0.7416 0.3071 -0.5965
vn 0.3071 0.7416 -0.5965
vn -0.0000 0.3827 0.9239
vn -0.0000 0.7071 0.7071
vn -0.0000 -0.7071 -0.7071
vn -0.0000 -0.3827 -0.9239
vn 1.0000 -0.0000 -0.0000
vn -0.0000 -0.9239 -0.3827
vn -0.0000 -0.9952 -0.0980
vn -1.0000 -0.0000 -0.0000
vn -0.0000 -1.0000 -0.0000
vn -0.0000 0.9239 0.3827
vn -0.0000 0.9808 0.1951
vn -0.0000 -0.1951 -0.9808
vn -0.0000 0.1951 0.9808
vn -0.0000 0.3827 -0.9239
vn -0.0000 0.7071 -0.7071
vn -0.0000 0.1951 -0.9808
vn -0.0000 0.9239 -0.3827
vn -0.0000 0.9952 -0.0980
vn -0.0000 -0.7071 0.7071
vn -0.0000 -0.9239 0.3827
vn -0.0000 -0.3827 0.9239
vn -0.0000 -0.1951 0.9808
vn -0.0000 -0.9808 0.1951
vn -0.0000 1.0000 -0.0000
vt 0.343750 0.173052
vt 0.343750 0.173052
vt 0.343750 0.225000
vt 0.343750 0.475000
vt 0.343750 0.225000
vt 0.343750 0.475000
vt 0.343750 0.173052
vt 0.343750 0.173052
vt 0.343750 0.173052
vt 0.343750 0.173052
vt 0.343750 0.173052
vt 0.343750 0.173052
vt 0.343750 0.225000
vt 0.343750 0.475000
vt 0.343750 0.225000
vt 0.343750 0.475000
vt 0.343750 0.225000
vt 0.343750 0.475000
vt 0.343750 0.225000
vt 0.343750 0.475000
vt 0.343750 0.225000
vt 0.343750 0.475000
vt 0.343750 0.225000
vt 0.343750 0.475000
vt 0.343750 0.300761
vt 0.343750 0.307680
vt 0.343750 0.300761
vt 0.343750 0.307680
vt 0.343750 0.307680
vt 0.343750 0.307680
vt 0.343750 0.345130
vt 0.343750 0.425000
vt 0.343750 0.345130
vt 0.343750 0.425000
vt 0.343750 0.300761
vt 0.343750 0.300761
vt 0.343750 0.307680
vt 0.343750 0.307680
vt 0.343750 0.307680
vt 0.343750 0.300761
vt 0.343750 0.300761
vt 0.343750 0.345130
vt 0.343750 0.425000
vt 0.343750 0.345130
vt 0.343750 0.425000
vt 0.343750 0.275000
vt 0.343750 0.275000
vt 0.343750 0.345130
vt 0.343750 0.425000
vt 0.343750 0.275000
vt 0.343750 0.300761
vt 0.343750 0.345130
vt 0.343750 0.425000
vt 0.343750 0.275000
vt 0.343750 0.275000
vt 0.343750 0.300761
vt 0.343750 0.275000
vt 0.343750 0.275000
vt 0.343750 0.275000
vt 0.343750 0.345130
vt 0.343750 0.425000
vt 0.343750 0.475000
vt 0.343750 0.475000
vt 0.343750 0.475000
vt 0.343750 0.475000
vt 0.343750 0.475000
vt 0.343750 0.475000
vt 0.343750 0.475000
vt 0.343750 0.475000
vt 0.343750 0.307680
vt 0.343750 0.345130
vt 0.343750 0.425000
vt 0.343750 0.450325
vt 0.343750 0.450325
vt 0.343750 0.450325
vt 0.343750 0.450325
vt 0.343750 0.450325
vt 0.343750 0.450325
vt 0.343750 0.450325
vt 0.343750 0.450325
vt 0.343750 0.347222
vt 0.343750 0.413889
vt 0.343750 0.347222
vt 0.343750 0.413889
vt 0.343750 0.325000
vt 0.343750 0.325000
vt 0.343750 0.325000
vt 0.343750 0.347222
vt 0.343750 0.413889
vt 0.343750 0.413889
vt 0.343750 0.413889
vt 0.343750 0.413889
vt 0.343750 0.347222
vt 0.343750 0.347222
vt 0.343750 0.347222
vt 0.343750 0.325000
vt 0.343750 0.325000
vt 0.343750 0.325000
vt 0.343750 0.413889
vt 0.343750 0.413889
vt 0.343750 0.325000
vt 0.343750 0.347222
vt 0.343750 0.325000
vt 0.343750 0.347222
vt 0.343750 0.397957
vt 0.343750 0.397957
vt 0.343750 0.397957
vt 0.343750 0.397957
vt 0.343750 0.355538
vt 0.343750 0.365491
vt 0.343750 0.355538
vt 0.343750 0.365491
vt 0.343750 0.425000
vt 0.343750 0.425000
vt 0.343750 0.425000
vt 0.343750 0.425000
vt 0.343750 0.330554
vt 0.343750 0.330554
vt 0.343750 0.346369
vt 0.343750 0.346369
vt 0.343750 0.397957
vt 0.343750 0.380386
vt 0.343750 0.370037
vt 0.343750 0.352043
vt 0.343750 0.325000
vt 0.343750 0.370037
vt 0.343750 0.397957
vt 0.343750 0.325000
vt 0.343750 0.352043
vt 0.343750 0.380386
vt 0.343750 0.346369
vt 0.343750 0.346369
vt 0.343750 0.330554
vt 0.343750 0.330554
vt 0.343750 0.425000
vt 0.343750 0.425000
vt 0.343750 0.425000
vt 0.343750 0.425000
vt 0.343750 0.397957
vt 0.343750 0.397957
vt 0.343750 0.397957
vt 0.343750 0.397957
vt 0.343750 0.325000
vt 0.343750 0.325000
vt 0.343750 0.370037
vt 0.343750 0.370037
vt 0.343750 0.397957
vt 0.343750 0.397957
vt 0.343750 0.380386
vt 0.343750 0.380386
vt 0.343750 0.365491
vt 0.343750 0.365491
vt 0.343750 0.355538
vt 0.343750 0.355538
vt 0.343750 0.352043
vt 0.343750 0.352043
s 0
usemtl colormap.001
f 3/3/1 2/2/2 1/1/1
f 2/2/2 3/3/1 4/5/2
f 7/9/3 6/8/3 5/7/3
f 6/8/3 7/9/3 8/10/3
f 6/8/3 8/10/3 9/11/3
f 9/11/3 8/10/3 1/1/3
f 9/11/3 1/1/3 10/12/3
f 10/12/3 1/1/3 2/2/3
f 5/7/4 11/13/5 7/9/5
f 11/13/5 5/7/4 12/15/4
f 13/17/6 1/1/1 8/10/6
f 1/1/1 13/17/6 3/3/1
f 14/19/7 5/7/4 6/8/7
f 5/7/4 14/19/7 12/15/4
f 15/21/8 6/8/7 9/11/8
f 6/8/7 15/21/8 14/19/7
f 16/23/9 9/11/8 10/12/9
f 9/11/8 16/23/9 15/21/8
f 7/9/5 13/17/6 8/10/6
f 13/17/6 7/9/5 11/13/5
f 16/23/9 2/2/2 4/5/2
f 2/2/2 16/23/9 10/12/9
f 19/27/10 18/26/11 17/25/12
f 18/26/11 19/27/13 20/28/14
f 23/31/15 22/30/16 21/29/15
f 22/30/16 23/31/17 24/33/16
f 22/30/18 26/36/19 25/35/20
f 26/36/21 22/30/18 27/37/22
f 30/40/23 29/39/24 28/38/25
f 29/39/24 30/40/26 31/41/27
f 20/28/28 33/44/29 32/42/28
f 33/44/30 20/28/28 28/38/30
f 19/27/10 35/47/31 34/46/32
f 35/47/31 19/27/33 17/25/12
f 32/42/28 18/26/34 20/28/28
f 18/26/34 32/42/35 36/48/34
f 35/47/36 38/51/37 37/50/38
f 38/51/39 35/47/36 17/25/40
f 28/38/30 39/52/41 33/44/30
f 39/52/42 28/38/30 29/39/42
f 42/56/43 41/55/44 40/54/45
f 41/55/44 42/56/46 25/35/47
f 19/27/10 28/38/48 20/28/14
f 28/38/48 19/27/13 30/40/23
f 41/55/49 37/50/49 40/54/49
f 37/50/49 41/55/49 35/47/49
f 35/47/49 41/55/49 43/57/49
f 35/47/49 43/57/49 34/46/49
f 34/46/49 43/57/49 44/58/49
f 34/46/49 44/58/49 45/59/49
f 46/60/50 29/39/42 27/37/50
f 29/39/42 46/60/51 39/52/42
f 44/58/52 30/40/26 45/59/53
f 30/40/54 44/58/52 31/41/27
f 24/33/16 27/37/50 22/30/16
f 27/37/50 24/33/55 46/60/50
f 49/64/3 48/63/3 47/62/3
f 48/63/3 49/64/3 12/16/3
f 49/64/3 11/14/3 12/16/3
f 48/63/3 12/16/3 14/20/3
f 11/14/3 49/64/3 50/65/3
f 11/14/3 50/65/3 13/18/3
f 48/63/3 14/20/3 51/66/3
f 51/66/3 14/20/3 15/22/3
f 51/66/3 15/22/3 16/24/3
f 51/66/3 16/24/3 52/67/3
f 13/18/3 50/65/3 53/68/3
f 13/18/3 53/68/3 3/4/3
f 52/67/3 16/24/3 4/6/3
f 3/4/3 53/68/3 4/6/3
f 52/67/3 4/6/3 54/69/3
f 4/6/3 53/68/3 54/69/3
f 17/25/40 55/70/56 38/51/37
f 55/70/56 17/25/12 18/26/11
f 38/51/57 21/29/58 42/56/59
f 21/29/58 38/51/37 55/70/60
f 21/29/61 25/35/47 42/56/43
f 25/35/20 21/29/61 22/30/18
f 56/71/62 18/26/34 36/48/34
f 18/26/34 56/71/63 55/70/63
f 29/39/64 26/36/19 27/37/22
f 26/36/21 29/39/64 31/41/65
f 31/41/66 43/57/67 26/36/21
f 43/57/67 31/41/65 44/58/68
f 25/35/20 43/57/69 41/55/70
f 43/57/69 25/35/71 26/36/19
f 34/46/72 30/40/54 19/27/13
f 30/40/23 34/46/72 45/59/73
f 38/51/57 40/54/74 37/50/75
f 40/54/74 38/51/39 42/56/59
f 23/31/17 55/70/63 56/71/63
f 55/70/63 23/31/15 21/29/15
f 47/62/2 57/73/9 49/64/9
f 57/73/9 47/62/2 58/74/2
f 49/64/9 59/75/8 50/65/8
f 59/75/8 49/64/9 57/73/9
f 54/69/4 61/77/7 60/76/4
f 61/77/7 54/69/76 53/68/7
f 53/68/7 59/75/8 61/77/7
f 59/75/8 53/68/7 50/65/8
f 51/66/6 63/79/77 62/78/6
f 63/79/5 51/66/6 52/67/5
f 63/79/5 54/69/4 60/76/4
f 54/69/4 63/79/5 52/67/5
f 48/63/1 58/74/2 47/62/2
f 58/74/2 48/63/1 64/80/1
f 48/63/1 62/78/6 64/80/1
f 62/78/6 48/63/1 51/66/6
f 67/83/78 66/82/79 65/81/80
f 66/82/81 67/83/82 68/84/83
f 67/83/78 70/86/84 69/85/85
f 70/86/86 67/83/78 65/81/80
f 65/81/87 71/87/88 70/86/89
f 71/87/90 65/81/80 72/88/91
f 73/89/92 33/45/93 39/53/94
f 33/45/93 73/89/95 74/90/96
f 77/93/97 76/92/98 75/91/99
f 76/92/100 77/93/101 72/88/91
f 78/94/102 75/91/99 74/90/103
f 75/91/99 78/94/102 77/93/101
f 74/90/103 79/95/104 78/94/102
f 79/95/105 74/90/106 73/89/107
f 78/94/102 80/96/108 77/93/101
f 80/96/109 78/94/110 81/97/111
f 72/88/91 80/96/112 71/87/113
f 80/96/108 72/88/91 77/93/101
f 33/45/93 75/91/114 32/43/115
f 75/91/116 33/45/93 74/90/117
f 79/95/104 81/97/118 78/94/102
f 81/97/119 79/95/104 82/98/120
f 84/100/121 24/34/122 83/99/123
f 24/34/122 84/100/124 46/61/125
f 87/103/126 86/102/127 85/101/128
f 86/102/127 87/103/129 88/104/130
f 86/102/131 84/100/132 83/99/133
f 84/100/134 86/102/127 88/104/130
f 87/103/129 79/95/104 88/104/130
f 79/95/105 87/103/135 82/98/136
f 72/88/91 66/82/79 76/92/100
f 66/82/79 72/88/91 65/81/80
f 84/100/121 39/53/94 46/61/125
f 39/53/94 84/100/124 73/89/92
f 67/83/78 83/99/133 68/84/83
f 83/99/133 67/83/78 86/102/127
f 56/72/137 76/92/138 66/82/139
f 76/92/140 56/72/137 36/49/141
f 88/104/130 73/89/107 84/100/134
f 73/89/107 88/104/130 79/95/104
f 85/101/142 67/83/82 69/85/143
f 67/83/78 85/101/144 86/102/127
f 23/32/145 66/82/146 68/84/147
f 66/82/139 23/32/145 56/72/137
f 36/49/141 75/91/114 76/92/140
f 75/91/116 36/49/141 32/43/115
f 83/99/148 23/32/145 68/84/149
f 23/32/145 83/99/123 24/34/122
f 91/107/49 90/106/49 89/105/49
f 90/106/49 91/107/49 92/108/49
f 95/111/150 94/110/151 93/109/150
f 94/110/151 95/111/150 96/112/151
f 99/115/3 98/114/3 97/113/3
f 98/114/3 99/115/3 100/116/3
f 103/119/152 102/118/153 101/117/153
f 102/118/153 103/119/152 104/120/152
f 97/113/154 92/108/154 91/107/154
f 92/108/154 97/113/154 105/121/154
f 105/121/154 97/113/154 98/114/154
f 105/121/154 106/122/154 92/108/154
f 107/123/154 106/122/154 105/121/154
f 107/123/154 94/110/154 106/122/154
f 107/123/154 93/109/154 94/110/154
f 103/119/154 93/109/154 107/123/154
f 103/119/154 108/124/154 93/109/154
f 101/117/154 108/124/154 103/119/154
f 108/124/154 101/117/154 109/125/154
f 104/120/152 107/123/155 110/126/155
f 107/123/155 104/120/152 103/119/152
f 107/123/155 111/127/156 110/126/155
f 111/127/156 107/123/155 105/121/156
f 102/118/157 113/129/157 112/128/157
f 113/129/157 102/118/157 104/120/157
f 113/129/157 104/120/157 95/111/157
f 95/111/157 104/120/157 110/126/157
f 95/111/157 110/126/157 96/112/157
f 96/112/157 110/126/157 114/130/157
f 114/130/157 110/126/157 111/127/157
f 114/130/157 111/127/157 90/106/157
f 99/115/157 90/106/157 111/127/157
f 99/115/157 111/127/157 100/116/157
f 90/106/157 99/115/157 89/105/157
f 105/121/156 100/116/158 111/127/156
f 100/116/158 105/121/156 98/114/158
f 106/122/159 96/112/151 114/130/159
f 96/112/151 106/122/159 94/110/151
f 92/108/160 114/130/159 90/106/160
f 114/130/159 92/108/160 106/122/159
f 101/117/153 112/128/161 109/125/161
f 112/128/161 101/117/153 102/118/153
f 113/129/162 93/109/150 108/124/162
f 93/109/150 113/129/162 95/111/150
f 117/133/163 116/132/164 115/131/164
f 116/132/164 117/133/163 118/134/163
f 121/137/3 120/136/3 119/135/3
f 120/136/3 121/137/3 122/138/3
f 125/141/49 124/140/49 123/139/49
f 124/140/49 125/141/49 126/142/49
f 127/143/165 118/134/163 117/133/163
f 118/134/163 127/143/165 128/144/165
f 130/146/166 116/132/164 129/145/166
f 116/132/164 130/146/166 115/131/164
f 132/148/167 129/145/166 131/147/167
f 129/145/166 132/148/167 130/146/166
f 135/151/168 134/150/169 133/149/169
f 134/150/169 135/151/168 136/152/168
f 135/151/168 137/153/170 136/152/168
f 137/153/170 135/151/168 138/154/170
f 122/138/157 124/140/157 126/142/157
f 124/140/157 122/138/157 131/147/157
f 131/147/157 122/138/157 121/137/157
f 131/147/157 133/149/157 124/140/157
f 129/145/157 133/149/157 131/147/157
f 129/145/157 135/151/157 133/149/157
f 129/145/157 138/154/157 135/151/157
f 116/132/157 138/154/157 129/145/157
f 116/132/157 139/155/157 138/154/157
f 118/134/157 139/155/157 116/132/157
f 139/155/157 118/134/157 128/144/157
f 138/154/170 140/156/171 137/153/170
f 140/156/171 138/154/170 139/155/171
f 134/150/169 124/140/172 133/149/169
f 124/140/172 134/150/169 123/139/172
f 117/133/154 140/156/154 127/143/154
f 140/156/154 117/133/154 115/131/154
f 140/156/154 115/131/154 137/153/154
f 137/153/154 115/131/154 130/146/154
f 137/153/154 130/146/154 136/152/154
f 136/152/154 130/146/154 134/150/154
f 134/150/154 130/146/154 132/148/154
f 134/150/154 132/148/154 123/139/154
f 120/136/154 123/139/154 132/148/154
f 120/136/154 132/148/154 119/135/154
f 123/139/154 120/136/154 125/141/154
f 119/135/173 131/147/167 121/137/173
f 131/147/167 119/135/173 132/148/167
f 3/3/1 2/2/2 1/1/1
f 2/2/2 3/3/1 4/5/2
f 7/9/3 6/8/3 5/7/3
f 6/8/3 7/9/3 8/10/3
f 6/8/3 8/10/3 9/11/3
f 9/11/3 8/10/3 1/1/3
f 9/11/3 1/1/3 10/12/3
f 10/12/3 1/1/3 2/2/3
f 5/7/4 11/13/5 7/9/5
f 11/13/5 5/7/4 12/15/4
f 13/17/6 1/1/1 8/10/6
f 1/1/1 13/17/6 3/3/1
f 14/19/7 5/7/4 6/8/7
f 5/7/4 14/19/7 12/15/4
f 15/21/8 6/8/7 9/11/8
f 6/8/7 15/21/8 14/19/7
f 16/23/9 9/11/8 10/12/9
f 9/11/8 16/23/9 15/21/8
f 7/9/5 13/17/6 8/10/6
f 13/17/6 7/9/5 11/13/5
f 16/23/9 2/2/2 4/5/2
f 2/2/2 16/23/9 10/12/9
f 19/27/10 18/26/11 17/25/12
f 18/26/11 19/27/13 20/28/14
f 23/31/15 22/30/16 21/29/15
f 22/30/16 23/31/17 24/33/16
f 22/30/18 26/36/19 25/35/20
f 26/36/21 22/30/18 27/37/22
f 30/40/23 29/39/24 28/38/25
f 29/39/24 30/40/26 31/41/27
f 20/28/28 33/44/29 32/42/28
f 33/44/30 20/28/28 28/38/30
f 19/27/10 35/47/31 34/46/32
f 35/47/31 19/27/33 17/25/12
f 32/42/28 18/26/34 20/28/28
f 18/26/34 32/42/35 36/48/34
f 35/47/36 38/51/37 37/50/38
f 38/51/39 35/47/36 17/25/40
f 28/38/30 39/52/41 33/44/30
f 39/52/42 28/38/30 29/39/42
f 42/56/43 41/55/44 40/54/45
f 41/55/44 42/56/46 25/35/47
f 19/27/10 28/38/48 20/28/14
f 28/38/48 19/27/13 30/40/23
f 41/55/49 37/50/49 40/54/49
f 37/50/49 41/55/49 35/47/49
f 35/47/49 41/55/49 43/57/49
f 35/47/49 43/57/49 34/46/49
f 34/46/49 43/57/49 44/58/49
f 34/46/49 44/58/49 45/59/49
f 46/60/50 29/39/42 27/37/50
f 29/39/42 46/60/51 39/52/42
f 44/58/52 30/40/26 45/59/53
f 30/40/54 44/58/52 31/41/27
f 24/33/16 27/37/50 22/30/16
f 27/37/50 24/33/55 46/60/50
f 49/64/3 48/63/3 47/62/3
f 48/63/3 49/64/3 12/16/3
f 49/64/3 11/14/3 12/16/3
f 48/63/3 12/16/3 14/20/3
f 11/14/3 49/64/3 50/65/3
f 11/14/3 50/65/3 13/18/3
f 48/63/3 14/20/3 51/66/3
f 51/66/3 14/20/3 15/22/3
f 51/66/3 15/22/3 16/24/3
f 51/66/3 16/24/3 52/67/3
f 13/18/3 50/65/3 53/68/3
f 13/18/3 53/68/3 3/4/3
f 52/67/3 16/24/3 4/6/3
f 3/4/3 53/68/3 4/6/3
f 52/67/3 4/6/3 54/69/3
f 4/6/3 53/68/3 54/69/3
f 17/25/40 55/70/56 38/51/37
f 55/70/56 17/25/12 18/26/11
f 38/51/57 21/29/58 42/56/59
f 21/29/58 38/51/37 55/70/60
f 21/29/61 25/35/47 42/56/43
f 25/35/20 21/29/61 22/30/18
f 56/71/62 18/26/34 36/48/34
f 18/26/34 56/71/63 55/70/63
f 29/39/64 26/36/19 27/37/22
f 26/36/21 29/39/64 31/41/65
f 31/41/66 43/57/67 26/36/21
f 43/57/67 31/41/65 44/58/68
f 25/35/20 43/57/69 41/55/70
f 43/57/69 25/35/71 26/36/19
f 34/46/72 30/40/54 19/27/13
f 30/40/23 34/46/72 45/59/73
f 38/51/57 40/54/74 37/50/75
f 40/54/74 38/51/39 42/56/59
f 23/31/17 55/70/63 56/71/63
f 55/70/63 23/31/15 21/29/15
f 47/62/2 57/73/9 49/64/9
f 57/73/9 47/62/2 58/74/2
f 49/64/9 59/75/8 50/65/8
f 59/75/8 49/64/9 57/73/9
f 54/69/4 61/77/7 60/76/4
f 61/77/7 54/69/76 53/68/7
f 53/68/7 59/75/8 61/77/7
f 59/75/8 53/68/7 50/65/8
f 51/66/6 63/79/77 62/78/6
f 63/79/5 51/66/6 52/67/5
f 63/79/5 54/69/4 60/76/4
f 54/69/4 63/79/5 52/67/5
f 48/63/1 58/74/2 47/62/2
f 58/74/2 48/63/1 64/80/1
f 48/63/1 62/78/6 64/80/1
f 62/78/6 48/63/1 51/66/6
f 67/83/78 66/82/79 65/81/80
f 66/82/81 67/83/82 68/84/83
f 67/83/78 70/86/84 69/85/85
f 70/86/86 67/83/78 65/81/80
f 65/81/87 71/87/88 70/86/89
f 71/87/90 65/81/80 72/88/91
f 73/89/92 33/45/93 39/53/94
f 33/45/93 73/89/95 74/90/96
f 77/93/97 76/92/98 75/91/99
f 76/92/100 77/93/101 72/88/91
f 78/94/102 75/91/99 74/90/103
f 75/91/99 78/94/102 77/93/101
f 74/90/103 79/95/104 78/94/102
f 79/95/105 74/90/106 73/89/107
f 78/94/102 80/96/108 77/93/101
f 80/96/109 78/94/110 81/97/111
f 72/88/91 80/96/112 71/87/113
f 80/96/108 72/88/91 77/93/101
f 33/45/93 75/91/114 32/43/115
f 75/91/116 33/45/93 74/90/117
f 79/95/104 81/97/118 78/94/102
f 81/97/119 79/95/104 82/98/120
f 84/100/121 24/34/122 83/99/123
f 24/34/122 84/100/124 46/61/125
f 87/103/126 86/102/127 85/101/128
f 86/102/127 87/103/129 88/104/130
f 86/102/131 84/100/132 83/99/133
f 84/100/134 86/102/127 88/104/130
f 87/103/129 79/95/104 88/104/130
f 79/95/105 87/103/135 82/98/136
f 72/88/91 66/82/79 76/92/100
f 66/82/79 72/88/91 65/81/80
f 84/100/121 39/53/94 46/61/125
f 39/53/94 84/100/124 73/89/92
f 67/83/78 83/99/133 68/84/83
f 83/99/133 67/83/78 86/102/127
f 56/72/137 76/92/138 66/82/139
f 76/92/140 56/72/137 36/49/141
f 88/104/130 73/89/107 84/100/134
f 73/89/107 88/104/130 79/95/104
f 85/101/142 67/83/82 69/85/143
f 67/83/78 85/101/144 86/102/127
f 23/32/145 66/82/146 68/84/147
f 66/82/139 23/32/145 56/72/137
f 36/49/141 75/91/114 76/92/140
f 75/91/116 36/49/141 32/43/115
f 83/99/148 23/32/145 68/84/149
f 23/32/145 83/99/123 24/34/122
f 91/107/49 90/106/49 89/105/49
f 90/106/49 91/107/49 92/108/49
f 95/111/150 94/110/151 93/109/150
f 94/110/151 95/111/150 96/112/151
f 99/115/3 98/114/3 97/113/3
f 98/114/3 99/115/3 100/116/3
f 103/119/152 102/118/153 101/117/153
f 102/118/153 103/119/152 104/120/152
f 97/113/154 92/108/154 91/107/154
f 92/108/154 97/113/154 105/121/154
f 105/121/154 97/113/154 98/114/154
f 105/121/154 106/122/154 92/108/154
f 107/123/154 106/122/154 105/121/154
f 107/123/154 94/110/154 106/122/154
f 107/123/154 93/109/154 94/110/154
f 103/119/154 93/109/154 107/123/154
f 103/119/154 108/124/154 93/109/154
f 101/117/154 108/124/154 103/119/154
f 108/124/154 101/117/154 109/125/154
f 104/120/152 107/123/155 110/126/155
f 107/123/155 104/120/152 103/119/152
f 107/123/155 111/127/156 110/126/155
f 111/127/156 107/123/155 105/121/156
f 102/118/157 113/129/157 112/128/157
f 113/129/157 102/118/157 104/120/157
f 113/129/157 104/120/157 95/111/157
f 95/111/157 104/120/157 110/126/157
f 95/111/157 110/126/157 96/112/157
f 96/112/157 110/126/157 114/130/157
f 114/130/157 110/126/157 111/127/157
f 114/130/157 111/127/157 90/106/157
f 99/115/157 90/106/157 111/127/157
f 99/115/157 111/127/157 100/116/157
f 90/106/157 99/115/157 89/105/157
f 105/121/156 100/116/158 111/127/156
f 100/116/158 105/121/156 98/114/158
f 106/122/159 96/112/151 114/130/159
f 96/112/151 106/122/159 94/110/151
f 92/108/160 114/130/159 90/106/160
f 114/130/159 92/108/160 106/122/159
f 101/117/153 112/128/161 109/125/161
f 112/128/161 101/117/153 102/118/153
f 113/129/162 93/109/150 108/124/162
f 93/109/150 113/129/162 95/111/150
f 117/133/163 116/132/164 115/131/164
f 116/132/164 117/133/163 118/134/163
f 121/137/3 120/136/3 119/135/3
f 120/136/3 121/137/3 122/138/3
f 125/141/49 124/140/49 123/139/49
f 124/140/49 125/141/49 126/142/49
f 127/143/165 118/134/163 117/133/163
f 118/134/163 127/143/165 128/144/165
f 130/146/166 116/132/164 129/145/166
f 116/132/164 130/146/166 115/131/164
f 132/148/167 129/145/166 131/147/167
f 129/145/166 132/148/167 130/146/166
f 135/151/168 134/150/169 133/149/169
f 134/150/169 135/151/168 136/152/168
f 135/151/168 137/153/170 136/152/168
f 137/153/170 135/151/168 138/154/170
f 122/138/157 124/140/157 126/142/157
f 124/140/157 122/138/157 131/147/157
f 131/147/157 122/138/157 121/137/157
f 131/147/157 133/149/157 124/140/157
f 129/145/157 133/149/157 131/147/157
f 129/145/157 135/151/157 133/149/157
f 129/145/157 138/154/157 135/151/157
f 116/132/157 138/154/157 129/145/157
f 116/132/157 139/155/157 138/154/157
f 118/134/157 139/155/157 116/132/157
f 139/155/157 118/134/157 128/144/157
f 138/154/170 140/156/171 137/153/170
f 140/156/171 138/154/170 139/155/171
f 134/150/169 124/140/172 133/149/169
f 124/140/172 134/150/169 123/139/172
f 117/133/154 140/156/154 127/143/154
f 140/156/154 117/133/154 115/131/154
f 140/156/154 115/131/154 137/153/154
f 137/153/154 115/131/154 130/146/154
f 137/153/154 130/146/154 136/152/154
f 136/152/154 130/146/154 134/150/154
f 134/150/154 130/146/154 132/148/154
f 134/150/154 132/148/154 123/139/154
f 120/136/154 123/139/154 132/148/154
f 120/136/154 132/148/154 119/135/154
f 123/139/154 120/136/154 125/141/154
f 119/135/173 131/147/167 121/137/173
f 131/147/167 119/135/173 132/148/167
