# Blender 3.3.1
# www.blender.org
o Icosphere
v 0.000000 0.000000 -0.500000
v 0.361804 -0.262863 -0.223610
v -0.138194 -0.425325 -0.223610
v -0.447213 0.000000 -0.223608
v -0.138194 0.425325 -0.223610
v 0.361804 0.262863 -0.223610
v 0.138194 -0.425325 0.223610
v -0.361804 -0.262863 0.223610
v -0.361804 0.262863 0.223610
v 0.138194 0.425325 0.223610
v 0.447213 0.000000 0.223608
v 0.000000 0.000000 0.500000
v -0.116411 -0.358282 -0.328760
v -0.081228 -0.249998 -0.425327
v -0.038803 -0.119426 -0.483975
v 0.101590 -0.073809 -0.483975
v 0.212661 -0.154506 -0.425327
v 0.304773 -0.221428 -0.328759
v 0.265970 -0.340856 -0.251151
v 0.131434 -0.404506 -0.262869
v -0.014820 -0.432092 -0.251151
v 0.406365 0.147619 -0.251150
v 0.425324 0.000000 -0.262868
v 0.406365 -0.147619 -0.251150
v 0.101590 0.073809 -0.483975
v 0.212661 0.154506 -0.425327
v 0.304773 0.221428 -0.328759
v -0.376721 0.000000 -0.328757
v -0.262865 0.000000 -0.425326
v -0.125573 0.000000 -0.483974
v -0.241986 -0.358282 -0.251151
v -0.344095 -0.249998 -0.262868
v -0.415525 -0.119427 -0.251149
v -0.116411 0.358282 -0.328760
v -0.081228 0.249998 -0.425327
v -0.038803 0.119426 -0.483975
v -0.415525 0.119427 -0.251149
v -0.344095 0.249998 -0.262868
v -0.241986 0.358282 -0.251151
v -0.014820 0.432092 -0.251151
v 0.131434 0.404506 -0.262869
v 0.265970 0.340856 -0.251151
v 0.478313 -0.073809 0.125575
v 0.475529 -0.154506 -0.000000
v 0.430349 -0.221429 -0.125575
v 0.430349 0.221429 -0.125575
v 0.475529 0.154506 0.000000
v 0.478313 0.073809 0.125575
v 0.077608 -0.477711 0.125576
v 0.000000 -0.500000 -0.000000
v -0.077608 -0.477711 -0.125576
v 0.343579 -0.340858 -0.125576
v 0.293893 -0.404508 0.000000
v 0.218003 -0.432094 0.125576
v -0.430349 -0.221429 0.125575
v -0.475529 -0.154506 -0.000000
v -0.478313 -0.073809 -0.125575
v -0.218003 -0.432094 -0.125576
v -0.293893 -0.404508 0.000000
v -0.343579 -0.340858 0.125576
v -0.343579 0.340858 0.125576
v -0.293893 0.404508 -0.000000
v -0.218003 0.432094 -0.125576
v -0.478313 0.073809 -0.125575
v -0.475529 0.154506 0.000000
v -0.430349 0.221429 0.125575
v 0.218003 0.432094 0.125576
v 0.293893 0.404508 -0.000000
v 0.343579 0.340858 -0.125576
v -0.077608 0.477711 -0.125576
v 0.000000 0.500000 0.000000
v 0.077608 0.477711 0.125576
v 0.415525 -0.119427 0.251149
v 0.344095 -0.249998 0.262868
v 0.241986 -0.358282 0.251151
v 0.014820 -0.432092 0.251151
v -0.131434 -0.404506 0.262869
v -0.265970 -0.340856 0.251151
v -0.406365 -0.147619 0.251150
v -0.425324 0.000000 0.262868
v -0.406365 0.147619 0.251150
v -0.265970 0.340856 0.251151
v -0.131434 0.404506 0.262869
v 0.014820 0.432092 0.251151
v 0.241986 0.358282 0.251151
v 0.344095 0.249998 0.262868
v 0.415525 0.119427 0.251149
v 0.038803 -0.119426 0.483975
v 0.081228 -0.249998 0.425327
v 0.116411 -0.358282 0.328760
v 0.376721 0.000000 0.328757
v 0.262865 0.000000 0.425326
v 0.125573 0.000000 0.483974
v -0.101590 -0.073809 0.483975
v -0.212661 -0.154506 0.425327
v -0.304773 -0.221428 0.328759
v -0.101590 0.073809 0.483975
v -0.212661 0.154506 0.425327
v -0.304773 0.221428 0.328759
v 0.038803 0.119426 0.483975
v 0.081228 0.249998 0.425327
v 0.116411 0.358282 0.328760
v 0.180900 0.131431 0.447215
v 0.319097 0.131432 0.361805
v 0.223605 0.262864 0.361806
v -0.069099 0.212660 0.447215
v -0.026395 0.344092 0.361806
v -0.180902 0.293889 0.361806
v -0.223605 0.000000 0.447215
v -0.335408 0.081229 0.361805
v -0.335408 -0.081229 0.361805
v -0.069099 -0.212660 0.447215
v -0.180902 -0.293889 0.361806
v -0.026395 -0.344092 0.361806
v 0.180900 -0.131431 0.447215
v 0.223605 -0.262864 0.361806
v 0.319097 -0.131432 0.361805
v 0.430902 0.212661 0.138198
v 0.404510 0.293891 0.000000
v 0.335410 0.344095 0.138199
v -0.069099 0.475528 0.138199
v -0.154508 0.475528 -0.000000
v -0.223608 0.425324 0.138199
v -0.473607 0.081229 0.138198
v -0.500000 -0.000000 0.000000
v -0.473606 -0.081229 0.138198
v -0.223608 -0.425324 0.138198
v -0.154509 -0.475528 -0.000000
v -0.069100 -0.475528 0.138198
v 0.335410 -0.344095 0.138198
v 0.404509 -0.293891 -0.000001
v 0.430902 -0.212662 0.138197
v 0.154509 0.475528 -0.000000
v 0.223608 0.425324 -0.138199
v 0.069100 0.475527 -0.138199
v -0.404509 0.293892 -0.000000
v -0.335409 0.344095 -0.138199
v -0.430902 0.212662 -0.138198
v -0.404509 -0.293892 0.000000
v -0.430902 -0.212662 -0.138198
v -0.335410 -0.344095 -0.138199
v 0.154509 -0.475528 0.000000
v 0.069100 -0.475527 -0.138199
v 0.223608 -0.425324 -0.138199
v 0.500000 0.000000 0.000000
v 0.473607 -0.081229 -0.138198
v 0.473607 0.081229 -0.138198
v 0.180902 0.293890 -0.361806
v 0.069098 0.212661 -0.447215
v 0.026395 0.344093 -0.361805
v -0.223605 0.262864 -0.361806
v -0.180901 0.131431 -0.447214
v -0.319097 0.131431 -0.361805
v -0.319097 -0.131432 -0.361805
v -0.180901 -0.131432 -0.447214
v -0.223605 -0.262864 -0.361805
v 0.335409 0.081228 -0.361805
v 0.335409 -0.081229 -0.361805
v 0.223605 -0.000000 -0.447214
v 0.026395 -0.344093 -0.361806
v 0.069099 -0.212660 -0.447215
v 0.180902 -0.293890 -0.361805
vn 0.0482 -0.1482 -0.9878
vn 0.7230 -0.4121 -0.5545
vn -0.1261 -0.0916 -0.9878
vn -0.1261 0.0916 -0.9878
vn 0.0482 0.1482 -0.9878
vn 0.8193 -0.4121 -0.3987
vn -0.1387 -0.9065 -0.3987
vn -0.9050 -0.1482 -0.3987
vn -0.4206 0.8149 -0.3987
vn 0.6451 0.6519 -0.3987
vn 0.7711 -0.5603 -0.3024
vn -0.2945 -0.9065 -0.3024
vn -0.9532 -0.0000 -0.3024
vn -0.2945 0.9065 -0.3024
vn 0.7711 0.5603 -0.3024
vn 0.3427 -0.7583 0.5545
vn -0.6153 -0.5603 0.5545
vn -0.7230 0.4121 0.5545
vn 0.1685 0.8149 0.5545
vn 0.8271 0.0916 0.5545
vn 0.1261 0.0916 0.9878
vn 0.3912 0.0915 0.9158
vn 0.6441 0.0915 0.7594
vn 0.2334 0.1696 0.9575
vn 0.2079 0.3438 0.9158
vn 0.5168 0.1830 0.8363
vn 0.4911 0.3568 0.7947
vn 0.3338 0.4350 0.8363
vn 0.2860 0.5843 0.7594
vn 0.7520 0.1696 0.6369
vn 0.7261 0.3438 0.5955
vn 0.5987 0.4350 0.6726
vn 0.5513 0.5843 0.5955
vn 0.3936 0.6628 0.6369
vn 0.3427 0.7583 0.5545
vn -0.0482 0.1482 0.9878
vn 0.0339 0.4003 0.9158
vn 0.1121 0.6409 0.7594
vn -0.0891 0.2743 0.9575
vn -0.2627 0.3039 0.9158
vn -0.0144 0.5481 0.8363
vn -0.1876 0.5773 0.7947
vn -0.3105 0.4519 0.8363
vn -0.4674 0.4526 0.7594
vn 0.0711 0.7676 0.6369
vn -0.1026 0.7968 0.5955
vn -0.2287 0.7038 0.6726
vn -0.3854 0.7049 0.5955
vn -0.5087 0.5792 0.6369
vn -0.6153 0.5603 0.5545
vn -0.1558 -0.0000 0.9878
vn -0.3702 0.1560 0.9158
vn -0.5749 0.3046 0.7594
vn -0.2885 -0.0000 0.9575
vn -0.3702 -0.1560 0.9158
vn -0.5257 0.1557 0.8363
vn -0.6071 -0.0000 0.7947
vn -0.5257 -0.1557 0.8363
vn -0.5749 -0.3046 0.7594
vn -0.7081 0.3049 0.6369
vn -0.7895 0.1487 0.5955
vn -0.7400 -0.0000 0.6726
vn -0.7895 -0.1487 0.5955
vn -0.7081 -0.3049 0.6369
vn -0.7230 -0.4121 0.5545
vn -0.0482 -0.1482 0.9878
vn -0.2627 -0.3039 0.9158
vn -0.4674 -0.4526 0.7594
vn -0.0891 -0.2743 0.9575
vn 0.0339 -0.4003 0.9158
vn -0.3105 -0.4519 0.8363
vn -0.1876 -0.5773 0.7947
vn -0.0144 -0.5481 0.8363
vn 0.1121 -0.6409 0.7594
vn -0.5087 -0.5792 0.6369
vn -0.3854 -0.7049 0.5955
vn -0.2287 -0.7038 0.6726
vn -0.1026 -0.7968 0.5955
vn 0.0711 -0.7676 0.6369
vn 0.1685 -0.8149 0.5545
vn 0.1261 -0.0916 0.9878
vn 0.2079 -0.3438 0.9158
vn 0.2860 -0.5843 0.7594
vn 0.2334 -0.1696 0.9575
vn 0.3912 -0.0915 0.9158
vn 0.3338 -0.4350 0.8363
vn 0.4911 -0.3568 0.7947
vn 0.5168 -0.1830 0.8363
vn 0.6441 -0.0915 0.7594
vn 0.3936 -0.6628 0.6369
vn 0.5513 -0.5843 0.5955
vn 0.5987 -0.4350 0.6726
vn 0.7261 -0.3438 0.5955
vn 0.7520 -0.1696 0.6369
vn 0.8271 -0.0916 0.5545
vn 0.9050 0.1482 0.3987
vn 0.9366 0.3039 0.1745
vn 0.8883 0.4526 -0.0784
vn 0.8963 0.2743 0.3485
vn 0.8039 0.4003 0.4399
vn 0.8869 0.4519 0.0962
vn 0.7947 0.5773 0.1876
vn 0.7544 0.5481 0.3611
vn 0.6291 0.6409 0.4399
vn 0.7972 0.5792 -0.1702
vn 0.7049 0.7049 -0.0784
vn 0.7038 0.7038 0.0962
vn 0.5785 0.7968 0.1745
vn 0.5379 0.7676 0.3485
vn 0.4206 0.8149 0.3987
vn 0.1387 0.9065 0.3987
vn 0.0004 0.9846 0.1745
vn -0.1560 0.9846 -0.0784
vn 0.0160 0.9372 0.3485
vn -0.1323 0.8883 0.4399
vn -0.1557 0.9831 0.0962
vn -0.3035 0.9342 0.1876
vn -0.2882 0.8869 0.3611
vn -0.4151 0.7964 0.4399
vn -0.3045 0.9372 -0.1702
vn -0.4526 0.8883 -0.0784
vn -0.4519 0.8869 0.0962
vn -0.5791 0.7964 0.1745
vn -0.5638 0.7488 0.3485
vn -0.6451 0.6519 0.3987
vn -0.8193 0.4121 0.3987
vn -0.9363 0.3046 0.1745
vn -0.9846 0.1560 -0.0784
vn -0.8864 0.3049 0.3485
vn -0.8857 0.1487 0.4399
vn -0.9831 0.1557 0.0962
vn -0.9822 -0.0000 0.1876
vn -0.9325 -0.0000 0.3611
vn -0.8857 -0.1487 0.4399
vn -0.9854 -0.0000 -0.1702
vn -0.9846 -0.1560 -0.0784
vn -0.9831 -0.1557 0.0962
vn -0.9363 -0.3046 0.1745
vn -0.8864 -0.3049 0.3485
vn -0.8193 -0.4121 0.3987
vn -0.6451 -0.6519 0.3987
vn -0.5791 -0.7964 0.1745
vn -0.4526 -0.8883 -0.0784
vn -0.5638 -0.7488 0.3485
vn -0.4151 -0.7964 0.4399
vn -0.4519 -0.8869 0.0962
vn -0.3035 -0.9342 0.1876
vn -0.2882 -0.8869 0.3611
vn -0.1323 -0.8883 0.4399
vn -0.3045 -0.9372 -0.1702
vn -0.1560 -0.9846 -0.0784
vn -0.1557 -0.9831 0.0962
vn 0.0004 -0.9846 0.1745
vn 0.0160 -0.9372 0.3485
vn 0.1387 -0.9065 0.3987
vn 0.4206 -0.8149 0.3987
vn 0.5785 -0.7968 0.1745
vn 0.7049 -0.7049 -0.0784
vn 0.5379 -0.7676 0.3485
vn 0.6291 -0.6409 0.4399
vn 0.7038 -0.7038 0.0962
vn 0.7947 -0.5773 0.1876
vn 0.7544 -0.5481 0.3611
vn 0.8039 -0.4003 0.4399
vn 0.7972 -0.5792 -0.1702
vn 0.8883 -0.4526 -0.0784
vn 0.8869 -0.4519 0.0962
vn 0.9366 -0.3039 0.1745
vn 0.8963 -0.2744 0.3485
vn 0.9050 -0.1482 0.3987
vn 0.2945 0.9065 0.3024
vn 0.4526 0.8883 0.0784
vn 0.5791 0.7964 -0.1745
vn 0.3045 0.9372 0.1702
vn 0.1560 0.9846 0.0784
vn 0.4519 0.8869 -0.0962
vn 0.3035 0.9342 -0.1876
vn 0.1557 0.9831 -0.0962
vn -0.0004 0.9846 -0.1745
vn 0.5638 0.7488 -0.3485
vn 0.4151 0.7964 -0.4399
vn 0.2882 0.8869 -0.3611
vn 0.1323 0.8883 -0.4399
vn -0.0160 0.9372 -0.3485
vn -0.1387 0.9065 -0.3987
vn -0.7711 0.5603 0.3024
vn -0.7049 0.7049 0.0784
vn -0.5785 0.7968 -0.1745
vn -0.7972 0.5792 0.1702
vn -0.8883 0.4526 0.0784
vn -0.7038 0.7038 -0.0962
vn -0.7947 0.5774 -0.1876
vn -0.8869 0.4519 -0.0962
vn -0.9366 0.3039 -0.1745
vn -0.5379 0.7676 -0.3485
vn -0.6291 0.6409 -0.4399
vn -0.7544 0.5481 -0.3611
vn -0.8039 0.4003 -0.4399
vn -0.8963 0.2744 -0.3485
vn -0.9050 0.1482 -0.3987
vn -0.7711 -0.5603 0.3024
vn -0.8883 -0.4526 0.0784
vn -0.9366 -0.3039 -0.1745
vn -0.7972 -0.5792 0.1702
vn -0.7049 -0.7049 0.0784
vn -0.8869 -0.4519 -0.0962
vn -0.7947 -0.5774 -0.1876
vn -0.7038 -0.7038 -0.0962
vn -0.5785 -0.7968 -0.1745
vn -0.8963 -0.2744 -0.3485
vn -0.8039 -0.4003 -0.4399
vn -0.7544 -0.5481 -0.3611
vn -0.6291 -0.6409 -0.4399
vn -0.5379 -0.7676 -0.3485
vn -0.4206 -0.8149 -0.3987
vn 0.2945 -0.9065 0.3024
vn 0.1560 -0.9846 0.0784
vn -0.0004 -0.9846 -0.1745
vn 0.3045 -0.9372 0.1702
vn 0.4526 -0.8883 0.0784
vn 0.1557 -0.9831 -0.0962
vn 0.3035 -0.9342 -0.1876
vn 0.4519 -0.8869 -0.0962
vn 0.5791 -0.7964 -0.1745
vn -0.0160 -0.9372 -0.3485
vn 0.1323 -0.8883 -0.4399
vn 0.2882 -0.8869 -0.3611
vn 0.4151 -0.7964 -0.4399
vn 0.5638 -0.7488 -0.3485
vn 0.6451 -0.6519 -0.3987
vn 0.9532 -0.0000 0.3024
vn 0.9846 -0.1560 0.0784
vn 0.9363 -0.3046 -0.1745
vn 0.9854 -0.0000 0.1702
vn 0.9846 0.1560 0.0784
vn 0.9831 -0.1557 -0.0962
vn 0.9822 -0.0000 -0.1876
vn 0.9831 0.1557 -0.0962
vn 0.9363 0.3046 -0.1745
vn 0.8864 -0.3049 -0.3485
vn 0.8857 -0.1487 -0.4399
vn 0.9325 -0.0000 -0.3611
vn 0.8857 0.1487 -0.4399
vn 0.8864 0.3049 -0.3485
vn 0.8193 0.4121 -0.3987
vn 0.6153 0.5603 -0.5545
vn 0.4674 0.4526 -0.7594
vn 0.2627 0.3039 -0.9158
vn 0.5087 0.5792 -0.6369
vn 0.3854 0.7049 -0.5955
vn 0.3105 0.4519 -0.8363
vn 0.1876 0.5773 -0.7947
vn 0.2287 0.7038 -0.6726
vn 0.1026 0.7968 -0.5955
vn 0.0891 0.2744 -0.9575
vn -0.0339 0.4003 -0.9158
vn 0.0144 0.5481 -0.8363
vn -0.1121 0.6409 -0.7594
vn -0.0711 0.7676 -0.6369
vn -0.1685 0.8149 -0.5545
vn -0.3427 0.7583 -0.5545
vn -0.2860 0.5843 -0.7594
vn -0.2079 0.3438 -0.9158
vn -0.3936 0.6628 -0.6369
vn -0.5513 0.5843 -0.5955
vn -0.3338 0.4350 -0.8363
vn -0.4911 0.3568 -0.7947
vn -0.5987 0.4350 -0.6726
vn -0.7261 0.3438 -0.5955
vn -0.2334 0.1696 -0.9575
vn -0.3912 0.0915 -0.9158
vn -0.5168 0.1830 -0.8363
vn -0.6441 0.0915 -0.7594
vn -0.7520 0.1696 -0.6369
vn -0.8271 0.0916 -0.5545
vn -0.8271 -0.0916 -0.5545
vn -0.6441 -0.0915 -0.7594
vn -0.3912 -0.0915 -0.9158
vn -0.7520 -0.1696 -0.6369
vn -0.7261 -0.3438 -0.5955
vn -0.5168 -0.1830 -0.8363
vn -0.4911 -0.3568 -0.7947
vn -0.5987 -0.4350 -0.6726
vn -0.5513 -0.5843 -0.5955
vn -0.2334 -0.1696 -0.9575
vn -0.2079 -0.3438 -0.9158
vn -0.3338 -0.4350 -0.8363
vn -0.2860 -0.5843 -0.7594
vn -0.3936 -0.6628 -0.6369
vn -0.3427 -0.7583 -0.5545
vn 0.7230 0.4121 -0.5545
vn 0.7895 0.1487 -0.5955
vn 0.7895 -0.1487 -0.5955
vn 0.7081 0.3049 -0.6369
vn 0.5749 0.3046 -0.7594
vn 0.7400 -0.0000 -0.6726
vn 0.6071 -0.0000 -0.7947
vn 0.5257 0.1557 -0.8363
vn 0.3702 0.1559 -0.9158
vn 0.7081 -0.3049 -0.6369
vn 0.5749 -0.3046 -0.7594
vn 0.5257 -0.1557 -0.8363
vn 0.3702 -0.1560 -0.9158
vn 0.2885 -0.0000 -0.9575
vn 0.1558 -0.0000 -0.9878
vn -0.1685 -0.8149 -0.5545
vn -0.1121 -0.6409 -0.7594
vn -0.0339 -0.4003 -0.9158
vn -0.0711 -0.7676 -0.6369
vn 0.1026 -0.7968 -0.5955
vn 0.0144 -0.5481 -0.8363
vn 0.1876 -0.5773 -0.7947
vn 0.2287 -0.7038 -0.6726
vn 0.3854 -0.7049 -0.5955
vn 0.0891 -0.2743 -0.9575
vn 0.2627 -0.3039 -0.9158
vn 0.3105 -0.4519 -0.8363
vn 0.4674 -0.4526 -0.7594
vn 0.5087 -0.5792 -0.6369
vn 0.6153 -0.5603 -0.5545
vt 0.567448 0.453329
vt 0.573786 0.380879
vt 0.572202 0.398992
vt 0.570617 0.417104
vt 0.569032 0.435217
vt 0.583926 0.445646
vt 0.590265 0.373195
vt 0.582341 0.463758
vt 0.588680 0.391308
vt 0.587095 0.409420
vt 0.585511 0.427533
vt 0.598820 0.456074
vt 0.597235 0.474187
vt 0.605159 0.383624
vt 0.603574 0.401736
vt 0.601989 0.419849
vt 0.600405 0.437962
vt 0.616883 0.430278
vt 0.618468 0.412165
vt 0.620052 0.394052
vt 0.613714 0.466503
vt 0.615298 0.448390
vt 0.586145 0.375116
vt 0.578618 0.461151
vt 0.582026 0.377037
vt 0.574895 0.458544
vt 0.577906 0.378958
vt 0.571171 0.455937
vt 0.572756 0.437824
vt 0.571567 0.451409
vt 0.576479 0.440431
vt 0.575687 0.449488
vt 0.580203 0.443038
vt 0.579807 0.447567
vt 0.583530 0.450174
vt 0.583134 0.454702
vt 0.582738 0.459230
vt 0.585115 0.432061
vt 0.584718 0.436589
vt 0.584322 0.441117
vt 0.574340 0.419711
vt 0.573152 0.433296
vt 0.578064 0.422319
vt 0.577272 0.431375
vt 0.581787 0.424926
vt 0.581391 0.429454
vt 0.584561 0.393229
vt 0.584957 0.388701
vt 0.580441 0.395150
vt 0.581233 0.386093
vt 0.576321 0.397071
vt 0.577510 0.383486
vt 0.589869 0.377723
vt 0.589472 0.382251
vt 0.589076 0.386780
vt 0.582976 0.411341
vt 0.583372 0.406813
vt 0.578856 0.413262
vt 0.579648 0.404206
vt 0.574737 0.415183
vt 0.575925 0.401599
vt 0.588284 0.395836
vt 0.587888 0.400364
vt 0.587492 0.404892
vt 0.586699 0.413948
vt 0.586303 0.418477
vt 0.585907 0.423005
vt 0.596285 0.439883
vt 0.592165 0.441804
vt 0.588046 0.443725
vt 0.589234 0.430140
vt 0.592958 0.432747
vt 0.596681 0.435354
vt 0.594700 0.457995
vt 0.590581 0.459916
vt 0.586461 0.461837
vt 0.587650 0.448253
vt 0.591373 0.450860
vt 0.595096 0.453467
vt 0.601039 0.385545
vt 0.596919 0.387466
vt 0.592800 0.389387
vt 0.586065 0.466365
vt 0.593988 0.375802
vt 0.589788 0.468973
vt 0.597712 0.378409
vt 0.593512 0.471580
vt 0.601435 0.381017
vt 0.599454 0.403657
vt 0.595335 0.405578
vt 0.591215 0.407499
vt 0.592404 0.393915
vt 0.596127 0.396522
vt 0.599850 0.399129
vt 0.597870 0.421770
vt 0.593750 0.423691
vt 0.589630 0.425612
vt 0.590819 0.412027
vt 0.594542 0.414635
vt 0.598266 0.417242
vt 0.600008 0.442490
vt 0.599612 0.447018
vt 0.599216 0.451546
vt 0.598424 0.460602
vt 0.598028 0.465131
vt 0.597631 0.469659
vt 0.604762 0.388152
vt 0.604366 0.392680
vt 0.603970 0.397208
vt 0.603178 0.406265
vt 0.602782 0.410793
vt 0.602385 0.415321
vt 0.601593 0.424377
vt 0.601197 0.428905
vt 0.600801 0.433433
vt 0.609990 0.463896
vt 0.611179 0.450311
vt 0.606267 0.461289
vt 0.607059 0.452232
vt 0.602543 0.458681
vt 0.602940 0.454153
vt 0.604524 0.436041
vt 0.604128 0.440569
vt 0.608644 0.434120
vt 0.607852 0.443176
vt 0.612763 0.432199
vt 0.611575 0.445783
vt 0.616329 0.391445
vt 0.609594 0.468424
vt 0.612605 0.388838
vt 0.605475 0.470345
vt 0.608882 0.386231
vt 0.601355 0.472266
vt 0.614744 0.409558
vt 0.615933 0.395973
vt 0.611021 0.406951
vt 0.611813 0.397894
vt 0.607297 0.404344
vt 0.607693 0.399815
vt 0.613160 0.427670
vt 0.614348 0.414086
vt 0.609436 0.425063
vt 0.610228 0.416007
vt 0.605713 0.422456
vt 0.606109 0.417928
vt 0.609040 0.429591
vt 0.604920 0.431512
vt 0.605317 0.426984
vt 0.610625 0.411479
vt 0.606505 0.413400
vt 0.606901 0.408872
vt 0.612209 0.393366
vt 0.608090 0.395287
vt 0.608486 0.390759
vt 0.605871 0.465817
vt 0.601751 0.467738
vt 0.602147 0.463210
vt 0.607455 0.447704
vt 0.603336 0.449625
vt 0.603732 0.445097
vt 0.597077 0.430826
vt 0.593354 0.428219
vt 0.597473 0.426298
vt 0.598662 0.412714
vt 0.594939 0.410106
vt 0.599058 0.408185
vt 0.600247 0.394601
vt 0.596523 0.391994
vt 0.600643 0.390073
vt 0.593908 0.467052
vt 0.590185 0.464444
vt 0.594304 0.462523
vt 0.595493 0.448939
vt 0.591769 0.446332
vt 0.595889 0.444411
vt 0.594146 0.419163
vt 0.590027 0.421084
vt 0.590423 0.416556
vt 0.595731 0.401050
vt 0.591611 0.402971
vt 0.592007 0.398443
vt 0.597315 0.382938
vt 0.593196 0.384859
vt 0.593592 0.380330
vt 0.590977 0.455388
vt 0.586857 0.457309
vt 0.587253 0.452781
vt 0.592561 0.437275
vt 0.588442 0.439196
vt 0.588838 0.434668
vt 0.582183 0.420398
vt 0.578460 0.417790
vt 0.582580 0.415869
vt 0.583768 0.402285
vt 0.580045 0.399678
vt 0.584164 0.397757
vt 0.585353 0.384172
vt 0.581629 0.381565
vt 0.585749 0.379644
vt 0.580995 0.433982
vt 0.580599 0.438510
vt 0.576875 0.435903
vt 0.579014 0.456623
vt 0.575291 0.454016
vt 0.579410 0.452095
s 0
f 1/1/1 16/30/1 15/28/1
f 2/6/2 18/33/2 24/40/2
f 1/2/3 15/27/3 30/52/3
f 1/3/4 30/51/4 36/61/4
f 1/4/5 36/60/5 25/41/5
f 2/6/6 24/40/6 45/70/6
f 3/8/7 21/37/7 51/76/7
f 4/9/8 33/55/8 57/82/8
f 5/10/9 39/64/9 63/91/9
f 6/11/10 42/67/10 69/97/10
f 2/6/11 45/70/11 52/77/11
f 3/8/12 51/76/12 58/83/12
f 4/9/13 57/82/13 64/92/13
f 5/10/14 63/91/14 70/98/14
f 6/11/15 69/97/15 46/71/15
f 7/12/16 75/103/16 90/121/16
f 8/13/17 78/106/17 96/133/17
f 9/15/18 81/109/18 99/139/18
f 10/16/19 84/112/19 102/145/19
f 11/17/20 87/115/20 91/122/20
f 93/126/21 100/140/21 12/18/21
f 92/124/22 103/146/22 93/126/22
f 91/122/23 104/147/23 92/124/23
f 93/126/24 103/146/24 100/140/24
f 103/146/25 101/142/25 100/140/25
f 92/124/26 104/147/26 103/146/26
f 104/147/27 105/148/27 103/146/27
f 103/146/28 105/148/28 101/142/28
f 105/148/29 102/144/29 101/142/29
f 91/122/30 87/115/30 104/147/30
f 87/115/31 86/114/31 104/147/31
f 104/147/32 86/114/32 105/148/32
f 86/114/33 85/113/33 105/148/33
f 105/148/34 85/113/34 102/144/34
f 85/113/35 10/16/35 102/144/35
f 100/141/36 97/134/36 12/19/36
f 101/143/37 106/149/37 100/141/37
f 102/145/38 107/150/38 101/143/38
f 100/141/39 106/149/39 97/134/39
f 106/149/40 98/136/40 97/134/40
f 101/143/41 107/150/41 106/149/41
f 107/150/42 108/151/42 106/149/42
f 106/149/43 108/151/43 98/136/43
f 108/151/44 99/138/44 98/136/44
f 102/145/45 84/112/45 107/150/45
f 84/112/46 83/111/46 107/150/46
f 107/150/47 83/111/47 108/151/47
f 83/111/48 82/110/48 108/151/48
f 108/151/49 82/110/49 99/138/49
f 82/110/50 9/15/50 99/138/50
f 97/135/51 94/128/51 12/20/51
f 98/137/52 109/152/52 97/135/52
f 99/139/53 110/153/53 98/137/53
f 97/135/54 109/152/54 94/128/54
f 109/152/55 95/130/55 94/128/55
f 98/137/56 110/153/56 109/152/56
f 110/153/57 111/154/57 109/152/57
f 109/152/58 111/154/58 95/130/58
f 111/154/59 96/132/59 95/130/59
f 99/139/60 81/109/60 110/153/60
f 81/109/61 80/108/61 110/153/61
f 110/153/62 80/108/62 111/154/62
f 80/108/63 79/107/63 111/154/63
f 111/154/64 79/107/64 96/132/64
f 79/107/65 8/14/65 96/132/65
f 94/129/66 88/116/66 12/21/66
f 95/131/67 112/155/67 94/129/67
f 96/133/68 113/156/68 95/131/68
f 94/129/69 112/155/69 88/116/69
f 112/155/70 89/118/70 88/116/70
f 95/131/71 113/156/71 112/155/71
f 113/156/72 114/157/72 112/155/72
f 112/155/73 114/157/73 89/118/73
f 114/157/74 90/120/74 89/118/74
f 96/133/75 78/106/75 113/156/75
f 78/106/76 77/105/76 113/156/76
f 113/156/77 77/105/77 114/157/77
f 77/105/78 76/104/78 114/157/78
f 114/157/79 76/104/79 90/120/79
f 76/104/80 7/12/80 90/120/80
f 88/117/81 93/127/81 12/22/81
f 89/119/82 115/158/82 88/117/82
f 90/121/83 116/159/83 89/119/83
f 88/117/84 115/158/84 93/127/84
f 115/158/85 92/125/85 93/127/85
f 89/119/86 116/159/86 115/158/86
f 116/159/87 117/160/87 115/158/87
f 115/158/88 117/160/88 92/125/88
f 117/160/89 91/123/89 92/125/89
f 90/121/90 75/103/90 116/159/90
f 75/103/91 74/102/91 116/159/91
f 116/159/92 74/102/92 117/160/92
f 74/102/93 73/101/93 117/160/93
f 117/160/94 73/101/94 91/123/94
f 73/101/95 11/17/95 91/123/95
f 48/73/96 87/115/96 11/17/96
f 47/72/97 118/161/97 48/73/97
f 46/71/98 119/162/98 47/72/98
f 48/73/99 118/161/99 87/115/99
f 118/161/100 86/114/100 87/115/100
f 47/72/101 119/162/101 118/161/101
f 119/162/102 120/163/102 118/161/102
f 118/161/103 120/163/103 86/114/103
f 120/163/104 85/113/104 86/114/104
f 46/71/105 69/97/105 119/162/105
f 69/97/106 68/96/106 119/162/106
f 119/162/107 68/96/107 120/163/107
f 68/96/108 67/95/108 120/163/108
f 120/163/109 67/95/109 85/113/109
f 67/95/110 10/16/110 85/113/110
f 72/100/111 84/112/111 10/16/111
f 71/99/112 121/164/112 72/100/112
f 70/98/113 122/165/113 71/99/113
f 72/100/114 121/164/114 84/112/114
f 121/164/115 83/111/115 84/112/115
f 71/99/116 122/165/116 121/164/116
f 122/165/117 123/166/117 121/164/117
f 121/164/118 123/166/118 83/111/118
f 123/166/119 82/110/119 83/111/119
f 70/98/120 63/91/120 122/165/120
f 63/91/121 62/90/121 122/165/121
f 122/165/122 62/90/122 123/166/122
f 62/90/123 61/89/123 123/166/123
f 123/166/124 61/89/124 82/110/124
f 61/89/125 9/15/125 82/110/125
f 66/94/126 81/109/126 9/15/126
f 65/93/127 124/167/127 66/94/127
f 64/92/128 125/168/128 65/93/128
f 66/94/129 124/167/129 81/109/129
f 124/167/130 80/108/130 81/109/130
f 65/93/131 125/168/131 124/167/131
f 125/168/132 126/169/132 124/167/132
f 124/167/133 126/169/133 80/108/133
f 126/169/134 79/107/134 80/108/134
f 64/92/135 57/82/135 125/168/135
f 57/82/136 56/81/136 125/168/136
f 125/168/137 56/81/137 126/169/137
f 56/81/138 55/80/138 126/169/138
f 126/169/139 55/80/139 79/107/139
f 55/80/140 8/14/140 79/107/140
f 60/87/141 78/106/141 8/13/141
f 59/85/142 127/170/142 60/87/142
f 58/83/143 128/171/143 59/85/143
f 60/87/144 127/170/144 78/106/144
f 127/170/145 77/105/145 78/106/145
f 59/85/146 128/171/146 127/170/146
f 128/171/147 129/172/147 127/170/147
f 127/170/148 129/172/148 77/105/148
f 129/172/149 76/104/149 77/105/149
f 58/83/150 51/76/150 128/171/150
f 51/76/151 50/75/151 128/171/151
f 128/171/152 50/75/152 129/172/152
f 50/75/153 49/74/153 129/172/153
f 129/172/154 49/74/154 76/104/154
f 49/74/155 7/12/155 76/104/155
f 54/79/156 75/103/156 7/12/156
f 53/78/157 130/173/157 54/79/157
f 52/77/158 131/174/158 53/78/158
f 54/79/159 130/173/159 75/103/159
f 130/173/160 74/102/160 75/103/160
f 53/78/161 131/174/161 130/173/161
f 131/174/162 132/175/162 130/173/162
f 130/173/163 132/175/163 74/102/163
f 132/175/164 73/101/164 74/102/164
f 52/77/165 45/70/165 131/174/165
f 45/70/166 44/69/166 131/174/166
f 131/174/167 44/69/167 132/175/167
f 44/69/168 43/68/168 132/175/168
f 132/175/169 43/68/169 73/101/169
f 43/68/170 11/17/170 73/101/170
f 67/95/171 72/100/171 10/16/171
f 68/96/172 133/176/172 67/95/172
f 69/97/173 134/177/173 68/96/173
f 67/95/174 133/176/174 72/100/174
f 133/176/175 71/99/175 72/100/175
f 68/96/176 134/177/176 133/176/176
f 134/177/177 135/178/177 133/176/177
f 133/176/178 135/178/178 71/99/178
f 135/178/179 70/98/179 71/99/179
f 69/97/180 42/67/180 134/177/180
f 42/67/181 41/66/181 134/177/181
f 134/177/182 41/66/182 135/178/182
f 41/66/183 40/65/183 135/178/183
f 135/178/184 40/65/184 70/98/184
f 40/65/185 5/10/185 70/98/185
f 61/89/186 66/94/186 9/15/186
f 62/90/187 136/179/187 61/89/187
f 63/91/188 137/180/188 62/90/188
f 61/89/189 136/179/189 66/94/189
f 136/179/190 65/93/190 66/94/190
f 62/90/191 137/180/191 136/179/191
f 137/180/192 138/181/192 136/179/192
f 136/179/193 138/181/193 65/93/193
f 138/181/194 64/92/194 65/93/194
f 63/91/195 39/64/195 137/180/195
f 39/64/196 38/63/196 137/180/196
f 137/180/197 38/63/197 138/181/197
f 38/63/198 37/62/198 138/181/198
f 138/181/199 37/62/199 64/92/199
f 37/62/200 4/9/200 64/92/200
f 55/80/201 60/88/201 8/14/201
f 56/81/202 139/182/202 55/80/202
f 57/82/203 140/183/203 56/81/203
f 55/80/204 139/182/204 60/88/204
f 139/182/205 59/86/205 60/88/205
f 56/81/206 140/183/206 139/182/206
f 140/183/207 141/184/207 139/182/207
f 139/182/208 141/184/208 59/86/208
f 141/184/209 58/84/209 59/86/209
f 57/82/210 33/55/210 140/183/210
f 33/55/211 32/54/211 140/183/211
f 140/183/212 32/54/212 141/184/212
f 32/54/213 31/53/213 141/184/213
f 141/184/214 31/53/214 58/84/214
f 31/53/215 3/7/215 58/84/215
f 49/74/216 54/79/216 7/12/216
f 50/75/217 142/185/217 49/74/217
f 51/76/218 143/186/218 50/75/218
f 49/74/219 142/185/219 54/79/219
f 142/185/220 53/78/220 54/79/220
f 50/75/221 143/186/221 142/185/221
f 143/186/222 144/187/222 142/185/222
f 142/185/223 144/187/223 53/78/223
f 144/187/224 52/77/224 53/78/224
f 51/76/225 21/37/225 143/186/225
f 21/37/226 20/36/226 143/186/226
f 143/186/227 20/36/227 144/187/227
f 20/36/228 19/35/228 144/187/228
f 144/187/229 19/35/229 52/77/229
f 19/35/230 2/6/230 52/77/230
f 43/68/231 48/73/231 11/17/231
f 44/69/232 145/188/232 43/68/232
f 45/70/233 146/189/233 44/69/233
f 43/68/234 145/188/234 48/73/234
f 145/188/235 47/72/235 48/73/235
f 44/69/236 146/189/236 145/188/236
f 146/189/237 147/190/237 145/188/237
f 145/188/238 147/190/238 47/72/238
f 147/190/239 46/71/239 47/72/239
f 45/70/240 24/40/240 146/189/240
f 24/40/241 23/39/241 146/189/241
f 146/189/242 23/39/242 147/190/242
f 23/39/243 22/38/243 147/190/243
f 147/190/244 22/38/244 46/71/244
f 22/38/245 6/11/245 46/71/245
f 27/45/246 42/67/246 6/11/246
f 26/43/247 148/191/247 27/45/247
f 25/41/248 149/192/248 26/43/248
f 27/45/249 148/191/249 42/67/249
f 148/191/250 41/66/250 42/67/250
f 26/43/251 149/192/251 148/191/251
f 149/192/252 150/193/252 148/191/252
f 148/191/253 150/193/253 41/66/253
f 150/193/254 40/65/254 41/66/254
f 25/41/255 36/60/255 149/192/255
f 36/60/256 35/58/256 149/192/256
f 149/192/257 35/58/257 150/193/257
f 35/58/258 34/56/258 150/193/258
f 150/193/259 34/56/259 40/65/259
f 34/56/260 5/10/260 40/65/260
f 34/57/261 39/64/261 5/10/261
f 35/59/262 151/194/262 34/57/262
f 36/61/263 152/195/263 35/59/263
f 34/57/264 151/194/264 39/64/264
f 151/194/265 38/63/265 39/64/265
f 35/59/266 152/195/266 151/194/266
f 152/195/267 153/196/267 151/194/267
f 151/194/268 153/196/268 38/63/268
f 153/196/269 37/62/269 38/63/269
f 36/61/270 30/51/270 152/195/270
f 30/51/271 29/49/271 152/195/271
f 152/195/272 29/49/272 153/196/272
f 29/49/273 28/47/273 153/196/273
f 153/196/274 28/47/274 37/62/274
f 28/47/275 4/9/275 37/62/275
f 28/48/276 33/55/276 4/9/276
f 29/50/277 154/197/277 28/48/277
f 30/52/278 155/198/278 29/50/278
f 28/48/279 154/197/279 33/55/279
f 154/197/280 32/54/280 33/55/280
f 29/50/281 155/198/281 154/197/281
f 155/198/282 156/199/282 154/197/282
f 154/197/283 156/199/283 32/54/283
f 156/199/284 31/53/284 32/54/284
f 30/52/285 15/27/285 155/198/285
f 15/27/286 14/25/286 155/198/286
f 155/198/287 14/25/287 156/199/287
f 14/25/288 13/23/288 156/199/288
f 156/199/289 13/23/289 31/53/289
f 13/23/290 3/7/290 31/53/290
f 22/38/291 27/46/291 6/11/291
f 23/39/292 157/200/292 22/38/292
f 24/40/293 158/201/293 23/39/293
f 22/38/294 157/200/294 27/46/294
f 157/200/295 26/44/295 27/46/295
f 23/39/296 158/201/296 157/200/296
f 158/201/297 159/202/297 157/200/297
f 157/200/298 159/202/298 26/44/298
f 159/202/299 25/42/299 26/44/299
f 24/40/300 18/33/300 158/201/300
f 18/33/301 17/31/301 158/201/301
f 158/201/302 17/31/302 159/202/302
f 17/31/303 16/29/303 159/202/303
f 159/202/304 16/29/304 25/42/304
f 16/29/305 1/5/305 25/42/305
f 13/24/306 21/37/306 3/8/306
f 14/26/307 160/203/307 13/24/307
f 15/28/308 161/204/308 14/26/308
f 13/24/309 160/203/309 21/37/309
f 160/203/310 20/36/310 21/37/310
f 14/26/311 161/204/311 160/203/311
f 161/204/312 162/205/312 160/203/312
f 160/203/313 162/205/313 20/36/313
f 162/205/314 19/35/314 20/36/314
f 15/28/315 16/30/315 161/204/315
f 16/30/316 17/32/316 161/204/316
f 161/204/317 17/32/317 162/205/317
f 17/32/318 18/34/318 162/205/318
f 162/205/319 18/34/319 19/35/319
f 18/34/320 2/6/320 19/35/320
