# Blender 3.3.1
# www.blender.org
o vehicle-vintage-racer
v 0.125000 -0.100000 0.262500
v -0.125000 -0.100000 0.262500
v 0.125000 0.100000 0.262500
v -0.125000 0.100000 0.262500
v -0.125000 -0.125000 0.062500
v 0.125000 -0.125000 0.062500
v -0.125000 0.125000 0.062500
v 0.125000 0.125000 0.062500
v 0.125000 -0.125000 0.237500
v -0.125000 -0.125000 0.237500
v 0.125000 0.125000 0.237500
v -0.125000 0.125000 0.237500
v -0.437500 -0.093750 0.087500
v -0.437500 0.093750 0.087500
v -0.437500 -0.093750 0.218750
v -0.437500 0.093750 0.218750
v -0.437500 -0.075000 0.237500
v -0.437500 0.075000 0.237500
v 0.100000 -0.200000 0.265451
v 0.050000 -0.200000 0.265451
v 0.100000 -0.125000 0.265451
v 0.050000 -0.125000 0.265451
v 0.050000 -0.200000 0.190451
v 0.100000 -0.200000 0.190451
v 0.050000 -0.125000 0.190451
v 0.100000 -0.125000 0.190451
v 0.125000 -0.125000 0.240451
v 0.125000 -0.200000 0.240451
v 0.125000 -0.125000 0.215451
v 0.125000 -0.200000 0.215451
v 0.100000 0.125000 0.262500
v 0.050000 0.125000 0.262500
v 0.100000 0.200000 0.262500
v 0.050000 0.200000 0.262500
v 0.050000 0.125000 0.187500
v 0.100000 0.125000 0.187500
v 0.050000 0.200000 0.187500
v 0.100000 0.200000 0.187500
v 0.125000 0.200000 0.237500
v 0.125000 0.125000 0.237500
v 0.125000 0.200000 0.212500
v 0.125000 0.125000 0.212500
v -0.125000 -0.125000 0.187500
v 0.125000 -0.125000 0.187500
v -0.125000 -0.187500 0.187500
v 0.125000 -0.187500 0.187500
v -0.125000 -0.250000 0.062500
v -0.125000 -0.250000 0.125000
v -0.125000 -0.231694 0.169194
v 0.125000 -0.250000 0.062500
v 0.125000 -0.250000 0.125000
v 0.125000 -0.231694 0.169194
v 0.375000 -0.175000 0.062500
v 0.375000 0.175000 0.062500
v 0.375000 -0.175000 0.187500
v 0.375000 0.175000 0.187500
v 0.437500 0.112500 0.062500
v 0.437500 -0.112500 0.062500
v 0.437500 0.112500 0.187500
v 0.437500 -0.112500 0.187500
v 0.419194 -0.156694 0.187500
v 0.419194 -0.156694 0.062500
v 0.419194 0.156694 0.062500
v 0.419194 0.156694 0.187500
v -0.281250 -0.150000 0.093750
v -0.218750 -0.150000 0.093750
v -0.281250 0.150000 0.093750
v -0.218750 0.150000 0.093750
v -0.281250 -0.150000 0.156250
v -0.281250 0.150000 0.156250
v -0.218750 -0.150000 0.156250
v -0.218750 0.150000 0.156250
v 0.218750 -0.150000 0.093750
v 0.281250 -0.150000 0.093750
v 0.218750 0.150000 0.093750
v 0.281250 0.150000 0.093750
v 0.218750 -0.150000 0.156250
v 0.218750 0.150000 0.156250
v 0.281250 -0.150000 0.156250
v 0.281250 0.150000 0.156250
v 0.375000 -0.100000 0.262500
v 0.375000 0.100000 0.262500
v 0.375000 -0.125000 0.062500
v 0.375000 0.125000 0.062500
v 0.375000 -0.125000 0.237500
v 0.375000 0.125000 0.237500
v 0.125000 0.125000 0.187500
v -0.125000 0.125000 0.187500
v 0.125000 0.187500 0.187500
v -0.125000 0.187500 0.187500
v 0.125000 0.250000 0.062500
v 0.125000 0.250000 0.125000
v 0.125000 0.231694 0.169194
v -0.125000 0.250000 0.062500
v -0.125000 0.250000 0.125000
v -0.125000 0.231694 0.169194
v 0.025000 -0.100000 0.262500
v 0.025000 0.100000 0.262500
v 0.025000 -0.100000 0.293750
v 0.025000 0.100000 0.293750
v 0.100000 -0.100000 0.325000
v 0.100000 -0.100000 0.262500
v 0.125000 0.075000 0.262500
v 0.125000 -0.075000 0.262500
v 0.125000 0.075000 0.325000
v 0.125000 -0.075000 0.325000
v 0.100000 0.100000 0.262500
v 0.100000 0.100000 0.325000
v 0.349784 -0.150000 0.125000
v 0.346384 -0.150000 0.150826
v 0.346384 -0.150000 0.099174
v 0.336416 -0.150000 0.075108
v 0.336416 -0.150000 0.174892
v 0.320558 -0.150000 0.054442
v 0.320558 -0.150000 0.195558
v 0.299892 -0.150000 0.211416
v 0.299892 -0.150000 0.038584
v 0.275826 -0.150000 0.028616
v 0.275826 -0.150000 0.221384
v 0.250000 -0.150000 0.025216
v 0.250000 -0.150000 0.224784
v 0.224174 -0.150000 0.028616
v 0.224174 -0.150000 0.221384
v 0.200108 -0.150000 0.038584
v 0.200108 -0.150000 0.211416
v 0.179442 -0.150000 0.054442
v 0.179442 -0.150000 0.195558
v 0.163584 -0.150000 0.075108
v 0.163584 -0.150000 0.174892
v 0.153616 -0.150000 0.099174
v 0.153616 -0.150000 0.150826
v 0.150216 -0.150000 0.125000
v 0.212417 -0.250000 0.125000
v 0.190345 -0.275000 0.125000
v 0.223425 -0.250000 0.151575
v 0.207818 -0.275000 0.167182
v 0.250000 -0.275000 0.184655
v 0.292182 -0.275000 0.167182
v 0.250000 -0.250000 0.162583
v 0.276575 -0.250000 0.151575
v 0.250000 -0.275000 0.065345
v 0.207818 -0.275000 0.082818
v 0.250000 -0.250000 0.087417
v 0.223425 -0.250000 0.098425
v 0.292182 -0.275000 0.082818
v 0.276575 -0.250000 0.098425
v 0.309655 -0.275000 0.125000
v 0.287582 -0.250000 0.125000
v 0.153616 -0.275000 0.150826
v 0.163584 -0.275000 0.174892
v 0.150216 -0.275000 0.125000
v 0.179442 -0.275000 0.195558
v 0.200108 -0.275000 0.211416
v 0.224174 -0.275000 0.221384
v 0.250000 -0.275000 0.224784
v 0.275826 -0.275000 0.221384
v 0.299892 -0.275000 0.211416
v 0.320558 -0.275000 0.195558
v 0.336416 -0.275000 0.174892
v 0.346384 -0.275000 0.150826
v 0.349784 -0.275000 0.125000
v 0.346384 -0.275000 0.099174
v 0.336416 -0.275000 0.075108
v 0.320558 -0.275000 0.054442
v 0.299892 -0.275000 0.038584
v 0.275826 -0.275000 0.028616
v 0.250000 -0.275000 0.025216
v 0.224174 -0.275000 0.028616
v 0.200108 -0.275000 0.038584
v 0.179442 -0.275000 0.054442
v 0.163584 -0.275000 0.075108
v 0.153616 -0.275000 0.099174
v 0.129259 -0.250000 0.157352
v 0.141747 -0.250000 0.187500
v 0.161612 -0.250000 0.036612
v 0.187500 -0.250000 0.016747
v 0.200108 -0.275000 0.038584
v 0.217648 -0.250000 0.245741
v 0.250000 -0.250000 0.250000
v 0.224174 -0.275000 0.221384
v 0.338388 -0.250000 0.213388
v 0.358253 -0.250000 0.187500
v 0.275826 -0.275000 0.221384
v 0.282352 -0.250000 0.245741
v 0.299892 -0.275000 0.211416
v 0.312500 -0.250000 0.233253
v 0.217648 -0.250000 0.004259
v 0.224174 -0.275000 0.028616
v 0.250000 -0.250000 0.000000
v 0.250000 -0.275000 0.025216
v 0.336416 -0.275000 0.075108
v 0.358253 -0.250000 0.062500
v 0.370741 -0.250000 0.092648
v 0.338388 -0.250000 0.036612
v 0.187500 -0.250000 0.233253
v 0.200108 -0.275000 0.211416
v 0.161612 -0.250000 0.213388
v 0.299892 -0.150000 0.211416
v 0.312500 -0.175000 0.233253
v 0.338388 -0.175000 0.213388
v 0.217648 -0.175000 0.245741
v 0.250000 -0.175000 0.250000
v 0.338388 -0.175000 0.036612
v 0.336416 -0.150000 0.075108
v 0.358253 -0.175000 0.062500
v 0.129259 -0.175000 0.157352
v 0.141747 -0.175000 0.187500
v 0.129259 -0.250000 0.092648
v 0.370741 -0.250000 0.157352
v 0.282352 -0.250000 0.004259
v 0.275826 -0.275000 0.028616
v 0.217648 -0.175000 0.004259
v 0.187500 -0.175000 0.016747
v 0.370741 -0.175000 0.092648
v 0.375000 -0.175000 0.125000
v 0.375000 -0.250000 0.125000
v 0.141747 -0.250000 0.062500
v 0.163584 -0.275000 0.075108
v 0.161612 -0.175000 0.036612
v 0.275826 -0.150000 0.221384
v 0.282352 -0.175000 0.245741
v 0.299892 -0.150000 0.038584
v 0.312500 -0.175000 0.016747
v 0.129259 -0.175000 0.092648
v 0.141747 -0.175000 0.062500
v 0.163584 -0.150000 0.075108
v 0.370741 -0.175000 0.157352
v 0.282352 -0.175000 0.004259
v 0.250000 -0.175000 0.000000
v 0.161612 -0.175000 0.213388
v 0.187500 -0.175000 0.233253
v 0.200108 -0.150000 0.211416
v 0.275826 -0.150000 0.028616
v 0.358253 -0.175000 0.187500
v 0.200108 -0.150000 0.038584
v 0.299892 -0.275000 0.038584
v 0.312500 -0.250000 0.016747
v 0.224174 -0.150000 0.028616
v 0.125000 -0.175000 0.125000
v 0.224174 -0.150000 0.221384
v 0.250000 -0.150000 0.025216
v 0.349784 0.150000 0.125000
v 0.346384 0.150000 0.099174
v 0.346384 0.150000 0.150826
v 0.336416 0.150000 0.174892
v 0.336416 0.150000 0.075108
v 0.320558 0.150000 0.195558
v 0.320558 0.150000 0.054442
v 0.299892 0.150000 0.211416
v 0.299892 0.150000 0.038584
v 0.275826 0.150000 0.221384
v 0.275826 0.150000 0.028616
v 0.250000 0.150000 0.224784
v 0.250000 0.150000 0.025216
v 0.224174 0.150000 0.221384
v 0.224174 0.150000 0.028616
v 0.200108 0.150000 0.211416
v 0.200108 0.150000 0.038584
v 0.179442 0.150000 0.195558
v 0.179442 0.150000 0.054442
v 0.163584 0.150000 0.075108
v 0.163584 0.150000 0.174892
v 0.153616 0.150000 0.150826
v 0.153616 0.150000 0.099174
v 0.150216 0.150000 0.125000
v 0.287582 0.250000 0.125000
v 0.309655 0.275000 0.125000
v 0.276575 0.250000 0.151575
v 0.292182 0.275000 0.167182
v 0.223425 0.250000 0.151575
v 0.250000 0.250000 0.162583
v 0.207818 0.275000 0.167182
v 0.250000 0.275000 0.184655
v 0.276575 0.250000 0.098425
v 0.250000 0.250000 0.087417
v 0.292182 0.275000 0.082818
v 0.250000 0.275000 0.065345
v 0.212417 0.250000 0.125000
v 0.190345 0.275000 0.125000
v 0.223425 0.250000 0.098425
v 0.207818 0.275000 0.082818
v 0.153616 0.275000 0.150826
v 0.150216 0.275000 0.125000
v 0.163584 0.275000 0.174892
v 0.179442 0.275000 0.195558
v 0.200108 0.275000 0.211416
v 0.224174 0.275000 0.221384
v 0.250000 0.275000 0.224784
v 0.275826 0.275000 0.221384
v 0.299892 0.275000 0.211416
v 0.320558 0.275000 0.195558
v 0.336416 0.275000 0.174892
v 0.346384 0.275000 0.150826
v 0.349784 0.275000 0.125000
v 0.346384 0.275000 0.099174
v 0.336416 0.275000 0.075108
v 0.320558 0.275000 0.054442
v 0.299892 0.275000 0.038584
v 0.275826 0.275000 0.028616
v 0.250000 0.275000 0.025216
v 0.224174 0.275000 0.028616
v 0.200108 0.275000 0.038584
v 0.179442 0.275000 0.054442
v 0.163584 0.275000 0.075108
v 0.153616 0.275000 0.099174
v 0.370741 0.250000 0.157352
v 0.358253 0.250000 0.187500
v 0.338388 0.250000 0.036612
v 0.312500 0.250000 0.016747
v 0.299892 0.275000 0.038584
v 0.282352 0.250000 0.245741
v 0.250000 0.250000 0.250000
v 0.275826 0.275000 0.221384
v 0.161612 0.250000 0.213388
v 0.141747 0.250000 0.187500
v 0.224174 0.275000 0.221384
v 0.217648 0.250000 0.245741
v 0.200108 0.275000 0.211416
v 0.187500 0.250000 0.233253
v 0.282352 0.250000 0.004259
v 0.275826 0.275000 0.028616
v 0.250000 0.250000 0.000000
v 0.250000 0.275000 0.025216
v 0.163584 0.275000 0.075108
v 0.141747 0.250000 0.062500
v 0.129259 0.250000 0.092648
v 0.161612 0.250000 0.036612
v 0.312500 0.250000 0.233253
v 0.299892 0.275000 0.211416
v 0.338388 0.250000 0.213388
v 0.375000 0.250000 0.125000
v 0.200108 0.150000 0.211416
v 0.187500 0.175000 0.233253
v 0.161612 0.175000 0.213388
v 0.282352 0.175000 0.245741
v 0.250000 0.175000 0.250000
v 0.161612 0.175000 0.036612
v 0.163584 0.150000 0.075108
v 0.141747 0.175000 0.062500
v 0.370741 0.175000 0.157352
v 0.358253 0.175000 0.187500
v 0.370741 0.250000 0.092648
v 0.129259 0.250000 0.157352
v 0.217648 0.250000 0.004259
v 0.224174 0.275000 0.028616
v 0.282352 0.175000 0.004259
v 0.312500 0.175000 0.016747
v 0.129259 0.175000 0.092648
v 0.125000 0.175000 0.125000
v 0.358253 0.250000 0.062500
v 0.336416 0.275000 0.075108
v 0.338388 0.175000 0.036612
v 0.224174 0.150000 0.221384
v 0.217648 0.175000 0.245741
v 0.200108 0.150000 0.038584
v 0.187500 0.175000 0.016747
v 0.370741 0.175000 0.092648
v 0.358253 0.175000 0.062500
v 0.336416 0.150000 0.075108
v 0.129259 0.175000 0.157352
v 0.217648 0.175000 0.004259
v 0.250000 0.175000 0.000000
v 0.338388 0.175000 0.213388
v 0.312500 0.175000 0.233253
v 0.299892 0.150000 0.211416
v 0.224174 0.150000 0.028616
v 0.141747 0.175000 0.187500
v 0.299892 0.150000 0.038584
v 0.200108 0.275000 0.038584
v 0.187500 0.250000 0.016747
v 0.275826 0.150000 0.028616
v 0.375000 0.175000 0.125000
v 0.275826 0.150000 0.221384
v 0.250000 0.150000 0.025216
v -0.250000 -0.275000 0.184655
v -0.250000 -0.250000 0.162582
v -0.292182 -0.275000 0.167182
v -0.276575 -0.250000 0.151575
v -0.346384 -0.275000 0.099174
v -0.349784 -0.275000 0.125000
v -0.336416 -0.275000 0.075108
v -0.320558 -0.275000 0.054442
v -0.309655 -0.275000 0.125000
v -0.299892 -0.275000 0.038584
v -0.292182 -0.275000 0.082818
v -0.275826 -0.275000 0.028616
v -0.250000 -0.275000 0.065345
v -0.250000 -0.275000 0.025216
v -0.224174 -0.275000 0.028616
v -0.207818 -0.275000 0.082818
v -0.200108 -0.275000 0.038584
v -0.190345 -0.275000 0.125000
v -0.179442 -0.275000 0.054442
v -0.163584 -0.275000 0.075108
v -0.153616 -0.275000 0.099174
v -0.150216 -0.275000 0.125000
v -0.153616 -0.275000 0.150826
v -0.163584 -0.275000 0.174892
v -0.179442 -0.275000 0.195558
v -0.200108 -0.275000 0.211416
v -0.207818 -0.275000 0.167182
v -0.224174 -0.275000 0.221384
v -0.250000 -0.275000 0.224784
v -0.275826 -0.275000 0.221384
v -0.299892 -0.275000 0.211416
v -0.320558 -0.275000 0.195558
v -0.336416 -0.275000 0.174892
v -0.346384 -0.275000 0.150826
v -0.287582 -0.250000 0.125000
v -0.223425 -0.250000 0.098425
v -0.212417 -0.250000 0.125000
v -0.250000 -0.250000 0.087417
v -0.276575 -0.250000 0.098425
v -0.223425 -0.250000 0.151575
v -0.150216 -0.150000 0.125000
v -0.153616 -0.150000 0.150826
v -0.153616 -0.150000 0.099174
v -0.163584 -0.150000 0.075108
v -0.163584 -0.150000 0.174892
v -0.179442 -0.150000 0.054442
v -0.179442 -0.150000 0.195558
v -0.200108 -0.150000 0.211416
v -0.200108 -0.150000 0.038584
v -0.224174 -0.150000 0.028616
v -0.224174 -0.150000 0.221384
v -0.250000 -0.150000 0.025216
v -0.250000 -0.150000 0.224784
v -0.275826 -0.150000 0.028616
v -0.275826 -0.150000 0.221384
v -0.299892 -0.150000 0.038584
v -0.299892 -0.150000 0.211416
v -0.320558 -0.150000 0.054442
v -0.320558 -0.150000 0.195558
v -0.336416 -0.150000 0.075108
v -0.336416 -0.150000 0.174892
v -0.346384 -0.150000 0.099174
v -0.346384 -0.150000 0.150826
v -0.349784 -0.150000 0.125000
v -0.370741 -0.250000 0.157352
v -0.358253 -0.250000 0.187500
v -0.338388 -0.250000 0.036612
v -0.312500 -0.250000 0.016747
v -0.299892 -0.275000 0.038584
v -0.282352 -0.250000 0.245741
v -0.250000 -0.250000 0.250000
v -0.275826 -0.275000 0.221384
v -0.161612 -0.250000 0.213388
v -0.141747 -0.250000 0.187500
v -0.224174 -0.275000 0.221384
v -0.217648 -0.250000 0.245741
v -0.200108 -0.275000 0.211416
v -0.187500 -0.250000 0.233253
v -0.282352 -0.250000 0.004259
v -0.275826 -0.275000 0.028616
v -0.250000 -0.250000 -0.000000
v -0.250000 -0.275000 0.025216
v -0.163584 -0.275000 0.075108
v -0.141747 -0.250000 0.062500
v -0.129259 -0.250000 0.092648
v -0.161612 -0.250000 0.036612
v -0.312500 -0.250000 0.233253
v -0.299892 -0.275000 0.211416
v -0.338388 -0.250000 0.213388
v -0.375000 -0.250000 0.125000
v -0.200108 -0.150000 0.211416
v -0.187500 -0.175000 0.233253
v -0.161612 -0.175000 0.213388
v -0.282352 -0.175000 0.245741
v -0.250000 -0.175000 0.250000
v -0.161612 -0.175000 0.036612
v -0.163584 -0.150000 0.075108
v -0.141747 -0.175000 0.062500
v -0.370741 -0.175000 0.157352
v -0.358253 -0.175000 0.187500
v -0.370741 -0.250000 0.092648
v -0.129259 -0.250000 0.157352
v -0.217648 -0.250000 0.004259
v -0.224174 -0.275000 0.028616
v -0.282352 -0.175000 0.004259
v -0.312500 -0.175000 0.016747
v -0.129259 -0.175000 0.092648
v -0.125000 -0.175000 0.125000
v -0.358253 -0.250000 0.062500
v -0.336416 -0.275000 0.075108
v -0.338388 -0.175000 0.036612
v -0.224174 -0.150000 0.221384
v -0.217648 -0.175000 0.245741
v -0.200108 -0.150000 0.038584
v -0.187500 -0.175000 0.016747
v -0.370741 -0.175000 0.092648
v -0.358253 -0.175000 0.062500
v -0.336416 -0.150000 0.075108
v -0.129259 -0.175000 0.157352
v -0.217648 -0.175000 0.004259
v -0.250000 -0.175000 -0.000000
v -0.338388 -0.175000 0.213388
v -0.312500 -0.175000 0.233253
v -0.299892 -0.150000 0.211416
v -0.224174 -0.150000 0.028616
v -0.141747 -0.175000 0.187500
v -0.299892 -0.150000 0.038584
v -0.200108 -0.275000 0.038584
v -0.187500 -0.250000 0.016747
v -0.275826 -0.150000 0.028616
v -0.375000 -0.175000 0.125000
v -0.275826 -0.150000 0.221384
v -0.250000 -0.150000 0.025216
v -0.150216 0.150000 0.125000
v -0.153616 0.150000 0.099174
v -0.153616 0.150000 0.150826
v -0.163584 0.150000 0.174892
v -0.163584 0.150000 0.075108
v -0.179442 0.150000 0.195558
v -0.179442 0.150000 0.054442
v -0.200108 0.150000 0.211416
v -0.200108 0.150000 0.038584
v -0.224174 0.150000 0.221384
v -0.224174 0.150000 0.028616
v -0.250000 0.150000 0.224784
v -0.250000 0.150000 0.025216
v -0.275826 0.150000 0.221384
v -0.275826 0.150000 0.028616
v -0.299892 0.150000 0.211416
v -0.299892 0.150000 0.038584
v -0.320558 0.150000 0.195558
v -0.320558 0.150000 0.054442
v -0.336416 0.150000 0.075108
v -0.336416 0.150000 0.174892
v -0.346384 0.150000 0.150826
v -0.346384 0.150000 0.099174
v -0.349784 0.150000 0.125000
v -0.276575 0.250000 0.151575
v -0.250000 0.250000 0.162582
v -0.292182 0.275000 0.167182
v -0.250000 0.275000 0.184655
v -0.223425 0.250000 0.098425
v -0.250000 0.250000 0.087417
v -0.207818 0.275000 0.082818
v -0.250000 0.275000 0.065345
v -0.190345 0.275000 0.125000
v -0.212418 0.250000 0.125000
v -0.287583 0.250000 0.125000
v -0.309655 0.275000 0.125000
v -0.292182 0.275000 0.082818
v -0.276575 0.250000 0.098425
v -0.223425 0.250000 0.151575
v -0.207818 0.275000 0.167182
v -0.346384 0.275000 0.099174
v -0.336416 0.275000 0.075108
v -0.349784 0.275000 0.125000
v -0.320558 0.275000 0.054442
v -0.299892 0.275000 0.038584
v -0.275826 0.275000 0.028616
v -0.250000 0.275000 0.025216
v -0.224174 0.275000 0.028616
v -0.200108 0.275000 0.038584
v -0.179442 0.275000 0.054442
v -0.163584 0.275000 0.075108
v -0.153616 0.275000 0.099174
v -0.150216 0.275000 0.125000
v -0.153616 0.275000 0.150826
v -0.163584 0.275000 0.174892
v -0.179442 0.275000 0.195558
v -0.200108 0.275000 0.211416
v -0.224174 0.275000 0.221384
v -0.250000 0.275000 0.224784
v -0.275826 0.275000 0.221384
v -0.299892 0.275000 0.211416
v -0.320558 0.275000 0.195558
v -0.336416 0.275000 0.174892
v -0.346384 0.275000 0.150826
v -0.129259 0.250000 0.157352
v -0.141747 0.250000 0.187500
v -0.161612 0.250000 0.036612
v -0.187500 0.250000 0.016747
v -0.200108 0.275000 0.038584
v -0.217648 0.250000 0.245741
v -0.250000 0.250000 0.250000
v -0.224174 0.275000 0.221384
v -0.338388 0.250000 0.213388
v -0.358253 0.250000 0.187500
v -0.275826 0.275000 0.221384
v -0.282352 0.250000 0.245741
v -0.299892 0.275000 0.211416
v -0.312500 0.250000 0.233253
v -0.217648 0.250000 0.004259
v -0.224174 0.275000 0.028616
v -0.250000 0.250000 -0.000000
v -0.250000 0.275000 0.025216
v -0.336416 0.275000 0.075108
v -0.358253 0.250000 0.062500
v -0.370741 0.250000 0.092648
v -0.338388 0.250000 0.036612
v -0.187500 0.250000 0.233253
v -0.200108 0.275000 0.211416
v -0.161612 0.250000 0.213388
v -0.299892 0.150000 0.211416
v -0.312500 0.175000 0.233253
v -0.338388 0.175000 0.213388
v -0.217648 0.175000 0.245741
v -0.250000 0.175000 0.250000
v -0.338388 0.175000 0.036612
v -0.336416 0.150000 0.075108
v -0.358253 0.175000 0.062500
v -0.129259 0.175000 0.157352
v -0.141747 0.175000 0.187500
v -0.129259 0.250000 0.092648
v -0.370741 0.250000 0.157352
v -0.282352 0.250000 0.004259
v -0.275826 0.275000 0.028616
v -0.217648 0.175000 0.004259
v -0.187500 0.175000 0.016747
v -0.370741 0.175000 0.092648
v -0.375000 0.175000 0.125000
v -0.375000 0.250000 0.125000
v -0.141747 0.250000 0.062500
v -0.163584 0.275000 0.075108
v -0.161612 0.175000 0.036612
v -0.275826 0.150000 0.221384
v -0.282352 0.175000 0.245741
v -0.299892 0.150000 0.038584
v -0.312500 0.175000 0.016747
v -0.129259 0.175000 0.092648
v -0.141747 0.175000 0.062500
v -0.163584 0.150000 0.075108
v -0.370741 0.175000 0.157352
v -0.282352 0.175000 0.004259
v -0.250000 0.175000 -0.000000
v -0.161612 0.175000 0.213388
v -0.187500 0.175000 0.233253
v -0.200108 0.150000 0.211416
v -0.275826 0.150000 0.028616
v -0.358253 0.175000 0.187500
v -0.200108 0.150000 0.038584
v -0.299892 0.275000 0.038584
v -0.312500 0.250000 0.016747
v -0.224174 0.150000 0.028616
v -0.125000 0.175000 0.125000
v -0.224174 0.150000 0.221384
v -0.250000 0.150000 0.025216
vn -0.0000 0.3827 0.9239
vn -0.0000 -0.3827 0.9239
vn -0.0000 -0.0000 -1.0000
vn -0.0000 -0.9239 0.3827
vn -0.0000 -1.0000 -0.0000
vn -0.0000 1.0000 -0.0000
vn -0.0000 0.9239 0.3827
vn -1.0000 -0.0000 -0.0000
vn -0.0797 -0.0000 -0.9968
vn -0.0995 0.9950 -0.0000
vn -0.1146 0.9163 0.3838
vn -0.1145 0.9194 0.3762
vn -0.1145 -0.9194 0.3762
vn -0.0995 -0.9950 -0.0000
vn -0.1146 -0.9163 0.3838
vn -0.1044 0.3899 0.9149
vn -0.1035 -0.3706 0.9230
vn -0.1044 -0.3899 0.9149
vn -0.1035 0.3706 0.9230
vn 0.3827 -0.0000 0.9239
vn -0.0000 -0.0000 1.0000
vn 0.3827 -0.0000 -0.9239
vn 0.9239 -0.0000 0.3827
vn 0.9239 -0.0001 0.3827
vn 0.9239 -0.0000 -0.3827
vn -0.0000 -0.1951 0.9808
vn 1.0000 -0.0000 -0.0000
vn -0.0000 -0.9808 0.1951
vn -0.0000 -0.7071 0.7071
vn 0.0001 -0.1951 0.9808
vn -0.5556 -0.8315 -0.0000
vn -0.5556 0.8315 0.0001
vn -0.5556 0.8315 -0.0000
vn -0.5556 -0.8315 -0.0001
vn 0.9808 0.1951 -0.0000
vn 0.9808 -0.1951 -0.0000
vn 0.7071 -0.7071 -0.0000
vn 0.7071 0.7071 -0.0000
vn -0.7071 0.0001 -0.7071
vn 0.7071 0.0003 -0.7071
vn -0.7071 -0.0000 -0.7071
vn 0.7071 -0.0001 -0.7071
vn -0.7071 -0.0003 -0.7071
vn 0.7071 -0.0000 -0.7071
vn -0.7071 -0.0000 0.7071
vn -0.7071 0.0002 -0.7071
vn -0.7071 -0.0001 0.7071
vn -0.7071 -0.0002 0.7071
vn 0.7071 0.0001 0.7071
vn -0.7071 0.0003 0.7071
vn 0.7071 -0.0000 0.7071
vn 0.7071 -0.0003 0.7071
vn 0.7071 -0.0002 -0.7071
vn 0.7071 0.0002 0.7071
vn -0.0000 0.1951 0.9808
vn -0.0000 0.9808 0.1951
vn -0.0000 0.7071 0.7071
vn -0.0001 0.1951 0.9808
vn -0.8320 -0.0000 0.5547
vn 0.3827 -0.9239 -0.0000
vn 0.4369 -0.8995 -0.0000
vn 0.9239 0.3827 -0.0000
vn 0.9239 -0.3827 -0.0000
vn 0.3827 0.9239 -0.0000
vn 0.4369 0.8995 -0.0000
vn -0.2609 -0.0000 0.9654
vn -0.8321 -0.0000 0.5547
vn 0.5301 -0.6618 -0.5301
vn 0.7496 -0.6618 -0.0000
vn 0.7496 -0.6619 -0.0000
vn 0.5301 -0.6619 -0.5301
vn -0.0000 -0.6618 -0.7496
vn -0.5301 -0.6619 -0.5301
vn -0.0000 -0.6619 -0.7496
vn -0.5301 -0.6618 -0.5301
vn -0.0000 -0.6618 0.7496
vn 0.5301 -0.6619 0.5301
vn -0.0000 -0.6619 0.7496
vn 0.5301 -0.6618 0.5301
vn -0.7496 -0.6619 -0.0000
vn -0.5301 -0.6618 0.5301
vn -0.5301 -0.6619 0.5301
vn -0.7496 -0.6618 -0.0000
vn -0.6801 -0.7101 0.1822
vn -0.8033 -0.3738 0.4638
vn -0.8959 -0.3738 0.2401
vn -0.8033 -0.3737 0.4637
vn -0.6097 -0.7101 0.3520
vn -0.4638 -0.3738 -0.8033
vn -0.4978 -0.7101 -0.4979
vn -0.6559 -0.3738 -0.6559
vn -0.4978 -0.7101 -0.4978
vn -0.4637 -0.3738 -0.8033
vn -0.3520 -0.7101 -0.6097
vn -0.1822 -0.7101 0.6801
vn -0.0000 -0.3738 0.9275
vn -0.2401 -0.3738 0.8959
vn -0.0000 -0.7101 0.7041
vn 0.6097 -0.7101 0.3520
vn 0.6558 -0.3738 0.6559
vn 0.4978 -0.7101 0.4978
vn 0.6559 -0.3738 0.6559
vn 0.8033 -0.3738 0.4638
vn 0.3520 -0.7101 0.6097
vn 0.2400 -0.3738 0.8959
vn 0.1822 -0.7101 0.6801
vn 0.2401 -0.3738 0.8959
vn 0.4638 -0.3738 0.8033
vn -0.0000 -0.3738 -0.9275
vn -0.1822 -0.7101 -0.6801
vn -0.2401 -0.3738 -0.8959
vn -0.0000 -0.7101 -0.7041
vn 0.8032 -0.3738 -0.4638
vn 0.6801 -0.7101 -0.1822
vn 0.6097 -0.7101 -0.3520
vn 0.8033 -0.3738 -0.4638
vn 0.8959 -0.3738 -0.2401
vn 0.6558 -0.3738 -0.6559
vn 0.4978 -0.7101 -0.4978
vn 0.6559 -0.3738 -0.6559
vn -0.3520 -0.7101 0.6097
vn -0.4638 -0.3738 0.8033
vn -0.2400 -0.3738 0.8959
vn -0.6559 -0.3738 0.6558
vn -0.4978 -0.7101 0.4978
vn -0.6559 -0.3738 0.6559
vn -0.4638 -0.3737 0.8032
vn -0.4978 -0.7101 0.4979
vn -0.7041 -0.7101 -0.0000
vn -0.8959 -0.3738 0.2400
vn -0.9275 -0.3738 -0.0000
vn -0.8959 -0.3737 0.2400
vn 0.4637 0.3738 0.8033
vn 0.4978 0.7101 0.4979
vn 0.3520 0.7101 0.6097
vn 0.4978 0.7101 0.4978
vn 0.4638 0.3738 0.8033
vn 0.6559 0.3738 0.6559
vn -0.2400 -0.3737 0.8959
vn -0.0000 0.3737 0.9275
vn -0.2400 0.3737 0.8959
vn -0.2401 -0.3737 0.8959
vn -0.0000 -0.3737 0.9275
vn 0.6097 0.7101 -0.3520
vn 0.6558 0.3738 -0.6559
vn 0.4978 0.7101 -0.4978
vn 0.6559 0.3738 -0.6559
vn 0.8033 0.3738 -0.4638
vn -0.8033 0.3738 0.4638
vn -0.6801 0.7101 0.1822
vn -0.8959 0.3738 0.2401
vn -0.8033 0.3737 0.4637
vn -0.6097 0.7101 0.3520
vn -0.8959 -0.3738 -0.2400
vn -0.8959 -0.3738 -0.2401
vn -0.6801 -0.7101 -0.1822
vn 0.6801 -0.7101 0.1822
vn 0.8033 -0.3737 0.4637
vn 0.8959 -0.3738 0.2401
vn 0.2400 -0.3738 -0.8959
vn 0.2401 -0.3738 -0.8959
vn 0.1822 -0.7101 -0.6801
vn -0.2401 -0.3737 -0.8959
vn -0.4638 0.3737 -0.8033
vn -0.2401 0.3737 -0.8959
vn -0.4637 0.3737 -0.8033
vn -0.4637 -0.3737 -0.8033
vn 0.4637 -0.3738 0.8033
vn -0.2400 -0.3738 -0.8959
vn 0.6801 0.7101 -0.1822
vn 0.8032 0.3738 -0.4638
vn 0.8959 0.3738 -0.2401
vn 0.9275 0.3737 -0.0000
vn 0.8959 -0.3737 -0.2400
vn 0.8959 0.3737 -0.2400
vn 0.8959 -0.3737 -0.2401
vn 0.9275 -0.3737 -0.0000
vn -0.6097 -0.7101 -0.3520
vn -0.8033 -0.3738 -0.4638
vn -0.6558 -0.3738 -0.6559
vn -0.4638 -0.3737 -0.8032
vn -0.6559 0.3737 -0.6559
vn -0.4638 0.3737 -0.8032
vn -0.6558 0.3737 -0.6559
vn -0.4638 -0.3737 -0.8033
vn -0.6559 -0.3737 -0.6559
vn 0.2400 0.3738 0.8959
vn 0.1822 0.7101 0.6801
vn 0.2401 0.3738 0.8959
vn 0.4637 0.3738 -0.8033
vn 0.3520 0.7101 -0.6097
vn 0.4638 0.3738 -0.8033
vn 0.4978 0.7101 -0.4979
vn -0.6801 0.7101 -0.1822
vn -0.8033 0.3738 -0.4638
vn -0.8959 0.3738 -0.2401
vn -0.8032 0.3738 -0.4638
vn -0.6097 0.7101 -0.3520
vn 0.7041 0.7101 -0.0000
vn 0.8959 0.3738 -0.2400
vn 0.9275 0.3738 -0.0000
vn 0.8959 0.3737 0.2401
vn 0.8959 0.3737 0.2400
vn 0.8959 -0.3737 0.2400
vn 0.2400 -0.3737 -0.8959
vn -0.0000 0.3737 -0.9275
vn 0.2400 0.3737 -0.8959
vn 0.2401 -0.3737 -0.8959
vn -0.0000 -0.3737 -0.9275
vn -0.4638 0.3738 0.8033
vn -0.4978 0.7101 0.4978
vn -0.6559 0.3738 0.6559
vn -0.4978 0.7101 0.4979
vn -0.4637 0.3738 0.8033
vn -0.3520 0.7101 0.6097
vn 0.2400 0.3738 -0.8959
vn 0.1822 0.7101 -0.6801
vn 0.2401 0.3738 -0.8959
vn 0.6559 0.3737 0.6558
vn 0.6097 0.7101 0.3520
vn 0.8033 0.3738 0.4638
vn -0.4978 0.7101 -0.4979
vn -0.4638 0.3738 -0.8033
vn -0.6559 0.3738 -0.6559
vn -0.4637 0.3738 -0.8033
vn -0.4978 0.7101 -0.4978
vn -0.3520 0.7101 -0.6097
vn -0.2400 0.3737 -0.8959
vn -0.2400 -0.3737 -0.8959
vn 0.8033 0.3737 -0.4638
vn 0.6559 -0.3737 -0.6558
vn 0.6559 0.3737 -0.6559
vn 0.6559 -0.3737 -0.6559
vn 0.8032 0.3737 -0.4638
vn 0.8032 -0.3737 -0.4638
vn 0.6559 0.3737 0.6559
vn 0.8032 -0.3737 0.4638
vn 0.8032 0.3737 0.4638
vn 0.8033 -0.3737 0.4638
vn 0.6559 -0.3737 0.6559
vn 0.6801 0.7101 0.1822
vn 0.8959 0.3738 0.2400
vn 0.3520 -0.7101 -0.6097
vn 0.4638 -0.3738 -0.8033
vn 0.2401 0.3737 0.8959
vn 0.2400 0.3737 0.8959
vn 0.2400 -0.3737 0.8959
vn -0.8033 -0.3737 -0.4637
vn 0.7041 -0.7101 -0.0000
vn 0.8959 -0.3738 0.2400
vn 0.9275 -0.3738 -0.0000
vn -0.8033 -0.3737 0.4638
vn -0.8959 0.3737 0.2401
vn -0.8959 -0.3737 0.2401
vn -0.8033 0.3737 0.4638
vn -0.2401 0.3738 -0.8959
vn -0.2400 0.3738 -0.8959
vn -0.1822 0.7101 -0.6801
vn 0.4638 -0.3737 0.8032
vn 0.4638 0.3737 0.8032
vn 0.6558 0.3737 0.6559
vn 0.4638 -0.3737 0.8033
vn -0.9275 -0.3737 -0.0000
vn -0.8959 0.3737 -0.2400
vn -0.8959 -0.3737 -0.2400
vn -0.8959 0.3737 -0.2401
vn -0.9275 0.3737 -0.0000
vn 0.4637 -0.3738 -0.8033
vn -0.7041 0.7101 -0.0000
vn -0.8959 0.3738 -0.2400
vn -0.9275 0.3738 -0.0000
vn -0.8959 0.3737 0.2400
vn -0.6559 0.3738 0.6558
vn -0.8959 -0.3737 -0.2401
vn -0.8033 0.3737 -0.4637
vn -0.8033 -0.3737 -0.4638
vn -0.8033 0.3737 -0.4638
vn 0.4637 -0.3737 -0.8033
vn 0.2401 0.3737 -0.8959
vn 0.4637 0.3737 -0.8033
vn 0.4638 -0.3737 -0.8033
vn -0.6559 0.3737 -0.6558
vn -0.8032 -0.3737 -0.4638
vn -0.8032 0.3737 -0.4638
vn -0.4637 -0.3737 0.8033
vn -0.2401 0.3737 0.8959
vn -0.4638 0.3737 0.8033
vn -0.4638 -0.3737 0.8033
vn 0.6558 -0.3737 -0.6559
vn 0.4638 0.3737 -0.8033
vn 0.4638 0.3737 -0.8032
vn 0.4638 -0.3737 -0.8032
vn -0.0000 0.3738 0.9275
vn -0.1822 0.7101 0.6801
vn -0.2401 0.3738 0.8959
vn -0.0000 0.7101 0.7041
vn -0.0000 0.3738 -0.9275
vn -0.0000 0.7101 -0.7041
vn -0.6558 0.3738 -0.6559
vn 0.8033 0.3737 0.4638
vn 0.8959 -0.3737 0.2401
vn 0.8033 0.3737 0.4637
vn -0.2400 0.3738 0.8959
vn 0.8032 0.3738 0.4638
vn 0.8959 0.3738 0.2401
vn 0.2401 -0.3737 0.8959
vn 0.4638 0.3737 0.8033
vn 0.4637 0.3737 0.8033
vn -0.8959 0.3738 0.2400
vn 0.8959 0.3737 -0.2401
vn 0.8033 -0.3737 -0.4637
vn 0.8033 -0.3737 -0.4638
vn -0.6558 -0.3737 0.6559
vn -0.6559 0.3737 0.6559
vn -0.4638 0.3737 0.8032
vn -0.6559 -0.3737 0.6559
vn -0.8032 0.3737 0.4638
vn -0.8032 -0.3737 0.4638
vn -0.6559 -0.3737 0.6558
vn -0.5301 0.6619 -0.5301
vn -0.7496 0.6618 -0.0000
vn -0.7496 0.6619 -0.0000
vn -0.5301 0.6618 -0.5301
vn 0.5301 0.6618 -0.5301
vn -0.0000 0.6618 -0.7496
vn 0.5301 0.6619 -0.5301
vn -0.0000 0.6619 -0.7496
vn -0.5301 0.6618 0.5301
vn -0.0000 0.6618 0.7496
vn -0.5301 0.6619 0.5301
vn -0.0000 0.6619 0.7496
vn 0.7496 0.6618 -0.0000
vn 0.7496 0.6619 -0.0000
vn 0.5301 0.6618 0.5301
vn 0.5301 0.6619 0.5301
vn -0.6558 0.3738 0.6559
vn 0.6558 0.3738 0.6559
vn -0.4637 -0.3738 0.8033
vn 0.8032 -0.3738 0.4638
vn -0.8032 -0.3738 -0.4638
vn 0.4978 -0.7101 0.4979
vn 0.4978 -0.7101 -0.4979
vn 0.8959 -0.3738 -0.2400
vn -0.6558 -0.3738 0.6559
vn -0.8032 0.3738 0.4638
vn 0.6559 0.3738 0.6558
vn 0.8033 0.3737 -0.4637
vn 0.6559 -0.3738 0.6558
vn -0.8032 -0.3738 0.4638
vt 0.968750 0.475000
vt 0.218750 0.225000
vt 0.968750 0.475000
vt 0.968750 0.475000
vt 0.218750 0.225000
vt 0.968750 0.475000
vt 0.968750 0.275000
vt 0.218750 0.025000
vt 0.968750 0.275000
vt 0.218750 0.025000
vt 0.968750 0.275000
vt 0.218750 0.025000
vt 0.968750 0.275000
vt 0.218750 0.025000
vt 0.968750 0.450000
vt 0.218750 0.200000
vt 0.968750 0.450000
vt 0.968750 0.450000
vt 0.218750 0.200000
vt 0.968750 0.450000
vt 0.968750 0.300000
vt 0.968750 0.300000
vt 0.968750 0.431250
vt 0.968750 0.431250
vt 0.968750 0.450000
vt 0.968750 0.450000
vt 0.218750 0.225000
vt 0.218750 0.225000
vt 0.593750 0.225000
vt 0.218750 0.225000
vt 0.218750 0.225000
vt 0.593750 0.225000
vt 0.218750 0.025000
vt 0.593750 0.025000
vt 0.218750 0.025000
vt 0.218750 0.025000
vt 0.593750 0.025000
vt 0.218750 0.025000
vt 0.218750 0.158333
vt 0.218750 0.158333
vt 0.218750 0.091667
vt 0.218750 0.091667
vt 0.218750 0.225000
vt 0.218750 0.225000
vt 0.593750 0.225000
vt 0.218750 0.225000
vt 0.218750 0.225000
vt 0.593750 0.225000
vt 0.218750 0.025000
vt 0.593750 0.025000
vt 0.218750 0.025000
vt 0.218750 0.025000
vt 0.593750 0.025000
vt 0.218750 0.025000
vt 0.218750 0.158333
vt 0.218750 0.158333
vt 0.218750 0.091667
vt 0.218750 0.091667
vt 0.218750 0.225000
vt 0.218750 0.225000
vt 0.218750 0.225000
vt 0.218750 0.225000
vt 0.218750 0.025000
vt 0.218750 0.125000
vt 0.343750 0.175000
vt 0.218750 0.195711
vt 0.218750 0.025000
vt 0.218750 0.125000
vt 0.343750 0.175000
vt 0.218750 0.195711
vt 0.218750 0.025000
vt 0.218750 0.025000
vt 0.218750 0.225000
vt 0.218750 0.225000
vt 0.218750 0.025000
vt 0.218750 0.025000
vt 0.218750 0.225000
vt 0.218750 0.225000
vt 0.218750 0.225000
vt 0.218750 0.025000
vt 0.218750 0.025000
vt 0.218750 0.225000
vt 0.218750 0.025000
vt 0.218750 0.025000
vt 0.218750 0.025000
vt 0.218750 0.025000
vt 0.218750 0.225000
vt 0.218750 0.225000
vt 0.218750 0.225000
vt 0.218750 0.225000
vt 0.218750 0.025000
vt 0.218750 0.025000
vt 0.218750 0.025000
vt 0.218750 0.025000
vt 0.218750 0.225000
vt 0.218750 0.225000
vt 0.218750 0.225000
vt 0.218750 0.225000
vt 0.218750 0.225000
vt 0.218750 0.225000
vt 0.218750 0.025000
vt 0.218750 0.025000
vt 0.218750 0.200000
vt 0.218750 0.200000
vt 0.218750 0.225000
vt 0.218750 0.225000
vt 0.218750 0.225000
vt 0.218750 0.225000
vt 0.218750 0.025000
vt 0.218750 0.125000
vt 0.343750 0.175000
vt 0.218750 0.195711
vt 0.218750 0.025000
vt 0.218750 0.125000
vt 0.343750 0.175000
vt 0.218750 0.195711
vt 0.843750 0.325000
vt 0.843750 0.325000
vt 0.843750 0.375000
vt 0.843750 0.375000
vt 0.843750 0.425000
vt 0.843750 0.325000
vt 0.843750 0.325000
vt 0.843750 0.325000
vt 0.843750 0.425000
vt 0.843750 0.425000
vt 0.843750 0.325000
vt 0.843750 0.425000
vt 0.343750 0.025000
vt 0.343750 0.175000
vt 0.343750 0.076764
vt 0.343750 0.185330
vt 0.343750 0.025000
vt 0.343750 0.164670
vt 0.343750 0.025000
vt 0.343750 0.125000
vt 0.343750 0.194957
vt 0.343750 0.025000
vt 0.343750 0.146777
vt 0.343750 0.166421
vt 0.343750 0.203223
vt 0.343750 0.198205
vt 0.343750 0.025000
vt 0.343750 0.025000
vt 0.343750 0.218185
vt 0.343750 0.025000
vt 0.343750 0.225000
vt 0.343750 0.214914
vt 0.343750 0.025000
vt 0.343750 0.218185
vt 0.343750 0.025000
vt 0.343750 0.198205
vt 0.343750 0.025000
vt 0.343750 0.146777
vt 0.343750 0.166421
vt 0.343750 0.203223
vt 0.343750 0.025000
vt 0.343750 0.125000
vt 0.343750 0.194957
vt 0.343750 0.025000
vt 0.343750 0.164670
vt 0.343750 0.076764
vt 0.343750 0.185330
vt 0.343750 0.025000
vt 0.343750 0.175000
vt 0.343750 0.025000
vt 0.593750 0.025000
vt 0.343750 0.025000
vt 0.343750 0.078265
vt 0.593750 0.078265
vt 0.343750 0.109547
vt 0.343750 0.144568
vt 0.343750 0.109547
vt 0.343750 0.100328
vt 0.593750 0.100328
vt 0.343750 0.078265
vt 0.593750 0.078265
vt 0.343750 0.025000
vt 0.343750 0.025000
vt 0.343750 0.025000
vt 0.593750 0.025000
vt 0.343750 0.025000
vt 0.593750 0.025000
vt 0.343750 0.025000
vt 0.343750 0.025000
vt 0.593750 0.025000
vt 0.343750 0.025000
vt 0.343750 0.025000
vt 0.593750 0.025000
vt 0.343750 0.076764
vt 0.343750 0.185330
vt 0.343750 0.125000
vt 0.343750 0.194957
vt 0.343750 0.025000
vt 0.343750 0.175000
vt 0.343750 0.166421
vt 0.343750 0.203223
vt 0.343750 0.198205
vt 0.343750 0.218185
vt 0.343750 0.225000
vt 0.343750 0.214914
vt 0.343750 0.218185
vt 0.343750 0.198205
vt 0.343750 0.166421
vt 0.343750 0.203223
vt 0.343750 0.125000
vt 0.343750 0.194957
vt 0.343750 0.076764
vt 0.343750 0.185330
vt 0.343750 0.025000
vt 0.343750 0.175000
vt 0.343750 0.025000
vt 0.343750 0.164670
vt 0.343750 0.025000
vt 0.343750 0.025000
vt 0.343750 0.146777
vt 0.343750 0.025000
vt 0.343750 0.025000
vt 0.343750 0.025000
vt 0.343750 0.025000
vt 0.343750 0.025000
vt 0.343750 0.025000
vt 0.343750 0.146777
vt 0.343750 0.025000
vt 0.343750 0.025000
vt 0.343750 0.164670
vt 0.343750 0.187941
vt 0.343750 0.200000
vt 0.343750 0.139645
vt 0.343750 0.131699
vt 0.343750 0.140434
vt 0.343750 0.223296
vt 0.343750 0.225000
vt 0.343750 0.213554
vt 0.343750 0.210355
vt 0.343750 0.200000
vt 0.343750 0.213554
vt 0.343750 0.223296
vt 0.343750 0.209566
vt 0.343750 0.218301
vt 0.343750 0.126704
vt 0.343750 0.136446
vt 0.343750 0.125000
vt 0.343750 0.135086
vt 0.343750 0.155043
vt 0.343750 0.150000
vt 0.343750 0.162059
vt 0.343750 0.139645
vt 0.343750 0.218301
vt 0.343750 0.209566
vt 0.343750 0.210355
vt 0.343750 0.209566
vt 0.343750 0.218301
vt 0.343750 0.210355
vt 0.343750 0.223296
vt 0.343750 0.225000
vt 0.343750 0.139645
vt 0.343750 0.155043
vt 0.343750 0.150000
vt 0.343750 0.187941
vt 0.343750 0.200000
vt 0.343750 0.162059
vt 0.343750 0.187941
vt 0.343750 0.126704
vt 0.343750 0.136446
vt 0.343750 0.126704
vt 0.343750 0.131699
vt 0.343750 0.162059
vt 0.343750 0.175000
vt 0.343750 0.175000
vt 0.343750 0.150000
vt 0.343750 0.155043
vt 0.343750 0.139645
vt 0.343750 0.213554
vt 0.343750 0.223296
vt 0.343750 0.140434
vt 0.343750 0.131699
vt 0.343750 0.162059
vt 0.343750 0.150000
vt 0.343750 0.155043
vt 0.343750 0.187941
vt 0.343750 0.126704
vt 0.343750 0.125000
vt 0.343750 0.210355
vt 0.343750 0.218301
vt 0.343750 0.209566
vt 0.343750 0.136446
vt 0.343750 0.200000
vt 0.343750 0.140434
vt 0.343750 0.140434
vt 0.343750 0.131699
vt 0.343750 0.136446
vt 0.343750 0.175000
vt 0.343750 0.213554
vt 0.343750 0.135086
vt 0.343750 0.025000
vt 0.343750 0.175000
vt 0.343750 0.025000
vt 0.343750 0.164670
vt 0.343750 0.076764
vt 0.343750 0.185330
vt 0.343750 0.125000
vt 0.343750 0.194957
vt 0.343750 0.025000
vt 0.343750 0.166421
vt 0.343750 0.203223
vt 0.343750 0.025000
vt 0.343750 0.146777
vt 0.343750 0.198205
vt 0.343750 0.025000
vt 0.343750 0.218185
vt 0.343750 0.025000
vt 0.343750 0.225000
vt 0.343750 0.214914
vt 0.343750 0.025000
vt 0.343750 0.218185
vt 0.343750 0.025000
vt 0.343750 0.198205
vt 0.343750 0.025000
vt 0.343750 0.166421
vt 0.343750 0.203223
vt 0.343750 0.025000
vt 0.343750 0.146777
vt 0.343750 0.025000
vt 0.343750 0.125000
vt 0.343750 0.194957
vt 0.343750 0.076764
vt 0.343750 0.185330
vt 0.343750 0.025000
vt 0.343750 0.164670
vt 0.343750 0.025000
vt 0.343750 0.175000
vt 0.343750 0.025000
vt 0.593750 0.025000
vt 0.343750 0.025000
vt 0.343750 0.078265
vt 0.593750 0.078265
vt 0.343750 0.109547
vt 0.343750 0.078265
vt 0.593750 0.078265
vt 0.343750 0.100328
vt 0.593750 0.100328
vt 0.343750 0.109547
vt 0.343750 0.144568
vt 0.343750 0.025000
vt 0.593750 0.025000
vt 0.343750 0.025000
vt 0.593750 0.025000
vt 0.343750 0.025000
vt 0.343750 0.025000
vt 0.343750 0.025000
vt 0.593750 0.025000
vt 0.343750 0.025000
vt 0.343750 0.025000
vt 0.593750 0.025000
vt 0.343750 0.025000
vt 0.343750 0.076764
vt 0.343750 0.185330
vt 0.343750 0.025000
vt 0.343750 0.175000
vt 0.343750 0.125000
vt 0.343750 0.194957
vt 0.343750 0.166421
vt 0.343750 0.203223
vt 0.343750 0.198205
vt 0.343750 0.218185
vt 0.343750 0.225000
vt 0.343750 0.214914
vt 0.343750 0.218185
vt 0.343750 0.198205
vt 0.343750 0.166421
vt 0.343750 0.203223
vt 0.343750 0.125000
vt 0.343750 0.194957
vt 0.343750 0.076764
vt 0.343750 0.185330
vt 0.343750 0.025000
vt 0.343750 0.175000
vt 0.343750 0.025000
vt 0.343750 0.164670
vt 0.343750 0.025000
vt 0.343750 0.025000
vt 0.343750 0.146777
vt 0.343750 0.025000
vt 0.343750 0.025000
vt 0.343750 0.025000
vt 0.343750 0.025000
vt 0.343750 0.025000
vt 0.343750 0.025000
vt 0.343750 0.146777
vt 0.343750 0.025000
vt 0.343750 0.025000
vt 0.343750 0.164670
vt 0.343750 0.187941
vt 0.343750 0.200000
vt 0.343750 0.139645
vt 0.343750 0.131699
vt 0.343750 0.140434
vt 0.343750 0.223296
vt 0.343750 0.225000
vt 0.343750 0.213554
vt 0.343750 0.210355
vt 0.343750 0.200000
vt 0.343750 0.213554
vt 0.343750 0.223296
vt 0.343750 0.209566
vt 0.343750 0.218301
vt 0.343750 0.126704
vt 0.343750 0.136446
vt 0.343750 0.125000
vt 0.343750 0.135086
vt 0.343750 0.155043
vt 0.343750 0.150000
vt 0.343750 0.162059
vt 0.343750 0.139645
vt 0.343750 0.218301
vt 0.343750 0.209566
vt 0.343750 0.210355
vt 0.343750 0.175000
vt 0.343750 0.209566
vt 0.343750 0.218301
vt 0.343750 0.210355
vt 0.343750 0.223296
vt 0.343750 0.225000
vt 0.343750 0.139645
vt 0.343750 0.155043
vt 0.343750 0.150000
vt 0.343750 0.187941
vt 0.343750 0.200000
vt 0.343750 0.162059
vt 0.343750 0.187941
vt 0.343750 0.126704
vt 0.343750 0.136446
vt 0.343750 0.126704
vt 0.343750 0.131699
vt 0.343750 0.162059
vt 0.343750 0.175000
vt 0.343750 0.150000
vt 0.343750 0.155043
vt 0.343750 0.139645
vt 0.343750 0.213554
vt 0.343750 0.223296
vt 0.343750 0.140434
vt 0.343750 0.131699
vt 0.343750 0.162059
vt 0.343750 0.150000
vt 0.343750 0.155043
vt 0.343750 0.187941
vt 0.343750 0.126704
vt 0.343750 0.125000
vt 0.343750 0.210355
vt 0.343750 0.218301
vt 0.343750 0.209566
vt 0.343750 0.136446
vt 0.343750 0.200000
vt 0.343750 0.140434
vt 0.343750 0.140434
vt 0.343750 0.131699
vt 0.343750 0.136446
vt 0.343750 0.175000
vt 0.343750 0.213554
vt 0.343750 0.135086
vt 0.343750 0.144568
vt 0.343750 0.100328
vt 0.593750 0.100328
vt 0.343750 0.109547
vt 0.343750 0.078265
vt 0.593750 0.078265
vt 0.343750 0.025000
vt 0.343750 0.164670
vt 0.343750 0.025000
vt 0.343750 0.175000
vt 0.343750 0.025000
vt 0.343750 0.025000
vt 0.343750 0.146777
vt 0.343750 0.025000
vt 0.343750 0.025000
vt 0.343750 0.025000
vt 0.343750 0.025000
vt 0.343750 0.025000
vt 0.343750 0.025000
vt 0.343750 0.025000
vt 0.343750 0.025000
vt 0.343750 0.025000
vt 0.343750 0.025000
vt 0.343750 0.025000
vt 0.343750 0.146777
vt 0.343750 0.025000
vt 0.343750 0.025000
vt 0.343750 0.164670
vt 0.343750 0.025000
vt 0.343750 0.175000
vt 0.343750 0.076764
vt 0.343750 0.185330
vt 0.343750 0.125000
vt 0.343750 0.194957
vt 0.343750 0.166421
vt 0.343750 0.203223
vt 0.343750 0.198205
vt 0.343750 0.109547
vt 0.343750 0.218185
vt 0.343750 0.225000
vt 0.343750 0.214914
vt 0.343750 0.218185
vt 0.343750 0.198205
vt 0.343750 0.166421
vt 0.343750 0.203223
vt 0.343750 0.125000
vt 0.343750 0.194957
vt 0.343750 0.076764
vt 0.343750 0.185330
vt 0.343750 0.025000
vt 0.593750 0.025000
vt 0.343750 0.025000
vt 0.593750 0.025000
vt 0.343750 0.025000
vt 0.593750 0.025000
vt 0.343750 0.025000
vt 0.593750 0.025000
vt 0.343750 0.025000
vt 0.593750 0.025000
vt 0.343750 0.078265
vt 0.593750 0.078265
vt 0.343750 0.025000
vt 0.343750 0.175000
vt 0.343750 0.076764
vt 0.343750 0.185330
vt 0.343750 0.025000
vt 0.343750 0.164670
vt 0.343750 0.025000
vt 0.343750 0.125000
vt 0.343750 0.194957
vt 0.343750 0.025000
vt 0.343750 0.146777
vt 0.343750 0.166421
vt 0.343750 0.203223
vt 0.343750 0.198205
vt 0.343750 0.025000
vt 0.343750 0.025000
vt 0.343750 0.218185
vt 0.343750 0.025000
vt 0.343750 0.225000
vt 0.343750 0.214914
vt 0.343750 0.025000
vt 0.343750 0.218185
vt 0.343750 0.025000
vt 0.343750 0.198205
vt 0.343750 0.025000
vt 0.343750 0.146777
vt 0.343750 0.166421
vt 0.343750 0.203223
vt 0.343750 0.025000
vt 0.343750 0.125000
vt 0.343750 0.194957
vt 0.343750 0.025000
vt 0.343750 0.164670
vt 0.343750 0.076764
vt 0.343750 0.185330
vt 0.343750 0.025000
vt 0.343750 0.175000
vt 0.343750 0.187941
vt 0.343750 0.200000
vt 0.343750 0.139645
vt 0.343750 0.131699
vt 0.343750 0.140434
vt 0.343750 0.223296
vt 0.343750 0.225000
vt 0.343750 0.213554
vt 0.343750 0.210355
vt 0.343750 0.200000
vt 0.343750 0.213554
vt 0.343750 0.223296
vt 0.343750 0.209566
vt 0.343750 0.218301
vt 0.343750 0.126704
vt 0.343750 0.136446
vt 0.343750 0.125000
vt 0.343750 0.135086
vt 0.343750 0.155043
vt 0.343750 0.150000
vt 0.343750 0.162059
vt 0.343750 0.139645
vt 0.343750 0.218301
vt 0.343750 0.209566
vt 0.343750 0.210355
vt 0.343750 0.175000
vt 0.343750 0.209566
vt 0.343750 0.218301
vt 0.343750 0.210355
vt 0.343750 0.223296
vt 0.343750 0.225000
vt 0.343750 0.139645
vt 0.343750 0.155043
vt 0.343750 0.150000
vt 0.343750 0.187941
vt 0.343750 0.200000
vt 0.343750 0.162059
vt 0.343750 0.187941
vt 0.343750 0.126704
vt 0.343750 0.136446
vt 0.343750 0.126704
vt 0.343750 0.131699
vt 0.343750 0.162059
vt 0.343750 0.175000
vt 0.343750 0.150000
vt 0.343750 0.155043
vt 0.343750 0.139645
vt 0.343750 0.213554
vt 0.343750 0.223296
vt 0.343750 0.140434
vt 0.343750 0.131699
vt 0.343750 0.162059
vt 0.343750 0.150000
vt 0.343750 0.155043
vt 0.343750 0.187941
vt 0.343750 0.126704
vt 0.343750 0.125000
vt 0.343750 0.210355
vt 0.343750 0.218301
vt 0.343750 0.209566
vt 0.343750 0.136446
vt 0.343750 0.200000
vt 0.343750 0.140434
vt 0.343750 0.140434
vt 0.343750 0.131699
vt 0.343750 0.136446
vt 0.343750 0.175000
vt 0.343750 0.213554
vt 0.343750 0.135086
vt 0.343750 0.025000
vt 0.343750 0.175000
vt 0.343750 0.025000
vt 0.343750 0.164670
vt 0.343750 0.076764
vt 0.343750 0.185330
vt 0.343750 0.125000
vt 0.343750 0.194957
vt 0.343750 0.025000
vt 0.343750 0.166421
vt 0.343750 0.203223
vt 0.343750 0.025000
vt 0.343750 0.146777
vt 0.343750 0.198205
vt 0.343750 0.025000
vt 0.343750 0.218185
vt 0.343750 0.025000
vt 0.343750 0.225000
vt 0.343750 0.214914
vt 0.343750 0.025000
vt 0.343750 0.218185
vt 0.343750 0.025000
vt 0.343750 0.198205
vt 0.343750 0.025000
vt 0.343750 0.166421
vt 0.343750 0.203223
vt 0.343750 0.025000
vt 0.343750 0.146777
vt 0.343750 0.025000
vt 0.343750 0.125000
vt 0.343750 0.194957
vt 0.343750 0.076764
vt 0.343750 0.185330
vt 0.343750 0.025000
vt 0.343750 0.164670
vt 0.343750 0.025000
vt 0.343750 0.175000
vt 0.343750 0.078265
vt 0.593750 0.078265
vt 0.343750 0.100328
vt 0.593750 0.100328
vt 0.343750 0.109547
vt 0.343750 0.144568
vt 0.343750 0.025000
vt 0.593750 0.025000
vt 0.343750 0.025000
vt 0.593750 0.025000
vt 0.343750 0.025000
vt 0.343750 0.025000
vt 0.343750 0.025000
vt 0.343750 0.025000
vt 0.593750 0.025000
vt 0.343750 0.025000
vt 0.593750 0.025000
vt 0.343750 0.025000
vt 0.343750 0.025000
vt 0.343750 0.025000
vt 0.593750 0.025000
vt 0.343750 0.078265
vt 0.593750 0.078265
vt 0.343750 0.109547
vt 0.343750 0.025000
vt 0.343750 0.164670
vt 0.343750 0.025000
vt 0.343750 0.025000
vt 0.343750 0.175000
vt 0.343750 0.025000
vt 0.343750 0.146777
vt 0.343750 0.025000
vt 0.343750 0.025000
vt 0.343750 0.025000
vt 0.343750 0.025000
vt 0.343750 0.025000
vt 0.343750 0.025000
vt 0.343750 0.146777
vt 0.343750 0.025000
vt 0.343750 0.025000
vt 0.343750 0.164670
vt 0.343750 0.025000
vt 0.343750 0.175000
vt 0.343750 0.076764
vt 0.343750 0.185330
vt 0.343750 0.125000
vt 0.343750 0.194957
vt 0.343750 0.166421
vt 0.343750 0.203223
vt 0.343750 0.198205
vt 0.343750 0.218185
vt 0.343750 0.225000
vt 0.343750 0.214914
vt 0.343750 0.218185
vt 0.343750 0.198205
vt 0.343750 0.166421
vt 0.343750 0.203223
vt 0.343750 0.125000
vt 0.343750 0.194957
vt 0.343750 0.076764
vt 0.343750 0.185330
vt 0.343750 0.187941
vt 0.343750 0.200000
vt 0.343750 0.139645
vt 0.343750 0.131699
vt 0.343750 0.140434
vt 0.343750 0.223296
vt 0.343750 0.225000
vt 0.343750 0.213554
vt 0.343750 0.210355
vt 0.343750 0.200000
vt 0.343750 0.213554
vt 0.343750 0.223296
vt 0.343750 0.209566
vt 0.343750 0.218301
vt 0.343750 0.126704
vt 0.343750 0.136446
vt 0.343750 0.125000
vt 0.343750 0.135086
vt 0.343750 0.155043
vt 0.343750 0.150000
vt 0.343750 0.162059
vt 0.343750 0.139645
vt 0.343750 0.218301
vt 0.343750 0.209566
vt 0.343750 0.210355
vt 0.343750 0.209566
vt 0.343750 0.218301
vt 0.343750 0.210355
vt 0.343750 0.223296
vt 0.343750 0.225000
vt 0.343750 0.139645
vt 0.343750 0.155043
vt 0.343750 0.150000
vt 0.343750 0.187941
vt 0.343750 0.200000
vt 0.343750 0.162059
vt 0.343750 0.187941
vt 0.343750 0.126704
vt 0.343750 0.136446
vt 0.343750 0.126704
vt 0.343750 0.131699
vt 0.343750 0.162059
vt 0.343750 0.175000
vt 0.343750 0.175000
vt 0.343750 0.150000
vt 0.343750 0.155043
vt 0.343750 0.139645
vt 0.343750 0.213554
vt 0.343750 0.223296
vt 0.343750 0.140434
vt 0.343750 0.131699
vt 0.343750 0.162059
vt 0.343750 0.150000
vt 0.343750 0.155043
vt 0.343750 0.187941
vt 0.343750 0.126704
vt 0.343750 0.125000
vt 0.343750 0.210355
vt 0.343750 0.218301
vt 0.343750 0.209566
vt 0.343750 0.136446
vt 0.343750 0.200000
vt 0.343750 0.140434
vt 0.343750 0.140434
vt 0.343750 0.131699
vt 0.343750 0.136446
vt 0.343750 0.175000
vt 0.343750 0.213554
vt 0.343750 0.135086
s 0
f 3/4/1 2/3/2 1/1/2
f 2/3/2 3/4/1 4/6/1
f 7/11/3 6/9/3 5/7/3
f 6/9/3 7/11/3 8/13/3
f 10/17/4 6/9/5 9/15/4
f 6/9/5 10/17/4 5/7/5
f 7/11/6 11/18/7 8/13/6
f 11/18/7 7/11/6 12/20/7
f 11/18/7 4/6/1 3/4/1
f 4/6/1 11/18/7 12/20/7
f 1/1/2 10/17/4 9/15/4
f 10/17/4 1/1/2 2/3/2
f 15/23/8 14/22/8 13/21/8
f 14/22/8 15/23/8 16/24/8
f 16/24/8 15/23/8 17/25/8
f 16/24/8 17/25/8 18/26/8
f 13/21/9 7/11/9 5/7/9
f 7/11/9 13/21/9 14/22/9
f 14/22/10 12/20/11 7/11/10
f 12/20/11 14/22/10 16/24/12
f 15/23/13 5/7/14 10/17/15
f 5/7/14 15/23/13 13/21/14
f 4/6/16 17/25/17 2/3/18
f 17/25/17 4/6/16 18/26/19
f 4/6/16 16/24/12 18/26/19
f 16/24/12 4/6/16 12/20/11
f 2/3/18 15/23/13 10/17/15
f 15/23/13 2/3/18 17/25/17
f 21/30/20 20/28/21 19/27/20
f 20/28/21 21/30/20 22/31/21
f 25/36/3 24/35/22 23/33/3
f 24/35/22 25/36/3 26/38/22
f 21/30/20 28/40/23 27/39/24
f 28/40/23 21/30/20 19/27/20
f 29/41/25 24/35/22 26/38/22
f 24/35/22 29/41/25 30/42/25
f 27/39/23 30/42/25 29/41/25
f 30/42/25 27/39/23 28/40/23
f 19/27/5 30/42/5 28/40/5
f 30/42/5 19/27/5 24/35/5
f 24/35/5 19/27/5 20/28/5
f 24/35/5 20/28/5 23/33/5
f 26/38/6 27/39/6 29/41/6
f 27/39/6 26/38/6 21/30/6
f 21/30/6 26/38/6 25/36/6
f 21/30/6 25/36/6 22/31/6
f 33/46/20 32/44/21 31/43/20
f 32/44/21 33/46/20 34/47/21
f 37/52/3 36/51/22 35/49/3
f 36/51/22 37/52/3 38/54/22
f 33/46/20 40/56/23 39/55/23
f 40/56/23 33/46/20 31/43/20
f 41/57/25 36/51/22 38/54/22
f 36/51/22 41/57/25 42/58/25
f 39/55/23 42/58/25 41/57/25
f 42/58/25 39/55/23 40/56/23
f 31/43/5 42/58/5 40/56/5
f 42/58/5 31/43/5 36/51/5
f 36/51/5 31/43/5 32/44/5
f 36/51/5 32/44/5 35/49/5
f 38/54/6 39/55/6 41/57/6
f 39/55/6 38/54/6 33/46/6
f 33/46/6 38/54/6 37/52/6
f 33/46/6 37/52/6 34/47/6
f 45/61/26 44/60/21 43/59/21
f 44/60/21 45/61/26 46/62/26
f 48/64/8 5/8/8 47/63/8
f 5/8/8 48/64/8 43/59/8
f 43/59/8 48/64/8 49/66/8
f 43/59/8 49/66/8 45/61/8
f 44/60/27 50/67/27 6/10/27
f 50/67/27 44/60/27 51/68/27
f 51/68/27 44/60/27 52/70/27
f 52/70/27 44/60/27 46/62/27
f 6/10/3 47/63/3 5/8/3
f 47/63/3 6/10/3 50/67/3
f 50/67/5 48/64/28 47/63/5
f 48/64/28 50/67/5 51/68/28
f 49/66/29 46/62/26 45/61/30
f 46/62/26 49/66/29 52/70/29
f 48/64/28 52/70/29 49/66/29
f 52/70/29 48/64/28 51/68/28
f 55/73/31 54/72/32 53/71/31
f 54/72/33 55/73/34 56/74/33
f 59/77/35 58/76/36 57/75/35
f 58/76/36 59/77/35 60/78/36
f 55/73/31 62/80/37 61/79/37
f 62/80/37 55/73/31 53/71/31
f 63/81/38 59/77/35 57/75/35
f 59/77/35 63/81/38 64/82/38
f 63/81/38 56/74/33 64/82/38
f 56/74/33 63/81/38 54/72/33
f 60/78/36 62/80/37 58/76/36
f 62/80/37 60/78/36 61/79/37
f 61/79/21 56/74/21 55/73/21
f 56/74/21 61/79/21 60/78/21
f 56/74/21 60/78/21 59/77/21
f 56/74/21 59/77/21 64/82/21
f 54/72/3 62/80/3 53/71/3
f 62/80/3 54/72/3 58/76/3
f 58/76/3 54/72/3 57/75/3
f 57/75/3 54/72/3 63/81/3
f 67/85/39 66/84/40 65/83/41
f 66/84/42 67/85/43 68/86/44
f 69/87/45 67/85/39 65/83/46
f 67/85/41 69/87/47 70/88/48
f 72/90/49 69/87/50 71/89/51
f 69/87/47 72/90/52 70/88/45
f 72/90/51 66/84/42 68/86/53
f 66/84/44 72/90/49 71/89/54
f 75/93/39 74/92/40 73/91/41
f 74/92/42 75/93/43 76/94/44
f 77/95/45 75/93/39 73/91/46
f 75/93/41 77/95/47 78/96/48
f 80/98/49 77/95/50 79/97/51
f 77/95/47 80/98/52 78/96/45
f 80/98/51 74/92/42 76/94/53
f 74/92/44 80/98/49 79/97/54
f 82/100/1 1/2/2 81/99/2
f 1/2/2 82/100/1 3/5/1
f 8/14/3 83/101/3 6/10/3
f 83/101/3 8/14/3 84/102/3
f 9/16/4 83/101/5 85/103/4
f 83/101/5 9/16/4 6/10/5
f 8/14/6 86/104/7 84/102/6
f 86/104/7 8/14/6 11/19/7
f 86/104/7 3/5/1 82/100/1
f 3/5/1 86/104/7 11/19/7
f 81/99/2 9/16/4 85/103/4
f 9/16/4 81/99/2 1/2/2
f 86/104/27 83/101/27 84/102/27
f 83/101/27 86/104/27 85/103/27
f 85/103/27 86/104/27 82/100/27
f 85/103/27 82/100/27 81/99/27
f 89/107/55 88/106/21 87/105/21
f 88/106/21 89/107/55 90/108/55
f 92/110/27 8/14/27 91/109/27
f 8/14/27 92/110/27 87/105/27
f 87/105/27 92/110/27 93/112/27
f 87/105/27 93/112/27 89/107/27
f 88/106/8 94/113/8 7/12/8
f 94/113/8 88/106/8 95/114/8
f 95/114/8 88/106/8 96/116/8
f 96/116/8 88/106/8 90/108/8
f 94/113/3 8/14/3 7/12/3
f 8/14/3 94/113/3 91/109/3
f 94/113/6 92/110/56 91/109/6
f 92/110/56 94/113/6 95/114/56
f 93/112/57 90/108/55 89/107/58
f 90/108/55 93/112/57 96/116/57
f 95/114/56 93/112/57 92/110/56
f 93/112/57 95/114/56 96/116/57
f 20/29/8 25/37/8 23/34/8
f 25/37/8 20/29/8 22/32/8
f 32/45/8 37/53/8 35/50/8
f 37/53/8 32/45/8 34/48/8
f 99/119/59 98/118/8 97/117/8
f 98/118/8 99/119/59 100/120/59
f 99/119/5 102/122/60 101/121/61
f 102/122/60 99/119/5 97/117/5
f 105/125/62 104/124/63 103/123/62
f 104/124/63 105/125/62 106/126/63
f 107/127/64 105/125/62 103/123/62
f 105/125/62 107/127/64 108/128/65
f 101/121/61 104/124/63 106/126/63
f 104/124/63 101/121/61 102/122/60
f 106/126/21 108/128/66 101/121/66
f 108/128/66 106/126/21 105/125/21
f 98/118/6 108/128/65 107/127/64
f 108/128/65 98/118/6 100/120/6
f 108/128/66 99/119/67 101/121/66
f 99/119/67 108/128/66 100/120/67
f 3/4/1 2/3/2 1/1/2
f 2/3/2 3/4/1 4/6/1
f 7/11/3 6/9/3 5/7/3
f 6/9/3 7/11/3 8/13/3
f 10/17/4 6/9/5 9/15/4
f 6/9/5 10/17/4 5/7/5
f 7/11/6 11/18/7 8/13/6
f 11/18/7 7/11/6 12/20/7
f 11/18/7 4/6/1 3/4/1
f 4/6/1 11/18/7 12/20/7
f 1/1/2 10/17/4 9/15/4
f 10/17/4 1/1/2 2/3/2
f 15/23/8 14/22/8 13/21/8
f 14/22/8 15/23/8 16/24/8
f 16/24/8 15/23/8 17/25/8
f 16/24/8 17/25/8 18/26/8
f 13/21/9 7/11/9 5/7/9
f 7/11/9 13/21/9 14/22/9
f 14/22/10 12/20/11 7/11/10
f 12/20/11 14/22/10 16/24/12
f 15/23/13 5/7/14 10/17/15
f 5/7/14 15/23/13 13/21/14
f 4/6/16 17/25/17 2/3/18
f 17/25/17 4/6/16 18/26/19
f 4/6/16 16/24/12 18/26/19
f 16/24/12 4/6/16 12/20/11
f 2/3/18 15/23/13 10/17/15
f 15/23/13 2/3/18 17/25/17
f 21/30/20 20/28/21 19/27/20
f 20/28/21 21/30/20 22/31/21
f 25/36/3 24/35/22 23/33/3
f 24/35/22 25/36/3 26/38/22
f 21/30/20 28/40/23 27/39/24
f 28/40/23 21/30/20 19/27/20
f 29/41/25 24/35/22 26/38/22
f 24/35/22 29/41/25 30/42/25
f 27/39/23 30/42/25 29/41/25
f 30/42/25 27/39/23 28/40/23
f 19/27/5 30/42/5 28/40/5
f 30/42/5 19/27/5 24/35/5
f 24/35/5 19/27/5 20/28/5
f 24/35/5 20/28/5 23/33/5
f 26/38/6 27/39/6 29/41/6
f 27/39/6 26/38/6 21/30/6
f 21/30/6 26/38/6 25/36/6
f 21/30/6 25/36/6 22/31/6
f 33/46/20 32/44/21 31/43/20
f 32/44/21 33/46/20 34/47/21
f 37/52/3 36/51/22 35/49/3
f 36/51/22 37/52/3 38/54/22
f 33/46/20 40/56/23 39/55/23
f 40/56/23 33/46/20 31/43/20
f 41/57/25 36/51/22 38/54/22
f 36/51/22 41/57/25 42/58/25
f 39/55/23 42/58/25 41/57/25
f 42/58/25 39/55/23 40/56/23
f 31/43/5 42/58/5 40/56/5
f 42/58/5 31/43/5 36/51/5
f 36/51/5 31/43/5 32/44/5
f 36/51/5 32/44/5 35/49/5
f 38/54/6 39/55/6 41/57/6
f 39/55/6 38/54/6 33/46/6
f 33/46/6 38/54/6 37/52/6
f 33/46/6 37/52/6 34/47/6
f 45/61/26 44/60/21 43/59/21
f 44/60/21 45/61/26 46/62/26
f 48/64/8 5/8/8 47/63/8
f 5/8/8 48/64/8 43/59/8
f 43/59/8 48/64/8 49/66/8
f 43/59/8 49/66/8 45/61/8
f 44/60/27 50/67/27 6/10/27
f 50/67/27 44/60/27 51/68/27
f 51/68/27 44/60/27 52/70/27
f 52/70/27 44/60/27 46/62/27
f 6/10/3 47/63/3 5/8/3
f 47/63/3 6/10/3 50/67/3
f 50/67/5 48/64/28 47/63/5
f 48/64/28 50/67/5 51/68/28
f 49/66/29 46/62/26 45/61/30
f 46/62/26 49/66/29 52/70/29
f 48/64/28 52/70/29 49/66/29
f 52/70/29 48/64/28 51/68/28
f 55/73/31 54/72/32 53/71/31
f 54/72/33 55/73/34 56/74/33
f 59/77/35 58/76/36 57/75/35
f 58/76/36 59/77/35 60/78/36
f 55/73/31 62/80/37 61/79/37
f 62/80/37 55/73/31 53/71/31
f 63/81/38 59/77/35 57/75/35
f 59/77/35 63/81/38 64/82/38
f 63/81/38 56/74/33 64/82/38
f 56/74/33 63/81/38 54/72/33
f 60/78/36 62/80/37 58/76/36
f 62/80/37 60/78/36 61/79/37
f 61/79/21 56/74/21 55/73/21
f 56/74/21 61/79/21 60/78/21
f 56/74/21 60/78/21 59/77/21
f 56/74/21 59/77/21 64/82/21
f 54/72/3 62/80/3 53/71/3
f 62/80/3 54/72/3 58/76/3
f 58/76/3 54/72/3 57/75/3
f 57/75/3 54/72/3 63/81/3
f 67/85/39 66/84/40 65/83/41
f 66/84/42 67/85/43 68/86/44
f 69/87/45 67/85/39 65/83/46
f 67/85/41 69/87/47 70/88/48
f 72/90/49 69/87/50 71/89/51
f 69/87/47 72/90/52 70/88/45
f 72/90/51 66/84/42 68/86/53
f 66/84/44 72/90/49 71/89/54
f 75/93/39 74/92/40 73/91/41
f 74/92/42 75/93/43 76/94/44
f 77/95/45 75/93/39 73/91/46
f 75/93/41 77/95/47 78/96/48
f 80/98/49 77/95/50 79/97/51
f 77/95/47 80/98/52 78/96/45
f 80/98/51 74/92/42 76/94/53
f 74/92/44 80/98/49 79/97/54
f 82/100/1 1/2/2 81/99/2
f 1/2/2 82/100/1 3/5/1
f 8/14/3 83/101/3 6/10/3
f 83/101/3 8/14/3 84/102/3
f 9/16/4 83/101/5 85/103/4
f 83/101/5 9/16/4 6/10/5
f 8/14/6 86/104/7 84/102/6
f 86/104/7 8/14/6 11/19/7
f 86/104/7 3/5/1 82/100/1
f 3/5/1 86/104/7 11/19/7
f 81/99/2 9/16/4 85/103/4
f 9/16/4 81/99/2 1/2/2
f 86/104/27 83/101/27 84/102/27
f 83/101/27 86/104/27 85/103/27
f 85/103/27 86/104/27 82/100/27
f 85/103/27 82/100/27 81/99/27
f 89/107/55 88/106/21 87/105/21
f 88/106/21 89/107/55 90/108/55
f 92/110/27 8/14/27 91/109/27
f 8/14/27 92/110/27 87/105/27
f 87/105/27 92/110/27 93/112/27
f 87/105/27 93/112/27 89/107/27
f 88/106/8 94/113/8 7/12/8
f 94/113/8 88/106/8 95/114/8
f 95/114/8 88/106/8 96/116/8
f 96/116/8 88/106/8 90/108/8
f 94/113/3 8/14/3 7/12/3
f 8/14/3 94/113/3 91/109/3
f 94/113/6 92/110/56 91/109/6
f 92/110/56 94/113/6 95/114/56
f 93/112/57 90/108/55 89/107/58
f 90/108/55 93/112/57 96/116/57
f 95/114/56 93/112/57 92/110/56
f 93/112/57 95/114/56 96/116/57
f 20/29/8 25/37/8 23/34/8
f 25/37/8 20/29/8 22/32/8
f 32/45/8 37/53/8 35/50/8
f 37/53/8 32/45/8 34/48/8
f 99/119/59 98/118/8 97/117/8
f 98/118/8 99/119/59 100/120/59
f 99/119/5 102/122/60 101/121/61
f 102/122/60 99/119/5 97/117/5
f 105/125/62 104/124/63 103/123/62
f 104/124/63 105/125/62 106/126/63
f 107/127/64 105/125/62 103/123/62
f 105/125/62 107/127/64 108/128/65
f 101/121/61 104/124/63 106/126/63
f 104/124/63 101/121/61 102/122/60
f 106/126/21 108/128/66 101/121/66
f 108/128/66 106/126/21 105/125/21
f 98/118/6 108/128/65 107/127/64
f 108/128/65 98/118/6 100/120/6
f 108/128/66 99/119/67 101/121/66
f 99/119/67 108/128/66 100/120/67
f 111/133/6 110/131/6 109/129/6
f 110/131/6 111/133/6 112/135/6
f 110/131/6 112/135/6 113/136/6
f 113/136/6 112/135/6 114/138/6
f 113/136/6 114/138/6 115/140/6
f 115/140/6 114/138/6 116/142/6
f 116/142/6 114/138/6 117/143/6
f 116/142/6 117/143/6 118/144/6
f 116/142/6 118/144/6 119/145/6
f 119/145/6 118/144/6 120/146/6
f 119/145/6 120/146/6 121/147/6
f 121/147/6 120/146/6 122/149/6
f 121/147/6 122/149/6 123/150/6
f 123/150/6 122/149/6 124/151/6
f 123/150/6 124/151/6 125/152/6
f 125/152/6 124/151/6 126/153/6
f 125/152/6 126/153/6 127/155/6
f 127/155/6 126/153/6 128/157/6
f 127/155/6 128/157/6 129/158/6
f 129/158/6 128/157/6 130/160/6
f 129/158/6 130/160/6 131/162/6
f 131/162/6 130/160/6 132/164/6
f 135/169/68 134/168/69 133/166/69
f 134/168/70 135/169/68 136/171/71
f 139/174/72 138/173/73 137/172/74
f 138/173/75 139/174/72 140/176/75
f 143/180/76 142/179/77 141/178/78
f 142/179/79 143/180/76 144/182/79
f 144/182/79 134/168/70 142/179/77
f 134/168/69 144/182/79 133/166/70
f 147/187/80 146/185/81 145/184/82
f 146/185/82 147/187/83 148/188/80
f 146/185/81 141/178/78 145/184/82
f 141/178/76 146/185/81 143/180/78
f 151/194/5 150/192/5 149/190/5
f 151/194/5 152/196/5 150/192/5
f 134/168/5 152/196/5 151/194/5
f 134/168/5 153/198/5 152/196/5
f 136/171/5 153/198/5 134/168/5
f 136/171/5 154/199/5 153/198/5
f 137/172/5 154/199/5 136/171/5
f 154/199/5 137/172/5 155/200/5
f 137/172/5 156/202/5 155/200/5
f 138/173/5 156/202/5 137/172/5
f 138/173/5 157/203/5 156/202/5
f 147/187/5 157/203/5 138/173/5
f 147/187/5 158/204/5 157/203/5
f 147/187/5 159/206/5 158/204/5
f 147/187/5 160/208/5 159/206/5
f 160/208/5 147/187/5 161/210/5
f 147/187/5 162/212/5 161/210/5
f 162/212/5 147/187/5 163/214/5
f 163/214/5 147/187/5 164/215/5
f 164/215/5 147/187/5 165/217/5
f 165/217/5 147/187/5 145/184/5
f 165/217/5 145/184/5 166/218/5
f 166/218/5 145/184/5 141/178/5
f 166/218/5 141/178/5 167/219/5
f 141/178/5 168/220/5 167/219/5
f 168/220/5 141/178/5 142/179/5
f 168/220/5 142/179/5 169/221/5
f 169/221/5 142/179/5 134/168/5
f 169/221/5 134/168/5 170/222/5
f 170/222/5 134/168/5 151/194/5
f 170/222/5 151/194/5 171/224/5
f 171/224/5 151/194/5 172/225/5
f 147/187/83 140/176/73 148/188/80
f 140/176/75 147/187/80 138/173/73
f 136/171/71 139/174/72 137/172/74
f 139/174/72 136/171/68 135/169/68
f 149/191/84 174/228/85 173/227/86
f 174/228/87 149/191/84 150/193/88
f 176/230/89 170/223/90 175/229/91
f 170/223/92 176/230/93 177/231/94
f 180/234/95 179/233/96 178/232/97
f 179/233/96 180/234/95 155/201/98
f 159/207/99 181/235/100 158/205/101
f 181/235/102 159/207/99 182/236/103
f 185/239/104 184/238/105 183/237/106
f 184/238/107 185/239/104 186/240/108
f 189/243/109 188/242/110 187/241/111
f 188/242/110 189/243/109 190/244/112
f 192/246/113 162/213/114 191/245/115
f 162/213/114 192/246/116 193/247/117
f 194/248/118 191/245/115 164/216/119
f 191/245/115 194/248/120 192/246/116
f 196/250/121 178/232/97 195/249/122
f 178/232/123 196/250/121 180/234/95
f 150/193/88 197/251/124 174/228/85
f 197/251/124 150/193/88 152/197/125
f 152/197/125 195/249/122 197/251/126
f 195/249/127 152/197/128 196/250/121
f 151/195/129 173/227/130 51/69/131
f 173/227/132 151/195/129 149/191/84
f 199/253/133 115/141/134 198/252/135
f 115/141/136 199/253/137 200/254/138
f 178/232/139 202/256/140 201/255/141
f 202/256/140 178/232/142 179/233/143
f 204/258/144 203/257/145 114/139/146
f 203/257/147 204/258/144 205/259/148
f 207/261/149 131/163/150 206/260/151
f 131/163/150 207/261/152 129/159/153
f 208/262/154 151/195/129 51/69/131
f 151/195/129 208/262/155 172/226/156
f 160/209/157 182/236/158 159/207/99
f 182/236/103 160/209/157 209/263/159
f 210/264/160 190/244/112 189/243/109
f 190/244/112 210/264/161 211/265/162
f 187/241/163 213/267/164 212/266/165
f 213/267/166 187/241/163 176/230/167
f 158/205/101 186/240/168 185/239/104
f 186/240/108 158/205/101 181/235/102
f 187/241/111 177/231/94 176/230/89
f 177/231/94 187/241/169 188/242/110
f 111/134/170 205/259/171 204/258/144
f 205/259/148 111/134/170 214/268/172
f 215/269/173 193/247/174 214/268/175
f 193/247/176 215/269/173 216/270/177
f 175/229/91 218/272/178 217/271/179
f 218/272/178 175/229/180 170/223/92
f 176/230/181 219/273/182 213/267/183
f 219/273/184 176/230/185 175/229/186
f 221/275/187 198/252/135 220/274/188
f 198/252/135 221/275/189 199/253/137
f 114/139/146 223/277/190 222/276/191
f 223/277/192 114/139/193 203/257/147
f 130/161/194 225/279/195 224/278/196
f 225/279/197 130/161/194 226/280/198
f 109/130/199 214/268/175 111/134/170
f 214/268/200 109/130/199 215/269/201
f 227/281/202 216/270/177 215/269/173
f 216/270/177 227/281/203 209/263/204
f 210/264/205 229/283/206 228/282/207
f 229/283/206 210/264/208 189/243/209
f 231/285/210 127/156/211 230/284/212
f 127/156/213 231/285/214 232/286/215
f 222/276/191 228/282/216 233/287/217
f 228/282/218 222/276/191 223/277/192
f 200/254/219 113/137/220 115/141/136
f 113/137/220 200/254/138 234/288/221
f 126/154/222 213/267/223 219/273/224
f 213/267/225 126/154/226 235/289/227
f 189/243/209 212/266/165 229/283/206
f 212/266/228 189/243/209 187/241/229
f 205/259/230 194/248/231 203/257/232
f 194/248/233 205/259/234 192/246/235
f 200/254/236 182/236/237 234/288/238
f 182/236/239 200/254/219 181/235/240
f 227/281/203 109/130/199 110/132/241
f 109/130/199 227/281/242 215/269/201
f 210/264/160 236/290/243 211/265/162
f 236/290/243 210/264/161 237/291/244
f 179/233/143 221/275/245 202/256/140
f 221/275/246 179/233/143 184/238/247
f 183/237/106 179/233/96 155/201/98
f 179/233/96 183/237/106 184/238/107
f 217/271/179 172/226/156 208/262/155
f 172/226/156 217/271/248 218/272/178
f 161/211/249 209/263/159 160/209/157
f 209/263/250 161/211/249 216/270/251
f 174/228/252 206/260/253 173/227/254
f 206/260/253 174/228/87 207/261/255
f 235/289/227 212/266/256 213/267/223
f 212/266/257 235/289/227 238/292/258
f 186/240/259 200/254/236 199/253/260
f 200/254/261 186/240/262 181/235/240
f 51/69/263 224/278/264 208/262/265
f 224/278/266 51/69/263 239/293/267
f 237/291/268 164/216/119 236/290/243
f 164/216/119 237/291/244 194/248/120
f 132/165/269 224/278/270 239/293/271
f 224/278/264 132/165/269 130/161/194
f 173/227/254 239/293/267 51/69/263
f 239/293/267 173/227/132 206/260/272
f 230/284/212 129/159/153 207/261/149
f 129/159/153 230/284/273 127/156/211
f 208/262/274 225/279/275 217/271/276
f 225/279/277 208/262/274 224/278/266
f 193/247/117 161/211/249 162/213/114
f 161/211/249 193/247/174 216/270/251
f 237/291/278 228/282/279 223/277/280
f 228/282/279 237/291/281 210/264/208
f 217/271/276 219/273/282 175/229/186
f 219/273/182 217/271/283 225/279/284
f 195/249/285 201/255/286 231/285/287
f 201/255/286 195/249/288 178/232/142
f 194/248/289 223/277/290 203/257/232
f 223/277/291 194/248/233 237/291/292
f 202/256/293 240/294/294 201/255/295
f 240/294/294 202/256/293 121/148/296
f 238/292/258 229/283/297 212/266/256
f 229/283/297 238/292/258 241/295/298
f 226/280/198 219/273/224 225/279/195
f 219/273/299 226/280/198 126/154/226
f 234/288/300 209/263/301 227/281/202
f 209/263/301 234/288/302 182/236/239
f 201/255/295 232/286/215 231/285/210
f 232/286/215 201/255/303 240/294/294
f 234/288/304 110/132/241 113/137/220
f 110/132/241 234/288/221 227/281/305
f 184/238/306 199/253/307 221/275/245
f 199/253/308 184/238/306 186/240/262
f 233/287/217 229/283/297 241/295/298
f 229/283/297 233/287/217 228/282/218
f 206/260/309 132/165/269 239/293/271
f 132/165/269 206/260/272 131/163/150
f 214/268/310 192/246/311 205/259/230
f 192/246/312 214/268/310 193/247/176
f 197/251/313 231/285/287 230/284/314
f 231/285/315 197/251/316 195/249/127
f 221/275/187 121/148/296 202/256/293
f 121/148/296 221/275/189 220/274/188
f 197/251/316 207/261/317 174/228/318
f 207/261/255 197/251/319 230/284/314
f 140/177/5 146/186/5 148/189/5
f 146/186/5 140/177/5 139/175/5
f 146/186/5 139/175/5 143/181/5
f 143/181/5 139/175/5 135/170/5
f 143/181/5 135/170/5 144/183/5
f 144/183/5 135/170/5 133/167/5
f 244/300/5 243/298/5 242/296/5
f 243/298/5 244/300/5 245/302/5
f 243/298/5 245/302/5 246/304/5
f 246/304/5 245/302/5 247/305/5
f 246/304/5 247/305/5 248/307/5
f 248/307/5 247/305/5 249/309/5
f 248/307/5 249/309/5 250/310/5
f 250/310/5 249/309/5 251/311/5
f 250/310/5 251/311/5 252/312/5
f 252/312/5 251/311/5 253/313/5
f 252/312/5 253/313/5 254/315/5
f 254/315/5 253/313/5 255/316/5
f 254/315/5 255/316/5 256/317/5
f 256/317/5 255/316/5 257/318/5
f 256/317/5 257/318/5 258/319/5
f 258/319/5 257/318/5 259/320/5
f 258/319/5 259/320/5 260/322/5
f 260/322/5 259/320/5 261/324/5
f 261/324/5 259/320/5 262/325/5
f 261/324/5 262/325/5 263/327/5
f 261/324/5 263/327/5 264/329/5
f 264/329/5 263/327/5 265/331/5
f 268/336/320 267/335/321 266/333/322
f 267/335/322 268/336/323 269/338/320
f 272/343/324 271/341/325 270/339/324
f 271/341/325 272/343/326 273/344/327
f 276/349/328 275/347/329 274/345/328
f 275/347/329 276/349/330 277/350/331
f 279/353/332 270/339/324 278/351/332
f 270/339/324 279/353/333 272/343/326
f 274/345/328 267/335/322 276/349/330
f 267/335/321 274/345/330 266/333/322
f 277/350/329 280/354/334 275/347/331
f 280/354/334 277/350/331 281/356/335
f 279/353/333 280/354/334 281/356/335
f 280/354/334 279/353/332 278/351/333
f 273/344/325 268/336/320 271/341/327
f 268/336/323 273/344/327 269/338/320
f 284/361/6 283/359/6 282/357/6
f 285/363/6 283/359/6 284/361/6
f 285/363/6 279/353/6 283/359/6
f 286/365/6 279/353/6 285/363/6
f 286/365/6 272/343/6 279/353/6
f 287/366/6 272/343/6 286/365/6
f 288/367/6 272/343/6 287/366/6
f 272/343/6 288/367/6 273/344/6
f 289/369/6 273/344/6 288/367/6
f 289/369/6 269/338/6 273/344/6
f 290/370/6 269/338/6 289/369/6
f 290/370/6 267/335/6 269/338/6
f 291/371/6 267/335/6 290/370/6
f 292/373/6 267/335/6 291/371/6
f 293/375/6 267/335/6 292/373/6
f 267/335/6 293/375/6 294/377/6
f 295/379/6 267/335/6 294/377/6
f 267/335/6 295/379/6 296/381/6
f 267/335/6 296/381/6 297/382/6
f 267/335/6 297/382/6 298/384/6
f 267/335/6 298/384/6 276/349/6
f 276/349/6 298/384/6 299/385/6
f 276/349/6 299/385/6 277/350/6
f 277/350/6 299/385/6 300/386/6
f 300/386/6 281/356/6 277/350/6
f 281/356/6 300/386/6 301/387/6
f 281/356/6 301/387/6 302/388/6
f 281/356/6 302/388/6 279/353/6
f 279/353/6 302/388/6 303/389/6
f 279/353/6 303/389/6 283/359/6
f 283/359/6 303/389/6 304/391/6
f 283/359/6 304/391/6 305/392/6
f 293/376/241 307/395/221 306/394/305
f 307/395/302 293/376/241 292/374/220
f 309/397/192 297/383/146 308/396/147
f 297/383/146 309/397/190 310/398/191
f 313/401/188 312/400/293 311/399/189
f 312/400/293 313/401/188 288/368/296
f 284/362/153 314/402/336 285/364/211
f 314/402/212 284/362/153 315/403/149
f 318/406/215 317/405/303 316/404/294
f 317/405/295 318/406/215 319/407/210
f 322/410/297 321/409/217 320/408/218
f 321/409/217 322/410/297 323/411/298
f 325/413/197 305/393/194 324/412/198
f 305/393/194 325/413/195 326/414/196
f 327/415/299 324/412/198 303/390/226
f 324/412/198 327/415/224 325/413/195
f 329/417/135 311/399/189 328/416/137
f 311/399/187 329/417/135 313/401/188
f 292/374/220 330/418/138 307/395/221
f 330/418/337 292/374/220 291/372/136
f 291/372/136 328/416/137 330/418/138
f 328/416/133 291/372/136 329/417/135
f 294/378/199 306/394/242 331/419/201
f 306/394/305 294/378/199 293/376/241
f 333/421/338 259/321/128 332/420/121
f 259/321/125 333/421/122 334/422/126
f 311/399/246 336/424/143 335/423/247
f 336/424/143 311/399/245 312/400/140
f 338/426/178 337/425/180 260/323/92
f 337/425/91 338/426/178 339/427/179
f 341/429/103 244/301/157 340/428/159
f 244/301/157 341/429/339 245/303/99
f 342/430/175 294/378/199 331/419/201
f 294/378/199 342/430/172 295/380/170
f 282/358/150 315/403/152 284/362/153
f 315/403/149 282/358/150 343/431/151
f 344/432/257 323/411/298 322/410/297
f 323/411/298 344/432/256 345/433/258
f 320/408/279 347/435/281 346/434/208
f 347/435/278 320/408/279 309/397/280
f 285/364/213 319/407/315 318/406/215
f 319/407/210 285/364/211 314/402/212
f 320/408/218 310/398/191 309/397/192
f 310/398/191 320/408/216 321/409/217
f 264/330/156 339/427/340 338/426/178
f 339/427/179 264/330/156 348/436/155
f 349/437/263 326/414/264 348/436/265
f 326/414/266 349/437/263 92/111/267
f 308/396/147 351/439/144 350/438/148
f 351/439/144 308/396/145 297/383/146
f 309/397/291 352/440/233 347/435/292
f 352/440/289 309/397/290 308/396/232
f 354/442/123 332/420/121 353/441/95
f 332/420/121 354/442/97 333/421/122
f 260/323/92 356/444/93 355/443/94
f 356/444/89 260/323/90 337/425/91
f 243/299/114 358/446/116 357/445/117
f 358/446/113 243/299/114 359/447/115
f 265/332/129 348/436/265 264/330/156
f 348/436/154 265/332/129 349/437/131
f 360/448/254 92/111/267 349/437/263
f 92/111/267 360/448/132 343/431/272
f 344/432/228 362/450/209 361/449/229
f 362/450/209 344/432/165 322/410/206
f 364/452/108 247/306/101 363/451/102
f 247/306/341 364/452/168 365/453/104
f 355/443/94 361/449/169 366/454/110
f 361/449/111 355/443/94 356/444/89
f 334/422/124 262/326/88 259/321/125
f 262/326/88 334/422/126 367/455/85
f 248/308/342 347/435/244 352/440/120
f 347/435/268 248/308/119 368/456/243
f 322/410/206 346/434/208 362/450/209
f 346/434/205 322/410/206 320/408/207
f 339/427/276 327/415/282 337/425/186
f 327/415/182 339/427/283 325/413/284
f 334/422/316 315/403/317 367/455/318
f 315/403/255 334/422/319 314/402/314
f 360/448/132 265/332/129 263/328/84
f 265/332/129 360/448/130 349/437/131
f 344/432/257 369/457/227 345/433/258
f 369/457/227 344/432/256 370/458/223
f 312/400/140 354/442/142 336/424/143
f 354/442/139 312/400/140 317/405/141
f 316/404/294 312/400/293 288/368/296
f 312/400/293 316/404/294 317/405/295
f 350/438/148 295/380/170 342/430/172
f 295/380/170 350/438/171 351/439/144
f 283/360/269 343/431/272 282/358/150
f 343/431/309 283/360/269 92/111/271
f 307/395/300 340/428/301 306/394/202
f 340/428/301 307/395/302 341/429/239
f 368/456/243 346/434/161 347/435/244
f 346/434/160 368/456/243 371/459/162
f 319/407/315 334/422/316 333/421/127
f 334/422/313 319/407/287 314/402/314
f 331/419/173 357/445/174 342/430/175
f 357/445/176 331/419/173 372/460/177
f 370/458/225 303/390/226 369/457/227
f 303/390/222 370/458/223 327/415/224
f 242/297/249 357/445/343 372/460/251
f 357/445/174 242/297/249 243/299/114
f 306/394/202 372/460/177 331/419/173
f 372/460/177 306/394/203 340/428/204
f 363/451/102 245/303/99 341/429/103
f 245/303/99 363/451/100 247/306/101
f 342/430/310 358/446/311 350/438/230
f 358/446/312 342/430/310 357/445/176
f 326/414/196 283/360/269 305/393/194
f 283/360/269 326/414/270 92/111/271
f 370/458/166 361/449/163 356/444/167
f 361/449/163 370/458/164 344/432/165
f 350/438/230 352/440/231 308/396/232
f 352/440/233 350/438/234 358/446/235
f 328/416/308 335/423/306 364/452/262
f 335/423/306 328/416/307 311/399/245
f 327/415/184 356/444/185 337/425/186
f 356/444/181 327/415/182 370/458/183
f 336/424/96 373/461/106 335/423/107
f 373/461/106 336/424/96 253/314/98
f 371/459/162 362/450/109 346/434/161
f 362/450/109 371/459/162 374/462/112
f 359/447/115 352/440/120 358/446/116
f 352/440/118 359/447/115 248/308/119
f 367/455/252 343/431/253 360/448/254
f 343/431/253 367/455/87 315/403/255
f 335/423/107 365/453/104 364/452/108
f 365/453/104 335/423/105 373/461/106
f 367/455/87 263/328/84 262/326/88
f 263/328/84 367/455/85 360/448/86
f 317/405/286 333/421/288 354/442/142
f 333/421/285 317/405/286 319/407/287
f 366/454/110 362/450/109 374/462/112
f 362/450/109 366/454/110 361/449/111
f 340/428/250 242/297/249 372/460/251
f 242/297/249 340/428/159 244/301/157
f 348/436/274 325/413/275 339/427/276
f 325/413/277 348/436/274 326/414/266
f 330/418/261 364/452/262 363/451/240
f 364/452/259 330/418/236 328/416/260
f 354/442/123 253/314/98 336/424/96
f 253/314/98 354/442/139 353/441/95
f 330/418/236 341/429/237 307/395/238
f 341/429/239 330/418/219 363/451/240
f 274/346/6 268/337/6 266/334/6
f 268/337/6 274/346/6 275/348/6
f 268/337/6 275/348/6 271/342/6
f 271/342/6 275/348/6 280/355/6
f 271/342/6 280/355/6 270/340/6
f 270/340/6 280/355/6 278/352/6
f 377/466/71 376/464/72 375/463/74
f 376/464/72 377/466/68 378/467/68
f 381/473/5 380/471/5 379/469/5
f 382/474/5 380/471/5 381/473/5
f 382/474/5 383/476/5 380/471/5
f 384/477/5 383/476/5 382/474/5
f 384/477/5 385/478/5 383/476/5
f 386/479/5 385/478/5 384/477/5
f 386/479/5 387/480/5 385/478/5
f 387/480/5 386/479/5 388/481/5
f 389/482/5 387/480/5 388/481/5
f 389/482/5 390/483/5 387/480/5
f 391/484/5 390/483/5 389/482/5
f 391/484/5 392/485/5 390/483/5
f 393/486/5 392/485/5 391/484/5
f 394/488/5 392/485/5 393/486/5
f 395/489/5 392/485/5 394/488/5
f 392/485/5 395/489/5 396/491/5
f 397/493/5 392/485/5 396/491/5
f 392/485/5 397/493/5 398/495/5
f 392/485/5 398/495/5 399/497/5
f 392/485/5 399/497/5 400/499/5
f 392/485/5 400/499/5 401/500/5
f 401/500/5 400/499/5 402/501/5
f 401/500/5 402/501/5 375/463/5
f 375/463/5 402/501/5 403/502/5
f 404/504/5 375/463/5 403/502/5
f 375/463/5 404/504/5 377/466/5
f 377/466/5 404/504/5 405/505/5
f 377/466/5 405/505/5 383/476/5
f 383/476/5 405/505/5 406/506/5
f 383/476/5 406/506/5 380/471/5
f 380/471/5 406/506/5 407/508/5
f 380/471/5 407/508/5 408/510/5
f 378/467/71 383/476/69 409/512/70
f 383/476/70 378/467/68 377/466/71
f 392/485/80 410/514/81 390/483/82
f 410/514/81 392/485/83 411/516/80
f 412/518/76 385/478/77 387/480/78
f 385/478/79 412/518/76 413/520/79
f 413/520/79 383/476/70 385/478/77
f 383/476/69 413/520/77 409/512/70
f 410/514/81 387/480/78 390/483/82
f 387/480/76 410/514/82 412/518/78
f 376/464/72 401/500/73 375/463/74
f 401/500/75 376/464/72 414/522/75
f 392/485/83 414/522/75 411/516/80
f 414/522/75 392/485/80 401/500/73
f 417/528/6 416/526/6 415/524/6
f 416/526/6 417/528/6 418/530/6
f 416/526/6 418/530/6 419/531/6
f 419/531/6 418/530/6 420/533/6
f 419/531/6 420/533/6 421/535/6
f 421/535/6 420/533/6 422/537/6
f 422/537/6 420/533/6 423/538/6
f 422/537/6 423/538/6 424/539/6
f 422/537/6 424/539/6 425/540/6
f 425/540/6 424/539/6 426/541/6
f 425/540/6 426/541/6 427/542/6
f 427/542/6 426/541/6 428/544/6
f 427/542/6 428/544/6 429/545/6
f 429/545/6 428/544/6 430/546/6
f 429/545/6 430/546/6 431/547/6
f 431/547/6 430/546/6 432/548/6
f 431/547/6 432/548/6 433/550/6
f 433/550/6 432/548/6 434/552/6
f 433/550/6 434/552/6 435/553/6
f 435/553/6 434/552/6 436/555/6
f 435/553/6 436/555/6 437/557/6
f 437/557/6 436/555/6 438/559/6
f 408/511/84 440/562/85 439/561/86
f 440/562/87 408/511/84 407/509/88
f 442/564/89 382/475/92 441/563/91
f 382/475/92 442/564/93 443/565/94
f 446/568/95 445/567/96 444/566/97
f 445/567/96 446/568/95 403/503/98
f 398/496/99 447/569/100 399/498/101
f 447/569/102 398/496/99 448/570/103
f 451/573/104 450/572/105 449/571/106
f 450/572/107 451/573/104 452/574/108
f 455/577/109 454/576/110 453/575/111
f 454/576/110 455/577/109 456/578/112
f 458/580/113 395/490/114 457/579/115
f 395/490/114 458/580/116 459/581/117
f 460/582/118 457/579/115 393/487/119
f 457/579/115 460/582/120 458/580/116
f 462/584/121 444/566/97 461/583/122
f 444/566/123 462/584/121 446/568/95
f 407/509/88 463/585/124 440/562/85
f 463/585/344 407/509/88 406/507/125
f 406/507/125 461/583/122 463/585/126
f 461/583/338 406/507/125 462/584/121
f 380/472/129 439/561/130 464/586/131
f 439/561/86 380/472/129 408/511/84
f 466/588/133 421/536/134 465/587/135
f 421/536/136 466/588/137 467/589/138
f 444/566/139 469/591/140 468/590/141
f 469/591/140 444/566/142 445/567/143
f 471/593/144 470/592/145 420/534/146
f 470/592/147 471/593/144 472/594/148
f 474/596/149 437/558/150 473/595/151
f 437/558/150 474/596/345 435/554/153
f 475/597/265 380/472/129 464/586/131
f 380/472/129 475/597/155 379/470/156
f 397/494/157 448/570/158 398/496/99
f 448/570/103 397/494/157 476/598/159
f 477/599/160 456/578/112 455/577/109
f 456/578/112 477/599/161 478/600/162
f 453/575/163 480/602/164 479/601/165
f 480/602/166 453/575/163 442/564/167
f 399/498/341 452/574/259 451/573/104
f 452/574/108 399/498/101 447/569/102
f 453/575/111 443/565/94 442/564/89
f 443/565/94 453/575/169 454/576/110
f 417/529/170 472/594/171 471/593/144
f 472/594/148 417/529/170 481/603/172
f 482/604/173 459/581/174 481/603/175
f 459/581/176 482/604/173 48/65/177
f 441/563/91 484/606/178 483/605/179
f 484/606/178 441/563/180 382/475/92
f 442/564/181 485/607/182 480/602/183
f 485/607/184 442/564/185 441/563/186
f 487/609/187 465/587/135 486/608/188
f 465/587/135 487/609/189 466/588/137
f 420/534/146 489/611/190 488/610/191
f 489/611/192 420/534/193 470/592/147
f 436/556/194 491/613/195 490/612/196
f 491/613/197 436/556/194 492/614/198
f 415/525/199 481/603/175 417/529/170
f 481/603/200 415/525/199 482/604/201
f 493/615/202 48/65/177 482/604/173
f 48/65/177 493/615/203 476/598/204
f 477/599/205 495/617/206 494/616/207
f 495/617/206 477/599/208 455/577/209
f 497/619/210 433/551/211 496/618/212
f 433/551/213 497/619/214 498/620/215
f 488/610/191 494/616/216 499/621/217
f 494/616/218 488/610/191 489/611/192
f 467/589/346 419/532/220 421/536/136
f 419/532/220 467/589/138 500/622/221
f 432/549/222 480/602/223 485/607/224
f 480/602/225 432/549/226 501/623/227
f 455/577/209 479/601/165 495/617/206
f 479/601/228 455/577/209 453/575/229
f 472/594/230 460/582/231 470/592/232
f 460/582/233 472/594/234 458/580/235
f 467/589/236 448/570/237 500/622/238
f 448/570/239 467/589/219 447/569/240
f 493/615/203 415/525/199 416/527/241
f 415/525/199 493/615/242 482/604/201
f 477/599/160 502/624/243 478/600/162
f 502/624/243 477/599/161 503/625/244
f 445/567/143 487/609/245 469/591/140
f 487/609/246 445/567/143 450/572/247
f 449/571/106 445/567/96 403/503/98
f 445/567/96 449/571/106 450/572/107
f 483/605/179 379/470/156 475/597/155
f 379/470/156 483/605/340 484/606/178
f 396/492/249 476/598/204 397/494/157
f 476/598/250 396/492/249 48/65/251
f 440/562/252 473/595/253 439/561/254
f 473/595/253 440/562/87 474/596/255
f 501/623/227 479/601/256 480/602/223
f 479/601/257 501/623/227 504/626/258
f 452/574/259 467/589/236 466/588/260
f 467/589/261 452/574/262 447/569/240
f 464/586/263 490/612/264 475/597/265
f 490/612/266 464/586/263 505/627/267
f 503/625/268 393/487/119 502/624/243
f 393/487/342 503/625/244 460/582/120
f 438/560/269 490/612/270 505/627/271
f 490/612/264 438/560/269 436/556/194
f 439/561/254 505/627/267 464/586/263
f 505/627/267 439/561/132 473/595/272
f 496/618/212 435/554/153 474/596/149
f 435/554/153 496/618/336 433/551/211
f 475/597/274 491/613/275 483/605/276
f 491/613/277 475/597/274 490/612/266
f 459/581/117 396/492/249 395/490/114
f 396/492/249 459/581/343 48/65/251
f 503/625/278 494/616/279 489/611/280
f 494/616/279 503/625/281 477/599/208
f 483/605/276 485/607/282 441/563/186
f 485/607/182 483/605/283 491/613/284
f 461/583/285 468/590/286 497/619/287
f 468/590/286 461/583/288 444/566/142
f 460/582/289 489/611/290 470/592/232
f 489/611/291 460/582/233 503/625/292
f 469/591/293 506/628/294 468/590/295
f 506/628/294 469/591/293 427/543/296
f 504/626/258 495/617/297 479/601/256
f 495/617/297 504/626/258 507/629/298
f 492/614/198 485/607/224 491/613/195
f 485/607/299 492/614/198 432/549/226
f 500/622/300 476/598/301 493/615/202
f 476/598/301 500/622/302 448/570/239
f 468/590/295 498/620/215 497/619/210
f 498/620/215 468/590/303 506/628/294
f 500/622/302 416/527/241 419/532/220
f 416/527/241 500/622/221 493/615/305
f 450/572/306 466/588/307 487/609/245
f 466/588/308 450/572/306 452/574/262
f 499/621/217 495/617/297 507/629/298
f 495/617/297 499/621/217 494/616/218
f 473/595/309 438/560/269 505/627/271
f 438/560/269 473/595/151 437/558/150
f 481/603/310 458/580/311 472/594/230
f 458/580/312 481/603/310 459/581/176
f 463/585/313 497/619/287 496/618/314
f 497/619/315 463/585/316 461/583/127
f 487/609/187 427/543/296 469/591/293
f 427/543/296 487/609/246 486/608/188
f 463/585/316 474/596/317 440/562/318
f 474/596/255 463/585/319 496/618/314
f 414/523/5 410/515/5 411/517/5
f 410/515/5 414/523/5 376/465/5
f 410/515/5 376/465/5 412/519/5
f 412/519/5 376/465/5 378/468/5
f 412/519/5 378/468/5 413/521/5
f 413/521/5 378/468/5 409/513/5
f 510/634/5 509/632/5 508/630/5
f 509/632/5 510/634/5 511/636/5
f 509/632/5 511/636/5 512/638/5
f 512/638/5 511/636/5 513/639/5
f 512/638/5 513/639/5 514/641/5
f 514/641/5 513/639/5 515/643/5
f 514/641/5 515/643/5 516/644/5
f 516/644/5 515/643/5 517/645/5
f 516/644/5 517/645/5 518/646/5
f 518/646/5 517/645/5 519/647/5
f 518/646/5 519/647/5 520/649/5
f 520/649/5 519/647/5 521/650/5
f 520/649/5 521/650/5 522/651/5
f 522/651/5 521/650/5 523/652/5
f 522/651/5 523/652/5 524/653/5
f 524/653/5 523/652/5 525/654/5
f 524/653/5 525/654/5 526/656/5
f 526/656/5 525/654/5 527/658/5
f 527/658/5 525/654/5 528/659/5
f 527/658/5 528/659/5 529/661/5
f 527/658/5 529/661/5 530/663/5
f 530/663/5 529/661/5 531/665/5
f 534/671/324 533/669/325 532/667/324
f 533/669/325 534/671/326 535/672/327
f 538/677/328 537/675/329 536/673/328
f 537/675/329 538/677/330 539/678/331
f 536/673/328 540/679/322 538/677/330
f 540/679/321 536/673/328 541/680/322
f 543/684/332 532/667/326 542/682/333
f 532/667/324 543/684/333 534/671/326
f 543/684/333 545/686/334 544/685/335
f 545/686/335 543/684/332 542/682/333
f 535/672/325 546/688/320 533/669/327
f 546/688/323 535/672/327 547/690/320
f 539/678/329 545/686/334 537/675/331
f 545/686/334 539/678/331 544/685/335
f 550/694/6 549/693/6 548/691/6
f 550/694/6 551/696/6 549/693/6
f 543/684/6 551/696/6 550/694/6
f 543/684/6 552/698/6 551/696/6
f 544/685/6 552/698/6 543/684/6
f 544/685/6 553/699/6 552/698/6
f 544/685/6 554/700/6 553/699/6
f 554/700/6 544/685/6 539/678/6
f 539/678/6 555/701/6 554/700/6
f 538/677/6 555/701/6 539/678/6
f 538/677/6 556/702/6 555/701/6
f 540/679/6 556/702/6 538/677/6
f 540/679/6 557/703/6 556/702/6
f 540/679/6 558/705/6 557/703/6
f 540/679/6 559/706/6 558/705/6
f 559/706/6 540/679/6 560/708/6
f 540/679/6 561/710/6 560/708/6
f 561/710/6 540/679/6 562/712/6
f 562/712/6 540/679/6 563/714/6
f 563/714/6 540/679/6 564/716/6
f 564/716/6 540/679/6 547/690/6
f 564/716/6 547/690/6 565/717/6
f 565/717/6 547/690/6 535/672/6
f 565/717/6 535/672/6 566/718/6
f 534/671/6 566/718/6 535/672/6
f 566/718/6 534/671/6 567/720/6
f 567/720/6 534/671/6 568/721/6
f 568/721/6 534/671/6 543/684/6
f 568/721/6 543/684/6 569/722/6
f 569/722/6 543/684/6 550/694/6
f 569/722/6 550/694/6 570/724/6
f 570/724/6 550/694/6 571/726/6
f 546/688/323 540/679/321 541/680/321
f 540/679/322 546/688/323 547/690/320
f 561/711/241 573/729/221 572/728/305
f 573/729/302 561/711/241 562/713/220
f 575/731/192 557/704/193 574/730/147
f 557/704/146 575/731/190 576/732/191
f 579/735/188 578/734/293 577/733/189
f 578/734/293 579/735/188 566/719/296
f 570/725/153 580/736/336 569/723/211
f 580/736/273 570/725/153 581/737/149
f 584/740/215 583/739/303 582/738/294
f 583/739/295 584/740/215 585/741/210
f 588/744/297 587/743/217 586/742/218
f 587/743/217 588/744/297 589/745/298
f 591/747/197 548/692/194 590/746/198
f 548/692/194 591/747/195 592/748/196
f 593/749/299 590/746/198 551/697/226
f 590/746/198 593/749/224 591/747/195
f 595/751/135 577/733/189 594/750/137
f 577/733/187 595/751/135 579/735/188
f 562/713/220 596/752/138 573/729/221
f 596/752/346 562/713/220 563/715/136
f 563/715/136 594/750/137 596/752/138
f 594/750/260 563/715/134 595/751/135
f 560/709/199 572/728/242 95/115/201
f 572/728/203 560/709/199 561/711/241
f 598/754/338 525/655/128 597/753/121
f 525/655/125 598/754/122 599/755/126
f 577/733/246 601/757/143 600/756/247
f 601/757/143 577/733/245 578/734/140
f 603/759/178 602/758/180 526/657/92
f 602/758/91 603/759/178 604/760/179
f 606/762/103 510/635/157 605/761/159
f 510/635/157 606/762/158 511/637/99
f 607/763/200 560/709/199 95/115/201
f 560/709/199 607/763/172 559/707/170
f 571/727/150 581/737/152 570/725/153
f 581/737/149 571/727/150 608/764/151
f 609/765/257 589/745/298 588/744/297
f 589/745/298 609/765/256 610/766/258
f 586/742/279 612/768/281 611/767/208
f 612/768/278 586/742/279 575/731/280
f 569/723/211 585/741/214 584/740/215
f 585/741/210 569/723/211 580/736/212
f 586/742/218 576/732/191 575/731/192
f 576/732/191 586/742/216 587/743/217
f 530/664/156 604/760/340 603/759/178
f 604/760/179 530/664/156 613/769/155
f 614/770/263 592/748/264 613/769/265
f 592/748/266 614/770/263 615/771/267
f 574/730/147 617/773/144 616/772/148
f 617/773/144 574/730/145 557/704/146
f 575/731/291 618/774/233 612/768/292
f 618/774/289 575/731/290 574/730/232
f 620/776/123 597/753/121 619/775/95
f 597/753/121 620/776/97 598/754/122
f 526/657/92 622/778/93 621/777/94
f 622/778/89 526/657/90 602/758/91
f 509/633/114 624/780/116 623/779/117
f 624/780/113 509/633/114 625/781/115
f 531/666/129 613/769/265 530/664/156
f 613/769/154 531/666/129 614/770/131
f 626/782/254 615/771/267 614/770/263
f 615/771/267 626/782/132 608/764/272
f 609/765/228 628/784/209 627/783/229
f 628/784/209 609/765/165 588/744/206
f 630/786/108 513/640/101 629/785/102
f 513/640/341 630/786/168 631/787/104
f 621/777/94 627/783/169 632/788/110
f 627/783/111 621/777/94 622/778/89
f 599/755/319 528/660/88 525/655/125
f 528/660/88 599/755/126 633/789/85
f 514/642/342 612/768/244 618/774/120
f 612/768/268 514/642/119 634/790/243
f 588/744/206 611/767/208 628/784/209
f 611/767/205 588/744/206 586/742/207
f 604/760/276 593/749/282 602/758/186
f 593/749/182 604/760/283 591/747/284
f 599/755/316 581/737/317 633/789/318
f 581/737/255 599/755/319 580/736/314
f 626/782/132 531/666/129 529/662/84
f 531/666/129 626/782/130 614/770/131
f 609/765/257 635/791/227 610/766/258
f 635/791/227 609/765/256 636/792/223
f 578/734/140 620/776/142 601/757/143
f 620/776/139 578/734/140 583/739/141
f 582/738/294 578/734/293 566/719/296
f 578/734/293 582/738/294 583/739/295
f 616/772/148 559/707/170 607/763/172
f 559/707/170 616/772/347 617/773/144
f 550/695/269 608/764/151 571/727/150
f 608/764/309 550/695/269 615/771/271
f 573/729/300 605/761/301 572/728/202
f 605/761/301 573/729/302 606/762/239
f 634/790/243 611/767/161 612/768/244
f 611/767/160 634/790/243 637/793/162
f 585/741/315 599/755/316 598/754/127
f 599/755/313 585/741/287 580/736/314
f 95/115/173 623/779/174 607/763/175
f 623/779/176 95/115/173 638/794/177
f 636/792/225 551/697/226 635/791/227
f 551/697/226 636/792/223 593/749/224
f 508/631/249 623/779/343 638/794/251
f 623/779/174 508/631/249 509/633/114
f 572/728/202 638/794/177 95/115/173
f 638/794/177 572/728/203 605/761/204
f 629/785/102 511/637/99 606/762/103
f 511/637/99 629/785/348 513/640/101
f 607/763/310 624/780/311 616/772/230
f 624/780/312 607/763/310 623/779/176
f 592/748/196 550/695/269 548/692/194
f 550/695/269 592/748/264 615/771/271
f 636/792/166 627/783/163 622/778/167
f 627/783/163 636/792/164 609/765/165
f 616/772/230 618/774/231 574/730/232
f 618/774/233 616/772/234 624/780/235
f 594/750/308 600/756/306 630/786/262
f 600/756/306 594/750/307 577/733/245
f 593/749/184 622/778/185 602/758/186
f 622/778/181 593/749/182 636/792/183
f 601/757/96 639/795/106 600/756/107
f 639/795/106 601/757/96 519/648/98
f 637/793/162 628/784/109 611/767/161
f 628/784/109 637/793/162 640/796/112
f 625/781/115 618/774/120 624/780/116
f 618/774/118 625/781/115 514/642/119
f 633/789/252 608/764/253 626/782/254
f 608/764/253 633/789/87 581/737/255
f 600/756/107 631/787/104 630/786/108
f 631/787/104 600/756/105 639/795/106
f 633/789/349 529/662/84 528/660/88
f 529/662/84 633/789/85 626/782/86
f 583/739/286 598/754/288 620/776/142
f 598/754/285 583/739/286 585/741/287
f 632/788/110 628/784/109 640/796/112
f 628/784/109 632/788/110 627/783/111
f 605/761/250 508/631/249 638/794/251
f 508/631/249 605/761/204 510/635/157
f 613/769/274 591/747/275 604/760/276
f 591/747/277 613/769/274 592/748/266
f 596/752/261 630/786/262 629/785/240
f 630/786/259 596/752/236 594/750/260
f 620/776/123 519/648/98 601/757/96
f 519/648/98 620/776/97 619/775/95
f 596/752/236 606/762/237 573/729/238
f 606/762/239 596/752/219 629/785/240
f 536/674/6 546/689/6 541/681/6
f 546/689/6 536/674/6 537/676/6
f 546/689/6 537/676/6 533/670/6
f 533/670/6 537/676/6 545/687/6
f 533/670/6 545/687/6 532/668/6
f 532/668/6 545/687/6 542/683/6
