# Blender 3.3.1
# www.blender.org
o vehicle-drag-racer
v -0.606250 0.250000 0.087500
v -0.606250 -0.250000 0.087500
v -0.606250 0.250000 0.212500
v -0.606250 -0.250000 0.212500
v -0.668750 -0.187500 0.087500
v -0.668750 0.187500 0.087500
v -0.668750 -0.187500 0.212500
v -0.668750 0.187500 0.212500
v -0.650444 0.231694 0.212500
v -0.650444 0.231694 0.087500
v -0.650444 -0.231694 0.087500
v -0.650444 -0.231694 0.212500
v -0.606250 -0.137500 0.087500
v -0.606250 0.137500 0.087500
v -0.606250 -0.137500 0.297049
v -0.606250 0.137500 0.297049
v -0.606250 -0.112500 0.325000
v -0.606250 0.112500 0.325000
v -0.331250 -0.112500 0.325000
v -0.331250 0.112500 0.325000
v -0.331250 0.137500 0.297049
v -0.331250 0.137500 0.087500
v -0.331250 -0.137500 0.087500
v -0.331250 -0.137500 0.297049
v 0.543750 -0.250000 0.150000
v 0.543750 0.250000 0.150000
v 0.643750 -0.250000 0.150000
v 0.643750 0.250000 0.150000
v 0.668750 -0.250000 0.087500
v 0.543750 -0.250000 0.087500
v 0.668750 -0.250000 0.125000
v 0.543750 0.250000 0.087500
v 0.668750 0.250000 0.087500
v 0.668750 0.250000 0.125000
v -0.518750 0.031250 0.325000
v -0.456250 0.031250 0.325000
v -0.518750 0.093750 0.325000
v -0.456250 0.093750 0.325000
v -0.550000 0.093750 0.543750
v -0.612500 0.093750 0.543750
v -0.550000 0.031250 0.543750
v -0.612500 0.031250 0.543750
v -0.518750 -0.093750 0.325000
v -0.518750 -0.031250 0.325000
v -0.612500 -0.093750 0.543750
v -0.612500 -0.031250 0.543750
v -0.456250 -0.031250 0.325000
v -0.550000 -0.031250 0.543750
v -0.456250 -0.093750 0.325000
v -0.550000 -0.093750 0.543750
v -0.643750 -0.250000 0.606250
v -0.643750 0.250000 0.606250
v -0.543750 -0.250000 0.606250
v -0.543750 0.250000 0.606250
v -0.518750 -0.250000 0.543750
v -0.643750 -0.250000 0.543750
v -0.518750 -0.250000 0.581250
v -0.643750 0.250000 0.543750
v -0.518750 0.250000 0.543750
v -0.518750 0.250000 0.581250
v -0.081250 -0.112500 0.325000
v -0.081250 0.112500 0.325000
v -0.081250 0.137500 0.297049
v -0.081250 0.137500 0.087500
v -0.081250 -0.137500 0.087500
v -0.081250 -0.137500 0.297049
v 0.543750 0.137500 0.087500
v 0.543750 -0.137500 0.087500
v 0.543750 0.137500 0.209549
v 0.543750 -0.137500 0.209549
v 0.543750 0.112500 0.237500
v 0.543750 -0.112500 0.237500
v -0.081250 -0.112500 0.325000
v -0.081250 -0.137500 0.297049
v -0.081250 0.137500 0.297049
v -0.081250 0.137500 0.087500
v -0.081250 -0.137500 0.087500
v -0.031250 -0.212500 0.297049
v -0.081250 -0.212500 0.297049
v -0.031250 -0.137500 0.297049
v -0.081250 -0.137500 0.297049
v -0.081250 -0.212500 0.222049
v -0.031250 -0.212500 0.222049
v -0.081250 -0.137500 0.222049
v -0.031250 -0.137500 0.222049
v -0.006250 -0.137500 0.272049
v -0.006250 -0.212500 0.272049
v -0.006250 -0.137500 0.247049
v -0.006250 -0.212500 0.247049
v -0.031250 0.137500 0.297049
v -0.081250 0.137500 0.297049
v -0.031250 0.212500 0.297049
v -0.081250 0.212500 0.297049
v -0.081250 0.137500 0.222049
v -0.031250 0.137500 0.222049
v -0.081250 0.212500 0.222049
v -0.031250 0.212500 0.222049
v -0.006250 0.212500 0.272049
v -0.006250 0.137500 0.272049
v -0.006250 0.212500 0.247049
v -0.006250 0.137500 0.247049
v -0.268750 -0.200000 0.087500
v -0.268750 -0.137500 0.087500
v -0.268750 -0.200000 0.150000
v -0.268750 -0.137500 0.212500
v -0.268750 -0.181694 0.194194
v 0.043750 -0.137500 0.087500
v 0.043750 -0.200000 0.087500
v 0.043750 -0.137500 0.212500
v 0.043750 -0.200000 0.150000
v 0.043750 -0.181694 0.194194
v 0.043750 0.200000 0.087500
v 0.043750 0.137500 0.087500
v 0.043750 0.200000 0.150000
v 0.043750 0.137500 0.212500
v 0.043750 0.181694 0.194194
v -0.268750 0.137500 0.087500
v -0.268750 0.200000 0.087500
v -0.268750 0.137500 0.212500
v -0.268750 0.200000 0.150000
v -0.268750 0.181694 0.194194
v -0.331250 -0.087500 0.325000
v -0.331250 0.087500 0.325000
v -0.331250 -0.087500 0.387500
v -0.331250 0.087500 0.387500
v -0.168750 -0.087500 0.325000
v -0.168750 -0.087500 0.387500
v -0.143750 -0.062500 0.325000
v -0.143750 -0.062500 0.387500
v -0.143750 0.062500 0.387500
v -0.143750 0.062500 0.325000
v -0.168750 0.087500 0.325000
v -0.168750 0.087500 0.387500
v 0.468534 -0.137500 0.125000
v 0.465134 -0.137500 0.150826
v 0.465134 -0.137500 0.099174
v 0.455166 -0.137500 0.075108
v 0.455166 -0.137500 0.174892
v 0.439308 -0.137500 0.054442
v 0.439308 -0.137500 0.195558
v 0.418642 -0.137500 0.211416
v 0.418642 -0.137500 0.038584
v 0.394576 -0.137500 0.028616
v 0.394576 -0.137500 0.221384
v 0.368750 -0.137500 0.025216
v 0.368750 -0.137500 0.224784
v 0.342924 -0.137500 0.028616
v 0.342924 -0.137500 0.221384
v 0.318858 -0.137500 0.038584
v 0.318858 -0.137500 0.211416
v 0.298192 -0.137500 0.054442
v 0.298192 -0.137500 0.195558
v 0.282334 -0.137500 0.075108
v 0.282334 -0.137500 0.174892
v 0.272366 -0.137500 0.099174
v 0.272366 -0.137500 0.150826
v 0.268966 -0.137500 0.125000
v 0.331167 -0.237500 0.125000
v 0.309095 -0.262500 0.125000
v 0.342175 -0.237500 0.151575
v 0.326568 -0.262500 0.167182
v 0.368750 -0.262500 0.184655
v 0.410932 -0.262500 0.167182
v 0.368750 -0.237500 0.162583
v 0.395325 -0.237500 0.151575
v 0.368750 -0.262500 0.065345
v 0.326568 -0.262500 0.082818
v 0.368750 -0.237500 0.087418
v 0.342175 -0.237500 0.098425
v 0.410932 -0.262500 0.082818
v 0.395325 -0.237500 0.098425
v 0.428405 -0.262500 0.125000
v 0.406333 -0.237500 0.125000
v 0.272366 -0.262500 0.150826
v 0.282334 -0.262500 0.174892
v 0.268966 -0.262500 0.125000
v 0.298192 -0.262500 0.195558
v 0.318858 -0.262500 0.211416
v 0.342924 -0.262500 0.221384
v 0.368750 -0.262500 0.224784
v 0.394576 -0.262500 0.221384
v 0.418642 -0.262500 0.211416
v 0.439308 -0.262500 0.195558
v 0.455166 -0.262500 0.174892
v 0.465134 -0.262500 0.150826
v 0.468534 -0.262500 0.125000
v 0.465134 -0.262500 0.099174
v 0.455166 -0.262500 0.075108
v 0.439308 -0.262500 0.054442
v 0.418642 -0.262500 0.038584
v 0.394576 -0.262500 0.028616
v 0.368750 -0.262500 0.025216
v 0.342924 -0.262500 0.028616
v 0.318858 -0.262500 0.038584
v 0.298192 -0.262500 0.054442
v 0.282334 -0.262500 0.075108
v 0.272366 -0.262500 0.099174
v 0.248009 -0.237500 0.157352
v 0.260497 -0.237500 0.187500
v 0.280362 -0.237500 0.036612
v 0.306250 -0.237500 0.016747
v 0.318858 -0.262500 0.038584
v 0.336398 -0.237500 0.245741
v 0.368750 -0.237500 0.250000
v 0.342924 -0.262500 0.221384
v 0.457138 -0.237500 0.213388
v 0.477003 -0.237500 0.187500
v 0.394576 -0.262500 0.221384
v 0.401102 -0.237500 0.245741
v 0.418642 -0.262500 0.211416
v 0.431250 -0.237500 0.233253
v 0.336398 -0.237500 0.004259
v 0.342924 -0.262500 0.028616
v 0.368750 -0.237500 0.000000
v 0.368750 -0.262500 0.025216
v 0.455166 -0.262500 0.075108
v 0.477003 -0.237500 0.062500
v 0.489491 -0.237500 0.092648
v 0.457138 -0.237500 0.036612
v 0.306250 -0.237500 0.233253
v 0.318858 -0.262500 0.211416
v 0.280362 -0.237500 0.213388
v 0.243750 -0.237500 0.125000
v 0.418642 -0.137500 0.211416
v 0.431250 -0.162500 0.233253
v 0.457138 -0.162500 0.213388
v 0.336398 -0.162500 0.245741
v 0.368750 -0.162500 0.250000
v 0.457138 -0.162500 0.036612
v 0.455166 -0.137500 0.075108
v 0.477003 -0.162500 0.062500
v 0.248009 -0.162500 0.157352
v 0.260497 -0.162500 0.187500
v 0.248009 -0.237500 0.092648
v 0.489491 -0.237500 0.157352
v 0.401102 -0.237500 0.004259
v 0.394576 -0.262500 0.028616
v 0.336398 -0.162500 0.004259
v 0.306250 -0.162500 0.016747
v 0.489491 -0.162500 0.092648
v 0.493750 -0.162500 0.125000
v 0.493750 -0.237500 0.125000
v 0.260497 -0.237500 0.062500
v 0.282334 -0.262500 0.075108
v 0.280362 -0.162500 0.036612
v 0.394576 -0.137500 0.221384
v 0.401102 -0.162500 0.245741
v 0.418642 -0.137500 0.038584
v 0.431250 -0.162500 0.016747
v 0.248009 -0.162500 0.092648
v 0.260497 -0.162500 0.062500
v 0.282334 -0.137500 0.075108
v 0.489491 -0.162500 0.157352
v 0.401102 -0.162500 0.004259
v 0.368750 -0.162500 0.000000
v 0.280362 -0.162500 0.213388
v 0.306250 -0.162500 0.233253
v 0.318858 -0.137500 0.211416
v 0.394576 -0.137500 0.028616
v 0.477003 -0.162500 0.187500
v 0.318858 -0.137500 0.038584
v 0.418642 -0.262500 0.038584
v 0.431250 -0.237500 0.016747
v 0.342924 -0.137500 0.028616
v 0.243750 -0.162500 0.125000
v 0.342924 -0.137500 0.221384
v 0.368750 -0.137500 0.025216
v 0.468534 0.137500 0.125000
v 0.465134 0.137500 0.099174
v 0.465134 0.137500 0.150826
v 0.455166 0.137500 0.174892
v 0.455166 0.137500 0.075108
v 0.439308 0.137500 0.195558
v 0.439308 0.137500 0.054442
v 0.418642 0.137500 0.211416
v 0.418642 0.137500 0.038584
v 0.394576 0.137500 0.221384
v 0.394576 0.137500 0.028616
v 0.368750 0.137500 0.224784
v 0.368750 0.137500 0.025216
v 0.342924 0.137500 0.221384
v 0.342924 0.137500 0.028616
v 0.318858 0.137500 0.211416
v 0.318858 0.137500 0.038584
v 0.298192 0.137500 0.195558
v 0.298192 0.137500 0.054442
v 0.282334 0.137500 0.075108
v 0.282334 0.137500 0.174892
v 0.272366 0.137500 0.150826
v 0.272366 0.137500 0.099174
v 0.268966 0.137500 0.125000
v 0.406333 0.237500 0.125000
v 0.428405 0.262500 0.125000
v 0.395325 0.237500 0.151575
v 0.410932 0.262500 0.167182
v 0.342175 0.237500 0.151575
v 0.368750 0.237500 0.162583
v 0.326568 0.262500 0.167182
v 0.368750 0.262500 0.184655
v 0.395325 0.237500 0.098425
v 0.368750 0.237500 0.087418
v 0.410932 0.262500 0.082818
v 0.368750 0.262500 0.065345
v 0.331167 0.237500 0.125000
v 0.309095 0.262500 0.125000
v 0.342175 0.237500 0.098425
v 0.326568 0.262500 0.082818
v 0.272366 0.262500 0.150826
v 0.268966 0.262500 0.125000
v 0.282334 0.262500 0.174892
v 0.298192 0.262500 0.195558
v 0.318858 0.262500 0.211416
v 0.342924 0.262500 0.221384
v 0.368750 0.262500 0.224784
v 0.394576 0.262500 0.221384
v 0.418642 0.262500 0.211416
v 0.439308 0.262500 0.195558
v 0.455166 0.262500 0.174892
v 0.465134 0.262500 0.150826
v 0.468534 0.262500 0.125000
v 0.465134 0.262500 0.099174
v 0.455166 0.262500 0.075108
v 0.439308 0.262500 0.054442
v 0.418642 0.262500 0.038584
v 0.394576 0.262500 0.028616
v 0.368750 0.262500 0.025216
v 0.342924 0.262500 0.028616
v 0.318858 0.262500 0.038584
v 0.298192 0.262500 0.054442
v 0.282334 0.262500 0.075108
v 0.272366 0.262500 0.099174
v 0.489491 0.237500 0.157352
v 0.477003 0.237500 0.187500
v 0.457138 0.237500 0.036612
v 0.431250 0.237500 0.016747
v 0.418642 0.262500 0.038584
v 0.401102 0.237500 0.245741
v 0.368750 0.237500 0.250000
v 0.394576 0.262500 0.221384
v 0.280362 0.237500 0.213388
v 0.260497 0.237500 0.187500
v 0.342924 0.262500 0.221384
v 0.336398 0.237500 0.245741
v 0.318858 0.262500 0.211416
v 0.306250 0.237500 0.233253
v 0.401102 0.237500 0.004259
v 0.394576 0.262500 0.028616
v 0.368750 0.237500 0.000000
v 0.368750 0.262500 0.025216
v 0.282334 0.262500 0.075108
v 0.260497 0.237500 0.062500
v 0.248009 0.237500 0.092648
v 0.280362 0.237500 0.036612
v 0.431250 0.237500 0.233253
v 0.418642 0.262500 0.211416
v 0.457138 0.237500 0.213388
v 0.493750 0.237500 0.125000
v 0.318858 0.137500 0.211416
v 0.306250 0.162500 0.233253
v 0.280362 0.162500 0.213388
v 0.401102 0.162500 0.245741
v 0.368750 0.162500 0.250000
v 0.280362 0.162500 0.036612
v 0.282334 0.137500 0.075108
v 0.260497 0.162500 0.062500
v 0.489491 0.162500 0.157352
v 0.477003 0.162500 0.187500
v 0.489491 0.237500 0.092648
v 0.248009 0.237500 0.157352
v 0.336398 0.237500 0.004259
v 0.342924 0.262500 0.028616
v 0.401102 0.162500 0.004259
v 0.431250 0.162500 0.016747
v 0.248009 0.162500 0.092648
v 0.243750 0.162500 0.125000
v 0.243750 0.237500 0.125000
v 0.477003 0.237500 0.062500
v 0.455166 0.262500 0.075108
v 0.457138 0.162500 0.036612
v 0.342924 0.137500 0.221384
v 0.336398 0.162500 0.245741
v 0.318858 0.137500 0.038584
v 0.306250 0.162500 0.016747
v 0.489491 0.162500 0.092648
v 0.477003 0.162500 0.062500
v 0.455166 0.137500 0.075108
v 0.248009 0.162500 0.157352
v 0.336398 0.162500 0.004259
v 0.368750 0.162500 0.000000
v 0.457138 0.162500 0.213388
v 0.431250 0.162500 0.233253
v 0.418642 0.137500 0.211416
v 0.342924 0.137500 0.028616
v 0.260497 0.162500 0.187500
v 0.418642 0.137500 0.038584
v 0.318858 0.262500 0.038584
v 0.306250 0.237500 0.016747
v 0.394576 0.137500 0.028616
v 0.493750 0.162500 0.125000
v 0.394576 0.137500 0.221384
v 0.368750 0.137500 0.025216
v -0.508978 -0.293750 0.103522
v -0.530819 -0.293750 0.156250
v -0.489469 -0.262500 0.123031
v -0.503228 -0.262500 0.156250
v -0.489469 -0.262500 0.189469
v -0.508978 -0.293750 0.208978
v -0.409272 -0.262500 0.156250
v -0.423031 -0.262500 0.189469
v -0.381681 -0.293750 0.156250
v -0.403522 -0.293750 0.208978
v -0.403522 -0.293750 0.103522
v -0.456250 -0.293750 0.081681
v -0.423031 -0.262500 0.123031
v -0.456250 -0.262500 0.109272
v -0.576730 -0.293750 0.123967
v -0.580980 -0.293750 0.156250
v -0.564270 -0.293750 0.093885
v -0.544448 -0.293750 0.068052
v -0.518615 -0.293750 0.048230
v -0.488533 -0.293750 0.035770
v -0.456250 -0.293750 0.031520
v -0.423967 -0.293750 0.035770
v -0.393885 -0.293750 0.048230
v -0.368052 -0.293750 0.068052
v -0.348230 -0.293750 0.093885
v -0.335770 -0.293750 0.123967
v -0.331520 -0.293750 0.156250
v -0.335770 -0.293750 0.188533
v -0.348230 -0.293750 0.218615
v -0.368052 -0.293750 0.244448
v -0.393885 -0.293750 0.264270
v -0.423967 -0.293750 0.276730
v -0.456250 -0.293750 0.230819
v -0.456250 -0.293750 0.280980
v -0.488533 -0.293750 0.276730
v -0.518615 -0.293750 0.264270
v -0.544448 -0.293750 0.244448
v -0.564270 -0.293750 0.218615
v -0.576730 -0.293750 0.188533
v -0.331520 -0.137500 0.156250
v -0.335770 -0.137500 0.188533
v -0.335770 -0.137500 0.123967
v -0.348230 -0.137500 0.093885
v -0.348230 -0.137500 0.218615
v -0.368052 -0.137500 0.068052
v -0.368052 -0.137500 0.244448
v -0.393885 -0.137500 0.264270
v -0.393885 -0.137500 0.048230
v -0.423967 -0.137500 0.035770
v -0.423967 -0.137500 0.276730
v -0.456250 -0.137500 0.031520
v -0.456250 -0.137500 0.280980
v -0.488533 -0.137500 0.035770
v -0.488533 -0.137500 0.276730
v -0.518615 -0.137500 0.048230
v -0.518615 -0.137500 0.264270
v -0.544448 -0.137500 0.068052
v -0.544448 -0.137500 0.244448
v -0.564270 -0.137500 0.093885
v -0.564270 -0.137500 0.218615
v -0.576730 -0.137500 0.123967
v -0.576730 -0.137500 0.188533
v -0.580980 -0.137500 0.156250
v -0.456250 -0.262500 0.203228
v -0.607176 -0.262500 0.196690
v -0.591567 -0.262500 0.234375
v -0.564270 -0.293750 0.218615
v -0.566735 -0.262500 0.045764
v -0.534375 -0.262500 0.020933
v -0.518615 -0.293750 0.048230
v -0.496691 -0.262500 0.307176
v -0.456250 -0.262500 0.312500
v -0.368052 -0.293750 0.244448
v -0.345765 -0.262500 0.266735
v -0.348230 -0.293750 0.218615
v -0.320934 -0.262500 0.234375
v -0.415810 -0.262500 0.307176
v -0.378125 -0.262500 0.291566
v -0.496690 -0.262500 0.005324
v -0.488533 -0.293750 0.035770
v -0.456250 -0.262500 -0.000000
v -0.335770 -0.293750 0.123967
v -0.320933 -0.262500 0.078125
v -0.305324 -0.262500 0.115809
v -0.345765 -0.262500 0.045765
v -0.534375 -0.262500 0.291566
v -0.566735 -0.262500 0.266735
v -0.544448 -0.293750 0.244448
v -0.612500 -0.262500 0.156250
v -0.368052 -0.137500 0.244448
v -0.378125 -0.168750 0.291566
v -0.345765 -0.168750 0.266735
v -0.496691 -0.168750 0.307176
v -0.456250 -0.168750 0.312500
v -0.345765 -0.168750 0.045765
v -0.320933 -0.168750 0.078125
v -0.607176 -0.168750 0.196690
v -0.591567 -0.168750 0.234375
v -0.564270 -0.137500 0.218615
v -0.607176 -0.262500 0.115809
v -0.576730 -0.293750 0.123967
v -0.335770 -0.293750 0.188533
v -0.305324 -0.262500 0.196690
v -0.415809 -0.262500 0.005324
v -0.423967 -0.293750 0.035770
v -0.496691 -0.168750 0.005324
v -0.534375 -0.168750 0.020933
v -0.335770 -0.137500 0.123967
v -0.305324 -0.168750 0.115809
v -0.300000 -0.168750 0.156250
v -0.300000 -0.262500 0.156250
v -0.591567 -0.262500 0.078125
v -0.566735 -0.168750 0.045764
v -0.415810 -0.168750 0.307176
v -0.393885 -0.137500 0.048230
v -0.378125 -0.168750 0.020933
v -0.607176 -0.168750 0.115809
v -0.591567 -0.168750 0.078125
v -0.576730 -0.137500 0.123967
v -0.305324 -0.168750 0.196690
v -0.415810 -0.168750 0.005324
v -0.456250 -0.168750 -0.000000
v -0.566735 -0.168750 0.266735
v -0.544448 -0.137500 0.244448
v -0.534375 -0.168750 0.291566
v -0.423967 -0.137500 0.035770
v -0.348230 -0.137500 0.218615
v -0.320934 -0.168750 0.234375
v -0.518615 -0.137500 0.048230
v -0.335770 -0.137500 0.188533
v -0.393885 -0.293750 0.048230
v -0.378125 -0.262500 0.020933
v -0.488533 -0.137500 0.035770
v -0.612500 -0.168750 0.156250
v -0.409272 0.262500 0.156250
v -0.381681 0.293750 0.156250
v -0.423031 0.262500 0.189469
v -0.403522 0.293750 0.208978
v -0.576730 0.293750 0.123967
v -0.564270 0.293750 0.093885
v -0.580980 0.293750 0.156250
v -0.544448 0.293750 0.068052
v -0.530819 0.293750 0.156250
v -0.518615 0.293750 0.048230
v -0.508978 0.293750 0.103522
v -0.488533 0.293750 0.035770
v -0.456250 0.293750 0.031520
v -0.456250 0.293750 0.081681
v -0.423967 0.293750 0.035770
v -0.403522 0.293750 0.103522
v -0.393885 0.293750 0.048230
v -0.368052 0.293750 0.068052
v -0.348230 0.293750 0.093885
v -0.335770 0.293750 0.123967
v -0.331520 0.293750 0.156250
v -0.335770 0.293750 0.188533
v -0.348230 0.293750 0.218615
v -0.368052 0.293750 0.244448
v -0.393885 0.293750 0.264270
v -0.423967 0.293750 0.276730
v -0.456250 0.293750 0.230819
v -0.456250 0.293750 0.280980
v -0.508978 0.293750 0.208978
v -0.488533 0.293750 0.276730
v -0.518615 0.293750 0.264270
v -0.544448 0.293750 0.244448
v -0.564270 0.293750 0.218615
v -0.576730 0.293750 0.188533
v -0.489469 0.262500 0.189469
v -0.456250 0.262500 0.203228
v -0.331520 0.137500 0.156250
v -0.335770 0.137500 0.123967
v -0.335770 0.137500 0.188533
v -0.348230 0.137500 0.218615
v -0.348230 0.137500 0.093885
v -0.368052 0.137500 0.244448
v -0.368052 0.137500 0.068052
v -0.393885 0.137500 0.264270
v -0.393885 0.137500 0.048230
v -0.423967 0.137500 0.276730
v -0.423967 0.137500 0.035770
v -0.456250 0.137500 0.280980
v -0.456250 0.137500 0.031520
v -0.488533 0.137500 0.276730
v -0.488533 0.137500 0.035770
v -0.518615 0.137500 0.264270
v -0.518615 0.137500 0.048230
v -0.544448 0.137500 0.244448
v -0.544448 0.137500 0.068052
v -0.564270 0.137500 0.093885
v -0.564270 0.137500 0.218615
v -0.576730 0.137500 0.188533
v -0.576730 0.137500 0.123967
v -0.580980 0.137500 0.156250
v -0.423031 0.262500 0.123031
v -0.456250 0.262500 0.109272
v -0.489469 0.262500 0.123031
v -0.503228 0.262500 0.156250
v -0.305324 0.262500 0.196690
v -0.320934 0.262500 0.234375
v -0.335770 0.293750 0.188533
v -0.348230 0.293750 0.218615
v -0.345765 0.262500 0.045765
v -0.378125 0.262500 0.020933
v -0.393885 0.293750 0.048230
v -0.415810 0.262500 0.307176
v -0.456250 0.262500 0.312500
v -0.544448 0.293750 0.244448
v -0.566735 0.262500 0.266735
v -0.564270 0.293750 0.218615
v -0.591567 0.262500 0.234375
v -0.496691 0.262500 0.307176
v -0.534375 0.262500 0.291566
v -0.415810 0.262500 0.005324
v -0.423967 0.293750 0.035770
v -0.456250 0.262500 -0.000000
v -0.576730 0.293750 0.123967
v -0.591567 0.262500 0.078125
v -0.607176 0.262500 0.115809
v -0.566735 0.262500 0.045764
v -0.378125 0.262500 0.291566
v -0.345765 0.262500 0.266735
v -0.368052 0.293750 0.244448
v -0.300000 0.262500 0.156250
v -0.544448 0.137500 0.244448
v -0.534375 0.168750 0.291566
v -0.566735 0.168750 0.266735
v -0.415810 0.168750 0.307176
v -0.456250 0.168750 0.312500
v -0.566735 0.168750 0.045764
v -0.591567 0.168750 0.078125
v -0.305324 0.168750 0.196690
v -0.335770 0.137500 0.188533
v -0.320934 0.168750 0.234375
v -0.348230 0.137500 0.218615
v -0.305324 0.262500 0.115809
v -0.335770 0.293750 0.123967
v -0.607176 0.262500 0.196690
v -0.496691 0.262500 0.005324
v -0.488533 0.293750 0.035770
v -0.415810 0.168750 0.005324
v -0.378125 0.168750 0.020933
v -0.576730 0.137500 0.123967
v -0.607176 0.168750 0.115809
v -0.612500 0.168750 0.156250
v -0.612500 0.262500 0.156250
v -0.320934 0.262500 0.078125
v -0.345765 0.168750 0.045765
v -0.496691 0.168750 0.307176
v -0.518615 0.137500 0.048230
v -0.534375 0.168750 0.020933
v -0.305324 0.168750 0.115809
v -0.320934 0.168750 0.078125
v -0.335770 0.137500 0.123967
v -0.607176 0.168750 0.196690
v -0.496691 0.168750 0.005324
v -0.456250 0.168750 -0.000000
v -0.345765 0.168750 0.266735
v -0.368052 0.137500 0.244448
v -0.378125 0.168750 0.291566
v -0.488533 0.137500 0.035770
v -0.564270 0.137500 0.218615
v -0.591567 0.168750 0.234375
v -0.393885 0.137500 0.048230
v -0.518615 0.293750 0.048230
v -0.534375 0.262500 0.020933
v -0.423967 0.137500 0.035770
v -0.300000 0.168750 0.156250
vn 0.5556 0.8315 0.0001
vn 0.5556 -0.8315 -0.0000
vn 0.5556 0.8315 -0.0000
vn 0.5556 -0.8315 -0.0001
vn -0.9808 -0.1951 -0.0000
vn -0.9808 0.1951 -0.0000
vn -0.7071 0.7071 -0.0000
vn -0.7071 -0.7071 -0.0000
vn -0.0000 -0.0000 1.0000
vn -0.0000 -0.0000 -1.0000
vn -1.0000 -0.0000 -0.0000
vn -0.0000 0.4082 0.9129
vn -0.0000 -0.4082 0.9129
vn -0.0000 0.9342 0.3568
vn -0.0000 0.4083 0.9129
vn -0.0000 1.0000 -0.0000
vn -0.0000 -0.9342 0.3568
vn -0.0000 -1.0000 -0.0000
vn -0.0000 -0.4083 0.9129
vn 0.3827 -0.0000 0.9239
vn 1.0000 -0.0000 -0.0000
vn 0.9239 -0.0000 0.3827
vn -0.5720 0.7828 -0.2452
vn 0.5720 0.7828 0.2452
vn 0.7381 0.5960 0.3163
vn -0.7381 0.5960 -0.3163
vn 0.5720 -0.7828 0.2452
vn -0.5720 -0.7828 -0.2452
vn 0.7381 -0.5960 0.3163
vn -0.7381 -0.5960 -0.3163
vn 0.5720 -0.7828 0.2451
vn 0.5720 0.7828 0.2451
vn -0.5720 0.7828 -0.2451
vn -0.5720 -0.7828 -0.2451
vn 0.1275 -0.3922 0.9110
vn 0.0459 -0.9434 0.3283
vn 0.1259 -0.4190 0.8992
vn 0.0460 -0.9434 0.3283
vn 0.1276 -0.3922 0.9110
vn 0.0536 -0.9221 0.3832
vn 0.0536 0.9221 0.3832
vn 0.1259 0.4190 0.8992
vn 0.0460 0.9434 0.3283
vn 0.0537 0.9221 0.3832
vn 0.1275 0.3922 0.9110
vn 0.1261 -0.4190 0.8992
vn 0.1276 0.3922 0.9110
vn 0.0537 -0.9221 0.3832
vn 0.3827 -0.0000 -0.9239
vn 0.9239 -0.0000 -0.3827
vn -0.0000 -0.9808 0.1951
vn -0.0000 -0.7071 0.7071
vn -0.0000 -0.3827 0.9239
vn -0.0000 0.9808 0.1951
vn -0.0000 0.7071 0.7071
vn -0.0000 0.3827 0.9239
vn 0.3827 -0.9239 -0.0000
vn 0.9239 -0.3827 -0.0000
vn 0.9239 0.3827 -0.0000
vn 0.3827 0.9239 -0.0000
vn 0.5301 -0.6618 -0.5301
vn 0.7496 -0.6618 -0.0000
vn 0.7496 -0.6619 -0.0000
vn 0.5301 -0.6619 -0.5301
vn -0.0000 -0.6618 -0.7496
vn -0.5301 -0.6619 -0.5301
vn -0.0000 -0.6619 -0.7496
vn -0.5301 -0.6618 -0.5301
vn -0.0000 -0.6618 0.7496
vn 0.5301 -0.6619 0.5301
vn -0.0000 -0.6619 0.7496
vn 0.5301 -0.6618 0.5301
vn -0.7496 -0.6619 -0.0000
vn -0.5301 -0.6618 0.5301
vn -0.5301 -0.6619 0.5301
vn -0.7496 -0.6618 -0.0000
vn -0.6801 -0.7101 0.1822
vn -0.8033 -0.3738 0.4638
vn -0.8959 -0.3738 0.2401
vn -0.8033 -0.3737 0.4637
vn -0.6097 -0.7101 0.3520
vn -0.4638 -0.3738 -0.8033
vn -0.4978 -0.7101 -0.4979
vn -0.6559 -0.3738 -0.6559
vn -0.4978 -0.7101 -0.4978
vn -0.4637 -0.3738 -0.8033
vn -0.3520 -0.7101 -0.6097
vn -0.1822 -0.7101 0.6801
vn -0.0000 -0.3738 0.9275
vn -0.2401 -0.3738 0.8959
vn -0.0000 -0.7101 0.7041
vn 0.6097 -0.7101 0.3520
vn 0.6559 -0.3738 0.6558
vn 0.4979 -0.7101 0.4978
vn 0.6559 -0.3738 0.6559
vn 0.8033 -0.3738 0.4638
vn 0.3520 -0.7101 0.6097
vn 0.2400 -0.3738 0.8959
vn 0.1822 -0.7101 0.6801
vn 0.2401 -0.3738 0.8959
vn 0.4638 -0.3738 0.8033
vn -0.0000 -0.3738 -0.9275
vn -0.1822 -0.7101 -0.6801
vn -0.2401 -0.3738 -0.8959
vn -0.0000 -0.7101 -0.7041
vn 0.8032 -0.3738 -0.4638
vn 0.6801 -0.7101 -0.1822
vn 0.6097 -0.7101 -0.3520
vn 0.8033 -0.3738 -0.4638
vn 0.8959 -0.3738 -0.2401
vn 0.6558 -0.3738 -0.6559
vn 0.4978 -0.7101 -0.4978
vn 0.6559 -0.3738 -0.6559
vn -0.3520 -0.7101 0.6097
vn -0.4638 -0.3738 0.8033
vn -0.2400 -0.3738 0.8959
vn -0.6559 -0.3738 0.6559
vn -0.6559 -0.3738 0.6558
vn -0.4978 -0.7101 0.4978
vn -0.4978 -0.7101 0.4979
vn -0.4637 -0.3738 0.8033
vn -0.7041 -0.7101 -0.0000
vn -0.8959 -0.3738 0.2400
vn -0.9275 -0.3738 -0.0000
vn -0.8959 -0.3737 0.2400
vn 0.4638 0.3738 0.8032
vn 0.4978 0.7101 0.4979
vn 0.3520 0.7101 0.6097
vn 0.4638 0.3738 0.8033
vn 0.6559 0.3738 0.6559
vn -0.2400 -0.3737 0.8959
vn -0.0000 0.3737 0.9275
vn -0.2400 0.3737 0.8959
vn -0.2401 -0.3737 0.8959
vn -0.0000 -0.3737 0.9275
vn 0.6097 0.7101 -0.3520
vn 0.6558 0.3738 -0.6559
vn 0.4978 0.7101 -0.4978
vn 0.6559 0.3738 -0.6559
vn 0.8033 0.3738 -0.4638
vn -0.8033 0.3738 0.4638
vn -0.6801 0.7101 0.1822
vn -0.8959 0.3738 0.2401
vn -0.8033 0.3737 0.4637
vn -0.6097 0.7101 0.3520
vn -0.8959 -0.3738 -0.2400
vn -0.8959 -0.3737 -0.2400
vn -0.6801 -0.7101 -0.1822
vn 0.6801 -0.7101 0.1822
vn 0.8033 -0.3737 0.4637
vn 0.8959 -0.3738 0.2401
vn 0.2400 -0.3738 -0.8959
vn 0.2401 -0.3738 -0.8959
vn 0.1822 -0.7101 -0.6801
vn -0.2401 -0.3737 -0.8959
vn -0.4638 0.3737 -0.8033
vn -0.2401 0.3737 -0.8959
vn -0.4637 0.3737 -0.8033
vn -0.4637 -0.3737 -0.8033
vn 0.4978 -0.7101 0.4979
vn 0.4638 -0.3738 0.8032
vn -0.2400 -0.3738 -0.8959
vn 0.6801 0.7101 -0.1822
vn 0.8032 0.3738 -0.4638
vn 0.8959 0.3738 -0.2401
vn 0.9275 0.3737 -0.0000
vn 0.8959 -0.3737 -0.2400
vn 0.8959 0.3737 -0.2400
vn 0.8959 -0.3737 -0.2401
vn 0.9275 -0.3737 -0.0000
vn -0.6097 -0.7101 -0.3520
vn -0.8033 -0.3738 -0.4638
vn -0.6559 -0.3737 -0.6558
vn -0.4638 -0.3737 -0.8032
vn -0.6559 0.3737 -0.6559
vn -0.4638 0.3737 -0.8032
vn -0.6558 0.3737 -0.6559
vn -0.4638 -0.3737 -0.8033
vn -0.6558 -0.3737 -0.6559
vn 0.2400 0.3738 0.8959
vn 0.1822 0.7101 0.6801
vn 0.2401 0.3738 0.8959
vn 0.4637 0.3738 -0.8033
vn 0.3520 0.7101 -0.6097
vn 0.4638 0.3738 -0.8033
vn 0.4978 0.7101 -0.4979
vn -0.6801 0.7101 -0.1822
vn -0.8033 0.3738 -0.4638
vn -0.8959 0.3738 -0.2401
vn -0.8032 0.3738 -0.4638
vn -0.6097 0.7101 -0.3520
vn 0.7041 0.7101 -0.0000
vn 0.8959 0.3738 -0.2400
vn 0.9275 0.3738 -0.0000
vn 0.8959 0.3737 0.2401
vn 0.8959 0.3737 0.2400
vn 0.8959 -0.3737 0.2400
vn 0.2400 -0.3737 -0.8959
vn -0.0000 0.3737 -0.9275
vn 0.2400 0.3737 -0.8959
vn 0.2401 -0.3737 -0.8959
vn -0.0000 -0.3737 -0.9275
vn -0.4638 0.3738 0.8033
vn -0.4978 0.7101 0.4978
vn -0.6559 0.3738 0.6559
vn -0.4978 0.7101 0.4979
vn -0.4637 0.3738 0.8033
vn -0.3520 0.7101 0.6097
vn 0.2400 0.3738 -0.8959
vn 0.1822 0.7101 -0.6801
vn 0.2401 0.3738 -0.8959
vn 0.6559 0.3738 0.6558
vn 0.6097 0.7101 0.3520
vn 0.4979 0.7101 0.4978
vn 0.8033 0.3738 0.4638
vn -0.4978 0.7101 -0.4979
vn -0.4638 0.3738 -0.8033
vn -0.6559 0.3738 -0.6559
vn -0.4637 0.3738 -0.8033
vn -0.4978 0.7101 -0.4978
vn -0.3520 0.7101 -0.6097
vn -0.2400 0.3737 -0.8959
vn -0.2400 -0.3737 -0.8959
vn 0.8033 0.3737 -0.4638
vn 0.6559 -0.3737 -0.6558
vn 0.6559 0.3737 -0.6559
vn 0.6559 -0.3737 -0.6559
vn 0.8032 0.3737 -0.4638
vn 0.8032 -0.3737 -0.4638
vn 0.6559 0.3737 0.6559
vn 0.8032 -0.3737 0.4638
vn 0.8032 0.3737 0.4638
vn 0.8033 -0.3737 0.4638
vn 0.6559 0.3737 0.6558
vn 0.6559 -0.3737 0.6559
vn 0.8959 0.3738 0.2401
vn 0.6801 0.7101 0.1822
vn 0.8959 0.3738 0.2400
vn 0.3520 -0.7101 -0.6097
vn 0.4638 -0.3738 -0.8033
vn 0.2401 0.3737 0.8959
vn 0.2400 0.3737 0.8959
vn 0.2400 -0.3737 0.8959
vn -0.8959 -0.3738 -0.2401
vn -0.8032 -0.3738 -0.4638
vn 0.7041 -0.7101 -0.0000
vn 0.8959 -0.3738 0.2400
vn 0.9275 -0.3738 -0.0000
vn -0.8033 -0.3737 0.4638
vn -0.8959 0.3737 0.2401
vn -0.8959 -0.3737 0.2401
vn -0.8033 0.3737 0.4638
vn -0.2401 0.3738 -0.8959
vn -0.2400 0.3738 -0.8959
vn -0.1822 0.7101 -0.6801
vn 0.4638 -0.3737 0.8032
vn 0.4638 0.3737 0.8032
vn 0.6558 0.3737 0.6559
vn 0.4638 -0.3737 0.8033
vn -0.9275 -0.3737 -0.0000
vn -0.8959 0.3737 -0.2400
vn -0.8959 0.3737 -0.2401
vn -0.9275 0.3737 -0.0000
vn 0.4637 -0.3738 -0.8033
vn 0.4978 -0.7101 -0.4979
vn -0.7041 0.7101 -0.0000
vn -0.8959 0.3738 -0.2400
vn -0.9275 0.3738 -0.0000
vn -0.8959 0.3737 0.2400
vn -0.6559 0.3737 0.6558
vn -0.8959 -0.3737 -0.2401
vn -0.8033 0.3737 -0.4637
vn -0.8033 -0.3737 -0.4638
vn -0.8033 0.3737 -0.4638
vn 0.8959 -0.3738 -0.2400
vn 0.4637 -0.3737 -0.8033
vn 0.2401 0.3737 -0.8959
vn 0.4637 0.3737 -0.8033
vn 0.4638 -0.3737 -0.8033
vn -0.6559 0.3737 -0.6558
vn -0.8032 -0.3737 -0.4638
vn -0.4637 -0.3737 0.8033
vn -0.2401 0.3737 0.8959
vn -0.4638 0.3737 0.8033
vn -0.4638 -0.3737 0.8033
vn 0.6558 -0.3737 -0.6559
vn 0.4638 0.3737 -0.8033
vn 0.6558 0.3737 -0.6559
vn 0.4638 0.3737 -0.8032
vn 0.4638 -0.3737 -0.8032
vn -0.0000 0.3738 0.9275
vn -0.1822 0.7101 0.6801
vn -0.2401 0.3738 0.8959
vn -0.0000 0.7101 0.7041
vn -0.0000 0.3738 -0.9275
vn -0.0000 0.7101 -0.7041
vn 0.8033 0.3737 0.4638
vn 0.8959 -0.3737 0.2401
vn 0.8033 0.3737 0.4637
vn -0.2400 0.3738 0.8959
vn 0.2401 -0.3737 0.8959
vn 0.4638 0.3737 0.8033
vn 0.4637 0.3737 0.8033
vn -0.8959 0.3738 0.2400
vn 0.8959 0.3737 -0.2401
vn 0.8033 -0.3737 -0.4637
vn 0.8033 -0.3737 -0.4638
vn -0.6558 -0.3737 0.6559
vn -0.6558 0.3737 0.6559
vn -0.4638 0.3737 0.8032
vn -0.6559 -0.3737 0.6559
vn -0.8032 0.3737 0.4638
vn -0.6559 -0.3737 0.6558
vn -0.5301 0.6618 -0.5301
vn -0.7496 0.6618 -0.0000
vn -0.7496 0.6619 -0.0000
vn -0.5301 0.6619 -0.5301
vn 0.5301 0.6618 -0.5301
vn -0.0000 0.6618 -0.7496
vn 0.5301 0.6619 -0.5301
vn -0.0000 0.6619 -0.7496
vn -0.5301 0.6618 0.5301
vn -0.0000 0.6618 0.7496
vn -0.5301 0.6619 0.5301
vn -0.0000 0.6619 0.7496
vn 0.7496 0.6618 -0.0000
vn 0.7496 0.6619 -0.0000
vn 0.5301 0.6618 0.5301
vn 0.5301 0.6619 0.5301
vn -0.6559 0.3738 0.6558
vn -0.4638 -0.3737 0.8032
vn -0.8032 -0.3738 0.4638
vn 0.6558 -0.3738 0.6559
vn 0.4978 -0.7101 0.4978
vn -0.6558 -0.3738 0.6559
vn -0.8032 0.3738 0.4638
vn 0.8032 -0.3738 0.4638
vn -0.6558 -0.3738 -0.6559
vn 0.6558 0.3738 0.6559
vn 0.4978 0.7101 0.4978
vn 0.6559 0.3737 -0.6558
vn 0.6559 -0.3737 0.6558
vn 0.6558 -0.3737 0.6559
vn -0.6558 0.3738 0.6559
vn -0.6558 0.3738 -0.6559
vn -0.4979 0.7101 -0.4978
vn 0.8032 0.3738 0.4638
vt 0.218750 0.025000
vt 0.218750 0.025000
vt 0.218750 0.225000
vt 0.218750 0.225000
vt 0.218750 0.025000
vt 0.218750 0.025000
vt 0.218750 0.225000
vt 0.218750 0.225000
vt 0.218750 0.225000
vt 0.218750 0.025000
vt 0.218750 0.025000
vt 0.218750 0.225000
vt 0.218750 0.025000
vt 0.218750 0.025000
vt 0.218750 0.201462
vt 0.218750 0.201462
vt 0.218750 0.225000
vt 0.218750 0.225000
vt 0.218750 0.225000
vt 0.468750 0.475000
vt 0.218750 0.225000
vt 0.468750 0.475000
vt 0.218750 0.201462
vt 0.468750 0.451462
vt 0.218750 0.025000
vt 0.468750 0.275000
vt 0.218750 0.025000
vt 0.468750 0.275000
vt 0.218750 0.201462
vt 0.468750 0.451462
vt 0.218750 0.225000
vt 0.218750 0.225000
vt 0.218750 0.225000
vt 0.218750 0.225000
vt 0.218750 0.025000
vt 0.218750 0.025000
vt 0.218750 0.145000
vt 0.218750 0.025000
vt 0.218750 0.025000
vt 0.218750 0.145000
vt 0.218750 0.225000
vt 0.218750 0.225000
vt 0.218750 0.225000
vt 0.218750 0.225000
vt 0.218750 0.025000
vt 0.218750 0.025000
vt 0.218750 0.025000
vt 0.218750 0.025000
vt 0.218750 0.225000
vt 0.218750 0.225000
vt 0.218750 0.025000
vt 0.218750 0.025000
vt 0.218750 0.225000
vt 0.218750 0.025000
vt 0.218750 0.225000
vt 0.218750 0.025000
vt 0.218750 0.175000
vt 0.218750 0.175000
vt 0.218750 0.175000
vt 0.218750 0.175000
vt 0.218750 0.075000
vt 0.218750 0.075000
vt 0.218750 0.135000
vt 0.218750 0.075000
vt 0.218750 0.075000
vt 0.218750 0.135000
vt 0.468750 0.475000
vt 0.468750 0.475000
vt 0.468750 0.451462
vt 0.468750 0.275000
vt 0.468750 0.275000
vt 0.468750 0.451462
vt 0.468750 0.275000
vt 0.468750 0.275000
vt 0.468750 0.351852
vt 0.468750 0.351852
vt 0.468750 0.381667
vt 0.468750 0.381667
vt 0.468750 0.475000
vt 0.468750 0.445186
vt 0.468750 0.445186
vt 0.468750 0.275000
vt 0.468750 0.275000
vt 0.468750 0.425000
vt 0.468750 0.425000
vt 0.468750 0.425000
vt 0.468750 0.425000
vt 0.468750 0.325000
vt 0.468750 0.325000
vt 0.468750 0.325000
vt 0.468750 0.325000
vt 0.468750 0.391667
vt 0.468750 0.391667
vt 0.468750 0.358333
vt 0.468750 0.358333
vt 0.468750 0.425000
vt 0.468750 0.425000
vt 0.468750 0.425000
vt 0.468750 0.425000
vt 0.468750 0.325000
vt 0.468750 0.325000
vt 0.468750 0.325000
vt 0.468750 0.325000
vt 0.468750 0.391667
vt 0.468750 0.391667
vt 0.468750 0.358333
vt 0.468750 0.358333
vt 0.593750 0.075000
vt 0.593750 0.075000
vt 0.593750 0.125000
vt 0.593750 0.175000
vt 0.593750 0.160355
vt 0.593750 0.075000
vt 0.593750 0.075000
vt 0.593750 0.175000
vt 0.593750 0.125000
vt 0.593750 0.160355
vt 0.593750 0.075000
vt 0.593750 0.075000
vt 0.593750 0.125000
vt 0.593750 0.175000
vt 0.593750 0.160355
vt 0.593750 0.075000
vt 0.593750 0.075000
vt 0.593750 0.175000
vt 0.593750 0.125000
vt 0.593750 0.160355
vt 0.593750 0.075000
vt 0.593750 0.075000
vt 0.593750 0.175000
vt 0.593750 0.175000
vt 0.593750 0.075000
vt 0.593750 0.175000
vt 0.593750 0.075000
vt 0.593750 0.175000
vt 0.593750 0.175000
vt 0.593750 0.075000
vt 0.593750 0.075000
vt 0.593750 0.175000
vt 0.343750 0.025000
vt 0.343750 0.175000
vt 0.343750 0.076764
vt 0.343750 0.185330
vt 0.343750 0.025000
vt 0.343750 0.164670
vt 0.343750 0.025000
vt 0.343750 0.125000
vt 0.343750 0.194957
vt 0.343750 0.025000
vt 0.343750 0.146777
vt 0.343750 0.166421
vt 0.343750 0.203223
vt 0.343750 0.198205
vt 0.343750 0.025000
vt 0.343750 0.025000
vt 0.343750 0.218185
vt 0.343750 0.025000
vt 0.343750 0.225000
vt 0.343750 0.214914
vt 0.343750 0.025000
vt 0.343750 0.218185
vt 0.343750 0.025000
vt 0.343750 0.198205
vt 0.343750 0.025000
vt 0.343750 0.146777
vt 0.343750 0.166421
vt 0.343750 0.203223
vt 0.343750 0.025000
vt 0.343750 0.125000
vt 0.343750 0.194957
vt 0.343750 0.025000
vt 0.343750 0.164670
vt 0.343750 0.076764
vt 0.343750 0.185330
vt 0.343750 0.025000
vt 0.343750 0.175000
vt 0.343750 0.025000
vt 0.593750 0.025000
vt 0.343750 0.025000
vt 0.343750 0.078265
vt 0.593750 0.078265
vt 0.343750 0.109547
vt 0.343750 0.144568
vt 0.343750 0.109547
vt 0.343750 0.100328
vt 0.593750 0.100328
vt 0.343750 0.078265
vt 0.593750 0.078265
vt 0.343750 0.025000
vt 0.343750 0.025000
vt 0.343750 0.025000
vt 0.593750 0.025000
vt 0.343750 0.025000
vt 0.593750 0.025000
vt 0.343750 0.025000
vt 0.343750 0.025000
vt 0.593750 0.025000
vt 0.343750 0.025000
vt 0.343750 0.025000
vt 0.593750 0.025000
vt 0.343750 0.076764
vt 0.343750 0.185330
vt 0.343750 0.125000
vt 0.343750 0.194957
vt 0.343750 0.025000
vt 0.343750 0.175000
vt 0.343750 0.166421
vt 0.343750 0.203223
vt 0.343750 0.198205
vt 0.343750 0.218185
vt 0.343750 0.225000
vt 0.343750 0.214914
vt 0.343750 0.218185
vt 0.343750 0.198205
vt 0.343750 0.166421
vt 0.343750 0.203223
vt 0.343750 0.125000
vt 0.343750 0.194957
vt 0.343750 0.076764
vt 0.343750 0.185330
vt 0.343750 0.025000
vt 0.343750 0.175000
vt 0.343750 0.025000
vt 0.343750 0.164670
vt 0.343750 0.025000
vt 0.343750 0.025000
vt 0.343750 0.146777
vt 0.343750 0.025000
vt 0.343750 0.025000
vt 0.343750 0.025000
vt 0.343750 0.025000
vt 0.343750 0.025000
vt 0.343750 0.025000
vt 0.343750 0.146777
vt 0.343750 0.025000
vt 0.343750 0.025000
vt 0.343750 0.164670
vt 0.343750 0.187941
vt 0.343750 0.200000
vt 0.343750 0.139645
vt 0.343750 0.131699
vt 0.343750 0.140434
vt 0.343750 0.223296
vt 0.343750 0.225000
vt 0.343750 0.213554
vt 0.343750 0.210355
vt 0.343750 0.200000
vt 0.343750 0.213554
vt 0.343750 0.223296
vt 0.343750 0.209566
vt 0.343750 0.218301
vt 0.343750 0.126704
vt 0.343750 0.136446
vt 0.343750 0.125000
vt 0.343750 0.135086
vt 0.343750 0.155043
vt 0.343750 0.150000
vt 0.343750 0.162059
vt 0.343750 0.139645
vt 0.343750 0.218301
vt 0.343750 0.209566
vt 0.343750 0.210355
vt 0.343750 0.175000
vt 0.343750 0.209566
vt 0.343750 0.218301
vt 0.343750 0.210355
vt 0.343750 0.223296
vt 0.343750 0.225000
vt 0.343750 0.139645
vt 0.343750 0.155043
vt 0.343750 0.150000
vt 0.343750 0.187941
vt 0.343750 0.200000
vt 0.343750 0.162059
vt 0.343750 0.187941
vt 0.343750 0.126704
vt 0.343750 0.136446
vt 0.343750 0.126704
vt 0.343750 0.131699
vt 0.343750 0.162059
vt 0.343750 0.175000
vt 0.343750 0.175000
vt 0.343750 0.150000
vt 0.343750 0.155043
vt 0.343750 0.139645
vt 0.343750 0.213554
vt 0.343750 0.223296
vt 0.343750 0.140434
vt 0.343750 0.131699
vt 0.343750 0.162059
vt 0.343750 0.150000
vt 0.343750 0.155043
vt 0.343750 0.187941
vt 0.343750 0.126704
vt 0.343750 0.125000
vt 0.343750 0.210355
vt 0.343750 0.218301
vt 0.343750 0.209566
vt 0.343750 0.136446
vt 0.343750 0.200000
vt 0.343750 0.140434
vt 0.343750 0.140434
vt 0.343750 0.131699
vt 0.343750 0.136446
vt 0.343750 0.175000
vt 0.343750 0.213554
vt 0.343750 0.135086
vt 0.343750 0.025000
vt 0.343750 0.175000
vt 0.343750 0.025000
vt 0.343750 0.164670
vt 0.343750 0.076764
vt 0.343750 0.185330
vt 0.343750 0.125000
vt 0.343750 0.194957
vt 0.343750 0.025000
vt 0.343750 0.166421
vt 0.343750 0.203223
vt 0.343750 0.025000
vt 0.343750 0.146777
vt 0.343750 0.198205
vt 0.343750 0.025000
vt 0.343750 0.218185
vt 0.343750 0.025000
vt 0.343750 0.225000
vt 0.343750 0.214914
vt 0.343750 0.025000
vt 0.343750 0.218185
vt 0.343750 0.025000
vt 0.343750 0.198205
vt 0.343750 0.025000
vt 0.343750 0.166421
vt 0.343750 0.203223
vt 0.343750 0.025000
vt 0.343750 0.146777
vt 0.343750 0.025000
vt 0.343750 0.125000
vt 0.343750 0.194957
vt 0.343750 0.076764
vt 0.343750 0.185330
vt 0.343750 0.025000
vt 0.343750 0.164670
vt 0.343750 0.025000
vt 0.343750 0.175000
vt 0.343750 0.025000
vt 0.593750 0.025000
vt 0.343750 0.025000
vt 0.343750 0.078265
vt 0.593750 0.078265
vt 0.343750 0.109547
vt 0.343750 0.078265
vt 0.593750 0.078265
vt 0.343750 0.100328
vt 0.593750 0.100328
vt 0.343750 0.109547
vt 0.343750 0.144568
vt 0.343750 0.025000
vt 0.593750 0.025000
vt 0.343750 0.025000
vt 0.593750 0.025000
vt 0.343750 0.025000
vt 0.343750 0.025000
vt 0.343750 0.025000
vt 0.593750 0.025000
vt 0.343750 0.025000
vt 0.343750 0.025000
vt 0.593750 0.025000
vt 0.343750 0.025000
vt 0.343750 0.076764
vt 0.343750 0.185330
vt 0.343750 0.025000
vt 0.343750 0.175000
vt 0.343750 0.125000
vt 0.343750 0.194957
vt 0.343750 0.166421
vt 0.343750 0.203223
vt 0.343750 0.198205
vt 0.343750 0.218185
vt 0.343750 0.225000
vt 0.343750 0.214914
vt 0.343750 0.218185
vt 0.343750 0.198205
vt 0.343750 0.166421
vt 0.343750 0.203223
vt 0.343750 0.125000
vt 0.343750 0.194957
vt 0.343750 0.076764
vt 0.343750 0.185330
vt 0.343750 0.025000
vt 0.343750 0.175000
vt 0.343750 0.025000
vt 0.343750 0.164670
vt 0.343750 0.025000
vt 0.343750 0.025000
vt 0.343750 0.146777
vt 0.343750 0.025000
vt 0.343750 0.025000
vt 0.343750 0.025000
vt 0.343750 0.025000
vt 0.343750 0.025000
vt 0.343750 0.025000
vt 0.343750 0.146777
vt 0.343750 0.025000
vt 0.343750 0.025000
vt 0.343750 0.164670
vt 0.343750 0.187941
vt 0.343750 0.200000
vt 0.343750 0.139645
vt 0.343750 0.131699
vt 0.343750 0.140434
vt 0.343750 0.223296
vt 0.343750 0.225000
vt 0.343750 0.213554
vt 0.343750 0.210355
vt 0.343750 0.200000
vt 0.343750 0.213554
vt 0.343750 0.223296
vt 0.343750 0.209566
vt 0.343750 0.218301
vt 0.343750 0.126704
vt 0.343750 0.136446
vt 0.343750 0.125000
vt 0.343750 0.135086
vt 0.343750 0.155043
vt 0.343750 0.150000
vt 0.343750 0.162059
vt 0.343750 0.139645
vt 0.343750 0.218301
vt 0.343750 0.209566
vt 0.343750 0.210355
vt 0.343750 0.175000
vt 0.343750 0.209566
vt 0.343750 0.218301
vt 0.343750 0.210355
vt 0.343750 0.223296
vt 0.343750 0.225000
vt 0.343750 0.139645
vt 0.343750 0.155043
vt 0.343750 0.150000
vt 0.343750 0.187941
vt 0.343750 0.200000
vt 0.343750 0.162059
vt 0.343750 0.187941
vt 0.343750 0.126704
vt 0.343750 0.136446
vt 0.343750 0.126704
vt 0.343750 0.131699
vt 0.343750 0.162059
vt 0.343750 0.175000
vt 0.343750 0.175000
vt 0.343750 0.150000
vt 0.343750 0.155043
vt 0.343750 0.139645
vt 0.343750 0.213554
vt 0.343750 0.223296
vt 0.343750 0.140434
vt 0.343750 0.131699
vt 0.343750 0.162059
vt 0.343750 0.150000
vt 0.343750 0.155043
vt 0.343750 0.187941
vt 0.343750 0.126704
vt 0.343750 0.125000
vt 0.343750 0.210355
vt 0.343750 0.218301
vt 0.343750 0.209566
vt 0.343750 0.136446
vt 0.343750 0.200000
vt 0.343750 0.140434
vt 0.343750 0.140434
vt 0.343750 0.131699
vt 0.343750 0.136446
vt 0.343750 0.175000
vt 0.343750 0.213554
vt 0.343750 0.135086
vt 0.343750 0.025000
vt 0.343750 0.025000
vt 0.343750 0.025000
vt 0.593750 0.025000
vt 0.343750 0.025000
vt 0.593750 0.025000
vt 0.343750 0.078265
vt 0.593750 0.078265
vt 0.343750 0.109547
vt 0.343750 0.025000
vt 0.593750 0.025000
vt 0.343750 0.078265
vt 0.593750 0.078265
vt 0.343750 0.025000
vt 0.343750 0.109547
vt 0.343750 0.025000
vt 0.343750 0.025000
vt 0.343750 0.025000
vt 0.593750 0.025000
vt 0.343750 0.025000
vt 0.593750 0.025000
vt 0.343750 0.025000
vt 0.343750 0.025000
vt 0.343750 0.175000
vt 0.343750 0.025000
vt 0.343750 0.155043
vt 0.343750 0.025000
vt 0.343750 0.146777
vt 0.343750 0.025000
vt 0.343750 0.025000
vt 0.343750 0.025000
vt 0.343750 0.135086
vt 0.343750 0.025000
vt 0.343750 0.025000
vt 0.343750 0.025000
vt 0.343750 0.146777
vt 0.343750 0.025000
vt 0.343750 0.155043
vt 0.343750 0.025000
vt 0.343750 0.025000
vt 0.343750 0.175000
vt 0.343750 0.076764
vt 0.343750 0.125000
vt 0.343750 0.166421
vt 0.343750 0.198205
vt 0.343750 0.209566
vt 0.343750 0.218185
vt 0.343750 0.213554
vt 0.343750 0.144568
vt 0.343750 0.225000
vt 0.343750 0.214914
vt 0.343750 0.218185
vt 0.343750 0.213554
vt 0.343750 0.198205
vt 0.343750 0.209566
vt 0.343750 0.166421
vt 0.343750 0.125000
vt 0.343750 0.076764
vt 0.343750 0.185330
vt 0.343750 0.025000
vt 0.343750 0.175000
vt 0.343750 0.076764
vt 0.343750 0.025000
vt 0.343750 0.025000
vt 0.343750 0.155043
vt 0.343750 0.125000
vt 0.343750 0.025000
vt 0.343750 0.146777
vt 0.343750 0.166421
vt 0.343750 0.198205
vt 0.343750 0.209566
vt 0.343750 0.025000
vt 0.343750 0.025000
vt 0.343750 0.218185
vt 0.343750 0.213554
vt 0.343750 0.025000
vt 0.343750 0.135086
vt 0.343750 0.225000
vt 0.343750 0.214914
vt 0.343750 0.025000
vt 0.343750 0.218185
vt 0.343750 0.213554
vt 0.343750 0.025000
vt 0.343750 0.198205
vt 0.343750 0.209566
vt 0.343750 0.025000
vt 0.343750 0.146777
vt 0.343750 0.166421
vt 0.343750 0.025000
vt 0.343750 0.155043
vt 0.343750 0.125000
vt 0.343750 0.025000
vt 0.343750 0.076764
vt 0.343750 0.185330
vt 0.343750 0.025000
vt 0.343750 0.175000
vt 0.343750 0.100328
vt 0.593750 0.100328
vt 0.343750 0.187941
vt 0.343750 0.200000
vt 0.343750 0.194957
vt 0.343750 0.139645
vt 0.343750 0.131699
vt 0.343750 0.140434
vt 0.343750 0.223296
vt 0.343750 0.225000
vt 0.343750 0.203223
vt 0.343750 0.210355
vt 0.343750 0.194957
vt 0.343750 0.200000
vt 0.343750 0.223296
vt 0.343750 0.218301
vt 0.343750 0.126704
vt 0.343750 0.136446
vt 0.343750 0.125000
vt 0.343750 0.164670
vt 0.343750 0.150000
vt 0.343750 0.162059
vt 0.343750 0.139645
vt 0.343750 0.218301
vt 0.343750 0.210355
vt 0.343750 0.203223
vt 0.343750 0.175000
vt 0.343750 0.203223
vt 0.343750 0.218301
vt 0.343750 0.210355
vt 0.343750 0.223296
vt 0.343750 0.225000
vt 0.343750 0.139645
vt 0.343750 0.150000
vt 0.343750 0.187941
vt 0.343750 0.200000
vt 0.343750 0.194957
vt 0.343750 0.162059
vt 0.343750 0.164670
vt 0.343750 0.185330
vt 0.343750 0.187941
vt 0.343750 0.126704
vt 0.343750 0.136446
vt 0.343750 0.126704
vt 0.343750 0.131699
vt 0.343750 0.164670
vt 0.343750 0.162059
vt 0.343750 0.175000
vt 0.343750 0.175000
vt 0.343750 0.150000
vt 0.343750 0.139645
vt 0.343750 0.223296
vt 0.343750 0.140434
vt 0.343750 0.131699
vt 0.343750 0.162059
vt 0.343750 0.150000
vt 0.343750 0.164670
vt 0.343750 0.187941
vt 0.343750 0.126704
vt 0.343750 0.125000
vt 0.343750 0.210355
vt 0.343750 0.203223
vt 0.343750 0.218301
vt 0.343750 0.136446
vt 0.343750 0.194957
vt 0.343750 0.200000
vt 0.343750 0.140434
vt 0.343750 0.185330
vt 0.343750 0.140434
vt 0.343750 0.131699
vt 0.343750 0.136446
vt 0.343750 0.175000
vt 0.343750 0.025000
vt 0.593750 0.025000
vt 0.343750 0.025000
vt 0.343750 0.078265
vt 0.593750 0.078265
vt 0.343750 0.109547
vt 0.343750 0.025000
vt 0.343750 0.025000
vt 0.343750 0.155043
vt 0.343750 0.025000
vt 0.343750 0.175000
vt 0.343750 0.025000
vt 0.343750 0.146777
vt 0.343750 0.025000
vt 0.343750 0.025000
vt 0.343750 0.025000
vt 0.343750 0.025000
vt 0.343750 0.025000
vt 0.343750 0.135086
vt 0.343750 0.025000
vt 0.343750 0.025000
vt 0.343750 0.025000
vt 0.343750 0.025000
vt 0.343750 0.025000
vt 0.343750 0.146777
vt 0.343750 0.025000
vt 0.343750 0.155043
vt 0.343750 0.025000
vt 0.343750 0.025000
vt 0.343750 0.175000
vt 0.343750 0.076764
vt 0.343750 0.125000
vt 0.343750 0.166421
vt 0.343750 0.198205
vt 0.343750 0.209566
vt 0.343750 0.218185
vt 0.343750 0.213554
vt 0.343750 0.144568
vt 0.343750 0.225000
vt 0.343750 0.214914
vt 0.343750 0.109547
vt 0.343750 0.218185
vt 0.343750 0.213554
vt 0.343750 0.198205
vt 0.343750 0.209566
vt 0.343750 0.166421
vt 0.343750 0.125000
vt 0.343750 0.076764
vt 0.343750 0.185330
vt 0.343750 0.078265
vt 0.593750 0.078265
vt 0.343750 0.100328
vt 0.593750 0.100328
vt 0.343750 0.025000
vt 0.343750 0.175000
vt 0.343750 0.025000
vt 0.343750 0.076764
vt 0.343750 0.125000
vt 0.343750 0.025000
vt 0.343750 0.155043
vt 0.343750 0.166421
vt 0.343750 0.025000
vt 0.343750 0.146777
vt 0.343750 0.198205
vt 0.343750 0.209566
vt 0.343750 0.025000
vt 0.343750 0.218185
vt 0.343750 0.213554
vt 0.343750 0.025000
vt 0.343750 0.225000
vt 0.343750 0.214914
vt 0.343750 0.025000
vt 0.343750 0.135086
vt 0.343750 0.218185
vt 0.343750 0.213554
vt 0.343750 0.025000
vt 0.343750 0.198205
vt 0.343750 0.209566
vt 0.343750 0.025000
vt 0.343750 0.166421
vt 0.343750 0.025000
vt 0.343750 0.146777
vt 0.343750 0.025000
vt 0.343750 0.155043
vt 0.343750 0.125000
vt 0.343750 0.076764
vt 0.343750 0.185330
vt 0.343750 0.025000
vt 0.343750 0.025000
vt 0.343750 0.175000
vt 0.343750 0.025000
vt 0.593750 0.025000
vt 0.343750 0.025000
vt 0.593750 0.025000
vt 0.343750 0.025000
vt 0.593750 0.025000
vt 0.343750 0.025000
vt 0.593750 0.025000
vt 0.343750 0.187941
vt 0.343750 0.200000
vt 0.343750 0.185330
vt 0.343750 0.194957
vt 0.343750 0.139645
vt 0.343750 0.131699
vt 0.343750 0.140434
vt 0.343750 0.223296
vt 0.343750 0.225000
vt 0.343750 0.203223
vt 0.343750 0.210355
vt 0.343750 0.194957
vt 0.343750 0.200000
vt 0.343750 0.223296
vt 0.343750 0.218301
vt 0.343750 0.126704
vt 0.343750 0.136446
vt 0.343750 0.125000
vt 0.343750 0.164670
vt 0.343750 0.150000
vt 0.343750 0.162059
vt 0.343750 0.139645
vt 0.343750 0.218301
vt 0.343750 0.210355
vt 0.343750 0.203223
vt 0.343750 0.175000
vt 0.343750 0.203223
vt 0.343750 0.218301
vt 0.343750 0.210355
vt 0.343750 0.223296
vt 0.343750 0.225000
vt 0.343750 0.139645
vt 0.343750 0.150000
vt 0.343750 0.187941
vt 0.343750 0.185330
vt 0.343750 0.200000
vt 0.343750 0.194957
vt 0.343750 0.162059
vt 0.343750 0.164670
vt 0.343750 0.187941
vt 0.343750 0.126704
vt 0.343750 0.136446
vt 0.343750 0.126704
vt 0.343750 0.131699
vt 0.343750 0.164670
vt 0.343750 0.162059
vt 0.343750 0.175000
vt 0.343750 0.175000
vt 0.343750 0.150000
vt 0.343750 0.139645
vt 0.343750 0.223296
vt 0.343750 0.140434
vt 0.343750 0.131699
vt 0.343750 0.162059
vt 0.343750 0.150000
vt 0.343750 0.164670
vt 0.343750 0.187941
vt 0.343750 0.126704
vt 0.343750 0.125000
vt 0.343750 0.210355
vt 0.343750 0.203223
vt 0.343750 0.218301
vt 0.343750 0.136446
vt 0.343750 0.194957
vt 0.343750 0.200000
vt 0.343750 0.140434
vt 0.343750 0.140434
vt 0.343750 0.131699
vt 0.343750 0.136446
vt 0.343750 0.175000
s 0
f 3/3/1 2/2/2 1/1/3
f 2/2/4 3/3/3 4/4/2
f 7/7/5 6/6/6 5/5/5
f 6/6/6 7/7/5 8/8/6
f 3/3/3 10/10/7 9/9/7
f 10/10/7 3/3/3 1/1/3
f 11/11/8 7/7/5 5/5/5
f 7/7/5 11/11/8 12/12/8
f 11/11/8 4/4/2 12/12/8
f 4/4/2 11/11/8 2/2/2
f 8/8/6 10/10/7 6/6/6
f 10/10/7 8/8/6 9/9/7
f 9/9/9 4/4/9 3/3/9
f 4/4/9 9/9/9 8/8/9
f 4/4/9 8/8/9 7/7/9
f 4/4/9 7/7/9 12/12/9
f 2/2/10 10/10/10 1/1/10
f 10/10/10 2/2/10 6/6/10
f 6/6/10 2/2/10 5/5/10
f 5/5/10 2/2/10 11/11/10
f 15/15/11 14/14/11 13/13/11
f 14/14/11 15/15/11 16/16/11
f 16/16/11 15/15/11 17/17/11
f 16/16/11 17/17/11 18/18/11
f 20/21/12 17/17/13 19/19/13
f 17/17/13 20/21/12 18/18/12
f 16/16/14 20/21/15 21/23/14
f 20/21/15 16/16/14 18/18/15
f 14/14/16 21/23/14 22/25/16
f 21/23/14 14/14/16 16/16/14
f 14/14/10 23/27/10 13/13/10
f 23/27/10 14/14/10 22/25/10
f 15/15/17 23/27/18 24/29/17
f 23/27/18 15/15/17 13/13/18
f 17/17/19 24/29/17 19/19/19
f 24/29/17 17/17/19 15/15/17
f 27/33/20 26/32/9 25/31/9
f 26/32/9 27/33/20 28/34/20
f 31/37/18 30/36/18 29/35/18
f 30/36/18 31/37/18 25/31/18
f 25/31/18 31/37/18 27/33/18
f 33/39/10 30/36/10 32/38/10
f 30/36/10 33/39/10 29/35/10
f 26/32/16 33/39/16 32/38/16
f 33/39/16 26/32/16 34/40/16
f 34/40/16 26/32/16 28/34/16
f 26/32/11 30/36/11 25/31/11
f 30/36/11 26/32/11 32/38/11
f 33/39/21 31/37/22 29/35/21
f 31/37/22 33/39/21 34/40/22
f 34/40/22 27/33/20 31/37/22
f 27/33/20 34/40/22 28/34/20
f 37/43/10 36/42/10 35/41/10
f 36/42/10 37/43/10 38/44/10
f 37/43/23 39/45/24 38/44/25
f 39/45/24 37/43/23 40/46/26
f 41/47/27 35/41/28 36/42/29
f 35/41/28 41/47/27 42/48/30
f 39/45/9 42/48/9 41/47/9
f 42/48/9 39/45/9 40/46/9
f 38/44/25 41/47/27 36/42/29
f 41/47/31 38/44/25 39/45/32
f 42/48/30 37/43/33 35/41/34
f 37/43/23 42/48/30 40/46/26
f 45/51/30 44/50/33 43/49/34
f 44/50/23 45/51/30 46/52/26
f 44/50/23 48/54/24 47/53/25
f 48/54/24 44/50/23 46/52/26
f 44/50/10 49/55/10 43/49/10
f 49/55/10 44/50/10 47/53/10
f 50/56/27 43/49/28 49/55/29
f 43/49/28 50/56/27 45/51/30
f 47/53/25 50/56/27 49/55/29
f 50/56/31 47/53/25 48/54/32
f 48/54/9 45/51/9 50/56/9
f 45/51/9 48/54/9 46/52/9
f 53/59/20 52/58/9 51/57/9
f 52/58/9 53/59/20 54/60/20
f 57/63/18 56/62/18 55/61/18
f 56/62/18 57/63/18 51/57/18
f 51/57/18 57/63/18 53/59/18
f 59/65/10 56/62/10 58/64/10
f 56/62/10 59/65/10 55/61/10
f 52/58/16 59/65/16 58/64/16
f 59/65/16 52/58/16 60/66/16
f 60/66/16 52/58/16 54/60/16
f 52/58/11 56/62/11 51/57/11
f 56/62/11 52/58/11 58/64/11
f 59/65/21 57/63/22 55/61/21
f 57/63/22 59/65/21 60/66/22
f 60/66/22 53/59/20 57/63/22
f 53/59/20 60/66/22 54/60/20
f 62/68/12 19/20/13 61/67/13
f 19/20/13 62/68/12 20/22/12
f 21/24/14 62/68/15 63/69/14
f 62/68/15 21/24/14 20/22/15
f 22/26/16 63/69/14 64/70/16
f 63/69/14 22/26/16 21/24/14
f 22/26/10 65/71/10 23/28/10
f 65/71/10 22/26/10 64/70/10
f 24/30/17 65/71/18 66/72/17
f 65/71/18 24/30/17 23/28/18
f 19/20/19 66/72/17 61/67/19
f 66/72/17 19/20/19 24/30/17
f 69/75/21 68/74/21 67/73/21
f 68/74/21 69/75/21 70/76/21
f 70/76/21 69/75/21 71/77/21
f 70/76/21 71/77/21 72/78/21
f 73/79/35 70/76/36 72/78/37
f 70/76/38 73/79/39 74/80/40
f 75/81/41 71/77/42 69/75/43
f 71/77/42 75/81/44 62/68/45
f 67/73/16 75/81/44 69/75/43
f 75/81/41 67/73/16 76/82/16
f 76/82/10 68/74/10 77/83/10
f 68/74/10 76/82/10 67/73/10
f 71/77/42 73/79/35 72/78/46
f 73/79/39 71/77/42 62/68/47
f 74/80/48 68/74/18 70/76/38
f 68/74/18 74/80/40 77/83/18
f 80/86/20 79/85/9 78/84/20
f 79/85/9 80/86/20 81/87/9
f 84/90/10 83/89/49 82/88/10
f 83/89/49 84/90/10 85/91/49
f 79/85/11 84/90/11 82/88/11
f 84/90/11 79/85/11 81/87/11
f 80/86/20 87/93/22 86/92/22
f 87/93/22 80/86/20 78/84/20
f 88/94/50 83/89/49 85/91/49
f 83/89/49 88/94/50 89/95/50
f 86/92/22 89/95/50 88/94/50
f 89/95/50 86/92/22 87/93/22
f 78/84/18 89/95/18 87/93/18
f 89/95/18 78/84/18 83/89/18
f 83/89/18 78/84/18 79/85/18
f 83/89/18 79/85/18 82/88/18
f 85/91/16 86/92/16 88/94/16
f 86/92/16 85/91/16 80/86/16
f 80/86/16 85/91/16 84/90/16
f 80/86/16 84/90/16 81/87/16
f 92/98/20 91/97/9 90/96/20
f 91/97/9 92/98/20 93/99/9
f 96/102/10 95/101/49 94/100/10
f 95/101/49 96/102/10 97/103/49
f 91/97/11 96/102/11 94/100/11
f 96/102/11 91/97/11 93/99/11
f 92/98/20 99/105/22 98/104/22
f 99/105/22 92/98/20 90/96/20
f 100/106/50 95/101/49 97/103/49
f 95/101/49 100/106/50 101/107/50
f 98/104/22 101/107/50 100/106/50
f 101/107/50 98/104/22 99/105/22
f 90/96/18 101/107/18 99/105/18
f 101/107/18 90/96/18 95/101/18
f 95/101/18 90/96/18 91/97/18
f 95/101/18 91/97/18 94/100/18
f 97/103/16 98/104/16 100/106/16
f 98/104/16 97/103/16 92/98/16
f 92/98/16 97/103/16 96/102/16
f 92/98/16 96/102/16 93/99/16
f 104/110/11 103/109/11 102/108/11
f 103/109/11 104/110/11 105/111/11
f 105/111/11 104/110/11 106/112/11
f 109/115/21 108/114/21 107/113/21
f 108/114/21 109/115/21 110/116/21
f 110/116/21 109/115/21 111/117/21
f 108/114/10 103/109/10 107/113/10
f 103/109/10 108/114/10 102/108/10
f 108/114/18 104/110/51 102/108/18
f 104/110/51 108/114/18 110/116/51
f 110/116/51 106/112/52 104/110/51
f 106/112/52 110/116/51 111/117/52
f 111/117/52 105/111/53 106/112/52
f 105/111/53 111/117/52 109/115/53
f 114/120/21 113/119/21 112/118/21
f 113/119/21 114/120/21 115/121/21
f 115/121/21 114/120/21 116/122/21
f 119/125/11 118/124/11 117/123/11
f 118/124/11 119/125/11 120/126/11
f 120/126/11 119/125/11 121/127/11
f 118/124/10 113/119/10 117/123/10
f 113/119/10 118/124/10 112/118/10
f 118/124/16 114/120/54 112/118/16
f 114/120/54 118/124/16 120/126/54
f 120/126/54 116/122/55 114/120/54
f 116/122/55 120/126/54 121/127/55
f 119/125/56 116/122/55 121/127/55
f 116/122/55 119/125/56 115/121/56
f 124/130/11 123/129/11 122/128/11
f 123/129/11 124/130/11 125/131/11
f 126/132/57 124/130/18 122/128/18
f 124/130/18 126/132/57 127/133/57
f 128/134/58 127/133/57 126/132/57
f 127/133/57 128/134/58 129/135/58
f 128/134/58 130/136/59 129/135/58
f 130/136/59 128/134/58 131/137/59
f 132/138/60 130/136/59 131/137/59
f 130/136/59 132/138/60 133/139/60
f 123/129/16 133/139/60 132/138/60
f 133/139/60 123/129/16 125/131/16
f 129/135/9 124/130/9 127/133/9
f 124/130/9 129/135/9 125/131/9
f 125/131/9 129/135/9 130/136/9
f 125/131/9 130/136/9 133/139/9
f 3/3/1 2/2/2 1/1/3
f 2/2/4 3/3/3 4/4/2
f 7/7/5 6/6/6 5/5/5
f 6/6/6 7/7/5 8/8/6
f 3/3/3 10/10/7 9/9/7
f 10/10/7 3/3/3 1/1/3
f 11/11/8 7/7/5 5/5/5
f 7/7/5 11/11/8 12/12/8
f 11/11/8 4/4/2 12/12/8
f 4/4/2 11/11/8 2/2/2
f 8/8/6 10/10/7 6/6/6
f 10/10/7 8/8/6 9/9/7
f 9/9/9 4/4/9 3/3/9
f 4/4/9 9/9/9 8/8/9
f 4/4/9 8/8/9 7/7/9
f 4/4/9 7/7/9 12/12/9
f 2/2/10 10/10/10 1/1/10
f 10/10/10 2/2/10 6/6/10
f 6/6/10 2/2/10 5/5/10
f 5/5/10 2/2/10 11/11/10
f 15/15/11 14/14/11 13/13/11
f 14/14/11 15/15/11 16/16/11
f 16/16/11 15/15/11 17/17/11
f 16/16/11 17/17/11 18/18/11
f 20/21/12 17/17/13 19/19/13
f 17/17/13 20/21/12 18/18/12
f 16/16/14 20/21/15 21/23/14
f 20/21/15 16/16/14 18/18/15
f 14/14/16 21/23/14 22/25/16
f 21/23/14 14/14/16 16/16/14
f 14/14/10 23/27/10 13/13/10
f 23/27/10 14/14/10 22/25/10
f 15/15/17 23/27/18 24/29/17
f 23/27/18 15/15/17 13/13/18
f 17/17/19 24/29/17 19/19/19
f 24/29/17 17/17/19 15/15/17
f 27/33/20 26/32/9 25/31/9
f 26/32/9 27/33/20 28/34/20
f 31/37/18 30/36/18 29/35/18
f 30/36/18 31/37/18 25/31/18
f 25/31/18 31/37/18 27/33/18
f 33/39/10 30/36/10 32/38/10
f 30/36/10 33/39/10 29/35/10
f 26/32/16 33/39/16 32/38/16
f 33/39/16 26/32/16 34/40/16
f 34/40/16 26/32/16 28/34/16
f 26/32/11 30/36/11 25/31/11
f 30/36/11 26/32/11 32/38/11
f 33/39/21 31/37/22 29/35/21
f 31/37/22 33/39/21 34/40/22
f 34/40/22 27/33/20 31/37/22
f 27/33/20 34/40/22 28/34/20
f 37/43/10 36/42/10 35/41/10
f 36/42/10 37/43/10 38/44/10
f 37/43/23 39/45/24 38/44/25
f 39/45/24 37/43/23 40/46/26
f 41/47/27 35/41/28 36/42/29
f 35/41/28 41/47/27 42/48/30
f 39/45/9 42/48/9 41/47/9
f 42/48/9 39/45/9 40/46/9
f 38/44/25 41/47/27 36/42/29
f 41/47/31 38/44/25 39/45/32
f 42/48/30 37/43/33 35/41/34
f 37/43/23 42/48/30 40/46/26
f 45/51/30 44/50/33 43/49/34
f 44/50/23 45/51/30 46/52/26
f 44/50/23 48/54/24 47/53/25
f 48/54/24 44/50/23 46/52/26
f 44/50/10 49/55/10 43/49/10
f 49/55/10 44/50/10 47/53/10
f 50/56/27 43/49/28 49/55/29
f 43/49/28 50/56/27 45/51/30
f 47/53/25 50/56/27 49/55/29
f 50/56/31 47/53/25 48/54/32
f 48/54/9 45/51/9 50/56/9
f 45/51/9 48/54/9 46/52/9
f 53/59/20 52/58/9 51/57/9
f 52/58/9 53/59/20 54/60/20
f 57/63/18 56/62/18 55/61/18
f 56/62/18 57/63/18 51/57/18
f 51/57/18 57/63/18 53/59/18
f 59/65/10 56/62/10 58/64/10
f 56/62/10 59/65/10 55/61/10
f 52/58/16 59/65/16 58/64/16
f 59/65/16 52/58/16 60/66/16
f 60/66/16 52/58/16 54/60/16
f 52/58/11 56/62/11 51/57/11
f 56/62/11 52/58/11 58/64/11
f 59/65/21 57/63/22 55/61/21
f 57/63/22 59/65/21 60/66/22
f 60/66/22 53/59/20 57/63/22
f 53/59/20 60/66/22 54/60/20
f 62/68/12 19/20/13 61/67/13
f 19/20/13 62/68/12 20/22/12
f 21/24/14 62/68/15 63/69/14
f 62/68/15 21/24/14 20/22/15
f 22/26/16 63/69/14 64/70/16
f 63/69/14 22/26/16 21/24/14
f 22/26/10 65/71/10 23/28/10
f 65/71/10 22/26/10 64/70/10
f 24/30/17 65/71/18 66/72/17
f 65/71/18 24/30/17 23/28/18
f 19/20/19 66/72/17 61/67/19
f 66/72/17 19/20/19 24/30/17
f 69/75/21 68/74/21 67/73/21
f 68/74/21 69/75/21 70/76/21
f 70/76/21 69/75/21 71/77/21
f 70/76/21 71/77/21 72/78/21
f 73/79/35 70/76/36 72/78/37
f 70/76/38 73/79/39 74/80/40
f 75/81/41 71/77/42 69/75/43
f 71/77/42 75/81/44 62/68/45
f 67/73/16 75/81/44 69/75/43
f 75/81/41 67/73/16 76/82/16
f 76/82/10 68/74/10 77/83/10
f 68/74/10 76/82/10 67/73/10
f 71/77/42 73/79/35 72/78/46
f 73/79/39 71/77/42 62/68/47
f 74/80/48 68/74/18 70/76/38
f 68/74/18 74/80/40 77/83/18
f 80/86/20 79/85/9 78/84/20
f 79/85/9 80/86/20 81/87/9
f 84/90/10 83/89/49 82/88/10
f 83/89/49 84/90/10 85/91/49
f 79/85/11 84/90/11 82/88/11
f 84/90/11 79/85/11 81/87/11
f 80/86/20 87/93/22 86/92/22
f 87/93/22 80/86/20 78/84/20
f 88/94/50 83/89/49 85/91/49
f 83/89/49 88/94/50 89/95/50
f 86/92/22 89/95/50 88/94/50
f 89/95/50 86/92/22 87/93/22
f 78/84/18 89/95/18 87/93/18
f 89/95/18 78/84/18 83/89/18
f 83/89/18 78/84/18 79/85/18
f 83/89/18 79/85/18 82/88/18
f 85/91/16 86/92/16 88/94/16
f 86/92/16 85/91/16 80/86/16
f 80/86/16 85/91/16 84/90/16
f 80/86/16 84/90/16 81/87/16
f 92/98/20 91/97/9 90/96/20
f 91/97/9 92/98/20 93/99/9
f 96/102/10 95/101/49 94/100/10
f 95/101/49 96/102/10 97/103/49
f 91/97/11 96/102/11 94/100/11
f 96/102/11 91/97/11 93/99/11
f 92/98/20 99/105/22 98/104/22
f 99/105/22 92/98/20 90/96/20
f 100/106/50 95/101/49 97/103/49
f 95/101/49 100/106/50 101/107/50
f 98/104/22 101/107/50 100/106/50
f 101/107/50 98/104/22 99/105/22
f 90/96/18 101/107/18 99/105/18
f 101/107/18 90/96/18 95/101/18
f 95/101/18 90/96/18 91/97/18
f 95/101/18 91/97/18 94/100/18
f 97/103/16 98/104/16 100/106/16
f 98/104/16 97/103/16 92/98/16
f 92/98/16 97/103/16 96/102/16
f 92/98/16 96/102/16 93/99/16
f 104/110/11 103/109/11 102/108/11
f 103/109/11 104/110/11 105/111/11
f 105/111/11 104/110/11 106/112/11
f 109/115/21 108/114/21 107/113/21
f 108/114/21 109/115/21 110/116/21
f 110/116/21 109/115/21 111/117/21
f 108/114/10 103/109/10 107/113/10
f 103/109/10 108/114/10 102/108/10
f 108/114/18 104/110/51 102/108/18
f 104/110/51 108/114/18 110/116/51
f 110/116/51 106/112/52 104/110/51
f 106/112/52 110/116/51 111/117/52
f 111/117/52 105/111/53 106/112/52
f 105/111/53 111/117/52 109/115/53
f 114/120/21 113/119/21 112/118/21
f 113/119/21 114/120/21 115/121/21
f 115/121/21 114/120/21 116/122/21
f 119/125/11 118/124/11 117/123/11
f 118/124/11 119/125/11 120/126/11
f 120/126/11 119/125/11 121/127/11
f 118/124/10 113/119/10 117/123/10
f 113/119/10 118/124/10 112/118/10
f 118/124/16 114/120/54 112/118/16
f 114/120/54 118/124/16 120/126/54
f 120/126/54 116/122/55 114/120/54
f 116/122/55 120/126/54 121/127/55
f 119/125/56 116/122/55 121/127/55
f 116/122/55 119/125/56 115/121/56
f 124/130/11 123/129/11 122/128/11
f 123/129/11 124/130/11 125/131/11
f 126/132/57 124/130/18 122/128/18
f 124/130/18 126/132/57 127/133/57
f 128/134/58 127/133/57 126/132/57
f 127/133/57 128/134/58 129/135/58
f 128/134/58 130/136/59 129/135/58
f 130/136/59 128/134/58 131/137/59
f 132/138/60 130/136/59 131/137/59
f 130/136/59 132/138/60 133/139/60
f 123/129/16 133/139/60 132/138/60
f 133/139/60 123/129/16 125/131/16
f 129/135/9 124/130/9 127/133/9
f 124/130/9 129/135/9 125/131/9
f 125/131/9 129/135/9 130/136/9
f 125/131/9 130/136/9 133/139/9
f 136/144/16 135/142/16 134/140/16
f 135/142/16 136/144/16 137/146/16
f 135/142/16 137/146/16 138/147/16
f 138/147/16 137/146/16 139/149/16
f 138/147/16 139/149/16 140/151/16
f 140/151/16 139/149/16 141/153/16
f 141/153/16 139/149/16 142/154/16
f 141/153/16 142/154/16 143/155/16
f 141/153/16 143/155/16 144/156/16
f 144/156/16 143/155/16 145/157/16
f 144/156/16 145/157/16 146/158/16
f 146/158/16 145/157/16 147/160/16
f 146/158/16 147/160/16 148/161/16
f 148/161/16 147/160/16 149/162/16
f 148/161/16 149/162/16 150/163/16
f 150/163/16 149/162/16 151/164/16
f 150/163/16 151/164/16 152/166/16
f 152/166/16 151/164/16 153/168/16
f 152/166/16 153/168/16 154/169/16
f 154/169/16 153/168/16 155/171/16
f 154/169/16 155/171/16 156/173/16
f 156/173/16 155/171/16 157/175/16
f 160/180/61 159/179/62 158/177/63
f 159/179/63 160/180/61 161/182/64
f 164/185/65 163/184/66 162/183/67
f 163/184/68 164/185/65 165/187/68
f 168/191/69 167/190/70 166/189/71
f 167/190/72 168/191/69 169/193/70
f 169/193/72 159/179/63 167/190/70
f 159/179/62 169/193/70 158/177/63
f 172/198/73 171/196/74 170/195/75
f 171/196/74 172/198/76 173/199/76
f 171/196/74 166/189/71 170/195/75
f 166/189/69 171/196/75 168/191/71
f 176/205/18 175/203/18 174/201/18
f 176/205/18 177/207/18 175/203/18
f 159/179/18 177/207/18 176/205/18
f 159/179/18 178/209/18 177/207/18
f 161/182/18 178/209/18 159/179/18
f 161/182/18 179/210/18 178/209/18
f 162/183/18 179/210/18 161/182/18
f 179/210/18 162/183/18 180/211/18
f 162/183/18 181/213/18 180/211/18
f 163/184/18 181/213/18 162/183/18
f 163/184/18 182/214/18 181/213/18
f 172/198/18 182/214/18 163/184/18
f 172/198/18 183/215/18 182/214/18
f 172/198/18 184/217/18 183/215/18
f 172/198/18 185/219/18 184/217/18
f 185/219/18 172/198/18 186/221/18
f 172/198/18 187/223/18 186/221/18
f 187/223/18 172/198/18 188/225/18
f 188/225/18 172/198/18 189/226/18
f 189/226/18 172/198/18 190/228/18
f 190/228/18 172/198/18 170/195/18
f 190/228/18 170/195/18 191/229/18
f 191/229/18 170/195/18 166/189/18
f 191/229/18 166/189/18 192/230/18
f 166/189/18 193/231/18 192/230/18
f 193/231/18 166/189/18 167/190/18
f 193/231/18 167/190/18 194/232/18
f 194/232/18 167/190/18 159/179/18
f 194/232/18 159/179/18 195/233/18
f 195/233/18 159/179/18 176/205/18
f 195/233/18 176/205/18 196/235/18
f 196/235/18 176/205/18 197/236/18
f 172/198/76 165/187/68 173/199/76
f 165/187/68 172/198/73 163/184/66
f 161/182/64 164/185/65 162/183/67
f 164/185/65 161/182/61 160/180/61
f 174/202/77 199/239/78 198/238/79
f 199/239/80 174/202/77 175/204/81
f 201/241/82 195/234/83 200/240/84
f 195/234/85 201/241/86 202/242/87
f 205/245/88 204/244/89 203/243/90
f 204/244/89 205/245/88 180/212/91
f 184/218/92 206/246/93 183/216/94
f 206/246/95 184/218/92 207/247/96
f 210/250/97 209/249/98 208/248/99
f 209/249/100 210/250/97 211/251/101
f 214/254/102 213/253/103 212/252/104
f 213/253/103 214/254/102 215/255/105
f 217/257/106 187/224/107 216/256/108
f 187/224/107 217/257/109 218/258/110
f 219/259/111 216/256/108 189/227/112
f 216/256/108 219/259/113 217/257/109
f 221/261/114 203/243/90 220/260/115
f 203/243/116 221/261/114 205/245/88
f 175/204/81 222/262/117 199/239/78
f 222/262/118 175/204/81 177/208/119
f 177/208/120 220/260/115 222/262/117
f 220/260/121 177/208/120 221/261/114
f 176/206/122 198/238/123 223/263/124
f 198/238/125 176/206/122 174/202/77
f 225/265/126 140/152/127 224/264/128
f 140/152/127 225/265/129 226/266/130
f 203/243/131 228/268/132 227/267/133
f 228/268/132 203/243/134 204/244/135
f 230/270/136 229/269/137 139/150/138
f 229/269/139 230/270/136 231/271/140
f 233/273/141 156/174/142 232/272/143
f 156/174/142 233/273/144 154/170/145
f 234/274/146 176/206/122 223/263/124
f 176/206/122 234/274/147 197/237/148
f 185/220/149 207/247/150 184/218/92
f 207/247/96 185/220/149 235/275/151
f 236/276/152 215/255/105 214/254/102
f 215/255/105 236/276/153 237/277/154
f 212/252/155 239/279/156 238/278/157
f 239/279/158 212/252/155 201/241/159
f 183/216/160 211/251/161 210/250/97
f 211/251/101 183/216/160 206/246/95
f 212/252/104 202/242/87 201/241/82
f 202/242/87 212/252/162 213/253/103
f 136/145/163 231/271/164 230/270/136
f 231/271/140 136/145/163 240/280/165
f 241/281/166 218/258/167 240/280/168
f 218/258/169 241/281/166 242/282/170
f 200/240/84 244/284/171 243/283/172
f 244/284/171 200/240/173 195/234/85
f 201/241/174 245/285/175 239/279/176
f 245/285/177 201/241/178 200/240/179
f 247/287/180 224/264/128 246/286/181
f 224/264/128 247/287/182 225/265/129
f 139/150/138 249/289/183 248/288/184
f 249/289/185 139/150/186 229/269/139
f 155/172/187 251/291/188 250/290/189
f 251/291/190 155/172/187 252/292/191
f 134/141/192 240/280/165 136/145/163
f 240/280/193 134/141/192 241/281/194
f 253/293/195 242/282/170 241/281/166
f 242/282/170 253/293/196 235/275/197
f 236/276/198 255/295/199 254/294/200
f 255/295/199 236/276/201 214/254/202
f 257/297/203 152/167/204 256/296/205
f 152/167/206 257/297/207 258/298/208
f 248/288/184 254/294/209 259/299/210
f 254/294/211 248/288/184 249/289/185
f 226/266/212 138/148/213 140/152/214
f 138/148/213 226/266/130 260/300/215
f 151/165/216 239/279/217 245/285/218
f 239/279/219 151/165/220 261/301/221
f 214/254/202 238/278/157 255/295/199
f 238/278/222 214/254/202 212/252/223
f 231/271/224 219/259/225 229/269/226
f 219/259/227 231/271/228 217/257/229
f 226/266/230 207/247/231 260/300/232
f 207/247/233 226/266/234 206/246/235
f 253/293/236 134/141/192 135/143/237
f 134/141/192 253/293/238 241/281/194
f 236/276/152 262/302/239 237/277/154
f 262/302/239 236/276/153 263/303/240
f 204/244/135 247/287/241 228/268/132
f 247/287/242 204/244/135 209/249/243
f 208/248/99 204/244/89 180/212/91
f 204/244/89 208/248/99 209/249/100
f 243/283/172 197/237/148 234/274/244
f 197/237/148 243/283/245 244/284/171
f 186/222/246 235/275/151 185/220/149
f 235/275/247 186/222/246 242/282/248
f 199/239/249 232/272/250 198/238/251
f 232/272/250 199/239/80 233/273/252
f 261/301/221 238/278/253 239/279/217
f 238/278/254 261/301/221 264/304/255
f 211/251/256 226/266/230 225/265/257
f 226/266/258 211/251/259 206/246/235
f 223/263/260 250/290/261 234/274/147
f 250/290/262 223/263/260 265/305/263
f 263/303/264 189/227/112 262/302/239
f 189/227/265 263/303/240 219/259/113
f 157/176/266 250/290/267 265/305/268
f 250/290/261 157/176/266 155/172/187
f 198/238/251 265/305/263 223/263/260
f 265/305/263 198/238/125 232/272/269
f 256/296/205 154/170/145 233/273/141
f 154/170/145 256/296/270 152/167/204
f 234/274/271 251/291/272 243/283/273
f 251/291/274 234/274/271 250/290/262
f 218/258/167 186/222/246 187/224/107
f 186/222/246 218/258/275 242/282/248
f 263/303/276 254/294/277 249/289/278
f 254/294/277 263/303/279 236/276/201
f 243/283/273 245/285/280 200/240/173
f 245/285/175 243/283/281 251/291/274
f 220/260/282 227/267/283 257/297/284
f 227/267/283 220/260/285 203/243/134
f 219/259/286 249/289/287 229/269/288
f 249/289/289 219/259/227 263/303/290
f 228/268/291 266/306/292 227/267/293
f 266/306/292 228/268/291 146/159/294
f 264/304/255 255/295/295 238/278/253
f 255/295/295 264/304/255 267/307/296
f 252/292/191 245/285/218 251/291/188
f 245/285/280 252/292/191 151/165/220
f 260/300/297 235/275/298 253/293/195
f 235/275/298 260/300/299 207/247/233
f 227/267/293 258/298/208 257/297/203
f 258/298/208 227/267/300 266/306/292
f 260/300/299 135/143/237 138/148/213
f 135/143/237 260/300/215 253/293/236
f 209/249/301 225/265/302 247/287/241
f 225/265/303 209/249/301 211/251/259
f 259/299/210 255/295/295 267/307/296
f 255/295/295 259/299/210 254/294/211
f 232/272/304 157/176/266 265/305/268
f 157/176/266 232/272/143 156/174/142
f 240/280/305 217/257/306 231/271/224
f 217/257/307 240/280/305 218/258/169
f 222/262/308 257/297/284 256/296/309
f 257/297/310 222/262/311 220/260/285
f 247/287/180 146/159/294 228/268/291
f 146/159/294 247/287/182 246/286/181
f 222/262/311 233/273/312 199/239/249
f 233/273/252 222/262/313 256/296/270
f 165/188/18 171/197/18 173/200/18
f 171/197/18 165/188/18 164/186/18
f 171/197/18 164/186/18 168/192/18
f 168/192/18 164/186/18 160/181/18
f 168/192/18 160/181/18 169/194/18
f 169/194/18 160/181/18 158/178/18
f 270/312/18 269/310/18 268/308/18
f 269/310/18 270/312/18 271/314/18
f 269/310/18 271/314/18 272/316/18
f 272/316/18 271/314/18 273/317/18
f 272/316/18 273/317/18 274/319/18
f 274/319/18 273/317/18 275/321/18
f 274/319/18 275/321/18 276/322/18
f 276/322/18 275/321/18 277/323/18
f 276/322/18 277/323/18 278/324/18
f 278/324/18 277/323/18 279/325/18
f 278/324/18 279/325/18 280/327/18
f 280/327/18 279/325/18 281/328/18
f 280/327/18 281/328/18 282/329/18
f 282/329/18 281/328/18 283/330/18
f 282/329/18 283/330/18 284/331/18
f 284/331/18 283/330/18 285/332/18
f 284/331/18 285/332/18 286/334/18
f 286/334/18 285/332/18 287/336/18
f 287/336/18 285/332/18 288/337/18
f 287/336/18 288/337/18 289/339/18
f 287/336/18 289/339/18 290/341/18
f 290/341/18 289/339/18 291/343/18
f 294/348/314 293/347/315 292/345/315
f 293/347/316 294/348/314 295/350/317
f 298/355/318 297/353/319 296/351/318
f 297/353/319 298/355/320 299/356/321
f 302/361/322 301/359/323 300/357/324
f 301/359/323 302/361/324 303/362/325
f 305/365/326 296/351/318 304/363/327
f 296/351/318 305/365/327 298/355/320
f 300/357/322 293/347/316 302/361/324
f 293/347/315 300/357/322 292/345/315
f 303/362/323 306/366/328 301/359/323
f 306/366/328 303/362/325 307/368/329
f 305/365/327 306/366/328 307/368/329
f 306/366/329 305/365/326 304/363/327
f 299/356/319 294/348/314 297/353/321
f 294/348/314 299/356/321 295/350/317
f 310/373/16 309/371/16 308/369/16
f 311/375/16 309/371/16 310/373/16
f 311/375/16 305/365/16 309/371/16
f 312/377/16 305/365/16 311/375/16
f 312/377/16 298/355/16 305/365/16
f 313/378/16 298/355/16 312/377/16
f 314/379/16 298/355/16 313/378/16
f 298/355/16 314/379/16 299/356/16
f 315/381/16 299/356/16 314/379/16
f 315/381/16 295/350/16 299/356/16
f 316/382/16 295/350/16 315/381/16
f 316/382/16 293/347/16 295/350/16
f 317/383/16 293/347/16 316/382/16
f 318/385/16 293/347/16 317/383/16
f 319/387/16 293/347/16 318/385/16
f 293/347/16 319/387/16 320/389/16
f 321/391/16 293/347/16 320/389/16
f 293/347/16 321/391/16 322/393/16
f 293/347/16 322/393/16 323/394/16
f 293/347/16 323/394/16 324/396/16
f 293/347/16 324/396/16 302/361/16
f 302/361/16 324/396/16 325/397/16
f 302/361/16 325/397/16 303/362/16
f 303/362/16 325/397/16 326/398/16
f 326/398/16 307/368/16 303/362/16
f 307/368/16 326/398/16 327/399/16
f 307/368/16 327/399/16 328/400/16
f 307/368/16 328/400/16 305/365/16
f 305/365/16 328/400/16 329/401/16
f 305/365/16 329/401/16 309/371/16
f 309/371/16 329/401/16 330/403/16
f 309/371/16 330/403/16 331/404/16
f 319/388/237 333/407/215 332/406/236
f 333/407/299 319/388/237 318/386/213
f 335/409/185 323/395/186 334/408/139
f 323/395/138 335/409/183 336/410/184
f 339/413/181 338/412/291 337/411/182
f 338/412/291 339/413/181 314/380/294
f 310/374/145 340/414/330 311/376/204
f 340/414/205 310/374/145 341/415/141
f 344/418/208 343/417/300 342/416/292
f 343/417/293 344/418/208 345/419/203
f 348/422/295 347/421/210 346/420/211
f 347/421/210 348/422/295 349/423/296
f 351/425/190 331/405/187 350/424/191
f 331/405/187 351/425/188 352/426/189
f 353/427/280 350/424/191 329/402/220
f 350/424/191 353/427/218 351/425/188
f 355/429/128 337/411/182 354/428/129
f 337/411/180 355/429/128 339/413/181
f 318/386/213 356/430/130 333/407/215
f 356/430/212 318/386/213 317/384/214
f 317/384/127 354/428/129 356/430/130
f 354/428/126 317/384/127 355/429/128
f 320/390/192 332/406/238 357/431/194
f 332/406/236 320/390/192 319/388/237
f 359/433/331 285/333/120 358/432/114
f 285/333/119 359/433/115 360/434/117
f 337/411/242 362/436/135 361/435/243
f 362/436/135 337/411/241 338/412/132
f 364/438/171 363/437/173 286/335/85
f 363/437/84 364/438/171 365/439/172
f 367/441/96 270/313/149 366/440/151
f 270/313/149 367/441/150 271/315/92
f 368/442/193 320/390/192 357/431/194
f 320/390/192 368/442/165 321/392/163
f 308/370/142 341/415/144 310/374/145
f 341/415/141 308/370/142 369/443/143
f 370/444/254 349/423/296 348/422/295
f 349/423/296 370/444/253 371/445/255
f 346/420/277 373/447/279 372/446/201
f 373/447/276 346/420/277 335/409/278
f 311/376/206 345/419/207 344/418/208
f 345/419/203 311/376/206 340/414/205
f 346/420/211 336/410/184 335/409/185
f 336/410/184 346/420/209 347/421/210
f 290/342/148 365/439/245 364/438/171
f 365/439/172 290/342/148 374/448/244
f 375/449/260 352/426/261 374/448/147
f 352/426/262 375/449/260 376/450/263
f 334/408/139 378/452/136 377/451/140
f 378/452/136 334/408/137 323/395/138
f 335/409/289 379/453/227 373/447/290
f 379/453/286 335/409/287 334/408/226
f 381/455/116 358/432/114 380/454/88
f 358/432/114 381/455/90 359/433/115
f 286/335/85 383/457/86 382/456/87
f 383/457/82 286/335/83 363/437/84
f 269/311/107 385/459/109 384/458/110
f 385/459/106 269/311/107 386/460/108
f 291/344/122 374/448/147 290/342/148
f 374/448/146 291/344/122 375/449/124
f 387/461/251 376/450/263 375/449/260
f 376/450/263 387/461/125 369/443/269
f 370/444/222 389/463/202 388/462/223
f 389/463/202 370/444/157 348/422/199
f 391/465/101 273/318/160 390/464/95
f 273/318/160 391/465/161 392/466/97
f 382/456/87 388/462/162 393/467/103
f 388/462/104 382/456/87 383/457/82
f 360/434/118 288/338/81 285/333/119
f 288/338/81 360/434/117 394/468/78
f 274/320/265 373/447/240 379/453/113
f 373/447/264 274/320/112 395/469/239
f 348/422/199 372/446/201 389/463/202
f 372/446/198 348/422/199 346/420/200
f 365/439/273 353/427/280 363/437/173
f 353/427/175 365/439/281 351/425/274
f 360/434/311 341/415/312 394/468/249
f 341/415/252 360/434/313 340/414/270
f 387/461/125 291/344/122 289/340/77
f 291/344/122 387/461/123 375/449/124
f 370/444/254 396/470/221 371/445/255
f 396/470/221 370/444/253 397/471/217
f 338/412/132 381/455/134 362/436/135
f 381/455/131 338/412/132 343/417/133
f 342/416/292 338/412/291 314/380/294
f 338/412/291 342/416/292 343/417/293
f 377/451/140 321/392/163 368/442/165
f 321/392/163 377/451/164 378/452/136
f 309/372/266 369/443/269 308/370/142
f 369/443/304 309/372/266 376/450/268
f 333/407/297 366/440/298 332/406/195
f 366/440/298 333/407/299 367/441/233
f 395/469/239 372/446/153 373/447/240
f 372/446/152 395/469/239 398/472/154
f 345/419/310 360/434/311 359/433/285
f 360/434/308 345/419/284 340/414/309
f 357/431/166 384/458/167 368/442/168
f 384/458/169 357/431/166 399/473/170
f 397/471/219 329/402/220 396/470/221
f 329/402/216 397/471/217 353/427/218
f 268/309/246 384/458/275 399/473/248
f 384/458/110 268/309/246 269/311/107
f 332/406/195 399/473/170 357/431/166
f 399/473/170 332/406/196 366/440/197
f 390/464/95 271/315/92 367/441/96
f 271/315/92 390/464/93 273/318/94
f 368/442/305 385/459/306 377/451/224
f 385/459/307 368/442/305 384/458/169
f 352/426/261 309/372/266 331/405/187
f 309/372/266 352/426/267 376/450/268
f 397/471/158 388/462/155 383/457/159
f 388/462/155 397/471/156 370/444/157
f 377/451/224 379/453/225 334/408/226
f 379/453/227 377/451/228 385/459/229
f 354/428/303 361/435/301 391/465/259
f 361/435/301 354/428/302 337/411/241
f 353/427/177 383/457/178 363/437/179
f 383/457/174 353/427/175 397/471/176
f 362/436/89 400/474/99 361/435/100
f 400/474/99 362/436/89 279/326/91
f 398/472/154 389/463/102 372/446/153
f 389/463/102 398/472/154 401/475/105
f 386/460/108 379/453/113 385/459/109
f 379/453/225 386/460/108 274/320/112
f 394/468/249 369/443/250 387/461/251
f 369/443/250 394/468/80 341/415/252
f 361/435/100 392/466/97 391/465/101
f 392/466/97 361/435/98 400/474/99
f 394/468/80 289/340/77 288/338/81
f 289/340/77 394/468/78 387/461/79
f 343/417/283 359/433/285 381/455/134
f 359/433/282 343/417/283 345/419/284
f 393/467/103 389/463/102 401/475/105
f 389/463/102 393/467/103 388/462/104
f 366/440/247 268/309/246 399/473/248
f 268/309/246 366/440/151 270/313/149
f 374/448/271 351/425/272 365/439/273
f 351/425/274 374/448/271 352/426/262
f 356/430/258 391/465/259 390/464/235
f 391/465/256 356/430/230 354/428/257
f 381/455/116 279/326/91 362/436/89
f 279/326/91 381/455/90 380/454/88
f 356/430/230 367/441/231 333/407/232
f 367/441/233 356/430/234 390/464/235
f 300/358/16 294/349/16 292/346/16
f 294/349/16 300/358/16 301/360/16
f 294/349/16 301/360/16 297/354/16
f 297/354/16 301/360/16 306/367/16
f 297/354/16 306/367/16 296/352/16
f 296/352/16 306/367/16 304/364/16
f 404/478/72 403/477/63 402/476/70
f 403/477/62 404/478/72 405/480/63
f 406/482/61 403/477/62 405/480/63
f 403/477/63 406/482/61 407/484/64
f 410/489/76 409/487/68 408/485/73
f 409/487/68 410/489/73 411/490/66
f 414/493/74 413/492/71 412/491/75
f 413/492/69 414/493/74 415/495/69
f 418/500/18 417/498/18 416/497/18
f 419/502/18 417/498/18 418/500/18
f 419/502/18 403/477/18 417/498/18
f 420/504/18 403/477/18 419/502/18
f 420/504/18 402/476/18 403/477/18
f 421/505/18 402/476/18 420/504/18
f 421/505/18 413/492/18 402/476/18
f 413/492/18 421/505/18 422/506/18
f 423/508/18 413/492/18 422/506/18
f 423/508/18 412/491/18 413/492/18
f 424/509/18 412/491/18 423/508/18
f 424/509/18 410/489/18 412/491/18
f 425/510/18 410/489/18 424/509/18
f 426/512/18 410/489/18 425/510/18
f 427/514/18 410/489/18 426/512/18
f 410/489/18 427/514/18 428/515/18
f 429/517/18 410/489/18 428/515/18
f 410/489/18 429/517/18 430/518/18
f 410/489/18 430/518/18 431/519/18
f 410/489/18 431/519/18 432/520/18
f 410/489/18 432/520/18 411/490/18
f 411/490/18 432/520/18 433/522/18
f 411/490/18 433/522/18 434/524/18
f 434/524/18 433/522/18 435/525/18
f 436/527/18 434/524/18 435/525/18
f 434/524/18 436/527/18 407/484/18
f 407/484/18 436/527/18 437/529/18
f 407/484/18 437/529/18 403/477/18
f 403/477/18 437/529/18 438/531/18
f 403/477/18 438/531/18 417/498/18
f 417/498/18 438/531/18 439/532/18
f 417/498/18 439/532/18 440/533/18
f 443/538/16 442/537/16 441/535/16
f 442/537/16 443/538/16 444/539/16
f 442/537/16 444/539/16 445/541/16
f 445/541/16 444/539/16 446/542/16
f 445/541/16 446/542/16 447/544/16
f 447/544/16 446/542/16 448/545/16
f 448/545/16 446/542/16 449/547/16
f 448/545/16 449/547/16 450/548/16
f 448/545/16 450/548/16 451/549/16
f 451/549/16 450/548/16 452/551/16
f 451/549/16 452/551/16 453/553/16
f 453/553/16 452/551/16 454/555/16
f 453/553/16 454/555/16 455/556/16
f 455/556/16 454/555/16 456/558/16
f 455/556/16 456/558/16 457/559/16
f 457/559/16 456/558/16 458/561/16
f 457/559/16 458/561/16 459/563/16
f 459/563/16 458/561/16 460/564/16
f 459/563/16 460/564/16 461/566/16
f 461/566/16 460/564/16 462/567/16
f 461/566/16 462/567/16 463/568/16
f 463/568/16 462/567/16 464/570/16
f 410/489/73 414/493/74 412/491/75
f 414/493/74 410/489/76 408/485/73
f 434/524/67 409/487/68 411/490/66
f 409/487/68 434/524/65 465/572/67
f 407/484/64 465/572/65 434/524/67
f 465/572/65 407/484/61 406/482/61
f 415/495/69 402/476/70 413/492/71
f 402/476/72 415/495/69 404/478/72
f 440/534/77 467/575/78 466/574/79
f 467/575/332 440/534/77 468/576/81
f 470/578/82 419/503/83 469/577/84
f 419/503/85 470/578/86 471/579/87
f 436/528/88 473/581/89 472/580/90
f 473/581/135 436/528/88 435/526/91
f 476/584/92 475/583/333 474/582/334
f 475/583/95 476/584/92 477/585/96
f 432/521/97 478/586/98 433/523/99
f 478/586/100 432/521/97 479/587/101
f 482/590/102 481/589/103 480/588/104
f 481/589/103 482/590/102 422/507/105
f 484/592/106 483/591/107 426/513/108
f 483/591/107 484/592/109 485/593/110
f 486/594/111 426/513/108 425/511/112
f 426/513/108 486/594/113 484/592/109
f 437/530/114 472/580/90 487/595/115
f 472/580/116 437/530/114 436/528/88
f 468/576/81 488/596/117 467/575/78
f 488/596/335 468/576/81 489/597/119
f 489/597/119 487/595/115 488/596/117
f 487/595/331 489/597/119 437/530/114
f 417/499/122 466/574/123 490/598/124
f 466/574/125 417/499/122 440/534/77
f 492/600/257 491/599/127 448/546/128
f 491/599/127 492/600/129 493/601/130
f 472/580/131 495/603/132 494/602/133
f 495/603/132 472/580/134 473/581/135
f 444/540/136 496/604/137 446/543/138
f 496/604/139 444/540/136 497/605/140
f 499/607/141 463/569/142 498/606/143
f 463/569/142 499/607/336 500/608/145
f 501/609/146 417/499/122 490/598/124
f 417/499/122 501/609/244 502/610/148
f 503/611/149 477/585/337 476/584/92
f 477/585/96 503/611/149 504/612/151
f 505/613/152 422/507/105 482/590/102
f 422/507/105 505/613/153 506/614/154
f 480/588/155 508/616/156 507/615/157
f 508/616/158 480/588/155 470/578/159
f 474/582/160 479/587/256 432/521/97
f 479/587/101 474/582/160 475/583/95
f 480/588/104 471/579/87 470/578/82
f 471/579/87 480/588/162 481/589/103
f 509/617/163 497/605/164 444/540/136
f 497/605/140 509/617/163 510/618/165
f 511/619/166 485/593/167 510/618/168
f 485/593/169 511/619/166 512/620/170
f 469/577/84 418/501/171 513/621/172
f 418/501/171 469/577/338 419/503/85
f 470/578/174 514/622/175 508/616/156
f 514/622/177 470/578/178 469/577/179
f 515/623/180 448/546/128 451/550/181
f 448/546/128 515/623/182 492/600/129
f 446/543/138 517/625/183 516/624/184
f 517/625/185 446/543/138 496/604/139
f 520/628/187 519/627/188 518/626/189
f 519/627/190 520/628/187 460/565/191
f 441/536/192 510/618/165 509/617/163
f 510/618/193 441/536/192 511/619/194
f 521/629/195 512/620/170 511/619/166
f 512/620/170 521/629/196 504/612/197
f 505/613/198 523/631/199 522/630/200
f 523/631/199 505/613/201 482/590/202
f 526/634/203 525/633/204 524/632/205
f 525/633/206 526/634/310 457/560/208
f 516/624/184 522/630/209 527/635/210
f 522/630/211 516/624/184 517/625/185
f 493/601/339 528/636/213 491/599/340
f 528/636/213 493/601/130 529/637/215
f 458/562/216 508/616/217 514/622/218
f 508/616/219 458/562/220 530/638/221
f 482/590/202 507/615/157 523/631/199
f 507/615/222 482/590/202 480/588/223
f 497/605/224 486/594/225 496/604/341
f 486/594/227 497/605/228 484/592/307
f 493/601/230 477/585/231 529/637/297
f 477/585/233 493/601/234 475/583/342
f 521/629/236 441/536/192 531/639/237
f 441/536/192 521/629/238 511/619/194
f 505/613/152 532/640/239 506/614/154
f 532/640/239 505/613/153 533/641/240
f 473/581/135 515/623/241 495/603/132
f 515/623/242 473/581/135 478/586/243
f 433/523/99 473/581/135 435/526/91
f 473/581/89 433/523/99 478/586/100
f 513/621/172 502/610/148 501/609/244
f 502/610/148 513/621/245 418/501/171
f 428/516/246 504/612/151 503/611/149
f 504/612/247 428/516/246 512/620/248
f 467/575/249 498/606/250 466/574/251
f 498/606/250 467/575/80 499/607/252
f 530/638/221 507/615/253 508/616/217
f 507/615/254 530/638/221 534/642/255
f 479/587/256 493/601/230 492/600/302
f 493/601/258 479/587/259 475/583/343
f 490/598/260 518/626/261 501/609/147
f 518/626/262 490/598/260 535/643/263
f 533/641/264 425/511/112 532/640/239
f 425/511/112 533/641/240 486/594/113
f 464/571/266 518/626/267 535/643/268
f 518/626/189 464/571/266 520/628/187
f 466/574/251 535/643/263 490/598/260
f 535/643/263 466/574/125 498/606/269
f 524/632/205 500/608/145 499/607/141
f 500/608/145 524/632/344 525/633/204
f 501/609/271 519/627/272 513/621/273
f 519/627/274 501/609/271 518/626/262
f 485/593/167 428/516/246 483/591/107
f 428/516/246 485/593/275 512/620/248
f 533/641/276 522/630/277 517/625/278
f 522/630/277 533/641/279 505/613/201
f 513/621/273 514/622/280 469/577/173
f 514/622/175 513/621/281 519/627/274
f 487/595/282 494/602/283 526/634/284
f 494/602/283 487/595/285 472/580/134
f 486/594/286 517/625/287 496/604/288
f 517/625/289 486/594/227 533/641/290
f 495/603/291 455/557/292 494/602/293
f 455/557/292 495/603/132 453/554/294
f 534/642/255 523/631/295 507/615/253
f 523/631/295 534/642/255 452/552/296
f 460/565/191 514/622/218 519/627/188
f 514/622/345 460/565/191 458/562/346
f 529/637/297 504/612/298 521/629/195
f 504/612/298 529/637/299 477/585/233
f 494/602/293 457/560/208 526/634/203
f 457/560/208 494/602/300 455/557/292
f 529/637/347 531/639/237 528/636/213
f 531/639/237 529/637/215 521/629/236
f 478/586/301 492/600/302 515/623/241
f 492/600/303 478/586/301 479/587/259
f 527/635/210 523/631/295 452/552/296
f 523/631/295 527/635/210 522/630/211
f 498/606/304 464/571/266 535/643/268
f 464/571/266 498/606/143 463/569/142
f 510/618/305 484/592/306 497/605/224
f 484/592/307 510/618/305 485/593/169
f 488/596/308 526/634/284 524/632/309
f 526/634/310 488/596/311 487/595/285
f 515/623/180 453/554/294 495/603/291
f 453/554/294 515/623/182 451/550/181
f 488/596/311 499/607/312 467/575/249
f 499/607/252 488/596/313 524/632/270
f 409/488/18 414/494/18 408/486/18
f 414/494/18 409/488/18 465/573/18
f 414/494/18 465/573/18 415/496/18
f 415/496/18 465/573/18 406/483/18
f 415/496/18 406/483/18 404/479/18
f 404/479/18 406/483/18 405/481/18
f 538/647/314 537/646/315 536/644/316
f 537/646/316 538/647/314 539/649/317
f 542/653/16 541/651/16 540/650/16
f 542/653/16 543/655/16 541/651/16
f 544/657/16 543/655/16 542/653/16
f 544/657/16 545/658/16 543/655/16
f 546/659/16 545/658/16 544/657/16
f 546/659/16 547/660/16 545/658/16
f 546/659/16 548/661/16 547/660/16
f 548/661/16 546/659/16 549/663/16
f 549/663/16 550/664/16 548/661/16
f 551/665/16 550/664/16 549/663/16
f 551/665/16 552/666/16 550/664/16
f 537/646/16 552/666/16 551/665/16
f 537/646/16 553/667/16 552/666/16
f 537/646/16 554/669/16 553/667/16
f 537/646/16 555/671/16 554/669/16
f 555/671/16 537/646/16 556/672/16
f 537/646/16 557/674/16 556/672/16
f 557/674/16 537/646/16 558/675/16
f 558/675/16 537/646/16 559/676/16
f 559/676/16 537/646/16 560/677/16
f 560/677/16 537/646/16 539/649/16
f 560/677/16 539/649/16 561/679/16
f 561/679/16 539/649/16 562/681/16
f 561/679/16 562/681/16 563/682/16
f 564/684/16 563/682/16 562/681/16
f 563/682/16 564/684/16 565/685/16
f 565/685/16 564/684/16 566/687/16
f 566/687/16 564/684/16 544/657/16
f 566/687/16 544/657/16 567/689/16
f 567/689/16 544/657/16 542/653/16
f 567/689/16 542/653/16 568/690/16
f 568/690/16 542/653/16 569/691/16
f 564/684/318 571/695/319 570/693/318
f 571/695/319 564/684/320 562/681/321
f 574/700/18 573/699/18 572/697/18
f 573/699/18 574/700/18 575/701/18
f 573/699/18 575/701/18 576/702/18
f 576/702/18 575/701/18 577/704/18
f 576/702/18 577/704/18 578/705/18
f 578/705/18 577/704/18 579/707/18
f 578/705/18 579/707/18 580/709/18
f 580/709/18 579/707/18 581/710/18
f 580/709/18 581/710/18 582/712/18
f 582/712/18 581/710/18 583/713/18
f 582/712/18 583/713/18 584/715/18
f 584/715/18 583/713/18 585/717/18
f 584/715/18 585/717/18 586/719/18
f 586/719/18 585/717/18 587/720/18
f 586/719/18 587/720/18 588/722/18
f 588/722/18 587/720/18 589/723/18
f 588/722/18 589/723/18 590/724/18
f 590/724/18 589/723/18 591/726/18
f 591/726/18 589/723/18 592/728/18
f 591/726/18 592/728/18 593/729/18
f 591/726/18 593/729/18 594/731/18
f 594/731/18 593/729/18 595/732/18
f 551/665/322 597/736/323 596/734/322
f 597/736/323 551/665/324 549/663/325
f 596/734/322 537/646/316 551/665/324
f 537/646/315 596/734/322 536/644/316
f 544/657/327 598/738/328 546/659/329
f 598/738/328 544/657/326 599/740/327
f 562/681/319 538/647/314 571/695/321
f 538/647/314 562/681/321 539/649/317
f 544/657/326 570/693/318 599/740/327
f 570/693/318 544/657/327 564/684/320
f 549/663/323 598/738/328 597/736/325
f 598/738/328 549/663/325 546/659/329
f 602/744/237 601/743/215 600/742/236
f 601/743/347 602/744/237 603/745/213
f 605/747/185 553/668/138 604/746/139
f 553/668/138 605/747/183 606/748/184
f 561/680/181 608/750/291 607/749/182
f 608/750/132 561/680/181 563/683/294
f 611/753/145 610/752/344 609/751/204
f 610/752/205 611/753/145 612/754/141
f 566/688/208 613/755/300 565/686/292
f 613/755/293 566/688/208 614/756/203
f 617/759/295 616/758/210 615/757/211
f 616/758/210 617/759/295 548/662/296
f 619/761/190 618/760/187 541/652/191
f 618/760/187 619/761/188 620/762/189
f 621/763/345 541/652/191 543/656/346
f 541/652/191 621/763/218 619/761/188
f 560/678/128 607/749/182 622/764/129
f 607/749/180 560/678/128 561/680/181
f 603/745/213 623/765/130 601/743/215
f 623/765/339 603/745/213 624/766/340
f 624/766/127 622/764/129 623/765/130
f 622/764/257 624/766/127 560/678/128
f 556/673/192 600/742/238 625/767/194
f 600/742/236 556/673/192 602/744/237
f 627/769/331 626/768/119 587/721/114
f 626/768/119 627/769/115 628/770/117
f 607/749/242 630/772/135 629/771/243
f 630/772/135 607/749/241 608/750/132
f 591/727/171 631/773/338 590/725/85
f 631/773/84 591/727/171 632/774/172
f 635/777/96 634/776/149 633/775/151
f 634/776/149 635/777/337 636/778/92
f 637/779/193 556/673/192 625/767/194
f 556/673/192 637/779/165 638/780/163
f 569/692/142 612/754/336 611/753/145
f 612/754/141 569/692/142 639/781/143
f 640/782/254 548/662/296 617/759/295
f 548/662/296 640/782/253 641/783/255
f 615/757/277 643/785/279 642/784/201
f 643/785/276 615/757/277 605/747/278
f 609/751/204 614/756/310 566/688/208
f 614/756/203 609/751/204 610/752/205
f 615/757/211 606/748/184 605/747/185
f 606/748/184 615/757/209 616/758/210
f 644/786/148 632/774/245 591/727/171
f 632/774/172 644/786/148 645/787/244
f 646/788/260 620/762/261 645/787/147
f 620/762/262 646/788/260 647/789/263
f 604/746/139 554/670/136 648/790/140
f 554/670/136 604/746/137 553/668/138
f 605/747/289 649/791/227 643/785/290
f 649/791/286 605/747/287 604/746/288
f 650/792/116 587/721/114 585/718/88
f 587/721/114 650/792/90 627/769/115
f 590/725/85 652/794/86 651/793/87
f 652/794/82 590/725/83 631/773/84
f 655/797/107 654/796/109 653/795/110
f 654/796/106 655/797/107 576/703/108
f 595/733/122 645/787/244 644/786/148
f 645/787/146 595/733/122 646/788/124
f 656/798/251 647/789/263 646/788/260
f 647/789/263 656/798/125 639/781/269
f 640/782/222 658/800/202 657/799/223
f 658/800/202 640/782/157 617/759/199
f 661/803/101 660/802/160 659/801/95
f 660/802/160 661/803/256 579/708/97
f 651/793/87 657/799/162 662/804/103
f 657/799/104 651/793/87 652/794/82
f 628/770/335 663/805/81 626/768/119
f 663/805/81 628/770/117 664/806/78
f 578/706/112 643/785/240 649/791/113
f 643/785/264 578/706/112 665/807/239
f 617/759/199 642/784/201 658/800/202
f 642/784/198 617/759/199 615/757/200
f 632/774/273 621/763/280 631/773/173
f 621/763/175 632/774/281 619/761/274
f 628/770/311 612/754/312 664/806/249
f 612/754/252 628/770/313 610/752/270
f 656/798/79 595/733/122 593/730/77
f 595/733/122 656/798/123 646/788/124
f 640/782/254 666/808/221 641/783/255
f 666/808/221 640/782/253 667/809/217
f 608/750/132 650/792/134 630/772/135
f 650/792/131 608/750/132 613/755/133
f 565/686/292 608/750/132 563/683/294
f 608/750/291 565/686/292 613/755/293
f 648/790/140 638/780/163 637/779/165
f 638/780/163 648/790/164 554/670/136
f 542/654/266 639/781/143 569/692/142
f 639/781/304 542/654/266 647/789/268
f 601/743/297 633/775/298 600/742/195
f 633/775/298 601/743/299 635/777/233
f 665/807/239 642/784/153 643/785/240
f 642/784/152 665/807/239 668/810/154
f 614/756/310 628/770/311 627/769/285
f 628/770/308 614/756/284 610/752/309
f 625/767/166 653/795/167 637/779/168
f 653/795/169 625/767/166 669/811/170
f 667/809/219 543/656/220 666/808/221
f 543/656/216 667/809/217 621/763/218
f 572/698/246 653/795/275 669/811/248
f 653/795/167 572/698/246 655/797/107
f 600/742/195 669/811/170 625/767/166
f 669/811/170 600/742/196 633/775/197
f 659/801/95 636/778/92 635/777/96
f 636/778/92 659/801/333 660/802/334
f 637/779/305 654/796/306 648/790/224
f 654/796/307 637/779/305 653/795/169
f 620/762/261 542/654/266 618/760/187
f 542/654/266 620/762/267 647/789/268
f 667/809/158 657/799/155 652/794/159
f 657/799/155 667/809/156 640/782/157
f 648/790/224 649/791/225 604/746/341
f 649/791/227 648/790/228 654/796/307
f 622/764/303 629/771/301 661/803/259
f 629/771/301 622/764/302 607/749/241
f 621/763/177 652/794/178 631/773/179
f 652/794/174 621/763/175 667/809/176
f 630/772/89 581/711/99 629/771/100
f 581/711/99 630/772/135 583/714/91
f 668/810/154 658/800/102 642/784/153
f 658/800/102 668/810/154 584/716/105
f 576/703/108 649/791/113 654/796/109
f 649/791/111 576/703/108 578/706/112
f 664/806/249 639/781/250 656/798/251
f 639/781/250 664/806/80 612/754/252
f 629/771/100 579/708/97 661/803/101
f 579/708/97 629/771/98 581/711/99
f 664/806/332 593/730/77 663/805/81
f 593/730/77 664/806/249 656/798/79
f 613/755/283 627/769/285 650/792/134
f 627/769/282 613/755/283 614/756/284
f 662/804/103 658/800/102 584/716/105
f 658/800/102 662/804/103 657/799/104
f 633/775/247 572/698/246 669/811/248
f 572/698/246 633/775/151 634/776/149
f 645/787/271 619/761/272 632/774/273
f 619/761/274 645/787/271 620/762/262
f 623/765/258 661/803/259 659/801/343
f 661/803/256 623/765/230 622/764/257
f 650/792/116 583/714/91 630/772/89
f 583/714/91 650/792/90 585/718/88
f 623/765/230 635/777/231 601/743/297
f 635/777/233 623/765/234 659/801/342
f 596/735/16 538/648/16 536/645/16
f 538/648/16 596/735/16 597/737/16
f 538/648/16 597/737/16 571/696/16
f 571/696/16 597/737/16 598/739/16
f 571/696/16 598/739/16 570/694/16
f 570/694/16 598/739/16 599/741/16
