# Blender 3.3.1
# www.blender.org
o vehicle-monster-truck
v -0.306374 0.275000 0.187500
v -0.289862 0.275000 0.227362
v -0.339482 0.312500 0.187500
v -0.313274 0.312500 0.250773
v -0.193626 0.275000 0.187500
v -0.160518 0.312500 0.187500
v -0.210138 0.275000 0.227362
v -0.186727 0.312500 0.250773
v -0.250000 0.275000 0.243874
v -0.250000 0.312500 0.276982
v -0.210138 0.275000 0.147638
v -0.250000 0.275000 0.131126
v -0.186727 0.312500 0.124226
v -0.250000 0.312500 0.098018
v -0.394576 0.312500 0.148761
v -0.379624 0.312500 0.112662
v -0.399676 0.312500 0.187500
v -0.355837 0.312500 0.081663
v -0.324838 0.312500 0.057876
v -0.313274 0.312500 0.124226
v -0.288739 0.312500 0.042924
v -0.250000 0.312500 0.037824
v -0.211261 0.312500 0.042924
v -0.175162 0.312500 0.057876
v -0.144163 0.312500 0.081663
v -0.120376 0.312500 0.112662
v -0.105424 0.312500 0.148761
v -0.100324 0.312500 0.187500
v -0.105424 0.312500 0.226239
v -0.120376 0.312500 0.262338
v -0.144163 0.312500 0.293337
v -0.175162 0.312500 0.317124
v -0.211261 0.312500 0.332076
v -0.250000 0.312500 0.337176
v -0.288739 0.312500 0.332076
v -0.324838 0.312500 0.317124
v -0.355837 0.312500 0.293337
v -0.379624 0.312500 0.262338
v -0.394576 0.312500 0.226239
v -0.100324 0.125000 0.187500
v -0.105424 0.125000 0.148761
v -0.105424 0.125000 0.226239
v -0.120376 0.125000 0.262338
v -0.120376 0.125000 0.112662
v -0.144163 0.125000 0.293337
v -0.144163 0.125000 0.081663
v -0.175162 0.125000 0.317124
v -0.175162 0.125000 0.057876
v -0.211261 0.125000 0.332076
v -0.211261 0.125000 0.042924
v -0.250000 0.125000 0.337176
v -0.250000 0.125000 0.037824
v -0.288739 0.125000 0.332076
v -0.288739 0.125000 0.042924
v -0.324838 0.125000 0.317124
v -0.324838 0.125000 0.057876
v -0.355837 0.125000 0.293337
v -0.355837 0.125000 0.081663
v -0.379624 0.125000 0.262338
v -0.379624 0.125000 0.112662
v -0.394576 0.125000 0.226239
v -0.394576 0.125000 0.148761
v -0.399676 0.125000 0.187500
v -0.289862 0.275000 0.147638
v -0.068889 0.275000 0.236029
v -0.087620 0.275000 0.281250
v -0.120376 0.312500 0.262338
v -0.117418 0.275000 0.054917
v -0.144163 0.312500 0.081663
v -0.156250 0.275000 0.025120
v -0.201471 0.275000 0.368611
v -0.250000 0.275000 0.375000
v -0.211261 0.312500 0.332076
v -0.355837 0.312500 0.293337
v -0.382583 0.275000 0.320082
v -0.379624 0.312500 0.262338
v -0.412380 0.275000 0.281250
v -0.298529 0.275000 0.368611
v -0.343750 0.275000 0.349880
v -0.201471 0.275000 0.006389
v -0.211261 0.312500 0.042924
v -0.250000 0.275000 -0.000000
v -0.379624 0.312500 0.112662
v -0.412380 0.275000 0.093750
v -0.431111 0.275000 0.138971
v -0.355837 0.312500 0.081663
v -0.382583 0.275000 0.054917
v -0.156250 0.275000 0.349880
v -0.117418 0.275000 0.320082
v -0.144163 0.312500 0.293337
v -0.062500 0.275000 0.187500
v -0.355837 0.125000 0.293337
v -0.343750 0.162500 0.349880
v -0.382583 0.162500 0.320082
v -0.201471 0.162500 0.368611
v -0.250000 0.162500 0.375000
v -0.355837 0.125000 0.081663
v -0.382583 0.162500 0.054917
v -0.379624 0.125000 0.112662
v -0.412380 0.162500 0.093750
v -0.068889 0.162500 0.236029
v -0.087620 0.162500 0.281250
v -0.120376 0.125000 0.262338
v -0.068889 0.275000 0.138971
v -0.431111 0.275000 0.236029
v -0.298529 0.275000 0.006389
v -0.201471 0.162500 0.006389
v -0.156250 0.162500 0.025120
v -0.431111 0.162500 0.138971
v -0.437500 0.162500 0.187500
v -0.437500 0.275000 0.187500
v -0.087620 0.275000 0.093750
v -0.120376 0.312500 0.112662
v -0.117418 0.162500 0.054917
v -0.298529 0.162500 0.368611
v -0.343750 0.162500 0.025120
v -0.068889 0.162500 0.138971
v -0.087620 0.162500 0.093750
v -0.120376 0.125000 0.112662
v -0.431111 0.162500 0.236029
v -0.298529 0.162500 0.006389
v -0.250000 0.162500 -0.000000
v -0.117418 0.162500 0.320082
v -0.144163 0.125000 0.293337
v -0.156250 0.162500 0.349880
v -0.379624 0.125000 0.262338
v -0.412380 0.162500 0.281250
v -0.144163 0.125000 0.081663
v -0.343750 0.275000 0.025120
v -0.211261 0.125000 0.042924
v -0.062500 0.162500 0.187500
v -0.211261 0.125000 0.332076
v 0.186726 -0.312500 0.124227
v 0.210138 -0.275000 0.147638
v 0.250000 -0.312500 0.098018
v 0.250000 -0.275000 0.131126
v 0.250000 -0.312500 0.276982
v 0.313273 -0.312500 0.250774
v 0.250000 -0.275000 0.243874
v 0.289862 -0.275000 0.227362
v 0.399676 -0.125000 0.187500
v 0.394576 -0.125000 0.226239
v 0.394576 -0.125000 0.148761
v 0.379624 -0.125000 0.112662
v 0.379624 -0.125000 0.262338
v 0.355837 -0.125000 0.081663
v 0.355837 -0.125000 0.293337
v 0.324838 -0.125000 0.057876
v 0.324838 -0.125000 0.317124
v 0.288739 -0.125000 0.042924
v 0.288739 -0.125000 0.332076
v 0.250000 -0.125000 0.037824
v 0.250000 -0.125000 0.337176
v 0.211261 -0.125000 0.042924
v 0.211261 -0.125000 0.332076
v 0.175162 -0.125000 0.057876
v 0.175162 -0.125000 0.317124
v 0.144163 -0.125000 0.081663
v 0.144163 -0.125000 0.293337
v 0.120376 -0.125000 0.112662
v 0.120376 -0.125000 0.262338
v 0.105424 -0.125000 0.148761
v 0.105424 -0.125000 0.226239
v 0.100324 -0.125000 0.187500
v 0.105424 -0.312500 0.226239
v 0.120376 -0.312500 0.262338
v 0.100324 -0.312500 0.187500
v 0.144163 -0.312500 0.293337
v 0.160518 -0.312500 0.187500
v 0.175162 -0.312500 0.317124
v 0.186726 -0.312500 0.250774
v 0.211261 -0.312500 0.332076
v 0.250000 -0.312500 0.337176
v 0.288739 -0.312500 0.332076
v 0.324838 -0.312500 0.317124
v 0.339482 -0.312500 0.187500
v 0.355837 -0.312500 0.293337
v 0.379624 -0.312500 0.262338
v 0.394576 -0.312500 0.226239
v 0.399676 -0.312500 0.187500
v 0.394576 -0.312500 0.148761
v 0.379624 -0.312500 0.112662
v 0.355837 -0.312500 0.081663
v 0.324838 -0.312500 0.057876
v 0.313273 -0.312500 0.124227
v 0.288739 -0.312500 0.042924
v 0.250000 -0.312500 0.037824
v 0.211261 -0.312500 0.042924
v 0.175162 -0.312500 0.057876
v 0.144163 -0.312500 0.081663
v 0.120376 -0.312500 0.112662
v 0.105424 -0.312500 0.148761
v 0.306374 -0.275000 0.187500
v 0.193626 -0.275000 0.187500
v 0.210138 -0.275000 0.227362
v 0.289862 -0.275000 0.147638
v 0.068889 -0.275000 0.236029
v 0.087620 -0.275000 0.281250
v 0.120376 -0.312500 0.262338
v 0.117418 -0.275000 0.054917
v 0.144163 -0.312500 0.081663
v 0.156250 -0.275000 0.025120
v 0.201471 -0.275000 0.368611
v 0.250000 -0.275000 0.375000
v 0.211261 -0.312500 0.332076
v 0.355837 -0.312500 0.293337
v 0.382582 -0.275000 0.320083
v 0.379624 -0.312500 0.262338
v 0.412380 -0.275000 0.281250
v 0.298529 -0.275000 0.368611
v 0.343750 -0.275000 0.349880
v 0.201471 -0.275000 0.006389
v 0.211261 -0.312500 0.042924
v 0.250000 -0.275000 0.000000
v 0.379624 -0.312500 0.112662
v 0.412380 -0.275000 0.093750
v 0.431111 -0.275000 0.138971
v 0.355837 -0.312500 0.081663
v 0.382582 -0.275000 0.054918
v 0.156250 -0.275000 0.349880
v 0.117417 -0.275000 0.320083
v 0.144163 -0.312500 0.293337
v 0.062500 -0.275000 0.187500
v 0.355837 -0.125000 0.293337
v 0.343750 -0.162500 0.349880
v 0.382582 -0.162500 0.320083
v 0.201471 -0.162500 0.368611
v 0.250000 -0.162500 0.375000
v 0.355837 -0.125000 0.081663
v 0.382582 -0.162500 0.054918
v 0.379624 -0.125000 0.112662
v 0.412380 -0.162500 0.093750
v 0.068889 -0.162500 0.236029
v 0.087620 -0.162500 0.281250
v 0.120376 -0.125000 0.262338
v 0.068889 -0.275000 0.138971
v 0.431111 -0.275000 0.236029
v 0.298529 -0.275000 0.006389
v 0.201471 -0.162500 0.006389
v 0.156250 -0.162500 0.025120
v 0.431111 -0.162500 0.138971
v 0.437500 -0.162500 0.187500
v 0.437500 -0.275000 0.187500
v 0.087620 -0.275000 0.093750
v 0.120376 -0.312500 0.112662
v 0.117417 -0.162500 0.054917
v 0.298529 -0.162500 0.368611
v 0.343750 -0.162500 0.025120
v 0.068889 -0.162500 0.138971
v 0.087620 -0.162500 0.093750
v 0.120376 -0.125000 0.112662
v 0.431111 -0.162500 0.236029
v 0.298529 -0.162500 0.006389
v 0.250000 -0.162500 0.000000
v 0.117417 -0.162500 0.320083
v 0.144163 -0.125000 0.293337
v 0.156250 -0.162500 0.349880
v 0.379624 -0.125000 0.262338
v 0.412380 -0.162500 0.281250
v 0.144163 -0.125000 0.081663
v 0.343750 -0.275000 0.025120
v 0.062500 -0.162500 0.187500
v 0.250000 0.275000 0.131126
v 0.210138 0.275000 0.147638
v 0.250000 0.312500 0.098018
v 0.186726 0.312500 0.124227
v 0.193626 0.275000 0.187500
v 0.210138 0.275000 0.227362
v 0.160518 0.312500 0.187500
v 0.186726 0.312500 0.250774
v 0.313273 0.312500 0.124227
v 0.339482 0.312500 0.187500
v 0.289862 0.275000 0.147638
v 0.306374 0.275000 0.187500
v 0.105424 0.312500 0.148761
v 0.120376 0.312500 0.112662
v 0.100324 0.312500 0.187500
v 0.144163 0.312500 0.081663
v 0.175162 0.312500 0.057876
v 0.211261 0.312500 0.042924
v 0.250000 0.312500 0.037824
v 0.288739 0.312500 0.042924
v 0.324838 0.312500 0.057876
v 0.355837 0.312500 0.081663
v 0.379624 0.312500 0.112662
v 0.394576 0.312500 0.148761
v 0.399676 0.312500 0.187500
v 0.394576 0.312500 0.226239
v 0.379624 0.312500 0.262338
v 0.355837 0.312500 0.293337
v 0.324838 0.312500 0.317124
v 0.313273 0.312500 0.250774
v 0.288739 0.312500 0.332076
v 0.250000 0.312500 0.276982
v 0.250000 0.312500 0.337176
v 0.211261 0.312500 0.332076
v 0.175162 0.312500 0.317124
v 0.144163 0.312500 0.293337
v 0.120376 0.312500 0.262338
v 0.105424 0.312500 0.226239
v 0.289862 0.275000 0.227362
v 0.250000 0.275000 0.243874
v 0.399676 0.125000 0.187500
v 0.394576 0.125000 0.148761
v 0.394576 0.125000 0.226239
v 0.379624 0.125000 0.262338
v 0.379624 0.125000 0.112662
v 0.355837 0.125000 0.293337
v 0.355837 0.125000 0.081663
v 0.324838 0.125000 0.317124
v 0.324838 0.125000 0.057876
v 0.288739 0.125000 0.332076
v 0.288739 0.125000 0.042924
v 0.250000 0.125000 0.337176
v 0.250000 0.125000 0.037824
v 0.211261 0.125000 0.332076
v 0.211261 0.125000 0.042924
v 0.175162 0.125000 0.317124
v 0.175162 0.125000 0.057876
v 0.144163 0.125000 0.293337
v 0.144163 0.125000 0.081663
v 0.120376 0.125000 0.262338
v 0.120376 0.125000 0.112662
v 0.105424 0.125000 0.226239
v 0.105424 0.125000 0.148761
v 0.100324 0.125000 0.187500
v 0.431111 0.275000 0.236029
v 0.412380 0.275000 0.281250
v 0.379624 0.312500 0.262338
v 0.382582 0.275000 0.054918
v 0.355837 0.312500 0.081663
v 0.343750 0.275000 0.025120
v 0.298529 0.275000 0.368611
v 0.250000 0.275000 0.375000
v 0.144163 0.312500 0.293337
v 0.117417 0.275000 0.320083
v 0.120376 0.312500 0.262338
v 0.087620 0.275000 0.281250
v 0.211261 0.312500 0.332076
v 0.201471 0.275000 0.368611
v 0.156250 0.275000 0.349880
v 0.298529 0.275000 0.006389
v 0.250000 0.275000 0.000000
v 0.120376 0.312500 0.112662
v 0.087620 0.275000 0.093750
v 0.068889 0.275000 0.138971
v 0.144163 0.312500 0.081663
v 0.117417 0.275000 0.054917
v 0.343750 0.275000 0.349880
v 0.382582 0.275000 0.320083
v 0.355837 0.312500 0.293337
v 0.437500 0.275000 0.187500
v 0.144163 0.125000 0.293337
v 0.156250 0.162500 0.349880
v 0.117417 0.162500 0.320083
v 0.298529 0.162500 0.368611
v 0.250000 0.162500 0.375000
v 0.144163 0.125000 0.081663
v 0.117417 0.162500 0.054917
v 0.120376 0.125000 0.112662
v 0.087620 0.162500 0.093750
v 0.431111 0.162500 0.236029
v 0.412380 0.162500 0.281250
v 0.379624 0.125000 0.262338
v 0.431111 0.275000 0.138971
v 0.068889 0.275000 0.236029
v 0.201471 0.275000 0.006389
v 0.211261 0.312500 0.042924
v 0.298529 0.162500 0.006389
v 0.343750 0.162500 0.025120
v 0.068889 0.162500 0.138971
v 0.062500 0.162500 0.187500
v 0.062500 0.275000 0.187500
v 0.412380 0.275000 0.093750
v 0.379624 0.312500 0.112662
v 0.382582 0.162500 0.054918
v 0.211261 0.125000 0.332076
v 0.201471 0.162500 0.368611
v 0.156250 0.162500 0.025120
v 0.431111 0.162500 0.138971
v 0.412380 0.162500 0.093750
v 0.379624 0.125000 0.112662
v 0.068889 0.162500 0.236029
v 0.201471 0.162500 0.006389
v 0.250000 0.162500 0.000000
v 0.382582 0.162500 0.320083
v 0.355837 0.125000 0.293337
v 0.343750 0.162500 0.349880
v 0.211261 0.125000 0.042924
v 0.120376 0.125000 0.262338
v 0.087620 0.162500 0.281250
v 0.355837 0.125000 0.081663
v 0.156250 0.275000 0.025120
v 0.437500 0.162500 0.187500
v -0.313273 -0.312500 0.124226
v -0.289862 -0.275000 0.147638
v -0.250000 -0.312500 0.098018
v -0.250000 -0.275000 0.131126
v -0.250000 -0.312500 0.276982
v -0.186727 -0.312500 0.250773
v -0.250000 -0.275000 0.243874
v -0.210138 -0.275000 0.227362
v -0.100324 -0.125000 0.187500
v -0.105424 -0.125000 0.226239
v -0.105424 -0.125000 0.148761
v -0.120376 -0.125000 0.112662
v -0.120376 -0.125000 0.262338
v -0.144163 -0.125000 0.081663
v -0.144163 -0.125000 0.293337
v -0.175162 -0.125000 0.057876
v -0.175162 -0.125000 0.317124
v -0.211261 -0.125000 0.042924
v -0.211261 -0.125000 0.332076
v -0.250000 -0.125000 0.037824
v -0.250000 -0.125000 0.337176
v -0.288739 -0.125000 0.042924
v -0.288739 -0.125000 0.332076
v -0.324838 -0.125000 0.057876
v -0.324838 -0.125000 0.317124
v -0.355837 -0.125000 0.081663
v -0.355837 -0.125000 0.293337
v -0.379624 -0.125000 0.112662
v -0.379624 -0.125000 0.262338
v -0.394576 -0.125000 0.148761
v -0.394576 -0.125000 0.226239
v -0.399676 -0.125000 0.187500
v -0.394576 -0.312500 0.226239
v -0.379624 -0.312500 0.262338
v -0.399676 -0.312500 0.187500
v -0.355837 -0.312500 0.293337
v -0.339482 -0.312500 0.187500
v -0.324838 -0.312500 0.317124
v -0.313274 -0.312500 0.250773
v -0.288739 -0.312500 0.332076
v -0.250000 -0.312500 0.337176
v -0.211261 -0.312500 0.332076
v -0.175162 -0.312500 0.317124
v -0.160518 -0.312500 0.187500
v -0.144163 -0.312500 0.293337
v -0.120376 -0.312500 0.262338
v -0.105424 -0.312500 0.226239
v -0.100324 -0.312500 0.187500
v -0.105424 -0.312500 0.148761
v -0.120376 -0.312500 0.112662
v -0.144163 -0.312500 0.081663
v -0.175162 -0.312500 0.057876
v -0.186726 -0.312500 0.124226
v -0.211261 -0.312500 0.042924
v -0.250000 -0.312500 0.037824
v -0.288739 -0.312500 0.042924
v -0.324838 -0.312500 0.057876
v -0.355837 -0.312500 0.081663
v -0.379624 -0.312500 0.112662
v -0.394576 -0.312500 0.148761
v -0.193626 -0.275000 0.187500
v -0.289862 -0.275000 0.227362
v -0.306374 -0.275000 0.187500
v -0.210138 -0.275000 0.147638
v -0.431111 -0.275000 0.236029
v -0.412380 -0.275000 0.281250
v -0.379624 -0.312500 0.262338
v -0.382582 -0.275000 0.054917
v -0.355837 -0.312500 0.081663
v -0.343750 -0.275000 0.025120
v -0.298529 -0.275000 0.368611
v -0.250000 -0.275000 0.375000
v -0.144163 -0.312500 0.293337
v -0.117418 -0.275000 0.320082
v -0.120376 -0.312500 0.262338
v -0.087620 -0.275000 0.281250
v -0.211261 -0.312500 0.332076
v -0.201471 -0.275000 0.368611
v -0.156250 -0.275000 0.349880
v -0.298529 -0.275000 0.006389
v -0.250000 -0.275000 -0.000000
v -0.120376 -0.312500 0.112662
v -0.087620 -0.275000 0.093750
v -0.068889 -0.275000 0.138971
v -0.144163 -0.312500 0.081663
v -0.117417 -0.275000 0.054917
v -0.343750 -0.275000 0.349880
v -0.382583 -0.275000 0.320082
v -0.355837 -0.312500 0.293337
v -0.437500 -0.275000 0.187500
v -0.144163 -0.125000 0.293337
v -0.156250 -0.162500 0.349880
v -0.117418 -0.162500 0.320082
v -0.298529 -0.162500 0.368611
v -0.250000 -0.162500 0.375000
v -0.144163 -0.125000 0.081663
v -0.117417 -0.162500 0.054917
v -0.120376 -0.125000 0.112662
v -0.087620 -0.162500 0.093750
v -0.431111 -0.162500 0.236029
v -0.412380 -0.162500 0.281250
v -0.379624 -0.125000 0.262338
v -0.431111 -0.275000 0.138971
v -0.068889 -0.275000 0.236029
v -0.201471 -0.275000 0.006389
v -0.211261 -0.312500 0.042924
v -0.298529 -0.162500 0.006389
v -0.343750 -0.162500 0.025120
v -0.068889 -0.162500 0.138971
v -0.062500 -0.162500 0.187500
v -0.062500 -0.275000 0.187500
v -0.412380 -0.275000 0.093750
v -0.379624 -0.312500 0.112662
v -0.382582 -0.162500 0.054917
v -0.211261 -0.125000 0.332076
v -0.201471 -0.162500 0.368611
v -0.156250 -0.162500 0.025120
v -0.431111 -0.162500 0.138971
v -0.412380 -0.162500 0.093750
v -0.379624 -0.125000 0.112662
v -0.068889 -0.162500 0.236029
v -0.201471 -0.162500 0.006389
v -0.250000 -0.162500 -0.000000
v -0.382583 -0.162500 0.320082
v -0.355837 -0.125000 0.293337
v -0.343750 -0.162500 0.349880
v -0.211261 -0.125000 0.042924
v -0.120376 -0.125000 0.262338
v -0.087620 -0.162500 0.281250
v -0.355837 -0.125000 0.081663
v -0.156250 -0.275000 0.025120
v -0.437500 -0.162500 0.187500
v 0.125000 -0.200000 0.600000
v 0.125000 -0.200000 0.575000
v 0.100000 -0.200000 0.625000
v 0.100000 -0.200000 0.550000
v 0.050000 -0.200000 0.625000
v 0.050000 -0.200000 0.550000
v 0.100000 -0.125000 0.625000
v 0.050000 -0.125000 0.625000
v 0.125000 -0.125000 0.575000
v 0.125000 -0.125000 0.600000
v 0.050000 -0.125000 0.550000
v 0.100000 -0.125000 0.550000
v 0.250000 -0.125000 0.600000
v 0.250000 -0.125000 0.462500
v 0.125000 -0.125000 0.600000
v 0.225000 -0.125000 0.437500
v 0.125000 -0.125000 0.437500
v 0.125000 0.125000 0.437500
v 0.225000 0.125000 0.437500
v 0.250000 0.125000 0.462500
v 0.250000 0.125000 0.600000
v 0.125000 0.125000 0.600000
v 0.250000 -0.100000 0.625000
v 0.125000 -0.100000 0.625000
v 0.250000 0.100000 0.625000
v 0.125000 0.100000 0.625000
v 0.138910 -0.125000 0.546635
v 0.046881 -0.125000 0.508515
v 0.230940 -0.125000 0.508515
v 0.250000 -0.125000 0.462500
v 0.138910 -0.125000 0.478985
v 0.027821 -0.125000 0.462500
v 0.183105 -0.125000 0.460679
v 0.192257 -0.125000 0.438582
v 0.094716 -0.125000 0.460679
v 0.085563 -0.125000 0.438582
v 0.138910 -0.187500 0.519575
v 0.211806 -0.187500 0.489381
v 0.066015 -0.187500 0.489381
v 0.138910 -0.187500 0.478985
v 0.050918 -0.187500 0.452933
v 0.226903 -0.187500 0.452933
v 0.094716 -0.187500 0.460679
v 0.085563 -0.187500 0.438582
v 0.183105 -0.187500 0.460679
v 0.192257 -0.187500 0.438582
v 0.250000 -0.162500 0.462500
v 0.027821 -0.162500 0.462500
v 0.230940 -0.162500 0.508515
v 0.138910 -0.162500 0.546635
v 0.046881 -0.162500 0.508515
v -0.138911 -0.125000 0.546635
v -0.230940 -0.125000 0.508515
v -0.046881 -0.125000 0.508515
v -0.027821 -0.125000 0.462500
v -0.138911 -0.125000 0.478985
v -0.250000 -0.125000 0.462500
v -0.094716 -0.125000 0.460679
v -0.085564 -0.125000 0.438582
v -0.183105 -0.125000 0.460679
v -0.192258 -0.125000 0.438582
v -0.138911 -0.187500 0.519575
v -0.066015 -0.187500 0.489381
v -0.211806 -0.187500 0.489381
v -0.138911 -0.187500 0.478985
v -0.226903 -0.187500 0.452933
v -0.050918 -0.187500 0.452933
v -0.183105 -0.187500 0.460679
v -0.192258 -0.187500 0.438582
v -0.094716 -0.187500 0.460679
v -0.085564 -0.187500 0.438582
v -0.027821 -0.162500 0.462500
v -0.250000 -0.162500 0.462500
v -0.138911 -0.162500 0.546635
v -0.046881 -0.162500 0.508515
v -0.230940 -0.162500 0.508515
v 0.138910 0.125000 0.546635
v 0.230940 0.125000 0.508515
v 0.046881 0.125000 0.508515
v 0.027821 0.125000 0.462500
v 0.138910 0.125000 0.478985
v 0.250000 0.125000 0.462500
v 0.094716 0.125000 0.460679
v 0.085563 0.125000 0.438582
v 0.183105 0.125000 0.460679
v 0.192257 0.125000 0.438582
v 0.138910 0.187500 0.519575
v 0.066015 0.187500 0.489381
v 0.211806 0.187500 0.489381
v 0.138910 0.187500 0.478985
v 0.226903 0.187500 0.452933
v 0.050918 0.187500 0.452933
v 0.183105 0.187500 0.460679
v 0.192257 0.187500 0.438582
v 0.094716 0.187500 0.460679
v 0.085563 0.187500 0.438582
v 0.027821 0.162500 0.462500
v 0.250000 0.162500 0.462500
v 0.138910 0.162500 0.546635
v 0.046881 0.162500 0.508515
v 0.230940 0.162500 0.508515
v 0.125000 0.200000 0.575000
v 0.125000 0.200000 0.600000
v 0.100000 0.200000 0.550000
v 0.100000 0.200000 0.625000
v 0.050000 0.200000 0.550000
v 0.050000 0.200000 0.625000
v 0.100000 0.125000 0.625000
v 0.050000 0.125000 0.625000
v 0.125000 0.125000 0.575000
v 0.125000 0.125000 0.600000
v 0.050000 0.125000 0.550000
v 0.100000 0.125000 0.550000
v -0.125000 -0.100000 0.625000
v -0.250000 -0.100000 0.625000
v -0.125000 0.100000 0.625000
v -0.250000 0.100000 0.625000
v -0.250000 -0.125000 0.462500
v -0.250000 0.125000 0.462500
v -0.250000 -0.125000 0.600000
v -0.250000 0.125000 0.600000
v -0.125000 0.125000 0.600000
v -0.125000 -0.125000 0.600000
v -0.225000 -0.125000 0.437500
v -0.125000 -0.125000 0.437500
v -0.225000 0.125000 0.437500
v -0.125000 0.125000 0.437500
v -0.125000 -0.125000 0.725000
v -0.125000 0.125000 0.725000
v -0.125000 -0.100000 0.750000
v -0.125000 0.100000 0.750000
v 0.078984 0.100000 0.750000
v 0.088187 0.125000 0.725000
v 0.125000 0.125000 0.625000
v 0.078984 -0.100000 0.750000
v 0.088187 -0.125000 0.725000
v 0.125000 -0.125000 0.625000
v 0.125000 0.075000 0.625000
v 0.125000 -0.075000 0.625000
v -0.138911 0.125000 0.546635
v -0.046881 0.125000 0.508515
v -0.230940 0.125000 0.508515
v -0.250000 0.125000 0.462500
v -0.138911 0.125000 0.478985
v -0.027821 0.125000 0.462500
v -0.183105 0.125000 0.460679
v -0.192258 0.125000 0.438582
v -0.094716 0.125000 0.460679
v -0.085564 0.125000 0.438582
v -0.138911 0.187500 0.519575
v -0.211806 0.187500 0.489381
v -0.066015 0.187500 0.489381
v -0.138911 0.187500 0.478985
v -0.050918 0.187500 0.452933
v -0.226903 0.187500 0.452933
v -0.094716 0.187500 0.460679
v -0.085564 0.187500 0.438582
v -0.183105 0.187500 0.460679
v -0.192258 0.187500 0.438582
v -0.250000 0.162500 0.462500
v -0.027821 0.162500 0.462500
v -0.230940 0.162500 0.508515
v -0.138911 0.162500 0.546635
v -0.046881 0.162500 0.508515
v -0.312500 -0.125000 0.687500
v -0.312500 0.125000 0.687500
v -0.212500 -0.125000 0.687500
v -0.212500 0.125000 0.687500
v -0.187500 -0.125000 0.625000
v -0.312500 -0.125000 0.625000
v -0.187500 -0.125000 0.662500
v -0.312500 0.125000 0.625000
v -0.187500 0.125000 0.625000
v -0.187500 0.125000 0.662500
v -0.281250 -0.218750 0.156250
v -0.218750 -0.218750 0.156250
v -0.281250 0.218750 0.156250
v -0.218750 0.218750 0.156250
v -0.218750 -0.218750 0.218750
v -0.281250 -0.218750 0.218750
v -0.218750 0.218750 0.218750
v -0.281250 0.218750 0.218750
v 0.250000 -0.125000 0.600000
v 0.250000 -0.100000 0.625000
v 0.312500 -0.125000 0.600000
v 0.312500 -0.100000 0.625000
v 0.250000 0.100000 0.625000
v 0.312500 0.100000 0.625000
v 0.312500 -0.125000 0.462500
v 0.287500 -0.125000 0.437500
v 0.250000 -0.125000 0.462500
v 0.225000 -0.125000 0.437500
v 0.312500 0.125000 0.462500
v 0.312500 0.125000 0.600000
v 0.287500 0.125000 0.437500
v 0.250000 0.125000 0.462500
v 0.225000 0.125000 0.437500
v 0.250000 0.125000 0.600000
v 0.218750 -0.218750 0.156250
v 0.281250 -0.218750 0.156250
v 0.218750 0.218750 0.156250
v 0.281250 0.218750 0.156250
v 0.218750 -0.218750 0.218750
v 0.218750 0.218750 0.218750
v 0.281250 -0.218750 0.218750
v 0.281250 0.218750 0.218750
v 0.218750 -0.031250 0.156250
v 0.218750 0.031250 0.156250
v -0.218750 -0.031250 0.156250
v -0.218750 0.031250 0.156250
v 0.218750 -0.031250 0.218750
v -0.218750 -0.031250 0.218750
v 0.218750 0.031250 0.218750
v -0.218750 0.031250 0.218750
v -0.125000 -0.031250 0.437500
v -0.187500 -0.031250 0.437500
v -0.218750 -0.031250 0.218750
v -0.281250 -0.031250 0.218750
v -0.125000 -0.093750 0.437500
v -0.218750 -0.093750 0.218750
v -0.187500 -0.093750 0.437500
v -0.281250 -0.093750 0.218750
v 0.218750 -0.093750 0.218750
v 0.218750 -0.031250 0.218750
v 0.125000 -0.093750 0.437500
v 0.125000 -0.031250 0.437500
v 0.281250 -0.031250 0.218750
v 0.187500 -0.031250 0.437500
v 0.281250 -0.093750 0.218750
v 0.187500 -0.093750 0.437500
v 0.218750 0.031250 0.218750
v 0.281250 0.031250 0.218750
v 0.218750 0.093750 0.218750
v 0.281250 0.093750 0.218750
v 0.187500 0.093750 0.437500
v 0.125000 0.093750 0.437500
v 0.187500 0.031250 0.437500
v 0.125000 0.031250 0.437500
v -0.187500 0.031250 0.437500
v -0.187500 0.093750 0.437500
v -0.125000 0.031250 0.437500
v -0.125000 0.093750 0.437500
v -0.218750 0.093750 0.218750
v -0.281250 0.093750 0.218750
v -0.218750 0.031250 0.218750
v -0.281250 0.031250 0.218750
v 0.096257 0.075000 0.703078
v 0.096257 -0.075000 0.703078
v 0.096257 0.075000 0.703078
v 0.096257 -0.075000 0.703078
vn 0.7496 0.6618 -0.0000
vn 0.5301 0.6618 -0.5301
vn 0.7496 0.6619 -0.0000
vn 0.5301 0.6619 -0.5301
vn -0.5301 0.6618 -0.5301
vn -0.7496 0.6618 -0.0000
vn -0.7496 0.6619 -0.0000
vn -0.5301 0.6619 -0.5301
vn -0.0000 0.6618 -0.7496
vn -0.0000 0.6619 -0.7496
vn -0.5301 0.6618 0.5301
vn -0.0000 0.6618 0.7496
vn -0.5301 0.6619 0.5301
vn -0.0000 0.6619 0.7496
vn -0.0000 1.0000 -0.0000
vn -0.0000 -1.0000 -0.0000
vn 0.5301 0.6618 0.5301
vn 0.5301 0.6619 0.5301
vn 0.6801 0.7101 0.1822
vn 0.8033 0.3738 0.4638
vn 0.8959 0.3738 0.2401
vn 0.8032 0.3738 0.4638
vn 0.6097 0.7101 0.3520
vn 0.4638 0.3738 -0.8033
vn 0.4978 0.7101 -0.4979
vn 0.6559 0.3738 -0.6559
vn 0.4978 0.7101 -0.4978
vn 0.4637 0.3738 -0.8033
vn 0.3520 0.7101 -0.6097
vn 0.1822 0.7101 0.6801
vn -0.0000 0.3738 0.9275
vn 0.2401 0.3738 0.8959
vn -0.0000 0.7101 0.7041
vn -0.6097 0.7101 0.3520
vn -0.6559 0.3737 0.6558
vn -0.4978 0.7101 0.4978
vn -0.6559 0.3738 0.6559
vn -0.8033 0.3738 0.4638
vn -0.3520 0.7101 0.6097
vn -0.2400 0.3738 0.8959
vn -0.1822 0.7101 0.6801
vn -0.2401 0.3738 0.8959
vn -0.4638 0.3738 0.8033
vn -0.0000 0.3738 -0.9275
vn 0.1822 0.7101 -0.6801
vn 0.2401 0.3738 -0.8959
vn -0.0000 0.7101 -0.7041
vn -0.8032 0.3738 -0.4638
vn -0.6801 0.7101 -0.1822
vn -0.6097 0.7101 -0.3520
vn -0.8033 0.3738 -0.4638
vn -0.8959 0.3738 -0.2401
vn -0.6558 0.3738 -0.6559
vn -0.4978 0.7101 -0.4978
vn -0.6559 0.3738 -0.6559
vn 0.3520 0.7101 0.6097
vn 0.4638 0.3738 0.8033
vn 0.2400 0.3738 0.8959
vn 0.6559 0.3738 0.6559
vn 0.6559 0.3737 0.6558
vn 0.4978 0.7101 0.4978
vn 0.4978 0.7101 0.4979
vn 0.4637 0.3738 0.8033
vn 0.7041 0.7101 -0.0000
vn 0.8959 0.3738 0.2400
vn 0.9275 0.3738 -0.0000
vn -0.4637 -0.3738 0.8033
vn -0.4979 -0.7101 0.4979
vn -0.3520 -0.7101 0.6097
vn -0.4978 -0.7101 0.4979
vn -0.4638 -0.3738 0.8033
vn -0.6559 -0.3738 0.6559
vn 0.2400 0.3737 0.8959
vn -0.0000 -0.3737 0.9275
vn 0.2400 -0.3737 0.8959
vn 0.2401 0.3737 0.8959
vn -0.0000 0.3737 0.9275
vn -0.6097 -0.7101 -0.3520
vn -0.6558 -0.3738 -0.6559
vn -0.4978 -0.7101 -0.4978
vn -0.6559 -0.3738 -0.6559
vn -0.8033 -0.3738 -0.4638
vn 0.8033 -0.3738 0.4638
vn 0.6801 -0.7101 0.1822
vn 0.8959 -0.3738 0.2401
vn 0.8032 -0.3738 0.4638
vn 0.6097 -0.7101 0.3520
vn 0.8959 0.3738 -0.2400
vn 0.8959 0.3738 -0.2401
vn 0.6801 0.7101 -0.1822
vn -0.6801 0.7101 0.1822
vn -0.8032 0.3738 0.4638
vn -0.8959 0.3738 0.2401
vn -0.2400 0.3738 -0.8959
vn -0.2401 0.3738 -0.8959
vn -0.1822 0.7101 -0.6801
vn 0.2401 0.3737 -0.8959
vn 0.4638 -0.3737 -0.8033
vn 0.2401 -0.3737 -0.8959
vn 0.4637 -0.3737 -0.8033
vn 0.4637 0.3737 -0.8033
vn -0.4979 0.7101 0.4979
vn -0.4637 0.3738 0.8033
vn -0.4978 0.7101 0.4979
vn 0.2400 0.3738 -0.8959
vn -0.6801 -0.7101 -0.1822
vn -0.8032 -0.3738 -0.4638
vn -0.8959 -0.3738 -0.2401
vn -0.9275 -0.3737 -0.0000
vn -0.8959 0.3737 -0.2400
vn -0.8959 -0.3737 -0.2400
vn -0.8959 0.3737 -0.2401
vn -0.9275 0.3737 -0.0000
vn 0.6097 0.7101 -0.3520
vn 0.8033 0.3738 -0.4638
vn 0.6558 0.3738 -0.6559
vn 0.4638 0.3737 -0.8032
vn 0.6559 -0.3737 -0.6559
vn 0.4638 -0.3737 -0.8032
vn 0.6558 -0.3737 -0.6559
vn 0.4638 0.3737 -0.8033
vn 0.6558 0.3737 -0.6559
vn -0.2400 -0.3738 0.8959
vn -0.1822 -0.7101 0.6801
vn -0.2401 -0.3738 0.8959
vn -0.4978 -0.7101 -0.4979
vn -0.4637 -0.3738 -0.8033
vn -0.3520 -0.7101 -0.6097
vn -0.4638 -0.3738 -0.8033
vn 0.6801 -0.7101 -0.1822
vn 0.8033 -0.3738 -0.4638
vn 0.8959 -0.3738 -0.2401
vn 0.8032 -0.3738 -0.4638
vn 0.6097 -0.7101 -0.3520
vn -0.7041 -0.7101 -0.0000
vn -0.8959 -0.3738 -0.2400
vn -0.9275 -0.3738 -0.0000
vn -0.8959 -0.3737 0.2401
vn -0.8959 -0.3737 0.2400
vn -0.8959 0.3737 0.2400
vn -0.2400 0.3737 -0.8959
vn -0.0000 -0.3737 -0.9275
vn -0.2400 -0.3737 -0.8959
vn -0.2401 0.3737 -0.8959
vn -0.0000 0.3737 -0.9275
vn 0.4638 -0.3738 0.8033
vn 0.4978 -0.7101 0.4979
vn 0.6559 -0.3738 0.6559
vn 0.4978 -0.7101 0.4978
vn 0.4637 -0.3738 0.8033
vn 0.3520 -0.7101 0.6097
vn -0.2400 -0.3738 -0.8959
vn -0.1822 -0.7101 -0.6801
vn -0.2401 -0.3738 -0.8959
vn -0.6559 -0.3737 0.6558
vn -0.6097 -0.7101 0.3520
vn -0.4978 -0.7101 0.4978
vn -0.8033 -0.3738 0.4638
vn 0.4978 -0.7101 -0.4979
vn 0.4638 -0.3738 -0.8033
vn 0.6559 -0.3738 -0.6559
vn 0.4637 -0.3738 -0.8033
vn 0.4978 -0.7101 -0.4978
vn 0.3520 -0.7101 -0.6097
vn 0.2400 -0.3737 -0.8959
vn 0.2400 0.3737 -0.8959
vn -0.8033 -0.3737 -0.4638
vn -0.6559 0.3737 -0.6558
vn -0.6559 -0.3737 -0.6558
vn -0.6559 0.3737 -0.6559
vn -0.8032 -0.3737 -0.4638
vn -0.8033 0.3737 -0.4638
vn -0.6559 -0.3737 0.6559
vn -0.8032 0.3737 0.4638
vn -0.8033 -0.3737 0.4638
vn -0.8033 0.3737 0.4638
vn -0.8959 -0.3738 0.2401
vn -0.6801 -0.7101 0.1822
vn -0.8959 -0.3738 0.2400
vn -0.3520 0.7101 -0.6097
vn -0.4638 0.3738 -0.8033
vn -0.2401 -0.3737 0.8959
vn -0.2400 -0.3737 0.8959
vn -0.2400 0.3737 0.8959
vn 0.8032 0.3738 -0.4638
vn -0.7041 0.7101 -0.0000
vn -0.8959 0.3738 0.2400
vn -0.9275 0.3738 -0.0000
vn 0.8033 0.3737 0.4638
vn 0.8959 -0.3737 0.2401
vn 0.8959 0.3737 0.2401
vn 0.8033 0.3737 0.4637
vn 0.8033 -0.3737 0.4637
vn 0.2401 -0.3738 -0.8959
vn 0.2400 -0.3738 -0.8959
vn 0.1822 -0.7101 -0.6801
vn -0.4638 0.3737 0.8032
vn -0.4638 -0.3737 0.8033
vn -0.6558 -0.3737 0.6559
vn -0.4638 0.3737 0.8033
vn -0.6558 0.3737 0.6559
vn 0.9275 0.3737 -0.0000
vn 0.8959 -0.3737 -0.2400
vn 0.8959 0.3737 -0.2400
vn 0.8959 -0.3737 -0.2401
vn 0.9275 -0.3737 -0.0000
vn -0.4637 0.3738 -0.8033
vn -0.4978 0.7101 -0.4979
vn 0.7041 -0.7101 -0.0000
vn 0.8959 -0.3738 -0.2400
vn 0.9275 -0.3738 -0.0000
vn 0.8959 0.3737 0.2400
vn 0.8959 -0.3737 0.2400
vn 0.6559 -0.3737 0.6558
vn 0.8959 0.3737 -0.2401
vn 0.8033 -0.3737 -0.4637
vn 0.8033 0.3737 -0.4637
vn 0.8033 -0.3737 -0.4638
vn -0.8959 0.3738 -0.2400
vn -0.4637 0.3737 -0.8033
vn -0.2401 -0.3737 -0.8959
vn -0.4637 -0.3737 -0.8033
vn -0.4638 0.3737 -0.8033
vn 0.8033 0.3737 -0.4638
vn 0.6559 -0.3737 -0.6558
vn 0.6559 0.3737 -0.6558
vn 0.8032 0.3737 -0.4638
vn 0.8032 -0.3737 -0.4638
vn 0.4637 0.3737 0.8033
vn 0.2401 -0.3737 0.8959
vn 0.4637 -0.3737 0.8033
vn 0.4638 0.3737 0.8033
vn -0.6558 0.3737 -0.6559
vn -0.4638 -0.3737 -0.8033
vn -0.6558 -0.3737 -0.6559
vn -0.4638 -0.3737 -0.8032
vn -0.4638 0.3737 -0.8032
vn -0.0000 -0.3738 0.9275
vn 0.1822 -0.7101 0.6801
vn 0.2401 -0.3738 0.8959
vn -0.0000 -0.7101 0.7041
vn -0.0000 -0.3738 -0.9275
vn -0.0000 -0.7101 -0.7041
vn 0.6558 -0.3738 -0.6559
vn -0.8959 0.3737 0.2401
vn -0.8033 -0.3737 0.4637
vn -0.8033 0.3737 0.4637
vn 0.2400 -0.3738 0.8959
vn -0.8032 -0.3738 0.4638
vn -0.2401 0.3737 0.8959
vn -0.4637 -0.3737 0.8033
vn -0.4637 0.3737 0.8033
vn 0.8959 -0.3738 0.2400
vn -0.8959 -0.3737 -0.2401
vn -0.8033 0.3737 -0.4637
vn -0.8033 -0.3737 -0.4637
vn 0.6558 0.3737 0.6559
vn 0.4638 -0.3737 0.8033
vn 0.6558 -0.3737 0.6559
vn 0.4638 -0.3737 0.8032
vn 0.6559 0.3737 0.6559
vn 0.8032 -0.3737 0.4638
vn 0.8033 -0.3737 0.4638
vn -0.0000 -0.6619 0.7496
vn 0.5301 -0.6618 0.5301
vn 0.5301 -0.6619 0.5301
vn -0.0000 -0.6618 0.7496
vn -0.0000 -0.6618 -0.7496
vn -0.5301 -0.6619 -0.5301
vn -0.0000 -0.6619 -0.7496
vn -0.5301 -0.6618 -0.5301
vn -0.7496 -0.6618 -0.0000
vn -0.7496 -0.6619 -0.0000
vn 0.5301 -0.6618 -0.5301
vn 0.7496 -0.6618 -0.0000
vn 0.7496 -0.6619 -0.0000
vn 0.5301 -0.6619 -0.5301
vn -0.5301 -0.6619 0.5301
vn -0.5301 -0.6618 0.5301
vn 0.4979 -0.7101 0.4979
vn -0.8032 0.3737 -0.4638
vn -0.6558 0.3738 0.6559
vn 0.4979 0.7101 0.4979
vn 0.6558 -0.3738 0.6559
vn 0.3827 -0.0000 0.9239
vn -0.0000 -0.0000 1.0000
vn 0.9239 -0.0000 0.3827
vn 0.9239 -0.0000 -0.3827
vn -0.0000 -0.0000 -1.0000
vn 0.3827 -0.0000 -0.9239
vn -0.0000 -0.9239 0.3827
vn -0.0000 0.9239 0.3827
vn -0.0000 -0.3827 0.9239
vn -0.0000 0.3827 0.9239
vn -0.3401 -0.8767 0.3401
vn 0.3401 -0.8767 0.3401
vn -0.0000 -0.8767 0.4810
vn -0.3945 -0.9043 0.1634
vn 0.3945 -0.9043 0.1634
vn -0.3945 -0.9043 0.1632
vn -0.7071 -0.0000 -0.7071
vn -0.9239 -0.0000 -0.3827
vn -0.3827 -0.0000 -0.9239
vn 0.7071 -0.0000 -0.7071
vn 0.7071 -0.0000 0.7071
vn 0.8827 -0.2952 0.3656
vn 0.6812 -0.2681 0.6812
vn -0.0000 -0.2681 0.9634
vn -0.0000 -0.2682 0.9634
vn -0.7071 -0.0000 0.7071
vn -0.6812 -0.2681 0.6812
vn -0.0000 -0.0001 1.0000
vn -0.8827 -0.2952 0.3656
vn -0.9239 -0.0000 0.3827
vn 0.6812 -0.2682 0.6812
vn -0.6812 -0.2682 0.6812
vn 0.3944 -0.9043 0.1634
vn -0.3944 -0.9043 0.1634
vn 0.3401 0.8767 0.3401
vn -0.3401 0.8767 0.3401
vn -0.0000 0.8767 0.4810
vn 0.3945 0.9043 0.1634
vn -0.3945 0.9043 0.1634
vn -0.6812 0.2681 0.6812
vn -0.0000 0.2681 0.9634
vn -0.8827 0.2952 0.3656
vn -0.0000 0.2682 0.9634
vn 0.6812 0.2681 0.6812
vn 0.8827 0.2952 0.3656
vn 0.7071 0.0001 0.7071
vn -0.6812 0.2682 0.6812
vn -0.3944 0.9043 0.1634
vn 0.6812 0.2682 0.6812
vn 0.3944 0.9043 0.1634
vn -1.0000 -0.0000 -0.0000
vn -0.0000 0.9507 0.3100
vn -0.0000 0.4112 0.9116
vn -0.0000 -0.4112 0.9116
vn -0.0000 -0.9507 0.3100
vn 1.0000 -0.0000 -0.0000
vn 0.3944 0.9043 0.1635
vn 0.7071 0.0002 -0.7071
vn -0.7071 -0.0002 -0.7071
vn -0.7071 0.0002 0.7071
vn 0.7071 -0.0002 0.7071
vn -0.7071 0.0002 -0.7071
vn -0.7071 -0.0002 0.7071
vn 0.7071 -0.0002 -0.7071
vn 0.7071 0.0002 0.7071
vn 0.9239 0.0002 -0.3827
vn -0.0000 -0.7071 -0.7071
vn -0.0002 0.7071 -0.7071
vn -0.0000 0.7071 -0.7071
vn 0.0002 -0.7071 -0.7071
vn -0.0000 0.7071 0.7071
vn -0.0000 -0.7071 0.7071
vn -0.0002 -0.7071 0.7071
vn 0.0002 0.7071 0.7071
vn -0.0002 0.7071 0.7071
vn 0.0002 0.7071 -0.7071
vn -0.0002 -0.7071 -0.7071
vn 0.0002 -0.7071 0.7071
vn 0.5720 0.7828 -0.2452
vn -0.5720 0.7828 0.2452
vn 0.7381 0.5960 -0.3163
vn -0.7381 0.5960 0.3163
vn -0.5720 -0.7828 0.2452
vn 0.5720 -0.7828 -0.2452
vn 0.7381 -0.5960 -0.3163
vn -0.7381 -0.5960 0.3163
vn 0.5720 -0.7828 -0.2451
vn 0.5720 0.7828 -0.2451
vn -0.5720 0.7828 0.2451
vn -0.5720 -0.7828 0.2451
vn -0.7381 -0.5960 -0.3163
vn -0.5720 0.7828 -0.2451
vn -0.5720 -0.7828 -0.2451
vn -0.5720 0.7828 -0.2452
vn -0.7381 0.5960 -0.3163
vn 0.5720 0.7828 0.2452
vn 0.7381 0.5960 0.3163
vn 0.5720 -0.7828 0.2452
vn -0.5720 -0.7828 -0.2452
vn 0.7381 -0.5960 0.3163
vn 0.5720 -0.7828 0.2451
vn 0.5720 0.7828 0.2451
vn 0.9384 -0.0000 0.3455
vt 0.343750 0.025000
vt 0.593750 0.025000
vt 0.343750 0.078265
vt 0.593750 0.078265
vt 0.343750 0.025000
vt 0.343750 0.109547
vt 0.343750 0.025000
vt 0.593750 0.025000
vt 0.343750 0.025000
vt 0.343750 0.078265
vt 0.593750 0.078265
vt 0.343750 0.109547
vt 0.343750 0.100328
vt 0.593750 0.100328
vt 0.343750 0.144568
vt 0.343750 0.025000
vt 0.593750 0.025000
vt 0.343750 0.025000
vt 0.593750 0.025000
vt 0.343750 0.025000
vt 0.343750 0.025000
vt 0.343750 0.025000
vt 0.343750 0.164670
vt 0.343750 0.025000
vt 0.343750 0.025000
vt 0.343750 0.175000
vt 0.343750 0.025000
vt 0.343750 0.025000
vt 0.343750 0.140434
vt 0.343750 0.025000
vt 0.343750 0.025000
vt 0.343750 0.136446
vt 0.343750 0.025000
vt 0.343750 0.135086
vt 0.343750 0.025000
vt 0.343750 0.025000
vt 0.343750 0.140434
vt 0.343750 0.025000
vt 0.343750 0.025000
vt 0.343750 0.025000
vt 0.343750 0.164670
vt 0.343750 0.025000
vt 0.343750 0.175000
vt 0.343750 0.076764
vt 0.343750 0.185330
vt 0.343750 0.125000
vt 0.343750 0.166421
vt 0.343750 0.198205
vt 0.343750 0.209566
vt 0.343750 0.218185
vt 0.343750 0.225000
vt 0.343750 0.214914
vt 0.343750 0.218185
vt 0.343750 0.213554
vt 0.343750 0.198205
vt 0.343750 0.209566
vt 0.343750 0.166421
vt 0.343750 0.125000
vt 0.343750 0.076764
vt 0.343750 0.185330
vt 0.343750 0.025000
vt 0.343750 0.175000
vt 0.343750 0.025000
vt 0.343750 0.164670
vt 0.343750 0.076764
vt 0.343750 0.185330
vt 0.343750 0.125000
vt 0.343750 0.025000
vt 0.343750 0.166421
vt 0.343750 0.025000
vt 0.343750 0.198205
vt 0.343750 0.209566
vt 0.343750 0.025000
vt 0.343750 0.140434
vt 0.343750 0.218185
vt 0.343750 0.025000
vt 0.343750 0.225000
vt 0.343750 0.214914
vt 0.343750 0.025000
vt 0.343750 0.135086
vt 0.343750 0.218185
vt 0.343750 0.213554
vt 0.343750 0.025000
vt 0.343750 0.136446
vt 0.343750 0.198205
vt 0.343750 0.209566
vt 0.343750 0.025000
vt 0.343750 0.140434
vt 0.343750 0.166421
vt 0.343750 0.025000
vt 0.343750 0.125000
vt 0.343750 0.025000
vt 0.343750 0.076764
vt 0.343750 0.185330
vt 0.343750 0.025000
vt 0.343750 0.164670
vt 0.343750 0.025000
vt 0.343750 0.175000
vt 0.343750 0.025000
vt 0.593750 0.025000
vt 0.343750 0.187941
vt 0.343750 0.200000
vt 0.343750 0.194957
vt 0.343750 0.139645
vt 0.343750 0.146777
vt 0.343750 0.131699
vt 0.343750 0.223296
vt 0.343750 0.225000
vt 0.343750 0.213554
vt 0.343750 0.203223
vt 0.343750 0.210355
vt 0.343750 0.194957
vt 0.343750 0.200000
vt 0.343750 0.223296
vt 0.343750 0.218301
vt 0.343750 0.126704
vt 0.343750 0.136446
vt 0.343750 0.125000
vt 0.343750 0.155043
vt 0.343750 0.150000
vt 0.343750 0.162059
vt 0.343750 0.146777
vt 0.343750 0.139645
vt 0.343750 0.218301
vt 0.343750 0.210355
vt 0.343750 0.203223
vt 0.343750 0.175000
vt 0.343750 0.203223
vt 0.343750 0.218301
vt 0.343750 0.210355
vt 0.343750 0.223296
vt 0.343750 0.225000
vt 0.343750 0.146777
vt 0.343750 0.139645
vt 0.343750 0.155043
vt 0.343750 0.150000
vt 0.343750 0.187941
vt 0.343750 0.200000
vt 0.343750 0.194957
vt 0.343750 0.162059
vt 0.343750 0.187941
vt 0.343750 0.126704
vt 0.343750 0.126704
vt 0.343750 0.131699
vt 0.343750 0.162059
vt 0.343750 0.175000
vt 0.343750 0.175000
vt 0.343750 0.150000
vt 0.343750 0.155043
vt 0.343750 0.139645
vt 0.343750 0.223296
vt 0.343750 0.131699
vt 0.343750 0.162059
vt 0.343750 0.150000
vt 0.343750 0.155043
vt 0.343750 0.187941
vt 0.343750 0.126704
vt 0.343750 0.125000
vt 0.343750 0.210355
vt 0.343750 0.203223
vt 0.343750 0.218301
vt 0.343750 0.194957
vt 0.343750 0.200000
vt 0.343750 0.146777
vt 0.343750 0.131699
vt 0.343750 0.136446
vt 0.343750 0.175000
vt 0.343750 0.213554
vt 0.343750 0.025000
vt 0.343750 0.025000
vt 0.593750 0.025000
vt 0.343750 0.025000
vt 0.343750 0.025000
vt 0.593750 0.025000
vt 0.343750 0.144568
vt 0.343750 0.109547
vt 0.343750 0.100328
vt 0.593750 0.100328
vt 0.343750 0.078265
vt 0.593750 0.078265
vt 0.343750 0.025000
vt 0.343750 0.175000
vt 0.343750 0.076764
vt 0.343750 0.185330
vt 0.343750 0.025000
vt 0.343750 0.164670
vt 0.343750 0.025000
vt 0.343750 0.125000
vt 0.343750 0.025000
vt 0.343750 0.166421
vt 0.343750 0.025000
vt 0.343750 0.140434
vt 0.343750 0.198205
vt 0.343750 0.209566
vt 0.343750 0.025000
vt 0.343750 0.136446
vt 0.343750 0.218185
vt 0.343750 0.213554
vt 0.343750 0.025000
vt 0.343750 0.135086
vt 0.343750 0.225000
vt 0.343750 0.214914
vt 0.343750 0.025000
vt 0.343750 0.136446
vt 0.343750 0.218185
vt 0.343750 0.213554
vt 0.343750 0.025000
vt 0.343750 0.140434
vt 0.343750 0.198205
vt 0.343750 0.209566
vt 0.343750 0.025000
vt 0.343750 0.166421
vt 0.343750 0.025000
vt 0.343750 0.125000
vt 0.343750 0.025000
vt 0.343750 0.164670
vt 0.343750 0.076764
vt 0.343750 0.185330
vt 0.343750 0.025000
vt 0.343750 0.175000
vt 0.343750 0.076764
vt 0.343750 0.185330
vt 0.343750 0.125000
vt 0.343750 0.025000
vt 0.343750 0.175000
vt 0.343750 0.166421
vt 0.343750 0.025000
vt 0.343750 0.198205
vt 0.343750 0.209566
vt 0.343750 0.109547
vt 0.343750 0.218185
vt 0.343750 0.225000
vt 0.343750 0.214914
vt 0.343750 0.218185
vt 0.343750 0.213554
vt 0.343750 0.198205
vt 0.343750 0.209566
vt 0.343750 0.025000
vt 0.343750 0.166421
vt 0.343750 0.125000
vt 0.343750 0.076764
vt 0.343750 0.185330
vt 0.343750 0.025000
vt 0.343750 0.175000
vt 0.343750 0.025000
vt 0.343750 0.164670
vt 0.343750 0.025000
vt 0.343750 0.025000
vt 0.343750 0.025000
vt 0.343750 0.140434
vt 0.343750 0.025000
vt 0.343750 0.025000
vt 0.343750 0.136446
vt 0.343750 0.025000
vt 0.343750 0.135086
vt 0.343750 0.025000
vt 0.343750 0.025000
vt 0.343750 0.140434
vt 0.343750 0.025000
vt 0.343750 0.025000
vt 0.343750 0.025000
vt 0.343750 0.164670
vt 0.343750 0.025000
vt 0.593750 0.025000
vt 0.343750 0.025000
vt 0.593750 0.025000
vt 0.343750 0.078265
vt 0.593750 0.078265
vt 0.343750 0.025000
vt 0.593750 0.025000
vt 0.343750 0.187941
vt 0.343750 0.200000
vt 0.343750 0.194957
vt 0.343750 0.139645
vt 0.343750 0.146777
vt 0.343750 0.131699
vt 0.343750 0.223296
vt 0.343750 0.225000
vt 0.343750 0.213554
vt 0.343750 0.203223
vt 0.343750 0.210355
vt 0.343750 0.194957
vt 0.343750 0.200000
vt 0.343750 0.223296
vt 0.343750 0.218301
vt 0.343750 0.126704
vt 0.343750 0.136446
vt 0.343750 0.125000
vt 0.343750 0.155043
vt 0.343750 0.150000
vt 0.343750 0.162059
vt 0.343750 0.146777
vt 0.343750 0.139645
vt 0.343750 0.218301
vt 0.343750 0.210355
vt 0.343750 0.203223
vt 0.343750 0.175000
vt 0.343750 0.203223
vt 0.343750 0.218301
vt 0.343750 0.210355
vt 0.343750 0.223296
vt 0.343750 0.225000
vt 0.343750 0.146777
vt 0.343750 0.139645
vt 0.343750 0.155043
vt 0.343750 0.150000
vt 0.343750 0.187941
vt 0.343750 0.200000
vt 0.343750 0.194957
vt 0.343750 0.162059
vt 0.343750 0.187941
vt 0.343750 0.126704
vt 0.343750 0.126704
vt 0.343750 0.131699
vt 0.343750 0.162059
vt 0.343750 0.175000
vt 0.343750 0.175000
vt 0.343750 0.150000
vt 0.343750 0.155043
vt 0.343750 0.139645
vt 0.343750 0.223296
vt 0.343750 0.131699
vt 0.343750 0.162059
vt 0.343750 0.150000
vt 0.343750 0.155043
vt 0.343750 0.187941
vt 0.343750 0.126704
vt 0.343750 0.125000
vt 0.343750 0.210355
vt 0.343750 0.203223
vt 0.343750 0.218301
vt 0.343750 0.194957
vt 0.343750 0.200000
vt 0.343750 0.146777
vt 0.343750 0.131699
vt 0.343750 0.175000
vt 0.343750 0.025000
vt 0.593750 0.025000
vt 0.343750 0.025000
vt 0.593750 0.025000
vt 0.343750 0.025000
vt 0.343750 0.025000
vt 0.343750 0.025000
vt 0.593750 0.025000
vt 0.343750 0.078265
vt 0.593750 0.078265
vt 0.343750 0.025000
vt 0.343750 0.109547
vt 0.343750 0.025000
vt 0.343750 0.025000
vt 0.343750 0.025000
vt 0.593750 0.025000
vt 0.343750 0.025000
vt 0.593750 0.025000
vt 0.343750 0.025000
vt 0.343750 0.164670
vt 0.343750 0.025000
vt 0.343750 0.025000
vt 0.343750 0.175000
vt 0.343750 0.025000
vt 0.343750 0.025000
vt 0.343750 0.140434
vt 0.343750 0.025000
vt 0.343750 0.025000
vt 0.343750 0.135086
vt 0.343750 0.025000
vt 0.343750 0.136446
vt 0.343750 0.025000
vt 0.343750 0.140434
vt 0.343750 0.025000
vt 0.343750 0.025000
vt 0.343750 0.025000
vt 0.343750 0.164670
vt 0.343750 0.025000
vt 0.343750 0.175000
vt 0.343750 0.076764
vt 0.343750 0.185330
vt 0.343750 0.125000
vt 0.343750 0.166421
vt 0.343750 0.198205
vt 0.343750 0.209566
vt 0.343750 0.109547
vt 0.343750 0.218185
vt 0.343750 0.213554
vt 0.343750 0.144568
vt 0.343750 0.225000
vt 0.343750 0.214914
vt 0.343750 0.218185
vt 0.343750 0.198205
vt 0.343750 0.209566
vt 0.343750 0.166421
vt 0.343750 0.125000
vt 0.343750 0.076764
vt 0.343750 0.185330
vt 0.343750 0.078265
vt 0.593750 0.078265
vt 0.343750 0.100328
vt 0.593750 0.100328
vt 0.343750 0.025000
vt 0.343750 0.175000
vt 0.343750 0.025000
vt 0.343750 0.164670
vt 0.343750 0.076764
vt 0.343750 0.185330
vt 0.343750 0.125000
vt 0.343750 0.025000
vt 0.343750 0.166421
vt 0.343750 0.025000
vt 0.343750 0.198205
vt 0.343750 0.209566
vt 0.343750 0.025000
vt 0.343750 0.140434
vt 0.343750 0.218185
vt 0.343750 0.213554
vt 0.343750 0.025000
vt 0.343750 0.136446
vt 0.343750 0.225000
vt 0.343750 0.214914
vt 0.343750 0.025000
vt 0.343750 0.135086
vt 0.343750 0.218185
vt 0.343750 0.025000
vt 0.343750 0.198205
vt 0.343750 0.209566
vt 0.343750 0.025000
vt 0.343750 0.140434
vt 0.343750 0.166421
vt 0.343750 0.025000
vt 0.343750 0.125000
vt 0.343750 0.025000
vt 0.343750 0.076764
vt 0.343750 0.185330
vt 0.343750 0.025000
vt 0.343750 0.164670
vt 0.343750 0.025000
vt 0.343750 0.175000
vt 0.343750 0.187941
vt 0.343750 0.200000
vt 0.343750 0.194957
vt 0.343750 0.139645
vt 0.343750 0.146777
vt 0.343750 0.131699
vt 0.343750 0.223296
vt 0.343750 0.225000
vt 0.343750 0.203223
vt 0.343750 0.210355
vt 0.343750 0.194957
vt 0.343750 0.200000
vt 0.343750 0.213554
vt 0.343750 0.223296
vt 0.343750 0.218301
vt 0.343750 0.126704
vt 0.343750 0.125000
vt 0.343750 0.155043
vt 0.343750 0.150000
vt 0.343750 0.162059
vt 0.343750 0.146777
vt 0.343750 0.139645
vt 0.343750 0.218301
vt 0.343750 0.210355
vt 0.343750 0.203223
vt 0.343750 0.175000
vt 0.343750 0.203223
vt 0.343750 0.218301
vt 0.343750 0.210355
vt 0.343750 0.223296
vt 0.343750 0.225000
vt 0.343750 0.146777
vt 0.343750 0.139645
vt 0.343750 0.155043
vt 0.343750 0.150000
vt 0.343750 0.187941
vt 0.343750 0.200000
vt 0.343750 0.194957
vt 0.343750 0.162059
vt 0.343750 0.187941
vt 0.343750 0.126704
vt 0.343750 0.136446
vt 0.343750 0.126704
vt 0.343750 0.131699
vt 0.343750 0.162059
vt 0.343750 0.175000
vt 0.343750 0.175000
vt 0.343750 0.150000
vt 0.343750 0.155043
vt 0.343750 0.139645
vt 0.343750 0.213554
vt 0.343750 0.223296
vt 0.343750 0.131699
vt 0.343750 0.162059
vt 0.343750 0.150000
vt 0.343750 0.155043
vt 0.343750 0.187941
vt 0.343750 0.126704
vt 0.343750 0.125000
vt 0.343750 0.210355
vt 0.343750 0.203223
vt 0.343750 0.218301
vt 0.343750 0.136446
vt 0.343750 0.194957
vt 0.343750 0.200000
vt 0.343750 0.146777
vt 0.343750 0.131699
vt 0.343750 0.175000
vt 0.343750 0.025000
vt 0.343750 0.025000
vt 0.593750 0.025000
vt 0.343750 0.025000
vt 0.343750 0.025000
vt 0.593750 0.025000
vt 0.343750 0.144568
vt 0.343750 0.109547
vt 0.343750 0.100328
vt 0.593750 0.100328
vt 0.343750 0.078265
vt 0.593750 0.078265
vt 0.343750 0.025000
vt 0.343750 0.175000
vt 0.343750 0.076764
vt 0.343750 0.185330
vt 0.343750 0.025000
vt 0.343750 0.164670
vt 0.343750 0.025000
vt 0.343750 0.125000
vt 0.343750 0.025000
vt 0.343750 0.166421
vt 0.343750 0.025000
vt 0.343750 0.140434
vt 0.343750 0.198205
vt 0.343750 0.209566
vt 0.343750 0.025000
vt 0.343750 0.218185
vt 0.343750 0.025000
vt 0.343750 0.135086
vt 0.343750 0.225000
vt 0.343750 0.214914
vt 0.343750 0.025000
vt 0.343750 0.136446
vt 0.343750 0.218185
vt 0.343750 0.213554
vt 0.343750 0.025000
vt 0.343750 0.140434
vt 0.343750 0.198205
vt 0.343750 0.209566
vt 0.343750 0.025000
vt 0.343750 0.166421
vt 0.343750 0.025000
vt 0.343750 0.125000
vt 0.343750 0.025000
vt 0.343750 0.164670
vt 0.343750 0.076764
vt 0.343750 0.185330
vt 0.343750 0.025000
vt 0.343750 0.175000
vt 0.343750 0.076764
vt 0.343750 0.185330
vt 0.343750 0.125000
vt 0.343750 0.025000
vt 0.343750 0.175000
vt 0.343750 0.166421
vt 0.343750 0.025000
vt 0.343750 0.198205
vt 0.343750 0.209566
vt 0.343750 0.109547
vt 0.343750 0.218185
vt 0.343750 0.213554
vt 0.343750 0.225000
vt 0.343750 0.214914
vt 0.343750 0.218185
vt 0.343750 0.198205
vt 0.343750 0.209566
vt 0.343750 0.025000
vt 0.343750 0.166421
vt 0.343750 0.125000
vt 0.343750 0.076764
vt 0.343750 0.185330
vt 0.343750 0.025000
vt 0.343750 0.175000
vt 0.343750 0.025000
vt 0.343750 0.164670
vt 0.343750 0.025000
vt 0.343750 0.025000
vt 0.343750 0.025000
vt 0.343750 0.140434
vt 0.343750 0.025000
vt 0.343750 0.025000
vt 0.343750 0.025000
vt 0.343750 0.135086
vt 0.343750 0.025000
vt 0.343750 0.136446
vt 0.343750 0.025000
vt 0.343750 0.140434
vt 0.343750 0.025000
vt 0.343750 0.025000
vt 0.343750 0.025000
vt 0.343750 0.164670
vt 0.343750 0.025000
vt 0.593750 0.025000
vt 0.343750 0.078265
vt 0.593750 0.078265
vt 0.343750 0.025000
vt 0.593750 0.025000
vt 0.343750 0.025000
vt 0.593750 0.025000
vt 0.343750 0.187941
vt 0.343750 0.200000
vt 0.343750 0.194957
vt 0.343750 0.139645
vt 0.343750 0.146777
vt 0.343750 0.131699
vt 0.343750 0.223296
vt 0.343750 0.225000
vt 0.343750 0.203223
vt 0.343750 0.210355
vt 0.343750 0.194957
vt 0.343750 0.200000
vt 0.343750 0.213554
vt 0.343750 0.223296
vt 0.343750 0.218301
vt 0.343750 0.126704
vt 0.343750 0.125000
vt 0.343750 0.155043
vt 0.343750 0.150000
vt 0.343750 0.162059
vt 0.343750 0.146777
vt 0.343750 0.139645
vt 0.343750 0.218301
vt 0.343750 0.210355
vt 0.343750 0.203223
vt 0.343750 0.175000
vt 0.343750 0.203223
vt 0.343750 0.218301
vt 0.343750 0.210355
vt 0.343750 0.223296
vt 0.343750 0.225000
vt 0.343750 0.146777
vt 0.343750 0.139645
vt 0.343750 0.155043
vt 0.343750 0.150000
vt 0.343750 0.187941
vt 0.343750 0.200000
vt 0.343750 0.194957
vt 0.343750 0.162059
vt 0.343750 0.187941
vt 0.343750 0.126704
vt 0.343750 0.136446
vt 0.343750 0.126704
vt 0.343750 0.131699
vt 0.343750 0.162059
vt 0.343750 0.175000
vt 0.343750 0.175000
vt 0.343750 0.150000
vt 0.343750 0.155043
vt 0.343750 0.139645
vt 0.343750 0.213554
vt 0.343750 0.223296
vt 0.343750 0.131699
vt 0.343750 0.162059
vt 0.343750 0.150000
vt 0.343750 0.155043
vt 0.343750 0.187941
vt 0.343750 0.126704
vt 0.343750 0.125000
vt 0.343750 0.210355
vt 0.343750 0.203223
vt 0.343750 0.218301
vt 0.343750 0.136446
vt 0.343750 0.194957
vt 0.343750 0.200000
vt 0.343750 0.146777
vt 0.343750 0.131699
vt 0.343750 0.175000
vt 0.968750 0.408333
vt 0.968750 0.341667
vt 0.968750 0.475000
vt 0.968750 0.275000
vt 0.968750 0.475000
vt 0.593750 0.225000
vt 0.968750 0.275000
vt 0.593750 0.025000
vt 0.968750 0.475000
vt 0.968750 0.475000
vt 0.593750 0.225000
vt 0.968750 0.341667
vt 0.968750 0.408333
vt 0.968750 0.275000
vt 0.593750 0.025000
vt 0.968750 0.275000
vt 0.968750 0.448333
vt 0.968750 0.301667
vt 0.968750 0.448333
vt 0.968750 0.275000
vt 0.968750 0.275000
vt 0.968750 0.275000
vt 0.968750 0.275000
vt 0.968750 0.301667
vt 0.968750 0.448333
vt 0.968750 0.448333
vt 0.968750 0.475000
vt 0.968750 0.475000
vt 0.968750 0.475000
vt 0.968750 0.475000
vt 0.968750 0.275000
vt 0.968750 0.275000
vt 0.968750 0.275000
vt 0.968750 0.275000
vt 0.968750 0.275000
vt 0.968750 0.275000
vt 0.968750 0.275000
vt 0.968750 0.275000
vt 0.968750 0.275000
vt 0.968750 0.275000
vt 0.968750 0.475000
vt 0.968750 0.475000
vt 0.968750 0.475000
vt 0.968750 0.475000
vt 0.968750 0.475000
vt 0.968750 0.475000
vt 0.968750 0.475000
vt 0.968750 0.475000
vt 0.968750 0.475000
vt 0.968750 0.475000
vt 0.968750 0.395000
vt 0.968750 0.395000
vt 0.968750 0.395000
vt 0.968750 0.395000
vt 0.968750 0.395000
vt 0.968750 0.275000
vt 0.968750 0.275000
vt 0.968750 0.275000
vt 0.968750 0.275000
vt 0.968750 0.275000
vt 0.968750 0.275000
vt 0.968750 0.275000
vt 0.968750 0.275000
vt 0.968750 0.275000
vt 0.968750 0.275000
vt 0.968750 0.475000
vt 0.968750 0.475000
vt 0.968750 0.475000
vt 0.968750 0.475000
vt 0.968750 0.475000
vt 0.968750 0.475000
vt 0.968750 0.475000
vt 0.968750 0.475000
vt 0.968750 0.475000
vt 0.968750 0.475000
vt 0.968750 0.395000
vt 0.968750 0.395000
vt 0.968750 0.395000
vt 0.968750 0.395000
vt 0.968750 0.395000
vt 0.968750 0.275000
vt 0.968750 0.275000
vt 0.968750 0.275000
vt 0.968750 0.275000
vt 0.968750 0.275000
vt 0.968750 0.275000
vt 0.968750 0.275000
vt 0.968750 0.275000
vt 0.968750 0.275000
vt 0.968750 0.275000
vt 0.968750 0.475000
vt 0.968750 0.475000
vt 0.968750 0.475000
vt 0.968750 0.475000
vt 0.968750 0.475000
vt 0.968750 0.475000
vt 0.968750 0.475000
vt 0.968750 0.475000
vt 0.968750 0.475000
vt 0.968750 0.475000
vt 0.968750 0.395000
vt 0.968750 0.395000
vt 0.968750 0.395000
vt 0.968750 0.395000
vt 0.968750 0.395000
vt 0.968750 0.341667
vt 0.968750 0.408333
vt 0.968750 0.275000
vt 0.968750 0.475000
vt 0.968750 0.275000
vt 0.593750 0.025000
vt 0.968750 0.475000
vt 0.593750 0.225000
vt 0.968750 0.475000
vt 0.968750 0.475000
vt 0.593750 0.225000
vt 0.968750 0.341667
vt 0.968750 0.408333
vt 0.968750 0.275000
vt 0.593750 0.025000
vt 0.968750 0.275000
vt 0.968750 0.475000
vt 0.968750 0.475000
vt 0.968750 0.475000
vt 0.968750 0.475000
vt 0.968750 0.301667
vt 0.968750 0.301667
vt 0.968750 0.448333
vt 0.968750 0.448333
vt 0.968750 0.448333
vt 0.968750 0.448333
vt 0.968750 0.275000
vt 0.968750 0.275000
vt 0.968750 0.275000
vt 0.968750 0.275000
vt 0.968750 0.459000
vt 0.968750 0.459000
vt 0.968750 0.475000
vt 0.968750 0.475000
vt 0.968750 0.475000
vt 0.343750 0.225000
vt 0.968750 0.459000
vt 0.343750 0.209000
vt 0.968750 0.395000
vt 0.343750 0.145000
vt 0.968750 0.475000
vt 0.343750 0.225000
vt 0.968750 0.459000
vt 0.343750 0.209000
vt 0.968750 0.395000
vt 0.343750 0.145000
vt 0.968750 0.395000
vt 0.343750 0.145000
vt 0.843750 0.325000
vt 0.968750 0.395000
vt 0.343750 0.145000
vt 0.843750 0.325000
vt 0.968750 0.275000
vt 0.968750 0.275000
vt 0.968750 0.275000
vt 0.968750 0.275000
vt 0.968750 0.275000
vt 0.968750 0.275000
vt 0.968750 0.275000
vt 0.968750 0.275000
vt 0.968750 0.275000
vt 0.968750 0.275000
vt 0.968750 0.475000
vt 0.968750 0.475000
vt 0.968750 0.475000
vt 0.968750 0.475000
vt 0.968750 0.475000
vt 0.968750 0.475000
vt 0.968750 0.475000
vt 0.968750 0.475000
vt 0.968750 0.475000
vt 0.968750 0.475000
vt 0.968750 0.395000
vt 0.968750 0.395000
vt 0.968750 0.395000
vt 0.968750 0.395000
vt 0.968750 0.395000
vt 0.218750 0.225000
vt 0.218750 0.225000
vt 0.218750 0.225000
vt 0.218750 0.225000
vt 0.218750 0.025000
vt 0.218750 0.025000
vt 0.218750 0.145000
vt 0.218750 0.025000
vt 0.218750 0.025000
vt 0.218750 0.145000
vt 0.218750 0.025000
vt 0.218750 0.025000
vt 0.218750 0.025000
vt 0.218750 0.025000
vt 0.218750 0.225000
vt 0.218750 0.225000
vt 0.218750 0.225000
vt 0.218750 0.225000
vt 0.218750 0.198333
vt 0.218750 0.225000
vt 0.218750 0.198333
vt 0.218750 0.225000
vt 0.218750 0.225000
vt 0.218750 0.225000
vt 0.218750 0.051667
vt 0.218750 0.025000
vt 0.218750 0.051667
vt 0.218750 0.025000
vt 0.218750 0.051667
vt 0.218750 0.198333
vt 0.218750 0.025000
vt 0.218750 0.051667
vt 0.218750 0.025000
vt 0.218750 0.198333
vt 0.218750 0.025000
vt 0.218750 0.025000
vt 0.218750 0.025000
vt 0.218750 0.025000
vt 0.218750 0.225000
vt 0.218750 0.225000
vt 0.218750 0.225000
vt 0.218750 0.225000
vt 0.218750 0.025000
vt 0.218750 0.025000
vt 0.218750 0.025000
vt 0.218750 0.025000
vt 0.218750 0.225000
vt 0.218750 0.225000
vt 0.218750 0.225000
vt 0.218750 0.225000
vt 0.218750 0.025000
vt 0.218750 0.025000
vt 0.218750 0.225000
vt 0.218750 0.225000
vt 0.218750 0.025000
vt 0.218750 0.225000
vt 0.218750 0.025000
vt 0.218750 0.225000
vt 0.218750 0.225000
vt 0.218750 0.225000
vt 0.218750 0.025000
vt 0.218750 0.025000
vt 0.218750 0.225000
vt 0.218750 0.025000
vt 0.218750 0.225000
vt 0.218750 0.025000
vt 0.218750 0.225000
vt 0.218750 0.225000
vt 0.218750 0.225000
vt 0.218750 0.225000
vt 0.218750 0.025000
vt 0.218750 0.025000
vt 0.218750 0.025000
vt 0.218750 0.025000
vt 0.218750 0.025000
vt 0.218750 0.025000
vt 0.218750 0.025000
vt 0.218750 0.025000
vt 0.218750 0.225000
vt 0.218750 0.225000
vt 0.218750 0.225000
vt 0.218750 0.225000
vt 0.343750 0.194970
vt 0.343750 0.194970
vt 0.843750 0.425000
vt 0.843750 0.425000
s 0
f 3/5/1 2/3/2 1/1/1
f 2/3/2 3/5/3 4/6/4
f 7/10/5 6/9/6 5/7/7
f 6/9/7 7/10/5 8/12/8
f 10/15/9 7/10/5 9/13/10
f 7/10/5 10/15/10 8/12/8
f 13/20/11 12/18/12 11/16/13
f 12/18/12 13/20/13 14/21/14
f 17/25/15 16/24/15 15/22/15
f 17/25/15 18/27/15 16/24/15
f 3/5/15 18/27/15 17/25/15
f 3/5/15 19/28/15 18/27/15
f 20/30/15 19/28/15 3/5/15
f 20/30/15 21/31/15 19/28/15
f 20/30/15 22/33/15 21/31/15
f 22/33/15 20/30/15 14/21/15
f 14/21/15 23/35/15 22/33/15
f 13/20/15 23/35/15 14/21/15
f 13/20/15 24/36/15 23/35/15
f 6/9/15 24/36/15 13/20/15
f 6/9/15 25/38/15 24/36/15
f 6/9/15 26/39/15 25/38/15
f 6/9/15 27/40/15 26/39/15
f 27/40/15 6/9/15 28/42/15
f 6/9/15 29/44/15 28/42/15
f 29/44/15 6/9/15 30/46/15
f 30/46/15 6/9/15 31/47/15
f 31/47/15 6/9/15 32/48/15
f 32/48/15 6/9/15 8/12/15
f 32/48/15 8/12/15 33/50/15
f 33/50/15 8/12/15 10/15/15
f 33/50/15 10/15/15 34/51/15
f 4/6/15 34/51/15 10/15/15
f 34/51/15 4/6/15 35/53/15
f 35/53/15 4/6/15 36/55/15
f 36/55/15 4/6/15 3/5/15
f 36/55/15 3/5/15 37/57/15
f 37/57/15 3/5/15 17/25/15
f 37/57/15 17/25/15 38/58/15
f 38/58/15 17/25/15 39/59/15
f 11/16/11 6/9/7 13/20/13
f 6/9/6 11/16/11 5/7/7
f 42/65/16 41/63/16 40/61/16
f 41/63/16 42/65/16 43/67/16
f 41/63/16 43/67/16 44/68/16
f 44/68/16 43/67/16 45/69/16
f 44/68/16 45/69/16 46/70/16
f 46/70/16 45/69/16 47/71/16
f 46/70/16 47/71/16 48/73/16
f 48/73/16 47/71/16 49/75/16
f 48/73/16 49/75/16 50/76/16
f 50/76/16 49/75/16 51/77/16
f 50/76/16 51/77/16 52/79/16
f 52/79/16 51/77/16 53/81/16
f 52/79/16 53/81/16 54/83/16
f 54/83/16 53/81/16 55/85/16
f 54/83/16 55/85/16 56/87/16
f 56/87/16 55/85/16 57/89/16
f 56/87/16 57/89/16 58/90/16
f 58/90/16 57/89/16 59/91/16
f 58/90/16 59/91/16 60/92/16
f 60/92/16 59/91/16 61/93/16
f 60/92/16 61/93/16 62/95/16
f 62/95/16 61/93/16 63/97/16
f 4/6/2 9/13/9 2/3/4
f 9/13/9 4/6/4 10/15/10
f 14/21/12 64/99/17 12/18/14
f 64/99/17 14/21/14 20/30/18
f 3/5/3 64/99/17 20/30/18
f 64/99/17 3/5/1 1/1/1
f 29/45/19 66/102/20 65/101/21
f 66/102/22 29/45/19 67/103/23
f 70/106/24 69/105/25 68/104/26
f 69/105/27 70/106/28 24/37/29
f 73/109/30 72/108/31 71/107/32
f 72/108/31 73/109/30 34/52/33
f 76/112/34 75/111/35 74/110/36
f 75/111/37 76/112/34 77/113/38
f 36/56/39 78/114/40 35/54/41
f 78/114/42 36/56/39 79/115/43
f 82/118/44 81/117/45 80/116/46
f 81/117/45 82/118/44 22/34/47
f 84/120/48 15/23/49 83/119/50
f 15/23/49 84/120/51 85/121/52
f 87/123/53 83/119/50 86/122/54
f 83/119/50 87/123/55 84/120/51
f 32/49/56 71/107/32 88/124/57
f 71/107/58 32/49/56 73/109/30
f 67/103/23 89/125/59 66/102/20
f 89/125/60 67/103/23 90/126/61
f 90/126/62 88/124/57 89/125/59
f 88/124/63 90/126/61 32/49/56
f 28/43/64 65/101/65 91/127/66
f 65/101/21 28/43/64 29/45/19
f 93/129/67 92/128/68 55/86/69
f 92/128/70 93/129/71 94/130/72
f 71/107/73 96/132/74 95/131/75
f 96/132/74 71/107/76 72/108/77
f 99/135/78 98/134/79 97/133/80
f 98/134/81 99/135/78 100/136/82
f 102/138/83 42/66/84 101/137/85
f 42/66/84 102/138/86 103/139/87
f 104/140/88 28/43/64 91/127/66
f 28/43/64 104/140/89 27/41/90
f 39/60/91 77/113/92 76/112/34
f 77/113/38 39/60/91 105/141/93
f 106/142/94 22/34/47 82/118/44
f 22/34/47 106/142/95 21/32/96
f 80/116/97 108/144/98 107/143/99
f 108/144/100 80/116/97 70/106/101
f 74/110/102 79/115/103 36/56/39
f 79/115/43 74/110/104 75/111/37
f 80/116/46 24/37/29 70/106/24
f 24/37/29 80/116/105 81/117/45
f 62/96/106 100/136/107 99/135/78
f 100/136/82 62/96/106 109/145/108
f 110/146/109 85/121/110 109/145/111
f 85/121/112 110/146/109 111/147/113
f 68/104/26 113/149/114 112/148/115
f 113/149/114 68/104/116 69/105/27
f 70/106/117 114/150/118 108/144/119
f 114/150/120 70/106/121 68/104/122
f 115/151/123 55/86/69 53/82/124
f 55/86/69 115/151/125 93/129/71
f 97/133/126 116/152/127 56/88/128
f 116/152/129 97/133/126 98/134/81
f 41/64/130 118/154/131 117/153/132
f 118/154/133 41/64/130 119/155/134
f 63/98/135 109/145/108 62/96/106
f 109/145/136 63/98/135 110/146/137
f 120/156/138 111/147/113 110/146/109
f 111/147/113 120/156/139 105/141/140
f 106/142/141 122/158/142 121/157/143
f 122/158/142 106/142/144 82/118/145
f 125/161/146 124/160/147 123/159/148
f 124/160/149 125/161/150 47/72/151
f 56/88/128 121/157/152 54/84/153
f 121/157/154 56/88/128 116/152/129
f 94/130/155 126/162/156 92/128/157
f 126/162/156 94/130/72 127/163/158
f 128/164/159 108/144/160 114/150/161
f 108/144/162 128/164/163 48/74/164
f 82/118/145 107/143/99 122/158/142
f 107/143/165 82/118/145 80/116/166
f 100/136/167 87/123/168 98/134/169
f 87/123/170 100/136/171 84/120/172
f 94/130/173 77/113/174 127/163/175
f 77/113/176 94/130/155 75/111/35
f 120/156/177 63/98/135 61/94/178
f 63/98/135 120/156/179 110/146/137
f 106/142/94 19/29/180 21/32/96
f 19/29/180 106/142/95 129/165/181
f 72/108/77 115/151/182 96/132/74
f 115/151/183 72/108/77 78/114/184
f 35/54/41 72/108/31 34/52/33
f 72/108/31 35/54/41 78/114/42
f 112/148/115 27/41/90 104/140/89
f 27/41/90 112/148/185 113/149/114
f 17/26/186 105/141/93 39/60/91
f 105/141/187 17/26/186 111/147/188
f 66/102/189 101/137/190 65/101/191
f 101/137/190 66/102/192 102/138/193
f 48/74/164 107/143/194 108/144/160
f 107/143/195 48/74/164 130/166/196
f 79/115/197 94/130/173 93/129/198
f 94/130/199 79/115/200 75/111/201
f 91/127/202 117/153/203 104/140/204
f 117/153/205 91/127/202 131/167/206
f 129/165/207 86/122/208 19/29/180
f 86/122/208 129/165/181 87/123/55
f 40/62/209 117/153/210 131/167/211
f 117/153/132 40/62/209 41/64/130
f 65/101/191 131/167/206 91/127/202
f 131/167/206 65/101/212 101/137/213
f 123/159/148 103/139/87 102/138/83
f 103/139/87 123/159/214 124/160/149
f 104/140/215 118/154/216 112/148/217
f 118/154/218 104/140/215 117/153/205
f 85/121/52 17/26/186 15/23/49
f 17/26/186 85/121/219 111/147/188
f 129/165/220 121/157/221 116/152/222
f 121/157/221 129/165/223 106/142/144
f 112/148/224 114/150/225 68/104/226
f 114/150/118 112/148/227 118/154/228
f 88/124/229 95/131/230 125/161/231
f 95/131/230 88/124/232 71/107/76
f 87/123/233 116/152/234 98/134/235
f 116/152/236 87/123/170 129/165/237
f 96/132/238 132/168/239 95/131/240
f 132/168/239 96/132/238 51/78/241
f 130/166/196 122/158/242 107/143/194
f 122/158/242 130/166/196 52/80/243
f 119/155/134 114/150/161 118/154/131
f 114/150/244 119/155/134 128/164/163
f 127/163/175 105/141/245 120/156/138
f 105/141/245 127/163/246 77/113/247
f 95/131/240 47/72/151 125/161/146
f 47/72/151 95/131/248 132/168/239
f 127/163/249 61/94/178 126/162/156
f 61/94/178 127/163/158 120/156/177
f 78/114/250 93/129/198 115/151/182
f 93/129/251 78/114/250 79/115/252
f 54/84/153 122/158/242 52/80/243
f 122/158/242 54/84/153 121/157/154
f 101/137/253 40/62/209 131/167/211
f 40/62/209 101/137/85 42/66/84
f 109/145/254 84/120/255 100/136/256
f 84/120/172 109/145/254 85/121/112
f 89/125/257 125/161/258 123/159/259
f 125/161/260 89/125/261 88/124/232
f 115/151/123 51/78/241 96/132/238
f 51/78/241 115/151/125 53/82/124
f 89/125/261 102/138/262 66/102/189
f 102/138/263 89/125/60 123/159/214
f 11/17/15 7/11/15 5/8/15
f 7/11/15 11/17/15 12/19/15
f 7/11/15 12/19/15 9/14/15
f 9/14/15 12/19/15 64/100/15
f 9/14/15 64/100/15 2/4/15
f 2/4/15 64/100/15 1/2/15
f 135/172/264 134/170/265 133/169/266
f 134/170/265 135/172/267 136/173/264
f 139/177/268 138/176/269 137/175/270
f 138/176/271 139/177/268 140/179/269
f 143/185/15 142/183/15 141/181/15
f 142/183/15 143/185/15 144/187/15
f 142/183/15 144/187/15 145/188/15
f 145/188/15 144/187/15 146/189/15
f 145/188/15 146/189/15 147/190/15
f 147/190/15 146/189/15 148/191/15
f 147/190/15 148/191/15 149/193/15
f 149/193/15 148/191/15 150/195/15
f 149/193/15 150/195/15 151/197/15
f 151/197/15 150/195/15 152/199/15
f 151/197/15 152/199/15 153/201/15
f 153/201/15 152/199/15 154/203/15
f 153/201/15 154/203/15 155/205/15
f 155/205/15 154/203/15 156/207/15
f 155/205/15 156/207/15 157/209/15
f 157/209/15 156/207/15 158/211/15
f 157/209/15 158/211/15 159/212/15
f 159/212/15 158/211/15 160/213/15
f 159/212/15 160/213/15 161/214/15
f 161/214/15 160/213/15 162/215/15
f 161/214/15 162/215/15 163/217/15
f 163/217/15 162/215/15 164/219/15
f 167/224/16 166/223/16 165/221/16
f 167/224/16 168/226/16 166/223/16
f 169/227/16 168/226/16 167/224/16
f 169/227/16 170/228/16 168/226/16
f 171/230/16 170/228/16 169/227/16
f 171/230/16 172/231/16 170/228/16
f 137/175/16 172/231/16 171/230/16
f 172/231/16 137/175/16 173/232/16
f 137/175/16 174/234/16 173/232/16
f 138/176/16 174/234/16 137/175/16
f 138/176/16 175/236/16 174/234/16
f 176/238/16 175/236/16 138/176/16
f 176/238/16 177/239/16 175/236/16
f 176/238/16 178/240/16 177/239/16
f 176/238/16 179/241/16 178/240/16
f 179/241/16 176/238/16 180/243/16
f 176/238/16 181/245/16 180/243/16
f 181/245/16 176/238/16 182/247/16
f 182/247/16 176/238/16 183/248/16
f 183/248/16 176/238/16 184/249/16
f 184/249/16 176/238/16 185/251/16
f 184/249/16 185/251/16 186/252/16
f 186/252/16 185/251/16 135/172/16
f 186/252/16 135/172/16 187/254/16
f 135/172/16 188/256/16 187/254/16
f 188/256/16 135/172/16 133/169/16
f 188/256/16 133/169/16 189/257/16
f 189/257/16 133/169/16 169/227/16
f 189/257/16 169/227/16 190/259/16
f 190/259/16 169/227/16 167/224/16
f 190/259/16 167/224/16 191/260/16
f 191/260/16 167/224/16 192/261/16
f 176/238/272 140/179/271 193/263/272
f 140/179/271 176/238/273 138/176/269
f 195/267/274 169/227/275 194/265/276
f 169/227/276 195/267/274 171/230/277
f 185/251/278 136/173/267 135/172/264
f 136/173/267 185/251/279 196/269/278
f 134/170/265 169/227/276 133/169/266
f 169/227/275 134/170/265 194/265/276
f 195/267/274 137/175/270 171/230/277
f 137/175/268 195/267/274 139/177/270
f 176/238/273 196/269/279 185/251/278
f 196/269/279 176/238/272 193/263/272
f 165/222/178 198/272/158 197/271/177
f 198/272/249 165/222/178 199/273/156
f 202/276/129 201/275/126 200/274/81
f 201/275/80 202/276/127 189/258/128
f 205/279/124 204/278/238 203/277/125
f 204/278/238 205/279/124 173/233/241
f 208/282/87 207/281/214 206/280/149
f 207/281/148 208/282/87 209/283/83
f 175/237/151 210/284/248 174/235/239
f 210/284/240 175/237/151 211/285/146
f 214/288/242 213/287/153 212/286/154
f 213/287/153 214/288/242 187/255/243
f 216/290/133 181/246/130 215/289/134
f 181/246/130 216/290/131 217/291/132
f 219/293/244 215/289/134 218/292/163
f 215/289/134 219/293/161 216/290/131
f 170/229/69 203/277/125 220/294/71
f 203/277/123 170/229/69 205/279/124
f 199/273/156 221/295/72 198/272/158
f 221/295/155 199/273/156 222/296/157
f 222/296/70 220/294/71 221/295/72
f 220/294/67 222/296/157 170/229/69
f 167/225/135 197/271/179 223/297/137
f 197/271/177 167/225/135 165/222/178
f 225/299/63 224/298/62 149/194/56
f 224/298/62 225/299/57 226/300/59
f 203/277/183 228/302/77 227/301/184
f 228/302/77 203/277/182 204/278/74
f 231/305/114 230/304/116 229/303/27
f 230/304/26 231/305/114 232/306/115
f 234/308/38 163/218/91 233/307/93
f 163/218/91 234/308/92 235/309/34
f 236/310/136 167/225/135 223/297/137
f 167/225/135 236/310/108 192/262/106
f 179/242/84 209/283/86 208/282/87
f 209/283/83 179/242/84 237/311/85
f 238/312/195 187/255/243 214/288/242
f 187/255/243 238/312/194 186/253/196
f 212/286/221 240/314/223 239/313/144
f 240/314/220 212/286/221 202/276/222
f 206/280/280 211/285/150 175/237/151
f 211/285/146 206/280/147 207/281/148
f 212/286/154 189/258/128 202/276/129
f 189/258/128 212/286/152 213/287/153
f 143/186/90 232/306/185 231/305/114
f 232/306/115 143/186/90 241/315/89
f 242/316/202 217/291/203 241/315/204
f 217/291/205 242/316/202 243/317/206
f 200/274/81 245/319/78 244/318/82
f 245/319/78 200/274/79 201/275/80
f 202/276/236 246/320/170 240/314/237
f 246/320/233 202/276/234 200/274/235
f 247/321/58 149/194/56 151/198/30
f 149/194/56 247/321/32 225/299/57
f 229/303/25 248/322/28 148/192/29
f 248/322/24 229/303/25 230/304/26
f 162/216/49 250/324/51 249/323/52
f 250/324/48 162/216/49 251/325/50
f 141/182/64 241/315/89 143/186/90
f 241/315/88 141/182/64 242/316/66
f 252/326/191 243/317/206 242/316/202
f 243/317/206 252/326/212 237/311/213
f 238/312/165 254/328/145 253/327/166
f 254/328/145 238/312/99 214/288/142
f 257/331/43 256/330/104 255/329/37
f 256/330/36 257/331/103 157/210/39
f 148/192/29 253/327/105 150/196/45
f 253/327/46 148/192/29 248/322/24
f 226/300/60 258/332/23 224/298/61
f 258/332/23 226/300/59 259/333/20
f 260/334/208 240/314/181 246/320/55
f 240/314/207 260/334/54 156/208/180
f 214/288/142 239/313/144 254/328/145
f 239/313/141 214/288/142 212/286/143
f 232/306/224 219/293/225 230/304/226
f 219/293/118 232/306/227 216/290/218
f 226/300/261 209/283/262 259/333/189
f 209/283/263 226/300/60 207/281/214
f 252/326/21 141/182/64 142/184/19
f 141/182/64 252/326/65 242/316/66
f 238/312/195 184/250/164 186/253/196
f 184/250/164 238/312/194 261/335/160
f 204/278/74 247/321/76 228/302/77
f 247/321/73 204/278/74 210/284/75
f 174/235/239 204/278/238 173/233/241
f 204/278/238 174/235/239 210/284/240
f 244/318/82 192/262/106 236/310/108
f 192/262/106 244/318/107 245/319/78
f 180/244/209 237/311/85 179/242/84
f 237/311/253 180/244/209 243/317/211
f 198/272/175 233/307/245 197/271/138
f 233/307/245 198/272/246 234/308/247
f 156/208/180 239/313/95 240/314/181
f 239/313/94 156/208/180 154/204/96
f 211/285/260 226/300/261 225/299/232
f 226/300/257 211/285/258 207/281/259
f 223/297/109 249/323/110 236/310/111
f 249/323/112 223/297/109 262/336/113
f 261/335/162 218/292/159 184/250/164
f 218/292/159 261/335/160 219/293/161
f 164/220/186 249/323/219 262/336/188
f 249/323/52 164/220/186 162/216/49
f 197/271/138 262/336/113 223/297/109
f 262/336/113 197/271/139 233/307/140
f 255/329/37 235/309/34 234/308/38
f 235/309/34 255/329/35 256/330/36
f 236/310/254 250/324/255 244/318/256
f 250/324/172 236/310/254 249/323/112
f 217/291/132 180/244/209 181/246/130
f 180/244/209 217/291/210 243/317/211
f 261/335/100 253/327/97 248/322/101
f 253/327/97 261/335/98 238/312/99
f 244/318/167 246/320/168 200/274/169
f 246/320/170 244/318/171 250/324/281
f 220/294/251 227/301/250 257/331/252
f 227/301/250 220/294/198 203/277/182
f 219/293/120 248/322/121 230/304/122
f 248/322/117 219/293/118 261/335/119
f 228/302/31 155/206/41 227/301/42
f 155/206/41 228/302/31 153/202/33
f 154/204/96 254/328/44 239/313/95
f 254/328/44 154/204/96 152/200/47
f 251/325/50 246/320/55 250/324/51
f 246/320/53 251/325/50 260/334/54
f 259/333/189 237/311/190 252/326/191
f 237/311/190 259/333/192 209/283/193
f 227/301/42 157/210/39 257/331/43
f 157/210/39 227/301/40 155/206/41
f 259/333/22 142/184/19 258/332/23
f 142/184/19 259/333/20 252/326/21
f 210/284/230 225/299/232 247/321/76
f 225/299/229 210/284/230 211/285/231
f 150/196/45 254/328/44 152/200/47
f 254/328/44 150/196/45 253/327/46
f 233/307/187 164/220/186 262/336/188
f 164/220/186 233/307/93 163/218/91
f 241/315/215 216/290/216 232/306/217
f 216/290/218 241/315/215 217/291/205
f 221/295/199 257/331/200 255/329/201
f 257/331/197 221/295/173 220/294/198
f 247/321/58 153/202/33 228/302/31
f 153/202/33 247/321/32 151/198/30
f 221/295/173 234/308/174 198/272/175
f 234/308/176 221/295/155 255/329/35
f 140/180/16 196/270/16 193/264/16
f 196/270/16 140/180/16 139/178/16
f 196/270/16 139/178/16 136/174/16
f 136/174/16 139/178/16 195/268/16
f 136/174/16 195/268/16 134/171/16
f 134/171/16 195/268/16 194/266/16
f 265/341/12 264/339/17 263/337/14
f 264/339/17 265/341/14 266/342/18
f 269/347/1 268/345/2 267/343/3
f 268/345/2 269/347/3 270/348/4
f 273/351/11 272/350/7 271/349/13
f 272/350/6 273/351/11 274/353/6
f 277/358/15 276/357/15 275/355/15
f 277/358/15 278/360/15 276/357/15
f 269/347/15 278/360/15 277/358/15
f 269/347/15 279/361/15 278/360/15
f 266/342/15 279/361/15 269/347/15
f 266/342/15 280/363/15 279/361/15
f 266/342/15 281/364/15 280/363/15
f 281/364/15 266/342/15 265/341/15
f 265/341/15 282/366/15 281/364/15
f 271/349/15 282/366/15 265/341/15
f 271/349/15 283/368/15 282/366/15
f 272/350/15 283/368/15 271/349/15
f 272/350/15 284/370/15 283/368/15
f 272/350/15 285/371/15 284/370/15
f 272/350/15 286/372/15 285/371/15
f 286/372/15 272/350/15 287/374/15
f 272/350/15 288/376/15 287/374/15
f 288/376/15 272/350/15 289/378/15
f 289/378/15 272/350/15 290/379/15
f 290/379/15 272/350/15 291/380/15
f 291/380/15 272/350/15 292/382/15
f 291/380/15 292/382/15 293/383/15
f 293/383/15 292/382/15 294/385/15
f 293/383/15 294/385/15 295/386/15
f 270/348/15 295/386/15 294/385/15
f 295/386/15 270/348/15 296/388/15
f 296/388/15 270/348/15 297/389/15
f 297/389/15 270/348/15 269/347/15
f 297/389/15 269/347/15 298/391/15
f 298/391/15 269/347/15 277/358/15
f 298/391/15 277/358/15 299/392/15
f 299/392/15 277/358/15 300/393/15
f 301/395/5 272/350/6 274/353/6
f 272/350/7 301/395/5 292/382/8
f 294/385/9 301/395/5 302/397/9
f 301/395/5 294/385/10 292/382/8
f 271/349/11 263/337/12 273/351/13
f 263/337/12 271/349/13 265/341/14
f 305/403/16 304/401/16 303/399/16
f 304/401/16 305/403/16 306/405/16
f 304/401/16 306/405/16 307/406/16
f 307/406/16 306/405/16 308/407/16
f 307/406/16 308/407/16 309/408/16
f 309/408/16 308/407/16 310/409/16
f 309/408/16 310/409/16 311/411/16
f 311/411/16 310/409/16 312/413/16
f 311/411/16 312/413/16 313/415/16
f 313/415/16 312/413/16 314/417/16
f 313/415/16 314/417/16 315/419/16
f 315/419/16 314/417/16 316/421/16
f 315/419/16 316/421/16 317/422/16
f 317/422/16 316/421/16 318/423/16
f 317/422/16 318/423/16 319/425/16
f 319/425/16 318/423/16 320/427/16
f 319/425/16 320/427/16 321/428/16
f 321/428/16 320/427/16 322/429/16
f 321/428/16 322/429/16 323/430/16
f 323/430/16 322/429/16 324/431/16
f 323/430/16 324/431/16 325/433/16
f 325/433/16 324/431/16 326/435/16
f 270/348/2 302/397/9 268/345/4
f 302/397/9 270/348/4 294/385/10
f 269/347/3 264/339/17 266/342/18
f 264/339/17 269/347/1 267/343/3
f 288/377/19 328/438/20 327/437/21
f 328/438/22 288/377/19 329/439/23
f 332/442/24 331/441/25 330/440/26
f 331/441/25 332/442/28 283/369/29
f 293/384/30 334/444/31 333/443/32
f 334/444/31 293/384/30 295/387/33
f 337/447/34 336/446/282 335/445/36
f 336/446/37 337/447/34 338/448/38
f 297/390/39 340/450/40 339/449/41
f 340/450/42 297/390/39 341/451/43
f 343/453/44 282/367/45 342/452/46
f 282/367/45 343/453/44 281/365/47
f 345/455/48 275/356/49 344/454/50
f 275/356/49 345/455/51 346/456/52
f 348/458/53 344/454/50 347/457/54
f 344/454/50 348/458/55 345/455/51
f 291/381/56 333/443/32 349/459/57
f 333/443/58 291/381/56 293/384/30
f 329/439/23 350/460/59 328/438/20
f 350/460/60 329/439/23 351/461/61
f 351/461/62 349/459/57 350/460/59
f 349/459/63 351/461/283 291/381/56
f 287/375/64 327/437/65 352/462/66
f 327/437/21 287/375/64 288/377/19
f 354/464/67 353/463/157 318/424/69
f 353/463/70 354/464/71 355/465/72
f 333/443/73 357/467/74 356/466/75
f 357/467/74 333/443/76 334/444/77
f 360/470/78 359/469/79 358/468/80
f 359/469/81 360/470/78 361/471/82
f 363/473/83 305/404/84 362/472/85
f 305/404/84 363/473/86 364/474/87
f 365/475/88 287/375/64 352/462/66
f 287/375/64 365/475/89 286/373/90
f 300/394/91 338/448/92 337/447/34
f 338/448/38 300/394/91 366/476/93
f 367/477/94 281/365/47 343/453/44
f 281/365/47 367/477/95 368/478/96
f 342/452/97 370/480/98 369/479/99
f 370/480/100 342/452/97 332/442/101
f 335/445/36 341/451/103 297/390/39
f 341/451/43 335/445/104 336/446/37
f 342/452/46 283/369/29 332/442/24
f 283/369/29 342/452/105 282/367/45
f 325/434/106 361/471/107 360/470/78
f 361/471/82 325/434/106 371/481/108
f 372/482/109 346/456/110 371/481/111
f 346/456/112 372/482/109 373/483/113
f 330/440/26 375/485/114 374/484/115
f 375/485/114 330/440/226 331/441/27
f 332/442/117 376/486/118 370/480/119
f 376/486/120 332/442/121 330/440/122
f 378/488/123 318/424/69 377/487/124
f 318/424/69 378/488/125 354/464/71
f 358/468/80 379/489/127 319/426/128
f 379/489/129 358/468/126 359/469/81
f 304/402/130 381/491/131 380/490/132
f 381/491/133 304/402/130 382/492/134
f 326/436/135 371/481/108 325/434/106
f 371/481/136 326/436/135 372/482/137
f 383/493/138 373/483/113 372/482/109
f 373/483/113 383/493/139 366/476/140
f 367/477/141 385/495/142 384/494/143
f 385/495/142 367/477/144 343/453/145
f 388/498/146 387/497/147 386/496/148
f 387/497/280 388/498/150 310/410/151
f 319/426/128 384/494/152 389/499/153
f 384/494/154 319/426/128 379/489/129
f 355/465/155 390/500/156 353/463/157
f 390/500/156 355/465/72 391/501/158
f 392/502/159 370/480/160 376/486/161
f 370/480/162 392/502/159 311/412/164
f 343/453/145 369/479/99 385/495/142
f 369/479/165 343/453/145 342/452/166
f 361/471/167 348/458/168 359/469/169
f 348/458/170 361/471/171 345/455/281
f 355/465/173 338/448/174 391/501/175
f 338/448/176 355/465/155 336/446/35
f 383/493/177 326/436/135 324/432/178
f 326/436/135 383/493/179 372/482/137
f 367/477/94 279/362/180 368/478/96
f 279/362/180 367/477/95 393/503/181
f 334/444/77 378/488/182 357/467/74
f 378/488/183 334/444/77 340/450/184
f 339/449/41 334/444/31 295/387/33
f 334/444/31 339/449/41 340/450/42
f 374/484/115 286/373/90 365/475/89
f 286/373/90 374/484/185 375/485/114
f 277/359/186 366/476/93 300/394/91
f 366/476/187 277/359/186 373/483/188
f 328/438/189 362/472/190 327/437/191
f 362/472/190 328/438/192 363/473/193
f 311/412/164 369/479/194 370/480/160
f 369/479/195 311/412/164 313/416/196
f 341/451/197 355/465/173 354/464/198
f 355/465/199 341/451/200 336/446/201
f 352/462/202 380/490/203 365/475/204
f 380/490/205 352/462/202 394/504/206
f 393/503/207 347/457/54 279/362/180
f 347/457/208 393/503/181 348/458/55
f 303/400/209 380/490/210 394/504/211
f 380/490/132 303/400/209 304/402/130
f 327/437/191 394/504/206 352/462/202
f 394/504/206 327/437/212 362/472/213
f 386/496/148 364/474/87 363/473/83
f 364/474/87 386/496/214 387/497/149
f 365/475/215 381/491/216 374/484/217
f 381/491/218 365/475/215 380/490/205
f 346/456/52 277/359/186 275/356/49
f 277/359/186 346/456/219 373/483/188
f 393/503/220 384/494/221 379/489/222
f 384/494/221 393/503/223 367/477/144
f 374/484/224 376/486/225 330/440/226
f 376/486/118 374/484/227 381/491/218
f 349/459/229 356/466/230 388/498/231
f 356/466/230 349/459/232 333/443/76
f 348/458/233 379/489/234 359/469/235
f 379/489/236 348/458/170 393/503/237
f 357/467/238 312/414/239 356/466/240
f 312/414/239 357/467/238 314/418/241
f 313/416/196 385/495/242 369/479/194
f 385/495/242 313/416/196 315/420/243
f 382/492/134 376/486/161 381/491/131
f 376/486/244 382/492/134 392/502/163
f 391/501/175 366/476/245 383/493/138
f 366/476/245 391/501/246 338/448/247
f 356/466/240 310/410/151 388/498/146
f 310/410/151 356/466/248 312/414/239
f 391/501/249 324/432/178 390/500/156
f 324/432/178 391/501/158 383/493/177
f 340/450/250 354/464/198 378/488/182
f 354/464/251 340/450/250 341/451/252
f 389/499/153 385/495/242 315/420/243
f 385/495/242 389/499/153 384/494/154
f 362/472/253 303/400/209 394/504/211
f 303/400/209 362/472/85 305/404/84
f 371/481/254 345/455/255 361/471/256
f 345/455/172 371/481/254 346/456/112
f 350/460/257 388/498/258 386/496/259
f 388/498/260 350/460/261 349/459/232
f 378/488/123 314/418/241 357/467/238
f 314/418/241 378/488/125 377/487/124
f 350/460/261 363/473/262 328/438/189
f 363/473/263 350/460/60 386/496/214
f 273/352/15 301/396/15 274/354/15
f 301/396/15 273/352/15 263/338/15
f 301/396/15 263/338/15 302/398/15
f 302/398/15 263/338/15 264/340/15
f 302/398/15 264/340/15 268/346/15
f 268/346/15 264/340/15 267/344/15
f 397/508/264 396/506/265 395/505/266
f 396/506/265 397/508/267 398/509/264
f 401/513/268 400/512/269 399/511/270
f 400/512/271 401/513/268 402/515/269
f 405/521/15 404/519/15 403/517/15
f 404/519/15 405/521/15 406/523/15
f 404/519/15 406/523/15 407/524/15
f 407/524/15 406/523/15 408/525/15
f 407/524/15 408/525/15 409/526/15
f 409/526/15 408/525/15 410/527/15
f 409/526/15 410/527/15 411/529/15
f 411/529/15 410/527/15 412/531/15
f 411/529/15 412/531/15 413/532/15
f 413/532/15 412/531/15 414/533/15
f 413/532/15 414/533/15 415/535/15
f 415/535/15 414/533/15 416/537/15
f 415/535/15 416/537/15 417/539/15
f 417/539/15 416/537/15 418/541/15
f 417/539/15 418/541/15 419/543/15
f 419/543/15 418/541/15 420/545/15
f 419/543/15 420/545/15 421/546/15
f 421/546/15 420/545/15 422/547/15
f 421/546/15 422/547/15 423/548/15
f 423/548/15 422/547/15 424/549/15
f 423/548/15 424/549/15 425/551/15
f 425/551/15 424/549/15 426/553/15
f 429/558/16 428/557/16 427/555/16
f 429/558/16 430/560/16 428/557/16
f 431/561/16 430/560/16 429/558/16
f 431/561/16 432/562/16 430/560/16
f 433/564/16 432/562/16 431/561/16
f 433/564/16 434/565/16 432/562/16
f 399/511/16 434/565/16 433/564/16
f 434/565/16 399/511/16 435/567/16
f 399/511/16 436/569/16 435/567/16
f 400/512/16 436/569/16 399/511/16
f 400/512/16 437/570/16 436/569/16
f 438/572/16 437/570/16 400/512/16
f 438/572/16 439/573/16 437/570/16
f 438/572/16 440/574/16 439/573/16
f 438/572/16 441/575/16 440/574/16
f 441/575/16 438/572/16 442/577/16
f 438/572/16 443/579/16 442/577/16
f 443/579/16 438/572/16 444/581/16
f 444/581/16 438/572/16 445/582/16
f 445/582/16 438/572/16 446/583/16
f 446/583/16 438/572/16 447/585/16
f 446/583/16 447/585/16 448/586/16
f 448/586/16 447/585/16 397/508/16
f 448/586/16 397/508/16 449/587/16
f 397/508/16 450/589/16 449/587/16
f 450/589/16 397/508/16 395/505/16
f 450/589/16 395/505/16 451/591/16
f 451/591/16 395/505/16 431/561/16
f 451/591/16 431/561/16 452/593/16
f 452/593/16 431/561/16 429/558/16
f 452/593/16 429/558/16 453/594/16
f 453/594/16 429/558/16 454/595/16
f 438/572/272 402/515/271 455/597/273
f 402/515/271 438/572/273 400/512/269
f 456/599/274 399/511/270 433/564/277
f 399/511/268 456/599/274 401/513/268
f 396/506/265 431/561/276 395/505/266
f 431/561/275 396/506/265 457/601/275
f 456/599/274 431/561/275 457/601/275
f 431/561/276 456/599/274 433/564/277
f 438/572/273 458/603/279 447/585/278
f 458/603/279 438/572/272 455/597/273
f 447/585/278 398/509/267 397/508/264
f 398/509/267 447/585/279 458/603/278
f 427/556/178 460/606/158 459/605/177
f 460/606/249 427/556/178 461/607/156
f 464/610/129 463/609/126 462/608/81
f 463/609/126 464/610/127 451/592/128
f 434/566/124 466/612/238 465/611/125
f 466/612/238 434/566/124 435/568/241
f 469/615/87 468/614/284 467/613/149
f 468/614/148 469/615/87 470/616/83
f 437/571/151 472/618/248 471/617/239
f 472/618/240 437/571/151 473/619/146
f 475/621/242 450/590/153 474/620/154
f 450/590/153 475/621/242 449/588/243
f 477/623/133 443/580/130 476/622/134
f 443/580/130 477/623/131 478/624/132
f 480/626/244 476/622/134 479/625/163
f 476/622/134 480/626/161 477/623/131
f 432/563/69 465/611/125 481/627/71
f 465/611/123 432/563/69 434/566/124
f 461/607/156 482/628/72 460/606/158
f 482/628/155 461/607/156 483/629/157
f 483/629/70 481/627/71 482/628/72
f 481/627/67 483/629/68 432/563/69
f 429/559/135 459/605/179 484/630/137
f 459/605/177 429/559/135 427/556/178
f 486/632/63 485/631/61 411/530/56
f 485/631/62 486/632/57 487/633/59
f 465/611/183 489/635/77 488/634/184
f 489/635/77 465/611/182 466/612/74
f 492/638/114 491/637/116 490/636/27
f 491/637/26 492/638/114 493/639/115
f 495/641/38 425/552/91 494/640/93
f 425/552/91 495/641/92 496/642/34
f 497/643/136 429/559/135 484/630/137
f 429/559/135 497/643/108 454/596/106
f 441/576/84 470/616/86 469/615/87
f 470/616/83 441/576/84 498/644/85
f 499/645/195 449/588/243 475/621/242
f 449/588/243 499/645/194 500/646/196
f 474/620/221 502/648/223 501/647/144
f 502/648/220 474/620/221 464/610/222
f 467/613/149 473/619/150 437/571/151
f 473/619/146 467/613/147 468/614/148
f 474/620/154 451/592/128 464/610/129
f 451/592/128 474/620/152 450/590/153
f 405/522/90 493/639/185 492/638/114
f 493/639/115 405/522/90 503/649/89
f 504/650/202 478/624/203 503/649/204
f 478/624/205 504/650/202 505/651/206
f 462/608/81 507/653/78 506/652/82
f 507/653/78 462/608/169 463/609/80
f 464/610/236 508/654/170 502/648/237
f 508/654/233 464/610/234 462/608/235
f 510/656/58 411/530/56 509/655/30
f 411/530/56 510/656/32 486/632/57
f 490/636/27 511/657/28 410/528/29
f 511/657/24 490/636/25 491/637/26
f 424/550/49 513/659/51 512/658/52
f 513/659/48 424/550/49 514/660/50
f 403/518/64 503/649/89 405/522/90
f 503/649/88 403/518/64 504/650/66
f 515/661/191 505/651/206 504/650/202
f 505/651/206 515/661/212 498/644/213
f 499/645/165 517/663/145 516/662/166
f 517/663/145 499/645/99 475/621/142
f 520/666/43 519/665/104 518/664/37
f 519/665/102 520/666/103 419/544/39
f 410/528/29 516/662/105 521/667/45
f 516/662/46 410/528/29 511/657/24
f 487/633/60 522/668/23 485/631/61
f 522/668/23 487/633/59 523/669/20
f 524/670/208 502/648/223 508/654/55
f 502/648/207 524/670/208 418/542/180
f 475/621/142 501/647/144 517/663/145
f 501/647/141 475/621/142 474/620/143
f 493/639/224 480/626/225 491/637/226
f 480/626/118 493/639/227 477/623/228
f 487/633/261 470/616/262 523/669/189
f 470/616/263 487/633/60 468/614/214
f 515/661/21 403/518/64 404/520/19
f 403/518/64 515/661/65 504/650/66
f 499/645/195 446/584/164 500/646/196
f 446/584/164 499/645/194 525/671/160
f 466/612/74 510/656/76 489/635/77
f 510/656/73 466/612/74 472/618/75
f 471/617/239 466/612/238 435/568/241
f 466/612/238 471/617/239 472/618/240
f 506/652/82 454/596/106 497/643/108
f 454/596/106 506/652/107 507/653/78
f 442/578/209 498/644/85 441/576/84
f 498/644/253 442/578/209 505/651/211
f 460/606/175 494/640/245 459/605/138
f 494/640/245 460/606/246 495/641/247
f 418/542/180 501/647/95 502/648/181
f 501/647/94 418/542/180 416/538/96
f 473/619/260 487/633/261 486/632/232
f 487/633/257 473/619/258 468/614/259
f 484/630/109 512/658/110 497/643/111
f 512/658/112 484/630/109 526/672/113
f 525/671/162 479/625/163 446/584/164
f 479/625/159 525/671/160 480/626/161
f 426/554/186 512/658/219 526/672/188
f 512/658/52 426/554/186 424/550/49
f 459/605/138 526/672/113 484/630/109
f 526/672/113 459/605/139 494/640/140
f 518/664/37 496/642/34 495/641/38
f 496/642/34 518/664/35 519/665/36
f 497/643/254 513/659/255 506/652/256
f 513/659/172 497/643/254 512/658/112
f 478/624/132 442/578/209 443/580/130
f 442/578/209 478/624/210 505/651/211
f 525/671/100 516/662/97 511/657/101
f 516/662/97 525/671/98 499/645/99
f 506/652/167 508/654/168 462/608/169
f 508/654/170 506/652/171 513/659/172
f 481/627/251 488/634/250 520/666/252
f 488/634/250 481/627/198 465/611/182
f 480/626/120 511/657/121 491/637/122
f 511/657/117 480/626/118 525/671/119
f 489/635/31 417/540/41 488/634/42
f 417/540/41 489/635/31 415/536/33
f 416/538/96 517/663/44 501/647/95
f 517/663/44 416/538/96 414/534/47
f 514/660/50 508/654/55 513/659/51
f 508/654/53 514/660/50 524/670/54
f 523/669/189 498/644/190 515/661/191
f 498/644/190 523/669/192 470/616/193
f 488/634/42 419/544/39 520/666/43
f 419/544/39 488/634/40 417/540/41
f 523/669/22 404/520/19 522/668/23
f 404/520/19 523/669/20 515/661/21
f 472/618/230 486/632/232 510/656/76
f 486/632/229 472/618/230 473/619/231
f 521/667/45 517/663/44 414/534/47
f 517/663/44 521/667/45 516/662/46
f 494/640/187 426/554/186 526/672/188
f 426/554/186 494/640/93 425/552/91
f 503/649/215 477/623/216 493/639/217
f 477/623/218 503/649/215 478/624/205
f 482/628/199 520/666/200 518/664/201
f 520/666/197 482/628/173 481/627/198
f 510/656/58 415/536/33 489/635/31
f 415/536/33 510/656/32 509/655/30
f 482/628/173 495/641/174 460/606/175
f 495/641/176 482/628/155 518/664/35
f 402/516/16 458/604/16 455/598/16
f 458/604/16 402/516/16 401/514/16
f 458/604/16 401/514/16 398/510/16
f 398/510/16 401/514/16 456/600/16
f 398/510/16 456/600/16 396/507/16
f 396/507/16 456/600/16 457/602/16
f 529/675/16 528/674/16 527/673/16
f 528/674/16 529/675/16 530/676/16
f 530/676/16 529/675/16 531/677/16
f 530/676/16 531/677/16 532/679/16
f 533/681/285 531/677/286 529/675/285
f 531/677/286 533/681/285 534/682/286
f 536/685/287 528/674/288 535/684/288
f 528/674/288 536/685/287 527/673/287
f 537/686/289 530/676/290 532/679/289
f 530/676/290 537/686/289 538/688/290
f 533/681/285 527/673/287 536/685/287
f 527/673/287 533/681/285 529/675/285
f 535/684/288 530/676/290 538/688/290
f 530/676/290 535/684/288 528/674/288
f 541/691/291 540/690/16 539/689/291
f 540/690/16 541/691/291 542/692/16
f 542/692/16 541/691/291 543/693/16
f 544/694/289 542/692/289 543/693/289
f 542/692/289 544/694/289 545/695/289
f 545/695/15 547/697/292 546/696/15
f 547/697/292 545/695/15 548/698/292
f 548/698/292 545/695/15 544/694/15
f 550/700/293 539/689/291 549/699/293
f 539/689/291 550/700/293 541/691/291
f 551/701/294 550/700/293 549/699/293
f 550/700/293 551/701/294 552/702/294
f 548/698/292 551/701/294 547/697/292
f 551/701/294 548/698/292 552/702/294
f 555/705/15 554/704/15 553/703/15
f 554/704/15 555/705/15 556/706/15
f 554/704/15 556/706/15 557/707/15
f 557/707/15 558/708/15 554/704/15
f 557/707/15 556/706/15 559/709/15
f 559/709/15 556/706/15 560/710/15
f 558/708/15 557/707/15 561/711/15
f 558/708/15 561/711/15 562/712/15
f 565/715/295 564/714/296 563/713/297
f 564/714/296 565/715/295 566/716/16
f 566/716/16 565/715/295 567/717/298
f 566/716/16 568/718/299 564/714/296
f 566/716/16 567/717/298 569/719/16
f 569/719/16 567/717/300 570/720/16
f 568/718/299 566/716/16 571/721/16
f 568/718/299 571/721/16 572/722/16
f 557/707/289 571/721/301 566/716/289
f 571/721/301 557/707/289 559/709/301
f 572/722/302 559/709/301 560/710/302
f 559/709/301 572/722/302 571/721/301
f 560/710/290 568/718/290 572/722/290
f 568/718/290 560/710/290 556/706/290
f 568/718/290 556/706/290 573/723/290
f 562/712/303 574/724/303 558/708/303
f 574/724/303 562/712/303 567/717/303
f 567/717/303 562/712/303 570/720/303
f 569/719/304 562/712/288 561/711/304
f 562/712/288 569/719/304 570/720/288
f 561/711/304 566/716/289 569/719/304
f 566/716/289 561/711/304 557/707/289
f 555/705/305 573/723/306 556/706/287
f 573/723/306 555/705/305 575/725/307
f 575/725/307 553/703/286 576/726/308
f 553/703/286 575/725/307 555/705/305
f 576/726/309 554/704/310 577/727/311
f 554/704/310 576/726/308 553/703/312
f 574/724/313 554/704/310 558/708/314
f 554/704/310 574/724/313 577/727/311
f 563/713/297 575/725/315 576/726/309
f 575/725/315 563/713/297 564/714/296
f 577/727/316 563/713/297 576/726/309
f 563/713/297 577/727/316 565/715/295
f 564/714/296 573/723/306 575/725/315
f 573/723/306 564/714/296 568/718/317
f 574/724/313 565/715/295 577/727/316
f 565/715/295 574/724/313 567/717/318
f 580/730/15 579/729/15 578/728/15
f 579/729/15 580/730/15 581/731/15
f 579/729/15 581/731/15 582/732/15
f 582/732/15 583/733/15 579/729/15
f 582/732/15 581/731/15 584/734/15
f 584/734/15 581/731/15 585/735/15
f 583/733/15 582/732/15 586/736/15
f 583/733/15 586/736/15 587/737/15
f 590/740/295 589/739/296 588/738/297
f 589/739/296 590/740/295 591/741/16
f 591/741/16 590/740/295 592/742/298
f 591/741/16 593/743/299 589/739/296
f 591/741/16 592/742/298 594/744/16
f 594/744/16 592/742/298 595/745/16
f 593/743/299 591/741/16 596/746/16
f 593/743/299 596/746/16 597/747/16
f 584/734/301 591/741/289 582/732/289
f 591/741/289 584/734/301 596/746/301
f 597/747/302 584/734/301 585/735/302
f 584/734/301 597/747/302 596/746/301
f 581/731/290 597/747/290 585/735/290
f 597/747/290 581/731/290 593/743/290
f 593/743/290 581/731/290 598/748/290
f 587/737/303 599/749/303 583/733/303
f 599/749/303 587/737/303 592/742/303
f 592/742/303 587/737/303 595/745/303
f 594/744/304 587/737/288 586/736/304
f 587/737/288 594/744/304 595/745/288
f 582/732/289 594/744/304 586/736/304
f 594/744/304 582/732/289 591/741/289
f 601/751/307 578/728/286 600/750/308
f 578/728/286 601/751/307 580/730/305
f 580/730/305 598/748/306 581/731/287
f 598/748/306 580/730/305 601/751/307
f 600/750/309 579/729/310 602/752/311
f 579/729/310 600/750/308 578/728/286
f 599/749/313 579/729/310 583/733/314
f 579/729/310 599/749/313 602/752/311
f 589/739/296 598/748/306 601/751/315
f 598/748/306 589/739/296 593/743/317
f 602/752/316 588/738/297 600/750/309
f 588/738/297 602/752/316 590/740/295
f 599/749/313 590/740/295 602/752/316
f 590/740/295 599/749/313 592/742/318
f 588/738/297 601/751/315 600/750/309
f 601/751/315 588/738/297 589/739/296
f 605/755/16 604/754/16 603/753/16
f 604/754/16 605/755/16 606/756/16
f 604/754/16 606/756/16 607/757/16
f 607/757/16 608/758/16 604/754/16
f 607/757/16 606/756/16 609/759/16
f 609/759/16 606/756/16 610/760/16
f 608/758/16 607/757/16 611/761/16
f 608/758/16 611/761/16 612/762/16
f 615/765/319 614/764/320 613/763/321
f 614/764/320 615/765/319 616/766/15
f 616/766/15 615/765/319 617/767/322
f 616/766/15 618/768/323 614/764/320
f 616/766/15 617/767/322 619/769/15
f 619/769/15 617/767/322 620/770/15
f 618/768/323 616/766/15 621/771/15
f 618/768/323 621/771/15 622/772/15
f 609/759/304 616/766/289 607/757/289
f 616/766/289 609/759/304 621/771/304
f 622/772/288 609/759/304 610/760/288
f 609/759/304 622/772/288 621/771/304
f 606/756/303 622/772/303 610/760/303
f 622/772/303 606/756/303 618/768/303
f 618/768/303 606/756/303 623/773/303
f 612/762/290 624/774/290 608/758/290
f 624/774/290 612/762/290 617/767/290
f 617/767/290 612/762/290 620/770/290
f 619/769/301 612/762/302 611/761/301
f 612/762/302 619/769/301 620/770/302
f 607/757/289 619/769/301 611/761/301
f 619/769/301 607/757/289 616/766/289
f 626/776/324 603/753/286 625/775/325
f 603/753/286 626/776/324 605/755/310
f 605/755/310 623/773/326 606/756/314
f 623/773/326 605/755/310 626/776/324
f 625/775/327 604/754/305 627/777/328
f 604/754/305 625/775/325 603/753/286
f 624/774/329 604/754/330 608/758/287
f 604/754/305 624/774/329 627/777/328
f 614/764/320 623/773/326 626/776/331
f 623/773/326 614/764/320 618/768/332
f 627/777/333 613/763/321 625/775/327
f 613/763/321 627/777/333 615/765/319
f 624/774/329 615/765/319 627/777/333
f 615/765/319 624/774/329 617/767/334
f 613/763/321 626/776/331 625/775/327
f 626/776/331 613/763/321 614/764/320
f 630/780/15 629/779/15 628/778/15
f 629/779/15 630/780/15 631/781/15
f 631/781/15 630/780/15 632/782/15
f 631/781/15 632/782/15 633/784/15
f 631/781/285 635/787/286 634/786/285
f 635/787/286 631/781/285 633/784/286
f 629/779/287 636/789/288 628/778/288
f 636/789/288 629/779/287 637/790/287
f 632/782/289 639/793/290 638/791/289
f 639/793/290 632/782/289 630/780/290
f 631/781/285 637/790/287 629/779/287
f 637/790/287 631/781/285 634/786/285
f 628/778/288 639/793/290 630/780/290
f 639/793/290 628/778/288 636/789/288
f 642/796/294 641/795/293 640/794/293
f 641/795/293 642/796/294 643/797/294
f 646/800/335 645/799/302 644/798/302
f 645/799/302 646/800/335 647/801/335
f 647/801/335 646/800/335 641/795/335
f 647/801/335 641/795/335 643/797/335
f 647/801/292 642/796/294 648/802/292
f 642/796/294 647/801/292 643/797/294
f 641/795/293 649/803/291 640/794/293
f 649/803/291 641/795/293 646/800/291
f 652/806/303 651/805/289 650/804/303
f 651/805/289 652/806/303 653/807/289
f 644/798/302 652/806/303 650/804/303
f 652/806/303 644/798/302 645/799/302
f 652/806/15 648/802/292 653/807/15
f 648/802/292 652/806/15 647/801/292
f 647/801/292 652/806/15 645/799/15
f 646/800/291 651/805/16 649/803/291
f 651/805/16 646/800/291 650/804/16
f 650/804/16 646/800/291 644/798/16
f 653/807/289 543/693/289 651/805/289
f 543/693/289 653/807/289 544/694/289
f 654/808/335 653/807/335 651/805/335
f 653/807/335 654/808/335 655/809/335
f 655/809/335 654/808/335 656/810/335
f 655/809/335 656/810/335 657/811/335
f 659/814/336 657/811/294 658/812/337
f 657/811/294 659/814/336 655/809/292
f 653/807/15 660/816/15 544/694/15
f 660/816/15 653/807/15 659/814/336
f 659/814/336 653/807/15 655/809/292
f 658/812/337 656/810/293 661/818/338
f 656/810/293 658/812/337 657/811/294
f 661/818/338 654/808/291 662/820/339
f 654/808/291 661/818/338 656/810/293
f 662/820/339 543/693/16 663/822/16
f 543/693/16 662/820/339 651/805/16
f 651/805/16 662/820/339 654/808/291
f 660/816/340 543/693/340 544/694/340
f 543/693/340 660/816/340 663/822/340
f 663/822/340 660/816/340 664/824/340
f 663/822/340 664/824/340 665/827/340
f 668/832/16 667/831/16 666/830/16
f 667/831/16 668/832/16 669/833/16
f 667/831/16 669/833/16 670/834/16
f 670/834/16 671/835/16 667/831/16
f 670/834/16 669/833/16 672/836/16
f 672/836/16 669/833/16 673/837/16
f 671/835/16 670/834/16 674/838/16
f 671/835/16 674/838/16 675/839/16
f 678/842/319 677/841/320 676/840/321
f 677/841/320 678/842/319 679/843/15
f 679/843/15 678/842/319 680/844/322
f 679/843/15 681/845/323 677/841/320
f 679/843/15 680/844/322 682/846/15
f 682/846/15 680/844/341 683/847/15
f 681/845/323 679/843/15 684/848/15
f 681/845/323 684/848/15 685/849/15
f 670/834/289 684/848/304 679/843/289
f 684/848/304 670/834/289 672/836/304
f 685/849/288 672/836/304 673/837/288
f 672/836/304 685/849/288 684/848/304
f 673/837/303 681/845/303 685/849/303
f 681/845/303 673/837/303 669/833/303
f 681/845/303 669/833/303 686/850/303
f 675/839/290 687/851/290 671/835/290
f 687/851/290 675/839/290 680/844/290
f 680/844/290 675/839/290 683/847/290
f 682/846/301 675/839/302 674/838/301
f 675/839/302 682/846/301 683/847/302
f 674/838/301 679/843/289 682/846/301
f 679/843/289 674/838/301 670/834/289
f 668/832/310 686/850/326 669/833/314
f 686/850/326 668/832/310 688/852/324
f 688/852/324 666/830/286 689/853/325
f 666/830/286 688/852/324 668/832/310
f 689/853/327 667/831/305 690/854/328
f 667/831/305 689/853/325 666/830/286
f 687/851/329 667/831/305 671/835/287
f 667/831/305 687/851/329 690/854/328
f 676/840/321 688/852/331 689/853/327
f 688/852/331 676/840/321 677/841/320
f 690/854/333 676/840/321 689/853/327
f 676/840/321 690/854/333 678/842/319
f 677/841/320 686/850/326 688/852/331
f 686/850/326 677/841/320 681/845/332
f 687/851/329 678/842/319 690/854/333
f 678/842/319 687/851/329 680/844/334
f 531/678/335 537/687/335 532/680/335
f 537/687/335 531/678/335 534/683/335
f 635/788/335 632/783/335 638/792/335
f 632/783/335 635/788/335 633/785/335
f 693/857/285 692/856/286 691/855/286
f 692/856/286 693/857/285 694/858/285
f 697/861/16 696/860/16 695/859/16
f 696/860/16 697/861/16 691/855/16
f 691/855/16 697/861/16 693/857/16
f 699/863/289 696/860/289 698/862/289
f 696/860/289 699/863/289 695/859/289
f 692/856/15 699/863/15 698/862/15
f 699/863/15 692/856/15 700/864/15
f 700/864/15 692/856/15 694/858/15
f 692/856/335 696/860/335 691/855/335
f 696/860/335 692/856/335 698/862/335
f 699/863/340 697/861/287 695/859/340
f 697/861/287 699/863/340 700/864/287
f 700/864/287 693/857/285 697/861/287
f 693/857/285 700/864/287 694/858/285
f 703/867/301 702/866/342 701/865/301
f 702/866/304 703/867/343 704/868/304
f 707/871/305 706/870/344 705/869/305
f 706/870/310 707/871/345 708/872/310
f 706/870/310 703/867/301 701/865/346
f 703/867/301 706/870/310 708/872/347
f 707/871/305 702/866/304 704/868/348
f 702/866/304 707/871/305 705/869/349
f 711/875/291 710/874/293 709/873/291
f 710/874/293 711/875/291 712/876/293
f 712/876/293 713/877/294 710/874/293
f 713/877/294 712/876/293 714/878/294
f 709/873/291 715/879/16 711/875/291
f 715/879/16 709/873/291 716/880/16
f 716/880/16 709/873/291 717/881/16
f 716/880/16 717/881/16 718/882/16
f 720/884/340 715/879/288 719/883/288
f 715/879/288 720/884/340 711/875/340
f 711/875/340 720/884/340 714/878/340
f 711/875/340 714/878/340 712/876/340
f 719/883/288 716/880/290 721/885/290
f 716/880/290 719/883/288 715/879/350
f 723/887/15 722/886/15 721/885/15
f 724/888/292 721/885/15 722/886/15
f 720/884/292 721/885/15 724/888/292
f 721/885/15 720/884/292 719/883/15
f 723/887/289 716/880/290 718/882/289
f 716/880/290 723/887/289 721/885/290
f 714/878/294 724/888/292 713/877/294
f 724/888/292 714/878/294 720/884/292
f 727/891/301 726/890/342 725/889/301
f 726/890/304 727/891/343 728/892/304
f 729/893/310 727/891/301 725/889/346
f 727/891/301 729/893/310 730/894/347
f 732/896/305 729/893/344 731/895/305
f 729/893/310 732/896/345 730/894/310
f 732/896/305 726/890/304 728/892/348
f 726/890/304 732/896/305 731/895/349
f 735/899/351 734/898/352 733/897/351
f 734/898/353 735/899/354 736/900/353
f 739/903/355 738/902/356 737/901/357
f 738/902/356 739/903/355 740/904/358
f 736/900/353 739/903/359 734/898/353
f 739/903/355 736/900/360 740/904/355
f 738/902/356 733/897/361 737/901/356
f 733/897/351 738/902/362 735/899/351
f 743/907/363 742/906/364 741/905/365
f 742/906/364 743/907/363 744/908/366
f 747/911/367 746/910/368 745/909/369
f 746/910/368 747/911/367 748/912/370
f 745/909/286 742/906/286 747/911/286
f 742/906/286 745/909/286 741/905/286
f 741/905/365 746/910/371 743/907/372
f 746/910/368 741/905/365 745/909/369
f 748/912/370 742/906/364 744/908/366
f 742/906/373 748/912/370 747/911/374
f 744/908/289 746/910/289 748/912/289
f 746/910/289 744/908/289 743/907/289
f 751/915/375 750/914/376 749/913/377
f 750/914/378 751/915/375 752/916/379
f 750/914/378 754/918/380 753/917/381
f 754/918/380 750/914/378 752/916/379
f 750/914/289 755/919/289 749/913/289
f 755/919/289 750/914/289 753/917/289
f 756/920/382 749/913/383 755/919/384
f 749/913/383 756/920/382 751/915/375
f 753/917/381 756/920/382 755/919/384
f 756/920/385 753/917/381 754/918/386
f 754/918/286 751/915/286 756/920/286
f 751/915/286 754/918/286 752/916/286
f 759/923/289 758/922/289 757/921/289
f 758/922/289 759/923/289 760/924/289
f 759/923/378 761/925/380 760/924/381
f 761/925/380 759/923/378 762/926/379
f 763/927/382 757/921/383 758/922/384
f 757/921/383 763/927/382 764/928/375
f 761/925/286 764/928/286 763/927/286
f 764/928/286 761/925/286 762/926/286
f 760/924/381 763/927/382 758/922/384
f 763/927/385 760/924/381 761/925/386
f 764/928/375 759/923/376 757/921/377
f 759/923/378 764/928/375 762/926/379
f 767/931/286 766/930/286 765/929/286
f 766/930/286 767/931/286 768/932/286
f 769/933/363 766/930/364 768/932/365
f 766/930/364 769/933/363 770/934/366
f 768/932/365 771/935/371 769/933/372
f 771/935/368 768/932/365 767/931/369
f 765/929/367 771/935/368 767/931/369
f 771/935/368 765/929/367 772/936/370
f 772/936/370 766/930/364 770/934/366
f 766/930/373 772/936/370 765/929/374
f 770/934/289 771/935/289 772/936/289
f 771/935/289 770/934/289 769/933/289
f 659/815/387 664/825/387 660/817/387
f 664/825/387 659/815/387 773/937/387
f 773/937/387 659/815/387 774/938/387
f 662/821/387 774/938/387 659/815/387
f 662/821/387 659/815/387 658/813/387
f 662/821/387 658/813/387 661/819/387
f 662/821/387 665/828/387 774/938/387
f 665/828/387 662/821/387 663/823/387
f 775/939/387 665/829/387 664/826/387
f 665/829/387 775/939/387 776/940/387
