# Blender 3.3.1
# www.blender.org
mtllib zone_wall.mtl
o Cylinder
v -0.000000 1.000000 0.000000
v 0.000000 0.000000 1.921156
v 0.195090 0.980785 0.000000
v 0.000000 0.000000 1.921156
v 0.382683 0.923880 0.000000
v 0.000000 0.000000 1.921156
v 0.555570 0.831470 0.000000
v 0.000000 0.000000 1.921156
v 0.707107 0.707107 0.000000
v 0.000000 0.000000 1.921156
v 0.831470 0.555570 0.000000
v 0.000000 0.000000 1.921156
v 0.923880 0.382683 0.000000
v 0.000000 0.000000 1.921156
v 0.980785 0.195090 0.000000
v 0.000000 0.000000 1.921156
v 1.000000 0.000000 0.000000
v 0.000000 0.000000 1.921156
v 0.980785 -0.195090 0.000000
v 0.000000 0.000000 1.921156
v 0.923880 -0.382683 0.000000
v 0.000000 0.000000 1.921156
v 0.831470 -0.555570 0.000000
v 0.000000 0.000000 1.921156
v 0.707107 -0.707107 0.000000
v 0.000000 0.000000 1.921156
v 0.555570 -0.831470 0.000000
v 0.000000 0.000000 1.921156
v 0.382683 -0.923880 0.000000
v 0.000000 0.000000 1.921156
v 0.195090 -0.980785 0.000000
v 0.000000 0.000000 1.921156
v -0.000000 -1.000000 0.000000
v 0.000000 0.000000 1.921156
v -0.195090 -0.980785 0.000000
v 0.000000 0.000000 1.921156
v -0.382683 -0.923880 0.000000
v 0.000000 0.000000 1.921156
v -0.555570 -0.831470 0.000000
v 0.000000 0.000000 1.921156
v -0.707107 -0.707107 0.000000
v 0.000000 0.000000 1.921156
v -0.831470 -0.555570 0.000000
v 0.000000 0.000000 1.921156
v -0.923880 -0.382683 0.000000
v 0.000000 0.000000 1.921156
v -0.980785 -0.195090 0.000000
v 0.000000 0.000000 1.921156
v -1.000000 0.000000 0.000000
v 0.000000 0.000000 1.921156
v -0.980785 0.195090 0.000000
v 0.000000 0.000000 1.921156
v -0.923880 0.382683 0.000000
v 0.000000 0.000000 1.921156
v -0.831470 0.555570 0.000000
v 0.000000 0.000000 1.921156
v -0.707107 0.707107 0.000000
v 0.000000 0.000000 1.921156
v -0.555570 0.831470 0.000000
v 0.000000 0.000000 1.921156
v -0.382683 0.923880 0.000000
v 0.000000 0.000000 1.921156
v -0.195090 0.980785 0.000000
v 0.000000 0.000000 1.921156
v -0.175823 0.883920 1.800000
v -0.344889 0.832635 1.800000
v -0.500701 0.749352 1.800000
v -0.637271 0.637271 1.800000
v -0.749352 0.500701 1.800000
v -0.832635 0.344889 1.800000
v -0.883920 0.175823 1.800000
v -0.901237 0.000000 1.800000
v -0.883920 -0.175823 1.800000
v -0.832635 -0.344889 1.800000
v -0.749352 -0.500701 1.800000
v -0.637271 -0.637271 1.800000
v -0.500701 -0.749352 1.800000
v -0.344889 -0.832635 1.800000
v -0.175823 -0.883920 1.800000
v -0.000000 -0.901237 1.800000
v 0.175823 -0.883920 1.800000
v 0.344889 -0.832635 1.800000
v 0.500701 -0.749352 1.800000
v 0.637271 -0.637271 1.800000
v 0.749352 -0.500701 1.800000
v 0.832635 -0.344889 1.800000
v 0.883920 -0.175823 1.800000
v 0.901237 0.000000 1.800000
v 0.883920 0.175823 1.800000
v 0.832635 0.344889 1.800000
v 0.749352 0.500701 1.800000
v 0.637271 0.637271 1.800000
v 0.500701 0.749352 1.800000
v 0.344889 0.832635 1.800000
v 0.175823 0.883920 1.800000
v -0.000000 0.901237 1.800000
vn 0.0131 0.1332 0.9910
vn 0.0389 0.1281 0.9910
vn 0.0631 0.1181 0.9910
vn 0.0849 0.1035 0.9910
vn 0.1035 0.0849 0.9910
vn 0.1181 0.0631 0.9910
vn 0.1281 0.0389 0.9910
vn 0.1332 0.0131 0.9910
vn 0.1332 -0.0131 0.9910
vn 0.1281 -0.0389 0.9910
vn 0.1181 -0.0631 0.9910
vn 0.1035 -0.0849 0.9910
vn 0.0849 -0.1035 0.9910
vn 0.0631 -0.1181 0.9910
vn 0.0389 -0.1281 0.9910
vn 0.0131 -0.1332 0.9910
vn -0.0131 -0.1332 0.9910
vn -0.0389 -0.1281 0.9910
vn -0.0631 -0.1181 0.9910
vn -0.0849 -0.1035 0.9910
vn -0.1035 -0.0849 0.9910
vn -0.1181 -0.0631 0.9910
vn -0.1281 -0.0389 0.9910
vn -0.1332 -0.0131 0.9910
vn -0.1332 0.0131 0.9910
vn -0.1281 0.0389 0.9910
vn -0.1181 0.0631 0.9910
vn -0.1035 0.0849 0.9910
vn -0.0849 0.1035 0.9910
vn -0.0631 0.1181 0.9910
vn -0.0389 0.1281 0.9910
vn -0.0131 0.1332 0.9910
vn 0.0979 0.9937 0.0545
vn 0.2899 0.9555 0.0545
vn 0.4707 0.8806 0.0545
vn 0.6334 0.7719 0.0545
vn 0.7719 0.6335 0.0545
vn 0.8806 0.4707 0.0545
vn 0.9555 0.2899 0.0545
vn 0.9937 0.0979 0.0545
vn 0.9937 -0.0979 0.0545
vn 0.9555 -0.2899 0.0545
vn 0.8806 -0.4707 0.0545
vn 0.7719 -0.6334 0.0545
vn 0.6334 -0.7719 0.0545
vn 0.4707 -0.8806 0.0545
vn 0.2899 -0.9555 0.0545
vn 0.0979 -0.9937 0.0545
vn -0.0979 -0.9937 0.0545
vn -0.2899 -0.9555 0.0545
vn -0.4707 -0.8806 0.0545
vn -0.6334 -0.7719 0.0545
vn -0.7719 -0.6335 0.0545
vn -0.8806 -0.4707 0.0545
vn -0.9555 -0.2899 0.0545
vn -0.9937 -0.0979 0.0545
vn -0.9937 0.0979 0.0545
vn -0.9555 0.2899 0.0545
vn -0.8806 0.4707 0.0545
vn -0.7719 0.6334 0.0545
vn -0.6334 0.7719 0.0545
vn -0.4707 0.8806 0.0545
vn -0.2899 0.9555 0.0545
vn -0.0979 0.9937 0.0545
vn -0.0000 -0.1332 -0.9911
vn -0.0000 -0.0000 1.0000
vn 0.7719 0.6334 0.0545
vn 0.7719 -0.6335 0.0545
vn -0.7719 -0.6334 0.0545
vn -0.7719 0.6335 0.0545
vt 2.666677 0.000000
vt 0.000010 0.000000
vt 2.666677 1.000000
vt 0.000010 1.000000
vt 2.583344 0.000000
vt 2.583344 1.000000
vt 2.500010 0.000000
vt 2.500010 1.000000
vt 2.416677 0.000000
vt 2.416677 1.000000
vt 2.333344 0.000000
vt 2.333344 1.000000
vt 2.250010 0.000000
vt 2.250010 1.000000
vt 2.166677 0.000000
vt 2.166677 1.000000
vt 2.083344 0.000000
vt 2.083344 1.000000
vt 2.000010 0.000000
vt 2.000010 1.000000
vt 1.916677 0.000000
vt 1.916677 1.000000
vt 1.833344 0.000000
vt 1.833344 1.000000
vt 1.750010 0.000000
vt 1.750010 1.000000
vt 1.666677 0.000000
vt 1.666677 1.000000
vt 1.583344 0.000000
vt 1.583344 1.000000
vt 1.500010 0.000000
vt 1.500010 1.000000
vt 1.416677 0.000000
vt 1.416677 1.000000
vt 1.333344 0.000000
vt 1.333344 1.000000
vt 1.250010 0.000000
vt 1.250010 1.000000
vt 1.166677 0.000000
vt 1.166677 1.000000
vt 1.083344 0.000000
vt 1.083344 1.000000
vt 1.000010 0.000000
vt 1.000010 1.000000
vt 0.916677 0.000000
vt 0.916677 1.000000
vt 0.833344 0.000000
vt 0.833344 1.000000
vt 0.750010 0.000000
vt 0.750010 1.000000
vt 0.666677 0.000000
vt 0.666677 1.000000
vt 0.583344 0.000000
vt 0.583344 1.000000
vt 0.500010 0.000000
vt 0.500010 1.000000
vt 0.416677 0.000000
vt 0.416677 1.000000
vt 0.333344 0.000000
vt 0.333344 1.000000
vt 0.250010 0.000000
vt 0.250010 1.000000
vt 0.166677 0.000000
vt 0.166677 1.000000
vt 0.083344 0.000000
vt 0.083344 1.000000
vt 0.083344 0.875000
vt 0.166677 0.875000
vt 0.250010 0.875000
vt 0.333344 0.875000
vt 0.416677 0.875000
vt 0.500010 0.875000
vt 0.583344 0.875000
vt 0.666677 0.875000
vt 0.750010 0.875000
vt 0.833344 0.875000
vt 0.916677 0.875000
vt 1.000010 0.875000
vt 1.083344 0.875000
vt 1.166677 0.875000
vt 1.250010 0.875000
vt 1.333343 0.875000
vt 1.416677 0.875000
vt 1.500010 0.875000
vt 1.583344 0.875000
vt 1.666677 0.875000
vt 1.750010 0.875000
vt 1.833344 0.875000
vt 1.916677 0.875000
vt 2.000010 0.875000
vt 2.083344 0.875000
vt 2.166677 0.875000
vt 2.250010 0.875000
vt 2.333344 0.875000
vt 2.416677 0.875000
vt 2.500010 0.875000
vt 2.583344 0.875000
vt 2.666677 0.875000
vt 0.000010 0.875000
s 0
f 96/98/1 4/6/1 95/97/1
f 95/97/2 6/8/2 94/96/2
f 94/96/3 8/10/3 93/95/3
f 93/95/4 10/12/4 92/94/4
f 92/94/5 12/14/5 91/93/5
f 91/93/6 14/16/6 90/92/6
f 90/92/7 16/18/7 89/91/7
f 89/91/8 18/20/8 88/90/8
f 88/90/9 20/22/9 87/89/9
f 87/89/10 22/24/10 86/88/10
f 86/88/11 24/26/11 85/87/11
f 85/87/12 26/28/12 84/86/12
f 84/86/13 28/30/13 83/85/13
f 83/85/14 30/32/14 82/84/14
f 82/84/15 32/34/15 81/83/15
f 81/83/16 34/36/16 80/82/16
f 34/36/17 79/81/17 80/82/17
f 79/81/18 38/40/18 78/80/18
f 78/80/19 40/42/19 77/79/19
f 77/79/20 42/44/20 76/78/20
f 76/78/21 44/46/21 75/77/21
f 75/77/22 46/48/22 74/76/22
f 74/76/23 48/50/23 73/75/23
f 73/75/24 50/52/24 72/74/24
f 72/74/25 52/54/25 71/73/25
f 71/73/26 54/56/26 70/72/26
f 70/72/27 56/58/27 69/71/27
f 69/71/28 58/60/28 68/70/28
f 68/70/29 60/62/29 67/69/29
f 67/69/30 62/64/30 66/68/30
f 66/68/31 64/66/31 65/67/31
f 65/67/32 2/4/32 96/99/32
f 96/98/33 3/5/33 1/1/33
f 95/97/34 5/7/34 3/5/34
f 94/96/35 7/9/35 5/7/35
f 93/95/36 9/11/36 7/9/36
f 92/94/37 11/13/37 9/11/37
f 91/93/38 13/15/38 11/13/38
f 90/92/39 15/17/39 13/15/39
f 89/91/40 17/19/40 15/17/40
f 88/90/41 19/21/41 17/19/41
f 87/89/42 21/23/42 19/21/42
f 86/88/43 23/25/43 21/23/43
f 85/87/44 25/27/44 23/25/44
f 84/86/45 27/29/45 25/27/45
f 83/85/46 29/31/46 27/29/46
f 82/84/47 31/33/47 29/31/47
f 81/83/48 33/35/48 31/33/48
f 80/82/49 35/37/49 33/35/49
f 79/81/50 37/39/50 35/37/50
f 78/80/51 39/41/51 37/39/51
f 77/79/52 41/43/52 39/41/52
f 76/78/53 43/45/53 41/43/53
f 75/77/54 45/47/54 43/45/54
f 74/76/55 47/49/55 45/47/55
f 73/75/56 49/51/56 47/49/56
f 72/74/57 51/53/57 49/51/57
f 71/73/58 53/55/58 51/53/58
f 70/72/59 55/57/59 53/55/59
f 69/71/60 57/59/60 55/57/60
f 68/70/61 59/61/61 57/59/61
f 67/69/62 61/63/62 59/61/62
f 66/68/63 63/65/63 61/63/63
f 65/67/64 1/2/64 63/65/64
f 96/98/65 2/3/65 4/6/65
f 95/97/66 4/6/66 6/8/66
f 94/96/66 6/8/66 8/10/66
f 93/95/66 8/10/66 10/12/66
f 92/94/66 10/12/66 12/14/66
f 91/93/66 12/14/66 14/16/66
f 90/92/66 14/16/66 16/18/66
f 89/91/66 16/18/66 18/20/66
f 88/90/66 18/20/66 20/22/66
f 87/89/66 20/22/66 22/24/66
f 86/88/66 22/24/66 24/26/66
f 85/87/66 24/26/66 26/28/66
f 84/86/66 26/28/66 28/30/66
f 83/85/66 28/30/66 30/32/66
f 82/84/66 30/32/66 32/34/66
f 81/83/66 32/34/66 34/36/66
f 34/36/66 36/38/66 79/81/66
f 79/81/66 36/38/66 38/40/66
f 78/80/66 38/40/66 40/42/66
f 77/79/66 40/42/66 42/44/66
f 76/78/66 42/44/66 44/46/66
f 75/77/66 44/46/66 46/48/66
f 74/76/66 46/48/66 48/50/66
f 73/75/66 48/50/66 50/52/66
f 72/74/66 50/52/66 52/54/66
f 71/73/66 52/54/66 54/56/66
f 70/72/66 54/56/66 56/58/66
f 69/71/66 56/58/66 58/60/66
f 68/70/66 58/60/66 60/62/66
f 67/69/66 60/62/66 62/64/66
f 66/68/66 62/64/66 64/66/66
f 65/67/66 64/66/66 2/4/66
f 96/98/33 95/97/33 3/5/33
f 95/97/34 94/96/34 5/7/34
f 94/96/35 93/95/35 7/9/35
f 93/95/36 92/94/36 9/11/36
f 92/94/67 91/93/67 11/13/67
f 91/93/38 90/92/38 13/15/38
f 90/92/39 89/91/39 15/17/39
f 89/91/40 88/90/40 17/19/40
f 88/90/41 87/89/41 19/21/41
f 87/89/42 86/88/42 21/23/42
f 86/88/43 85/87/43 23/25/43
f 85/87/68 84/86/68 25/27/68
f 84/86/45 83/85/45 27/29/45
f 83/85/46 82/84/46 29/31/46
f 82/84/47 81/83/47 31/33/47
f 81/83/48 80/82/48 33/35/48
f 80/82/49 79/81/49 35/37/49
f 79/81/50 78/80/50 37/39/50
f 78/80/51 77/79/51 39/41/51
f 77/79/52 76/78/52 41/43/52
f 76/78/69 75/77/69 43/45/69
f 75/77/54 74/76/54 45/47/54
f 74/76/55 73/75/55 47/49/55
f 73/75/56 72/74/56 49/51/56
f 72/74/57 71/73/57 51/53/57
f 71/73/58 70/72/58 53/55/58
f 70/72/59 69/71/59 55/57/59
f 69/71/70 68/70/70 57/59/70
f 68/70/61 67/69/61 59/61/61
f 67/69/62 66/68/62 61/63/62
f 66/68/63 65/67/63 63/65/63
f 65/67/64 96/99/64 1/2/64
