# Blender 3.3.1
# www.blender.org
o rocks-small
v 0.098739 -0.150351 0.015000
v 0.093223 -0.172164 0.015000
v 0.076926 -0.144834 0.015000
v 0.071409 -0.166647 0.015000
v 0.074210 -0.140279 -0.000000
v 0.066854 -0.169364 -0.000000
v 0.103294 -0.147635 -0.000000
v 0.095939 -0.176719 -0.000000
v 0.217236 0.052287 0.015000
v 0.225962 0.031548 0.015000
v 0.196497 0.043561 0.015000
v 0.205223 0.022822 0.015000
v 0.191586 0.045563 0.000000
v 0.203221 0.017911 0.000000
v 0.219238 0.057198 0.000000
v 0.230873 0.029546 0.000000
v -0.047119 0.187683 0.015000
v -0.028187 0.199842 0.015000
v -0.034960 0.168751 0.015000
v -0.016028 0.180910 0.015000
v -0.036089 0.163570 0.000000
v -0.010846 0.179781 0.000000
v -0.052300 0.188812 0.000000
v -0.027058 0.205024 0.000000
v -0.204357 -0.002451 0.015000
v -0.226645 0.000625 0.015000
v -0.201281 0.019837 0.015000
v -0.223570 0.022913 0.015000
v -0.197053 0.023040 0.000000
v -0.226772 0.027141 0.000000
v -0.201155 -0.006679 -0.000000
v -0.230873 -0.002578 -0.000000
v 0.066033 0.055059 0.171978
v 0.048877 0.040502 0.171978
v 0.051477 0.072215 0.171978
v 0.034320 0.057659 0.171978
v 0.051910 0.077501 0.156978
v 0.029034 0.058092 0.156978
v 0.071319 0.054625 0.156978
v 0.048443 0.035217 0.156978
v -0.163893 0.039711 0.000000
v -0.207949 0.112745 0.000000
v -0.151386 0.062366 0.042647
v -0.182076 0.113241 0.042647
v -0.166728 0.187415 0.000000
v -0.081450 0.189052 0.000000
v -0.037394 0.116018 0.000000
v -0.078616 0.041347 0.000000
v -0.091982 0.063506 0.042647
v -0.100644 0.077864 0.099509
v -0.063267 0.115521 0.042647
v -0.080033 0.115199 0.099509
v -0.093957 0.166397 0.042647
v -0.102061 0.151716 0.099509
v -0.143282 0.077046 0.099509
v -0.165310 0.113563 0.099509
v -0.153361 0.165257 0.042647
v -0.144700 0.150898 0.099509
v 0.073193 -0.102244 -0.000000
v -0.006767 -0.219421 -0.000000
v 0.030274 -0.099010 0.028726
v -0.025426 -0.180636 0.028726
v -0.148226 -0.208762 -0.000000
v -0.209724 -0.080926 -0.000000
v -0.129764 0.036251 0.000000
v 0.011694 0.025592 0.000000
v -0.012566 -0.009960 0.028727
v -0.028286 -0.032997 0.067029
v -0.111106 -0.002535 0.028727
v -0.099015 -0.027667 0.067029
v -0.166806 -0.084160 0.028726
v -0.138995 -0.086256 0.067029
v 0.002463 -0.096915 0.067029
v -0.037517 -0.155503 0.067029
v -0.123966 -0.173211 0.028726
v -0.108246 -0.150174 0.067029
v -0.047801 0.084771 0.000000
v 0.039352 0.157830 0.000000
v -0.015383 0.072955 0.056862
v 0.045327 0.123848 0.056862
v 0.146199 0.118884 0.000000
v 0.165893 0.006878 0.000000
v 0.078741 -0.066181 -0.000000
v -0.028106 -0.027234 -0.000000
v -0.001664 -0.005068 0.056862
v 0.015470 0.009295 0.132678
v 0.072766 -0.032198 0.056862
v 0.068894 -0.010178 0.132678
v 0.133476 0.018695 0.056862
v 0.112470 0.026351 0.132678
v 0.005623 0.065298 0.132678
v 0.049199 0.101828 0.132678
v 0.119757 0.096718 0.056862
v 0.102623 0.082354 0.132678
v -0.013848 0.117111 0.000000
v 0.107742 0.046911 0.000000
v -0.013848 0.074514 0.070200
v 0.070852 0.025613 0.070200
v 0.107742 -0.093489 -0.000000
v -0.013848 -0.163689 -0.000000
v -0.135438 -0.093489 -0.000000
v -0.135438 0.046911 0.000000
v -0.098547 0.025613 0.070200
v -0.074643 0.011811 0.163800
v -0.098547 -0.072190 0.070200
v -0.074643 -0.058389 0.163800
v -0.013848 -0.121091 0.070200
v -0.013848 -0.093489 0.163800
v -0.013848 0.046911 0.163800
v 0.046947 0.011811 0.163800
v 0.070852 -0.072190 0.070200
v 0.046947 -0.058389 0.163800
v 0.143604 0.038031 0.000000
v 0.218527 -0.019679 -0.000000
v 0.139806 0.009590 0.038302
v 0.191998 -0.030611 0.038302
v 0.206010 -0.113420 -0.000000
v 0.118570 -0.149451 -0.000000
v 0.043646 -0.091740 -0.000000
v 0.056163 0.002001 0.000000
v 0.078895 -0.015509 0.038302
v 0.093625 -0.026855 0.089371
v 0.070176 -0.080809 0.038302
v 0.087367 -0.073725 0.089371
v 0.122367 -0.121010 0.038302
v 0.124828 -0.102580 0.089371
v 0.137345 -0.008839 0.089371
v 0.174807 -0.037694 0.089371
v 0.183279 -0.095911 0.038302
v 0.168549 -0.084565 0.089371
v -0.099267 0.075582 0.108621
v -0.144571 0.074712 0.108621
v -0.103287 0.082246 0.117734
v -0.140809 0.081526 0.117734
v -0.146076 0.153180 0.108621
v -0.100773 0.154050 0.108621
v -0.142056 0.146516 0.117734
v -0.104534 0.147236 0.117734
v -0.167975 0.113512 0.108621
v -0.160194 0.113661 0.117734
v -0.085150 0.115101 0.117734
v -0.077368 0.115251 0.108621
v -0.025787 -0.029335 0.073167
v 0.006884 -0.097248 0.073167
v -0.033083 -0.040027 0.079305
v -0.006024 -0.096275 0.079305
v -0.110744 -0.153836 0.073167
v -0.143415 -0.085923 0.073167
v -0.103448 -0.143143 0.079305
v -0.130507 -0.086895 0.079305
v -0.028286 -0.032997 0.067029
v 0.002463 -0.096915 0.067029
v -0.035595 -0.159498 0.073167
v -0.041206 -0.147833 0.079305
v -0.095325 -0.035337 0.079305
v -0.138995 -0.086256 0.067029
v -0.099015 -0.027667 0.067029
v -0.100937 -0.023672 0.073167
v -0.108246 -0.150174 0.067029
v -0.037517 -0.155503 0.067029
v 0.012747 0.007012 0.144828
v 0.002284 0.066515 0.144828
v 0.020699 0.013679 0.156978
v 0.012034 0.062961 0.156978
v 0.105346 0.084637 0.144828
v 0.115809 0.025134 0.144828
v 0.097393 0.077971 0.156978
v 0.106059 0.028688 0.156978
v 0.048584 0.105328 0.144828
v 0.050381 0.095107 0.156978
v 0.067712 -0.003458 0.156978
v 0.069509 -0.013678 0.144828
v -0.078443 0.014005 0.178800
v -0.013848 0.051299 0.178800
v -0.067347 0.007599 0.193800
v -0.013848 0.038487 0.193800
v 0.050747 -0.060583 0.178800
v -0.013848 -0.097876 0.178800
v 0.039652 -0.054177 0.193800
v -0.013848 -0.085065 0.193800
v 0.050747 0.014005 0.178800
v 0.039652 0.007599 0.193800
v -0.067347 -0.054177 0.193800
v -0.078443 -0.060583 0.178800
v 0.091284 -0.025051 0.097556
v 0.137736 -0.005910 0.097556
v 0.098120 -0.030317 0.105740
v 0.136594 -0.014464 0.105740
v 0.170890 -0.086368 0.097556
v 0.124437 -0.105510 0.097556
v 0.164053 -0.081102 0.105740
v 0.125579 -0.096956 0.105740
v 0.093625 -0.026855 0.089371
v 0.137345 -0.008839 0.089371
v 0.177539 -0.036569 0.097556
v 0.169561 -0.039856 0.105740
v 0.092613 -0.071563 0.105740
v 0.124828 -0.102580 0.089371
v 0.087367 -0.073725 0.089371
v 0.084634 -0.074851 0.097556
v 0.168549 -0.084565 0.089371
v 0.174807 -0.037694 0.089371
vn -0.3646 0.6114 0.7023
vn 0.3646 -0.6114 0.7023
vn 0.6114 0.3646 0.7023
vn -0.6114 -0.3646 0.7023
vn -0.8098 -0.4829 0.3334
vn -0.4828 0.8098 0.3334
vn -0.3646 0.6115 0.7023
vn -0.8098 -0.4829 0.3333
vn 0.8098 0.4828 0.3334
vn -0.4829 0.8098 0.3334
vn 0.8098 0.4828 0.3333
vn -0.8098 -0.4828 0.3334
vn 0.4829 -0.8098 0.3334
vn -0.8098 -0.4828 0.3333
vn 0.3646 -0.6115 0.7023
vn 0.4828 -0.8098 0.3334
vn 0.8098 0.4829 0.3334
vn 0.4828 -0.8098 0.3333
vn 0.6115 0.3646 0.7023
vn -0.6592 0.2688 0.7023
vn 0.6592 -0.2688 0.7023
vn 0.2687 0.6592 0.7023
vn -0.6592 0.2687 0.7023
vn -0.2687 -0.6592 0.7023
vn -0.3559 -0.8730 0.3334
vn -0.8730 0.3559 0.3334
vn -0.3559 -0.8731 0.3333
vn -0.2688 -0.6592 0.7023
vn 0.3559 0.8730 0.3334
vn 0.3559 0.8730 0.3333
vn 0.8730 -0.3559 0.3334
vn -0.3559 -0.8730 0.3333
vn 0.2688 0.6592 0.7023
vn 0.8730 -0.3559 0.3333
vn 0.6592 -0.2687 0.7023
vn -0.1515 -0.6956 0.7023
vn 0.1515 0.6956 0.7023
vn -0.6956 0.1515 0.7023
vn 0.6956 -0.1515 0.7023
vn 0.9212 -0.2007 0.3334
vn -0.2007 -0.9212 0.3334
vn 0.9212 -0.2007 0.3333
vn 0.6956 -0.1516 0.7023
vn -0.1516 -0.6956 0.7023
vn -0.9212 0.2007 0.3334
vn -0.9212 0.2007 0.3333
vn 0.1516 0.6956 0.7023
vn 0.2007 0.9212 0.3334
vn -0.6956 0.1516 0.7023
vn 0.2007 0.9212 0.3333
vn 0.5675 0.4298 0.7023
vn -0.5675 -0.4298 0.7023
vn 0.4298 -0.5675 0.7023
vn -0.4299 0.5674 0.7023
vn -0.5693 0.7515 0.3334
vn 0.5674 0.4298 0.7023
vn 0.7515 0.5692 0.3334
vn -0.5693 0.7515 0.3333
vn -0.4298 0.5675 0.7023
vn 0.5692 -0.7515 0.3334
vn 0.7515 0.5693 0.3334
vn 0.5693 -0.7516 0.3333
vn 0.5675 0.4299 0.7023
vn -0.5692 0.7515 0.3334
vn -0.7515 -0.5693 0.3334
vn -0.5693 0.7516 0.3333
vn -0.5675 -0.4299 0.7023
vn -0.7515 -0.5692 0.3334
vn 0.5693 -0.7515 0.3334
vn -0.7516 -0.5693 0.3333
vn 0.4299 -0.5675 0.7023
vn 0.0582 0.7095 0.7023
vn -0.0582 -0.7095 0.7023
vn 0.7095 -0.0581 0.7023
vn -0.7095 0.0581 0.7023
vn -0.9396 0.0770 0.3334
vn 0.0581 0.7095 0.7023
vn 0.0771 0.9396 0.3334
vn -0.9397 0.0770 0.3333
vn -0.7095 0.0582 0.7023
vn 0.9396 -0.0771 0.3334
vn 0.0770 0.9396 0.3334
vn 0.9397 -0.0771 0.3333
vn 0.7095 -0.0582 0.7023
vn -0.9396 0.0771 0.3334
vn -0.0770 -0.9396 0.3334
vn -0.9397 0.0771 0.3333
vn -0.0771 -0.9396 0.3334
vn 0.9396 -0.0770 0.3334
vn -0.0771 -0.9397 0.3333
vn -0.4385 -0.7944 0.4203
vn -0.8547 -0.0164 0.5188
vn -0.4132 -0.7484 0.5188
vn -0.8548 -0.0164 0.5187
vn -0.9072 -0.0174 0.4203
vn -0.0000 -0.0000 -1.0000
vn 0.9072 0.0174 0.4203
vn 0.4954 -0.8213 0.2829
vn 0.4687 -0.7770 0.4203
vn 0.4954 -0.8213 0.2828
vn 0.9590 0.0184 0.2828
vn -0.4131 -0.7484 0.5188
vn 0.4416 -0.7320 0.5188
vn -0.4132 -0.7485 0.5187
vn 0.4635 0.8397 0.2829
vn 0.4385 0.7944 0.4203
vn 0.4635 0.8397 0.2828
vn -0.4635 -0.8397 0.2829
vn -0.4635 -0.8397 0.2828
vn -0.9590 -0.0184 0.2828
vn 0.8547 0.0164 0.5188
vn 0.8548 0.0164 0.5187
vn 0.4132 0.7484 0.5188
vn -0.4636 -0.8397 0.2828
vn -0.9590 -0.0184 0.2829
vn -0.4687 0.7769 0.4203
vn -0.4687 0.7770 0.4203
vn -0.4954 0.8213 0.2828
vn -0.4954 0.8213 0.2829
vn 0.4636 0.8397 0.2828
vn -0.4416 0.7320 0.5188
vn -0.8548 -0.0164 0.5188
vn -0.4416 0.7320 0.5187
vn 0.4131 0.7484 0.5188
vn 0.4132 0.7485 0.5187
vn 0.6564 -0.0494 0.7528
vn 0.2407 -0.5002 0.8318
vn 0.5536 -0.0417 0.8318
vn 0.2853 -0.5932 0.7528
vn -0.2853 0.5932 0.7528
vn 0.4557 0.6678 0.5886
vn 0.3710 0.5437 0.7528
vn -0.3504 0.7285 0.5887
vn 0.3129 0.4585 0.8318
vn 0.6564 -0.0495 0.7528
vn -0.8061 0.0607 0.5886
vn -0.2854 0.5931 0.7528
vn -0.6564 0.0495 0.7528
vn -0.2854 0.5932 0.7528
vn -0.3505 0.7285 0.5887
vn 0.8061 -0.0607 0.5886
vn 0.2854 -0.5931 0.7528
vn 0.2854 -0.5932 0.7528
vn 0.3505 -0.7285 0.5887
vn -0.2407 0.5003 0.8318
vn 0.3129 0.4586 0.8318
vn -0.6564 0.0494 0.7528
vn -0.2407 0.5002 0.8318
vn -0.5536 0.0417 0.8318
vn 0.4557 0.6677 0.5886
vn 0.8061 -0.0607 0.5887
vn 0.3504 -0.7285 0.5886
vn -0.3710 -0.5437 0.7528
vn 0.3505 -0.7285 0.5886
vn -0.4556 -0.6677 0.5887
vn -0.4557 -0.6677 0.5886
vn -0.8061 0.0607 0.5887
vn -0.3129 -0.4585 0.8318
vn 0.2407 -0.5003 0.8318
vn -0.8525 0.3108 0.4203
vn -0.1481 0.8420 0.5188
vn -0.8032 0.2928 0.5188
vn -0.1481 0.8420 0.5187
vn -0.1571 0.8937 0.4203
vn 0.1571 -0.8937 0.4203
vn -0.7351 -0.6162 0.2829
vn -0.6954 -0.5829 0.4203
vn -0.7351 -0.6162 0.2828
vn 0.1661 -0.9447 0.2828
vn -0.6552 -0.5492 0.5188
vn -0.8032 0.2928 0.5187
vn -0.8525 0.3107 0.4203
vn 0.9012 -0.3285 0.2829
vn 0.1572 -0.8937 0.4203
vn 0.8525 -0.3108 0.4203
vn 0.9012 -0.3285 0.2828
vn -0.9012 0.3285 0.2829
vn -0.1572 0.8937 0.4203
vn -0.9012 0.3285 0.2828
vn -0.1661 0.9447 0.2828
vn 0.1480 -0.8420 0.5188
vn -0.6551 -0.5492 0.5188
vn 0.1480 -0.8420 0.5187
vn 0.1481 -0.8420 0.5188
vn 0.8032 -0.2928 0.5188
vn 0.1481 -0.8420 0.5187
vn -0.7350 -0.6162 0.2829
vn -0.7350 -0.6162 0.2828
vn -0.1661 0.9447 0.2829
vn 0.6954 0.5829 0.4203
vn 0.7351 0.6162 0.2828
vn 0.7350 0.6162 0.2829
vn 0.8525 -0.3107 0.4203
vn 0.7350 0.6162 0.2828
vn 0.6551 0.5492 0.5188
vn -0.1480 0.8420 0.5188
vn 0.6552 0.5492 0.5187
vn 0.6552 0.5492 0.5188
vn 0.8032 -0.2928 0.5187
vn -0.0000 0.9074 0.4203
vn 0.7404 0.4275 0.5188
vn -0.0000 0.8549 0.5188
vn 0.7404 0.4275 0.5187
vn 0.7858 0.4537 0.4203
vn -0.7858 -0.4537 0.4203
vn -0.8306 0.4796 0.2829
vn -0.7858 0.4537 0.4203
vn -0.8307 0.4796 0.2828
vn -0.8307 -0.4796 0.2828
vn -0.7404 0.4275 0.5188
vn -0.0000 0.8549 0.5187
vn -0.0000 -0.9592 0.2829
vn -0.0000 -0.9074 0.4203
vn -0.0000 -0.9592 0.2828
vn -0.0000 0.9592 0.2829
vn -0.0000 0.9592 0.2828
vn 0.8307 0.4796 0.2828
vn -0.7404 -0.4274 0.5188
vn -0.7404 0.4274 0.5188
vn -0.7404 -0.4274 0.5187
vn -0.7404 -0.4275 0.5188
vn -0.0000 -0.8549 0.5188
vn -0.7404 -0.4275 0.5187
vn -0.8307 0.4796 0.2829
vn 0.8306 0.4796 0.2829
vn 0.7858 -0.4537 0.4203
vn 0.8307 -0.4796 0.2828
vn 0.8307 -0.4796 0.2829
vn 0.7404 -0.4274 0.5188
vn 0.7404 0.4274 0.5188
vn 0.7404 -0.4274 0.5187
vn 0.7404 -0.4275 0.5188
vn -0.0000 -0.8549 0.5187
vn 0.1149 0.8605 0.4964
vn 0.7400 0.3049 0.5996
vn 0.1059 0.7933 0.5996
vn 0.1149 0.8604 0.4964
vn 0.8026 0.3307 0.4964
vn -0.8026 -0.3307 0.4964
vn -0.7444 0.5734 0.3421
vn -0.6877 0.5297 0.4964
vn -0.8688 -0.3580 0.3421
vn -0.6340 0.4884 0.5996
vn -0.1244 -0.9314 0.3421
vn -0.1149 -0.8605 0.4964
vn 0.1244 0.9314 0.3421
vn 0.8688 0.3580 0.3421
vn -0.7400 -0.3049 0.5996
vn -0.1059 -0.7933 0.5996
vn -0.1149 -0.8604 0.4964
vn 0.6877 -0.5297 0.4964
vn 0.7444 -0.5734 0.3421
vn 0.6341 -0.4884 0.5996
vn 0.6340 -0.4884 0.5996
vn 0.2050 -0.3399 0.9178
vn -0.4700 -0.8513 0.2332
vn 0.5023 -0.8327 0.2331
vn -0.1918 -0.3475 0.9178
vn -0.2050 0.3399 0.9178
vn 0.4700 0.8513 0.2332
vn -0.5023 0.8327 0.2331
vn -0.2050 0.3399 0.9179
vn 0.1918 0.3475 0.9178
vn -0.4638 -0.8403 -0.2807
vn 0.4957 -0.8218 -0.2807
vn -0.4700 -0.8513 0.2331
vn -0.9723 -0.0186 0.2332
vn -0.9723 -0.0187 0.2332
vn -0.1918 -0.3475 0.9179
vn -0.3969 -0.0076 0.9178
vn -0.1919 -0.3475 0.9178
vn -0.2051 0.3399 0.9178
vn 0.1919 0.3475 0.9178
vn 0.2051 -0.3399 0.9178
vn 0.3969 0.0076 0.9178
vn 0.4700 0.8513 0.2331
vn 0.9596 0.0184 -0.2807
vn 0.4639 0.8402 -0.2807
vn 0.9723 0.0187 0.2331
vn 0.4958 -0.8218 -0.2807
vn 0.9723 0.0186 0.2331
vn 0.9723 0.0186 0.2332
vn 0.9723 0.0187 0.2332
vn 0.3969 0.0077 0.9178
vn 0.4638 0.8403 -0.2807
vn -0.4957 0.8218 -0.2807
vn -0.9596 -0.0184 -0.2807
vn -0.9723 -0.0186 0.2331
vn -0.4958 0.8218 -0.2807
vn -0.4639 -0.8402 -0.2807
vn -0.9723 -0.0187 0.2331
vn -0.5023 0.8327 0.2332
vn 0.0973 0.1425 0.9850
vn 0.8581 -0.0646 0.5094
vn 0.4851 0.7108 0.5094
vn 0.8581 -0.0647 0.5094
vn 0.1721 -0.0130 0.9850
vn -0.0973 -0.1425 0.9850
vn -0.8581 0.0646 0.5094
vn -0.4851 -0.7108 0.5094
vn -0.8581 0.0647 0.5094
vn -0.1721 0.0130 0.9850
vn 0.4850 0.7108 0.5094
vn 0.8084 -0.0609 -0.5855
vn 0.4569 0.6696 -0.5855
vn 0.3731 -0.7754 0.5094
vn 0.3730 -0.7755 0.5094
vn 0.1720 -0.0130 0.9850
vn 0.0748 -0.1555 0.9850
vn -0.0972 -0.1425 0.9850
vn -0.1720 0.0130 0.9850
vn 0.0972 0.1425 0.9850
vn -0.0748 0.1555 0.9850
vn -0.3514 0.7306 -0.5855
vn -0.8084 0.0609 -0.5855
vn -0.3514 0.7305 -0.5855
vn -0.3731 0.7754 0.5094
vn -0.3731 0.7755 0.5094
vn -0.3730 0.7755 0.5094
vn 0.4570 0.6696 -0.5855
vn -0.3515 0.7305 -0.5855
vn -0.4850 -0.7108 0.5094
vn -0.4569 -0.6696 -0.5855
vn 0.3514 -0.7305 -0.5855
vn 0.3515 -0.7305 -0.5855
vn -0.4570 -0.6696 -0.5855
vn 0.3514 -0.7306 -0.5855
vn -0.3042 -0.2550 0.9178
vn -0.9136 0.3330 0.2332
vn -0.7453 -0.6247 0.2331
vn -0.3730 0.1359 0.9178
vn 0.3042 0.2550 0.9178
vn 0.9136 -0.3330 0.2332
vn 0.7453 0.6247 0.2331
vn 0.3730 -0.1359 0.9178
vn -0.7452 -0.6247 0.2331
vn -0.9018 0.3287 -0.2807
vn -0.7355 -0.6166 -0.2807
vn -0.9136 0.3330 0.2331
vn -0.3730 0.1360 0.9178
vn -0.1684 0.9577 0.2332
vn -0.9136 0.3331 0.2331
vn -0.3729 0.1360 0.9178
vn -0.0688 0.3910 0.9178
vn -0.3729 0.1359 0.9178
vn 0.3729 -0.1360 0.9178
vn 0.3729 -0.1359 0.9178
vn 0.0688 -0.3910 0.9178
vn 0.9136 -0.3330 0.2331
vn 0.1662 -0.9453 -0.2807
vn 0.9017 -0.3287 -0.2807
vn 0.1684 -0.9577 0.2331
vn 0.1684 -0.9578 0.2331
vn 0.1684 -0.9577 0.2332
vn 0.9136 -0.3331 0.2331
vn 0.7452 0.6247 0.2331
vn 0.9018 -0.3287 -0.2807
vn 0.7355 0.6166 -0.2807
vn -0.1662 0.9453 -0.2807
vn -0.1684 0.9578 0.2331
vn 0.0687 -0.3910 0.9178
vn -0.9017 0.3287 -0.2807
vn -0.1684 0.9577 0.2331
vn -0.0688 0.3909 0.9178
vn 0.7452 0.6247 0.2332
vn -0.0687 0.3910 0.9178
vn -0.3438 0.1985 0.9178
vn -0.0000 0.9724 0.2332
vn -0.8421 0.4863 0.2331
vn -0.3437 0.1985 0.9179
vn -0.0000 0.3970 0.9178
vn 0.3438 -0.1985 0.9178
vn -0.0000 -0.9724 0.2332
vn 0.8421 -0.4863 0.2331
vn 0.3437 -0.1985 0.9178
vn -0.0000 -0.3970 0.9178
vn -0.8422 0.4862 0.2331
vn -0.0000 0.9598 -0.2807
vn -0.8312 0.4799 -0.2807
vn -0.0000 0.9724 0.2331
vn 0.8422 0.4862 0.2332
vn -0.0000 0.3969 0.9179
vn 0.3437 0.1985 0.9178
vn 0.3438 0.1985 0.9178
vn -0.3438 -0.1985 0.9178
vn -0.0000 -0.9724 0.2331
vn -0.8312 -0.4799 -0.2807
vn -0.0000 -0.9598 -0.2807
vn -0.8422 -0.4862 0.2331
vn -0.0000 -0.3969 0.9178
vn -0.8422 -0.4862 0.2332
vn 0.8422 -0.4862 0.2331
vn 0.8312 -0.4799 -0.2807
vn 0.8312 0.4799 -0.2807
vn 0.8422 0.4862 0.2331
vn -0.8421 -0.4862 0.2332
vn -0.3437 0.1984 0.9179
vn 0.8421 -0.4862 0.2332
vn 0.8422 -0.4862 0.2332
vn 0.3437 0.1984 0.9179
vn -0.2619 0.2018 0.9438
vn 0.1269 0.9504 0.2838
vn -0.7597 0.5851 0.2838
vn -0.2620 0.2017 0.9438
vn 0.0437 0.3277 0.9438
vn 0.2619 -0.2018 0.9438
vn -0.1269 -0.9504 0.2838
vn 0.7596 -0.5852 0.2838
vn 0.2620 -0.2017 0.9438
vn -0.0437 -0.3277 0.9438
vn 0.1245 0.9323 -0.3396
vn -0.7451 0.5740 -0.3397
vn 0.0438 0.3277 0.9438
vn 0.8866 0.3653 0.2838
vn 0.3057 0.1260 0.9438
vn 0.2619 -0.2017 0.9438
vn 0.0436 0.3277 0.9438
vn -0.0438 -0.3277 0.9438
vn -0.0436 -0.3277 0.9438
vn -0.2619 0.2017 0.9438
vn -0.3057 -0.1260 0.9438
vn -0.1269 -0.9505 0.2838
vn -0.8696 -0.3584 -0.3396
vn -0.1245 -0.9323 -0.3397
vn -0.8866 -0.3653 0.2838
vn -0.7452 0.5739 -0.3396
vn -0.8866 -0.3654 0.2838
vn -0.7596 0.5851 0.2838
vn -0.8865 -0.3654 0.2838
vn -0.7451 0.5739 -0.3396
vn -0.8696 -0.3583 -0.3397
vn 0.7597 -0.5851 0.2838
vn -0.1245 -0.9323 -0.3396
vn 0.7451 -0.5740 -0.3397
vn 0.8696 0.3583 -0.3396
vn 0.8696 0.3583 -0.3397
vn 0.7451 -0.5739 -0.3397
vn -0.7596 0.5852 0.2838
vn -0.8865 -0.3653 0.2838
vn -0.3057 -0.1259 0.9438
vn 0.1269 0.9505 0.2838
vn 0.1245 0.9323 -0.3397
vn 0.3057 0.1259 0.9438
vn 0.7596 -0.5851 0.2838
vt 0.718750 0.175000
vt 0.718750 0.175000
vt 0.718750 0.175000
vt 0.718750 0.175000
vt 0.718750 0.075000
vt 0.718750 0.075000
vt 0.718750 0.075000
vt 0.718750 0.075000
vt 0.718750 0.175000
vt 0.718750 0.175000
vt 0.718750 0.175000
vt 0.718750 0.175000
vt 0.718750 0.075000
vt 0.718750 0.075000
vt 0.718750 0.075000
vt 0.718750 0.075000
vt 0.718750 0.175000
vt 0.718750 0.175000
vt 0.718750 0.175000
vt 0.718750 0.175000
vt 0.718750 0.075000
vt 0.718750 0.075000
vt 0.718750 0.075000
vt 0.718750 0.075000
vt 0.718750 0.175000
vt 0.718750 0.175000
vt 0.718750 0.175000
vt 0.718750 0.175000
vt 0.718750 0.075000
vt 0.718750 0.075000
vt 0.718750 0.075000
vt 0.718750 0.075000
vt 0.718750 0.175000
vt 0.718750 0.175000
vt 0.718750 0.175000
vt 0.718750 0.175000
vt 0.718750 0.075000
vt 0.718750 0.075000
vt 0.718750 0.075000
vt 0.718750 0.075000
vt 0.718750 0.025000
vt 0.718750 0.025000
vt 0.718750 0.110714
vt 0.718750 0.110714
vt 0.718750 0.025000
vt 0.718750 0.025000
vt 0.718750 0.025000
vt 0.718750 0.025000
vt 0.718750 0.110714
vt 0.718750 0.225000
vt 0.093750 0.025000
vt 0.718750 0.110714
vt 0.718750 0.225000
vt 0.093750 0.025000
vt 0.718750 0.110714
vt 0.718750 0.225000
vt 0.093750 0.025000
vt 0.718750 0.225000
vt 0.093750 0.025000
vt 0.718750 0.225000
vt 0.093750 0.025000
vt 0.718750 0.110714
vt 0.718750 0.225000
vt 0.093750 0.025000
vt 0.718750 0.025000
vt 0.718750 0.025000
vt 0.718750 0.110714
vt 0.718750 0.110714
vt 0.718750 0.025000
vt 0.718750 0.025000
vt 0.718750 0.025000
vt 0.718750 0.025000
vt 0.718750 0.110714
vt 0.718750 0.225000
vt 0.718750 0.110714
vt 0.718750 0.225000
vt 0.718750 0.110714
vt 0.718750 0.225000
vt 0.718750 0.225000
vt 0.718750 0.225000
vt 0.718750 0.110714
vt 0.718750 0.225000
vt 0.718750 0.025000
vt 0.718750 0.025000
vt 0.718750 0.110714
vt 0.718750 0.110714
vt 0.718750 0.025000
vt 0.718750 0.025000
vt 0.718750 0.025000
vt 0.718750 0.025000
vt 0.718750 0.110714
vt 0.718750 0.225000
vt 0.093750 0.025000
vt 0.718750 0.110714
vt 0.718750 0.225000
vt 0.093750 0.025000
vt 0.718750 0.110714
vt 0.718750 0.225000
vt 0.093750 0.025000
vt 0.718750 0.225000
vt 0.093750 0.025000
vt 0.718750 0.225000
vt 0.093750 0.025000
vt 0.718750 0.110714
vt 0.718750 0.225000
vt 0.093750 0.025000
vt 0.718750 0.025000
vt 0.718750 0.025000
vt 0.718750 0.110714
vt 0.718750 0.110714
vt 0.718750 0.025000
vt 0.718750 0.025000
vt 0.718750 0.025000
vt 0.718750 0.025000
vt 0.718750 0.110714
vt 0.718750 0.225000
vt 0.093750 0.025000
vt 0.718750 0.110714
vt 0.718750 0.225000
vt 0.093750 0.025000
vt 0.718750 0.110714
vt 0.718750 0.225000
vt 0.093750 0.025000
vt 0.718750 0.225000
vt 0.093750 0.025000
vt 0.718750 0.225000
vt 0.093750 0.025000
vt 0.718750 0.110714
vt 0.718750 0.225000
vt 0.093750 0.025000
vt 0.718750 0.025000
vt 0.718750 0.025000
vt 0.718750 0.110714
vt 0.718750 0.110714
vt 0.718750 0.025000
vt 0.718750 0.025000
vt 0.718750 0.025000
vt 0.718750 0.025000
vt 0.718750 0.110714
vt 0.718750 0.225000
vt 0.718750 0.110714
vt 0.718750 0.225000
vt 0.718750 0.110714
vt 0.718750 0.225000
vt 0.718750 0.225000
vt 0.718750 0.225000
vt 0.718750 0.110714
vt 0.718750 0.225000
vt 0.093750 0.125000
vt 0.093750 0.125000
vt 0.093750 0.225000
vt 0.093750 0.225000
vt 0.093750 0.125000
vt 0.093750 0.125000
vt 0.093750 0.225000
vt 0.093750 0.225000
vt 0.093750 0.125000
vt 0.093750 0.225000
vt 0.093750 0.225000
vt 0.093750 0.125000
vt 0.093750 0.125000
vt 0.093750 0.125000
vt 0.093750 0.225000
vt 0.093750 0.225000
vt 0.093750 0.125000
vt 0.093750 0.125000
vt 0.093750 0.225000
vt 0.093750 0.225000
vt 0.093750 0.025000
vt 0.093750 0.025000
vt 0.093750 0.125000
vt 0.093750 0.225000
vt 0.093750 0.225000
vt 0.093750 0.025000
vt 0.093750 0.025000
vt 0.093750 0.125000
vt 0.093750 0.025000
vt 0.093750 0.025000
vt 0.093750 0.125000
vt 0.093750 0.125000
vt 0.093750 0.225000
vt 0.093750 0.225000
vt 0.093750 0.125000
vt 0.093750 0.125000
vt 0.093750 0.225000
vt 0.093750 0.225000
vt 0.093750 0.125000
vt 0.093750 0.225000
vt 0.093750 0.225000
vt 0.093750 0.125000
vt 0.093750 0.125000
vt 0.093750 0.125000
vt 0.093750 0.225000
vt 0.093750 0.225000
vt 0.093750 0.125000
vt 0.093750 0.125000
vt 0.093750 0.225000
vt 0.093750 0.225000
vt 0.093750 0.125000
vt 0.093750 0.225000
vt 0.093750 0.225000
vt 0.093750 0.125000
vt 0.093750 0.125000
vt 0.093750 0.125000
vt 0.093750 0.225000
vt 0.093750 0.225000
vt 0.093750 0.125000
vt 0.093750 0.125000
vt 0.093750 0.225000
vt 0.093750 0.225000
vt 0.093750 0.025000
vt 0.093750 0.025000
vt 0.093750 0.125000
vt 0.093750 0.225000
vt 0.093750 0.225000
vt 0.093750 0.025000
vt 0.093750 0.025000
vt 0.093750 0.125000
vt 0.093750 0.025000
vt 0.093750 0.025000
s 0
f 3/3/1 2/2/2 1/1/3
f 2/2/2 3/3/1 4/4/4
f 6/6/5 3/3/1 5/5/6
f 3/3/7 6/6/8 4/4/4
f 3/3/1 7/7/9 5/5/10
f 7/7/11 3/3/7 1/1/3
f 2/2/2 6/6/12 8/8/13
f 6/6/14 2/2/15 4/4/4
f 1/1/3 8/8/16 7/7/17
f 8/8/18 1/1/19 2/2/2
f 11/11/20 10/10/21 9/9/22
f 10/10/21 11/11/23 12/12/24
f 14/14/25 11/11/23 13/13/26
f 11/11/20 14/14/27 12/12/28
f 11/11/20 15/15/29 13/13/26
f 15/15/30 11/11/20 9/9/22
f 10/10/21 14/14/25 16/16/31
f 14/14/32 10/10/21 12/12/24
f 9/9/33 16/16/31 15/15/29
f 16/16/34 9/9/33 10/10/35
f 19/19/36 18/18/37 17/17/38
f 18/18/37 19/19/36 20/20/39
f 22/22/40 19/19/36 21/21/41
f 19/19/36 22/22/42 20/20/43
f 19/19/44 23/23/45 21/21/41
f 23/23/46 19/19/36 17/17/38
f 18/18/47 22/22/40 24/24/48
f 22/22/42 18/18/37 20/20/39
f 17/17/49 24/24/48 23/23/45
f 24/24/50 17/17/38 18/18/37
f 27/27/51 26/26/52 25/25/53
f 26/26/52 27/27/51 28/28/54
f 30/30/55 27/27/56 29/29/57
f 27/27/51 30/30/58 28/28/59
f 27/27/51 31/31/60 29/29/61
f 31/31/62 27/27/63 25/25/53
f 26/26/52 30/30/64 32/32/65
f 30/30/66 26/26/67 28/28/59
f 25/25/53 32/32/68 31/31/69
f 32/32/70 25/25/71 26/26/52
f 35/35/72 34/34/73 33/33/74
f 34/34/73 35/35/72 36/36/75
f 38/38/76 35/35/77 37/37/78
f 35/35/72 38/38/79 36/36/80
f 35/35/72 39/39/81 37/37/82
f 39/39/83 35/35/72 33/33/84
f 34/34/73 38/38/85 40/40/86
f 38/38/87 34/34/73 36/36/80
f 33/33/84 40/40/88 39/39/89
f 40/40/90 33/33/84 34/34/73
f 43/43/91 42/42/92 41/41/93
f 42/42/94 43/43/91 44/44/95
f 46/46/96 42/42/96 45/45/96
f 42/42/96 46/46/96 41/41/96
f 41/41/96 46/46/96 47/47/96
f 41/41/96 47/47/96 48/48/96
f 51/52/97 50/50/98 49/49/99
f 50/50/100 51/52/97 52/53/101
f 49/49/99 41/41/102 48/48/103
f 41/41/104 49/49/99 43/43/91
f 54/56/105 51/52/97 53/55/106
f 51/52/97 54/56/107 52/53/101
f 55/58/108 44/44/95 43/43/91
f 44/44/95 55/58/109 56/60/110
f 47/47/111 49/49/99 48/48/103
f 49/49/99 47/47/112 51/52/97
f 53/55/106 47/47/111 46/46/113
f 47/47/112 53/55/106 51/52/97
f 50/50/98 43/43/91 49/49/99
f 43/43/91 50/50/100 55/58/114
f 56/60/115 57/62/116 44/44/95
f 57/62/117 56/60/110 58/63/118
f 58/63/119 53/55/106 57/62/117
f 53/55/106 58/63/118 54/56/120
f 44/44/95 45/45/121 42/42/122
f 45/45/123 44/44/95 57/62/117
f 57/62/117 46/46/124 45/45/121
f 46/46/125 57/62/117 53/55/106
f 61/67/126 60/66/127 59/65/128
f 60/66/127 61/67/126 62/68/129
f 64/70/96 60/66/96 63/69/96
f 60/66/96 64/70/96 59/65/96
f 59/65/96 64/70/96 65/71/96
f 59/65/96 65/71/96 66/72/96
f 69/75/130 68/74/131 67/73/132
f 68/74/131 69/75/130 70/76/133
f 67/73/132 59/65/128 66/72/134
f 59/65/128 67/73/132 61/67/135
f 72/78/136 69/75/137 71/77/138
f 69/75/139 72/78/136 70/76/140
f 73/79/141 62/68/142 61/67/135
f 62/68/143 73/79/141 74/80/144
f 65/71/145 67/73/132 66/72/146
f 67/73/132 65/71/145 69/75/139
f 71/77/147 65/71/148 64/70/149
f 65/71/148 71/77/147 69/75/130
f 68/74/150 61/67/126 67/73/132
f 61/67/126 68/74/150 73/79/151
f 74/80/152 75/81/153 62/68/129
f 75/81/153 74/80/154 76/82/155
f 76/82/156 71/77/147 75/81/153
f 71/77/147 76/82/156 72/78/157
f 62/68/142 63/69/158 60/66/159
f 63/69/158 62/68/142 75/81/153
f 75/81/153 64/70/149 63/69/158
f 64/70/149 75/81/153 71/77/138
f 79/85/160 78/84/161 77/83/162
f 78/84/163 79/85/160 80/86/164
f 82/88/96 78/84/96 81/87/96
f 78/84/96 82/88/96 77/83/96
f 77/83/96 82/88/96 83/89/96
f 77/83/96 83/89/96 84/90/96
f 87/94/165 86/92/166 85/91/167
f 86/92/168 87/94/165 88/95/169
f 85/91/167 77/83/162 84/90/170
f 77/83/171 85/91/167 79/85/172
f 90/98/173 87/94/174 89/97/175
f 87/94/165 90/98/176 88/95/169
f 91/100/177 80/86/178 79/85/160
f 80/86/164 91/100/179 92/102/180
f 83/89/181 85/91/167 84/90/182
f 85/91/167 83/89/183 87/94/165
f 89/97/175 83/89/184 82/88/185
f 83/89/186 89/97/175 87/94/165
f 86/92/187 79/85/172 85/91/167
f 79/85/160 86/92/188 91/100/179
f 92/102/189 93/104/190 80/86/164
f 93/104/190 92/102/180 94/105/191
f 94/105/192 89/97/193 93/104/190
f 89/97/175 94/105/194 90/98/176
f 80/86/164 81/87/195 78/84/196
f 81/87/197 80/86/164 93/104/190
f 93/104/190 82/88/185 81/87/198
f 82/88/199 93/104/190 89/97/193
f 97/109/200 96/108/201 95/107/202
f 96/108/203 97/109/200 98/110/204
f 100/112/96 96/108/96 99/111/96
f 96/108/96 100/112/96 95/107/96
f 95/107/96 100/112/96 101/113/96
f 95/107/96 101/113/96 102/114/96
f 105/118/205 104/116/206 103/115/207
f 104/116/208 105/118/205 106/119/209
f 103/115/207 95/107/202 102/114/210
f 95/107/211 103/115/207 97/109/200
f 108/122/212 105/118/205 107/121/213
f 105/118/205 108/122/214 106/119/209
f 109/124/215 98/110/204 97/109/200
f 98/110/204 109/124/216 110/126/217
f 101/113/218 103/115/207 102/114/219
f 103/115/207 101/113/220 105/118/205
f 107/121/213 101/113/221 100/112/222
f 101/113/223 107/121/213 105/118/205
f 104/116/224 97/109/200 103/115/207
f 97/109/200 104/116/208 109/124/216
f 110/126/225 111/128/226 98/110/204
f 111/128/226 110/126/217 112/129/227
f 112/129/228 107/121/213 111/128/226
f 107/121/213 112/129/227 108/122/214
f 98/110/204 99/111/229 96/108/230
f 99/111/231 98/110/204 111/128/226
f 111/128/226 100/112/222 99/111/232
f 100/112/233 111/128/226 107/121/213
f 115/133/234 114/132/235 113/131/236
f 114/132/235 115/133/237 116/134/238
f 118/136/96 114/132/96 117/135/96
f 114/132/96 118/136/96 113/131/96
f 113/131/96 118/136/96 119/137/96
f 113/131/96 119/137/96 120/138/96
f 123/141/239 122/140/240 121/139/241
f 122/140/240 123/141/239 124/142/242
f 121/139/241 113/131/236 120/138/243
f 113/131/236 121/139/241 115/133/234
f 126/144/244 123/141/239 125/143/245
f 123/141/239 126/144/244 124/142/242
f 127/145/246 116/134/238 115/133/234
f 116/134/238 127/145/246 128/146/247
f 119/137/248 121/139/241 120/138/243
f 121/139/241 119/137/248 123/141/239
f 125/143/245 119/137/248 118/136/249
f 119/137/248 125/143/250 123/141/239
f 122/140/240 115/133/237 121/139/241
f 115/133/237 122/140/240 127/145/246
f 128/146/247 129/147/251 116/134/238
f 129/147/251 128/146/247 130/148/252
f 130/148/252 125/143/250 129/147/251
f 125/143/250 130/148/252 126/144/244
f 116/134/238 117/135/253 114/132/235
f 117/135/254 116/134/238 129/147/251
f 129/147/251 118/136/249 117/135/254
f 118/136/249 129/147/251 125/143/245
f 133/151/255 132/150/256 131/149/257
f 132/150/256 133/151/255 134/152/258
f 137/155/259 136/154/260 135/153/261
f 136/154/260 137/155/262 138/156/263
f 131/149/257 55/59/264 50/51/265
f 55/59/264 131/149/257 132/150/266
f 134/152/258 139/157/267 132/150/266
f 139/157/268 134/152/269 140/158/270
f 134/152/271 137/155/272 140/158/270
f 137/155/259 134/152/258 138/156/273
f 138/156/263 134/152/271 133/151/255
f 138/156/273 133/151/274 141/159/275
f 136/154/276 52/54/277 54/57/278
f 52/54/277 136/154/276 142/160/279
f 50/51/280 142/160/281 131/149/257
f 142/160/279 50/51/280 52/54/277
f 138/156/263 142/160/282 136/154/276
f 142/160/283 138/156/273 141/159/284
f 135/153/261 54/57/285 58/64/286
f 54/57/285 135/153/261 136/154/276
f 135/153/261 56/61/287 139/157/288
f 56/61/287 135/153/261 58/64/289
f 142/160/283 133/151/255 131/149/257
f 133/151/274 142/160/283 141/159/275
f 132/150/266 56/61/287 55/59/290
f 56/61/287 132/150/266 139/157/291
f 140/158/270 135/153/292 139/157/288
f 135/153/292 140/158/270 137/155/272
f 145/163/293 144/162/294 143/161/295
f 144/162/296 145/163/293 146/164/297
f 149/167/298 148/166/299 147/165/300
f 148/166/301 149/167/298 150/168/302
f 143/161/303 152/170/304 151/169/305
f 152/170/304 143/161/303 144/162/294
f 146/164/297 153/171/306 144/162/296
f 153/171/307 146/164/308 154/172/309
f 146/164/308 149/167/310 154/172/309
f 149/167/310 146/164/308 150/168/311
f 150/168/311 146/164/308 145/163/312
f 150/168/311 145/163/312 155/173/313
f 148/166/301 157/175/314 156/174/315
f 157/175/316 148/166/299 158/176/317
f 151/169/305 158/176/318 143/161/303
f 158/176/319 151/169/320 157/175/321
f 150/168/302 158/176/317 148/166/301
f 158/176/319 150/168/311 155/173/313
f 147/165/322 156/174/315 159/177/323
f 156/174/315 147/165/322 148/166/299
f 147/165/322 160/178/324 153/171/307
f 160/178/325 147/165/322 159/177/326
f 158/176/319 145/163/293 143/161/303
f 145/163/312 158/176/317 155/173/313
f 144/162/296 160/178/327 152/170/304
f 160/178/324 144/162/294 153/171/306
f 154/172/309 147/165/322 153/171/307
f 147/165/322 154/172/309 149/167/298
f 163/181/328 162/180/329 161/179/330
f 162/180/329 163/181/328 164/182/331
f 167/185/332 166/184/333 165/183/334
f 166/184/333 167/185/332 168/186/335
f 161/179/336 91/101/337 86/93/338
f 91/101/337 161/179/336 162/180/339
f 164/182/340 169/187/341 162/180/342
f 169/187/341 164/182/343 170/188/344
f 164/182/343 167/185/332 170/188/344
f 167/185/332 164/182/345 168/186/346
f 168/186/347 164/182/343 163/181/328
f 168/186/346 163/181/328 171/189/348
f 166/184/349 88/96/350 90/99/351
f 88/96/350 166/184/349 172/190/352
f 86/93/338 172/190/353 161/179/336
f 172/190/353 86/93/338 88/96/350
f 168/186/347 172/190/354 166/184/355
f 172/190/354 168/186/346 171/189/348
f 165/183/356 90/99/357 94/106/358
f 90/99/357 165/183/356 166/184/349
f 165/183/356 92/103/359 169/187/360
f 92/103/359 165/183/356 94/106/358
f 172/190/354 163/181/328 161/179/336
f 163/181/328 172/190/354 171/189/361
f 162/180/339 92/103/359 91/101/362
f 92/103/359 162/180/339 169/187/363
f 170/188/364 165/183/365 169/187/360
f 165/183/365 170/188/366 167/185/332
f 175/193/367 174/192/368 173/191/369
f 174/192/368 175/193/370 176/194/371
f 179/197/372 178/196/373 177/195/374
f 178/196/373 179/197/375 180/198/376
f 173/191/377 109/125/378 104/117/379
f 109/125/378 173/191/377 174/192/380
f 176/194/371 181/199/381 174/192/380
f 181/199/381 176/194/382 182/200/383
f 176/194/371 179/197/372 182/200/384
f 179/197/372 176/194/371 180/198/376
f 180/198/376 176/194/371 175/193/367
f 180/198/376 175/193/367 183/201/385
f 178/196/386 106/120/387 108/123/388
f 106/120/387 178/196/386 184/202/389
f 104/117/379 184/202/389 173/191/377
f 184/202/389 104/117/379 106/120/387
f 180/198/390 184/202/391 178/196/386
f 184/202/391 180/198/390 183/201/385
f 177/195/392 108/123/388 112/130/393
f 108/123/388 177/195/392 178/196/386
f 177/195/392 110/127/394 181/199/395
f 110/127/394 177/195/392 112/130/393
f 184/202/396 175/193/367 173/191/377
f 175/193/397 184/202/391 183/201/385
f 174/192/380 110/127/394 109/125/378
f 110/127/394 174/192/380 181/199/395
f 182/200/384 177/195/398 181/199/395
f 177/195/399 182/200/400 179/197/372
f 187/205/401 186/204/402 185/203/403
f 186/204/402 187/205/404 188/206/405
f 191/209/406 190/208/407 189/207/408
f 190/208/407 191/209/409 192/210/410
f 185/203/403 194/212/411 193/211/412
f 194/212/411 185/203/403 186/204/402
f 188/206/413 195/213/414 186/204/402
f 195/213/414 188/206/405 196/214/415
f 188/206/413 191/209/416 196/214/415
f 191/209/406 188/206/417 192/210/418
f 192/210/419 188/206/413 187/205/401
f 192/210/418 187/205/420 197/215/421
f 190/208/422 199/217/423 198/216/424
f 199/217/423 190/208/422 200/218/425
f 193/211/426 200/218/427 185/203/428
f 200/218/429 193/211/430 199/217/431
f 192/210/418 200/218/425 190/208/407
f 200/218/425 192/210/410 197/215/421
f 189/207/432 198/216/433 201/219/434
f 198/216/433 189/207/432 190/208/407
f 189/207/408 202/220/435 195/213/414
f 202/220/436 189/207/408 201/219/437
f 200/218/425 187/205/420 185/203/438
f 187/205/401 200/218/439 197/215/440
f 186/204/441 202/220/435 194/212/442
f 202/220/436 186/204/441 195/213/414
f 196/214/443 189/207/444 195/213/414
f 189/207/444 196/214/415 191/209/416
f 3/3/1 2/2/2 1/1/3
f 2/2/2 3/3/1 4/4/4
f 6/6/5 3/3/1 5/5/6
f 3/3/7 6/6/8 4/4/4
f 3/3/1 7/7/9 5/5/10
f 7/7/11 3/3/7 1/1/3
f 2/2/2 6/6/12 8/8/13
f 6/6/14 2/2/15 4/4/4
f 1/1/3 8/8/16 7/7/17
f 8/8/18 1/1/19 2/2/2
f 11/11/20 10/10/21 9/9/22
f 10/10/21 11/11/23 12/12/24
f 14/14/25 11/11/23 13/13/26
f 11/11/20 14/14/27 12/12/28
f 11/11/20 15/15/29 13/13/26
f 15/15/30 11/11/20 9/9/22
f 10/10/21 14/14/25 16/16/31
f 14/14/32 10/10/21 12/12/24
f 9/9/33 16/16/31 15/15/29
f 16/16/34 9/9/33 10/10/35
f 19/19/36 18/18/37 17/17/38
f 18/18/37 19/19/36 20/20/39
f 22/22/40 19/19/36 21/21/41
f 19/19/36 22/22/42 20/20/43
f 19/19/44 23/23/45 21/21/41
f 23/23/46 19/19/36 17/17/38
f 18/18/47 22/22/40 24/24/48
f 22/22/42 18/18/37 20/20/39
f 17/17/49 24/24/48 23/23/45
f 24/24/50 17/17/38 18/18/37
f 27/27/51 26/26/52 25/25/53
f 26/26/52 27/27/51 28/28/54
f 30/30/55 27/27/56 29/29/57
f 27/27/51 30/30/58 28/28/59
f 27/27/51 31/31/60 29/29/61
f 31/31/62 27/27/63 25/25/53
f 26/26/52 30/30/64 32/32/65
f 30/30/66 26/26/67 28/28/59
f 25/25/53 32/32/68 31/31/69
f 32/32/70 25/25/71 26/26/52
f 35/35/72 34/34/73 33/33/74
f 34/34/73 35/35/72 36/36/75
f 38/38/76 35/35/77 37/37/78
f 35/35/72 38/38/79 36/36/80
f 35/35/72 39/39/81 37/37/82
f 39/39/83 35/35/72 33/33/84
f 34/34/73 38/38/85 40/40/86
f 38/38/87 34/34/73 36/36/80
f 33/33/84 40/40/88 39/39/89
f 40/40/90 33/33/84 34/34/73
f 43/43/91 42/42/92 41/41/93
f 42/42/94 43/43/91 44/44/95
f 46/46/96 42/42/96 45/45/96
f 42/42/96 46/46/96 41/41/96
f 41/41/96 46/46/96 47/47/96
f 41/41/96 47/47/96 48/48/96
f 51/52/97 50/50/98 49/49/99
f 50/50/100 51/52/97 52/53/101
f 49/49/99 41/41/102 48/48/103
f 41/41/104 49/49/99 43/43/91
f 54/56/105 51/52/97 53/55/106
f 51/52/97 54/56/107 52/53/101
f 55/58/108 44/44/95 43/43/91
f 44/44/95 55/58/109 56/60/110
f 47/47/111 49/49/99 48/48/103
f 49/49/99 47/47/112 51/52/97
f 53/55/106 47/47/111 46/46/113
f 47/47/112 53/55/106 51/52/97
f 50/50/98 43/43/91 49/49/99
f 43/43/91 50/50/100 55/58/114
f 56/60/115 57/62/116 44/44/95
f 57/62/117 56/60/110 58/63/118
f 58/63/119 53/55/106 57/62/117
f 53/55/106 58/63/118 54/56/120
f 44/44/95 45/45/121 42/42/122
f 45/45/123 44/44/95 57/62/117
f 57/62/117 46/46/124 45/45/121
f 46/46/125 57/62/117 53/55/106
f 61/67/126 60/66/127 59/65/128
f 60/66/127 61/67/126 62/68/129
f 64/70/96 60/66/96 63/69/96
f 60/66/96 64/70/96 59/65/96
f 59/65/96 64/70/96 65/71/96
f 59/65/96 65/71/96 66/72/96
f 69/75/130 68/74/131 67/73/132
f 68/74/131 69/75/130 70/76/133
f 67/73/132 59/65/128 66/72/134
f 59/65/128 67/73/132 61/67/135
f 72/78/136 69/75/137 71/77/138
f 69/75/139 72/78/136 70/76/140
f 73/79/141 62/68/142 61/67/135
f 62/68/143 73/79/141 74/80/144
f 65/71/145 67/73/132 66/72/146
f 67/73/132 65/71/145 69/75/139
f 71/77/147 65/71/148 64/70/149
f 65/71/148 71/77/147 69/75/130
f 68/74/150 61/67/126 67/73/132
f 61/67/126 68/74/150 73/79/151
f 74/80/152 75/81/153 62/68/129
f 75/81/153 74/80/154 76/82/155
f 76/82/156 71/77/147 75/81/153
f 71/77/147 76/82/156 72/78/157
f 62/68/142 63/69/158 60/66/159
f 63/69/158 62/68/142 75/81/153
f 75/81/153 64/70/149 63/69/158
f 64/70/149 75/81/153 71/77/138
f 79/85/160 78/84/161 77/83/162
f 78/84/163 79/85/160 80/86/164
f 82/88/96 78/84/96 81/87/96
f 78/84/96 82/88/96 77/83/96
f 77/83/96 82/88/96 83/89/96
f 77/83/96 83/89/96 84/90/96
f 87/94/165 86/92/166 85/91/167
f 86/92/168 87/94/165 88/95/169
f 85/91/167 77/83/162 84/90/170
f 77/83/171 85/91/167 79/85/172
f 90/98/173 87/94/174 89/97/175
f 87/94/165 90/98/176 88/95/169
f 91/100/177 80/86/178 79/85/160
f 80/86/164 91/100/179 92/102/180
f 83/89/181 85/91/167 84/90/182
f 85/91/167 83/89/183 87/94/165
f 89/97/175 83/89/184 82/88/185
f 83/89/186 89/97/175 87/94/165
f 86/92/187 79/85/172 85/91/167
f 79/85/160 86/92/188 91/100/179
f 92/102/189 93/104/190 80/86/164
f 93/104/190 92/102/180 94/105/191
f 94/105/192 89/97/193 93/104/190
f 89/97/175 94/105/194 90/98/176
f 80/86/164 81/87/195 78/84/196
f 81/87/197 80/86/164 93/104/190
f 93/104/190 82/88/185 81/87/198
f 82/88/199 93/104/190 89/97/193
f 97/109/200 96/108/201 95/107/202
f 96/108/203 97/109/200 98/110/204
f 100/112/96 96/108/96 99/111/96
f 96/108/96 100/112/96 95/107/96
f 95/107/96 100/112/96 101/113/96
f 95/107/96 101/113/96 102/114/96
f 105/118/205 104/116/206 103/115/207
f 104/116/208 105/118/205 106/119/209
f 103/115/207 95/107/202 102/114/210
f 95/107/211 103/115/207 97/109/200
f 108/122/212 105/118/205 107/121/213
f 105/118/205 108/122/214 106/119/209
f 109/124/215 98/110/204 97/109/200
f 98/110/204 109/124/216 110/126/217
f 101/113/218 103/115/207 102/114/219
f 103/115/207 101/113/220 105/118/205
f 107/121/213 101/113/221 100/112/222
f 101/113/223 107/121/213 105/118/205
f 104/116/224 97/109/200 103/115/207
f 97/109/200 104/116/208 109/124/216
f 110/126/225 111/128/226 98/110/204
f 111/128/226 110/126/217 112/129/227
f 112/129/228 107/121/213 111/128/226
f 107/121/213 112/129/227 108/122/214
f 98/110/204 99/111/229 96/108/230
f 99/111/231 98/110/204 111/128/226
f 111/128/226 100/112/222 99/111/232
f 100/112/233 111/128/226 107/121/213
f 115/133/234 114/132/235 113/131/236
f 114/132/235 115/133/237 116/134/238
f 118/136/96 114/132/96 117/135/96
f 114/132/96 118/136/96 113/131/96
f 113/131/96 118/136/96 119/137/96
f 113/131/96 119/137/96 120/138/96
f 123/141/239 122/140/240 121/139/241
f 122/140/240 123/141/239 124/142/242
f 121/139/241 113/131/236 120/138/243
f 113/131/236 121/139/241 115/133/234
f 126/144/244 123/141/239 125/143/245
f 123/141/239 126/144/244 124/142/242
f 127/145/246 116/134/238 115/133/234
f 116/134/238 127/145/246 128/146/247
f 119/137/248 121/139/241 120/138/243
f 121/139/241 119/137/248 123/141/239
f 125/143/245 119/137/248 118/136/249
f 119/137/248 125/143/250 123/141/239
f 122/140/240 115/133/237 121/139/241
f 115/133/237 122/140/240 127/145/246
f 128/146/247 129/147/251 116/134/238
f 129/147/251 128/146/247 130/148/252
f 130/148/252 125/143/250 129/147/251
f 125/143/250 130/148/252 126/144/244
f 116/134/238 117/135/253 114/132/235
f 117/135/254 116/134/238 129/147/251
f 129/147/251 118/136/249 117/135/254
f 118/136/249 129/147/251 125/143/245
f 133/151/255 132/150/256 131/149/257
f 132/150/256 133/151/255 134/152/258
f 137/155/259 136/154/260 135/153/261
f 136/154/260 137/155/262 138/156/263
f 131/149/257 55/59/264 50/51/265
f 55/59/264 131/149/257 132/150/266
f 134/152/258 139/157/267 132/150/266
f 139/157/268 134/152/269 140/158/270
f 134/152/271 137/155/272 140/158/270
f 137/155/259 134/152/258 138/156/273
f 138/156/263 134/152/271 133/151/255
f 138/156/273 133/151/274 141/159/275
f 136/154/276 52/54/277 54/57/278
f 52/54/277 136/154/276 142/160/279
f 50/51/280 142/160/281 131/149/257
f 142/160/279 50/51/280 52/54/277
f 138/156/263 142/160/282 136/154/276
f 142/160/283 138/156/273 141/159/284
f 135/153/261 54/57/285 58/64/286
f 54/57/285 135/153/261 136/154/276
f 135/153/261 56/61/287 139/157/288
f 56/61/287 135/153/261 58/64/289
f 142/160/283 133/151/255 131/149/257
f 133/151/274 142/160/283 141/159/275
f 132/150/266 56/61/287 55/59/290
f 56/61/287 132/150/266 139/157/291
f 140/158/270 135/153/292 139/157/288
f 135/153/292 140/158/270 137/155/272
f 145/163/293 144/162/294 143/161/295
f 144/162/296 145/163/293 146/164/297
f 149/167/298 148/166/299 147/165/300
f 148/166/301 149/167/298 150/168/302
f 143/161/303 152/170/304 151/169/305
f 152/170/304 143/161/303 144/162/294
f 146/164/297 153/171/306 144/162/296
f 153/171/307 146/164/308 154/172/309
f 146/164/308 149/167/310 154/172/309
f 149/167/310 146/164/308 150/168/311
f 150/168/311 146/164/308 145/163/312
f 150/168/311 145/163/312 155/173/313
f 148/166/301 157/175/314 156/174/315
f 157/175/316 148/166/299 158/176/317
f 151/169/305 158/176/318 143/161/303
f 158/176/319 151/169/320 157/175/321
f 150/168/302 158/176/317 148/166/301
f 158/176/319 150/168/311 155/173/313
f 147/165/322 156/174/315 159/177/323
f 156/174/315 147/165/322 148/166/299
f 147/165/322 160/178/324 153/171/307
f 160/178/325 147/165/322 159/177/326
f 158/176/319 145/163/293 143/161/303
f 145/163/312 158/176/317 155/173/313
f 144/162/296 160/178/327 152/170/304
f 160/178/324 144/162/294 153/171/306
f 154/172/309 147/165/322 153/171/307
f 147/165/322 154/172/309 149/167/298
f 163/181/328 162/180/329 161/179/330
f 162/180/329 163/181/328 164/182/331
f 167/185/332 166/184/333 165/183/334
f 166/184/333 167/185/332 168/186/335
f 161/179/336 91/101/337 86/93/338
f 91/101/337 161/179/336 162/180/339
f 164/182/340 169/187/341 162/180/342
f 169/187/341 164/182/343 170/188/344
f 164/182/343 167/185/332 170/188/344
f 167/185/332 164/182/345 168/186/346
f 168/186/347 164/182/343 163/181/328
f 168/186/346 163/181/328 171/189/348
f 166/184/349 88/96/350 90/99/351
f 88/96/350 166/184/349 172/190/352
f 86/93/338 172/190/353 161/179/336
f 172/190/353 86/93/338 88/96/350
f 168/186/347 172/190/354 166/184/355
f 172/190/354 168/186/346 171/189/348
f 165/183/356 90/99/357 94/106/358
f 90/99/357 165/183/356 166/184/349
f 165/183/356 92/103/359 169/187/360
f 92/103/359 165/183/356 94/106/358
f 172/190/354 163/181/328 161/179/336
f 163/181/328 172/190/354 171/189/361
f 162/180/339 92/103/359 91/101/362
f 92/103/359 162/180/339 169/187/363
f 170/188/364 165/183/365 169/187/360
f 165/183/365 170/188/366 167/185/332
f 175/193/367 174/192/368 173/191/369
f 174/192/368 175/193/370 176/194/371
f 179/197/372 178/196/373 177/195/374
f 178/196/373 179/197/375 180/198/376
f 173/191/377 109/125/378 104/117/379
f 109/125/378 173/191/377 174/192/380
f 176/194/371 181/199/381 174/192/380
f 181/199/381 176/194/382 182/200/383
f 176/194/371 179/197/372 182/200/384
f 179/197/372 176/194/371 180/198/376
f 180/198/376 176/194/371 175/193/367
f 180/198/376 175/193/367 183/201/385
f 178/196/386 106/120/387 108/123/388
f 106/120/387 178/196/386 184/202/389
f 104/117/379 184/202/389 173/191/377
f 184/202/389 104/117/379 106/120/387
f 180/198/390 184/202/391 178/196/386
f 184/202/391 180/198/390 183/201/385
f 177/195/392 108/123/388 112/130/393
f 108/123/388 177/195/392 178/196/386
f 177/195/392 110/127/394 181/199/395
f 110/127/394 177/195/392 112/130/393
f 184/202/396 175/193/367 173/191/377
f 175/193/397 184/202/391 183/201/385
f 174/192/380 110/127/394 109/125/378
f 110/127/394 174/192/380 181/199/395
f 182/200/384 177/195/398 181/199/395
f 177/195/399 182/200/400 179/197/372
f 187/205/401 186/204/402 185/203/403
f 186/204/402 187/205/404 188/206/405
f 191/209/406 190/208/407 189/207/408
f 190/208/407 191/209/409 192/210/410
f 185/203/403 194/212/411 193/211/412
f 194/212/411 185/203/403 186/204/402
f 188/206/413 195/213/414 186/204/402
f 195/213/414 188/206/405 196/214/415
f 188/206/413 191/209/416 196/214/415
f 191/209/406 188/206/417 192/210/418
f 192/210/419 188/206/413 187/205/401
f 192/210/418 187/205/420 197/215/421
f 190/208/422 199/217/423 198/216/424
f 199/217/423 190/208/422 200/218/425
f 193/211/426 200/218/427 185/203/428
f 200/218/429 193/211/430 199/217/431
f 192/210/418 200/218/425 190/208/407
f 200/218/425 192/210/410 197/215/421
f 189/207/432 198/216/433 201/219/434
f 198/216/433 189/207/432 190/208/407
f 189/207/408 202/220/435 195/213/414
f 202/220/436 189/207/408 201/219/437
f 200/218/425 187/205/420 185/203/438
f 187/205/401 200/218/439 197/215/440
f 186/204/441 202/220/435 194/212/442
f 202/220/436 186/204/441 195/213/414
f 196/214/443 189/207/444 195/213/414
f 189/207/444 196/214/415 191/209/416
