# Blender 3.3.1
# www.blender.org
o rocks-medium
v -0.082323 -0.189855 0.015000
v -0.076035 -0.211459 0.015000
v -0.103927 -0.196144 0.015000
v -0.097638 -0.217747 0.015000
v -0.108575 -0.193591 -0.000000
v -0.100191 -0.222396 -0.000000
v -0.079771 -0.185207 -0.000000
v -0.071386 -0.214011 -0.000000
v -0.150672 -0.233053 0.015000
v -0.168335 -0.219114 0.015000
v -0.136734 -0.215390 0.015000
v -0.154396 -0.201452 0.015000
v -0.131467 -0.214770 -0.000000
v -0.155017 -0.196185 -0.000000
v -0.150052 -0.238320 -0.000000
v -0.173602 -0.219735 -0.000000
v 0.162552 -0.109256 0.116210
v 0.143620 -0.121414 0.116210
v 0.150394 -0.090324 0.116210
v 0.131462 -0.102481 0.116210
v 0.151523 -0.085142 0.101210
v 0.126280 -0.101352 0.101210
v 0.167734 -0.110385 0.101210
v 0.142491 -0.126596 0.101210
v 0.054523 0.225886 0.015000
v 0.032049 0.224791 0.015000
v 0.053427 0.248360 0.015000
v 0.030954 0.247264 0.015000
v 0.056990 0.252288 0.000000
v 0.027026 0.250827 0.000000
v 0.058451 0.222323 0.000000
v 0.028486 0.220862 0.000000
v 0.288264 0.075819 0.015000
v 0.306756 0.063000 0.015000
v 0.275446 0.057327 0.015000
v 0.293938 0.044509 0.015000
v 0.270228 0.056381 0.000000
v 0.294883 0.039290 0.000000
v 0.287319 0.081037 0.000000
v 0.311974 0.063946 0.000000
v 0.177237 0.191347 0.000000
v 0.274413 0.026980 0.000000
v 0.148791 0.140879 0.061102
v 0.216484 0.026381 0.061102
v 0.180656 -0.139360 -0.000000
v -0.010278 -0.141334 -0.000000
v -0.107454 0.023033 0.000000
v -0.013697 0.189373 0.000000
v 0.015786 0.139504 0.061102
v 0.034891 0.107190 0.142572
v -0.049525 0.023632 0.061102
v -0.011988 0.024020 0.142572
v 0.018168 -0.090866 0.061102
v 0.036600 -0.058164 0.142572
v 0.130358 0.108177 0.142572
v 0.178946 0.025993 0.142572
v 0.151172 -0.089491 0.061102
v 0.132067 -0.057177 0.142572
v -0.022133 -0.213308 -0.000000
v -0.169189 -0.091513 -0.000000
v -0.012439 -0.156193 0.095472
v -0.114878 -0.071350 0.095472
v -0.137239 0.096739 0.000000
v 0.041767 0.163196 0.000000
v 0.188823 0.041400 0.000000
v 0.156873 -0.146852 -0.000000
v 0.112256 -0.109899 0.095472
v 0.083345 -0.085954 0.222768
v 0.134513 0.021237 0.095472
v 0.099320 0.008172 0.222768
v 0.032073 0.106080 0.095472
v 0.025792 0.069070 0.222768
v -0.006158 -0.119182 0.222768
v -0.079686 -0.058284 0.222768
v -0.092622 0.059787 0.095472
v -0.063711 0.035842 0.222768
v -0.282864 -0.010232 -0.000000
v -0.228434 0.172790 0.000000
v -0.226517 0.003231 0.061102
v -0.188601 0.130724 0.061102
v -0.042717 0.217163 0.000000
v 0.088569 0.078515 0.000000
v 0.034139 -0.104507 -0.000000
v -0.151577 -0.148880 -0.000000
v -0.135063 -0.093352 0.061102
v -0.124362 -0.057370 0.142572
v -0.005693 -0.062441 0.061102
v -0.031504 -0.035183 0.142572
v 0.032223 0.065052 0.061102
v -0.004289 0.056328 0.142572
v -0.190005 0.011955 0.142572
v -0.162790 0.103466 0.142572
v -0.059231 0.161634 0.061102
v -0.069932 0.125652 0.142572
v 0.106233 -0.263770 -0.000000
v -0.053831 -0.159660 -0.000000
v 0.109307 -0.205920 0.036661
v -0.002194 -0.133396 0.036661
v -0.043701 0.031015 0.000000
v 0.126494 0.117580 0.000000
v 0.286558 0.013469 0.000000
v 0.276428 -0.177206 -0.000000
v 0.227864 -0.145619 0.036661
v 0.196396 -0.125151 0.085543
v 0.234921 -0.012794 0.036661
v 0.201461 -0.029813 0.085543
v 0.123420 0.059729 0.036661
v 0.121429 0.022242 0.085543
v 0.111298 -0.168433 0.085543
v 0.031266 -0.116378 0.085543
v 0.004863 -0.000572 0.036661
v 0.036331 -0.021040 0.085543
v -0.140087 0.006549 0.000000
v -0.065164 -0.051161 -0.000000
v -0.143885 -0.021892 0.038302
v -0.091693 -0.062093 0.038302
v -0.077681 -0.144902 -0.000000
v -0.165121 -0.180933 -0.000000
v -0.240045 -0.123222 -0.000000
v -0.227528 -0.029482 -0.000000
v -0.204796 -0.046991 0.038302
v -0.190066 -0.058337 0.089371
v -0.213515 -0.112291 0.038302
v -0.196325 -0.105207 0.089371
v -0.161324 -0.152492 0.038302
v -0.158863 -0.134062 0.089371
v -0.146346 -0.040321 0.089371
v -0.108884 -0.069177 0.089371
v -0.100413 -0.127393 0.038302
v -0.115143 -0.116047 0.089371
v 0.031854 0.112326 0.155628
v 0.133288 0.113375 0.155628
v 0.040722 0.097328 0.168684
v 0.124733 0.098196 0.168684
v 0.135104 -0.062313 0.155628
v 0.033671 -0.063362 0.155628
v 0.126237 -0.047315 0.168684
v 0.042226 -0.048183 0.168684
v 0.184913 0.026055 0.155628
v 0.167490 0.025875 0.168684
v -0.000532 0.024138 0.168684
v -0.017954 0.023958 0.155628
v 0.087941 -0.089760 0.243168
v -0.007156 -0.125065 0.243168
v 0.074522 -0.078646 0.263568
v -0.004241 -0.107887 0.263568
v -0.068306 0.039648 0.243168
v 0.026791 0.074953 0.243168
v -0.054888 0.028534 0.263568
v 0.023875 0.057775 0.263568
v -0.085280 -0.060361 0.243168
v -0.068945 -0.054297 0.263568
v 0.088580 0.004185 0.263568
v 0.104914 0.010249 0.243168
v -0.126063 -0.063089 0.155628
v -0.195809 0.010568 0.155628
v -0.121096 -0.046388 0.168684
v -0.178862 0.014617 0.168684
v -0.068231 0.131372 0.155628
v 0.001515 0.057715 0.155628
v -0.073198 0.114671 0.168684
v -0.015432 0.053666 0.168684
v -0.166893 0.107798 0.155628
v -0.154913 0.095147 0.168684
v -0.039381 -0.026864 0.168684
v -0.027401 -0.039516 0.155628
v 0.201398 -0.128404 0.093376
v 0.110982 -0.174391 0.093376
v 0.186792 -0.118904 0.101210
v 0.111906 -0.156992 0.101210
v 0.031329 -0.017787 0.093377
v 0.121745 0.028201 0.093377
v 0.045935 -0.027287 0.101210
v 0.120821 0.010802 0.101210
v 0.025948 -0.119083 0.093376
v 0.041478 -0.111184 0.101210
v 0.191249 -0.035007 0.101210
v 0.206779 -0.027108 0.093376
v -0.192407 -0.056533 0.097556
v -0.145955 -0.037392 0.097556
v -0.185571 -0.061799 0.105740
v -0.147097 -0.045946 0.105740
v -0.112801 -0.117851 0.097556
v -0.159254 -0.136992 0.097556
v -0.119638 -0.112585 0.105740
v -0.158112 -0.128438 0.105740
v -0.106152 -0.068051 0.097556
v -0.114131 -0.071339 0.105740
v -0.191078 -0.103045 0.105740
v -0.199057 -0.106333 0.097556
vn -0.6240 0.3426 0.7023
vn 0.6240 -0.3426 0.7023
vn 0.3426 0.6240 0.7023
vn -0.3426 -0.6240 0.7023
vn -0.4538 -0.8264 0.3334
vn -0.8264 0.4538 0.3334
vn -0.6240 0.3427 0.7023
vn -0.4538 -0.8264 0.3333
vn -0.3427 -0.6240 0.7023
vn 0.4538 0.8264 0.3334
vn 0.4538 0.8264 0.3333
vn 0.6240 -0.3427 0.7023
vn 0.8264 -0.4538 0.3334
vn 0.8264 -0.4538 0.3333
vn 0.7070 0.0833 0.7023
vn -0.7070 -0.0833 0.7023
vn 0.0833 -0.7070 0.7023
vn -0.0834 0.7070 0.7023
vn -0.1104 0.9363 0.3334
vn 0.9363 0.1103 0.3334
vn -0.1104 0.9363 0.3333
vn -0.0833 0.7070 0.7023
vn 0.1103 -0.9363 0.3334
vn 0.9363 0.1104 0.3334
vn 0.1103 -0.9363 0.3333
vn -0.1103 0.9363 0.3334
vn -0.9363 -0.1104 0.3334
vn -0.1103 0.9363 0.3333
vn -0.9363 -0.1103 0.3334
vn 0.1104 -0.9363 0.3334
vn -0.9363 -0.1103 0.3333
vn 0.1516 0.6956 0.7023
vn -0.1516 -0.6956 0.7023
vn 0.6956 -0.1516 0.7023
vn -0.6956 0.1515 0.7023
vn -0.9212 0.2007 0.3334
vn 0.1515 0.6956 0.7023
vn 0.2007 0.9212 0.3334
vn -0.9212 0.2007 0.3333
vn -0.6956 0.1516 0.7023
vn 0.1516 0.6955 0.7023
vn 0.9212 -0.2007 0.3334
vn 0.9212 -0.2007 0.3333
vn 0.6956 -0.1515 0.7023
vn -0.1516 -0.6955 0.7023
vn -0.2007 -0.9212 0.3334
vn 0.6955 -0.1516 0.7023
vn -0.2007 -0.9212 0.3333
vn -0.1515 -0.6956 0.7023
vn 0.4783 0.5273 0.7023
vn -0.4783 -0.5273 0.7023
vn 0.5273 -0.4782 0.7023
vn -0.5273 0.4782 0.7023
vn -0.6983 0.6334 0.3334
vn 0.4782 0.5273 0.7023
vn 0.6334 0.6983 0.3334
vn -0.6984 0.6334 0.3333
vn -0.5273 0.4783 0.7023
vn 0.6983 -0.6334 0.3334
vn 0.6983 -0.6334 0.3333
vn 0.5273 -0.4783 0.7023
vn -0.6334 -0.6983 0.3334
vn -0.6983 0.6334 0.3333
vn -0.6334 -0.6983 0.3333
vn -0.7005 -0.1269 0.7023
vn 0.7005 0.1269 0.7023
vn -0.1269 0.7005 0.7023
vn 0.7005 0.1267 0.7023
vn 0.1270 -0.7005 0.7023
vn 0.1681 -0.9277 0.3334
vn -0.9277 -0.1681 0.3334
vn 0.1681 -0.9277 0.3333
vn 0.1269 -0.7005 0.7023
vn -0.1681 0.9277 0.3334
vn -0.1681 0.9277 0.3333
vn 0.9277 0.1681 0.3334
vn 0.9277 0.1681 0.3333
vn 0.3978 0.7057 0.5863
vn 0.7256 0.0075 0.6880
vn 0.3563 0.6322 0.6880
vn 0.8101 0.0084 0.5863
vn -0.0000 -0.0000 -1.0000
vn -0.8100 -0.0084 0.5863
vn -0.4622 0.7818 0.4185
vn -0.4123 0.6973 0.5863
vn -0.9082 -0.0094 0.4185
vn -0.3693 0.6247 0.6880
vn -0.4460 -0.7912 0.4185
vn -0.3978 -0.7057 0.5863
vn 0.4460 0.7912 0.4185
vn 0.8100 0.0084 0.5863
vn 0.9082 0.0094 0.4185
vn -0.7256 -0.0075 0.6880
vn -0.8101 -0.0084 0.5863
vn -0.3563 -0.6322 0.6880
vn 0.4459 0.7912 0.4185
vn 0.4123 -0.6973 0.5863
vn 0.4622 -0.7818 0.4185
vn -0.4459 -0.7912 0.4185
vn 0.3693 -0.6247 0.6880
vn -0.1518 -0.8946 0.4203
vn -0.8014 -0.2976 0.5188
vn -0.1431 -0.8429 0.5188
vn -0.8015 -0.2976 0.5187
vn -0.8506 -0.3158 0.4203
vn 0.8506 0.3158 0.4203
vn 0.7387 -0.6118 0.2829
vn 0.6988 -0.5788 0.4203
vn 0.7387 -0.6118 0.2828
vn 0.8507 0.3158 0.4203
vn 0.8992 0.3338 0.2828
vn -0.1430 -0.8429 0.5188
vn 0.6584 -0.5453 0.5188
vn -0.1430 -0.8429 0.5187
vn 0.1605 0.9456 0.2829
vn 0.1518 0.8946 0.4203
vn 0.1605 0.9456 0.2828
vn -0.1605 -0.9456 0.2829
vn -0.8507 -0.3158 0.4203
vn -0.1605 -0.9456 0.2828
vn -0.8992 -0.3338 0.2828
vn 0.8015 0.2975 0.5188
vn 0.8015 0.2975 0.5187
vn 0.8014 0.2976 0.5188
vn 0.1431 0.8429 0.5188
vn 0.8015 0.2976 0.5187
vn -0.8992 -0.3338 0.2829
vn -0.6988 0.5788 0.4203
vn -0.7387 0.6118 0.2828
vn -0.7387 0.6118 0.2829
vn -0.6584 0.5453 0.5188
vn -0.8015 -0.2975 0.5188
vn -0.6584 0.5453 0.5187
vn 0.1430 0.8429 0.5188
vn 0.1430 0.8429 0.5187
vn -0.7879 -0.1883 0.5863
vn -0.4990 0.5269 0.6880
vn -0.7058 -0.1686 0.6880
vn -0.5570 0.5882 0.5863
vn 0.5570 -0.5882 0.5863
vn -0.2589 -0.8705 0.4185
vn -0.2309 -0.7765 0.5863
vn 0.6244 -0.6595 0.4185
vn -0.7058 -0.1687 0.6880
vn -0.2069 -0.6956 0.6880
vn 0.8834 0.2110 0.4185
vn 0.7879 0.1883 0.5863
vn 0.8833 0.2110 0.4185
vn 0.6245 -0.6595 0.4185
vn -0.8834 -0.2110 0.4185
vn -0.6245 0.6595 0.4185
vn 0.4989 -0.5269 0.6880
vn -0.2068 -0.6956 0.6880
vn 0.4990 -0.5269 0.6880
vn 0.7058 0.1686 0.6880
vn -0.8833 -0.2111 0.4185
vn -0.6244 0.6595 0.4185
vn 0.2309 0.7765 0.5863
vn 0.2589 0.8705 0.4185
vn 0.8833 0.2111 0.4185
vn 0.2068 0.6956 0.6880
vn -0.4989 0.5269 0.6880
vn 0.7058 0.1687 0.6880
vn 0.2069 0.6956 0.6880
vn -0.0339 -0.6373 0.7699
vn -0.4767 -0.2424 0.8450
vn -0.0284 -0.5340 0.8450
vn -0.4766 -0.2424 0.8450
vn -0.5688 -0.2893 0.7699
vn 0.5688 0.2893 0.7699
vn 0.6649 -0.4324 0.6091
vn 0.5350 -0.3480 0.7699
vn 0.5689 0.2894 0.7698
vn 0.7069 0.3595 0.6091
vn 0.4483 -0.2916 0.8450
vn -0.0338 -0.6373 0.7699
vn 0.0421 0.7920 0.6091
vn 0.0338 0.6373 0.7699
vn 0.5689 0.2893 0.7698
vn 0.7069 0.3596 0.6091
vn -0.0421 -0.7920 0.6091
vn -0.5689 -0.2893 0.7698
vn -0.7069 -0.3596 0.6091
vn 0.4766 0.2425 0.8450
vn 0.4766 0.2424 0.8450
vn 0.5689 0.2893 0.7699
vn 0.0339 0.6373 0.7699
vn 0.4767 0.2424 0.8450
vn 0.0284 0.5340 0.8450
vn 0.6648 -0.4325 0.6091
vn -0.0339 -0.6373 0.7698
vn -0.7069 -0.3595 0.6091
vn -0.5350 0.3480 0.7699
vn -0.5689 -0.2894 0.7699
vn -0.5350 0.3480 0.7698
vn -0.6649 0.4324 0.6091
vn -0.6648 0.4325 0.6091
vn 0.0339 0.6373 0.7698
vn -0.5689 -0.2893 0.7699
vn -0.4483 0.2916 0.8450
vn 0.1149 0.8605 0.4964
vn 0.7400 0.3049 0.5996
vn 0.1059 0.7933 0.5996
vn 0.1149 0.8604 0.4964
vn 0.8026 0.3307 0.4964
vn -0.8026 -0.3307 0.4964
vn -0.7444 0.5734 0.3421
vn -0.6877 0.5297 0.4964
vn -0.8688 -0.3580 0.3421
vn -0.6340 0.4884 0.5996
vn -0.1244 -0.9314 0.3421
vn -0.1149 -0.8605 0.4964
vn 0.1244 0.9314 0.3421
vn 0.8688 0.3580 0.3421
vn -0.7400 -0.3049 0.5996
vn -0.1059 -0.7933 0.5996
vn -0.1149 -0.8604 0.4964
vn 0.6877 -0.5297 0.4964
vn 0.7444 -0.5734 0.3421
vn 0.6341 -0.4884 0.5996
vn 0.6340 -0.4884 0.5996
vn -0.1357 0.2296 0.9638
vn 0.4598 0.8158 0.3508
vn -0.4766 0.8061 0.3508
vn -0.1358 0.2296 0.9638
vn 0.1310 0.2324 0.9638
vn 0.1357 -0.2296 0.9638
vn -0.4598 -0.8158 0.3508
vn 0.4766 -0.8061 0.3508
vn 0.1358 -0.2296 0.9638
vn -0.1310 -0.2324 0.9638
vn -0.4765 0.8061 0.3509
vn 0.4466 0.7923 -0.4157
vn -0.4629 0.7829 -0.4157
vn 0.9364 0.0097 0.3508
vn 0.2667 0.0028 0.9638
vn 0.2668 0.0028 0.9638
vn -0.2668 -0.0028 0.9638
vn -0.4598 -0.8158 0.3509
vn -0.9095 -0.0094 -0.4157
vn -0.4466 -0.7923 -0.4157
vn -0.9364 -0.0097 0.3508
vn -0.4628 0.7829 -0.4157
vn -0.9364 -0.0096 0.3509
vn -0.2667 -0.0028 0.9638
vn 0.4765 -0.8061 0.3509
vn 0.4629 -0.7829 -0.4157
vn 0.4765 -0.8061 0.3508
vn 0.9095 0.0094 -0.4157
vn 0.9094 0.0094 -0.4157
vn -0.2667 -0.0027 0.9638
vn 0.4598 0.8158 0.3509
vn 0.2667 0.0027 0.9638
vn 0.9364 0.0096 0.3508
vn 0.3057 -0.2532 0.9178
vn -0.1627 -0.9587 0.2332
vn 0.7489 -0.6203 0.2331
vn 0.3057 -0.2532 0.9179
vn -0.0664 -0.3913 0.9178
vn -0.3057 0.2532 0.9178
vn 0.1627 0.9587 0.2332
vn -0.7489 0.6203 0.2331
vn -0.3057 0.2532 0.9179
vn 0.0664 0.3913 0.9178
vn -0.1606 -0.9463 -0.2807
vn 0.7392 -0.6122 -0.2807
vn -0.1627 -0.9587 0.2331
vn -0.9116 -0.3384 0.2332
vn -0.9116 -0.3385 0.2332
vn -0.0664 -0.3913 0.9179
vn -0.3721 -0.1382 0.9178
vn -0.0664 -0.3914 0.9178
vn 0.0664 0.3914 0.9178
vn 0.3721 0.1382 0.9178
vn 0.1627 0.9587 0.2331
vn 0.8998 0.3341 -0.2807
vn 0.1606 0.9462 -0.2807
vn 0.9116 0.3385 0.2331
vn 0.9116 0.3384 0.2331
vn 0.8998 0.3340 -0.2807
vn 0.9116 0.3384 0.2332
vn 0.9116 0.3385 0.2332
vn 0.0664 0.3913 0.9179
vn 0.1606 0.9463 -0.2807
vn -0.7392 0.6122 -0.2807
vn -0.8998 -0.3340 -0.2807
vn -0.9116 -0.3384 0.2331
vn 0.7490 -0.6203 0.2331
vn 0.3721 0.1381 0.9178
vn -0.8998 -0.3341 -0.2807
vn -0.1606 -0.9462 -0.2807
vn -0.9116 -0.3385 0.2331
vn -0.7489 0.6203 0.2332
vn -0.9117 -0.3384 0.2331
vn -0.3721 -0.1381 0.9179
vn -0.0761 -0.2557 0.9638
vn -0.9108 -0.2176 0.3508
vn -0.2670 -0.8976 0.3508
vn -0.0760 -0.2557 0.9638
vn -0.2595 -0.0620 0.9638
vn 0.0761 0.2557 0.9638
vn 0.9108 0.2176 0.3508
vn 0.2670 0.8976 0.3508
vn 0.2595 0.0620 0.9638
vn -0.2670 -0.8976 0.3509
vn -0.8846 -0.2113 -0.4157
vn -0.2592 -0.8718 -0.4157
vn -0.2669 -0.8976 0.3508
vn -0.6439 0.6800 0.3508
vn -0.1834 0.1937 0.9638
vn 0.0760 0.2557 0.9638
vn 0.1834 -0.1937 0.9638
vn 0.9108 0.2176 0.3509
vn 0.6254 -0.6604 -0.4157
vn 0.8846 0.2114 -0.4157
vn 0.6253 -0.6604 -0.4157
vn 0.9108 0.2177 0.3508
vn 0.6439 -0.6800 0.3508
vn -0.2593 -0.8718 -0.4157
vn 0.6439 -0.6799 0.3508
vn 0.6438 -0.6800 0.3509
vn 0.2670 0.8976 0.3509
vn 0.8846 0.2113 -0.4157
vn 0.2592 0.8718 -0.4157
vn 0.2669 0.8976 0.3508
vn -0.6254 0.6604 -0.4157
vn 0.2669 0.8976 0.3509
vn 0.2593 0.8718 -0.4157
vn 0.6438 -0.6800 0.3508
vn -0.6253 0.6604 -0.4157
vn -0.8846 -0.2114 -0.4157
vn -0.9108 -0.2177 0.3508
vn -0.6438 0.6800 0.3508
vn 0.1374 -0.0893 0.9865
vn -0.0450 -0.8470 0.5296
vn 0.7110 -0.4625 0.5296
vn 0.1373 -0.0893 0.9865
vn -0.0087 -0.1636 0.9865
vn -0.1374 0.0893 0.9865
vn 0.0450 0.8470 0.5296
vn -0.7110 0.4625 0.5296
vn -0.1373 0.0893 0.9865
vn 0.0087 0.1636 0.9865
vn 0.7111 -0.4625 0.5296
vn -0.0422 -0.7944 -0.6060
vn 0.6668 -0.4337 -0.6060
vn -0.7560 -0.3846 0.5296
vn -0.1460 -0.0743 0.9865
vn 0.1460 0.0743 0.9865
vn 0.7090 0.3606 -0.6060
vn 0.0422 0.7944 -0.6060
vn 0.7090 0.3607 -0.6060
vn 0.0450 0.8471 0.5296
vn 0.7561 0.3845 0.5296
vn 0.6669 -0.4337 -0.6060
vn 0.7560 0.3846 0.5296
vn 0.7561 0.3846 0.5296
vn 0.7091 0.3606 -0.6060
vn -0.7111 0.4625 0.5296
vn -0.6668 0.4337 -0.6060
vn -0.7091 -0.3606 -0.6060
vn -0.7561 -0.3846 0.5296
vn -0.6669 0.4337 -0.6060
vn -0.7090 -0.3607 -0.6060
vn -0.0450 -0.8471 0.5296
vn -0.7561 -0.3845 0.5296
vn -0.2619 0.2018 0.9438
vn 0.1269 0.9504 0.2838
vn -0.7597 0.5851 0.2838
vn -0.2620 0.2017 0.9438
vn 0.0437 0.3277 0.9438
vn 0.2619 -0.2018 0.9438
vn -0.1269 -0.9504 0.2838
vn 0.7596 -0.5852 0.2838
vn 0.2620 -0.2017 0.9438
vn -0.0437 -0.3277 0.9438
vn 0.1245 0.9323 -0.3396
vn -0.7451 0.5740 -0.3397
vn 0.0438 0.3277 0.9438
vn 0.8866 0.3653 0.2838
vn 0.3057 0.1260 0.9438
vn 0.2619 -0.2017 0.9438
vn -0.0438 -0.3277 0.9438
vn -0.2619 0.2017 0.9438
vn -0.3057 -0.1260 0.9438
vn -0.1269 -0.9505 0.2838
vn -0.8696 -0.3584 -0.3396
vn -0.1245 -0.9323 -0.3397
vn -0.8866 -0.3653 0.2838
vn -0.7451 0.5739 -0.3397
vn -0.8865 -0.3654 0.2838
vn -0.7596 0.5851 0.2838
vn -0.8866 -0.3654 0.2838
vn -0.7451 0.5739 -0.3396
vn -0.8696 -0.3583 -0.3397
vn 0.7597 -0.5851 0.2838
vn -0.1245 -0.9323 -0.3396
vn 0.7451 -0.5740 -0.3397
vn 0.8696 0.3583 -0.3396
vn 0.7451 -0.5739 -0.3397
vn -0.8865 -0.3653 0.2838
vn -0.3057 -0.1259 0.9438
vn 0.1269 0.9505 0.2838
vn 0.1245 0.9323 -0.3397
vn 0.8696 0.3584 -0.3396
vn 0.3057 0.1259 0.9438
vn 0.7596 -0.5851 0.2838
vt 0.718750 0.175000
vt 0.718750 0.175000
vt 0.718750 0.175000
vt 0.718750 0.175000
vt 0.718750 0.075000
vt 0.718750 0.075000
vt 0.718750 0.075000
vt 0.718750 0.075000
vt 0.718750 0.175000
vt 0.718750 0.175000
vt 0.718750 0.175000
vt 0.718750 0.175000
vt 0.718750 0.075000
vt 0.718750 0.075000
vt 0.718750 0.075000
vt 0.718750 0.075000
vt 0.718750 0.175000
vt 0.718750 0.175000
vt 0.718750 0.175000
vt 0.718750 0.175000
vt 0.718750 0.075000
vt 0.718750 0.075000
vt 0.718750 0.075000
vt 0.718750 0.075000
vt 0.718750 0.175000
vt 0.718750 0.175000
vt 0.718750 0.175000
vt 0.718750 0.175000
vt 0.718750 0.075000
vt 0.718750 0.075000
vt 0.718750 0.075000
vt 0.718750 0.075000
vt 0.718750 0.175000
vt 0.718750 0.175000
vt 0.718750 0.175000
vt 0.718750 0.175000
vt 0.718750 0.075000
vt 0.718750 0.075000
vt 0.718750 0.075000
vt 0.718750 0.075000
vt 0.718750 0.025000
vt 0.718750 0.025000
vt 0.718750 0.110714
vt 0.718750 0.110714
vt 0.718750 0.025000
vt 0.718750 0.025000
vt 0.718750 0.025000
vt 0.718750 0.025000
vt 0.718750 0.110714
vt 0.718750 0.225000
vt 0.093750 0.025000
vt 0.718750 0.110714
vt 0.718750 0.225000
vt 0.093750 0.025000
vt 0.718750 0.110714
vt 0.718750 0.225000
vt 0.093750 0.025000
vt 0.718750 0.225000
vt 0.093750 0.025000
vt 0.718750 0.225000
vt 0.093750 0.025000
vt 0.718750 0.110714
vt 0.718750 0.225000
vt 0.093750 0.025000
vt 0.718750 0.025000
vt 0.718750 0.025000
vt 0.718750 0.110714
vt 0.718750 0.110714
vt 0.718750 0.025000
vt 0.718750 0.025000
vt 0.718750 0.025000
vt 0.718750 0.025000
vt 0.718750 0.110714
vt 0.718750 0.225000
vt 0.093750 0.025000
vt 0.718750 0.110714
vt 0.718750 0.225000
vt 0.093750 0.025000
vt 0.718750 0.110714
vt 0.718750 0.225000
vt 0.093750 0.025000
vt 0.718750 0.225000
vt 0.093750 0.025000
vt 0.718750 0.225000
vt 0.093750 0.025000
vt 0.718750 0.110714
vt 0.718750 0.225000
vt 0.093750 0.025000
vt 0.718750 0.025000
vt 0.718750 0.025000
vt 0.718750 0.110714
vt 0.718750 0.110714
vt 0.718750 0.025000
vt 0.718750 0.025000
vt 0.718750 0.025000
vt 0.718750 0.025000
vt 0.718750 0.110714
vt 0.718750 0.225000
vt 0.093750 0.025000
vt 0.718750 0.110714
vt 0.718750 0.225000
vt 0.093750 0.025000
vt 0.718750 0.110714
vt 0.718750 0.225000
vt 0.093750 0.025000
vt 0.718750 0.225000
vt 0.093750 0.025000
vt 0.718750 0.225000
vt 0.093750 0.025000
vt 0.718750 0.110714
vt 0.718750 0.225000
vt 0.093750 0.025000
vt 0.718750 0.025000
vt 0.718750 0.025000
vt 0.718750 0.110714
vt 0.718750 0.110714
vt 0.718750 0.025000
vt 0.718750 0.025000
vt 0.718750 0.025000
vt 0.718750 0.025000
vt 0.718750 0.110714
vt 0.718750 0.225000
vt 0.093750 0.025000
vt 0.718750 0.110714
vt 0.718750 0.225000
vt 0.093750 0.025000
vt 0.718750 0.110714
vt 0.718750 0.225000
vt 0.093750 0.025000
vt 0.718750 0.225000
vt 0.093750 0.025000
vt 0.718750 0.225000
vt 0.093750 0.025000
vt 0.718750 0.110714
vt 0.718750 0.225000
vt 0.093750 0.025000
vt 0.718750 0.025000
vt 0.718750 0.025000
vt 0.718750 0.110714
vt 0.718750 0.110714
vt 0.718750 0.025000
vt 0.718750 0.025000
vt 0.718750 0.025000
vt 0.718750 0.025000
vt 0.718750 0.110714
vt 0.718750 0.225000
vt 0.093750 0.025000
vt 0.718750 0.110714
vt 0.718750 0.225000
vt 0.093750 0.025000
vt 0.718750 0.110714
vt 0.718750 0.225000
vt 0.093750 0.025000
vt 0.718750 0.225000
vt 0.093750 0.025000
vt 0.718750 0.225000
vt 0.093750 0.025000
vt 0.718750 0.110714
vt 0.718750 0.225000
vt 0.093750 0.025000
vt 0.093750 0.125000
vt 0.093750 0.125000
vt 0.093750 0.225000
vt 0.093750 0.225000
vt 0.093750 0.125000
vt 0.093750 0.125000
vt 0.093750 0.225000
vt 0.093750 0.225000
vt 0.093750 0.125000
vt 0.093750 0.225000
vt 0.093750 0.225000
vt 0.093750 0.125000
vt 0.093750 0.125000
vt 0.093750 0.125000
vt 0.093750 0.225000
vt 0.093750 0.225000
vt 0.093750 0.125000
vt 0.093750 0.125000
vt 0.093750 0.225000
vt 0.093750 0.225000
vt 0.093750 0.125000
vt 0.093750 0.225000
vt 0.093750 0.225000
vt 0.093750 0.125000
vt 0.093750 0.125000
vt 0.093750 0.125000
vt 0.093750 0.225000
vt 0.093750 0.225000
vt 0.093750 0.125000
vt 0.093750 0.125000
vt 0.093750 0.225000
vt 0.093750 0.225000
vt 0.093750 0.125000
vt 0.093750 0.225000
vt 0.093750 0.225000
vt 0.093750 0.125000
vt 0.093750 0.125000
vt 0.093750 0.125000
vt 0.093750 0.225000
vt 0.093750 0.225000
vt 0.093750 0.125000
vt 0.093750 0.125000
vt 0.093750 0.225000
vt 0.093750 0.225000
vt 0.093750 0.125000
vt 0.093750 0.225000
vt 0.093750 0.225000
vt 0.093750 0.125000
vt 0.093750 0.125000
vt 0.093750 0.125000
vt 0.093750 0.225000
vt 0.093750 0.225000
vt 0.093750 0.125000
vt 0.093750 0.125000
vt 0.093750 0.225000
vt 0.093750 0.225000
vt 0.093750 0.125000
vt 0.093750 0.225000
vt 0.093750 0.225000
vt 0.093750 0.125000
s 0
f 3/3/1 2/2/2 1/1/3
f 2/2/2 3/3/1 4/4/4
f 6/6/5 3/3/1 5/5/6
f 3/3/7 6/6/8 4/4/9
f 3/3/7 7/7/10 5/5/6
f 7/7/11 3/3/1 1/1/3
f 2/2/12 6/6/5 8/8/13
f 6/6/8 2/2/2 4/4/4
f 1/1/3 8/8/13 7/7/10
f 8/8/14 1/1/3 2/2/2
f 11/11/15 10/10/16 9/9/17
f 10/10/16 11/11/15 12/12/18
f 14/14/19 11/11/15 13/13/20
f 11/11/15 14/14/21 12/12/22
f 11/11/15 15/15/23 13/13/24
f 15/15/25 11/11/15 9/9/17
f 10/10/16 14/14/26 16/16/27
f 14/14/28 10/10/16 12/12/22
f 9/9/17 16/16/29 15/15/30
f 16/16/31 9/9/17 10/10/16
f 19/19/32 18/18/33 17/17/34
f 18/18/33 19/19/32 20/20/35
f 22/22/36 19/19/37 21/21/38
f 19/19/32 22/22/39 20/20/40
f 19/19/41 23/23/42 21/21/38
f 23/23/43 19/19/32 17/17/44
f 18/18/45 22/22/36 24/24/46
f 22/22/39 18/18/33 20/20/35
f 17/17/47 24/24/46 23/23/42
f 24/24/48 17/17/34 18/18/49
f 27/27/50 26/26/51 25/25/52
f 26/26/51 27/27/50 28/28/53
f 30/30/54 27/27/55 29/29/56
f 27/27/50 30/30/57 28/28/58
f 27/27/50 31/31/59 29/29/56
f 31/31/60 27/27/50 25/25/61
f 26/26/51 30/30/54 32/32/62
f 30/30/63 26/26/51 28/28/58
f 25/25/61 32/32/62 31/31/59
f 32/32/64 25/25/61 26/26/51
f 35/35/65 34/34/66 33/33/67
f 34/34/68 35/35/65 36/36/69
f 38/38/70 35/35/65 37/37/71
f 35/35/65 38/38/72 36/36/73
f 35/35/65 39/39/74 37/37/71
f 39/39/75 35/35/65 33/33/67
f 34/34/66 38/38/70 40/40/76
f 38/38/72 34/34/66 36/36/73
f 33/33/67 40/40/76 39/39/74
f 40/40/77 33/33/67 34/34/66
f 43/43/78 42/42/79 41/41/80
f 42/42/79 43/43/78 44/44/81
f 46/46/82 42/42/82 45/45/82
f 42/42/82 46/46/82 41/41/82
f 41/41/82 46/46/82 47/47/82
f 41/41/82 47/47/82 48/48/82
f 51/52/83 50/50/84 49/49/85
f 50/50/84 51/52/83 52/53/86
f 49/49/85 41/41/80 48/48/87
f 41/41/80 49/49/85 43/43/78
f 54/56/88 51/52/83 53/55/89
f 51/52/83 54/56/88 52/53/86
f 55/58/90 44/44/91 43/43/78
f 44/44/91 55/58/90 56/60/92
f 47/47/93 49/49/85 48/48/87
f 49/49/85 47/47/93 51/52/94
f 53/55/89 47/47/93 46/46/95
f 47/47/93 53/55/89 51/52/94
f 50/50/84 43/43/78 49/49/85
f 43/43/78 50/50/84 55/58/96
f 56/60/92 57/62/97 44/44/81
f 57/62/97 56/60/92 58/63/98
f 58/63/98 53/55/89 57/62/97
f 53/55/89 58/63/98 54/56/99
f 44/44/81 45/45/100 42/42/79
f 45/45/100 44/44/81 57/62/97
f 57/62/97 46/46/95 45/45/100
f 46/46/95 57/62/97 53/55/89
f 61/67/101 60/66/102 59/65/103
f 60/66/104 61/67/101 62/68/105
f 64/70/82 60/66/82 63/69/82
f 60/66/82 64/70/82 59/65/82
f 59/65/82 64/70/82 65/71/82
f 59/65/82 65/71/82 66/72/82
f 69/76/106 68/74/107 67/73/108
f 68/74/109 69/76/110 70/77/111
f 67/73/108 59/65/112 66/72/113
f 59/65/114 67/73/108 61/67/101
f 72/80/115 69/76/106 71/79/116
f 69/76/110 72/80/117 70/77/111
f 73/82/118 62/68/105 61/67/101
f 62/68/119 73/82/120 74/84/121
f 65/71/122 67/73/108 66/72/113
f 67/73/108 65/71/123 69/76/110
f 71/79/116 65/71/124 64/70/125
f 65/71/126 71/79/116 69/76/106
f 68/74/107 61/67/101 67/73/108
f 61/67/101 68/74/109 73/82/120
f 74/84/127 75/86/128 62/68/119
f 75/86/128 74/84/121 76/87/129
f 76/87/130 71/79/116 75/86/128
f 71/79/116 76/87/129 72/80/117
f 62/68/119 63/69/131 60/66/132
f 63/69/133 62/68/119 75/86/128
f 75/86/128 64/70/134 63/69/131
f 64/70/135 75/86/128 71/79/116
f 79/91/136 78/90/137 77/89/138
f 78/90/137 79/91/136 80/92/139
f 82/94/82 78/90/82 81/93/82
f 78/90/82 82/94/82 77/89/82
f 77/89/82 82/94/82 83/95/82
f 77/89/82 83/95/82 84/96/82
f 87/100/140 86/98/141 85/97/142
f 86/98/141 87/100/140 88/101/143
f 85/97/142 77/89/144 84/96/145
f 77/89/144 85/97/142 79/91/136
f 90/104/146 87/100/140 89/103/147
f 87/100/140 90/104/148 88/101/149
f 91/106/150 80/92/139 79/91/136
f 80/92/139 91/106/150 92/108/151
f 83/95/152 85/97/142 84/96/153
f 85/97/142 83/95/152 87/100/140
f 89/103/147 83/95/154 82/94/155
f 83/95/154 89/103/147 87/100/140
f 86/98/141 79/91/136 85/97/142
f 79/91/136 86/98/141 91/106/156
f 92/108/157 93/110/158 80/92/139
f 93/110/158 92/108/157 94/111/159
f 94/111/159 89/103/147 93/110/158
f 89/103/147 94/111/159 90/104/160
f 80/92/139 81/93/161 78/90/162
f 81/93/161 80/92/139 93/110/158
f 93/110/158 82/94/163 81/93/164
f 82/94/163 93/110/158 89/103/147
f 97/115/165 96/114/166 95/113/167
f 96/114/168 97/115/165 98/116/169
f 100/118/82 96/114/82 99/117/82
f 96/114/82 100/118/82 95/113/82
f 95/113/82 100/118/82 101/119/82
f 95/113/82 101/119/82 102/120/82
f 105/124/170 104/122/171 103/121/172
f 104/122/171 105/124/173 106/125/174
f 103/121/172 95/113/167 102/120/175
f 95/113/167 103/121/172 97/115/176
f 108/128/177 105/124/170 107/127/178
f 105/124/179 108/128/177 106/125/180
f 109/130/181 98/116/169 97/115/176
f 98/116/182 109/130/181 110/132/183
f 101/119/184 103/121/172 102/120/175
f 103/121/172 101/119/185 105/124/186
f 107/127/187 101/119/188 100/118/189
f 101/119/185 107/127/187 105/124/170
f 104/122/190 97/115/165 103/121/172
f 97/115/191 104/122/190 109/130/181
f 110/132/192 111/134/193 98/116/194
f 111/134/195 110/132/192 112/135/196
f 112/135/197 107/127/187 111/134/193
f 107/127/198 112/135/197 108/128/177
f 98/116/199 99/117/200 96/114/168
f 99/117/200 98/116/199 111/134/193
f 111/134/193 100/118/189 99/117/200
f 100/118/189 111/134/193 107/127/178
f 115/139/201 114/138/202 113/137/203
f 114/138/202 115/139/204 116/140/205
f 118/142/82 114/138/82 117/141/82
f 114/138/82 118/142/82 113/137/82
f 113/137/82 118/142/82 119/143/82
f 113/137/82 119/143/82 120/144/82
f 123/148/206 122/146/207 121/145/208
f 122/146/207 123/148/206 124/149/209
f 121/145/208 113/137/203 120/144/210
f 113/137/203 121/145/208 115/139/201
f 126/152/211 123/148/206 125/151/212
f 123/148/206 126/152/211 124/149/209
f 127/154/213 116/140/205 115/139/201
f 116/140/205 127/154/213 128/156/214
f 119/143/215 121/145/208 120/144/210
f 121/145/208 119/143/215 123/148/206
f 125/151/212 119/143/215 118/142/216
f 119/143/215 125/151/217 123/148/206
f 122/146/207 115/139/204 121/145/208
f 115/139/204 122/146/207 127/154/213
f 128/156/214 129/158/218 116/140/205
f 129/158/218 128/156/214 130/159/219
f 130/159/219 125/151/217 129/158/218
f 125/151/217 130/159/219 126/152/211
f 116/140/205 117/141/220 114/138/202
f 117/141/221 116/140/205 129/158/218
f 129/158/218 118/142/216 117/141/221
f 118/142/216 129/158/218 125/151/212
f 133/163/222 132/162/223 131/161/224
f 132/162/223 133/163/225 134/164/226
f 137/167/227 136/166/228 135/165/229
f 136/166/228 137/167/230 138/168/231
f 131/161/232 55/59/233 50/51/234
f 55/59/233 131/161/224 132/162/223
f 134/164/226 139/169/235 132/162/223
f 139/169/235 134/164/226 140/170/236
f 134/164/226 137/167/230 140/170/237
f 137/167/230 134/164/226 138/168/231
f 138/168/231 134/164/226 133/163/225
f 138/168/231 133/163/225 141/171/238
f 136/166/239 52/54/240 54/57/241
f 52/54/240 136/166/228 142/172/242
f 50/51/243 142/172/242 131/161/224
f 142/172/244 50/51/243 52/54/240
f 138/168/231 142/172/242 136/166/228
f 142/172/242 138/168/231 141/171/245
f 135/165/246 54/57/241 58/64/247
f 54/57/241 135/165/229 136/166/228
f 135/165/248 56/61/249 139/169/235
f 56/61/250 135/165/229 58/64/247
f 142/172/242 133/163/225 131/161/224
f 133/163/225 142/172/242 141/171/251
f 132/162/252 56/61/249 55/59/233
f 56/61/249 132/162/223 139/169/235
f 140/170/253 135/165/229 139/169/254
f 135/165/229 140/170/237 137/167/230
f 145/175/255 144/174/256 143/173/257
f 144/174/256 145/175/258 146/176/259
f 149/179/260 148/178/261 147/177/262
f 148/178/261 149/179/263 150/180/264
f 143/173/257 73/83/265 68/75/266
f 73/83/265 143/173/257 144/174/267
f 146/176/259 151/181/268 144/174/267
f 151/181/269 146/176/270 152/182/271
f 146/176/272 149/179/260 152/182/271
f 149/179/260 146/176/272 150/180/273
f 150/180/273 146/176/272 145/175/255
f 150/180/273 145/175/255 153/183/274
f 148/178/275 70/78/276 72/81/277
f 70/78/276 148/178/275 154/184/278
f 68/75/266 154/184/279 143/173/257
f 154/184/278 68/75/266 70/78/280
f 150/180/264 154/184/281 148/178/275
f 154/184/282 150/180/283 153/183/274
f 147/177/262 72/81/284 76/88/285
f 72/81/284 147/177/262 148/178/275
f 147/177/262 74/85/286 151/181/287
f 74/85/286 147/177/262 76/88/285
f 154/184/282 145/175/255 143/173/288
f 145/175/258 154/184/281 153/183/289
f 144/174/267 74/85/290 73/83/291
f 74/85/290 144/174/267 151/181/292
f 152/182/271 147/177/293 151/181/294
f 147/177/293 152/182/295 149/179/260
f 157/187/296 156/186/297 155/185/298
f 156/186/297 157/187/299 158/188/300
f 161/191/301 160/190/302 159/189/303
f 160/190/302 161/191/301 162/192/304
f 155/185/305 91/107/306 86/99/307
f 91/107/306 155/185/308 156/186/297
f 158/188/300 163/193/309 156/186/297
f 163/193/309 158/188/300 164/194/310
f 158/188/300 161/191/311 164/194/310
f 161/191/311 158/188/300 162/192/304
f 162/192/304 158/188/300 157/187/299
f 162/192/304 157/187/299 165/195/312
f 160/190/313 88/102/314 90/105/315
f 88/102/316 160/190/317 166/196/318
f 86/99/319 166/196/320 155/185/308
f 166/196/321 86/99/307 88/102/314
f 162/192/304 166/196/318 160/190/302
f 166/196/318 162/192/304 165/195/312
f 159/189/322 90/105/323 94/112/324
f 90/105/323 159/189/325 160/190/302
f 159/189/303 92/109/326 163/193/309
f 92/109/326 159/189/327 94/112/328
f 166/196/318 157/187/299 155/185/308
f 157/187/299 166/196/329 165/195/312
f 156/186/297 92/109/330 91/107/331
f 92/109/330 156/186/332 163/193/309
f 164/194/310 159/189/325 163/193/333
f 159/189/325 164/194/310 161/191/311
f 169/199/334 168/198/335 167/197/336
f 168/198/335 169/199/337 170/200/338
f 173/203/339 172/202/340 171/201/341
f 172/202/340 173/203/342 174/204/343
f 167/197/344 109/131/345 104/123/346
f 109/131/345 167/197/344 168/198/335
f 170/200/338 175/205/347 168/198/335
f 175/205/347 170/200/338 176/206/348
f 170/200/338 173/203/342 176/206/348
f 173/203/342 170/200/338 174/204/343
f 174/204/343 170/200/338 169/199/337
f 174/204/343 169/199/337 177/207/349
f 172/202/340 106/126/350 108/129/351
f 106/126/352 172/202/353 178/208/354
f 104/123/355 178/208/356 167/197/344
f 178/208/357 104/123/355 106/126/358
f 174/204/343 178/208/356 172/202/340
f 178/208/357 174/204/343 177/207/349
f 171/201/359 108/129/351 112/136/360
f 108/129/351 171/201/359 172/202/340
f 171/201/341 110/133/361 175/205/362
f 110/133/361 171/201/359 112/136/363
f 178/208/357 169/199/337 167/197/344
f 169/199/337 178/208/354 177/207/349
f 168/198/335 110/133/364 109/131/345
f 110/133/364 168/198/365 175/205/366
f 176/206/348 171/201/359 175/205/366
f 171/201/359 176/206/348 173/203/342
f 181/211/367 180/210/368 179/209/369
f 180/210/368 181/211/370 182/212/371
f 185/215/372 184/214/373 183/213/374
f 184/214/373 185/215/375 186/216/376
f 179/209/369 127/155/377 122/147/378
f 127/155/377 179/209/369 180/210/368
f 182/212/379 187/217/380 180/210/368
f 187/217/380 182/212/371 188/218/381
f 182/212/379 185/215/382 188/218/381
f 185/215/372 182/212/379 186/216/383
f 186/216/383 182/212/379 181/211/367
f 186/216/383 181/211/384 189/219/385
f 184/214/386 124/150/387 126/153/388
f 124/150/387 184/214/386 190/220/389
f 122/147/390 190/220/391 179/209/392
f 190/220/393 122/147/394 124/150/395
f 186/216/383 190/220/389 184/214/373
f 190/220/389 186/216/376 189/219/385
f 183/213/396 126/153/397 130/160/398
f 126/153/397 183/213/396 184/214/373
f 183/213/374 128/157/399 187/217/380
f 128/157/399 183/213/374 130/160/400
f 190/220/389 181/211/384 179/209/369
f 181/211/367 190/220/401 189/219/402
f 180/210/403 128/157/399 127/155/404
f 128/157/405 180/210/403 187/217/380
f 188/218/406 183/213/407 187/217/380
f 183/213/407 188/218/381 185/215/382
f 3/3/1 2/2/2 1/1/3
f 2/2/2 3/3/1 4/4/4
f 6/6/5 3/3/1 5/5/6
f 3/3/7 6/6/8 4/4/9
f 3/3/7 7/7/10 5/5/6
f 7/7/11 3/3/1 1/1/3
f 2/2/12 6/6/5 8/8/13
f 6/6/8 2/2/2 4/4/4
f 1/1/3 8/8/13 7/7/10
f 8/8/14 1/1/3 2/2/2
f 11/11/15 10/10/16 9/9/17
f 10/10/16 11/11/15 12/12/18
f 14/14/19 11/11/15 13/13/20
f 11/11/15 14/14/21 12/12/22
f 11/11/15 15/15/23 13/13/24
f 15/15/25 11/11/15 9/9/17
f 10/10/16 14/14/26 16/16/27
f 14/14/28 10/10/16 12/12/22
f 9/9/17 16/16/29 15/15/30
f 16/16/31 9/9/17 10/10/16
f 19/19/32 18/18/33 17/17/34
f 18/18/33 19/19/32 20/20/35
f 22/22/36 19/19/37 21/21/38
f 19/19/32 22/22/39 20/20/40
f 19/19/41 23/23/42 21/21/38
f 23/23/43 19/19/32 17/17/44
f 18/18/45 22/22/36 24/24/46
f 22/22/39 18/18/33 20/20/35
f 17/17/47 24/24/46 23/23/42
f 24/24/48 17/17/34 18/18/49
f 27/27/50 26/26/51 25/25/52
f 26/26/51 27/27/50 28/28/53
f 30/30/54 27/27/55 29/29/56
f 27/27/50 30/30/57 28/28/58
f 27/27/50 31/31/59 29/29/56
f 31/31/60 27/27/50 25/25/61
f 26/26/51 30/30/54 32/32/62
f 30/30/63 26/26/51 28/28/58
f 25/25/61 32/32/62 31/31/59
f 32/32/64 25/25/61 26/26/51
f 35/35/65 34/34/66 33/33/67
f 34/34/68 35/35/65 36/36/69
f 38/38/70 35/35/65 37/37/71
f 35/35/65 38/38/72 36/36/73
f 35/35/65 39/39/74 37/37/71
f 39/39/75 35/35/65 33/33/67
f 34/34/66 38/38/70 40/40/76
f 38/38/72 34/34/66 36/36/73
f 33/33/67 40/40/76 39/39/74
f 40/40/77 33/33/67 34/34/66
f 43/43/78 42/42/79 41/41/80
f 42/42/79 43/43/78 44/44/81
f 46/46/82 42/42/82 45/45/82
f 42/42/82 46/46/82 41/41/82
f 41/41/82 46/46/82 47/47/82
f 41/41/82 47/47/82 48/48/82
f 51/52/83 50/50/84 49/49/85
f 50/50/84 51/52/83 52/53/86
f 49/49/85 41/41/80 48/48/87
f 41/41/80 49/49/85 43/43/78
f 54/56/88 51/52/83 53/55/89
f 51/52/83 54/56/88 52/53/86
f 55/58/90 44/44/91 43/43/78
f 44/44/91 55/58/90 56/60/92
f 47/47/93 49/49/85 48/48/87
f 49/49/85 47/47/93 51/52/94
f 53/55/89 47/47/93 46/46/95
f 47/47/93 53/55/89 51/52/94
f 50/50/84 43/43/78 49/49/85
f 43/43/78 50/50/84 55/58/96
f 56/60/92 57/62/97 44/44/81
f 57/62/97 56/60/92 58/63/98
f 58/63/98 53/55/89 57/62/97
f 53/55/89 58/63/98 54/56/99
f 44/44/81 45/45/100 42/42/79
f 45/45/100 44/44/81 57/62/97
f 57/62/97 46/46/95 45/45/100
f 46/46/95 57/62/97 53/55/89
f 61/67/101 60/66/102 59/65/103
f 60/66/104 61/67/101 62/68/105
f 64/70/82 60/66/82 63/69/82
f 60/66/82 64/70/82 59/65/82
f 59/65/82 64/70/82 65/71/82
f 59/65/82 65/71/82 66/72/82
f 69/76/106 68/74/107 67/73/108
f 68/74/109 69/76/110 70/77/111
f 67/73/108 59/65/112 66/72/113
f 59/65/114 67/73/108 61/67/101
f 72/80/115 69/76/106 71/79/116
f 69/76/110 72/80/117 70/77/111
f 73/82/118 62/68/105 61/67/101
f 62/68/119 73/82/120 74/84/121
f 65/71/122 67/73/108 66/72/113
f 67/73/108 65/71/123 69/76/110
f 71/79/116 65/71/124 64/70/125
f 65/71/126 71/79/116 69/76/106
f 68/74/107 61/67/101 67/73/108
f 61/67/101 68/74/109 73/82/120
f 74/84/127 75/86/128 62/68/119
f 75/86/128 74/84/121 76/87/129
f 76/87/130 71/79/116 75/86/128
f 71/79/116 76/87/129 72/80/117
f 62/68/119 63/69/131 60/66/132
f 63/69/133 62/68/119 75/86/128
f 75/86/128 64/70/134 63/69/131
f 64/70/135 75/86/128 71/79/116
f 79/91/136 78/90/137 77/89/138
f 78/90/137 79/91/136 80/92/139
f 82/94/82 78/90/82 81/93/82
f 78/90/82 82/94/82 77/89/82
f 77/89/82 82/94/82 83/95/82
f 77/89/82 83/95/82 84/96/82
f 87/100/140 86/98/141 85/97/142
f 86/98/141 87/100/140 88/101/143
f 85/97/142 77/89/144 84/96/145
f 77/89/144 85/97/142 79/91/136
f 90/104/146 87/100/140 89/103/147
f 87/100/140 90/104/148 88/101/149
f 91/106/150 80/92/139 79/91/136
f 80/92/139 91/106/150 92/108/151
f 83/95/152 85/97/142 84/96/153
f 85/97/142 83/95/152 87/100/140
f 89/103/147 83/95/154 82/94/155
f 83/95/154 89/103/147 87/100/140
f 86/98/141 79/91/136 85/97/142
f 79/91/136 86/98/141 91/106/156
f 92/108/157 93/110/158 80/92/139
f 93/110/158 92/108/157 94/111/159
f 94/111/159 89/103/147 93/110/158
f 89/103/147 94/111/159 90/104/160
f 80/92/139 81/93/161 78/90/162
f 81/93/161 80/92/139 93/110/158
f 93/110/158 82/94/163 81/93/164
f 82/94/163 93/110/158 89/103/147
f 97/115/165 96/114/166 95/113/167
f 96/114/168 97/115/165 98/116/169
f 100/118/82 96/114/82 99/117/82
f 96/114/82 100/118/82 95/113/82
f 95/113/82 100/118/82 101/119/82
f 95/113/82 101/119/82 102/120/82
f 105/124/170 104/122/171 103/121/172
f 104/122/171 105/124/173 106/125/174
f 103/121/172 95/113/167 102/120/175
f 95/113/167 103/121/172 97/115/176
f 108/128/177 105/124/170 107/127/178
f 105/124/179 108/128/177 106/125/180
f 109/130/181 98/116/169 97/115/176
f 98/116/182 109/130/181 110/132/183
f 101/119/184 103/121/172 102/120/175
f 103/121/172 101/119/185 105/124/186
f 107/127/187 101/119/188 100/118/189
f 101/119/185 107/127/187 105/124/170
f 104/122/190 97/115/165 103/121/172
f 97/115/191 104/122/190 109/130/181
f 110/132/192 111/134/193 98/116/194
f 111/134/195 110/132/192 112/135/196
f 112/135/197 107/127/187 111/134/193
f 107/127/198 112/135/197 108/128/177
f 98/116/199 99/117/200 96/114/168
f 99/117/200 98/116/199 111/134/193
f 111/134/193 100/118/189 99/117/200
f 100/118/189 111/134/193 107/127/178
f 115/139/201 114/138/202 113/137/203
f 114/138/202 115/139/204 116/140/205
f 118/142/82 114/138/82 117/141/82
f 114/138/82 118/142/82 113/137/82
f 113/137/82 118/142/82 119/143/82
f 113/137/82 119/143/82 120/144/82
f 123/148/206 122/146/207 121/145/208
f 122/146/207 123/148/206 124/149/209
f 121/145/208 113/137/203 120/144/210
f 113/137/203 121/145/208 115/139/201
f 126/152/211 123/148/206 125/151/212
f 123/148/206 126/152/211 124/149/209
f 127/154/213 116/140/205 115/139/201
f 116/140/205 127/154/213 128/156/214
f 119/143/215 121/145/208 120/144/210
f 121/145/208 119/143/215 123/148/206
f 125/151/212 119/143/215 118/142/216
f 119/143/215 125/151/217 123/148/206
f 122/146/207 115/139/204 121/145/208
f 115/139/204 122/146/207 127/154/213
f 128/156/214 129/158/218 116/140/205
f 129/158/218 128/156/214 130/159/219
f 130/159/219 125/151/217 129/158/218
f 125/151/217 130/159/219 126/152/211
f 116/140/205 117/141/220 114/138/202
f 117/141/221 116/140/205 129/158/218
f 129/158/218 118/142/216 117/141/221
f 118/142/216 129/158/218 125/151/212
f 133/163/222 132/162/223 131/161/224
f 132/162/223 133/163/225 134/164/226
f 137/167/227 136/166/228 135/165/229
f 136/166/228 137/167/230 138/168/231
f 131/161/232 55/59/233 50/51/234
f 55/59/233 131/161/224 132/162/223
f 134/164/226 139/169/235 132/162/223
f 139/169/235 134/164/226 140/170/236
f 134/164/226 137/167/230 140/170/237
f 137/167/230 134/164/226 138/168/231
f 138/168/231 134/164/226 133/163/225
f 138/168/231 133/163/225 141/171/238
f 136/166/239 52/54/240 54/57/241
f 52/54/240 136/166/228 142/172/242
f 50/51/243 142/172/242 131/161/224
f 142/172/244 50/51/243 52/54/240
f 138/168/231 142/172/242 136/166/228
f 142/172/242 138/168/231 141/171/245
f 135/165/246 54/57/241 58/64/247
f 54/57/241 135/165/229 136/166/228
f 135/165/248 56/61/249 139/169/235
f 56/61/250 135/165/229 58/64/247
f 142/172/242 133/163/225 131/161/224
f 133/163/225 142/172/242 141/171/251
f 132/162/252 56/61/249 55/59/233
f 56/61/249 132/162/223 139/169/235
f 140/170/253 135/165/229 139/169/254
f 135/165/229 140/170/237 137/167/230
f 145/175/255 144/174/256 143/173/257
f 144/174/256 145/175/258 146/176/259
f 149/179/260 148/178/261 147/177/262
f 148/178/261 149/179/263 150/180/264
f 143/173/257 73/83/265 68/75/266
f 73/83/265 143/173/257 144/174/267
f 146/176/259 151/181/268 144/174/267
f 151/181/269 146/176/270 152/182/271
f 146/176/272 149/179/260 152/182/271
f 149/179/260 146/176/272 150/180/273
f 150/180/273 146/176/272 145/175/255
f 150/180/273 145/175/255 153/183/274
f 148/178/275 70/78/276 72/81/277
f 70/78/276 148/178/275 154/184/278
f 68/75/266 154/184/279 143/173/257
f 154/184/278 68/75/266 70/78/280
f 150/180/264 154/184/281 148/178/275
f 154/184/282 150/180/283 153/183/274
f 147/177/262 72/81/284 76/88/285
f 72/81/284 147/177/262 148/178/275
f 147/177/262 74/85/286 151/181/287
f 74/85/286 147/177/262 76/88/285
f 154/184/282 145/175/255 143/173/288
f 145/175/258 154/184/281 153/183/289
f 144/174/267 74/85/290 73/83/291
f 74/85/290 144/174/267 151/181/292
f 152/182/271 147/177/293 151/181/294
f 147/177/293 152/182/295 149/179/260
f 157/187/296 156/186/297 155/185/298
f 156/186/297 157/187/299 158/188/300
f 161/191/301 160/190/302 159/189/303
f 160/190/302 161/191/301 162/192/304
f 155/185/305 91/107/306 86/99/307
f 91/107/306 155/185/308 156/186/297
f 158/188/300 163/193/309 156/186/297
f 163/193/309 158/188/300 164/194/310
f 158/188/300 161/191/311 164/194/310
f 161/191/311 158/188/300 162/192/304
f 162/192/304 158/188/300 157/187/299
f 162/192/304 157/187/299 165/195/312
f 160/190/313 88/102/314 90/105/315
f 88/102/316 160/190/317 166/196/318
f 86/99/319 166/196/320 155/185/308
f 166/196/321 86/99/307 88/102/314
f 162/192/304 166/196/318 160/190/302
f 166/196/318 162/192/304 165/195/312
f 159/189/322 90/105/323 94/112/324
f 90/105/323 159/189/325 160/190/302
f 159/189/303 92/109/326 163/193/309
f 92/109/326 159/189/327 94/112/328
f 166/196/318 157/187/299 155/185/308
f 157/187/299 166/196/329 165/195/312
f 156/186/297 92/109/330 91/107/331
f 92/109/330 156/186/332 163/193/309
f 164/194/310 159/189/325 163/193/333
f 159/189/325 164/194/310 161/191/311
f 169/199/334 168/198/335 167/197/336
f 168/198/335 169/199/337 170/200/338
f 173/203/339 172/202/340 171/201/341
f 172/202/340 173/203/342 174/204/343
f 167/197/344 109/131/345 104/123/346
f 109/131/345 167/197/344 168/198/335
f 170/200/338 175/205/347 168/198/335
f 175/205/347 170/200/338 176/206/348
f 170/200/338 173/203/342 176/206/348
f 173/203/342 170/200/338 174/204/343
f 174/204/343 170/200/338 169/199/337
f 174/204/343 169/199/337 177/207/349
f 172/202/340 106/126/350 108/129/351
f 106/126/352 172/202/353 178/208/354
f 104/123/355 178/208/356 167/197/344
f 178/208/357 104/123/355 106/126/358
f 174/204/343 178/208/356 172/202/340
f 178/208/357 174/204/343 177/207/349
f 171/201/359 108/129/351 112/136/360
f 108/129/351 171/201/359 172/202/340
f 171/201/341 110/133/361 175/205/362
f 110/133/361 171/201/359 112/136/363
f 178/208/357 169/199/337 167/197/344
f 169/199/337 178/208/354 177/207/349
f 168/198/335 110/133/364 109/131/345
f 110/133/364 168/198/365 175/205/366
f 176/206/348 171/201/359 175/205/366
f 171/201/359 176/206/348 173/203/342
f 181/211/367 180/210/368 179/209/369
f 180/210/368 181/211/370 182/212/371
f 185/215/372 184/214/373 183/213/374
f 184/214/373 185/215/375 186/216/376
f 179/209/369 127/155/377 122/147/378
f 127/155/377 179/209/369 180/210/368
f 182/212/379 187/217/380 180/210/368
f 187/217/380 182/212/371 188/218/381
f 182/212/379 185/215/382 188/218/381
f 185/215/372 182/212/379 186/216/383
f 186/216/383 182/212/379 181/211/367
f 186/216/383 181/211/384 189/219/385
f 184/214/386 124/150/387 126/153/388
f 124/150/387 184/214/386 190/220/389
f 122/147/390 190/220/391 179/209/392
f 190/220/393 122/147/394 124/150/395
f 186/216/383 190/220/389 184/214/373
f 190/220/389 186/216/376 189/219/385
f 183/213/396 126/153/397 130/160/398
f 126/153/397 183/213/396 184/214/373
f 183/213/374 128/157/399 187/217/380
f 128/157/399 183/213/374 130/160/400
f 190/220/389 181/211/384 179/209/369
f 181/211/367 190/220/401 189/219/402
f 180/210/403 128/157/399 127/155/404
f 128/157/405 180/210/403 187/217/380
f 188/218/406 183/213/407 187/217/380
f 183/213/407 188/218/381 185/215/382
