# Blender 3.3.1
# www.blender.org
o rocks-large
v 0.176067 -0.229330 -0.000000
v 0.129673 -0.117324 -0.000000
v 0.129673 -0.341336 -0.000000
v 0.017667 -0.387730 -0.000000
v 0.017667 -0.070930 -0.000000
v -0.094339 -0.341336 -0.000000
v -0.094339 -0.117324 -0.000000
v -0.140733 -0.229330 -0.000000
v 0.081027 -0.229330 0.079200
v 0.062469 -0.274133 0.079200
v 0.062469 -0.184528 0.079200
v 0.017667 -0.165970 0.079200
v 0.017667 -0.292690 0.079200
v -0.027136 -0.184528 0.079200
v -0.027136 -0.274133 0.079200
v -0.045693 -0.229330 0.079200
v 0.112707 -0.229330 0.039600
v 0.084870 -0.296534 0.039600
v -0.049537 -0.162127 0.039600
v -0.077373 -0.229330 0.039600
v 0.017667 -0.134290 0.039600
v 0.017667 -0.324370 0.039600
v 0.084870 -0.162127 0.039600
v -0.049537 -0.296534 0.039600
v 0.496217 0.113325 0.000000
v 0.449823 0.225331 0.000000
v 0.449823 0.001319 0.000000
v 0.337817 -0.045075 -0.000000
v 0.337817 0.271725 0.000000
v 0.225811 0.001319 0.000000
v 0.225811 0.225331 0.000000
v 0.179417 0.113325 0.000000
v 0.401177 0.113325 0.051480
v 0.382619 0.068523 0.051480
v 0.382619 0.158127 0.051480
v 0.337817 0.176685 0.051480
v 0.337817 0.049965 0.051480
v 0.293015 0.158127 0.051480
v 0.293015 0.068523 0.051480
v 0.274457 0.113325 0.051480
v 0.432857 0.113325 0.025740
v 0.405021 0.046122 0.025740
v 0.270614 0.180528 0.025740
v 0.242777 0.113325 0.025740
v 0.337817 0.208365 0.025740
v 0.337817 0.018285 0.025740
v 0.405021 0.180528 0.025740
v 0.270614 0.046122 0.025740
v -0.108702 0.042443 0.000000
v -0.156854 0.158692 0.000000
v -0.156854 -0.073805 -0.000000
v -0.273102 -0.121957 -0.000000
v -0.273102 0.206843 0.000000
v -0.389351 -0.073805 -0.000000
v -0.389351 0.158692 0.000000
v -0.437502 0.042443 0.000000
v -0.207342 0.042443 0.062513
v -0.226603 -0.004056 0.062513
v -0.226603 0.088943 0.062513
v -0.273102 0.108203 0.062513
v -0.273102 -0.023317 0.062513
v -0.319602 0.088943 0.062513
v -0.319602 -0.004056 0.062513
v -0.338862 0.042443 0.062513
v -0.174462 0.042443 0.031257
v -0.203353 -0.027306 0.031257
v -0.342851 0.112192 0.031257
v -0.371742 0.042443 0.031257
v -0.273102 0.141083 0.031257
v -0.273102 -0.056197 0.031257
v -0.203353 0.112192 0.031257
v -0.342851 -0.027306 0.031257
v 0.162835 0.206552 0.147117
v 0.285201 0.196974 0.147117
v 0.171919 0.187527 0.159459
v 0.273267 0.179594 0.159459
v 0.268611 -0.014972 0.147117
v 0.146244 -0.005394 0.147117
v 0.259527 0.004053 0.159459
v 0.158178 0.011986 0.159459
v 0.165946 0.200037 0.134775
v 0.281114 0.191022 0.134775
v 0.338090 0.086211 0.147117
v 0.317071 0.087857 0.159459
v 0.114374 0.103723 0.159459
v 0.150331 0.000558 0.134775
v 0.100554 0.104805 0.134775
v 0.093356 0.105368 0.147117
v 0.265500 -0.008457 0.134775
v 0.330892 0.086775 0.134775
v -0.021498 -0.234764 0.232444
v -0.128331 -0.295198 0.232444
v -0.039663 -0.224063 0.251945
v -0.128146 -0.274116 0.251945
v -0.233005 -0.110159 0.232444
v -0.126173 -0.049725 0.232444
v -0.214841 -0.120860 0.251945
v -0.126358 -0.070807 0.251945
v -0.027719 -0.231099 0.212944
v -0.128267 -0.287978 0.212944
v -0.234084 -0.232895 0.232444
v -0.215734 -0.222515 0.251945
v -0.038769 -0.122408 0.251945
v -0.126236 -0.056945 0.212944
v -0.026704 -0.115583 0.212944
v -0.020419 -0.112028 0.232444
v -0.226784 -0.113824 0.212944
v -0.227800 -0.229340 0.212944
v -0.072440 -0.133238 0.474219
v -0.157741 -0.053664 0.474219
v -0.067929 -0.113716 0.514002
v -0.138578 -0.047810 0.514002
v -0.019915 0.094082 0.474219
v 0.065386 0.014508 0.474219
v -0.024426 0.074559 0.514002
v 0.046224 0.008653 0.514002
v -0.070895 -0.126553 0.434435
v -0.151179 -0.051659 0.434435
v -0.131479 0.059996 0.474219
v -0.116827 0.046328 0.514002
v 0.024472 -0.085484 0.514002
v 0.058824 0.012503 0.434435
v 0.034106 -0.094471 0.434435
v 0.039124 -0.099152 0.474219
v -0.021460 0.087396 0.434435
v -0.126461 0.055315 0.434435
v 0.142826 0.130551 0.347730
v 0.176869 0.034995 0.347730
v 0.131536 0.117281 0.376902
v 0.159731 0.038138 0.376902
v 0.011360 -0.023968 0.347730
v -0.022682 0.071588 0.347730
v 0.022651 -0.010697 0.376902
v -0.005544 0.068446 0.376902
v 0.138960 0.126007 0.318558
v 0.171000 0.036071 0.318558
v 0.111136 -0.042265 0.347730
v 0.105288 -0.025851 0.376902
v 0.048898 0.132435 0.376902
v -0.016813 0.070512 0.318558
v 0.045054 0.143227 0.318558
v 0.043051 0.148848 0.347730
v 0.015227 -0.019423 0.318558
v 0.109133 -0.036644 0.318558
v 0.183721 -0.168912 0.153196
v 0.088317 -0.203377 0.153196
v 0.170401 -0.157680 0.166048
v 0.091383 -0.186225 0.166048
v 0.028622 -0.038131 0.153196
v 0.124026 -0.003666 0.153196
v 0.041942 -0.049363 0.166048
v 0.120960 -0.020818 0.166048
v 0.179160 -0.165066 0.140344
v 0.089367 -0.197503 0.140344
v 0.010767 -0.137986 0.153196
v 0.027154 -0.132067 0.166048
v 0.185189 -0.074977 0.166048
v 0.122976 -0.009540 0.140344
v 0.195964 -0.071084 0.140344
v 0.201576 -0.069057 0.153196
v 0.033184 -0.041978 0.140344
v 0.016379 -0.135959 0.140344
v -0.201770 0.120064 0.147117
v -0.191650 0.242387 0.147117
v -0.182705 0.129064 0.159459
v -0.174323 0.230376 0.159459
v 0.020220 0.224859 0.147117
v 0.010100 0.102536 0.147117
v 0.001155 0.215859 0.159459
v -0.007226 0.114547 0.159459
v -0.195241 0.123146 0.134775
v -0.185716 0.238274 0.134775
v -0.080655 0.294785 0.147117
v -0.082393 0.273774 0.159459
v -0.099156 0.071149 0.159459
v 0.004167 0.106649 0.134775
v -0.100299 0.057334 0.134775
v -0.100895 0.050138 0.147117
v 0.013691 0.221777 0.134775
v -0.081250 0.287589 0.134775
v 0.209342 -0.182937 0.097556
v 0.231921 -0.227819 0.097556
v 0.204605 -0.190150 0.105740
v 0.223305 -0.227323 0.105740
v 0.154182 -0.266927 0.097556
v 0.131603 -0.222044 0.097556
v 0.158919 -0.259714 0.105740
v 0.140219 -0.222540 0.105740
v 0.207720 -0.185407 0.089371
v 0.228970 -0.227650 0.089371
v 0.204341 -0.269814 0.097556
v 0.200463 -0.262105 0.105740
v 0.163062 -0.187759 0.105740
v 0.134554 -0.222214 0.089371
v 0.160512 -0.182690 0.089371
v 0.159183 -0.180049 0.097556
v 0.155804 -0.264457 0.089371
v 0.203013 -0.267174 0.089371
v 0.192874 0.277079 0.097556
v 0.189023 0.327172 0.097556
v 0.199995 0.281954 0.105740
v 0.196805 0.323443 0.105740
v 0.275788 0.333842 0.097556
v 0.279639 0.283748 0.097556
v 0.268667 0.328967 0.105740
v 0.271857 0.287478 0.105740
v 0.195312 0.278748 0.089371
v 0.191688 0.325895 0.089371
v 0.230480 0.355555 0.097556
v 0.231142 0.346950 0.105740
v 0.237521 0.263971 0.105740
v 0.276974 0.285026 0.089371
v 0.237955 0.258313 0.089371
v 0.238182 0.255366 0.097556
v 0.273350 0.332173 0.089371
v 0.230707 0.352608 0.089371
v -0.397019 -0.137545 0.097556
v -0.404843 -0.087916 0.097556
v -0.390308 -0.132119 0.105740
v -0.396788 -0.091015 0.105740
v -0.318883 -0.074365 0.097556
v -0.311059 -0.123994 0.097556
v -0.325593 -0.079791 0.105740
v -0.319113 -0.120896 0.105740
v -0.394721 -0.135687 0.089371
v -0.402084 -0.088977 0.089371
v -0.365774 -0.056326 0.097556
v -0.364430 -0.064851 0.105740
v -0.351471 -0.147060 0.105740
v -0.313817 -0.122933 0.089371
v -0.350588 -0.152665 0.089371
v -0.350127 -0.155584 0.097556
v -0.321181 -0.076223 0.089371
v -0.365314 -0.059246 0.089371
v 0.375130 0.291275 0.015000
v 0.366771 0.312164 0.015000
v 0.396020 0.299633 0.015000
v 0.387661 0.320523 0.015000
v 0.400894 0.297545 0.000000
v 0.389750 0.325398 0.000000
v 0.373041 0.286400 0.000000
v 0.361897 0.314253 0.000000
v 0.064543 0.382214 0.015000
v 0.079176 0.365122 0.015000
v 0.047452 0.367581 0.015000
v 0.062085 0.350489 0.015000
v 0.042164 0.367991 0.000000
v 0.061675 0.345202 0.000000
v 0.064953 0.387502 0.000000
v 0.084464 0.364713 0.000000
v 0.073227 0.065392 0.391902
v 0.076006 0.087720 0.391902
v 0.095554 0.062613 0.391902
v 0.098333 0.084941 0.391902
v 0.098813 0.058429 0.376902
v 0.102518 0.088199 0.376902
v 0.069042 0.062134 0.376902
v 0.072748 0.091904 0.376902
v 0.317023 -0.156639 0.015000
v 0.300390 -0.141487 0.015000
v 0.332175 -0.140006 0.015000
v 0.315542 -0.124854 0.015000
v 0.337473 -0.139760 -0.000000
v 0.315295 -0.119556 -0.000000
v 0.317269 -0.161937 -0.000000
v 0.295092 -0.141734 -0.000000
v 0.124473 -0.121994 0.181048
v 0.105121 -0.110516 0.181048
v 0.135951 -0.102641 0.181048
v 0.116598 -0.091164 0.181048
v 0.141089 -0.101328 0.166048
v 0.115285 -0.086026 0.166048
v 0.125786 -0.127132 0.166048
v 0.099982 -0.111829 0.166048
v -0.141959 -0.158398 0.266945
v -0.163590 -0.164591 0.266945
v -0.148152 -0.136767 0.266945
v -0.169783 -0.142960 0.266945
v -0.145579 -0.132130 0.251945
v -0.174420 -0.140387 0.251945
v -0.137322 -0.160971 0.251945
v -0.166163 -0.169229 0.251945
v 0.346506 0.286253 0.000000
v 0.446060 0.077760 0.000000
v 0.306827 0.228467 0.057761
v 0.376176 0.083230 0.057761
v 0.315277 -0.112703 -0.000000
v 0.084939 -0.094673 -0.000000
v -0.014615 0.113820 0.000000
v 0.116168 0.304283 0.000000
v 0.146373 0.241026 0.057761
v 0.055270 0.108350 0.057761
v 0.124619 -0.036887 0.057761
v 0.285072 -0.049446 0.057761
v -0.129283 -0.403495 -0.000000
v -0.328348 -0.286219 -0.000000
v -0.128667 -0.333399 0.091262
v -0.267336 -0.251705 0.091262
v -0.326317 -0.055186 -0.000000
v -0.125221 0.058572 0.000000
v 0.073844 -0.058704 -0.000000
v 0.071813 -0.289737 -0.000000
v 0.011417 -0.254156 0.091262
v 0.012832 -0.093218 0.091262
v -0.125837 -0.011524 0.091262
v -0.265921 -0.090767 0.091262
v -0.256180 -0.083740 -0.000000
v -0.206745 0.130208 0.000000
v -0.192465 -0.064274 0.186187
v -0.158029 0.084763 0.186187
v 0.003258 0.194370 0.000000
v 0.163825 0.044584 0.000000
v 0.114390 -0.169365 -0.000000
v -0.095613 -0.233527 -0.000000
v -0.080614 -0.168615 0.186187
v 0.065674 -0.123919 0.186187
v 0.100110 0.025117 0.186187
v -0.011741 0.129458 0.186187
v 0.264906 0.018851 0.000000
v 0.141173 -0.126579 -0.000000
v 0.207923 0.029300 0.136525
v 0.121731 -0.072006 0.136525
v -0.046639 -0.092138 -0.000000
v -0.110719 0.087733 0.000000
v 0.013014 0.233162 0.000000
v 0.200826 0.198722 0.000000
v 0.163286 0.154598 0.136525
v 0.032456 0.178590 0.136525
v -0.053737 0.077283 0.136525
v -0.009099 -0.048015 0.136525
v 0.072562 -0.291484 -0.000000
v -0.073414 -0.168397 -0.000000
v 0.082759 -0.234457 0.060147
v -0.018928 -0.148713 0.060147
v -0.039804 0.019566 0.000000
v 0.139781 0.084441 0.000000
v 0.285757 -0.038647 -0.000000
v 0.252148 -0.226609 -0.000000
v 0.207858 -0.189265 0.060147
v 0.231271 -0.058330 0.060147
v 0.129584 0.027413 0.060147
v 0.004485 -0.017779 0.060147
v -0.280657 0.304087 0.000000
v -0.071726 0.402717 0.000000
v -0.223047 0.264152 0.057761
v -0.077505 0.332857 0.057761
v 0.118157 0.271092 0.000000
v 0.099108 0.040837 0.000000
v -0.109824 -0.057794 -0.000000
v -0.299707 0.073831 0.000000
v -0.236317 0.103755 0.057761
v -0.104044 0.012065 0.057761
v 0.041497 0.080772 0.057761
v 0.054767 0.241168 0.057761
v 0.276179 -0.230367 -0.000000
v 0.224263 -0.309417 -0.000000
v 0.247533 -0.228718 0.038302
v 0.211368 -0.283784 0.038302
v 0.129847 -0.303981 -0.000000
v 0.087346 -0.219497 -0.000000
v 0.139261 -0.140447 -0.000000
v 0.233678 -0.145882 -0.000000
v 0.217926 -0.169866 0.038302
v 0.152156 -0.166080 0.038302
v 0.115992 -0.221146 0.038302
v 0.145598 -0.279998 0.038302
v 0.149045 0.346330 0.000000
v 0.227082 0.399755 0.000000
v 0.174921 0.333930 0.038302
v 0.229282 0.371146 0.038302
v 0.312368 0.358886 0.000000
v 0.319617 0.264591 0.000000
v 0.241580 0.211166 0.000000
v 0.156294 0.252036 0.000000
v 0.179970 0.268245 0.038302
v 0.239381 0.239775 0.038302
v 0.293741 0.276991 0.038302
v 0.288692 0.342676 0.038302
v -0.446218 -0.071999 -0.000000
v -0.372677 -0.012536 -0.000000
v -0.419438 -0.082302 0.038302
v -0.368210 -0.040879 0.038302
v -0.284411 -0.046492 -0.000000
v -0.269684 -0.139911 -0.000000
v -0.343224 -0.199374 -0.000000
v -0.431491 -0.165419 -0.000000
v -0.409179 -0.147377 0.038302
v -0.347692 -0.171031 0.038302
v -0.296464 -0.129609 0.038302
v -0.306723 -0.064533 0.038302
vn -0.0000 -0.0000 -1.0000
vn 0.3625 0.3624 0.8586
vn 0.3625 -0.3624 0.8586
vn 0.5126 -0.0000 0.8586
vn 0.3624 -0.3625 0.8586
vn 0.3625 0.3625 0.8586
vn -0.0000 0.5126 0.8586
vn 0.3625 -0.3625 0.8586
vn -0.0000 -0.5126 0.8586
vn -0.3625 0.3625 0.8586
vn -0.3624 0.3625 0.8586
vn -0.3625 -0.3625 0.8586
vn -0.3625 -0.3624 0.8586
vn -0.3625 0.3624 0.8586
vn -0.5126 -0.0000 0.8586
vn 0.6404 -0.0000 0.7680
vn 0.4529 -0.4528 0.7680
vn -0.3748 0.3748 0.8480
vn -0.6404 -0.0000 0.7681
vn -0.4528 0.4528 0.7680
vn -0.6404 -0.0000 0.7680
vn -0.5300 -0.0000 0.8480
vn -0.0000 0.6404 0.7680
vn -0.0000 0.5300 0.8480
vn -0.0000 0.6404 0.7681
vn 0.4528 -0.4528 0.7680
vn -0.0000 -0.5300 0.8480
vn 0.3748 -0.3748 0.8480
vn 0.4528 -0.4528 0.7681
vn -0.0000 -0.6404 0.7680
vn 0.4528 0.4528 0.7680
vn 0.3748 0.3748 0.8480
vn 0.4528 0.4528 0.7681
vn -0.4528 -0.4528 0.7681
vn -0.4528 -0.4528 0.7680
vn -0.3748 -0.3748 0.8480
vn 0.5300 -0.0000 0.8480
vn 0.6404 -0.0000 0.7681
vn -0.4529 0.4528 0.7680
vn -0.4529 -0.4528 0.7680
vn -0.4528 0.4529 0.7680
vn -0.4528 -0.4529 0.7680
vn 0.4529 0.4528 0.7680
vn 0.4528 -0.4529 0.7680
vn 0.4528 0.4529 0.7680
vn 0.2558 0.2558 0.9323
vn 0.2558 -0.2558 0.9323
vn 0.3618 -0.0000 0.9323
vn -0.0000 0.3618 0.9323
vn -0.0000 -0.3618 0.9323
vn -0.2558 0.2558 0.9323
vn -0.2558 -0.2558 0.9323
vn -0.3618 -0.0000 0.9323
vn 0.4765 -0.0000 0.8792
vn 0.3369 -0.3369 0.8792
vn -0.2661 0.2661 0.9265
vn -0.4765 -0.0000 0.8792
vn -0.3369 0.3369 0.8792
vn -0.3764 -0.0000 0.9265
vn -0.0000 0.4765 0.8792
vn -0.0000 0.3764 0.9265
vn -0.0000 -0.3764 0.9265
vn 0.2661 -0.2661 0.9265
vn -0.0000 -0.4765 0.8792
vn 0.3369 0.3369 0.8792
vn 0.2661 0.2661 0.9265
vn -0.3369 -0.3369 0.8792
vn -0.2661 -0.2661 0.9265
vn 0.3764 -0.0000 0.9265
vn 0.2924 0.2923 0.9105
vn 0.2924 -0.2923 0.9105
vn 0.4134 -0.0000 0.9105
vn 0.2923 -0.2924 0.9105
vn 0.2923 0.2923 0.9105
vn -0.0000 0.4134 0.9105
vn 0.2923 -0.2923 0.9105
vn -0.0000 -0.4134 0.9105
vn -0.2923 0.2923 0.9105
vn -0.2923 0.2924 0.9105
vn -0.2923 -0.2923 0.9105
vn -0.2924 -0.2923 0.9105
vn -0.2924 0.2923 0.9105
vn -0.4134 -0.0000 0.9105
vn 0.5355 -0.0000 0.8445
vn 0.3787 -0.3787 0.8445
vn -0.3035 0.3036 0.9032
vn -0.5355 -0.0000 0.8445
vn -0.3787 0.3787 0.8445
vn -0.4293 -0.0000 0.9032
vn -0.3036 0.3035 0.9032
vn -0.0000 0.5355 0.8445
vn -0.0000 0.4293 0.9032
vn -0.0000 -0.4293 0.9032
vn 0.3035 -0.3035 0.9032
vn -0.0000 -0.5355 0.8445
vn 0.3787 0.3787 0.8445
vn 0.3035 0.3035 0.9032
vn -0.3787 -0.3787 0.8445
vn -0.3035 -0.3035 0.9032
vn -0.3035 -0.3036 0.9032
vn 0.3035 0.3036 0.9032
vn 0.4293 -0.0000 0.9032
vn 0.3035 -0.3036 0.9032
vn -0.0911 0.1907 0.9774
vn 0.5104 0.7433 0.4324
vn -0.3885 0.8137 0.4324
vn 0.1196 0.1742 0.9774
vn 0.0911 -0.1907 0.9774
vn -0.5104 -0.7433 0.4324
vn 0.3885 -0.8137 0.4324
vn -0.1196 -0.1742 0.9774
vn 0.4886 0.7116 -0.5049
vn -0.3719 0.7789 -0.5050
vn 0.4886 0.7115 -0.5050
vn 0.1197 0.1742 0.9774
vn 0.8990 -0.0703 0.4324
vn 0.8989 -0.0704 0.4324
vn 0.2107 -0.0165 0.9774
vn 0.1197 0.1743 0.9774
vn 0.0911 -0.1908 0.9774
vn -0.1197 -0.1743 0.9774
vn -0.0911 0.1908 0.9774
vn -0.2107 0.0165 0.9774
vn -0.8605 0.0674 -0.5049
vn -0.4886 -0.7115 -0.5050
vn -0.8605 0.0674 -0.5050
vn -0.8989 0.0704 0.4324
vn -0.3719 0.7789 -0.5049
vn -0.1197 -0.1742 0.9774
vn -0.8990 0.0703 0.4324
vn -0.4886 -0.7116 -0.5049
vn 0.3719 -0.7789 -0.5050
vn 0.8605 -0.0674 -0.5049
vn 0.3886 -0.8137 0.4324
vn -0.8989 0.0703 0.4324
vn 0.2786 -0.1641 0.9463
vn -0.0084 -0.9569 0.2904
vn 0.8244 -0.4858 0.2904
vn -0.0029 -0.3233 0.9463
vn -0.2786 0.1641 0.9463
vn 0.0084 0.9569 0.2904
vn -0.8244 0.4858 0.2904
vn 0.0029 0.3233 0.9463
vn 0.8244 -0.4857 0.2904
vn -0.0083 -0.9377 -0.3473
vn 0.8080 -0.4760 -0.3472
vn -0.0083 -0.9378 -0.3472
vn 0.8245 -0.4857 0.2904
vn -0.8329 -0.4712 0.2904
vn -0.0085 -0.9569 0.2904
vn -0.2815 -0.1592 0.9463
vn -0.2814 -0.1592 0.9463
vn -0.0028 -0.3233 0.9463
vn 0.0028 0.3233 0.9463
vn 0.2814 0.1592 0.9463
vn 0.8162 0.4617 -0.3473
vn 0.0082 0.9378 -0.3472
vn 0.8163 0.4617 -0.3472
vn 0.8329 0.4711 0.2904
vn 0.8080 -0.4760 -0.3473
vn 0.8162 0.4618 -0.3472
vn 0.8329 0.4712 0.2904
vn 0.2815 0.1592 0.9463
vn -0.8244 0.4857 0.2904
vn 0.0083 0.9377 -0.3473
vn -0.8080 0.4760 -0.3472
vn 0.0083 0.9378 -0.3472
vn -0.8245 0.4857 0.2904
vn -0.8162 -0.4618 -0.3472
vn -0.8162 -0.4617 -0.3473
vn -0.0082 -0.9378 -0.3472
vn -0.8162 -0.4617 -0.3472
vn -0.8329 -0.4711 0.2904
vn -0.1332 -0.5762 0.8064
vn -0.9469 -0.2894 0.1400
vn -0.2229 -0.9647 0.1400
vn -0.9469 -0.2893 0.1400
vn -0.5656 -0.1728 0.8064
vn 0.1332 0.5762 0.8064
vn 0.9469 0.2894 0.1400
vn 0.2229 0.9647 0.1400
vn 0.9469 0.2893 0.1400
vn 0.5656 0.1728 0.8064
vn -0.9424 -0.2880 -0.1700
vn -0.2219 -0.9601 -0.1700
vn -0.7241 0.6754 0.1400
vn -0.7240 0.6754 0.1400
vn -0.4325 0.4034 0.8064
vn 0.1331 0.5763 0.8064
vn -0.1331 -0.5763 0.8064
vn 0.4325 -0.4034 0.8064
vn 0.7206 -0.6722 -0.1700
vn 0.9424 0.2879 -0.1700
vn 0.7240 -0.6754 0.1400
vn -0.2218 -0.9602 -0.1700
vn -0.2218 -0.9601 -0.1700
vn 0.7241 -0.6754 0.1400
vn 0.9424 0.2880 -0.1700
vn 0.2219 0.9601 -0.1700
vn -0.7206 0.6722 -0.1700
vn 0.2218 0.9602 -0.1700
vn -0.1331 -0.5762 0.8064
vn -0.9424 -0.2879 -0.1700
vn -0.4324 0.4034 0.8064
vn 0.1331 0.5762 0.8064
vn 0.3409 0.4006 0.8505
vn 0.9701 -0.1779 0.1654
vn 0.6391 0.7512 0.1654
vn 0.3409 0.4007 0.8505
vn 0.5174 -0.0949 0.8505
vn -0.3409 -0.4006 0.8505
vn -0.9701 0.1779 0.1654
vn -0.6391 -0.7512 0.1654
vn -0.3409 -0.4007 0.8505
vn -0.5174 0.0949 0.8505
vn 0.6391 0.7512 0.1653
vn 0.9637 -0.1767 -0.2004
vn 0.6349 0.7462 -0.2004
vn 0.9636 -0.1767 -0.2004
vn 0.3309 -0.9290 0.1654
vn 0.1765 -0.4955 0.8505
vn -0.3408 -0.4006 0.8505
vn 0.1766 -0.4955 0.8505
vn 0.3408 0.4006 0.8505
vn -0.1765 0.4955 0.8505
vn -0.9701 0.1778 0.1653
vn -0.3288 0.9229 -0.2004
vn -0.9636 0.1767 -0.2004
vn -0.3310 0.9290 0.1654
vn 0.6391 0.7511 0.1654
vn -0.3310 0.9290 0.1653
vn -0.3309 0.9290 0.1654
vn -0.6391 -0.7512 0.1653
vn -0.6349 -0.7462 -0.2004
vn -0.6391 -0.7511 0.1654
vn 0.3288 -0.9229 -0.2004
vn 0.3310 -0.9290 0.1654
vn -0.6391 -0.7511 0.1653
vn 0.9701 -0.1779 0.1653
vn 0.2010 -0.1695 0.9648
vn -0.1645 -0.9200 0.3557
vn 0.7145 -0.6025 0.3557
vn -0.0463 -0.2588 0.9648
vn -0.2010 0.1695 0.9648
vn 0.1645 0.9200 0.3557
vn -0.7145 0.6025 0.3557
vn 0.0463 0.2588 0.9648
vn -0.1597 -0.8929 -0.4211
vn 0.6934 -0.5847 -0.4211
vn -0.1597 -0.8928 -0.4211
vn -0.8790 -0.3176 0.3557
vn -0.2473 -0.0893 0.9648
vn -0.2472 -0.0893 0.9648
vn 0.2472 0.0893 0.9648
vn 0.8531 0.3082 -0.4211
vn 0.1596 0.8929 -0.4211
vn 0.8530 0.3082 -0.4211
vn 0.8790 0.3176 0.3557
vn 0.8790 0.3175 0.3557
vn 0.7145 -0.6024 0.3557
vn 0.2473 0.0893 0.9648
vn 0.1597 0.8929 -0.4211
vn -0.6934 0.5847 -0.4211
vn 0.1597 0.8928 -0.4211
vn -0.8530 -0.3082 -0.4211
vn -0.8790 -0.3175 0.3557
vn -0.8531 -0.3082 -0.4211
vn -0.7145 0.6024 0.3557
vn -0.1596 -0.8929 -0.4211
vn -0.1911 -0.0902 0.9774
vn -0.7411 0.5137 0.4324
vn -0.8154 -0.3849 0.4324
vn -0.7410 0.5137 0.4324
vn -0.1737 0.1204 0.9774
vn 0.1911 0.0902 0.9774
vn 0.7411 -0.5137 0.4324
vn 0.8154 0.3849 0.4324
vn 0.7410 -0.5137 0.4324
vn 0.1737 -0.1204 0.9774
vn -0.7094 0.4917 -0.5049
vn -0.7805 -0.3685 -0.5050
vn -0.7094 0.4917 -0.5050
vn 0.0743 0.8986 0.4324
vn 0.0744 0.8986 0.4324
vn 0.0174 0.2107 0.9774
vn 0.1912 0.0902 0.9774
vn -0.1912 -0.0902 0.9774
vn -0.0174 -0.2107 0.9774
vn -0.0712 -0.8602 -0.5049
vn 0.7094 -0.4917 -0.5050
vn -0.0712 -0.8602 -0.5050
vn -0.0743 -0.8986 0.4324
vn -0.0744 -0.8986 0.4324
vn -0.7806 -0.3685 -0.5049
vn 0.7094 -0.4917 -0.5049
vn 0.7805 0.3685 -0.5050
vn 0.0712 0.8602 -0.5050
vn 0.0712 0.8602 -0.5049
vn 0.8154 0.3850 0.4324
vn 0.0174 0.2106 0.9774
vn 0.1815 0.2763 0.9438
vn 0.9573 -0.0551 0.2838
vn 0.5264 0.8015 0.2838
vn 0.1815 0.2764 0.9438
vn 0.3301 -0.0190 0.9438
vn -0.1815 -0.2763 0.9438
vn -0.9573 0.0551 0.2838
vn -0.5264 -0.8015 0.2838
vn -0.1815 -0.2764 0.9438
vn -0.3301 0.0190 0.9438
vn 0.5263 0.8015 0.2838
vn 0.9390 -0.0540 -0.3396
vn 0.5163 0.7862 -0.3397
vn 0.4309 -0.8566 0.2838
vn 0.9573 -0.0551 0.2839
vn 0.1486 -0.2953 0.9438
vn 0.1486 -0.2954 0.9438
vn -0.1486 0.2954 0.9438
vn -0.4227 0.8402 -0.3396
vn -0.9390 0.0541 -0.3397
vn -0.4309 0.8566 0.2838
vn -0.4310 0.8566 0.2838
vn 0.5163 0.7862 -0.3396
vn -0.4227 0.8402 -0.3397
vn -0.1486 0.2953 0.9438
vn -0.5263 -0.8015 0.2838
vn -0.9390 0.0540 -0.3396
vn -0.5163 -0.7862 -0.3397
vn -0.9390 0.0540 -0.3397
vn 0.4227 -0.8402 -0.3396
vn 0.9390 -0.0541 -0.3397
vn 0.4227 -0.8402 -0.3397
vn -0.2728 -0.1868 0.9438
vn -0.8647 0.4144 0.2838
vn -0.7912 -0.5417 0.2838
vn -0.2981 0.1429 0.9438
vn 0.2728 0.1868 0.9438
vn 0.8647 -0.4144 0.2838
vn 0.7912 0.5417 0.2838
vn 0.2981 -0.1428 0.9438
vn -0.8482 0.4064 -0.3396
vn -0.7761 -0.5313 -0.3397
vn -0.8482 0.4064 -0.3397
vn -0.0735 0.9561 0.2838
vn -0.2982 0.1429 0.9438
vn -0.0254 0.3296 0.9438
vn 0.2981 -0.1429 0.9438
vn 0.0253 -0.3296 0.9438
vn 0.8647 -0.4143 0.2838
vn 0.0721 -0.9378 -0.3396
vn 0.8482 -0.4065 -0.3397
vn 0.0735 -0.9561 0.2838
vn -0.7761 -0.5313 -0.3396
vn 0.0721 -0.9378 -0.3397
vn 0.2982 -0.1429 0.9438
vn 0.0254 -0.3296 0.9438
vn 0.8482 -0.4064 -0.3397
vn 0.7761 0.5313 -0.3397
vn 0.8482 -0.4064 -0.3396
vn 0.7913 0.5416 0.2838
vn -0.0721 0.9378 -0.3396
vn 0.7912 0.5416 0.2838
vn 0.0735 -0.9560 0.2838
vn -0.8647 0.4143 0.2838
vn -0.8482 0.4065 -0.3397
vn -0.0253 0.3296 0.9438
vn -0.0735 0.9560 0.2838
vn -0.0254 0.3297 0.9438
vn -0.2571 -0.2079 0.9438
vn -0.8949 0.3443 0.2838
vn -0.7456 -0.6029 0.2838
vn -0.8949 0.3443 0.2839
vn -0.3086 0.1187 0.9438
vn 0.2571 0.2079 0.9438
vn 0.8949 -0.3443 0.2838
vn 0.7456 0.6029 0.2838
vn 0.8949 -0.3443 0.2839
vn 0.3086 -0.1187 0.9438
vn -0.8779 0.3377 -0.3396
vn -0.7314 -0.5914 -0.3397
vn -0.8778 0.3377 -0.3397
vn -0.3085 0.1187 0.9438
vn -0.1493 0.9472 0.2838
vn -0.0515 0.3266 0.9438
vn 0.0515 -0.3266 0.9438
vn 0.1465 -0.9291 -0.3397
vn 0.8778 -0.3377 -0.3396
vn 0.1465 -0.9291 -0.3396
vn 0.8950 -0.3442 0.2838
vn 0.1493 -0.9472 0.2838
vn 0.1494 -0.9472 0.2838
vn 0.1493 -0.9472 0.2839
vn -0.7314 -0.5914 -0.3396
vn 0.1464 -0.9291 -0.3397
vn 0.7314 0.5914 -0.3397
vn 0.7457 0.6029 0.2838
vn -0.1464 0.9291 -0.3396
vn -0.8950 0.3442 0.2838
vn -0.1465 0.9291 -0.3396
vn -0.1465 0.9291 -0.3397
vn 0.6544 -0.2804 0.7023
vn -0.6544 0.2804 0.7023
vn -0.2803 -0.6544 0.7023
vn 0.2803 0.6544 0.7023
vn 0.3713 0.8666 0.3334
vn 0.6544 -0.2803 0.7023
vn 0.8666 -0.3713 0.3334
vn 0.3713 0.8666 0.3333
vn 0.2803 0.6543 0.7023
vn 0.6543 -0.2804 0.7023
vn -0.3713 -0.8666 0.3334
vn -0.3713 -0.8666 0.3333
vn -0.6543 0.2804 0.7023
vn -0.8666 0.3713 0.3334
vn -0.2804 -0.6543 0.7023
vn -0.8666 0.3713 0.3333
vn -0.2804 -0.6544 0.7023
vn -0.6544 0.2803 0.7023
vn -0.7098 0.0550 0.7023
vn 0.7098 -0.0550 0.7023
vn 0.0551 0.7098 0.7023
vn -0.0551 -0.7098 0.7023
vn -0.0728 -0.9400 0.3334
vn -0.7097 0.0550 0.7023
vn -0.9400 0.0729 0.3334
vn -0.0728 -0.9400 0.3333
vn -0.0550 -0.7098 0.7023
vn 0.0729 0.9400 0.3334
vn -0.9400 0.0728 0.3334
vn 0.0729 0.9400 0.3333
vn 0.0550 0.7098 0.7023
vn 0.7097 -0.0550 0.7023
vn -0.0729 -0.9400 0.3334
vn 0.9400 -0.0728 0.3334
vn -0.0729 -0.9400 0.3333
vn 0.0550 0.7097 0.7023
vn 0.9400 -0.0729 0.3334
vn 0.0728 0.9400 0.3334
vn 0.9400 -0.0729 0.3333
vn 0.4374 -0.5617 0.7023
vn -0.4374 0.5617 0.7023
vn -0.5617 -0.4373 0.7023
vn -0.4372 0.5618 0.7023
vn 0.5617 0.4374 0.7023
vn 0.7439 0.5792 0.3334
vn 0.5792 -0.7439 0.3334
vn 0.7439 0.5792 0.3333
vn 0.5617 0.4373 0.7023
vn 0.4373 -0.5617 0.7023
vn -0.7439 -0.5792 0.3334
vn -0.7439 -0.5792 0.3333
vn -0.5617 -0.4374 0.7023
vn -0.4373 0.5617 0.7023
vn -0.5792 0.7439 0.3334
vn -0.5792 0.7439 0.3333
vn 0.7111 0.0331 0.7023
vn -0.7111 -0.0331 0.7023
vn 0.0332 -0.7111 0.7023
vn -0.0332 0.7111 0.7023
vn -0.0438 0.9418 0.3334
vn 0.9418 0.0439 0.3334
vn -0.0439 0.9418 0.3333
vn -0.0331 0.7111 0.7023
vn 0.0439 -0.9418 0.3334
vn 0.0439 -0.9418 0.3333
vn 0.0331 -0.7111 0.7023
vn -0.9418 -0.0439 0.3334
vn -0.0438 0.9418 0.3333
vn -0.9418 -0.0438 0.3334
vn -0.9418 -0.0438 0.3333
vn 0.6897 0.1762 0.7023
vn -0.6897 -0.1762 0.7023
vn 0.1762 -0.6897 0.7023
vn -0.1762 0.6897 0.7023
vn -0.2334 0.9135 0.3334
vn 0.9135 0.2333 0.3334
vn 0.6898 0.1762 0.7023
vn -0.2334 0.9135 0.3333
vn 0.2333 -0.9135 0.3334
vn 0.9135 0.2334 0.3334
vn 0.2333 -0.9135 0.3333
vn -0.2333 0.9135 0.3334
vn -0.9135 -0.2334 0.3334
vn -0.2333 0.9135 0.3333
vn -0.6898 -0.1762 0.7023
vn -0.9135 -0.2333 0.3334
vn 0.2334 -0.9135 0.3334
vn -0.9135 -0.2333 0.3333
vn 0.1762 -0.6898 0.7023
vn 0.3454 0.6225 0.7023
vn -0.3454 -0.6225 0.7023
vn 0.6225 -0.3454 0.7023
vn -0.3451 -0.6227 0.7023
vn -0.6225 0.3453 0.7023
vn -0.8244 0.4574 0.3334
vn 0.4574 0.8244 0.3334
vn -0.8244 0.4574 0.3333
vn -0.6225 0.3454 0.7023
vn 0.8244 -0.4574 0.3334
vn 0.8244 -0.4574 0.3333
vn -0.4574 -0.8244 0.3334
vn -0.4574 -0.8244 0.3333
vn 0.4153 0.6047 0.6796
vn 0.6340 -0.0496 0.7717
vn 0.3600 0.5242 0.7718
vn 0.6340 -0.0496 0.7718
vn 0.7313 -0.0572 0.6796
vn -0.7313 0.0573 0.6796
vn -0.3711 0.7773 0.5080
vn -0.3161 0.6620 0.6796
vn -0.8587 0.0672 0.5080
vn 0.3600 0.5242 0.7717
vn -0.2740 0.5738 0.7718
vn 0.4152 0.6047 0.6796
vn -0.4876 -0.7101 0.5080
vn -0.7313 0.0572 0.6796
vn -0.4152 -0.6048 0.6796
vn -0.4875 -0.7101 0.5080
vn 0.4876 0.7101 0.5080
vn 0.4152 0.6048 0.6796
vn 0.4875 0.7101 0.5080
vn 0.8587 -0.0672 0.5080
vn -0.6340 0.0496 0.7717
vn -0.6340 0.0496 0.7718
vn -0.4153 -0.6047 0.6796
vn -0.3600 -0.5242 0.7718
vn -0.3712 0.7773 0.5080
vn 0.4876 0.7100 0.5080
vn 0.3161 -0.6620 0.6796
vn 0.7314 -0.0572 0.6796
vn 0.3711 -0.7773 0.5080
vn 0.3712 -0.7773 0.5080
vn -0.4152 -0.6047 0.6796
vn -0.4876 -0.7100 0.5080
vn 0.7313 -0.0573 0.6796
vn 0.2740 -0.5739 0.7717
vn 0.2740 -0.5739 0.7718
vn -0.3600 -0.5242 0.7717
vn 0.2740 -0.5738 0.7718
vn -0.0076 -0.8626 0.5058
vn -0.6903 -0.3905 0.6091
vn -0.0070 -0.7930 0.6092
vn -0.6903 -0.3905 0.6092
vn -0.7508 -0.4247 0.5058
vn 0.7508 0.4248 0.5058
vn 0.8072 -0.4755 0.3497
vn 0.7432 -0.4379 0.5058
vn 0.7508 0.4247 0.5058
vn 0.8154 0.4613 0.3497
vn -0.0070 -0.7930 0.6091
vn 0.6833 -0.4025 0.6092
vn 0.7433 -0.4379 0.5058
vn 0.0082 0.9368 0.3497
vn 0.7509 0.4247 0.5058
vn 0.0076 0.8626 0.5058
vn -0.0082 -0.9368 0.3497
vn -0.7509 -0.4247 0.5058
vn -0.8154 -0.4613 0.3497
vn 0.6903 0.3905 0.6091
vn 0.6902 0.3905 0.6092
vn 0.0070 0.7930 0.6092
vn 0.6903 0.3905 0.6092
vn -0.7433 0.4379 0.5058
vn -0.8072 0.4755 0.3498
vn -0.8072 0.4755 0.3497
vn -0.7432 0.4379 0.5058
vn -0.6833 0.4026 0.6091
vn -0.6833 0.4025 0.6092
vn 0.0070 0.7930 0.6091
vn -0.9226 -0.2819 0.2635
vn -0.6885 0.6423 0.3369
vn -0.9005 -0.2751 0.3369
vn -0.7054 0.6580 0.2635
vn 0.7054 -0.6580 0.2635
vn -0.2218 -0.9599 0.1714
vn -0.2172 -0.9399 0.2635
vn -0.2218 -0.9599 0.1713
vn 0.7204 -0.6721 0.1713
vn -0.9004 -0.2751 0.3369
vn -0.2119 -0.9174 0.3369
vn 0.9422 0.2879 0.1714
vn 0.9226 0.2819 0.2635
vn 0.9422 0.2879 0.1713
vn 0.7204 -0.6720 0.1713
vn -0.9422 -0.2879 0.1714
vn -0.9422 -0.2879 0.1713
vn -0.7204 0.6720 0.1713
vn 0.6885 -0.6422 0.3369
vn -0.2120 -0.9174 0.3369
vn 0.6885 -0.6423 0.3369
vn 0.9005 0.2751 0.3369
vn -0.7204 0.6721 0.1714
vn 0.2172 0.9399 0.2635
vn -0.7204 0.6721 0.1713
vn 0.2218 0.9599 0.1713
vn 0.2218 0.9599 0.1714
vn 0.2120 0.9174 0.3369
vn -0.6885 0.6422 0.3369
vn 0.9004 0.2751 0.3369
vn 0.2119 0.9174 0.3369
vn 0.9357 -0.1716 0.3082
vn 0.3090 -0.8672 0.3906
vn 0.9054 -0.1661 0.3906
vn 0.3193 -0.8962 0.3082
vn -0.3193 0.8962 0.3081
vn 0.6346 0.7460 0.2019
vn 0.6165 0.7246 0.3081
vn 0.6346 0.7459 0.2020
vn -0.3193 0.8962 0.3082
vn -0.3287 0.9226 0.2020
vn 0.6165 0.7246 0.3082
vn 0.9055 -0.1660 0.3906
vn 0.5965 0.7011 0.3906
vn -0.9633 0.1767 0.2019
vn -0.3192 0.8962 0.3081
vn -0.9357 0.1716 0.3081
vn -0.3192 0.8962 0.3082
vn -0.9633 0.1767 0.2020
vn 0.9633 -0.1767 0.2019
vn 0.3192 -0.8962 0.3081
vn 0.9357 -0.1716 0.3081
vn 0.3192 -0.8962 0.3082
vn 0.9633 -0.1767 0.2020
vn 0.3287 -0.9226 0.2020
vn -0.3089 0.8672 0.3906
vn 0.6164 0.7246 0.3082
vn -0.9357 0.1716 0.3082
vn -0.3090 0.8672 0.3906
vn -0.9054 0.1661 0.3906
vn 0.6347 0.7459 0.2019
vn 0.6347 0.7459 0.2020
vn 0.9633 -0.1766 0.2020
vn 0.3287 -0.9226 0.2019
vn -0.6165 -0.7246 0.3081
vn 0.3193 -0.8962 0.3081
vn -0.6165 -0.7246 0.3082
vn -0.6346 -0.7459 0.2020
vn -0.6347 -0.7459 0.2019
vn -0.6347 -0.7459 0.2020
vn -0.9633 0.1766 0.2020
vn -0.5965 -0.7011 0.3906
vn 0.3089 -0.8672 0.3906
vn -0.9055 0.1660 0.3906
vn -0.1418 -0.7931 0.5924
vn -0.6774 -0.2447 0.6937
vn -0.1268 -0.7090 0.6937
vn -0.1418 -0.7931 0.5923
vn -0.7578 -0.2737 0.5923
vn 0.7577 0.2737 0.5924
vn 0.6924 -0.5838 0.4240
vn 0.6159 -0.5193 0.5924
vn 0.7577 0.2738 0.5924
vn 0.8518 0.3077 0.4240
vn 0.5506 -0.4643 0.6937
vn 0.6159 -0.5194 0.5923
vn 0.1594 0.8915 0.4240
vn 0.1418 0.7931 0.5924
vn 0.7578 0.2737 0.5924
vn -0.1594 -0.8915 0.4240
vn -0.7577 -0.2737 0.5924
vn -0.7578 -0.2737 0.5924
vn -0.8518 -0.3077 0.4240
vn 0.6774 0.2447 0.6937
vn 0.6159 -0.5194 0.5924
vn 0.7578 0.2737 0.5923
vn 0.1268 0.7090 0.6937
vn 0.1418 0.7931 0.5923
vn -0.6159 0.5193 0.5924
vn -0.6159 0.5194 0.5924
vn -0.6924 0.5838 0.4240
vn -0.7577 -0.2738 0.5924
vn -0.5506 0.4643 0.6937
vn -0.6159 0.5194 0.5923
vn -0.6160 0.5194 0.5923
vn -0.6029 0.4179 0.6796
vn 0.0524 0.6338 0.7717
vn -0.5226 0.3623 0.7718
vn 0.0524 0.6338 0.7718
vn 0.0605 0.7311 0.6796
vn -0.0605 -0.7311 0.6796
vn -0.7789 -0.3677 0.5080
vn -0.6634 -0.3132 0.6796
vn -0.0710 -0.8584 0.5080
vn -0.5226 0.3623 0.7717
vn -0.5751 -0.2715 0.7718
vn 0.7079 -0.4907 0.5080
vn 0.6029 -0.4179 0.6796
vn -0.7079 0.4907 0.5080
vn 0.0710 0.8584 0.5080
vn -0.0524 -0.6338 0.7717
vn -0.0524 -0.6338 0.7718
vn 0.5226 -0.3623 0.7718
vn 0.6633 0.3132 0.6796
vn 0.6634 0.3132 0.6796
vn 0.7789 0.3677 0.5080
vn 0.5751 0.2715 0.7717
vn 0.0524 0.6337 0.7718
vn 0.5751 0.2715 0.7718
vn 0.5226 -0.3623 0.7717
vn 0.8667 -0.0499 0.4964
vn 0.3597 -0.7150 0.5996
vn 0.7990 -0.0460 0.5996
vn 0.3597 -0.7149 0.5996
vn 0.8666 -0.0499 0.4964
vn 0.3901 -0.7755 0.4964
vn -0.3901 0.7755 0.4964
vn 0.5158 0.7854 0.3421
vn 0.4765 0.7256 0.4964
vn -0.4223 0.8394 0.3421
vn 0.4393 0.6689 0.5996
vn -0.9381 0.0540 0.3421
vn -0.8667 0.0499 0.4964
vn 0.9381 -0.0540 0.3421
vn 0.4223 -0.8394 0.3421
vn -0.3597 0.7150 0.5996
vn 0.4393 0.6690 0.5996
vn -0.7990 0.0460 0.5996
vn -0.3597 0.7149 0.5996
vn -0.8666 0.0499 0.4964
vn -0.4765 -0.7256 0.4964
vn -0.5158 -0.7854 0.3421
vn -0.4393 -0.6690 0.5996
vn -0.4393 -0.6689 0.5996
vn -0.7828 0.3752 0.4964
vn -0.0614 0.7980 0.5996
vn -0.7217 0.3459 0.5996
vn -0.7828 0.3751 0.4964
vn -0.0665 0.8655 0.4964
vn 0.0665 -0.8655 0.4964
vn -0.7754 -0.5308 0.3421
vn -0.7163 -0.4904 0.4964
vn 0.0720 -0.9369 0.3421
vn -0.6604 -0.4521 0.5996
vn -0.7217 0.3458 0.5996
vn 0.8474 -0.4061 0.3421
vn 0.0666 -0.8655 0.4964
vn 0.7828 -0.3752 0.4964
vn -0.8474 0.4061 0.3421
vn -0.0666 0.8655 0.4964
vn -0.0720 0.9369 0.3421
vn 0.0613 -0.7980 0.5996
vn 0.0614 -0.7980 0.5996
vn 0.7217 -0.3459 0.5996
vn 0.7828 -0.3751 0.4964
vn 0.7163 0.4904 0.4964
vn 0.7754 0.5308 0.3421
vn 0.6604 0.4521 0.5996
vn -0.0613 0.7980 0.5996
vn 0.6604 0.4521 0.5995
vn 0.7217 -0.3458 0.5996
vn -0.8102 0.3117 0.4964
vn -0.1246 0.7906 0.5996
vn -0.7469 0.2874 0.5996
vn -0.1352 0.8575 0.4964
vn 0.1351 -0.8575 0.4964
vn -0.7307 -0.5908 0.3421
vn -0.6750 -0.5458 0.4964
vn 0.1463 -0.9282 0.3421
vn -0.7470 0.2873 0.5996
vn -0.6224 -0.5032 0.5995
vn 0.8770 -0.3374 0.3421
vn 0.1352 -0.8575 0.4964
vn 0.8102 -0.3117 0.4964
vn -0.8770 0.3374 0.3421
vn -0.1463 0.9282 0.3421
vn 0.1246 -0.7906 0.5996
vn -0.6223 -0.5032 0.5995
vn 0.7469 -0.2874 0.5996
vn -0.8102 0.3116 0.4964
vn 0.6750 0.5458 0.4964
vn 0.7307 0.5908 0.3421
vn 0.6223 0.5032 0.5996
vn 0.7470 -0.2873 0.5996
vt 0.093750 0.025000
vt 0.093750 0.025000
vt 0.093750 0.025000
vt 0.093750 0.025000
vt 0.093750 0.025000
vt 0.093750 0.025000
vt 0.093750 0.025000
vt 0.093750 0.025000
vt 0.093750 0.225000
vt 0.093750 0.225000
vt 0.093750 0.225000
vt 0.093750 0.225000
vt 0.093750 0.225000
vt 0.093750 0.225000
vt 0.093750 0.225000
vt 0.093750 0.225000
vt 0.093750 0.125000
vt 0.093750 0.125000
vt 0.093750 0.125000
vt 0.093750 0.125000
vt 0.093750 0.125000
vt 0.093750 0.125000
vt 0.093750 0.125000
vt 0.093750 0.125000
vt 0.093750 0.025000
vt 0.093750 0.025000
vt 0.093750 0.025000
vt 0.093750 0.025000
vt 0.093750 0.025000
vt 0.093750 0.025000
vt 0.093750 0.025000
vt 0.093750 0.025000
vt 0.093750 0.225000
vt 0.093750 0.225000
vt 0.093750 0.225000
vt 0.093750 0.225000
vt 0.093750 0.225000
vt 0.093750 0.225000
vt 0.093750 0.225000
vt 0.093750 0.225000
vt 0.093750 0.125000
vt 0.093750 0.125000
vt 0.093750 0.125000
vt 0.093750 0.125000
vt 0.093750 0.125000
vt 0.093750 0.125000
vt 0.093750 0.125000
vt 0.093750 0.125000
vt 0.093750 0.025000
vt 0.093750 0.025000
vt 0.093750 0.025000
vt 0.093750 0.025000
vt 0.093750 0.025000
vt 0.093750 0.025000
vt 0.093750 0.025000
vt 0.093750 0.025000
vt 0.093750 0.225000
vt 0.093750 0.225000
vt 0.093750 0.225000
vt 0.093750 0.225000
vt 0.093750 0.225000
vt 0.093750 0.225000
vt 0.093750 0.225000
vt 0.093750 0.225000
vt 0.093750 0.125000
vt 0.093750 0.125000
vt 0.093750 0.125000
vt 0.093750 0.125000
vt 0.093750 0.125000
vt 0.093750 0.125000
vt 0.093750 0.125000
vt 0.093750 0.125000
vt 0.093750 0.125000
vt 0.093750 0.125000
vt 0.093750 0.225000
vt 0.093750 0.225000
vt 0.093750 0.125000
vt 0.093750 0.125000
vt 0.093750 0.225000
vt 0.093750 0.225000
vt 0.093750 0.025000
vt 0.718750 0.225000
vt 0.093750 0.025000
vt 0.718750 0.225000
vt 0.093750 0.125000
vt 0.093750 0.225000
vt 0.093750 0.225000
vt 0.093750 0.025000
vt 0.718750 0.225000
vt 0.093750 0.025000
vt 0.718750 0.225000
vt 0.093750 0.125000
vt 0.093750 0.025000
vt 0.718750 0.225000
vt 0.093750 0.025000
vt 0.718750 0.225000
vt 0.093750 0.125000
vt 0.093750 0.125000
vt 0.093750 0.225000
vt 0.093750 0.225000
vt 0.093750 0.125000
vt 0.093750 0.125000
vt 0.093750 0.225000
vt 0.093750 0.225000
vt 0.093750 0.025000
vt 0.718750 0.225000
vt 0.093750 0.025000
vt 0.718750 0.225000
vt 0.093750 0.125000
vt 0.093750 0.225000
vt 0.093750 0.225000
vt 0.093750 0.025000
vt 0.718750 0.225000
vt 0.093750 0.025000
vt 0.718750 0.225000
vt 0.093750 0.125000
vt 0.093750 0.025000
vt 0.718750 0.225000
vt 0.093750 0.025000
vt 0.718750 0.225000
vt 0.093750 0.125000
vt 0.093750 0.125000
vt 0.093750 0.225000
vt 0.093750 0.225000
vt 0.093750 0.125000
vt 0.093750 0.125000
vt 0.093750 0.225000
vt 0.093750 0.225000
vt 0.093750 0.025000
vt 0.718750 0.225000
vt 0.093750 0.025000
vt 0.718750 0.225000
vt 0.093750 0.125000
vt 0.093750 0.225000
vt 0.093750 0.225000
vt 0.093750 0.025000
vt 0.718750 0.225000
vt 0.093750 0.025000
vt 0.718750 0.225000
vt 0.093750 0.125000
vt 0.093750 0.025000
vt 0.718750 0.225000
vt 0.093750 0.025000
vt 0.718750 0.225000
vt 0.093750 0.125000
vt 0.093750 0.125000
vt 0.093750 0.225000
vt 0.093750 0.225000
vt 0.093750 0.125000
vt 0.093750 0.125000
vt 0.093750 0.225000
vt 0.093750 0.225000
vt 0.093750 0.025000
vt 0.718750 0.225000
vt 0.093750 0.025000
vt 0.718750 0.225000
vt 0.093750 0.125000
vt 0.093750 0.225000
vt 0.093750 0.225000
vt 0.093750 0.025000
vt 0.718750 0.225000
vt 0.093750 0.025000
vt 0.718750 0.225000
vt 0.093750 0.125000
vt 0.093750 0.025000
vt 0.718750 0.225000
vt 0.093750 0.025000
vt 0.718750 0.225000
vt 0.093750 0.125000
vt 0.093750 0.125000
vt 0.093750 0.225000
vt 0.093750 0.225000
vt 0.093750 0.125000
vt 0.093750 0.125000
vt 0.093750 0.225000
vt 0.093750 0.225000
vt 0.093750 0.025000
vt 0.718750 0.225000
vt 0.093750 0.025000
vt 0.718750 0.225000
vt 0.093750 0.125000
vt 0.093750 0.225000
vt 0.093750 0.225000
vt 0.093750 0.025000
vt 0.718750 0.225000
vt 0.093750 0.025000
vt 0.718750 0.225000
vt 0.093750 0.125000
vt 0.093750 0.025000
vt 0.718750 0.225000
vt 0.093750 0.025000
vt 0.718750 0.225000
vt 0.093750 0.125000
vt 0.093750 0.125000
vt 0.093750 0.225000
vt 0.093750 0.225000
vt 0.093750 0.125000
vt 0.093750 0.125000
vt 0.093750 0.225000
vt 0.093750 0.225000
vt 0.093750 0.025000
vt 0.718750 0.225000
vt 0.093750 0.025000
vt 0.718750 0.225000
vt 0.093750 0.125000
vt 0.093750 0.225000
vt 0.093750 0.225000
vt 0.093750 0.025000
vt 0.718750 0.225000
vt 0.093750 0.025000
vt 0.718750 0.225000
vt 0.093750 0.125000
vt 0.093750 0.025000
vt 0.718750 0.225000
vt 0.093750 0.025000
vt 0.718750 0.225000
vt 0.093750 0.125000
vt 0.093750 0.125000
vt 0.093750 0.225000
vt 0.093750 0.225000
vt 0.093750 0.125000
vt 0.093750 0.125000
vt 0.093750 0.225000
vt 0.093750 0.225000
vt 0.093750 0.025000
vt 0.718750 0.225000
vt 0.093750 0.025000
vt 0.718750 0.225000
vt 0.093750 0.125000
vt 0.093750 0.225000
vt 0.093750 0.225000
vt 0.093750 0.025000
vt 0.718750 0.225000
vt 0.093750 0.025000
vt 0.718750 0.225000
vt 0.093750 0.125000
vt 0.093750 0.025000
vt 0.718750 0.225000
vt 0.093750 0.025000
vt 0.718750 0.225000
vt 0.093750 0.125000
vt 0.093750 0.125000
vt 0.093750 0.225000
vt 0.093750 0.225000
vt 0.093750 0.125000
vt 0.093750 0.125000
vt 0.093750 0.225000
vt 0.093750 0.225000
vt 0.093750 0.025000
vt 0.718750 0.225000
vt 0.093750 0.025000
vt 0.718750 0.225000
vt 0.093750 0.125000
vt 0.093750 0.225000
vt 0.093750 0.225000
vt 0.093750 0.025000
vt 0.718750 0.225000
vt 0.093750 0.025000
vt 0.718750 0.225000
vt 0.093750 0.125000
vt 0.093750 0.025000
vt 0.718750 0.225000
vt 0.093750 0.025000
vt 0.718750 0.225000
vt 0.093750 0.125000
vt 0.093750 0.125000
vt 0.093750 0.225000
vt 0.093750 0.225000
vt 0.093750 0.125000
vt 0.093750 0.125000
vt 0.093750 0.225000
vt 0.093750 0.225000
vt 0.093750 0.025000
vt 0.718750 0.225000
vt 0.093750 0.025000
vt 0.718750 0.225000
vt 0.093750 0.125000
vt 0.093750 0.225000
vt 0.093750 0.225000
vt 0.093750 0.025000
vt 0.718750 0.225000
vt 0.093750 0.025000
vt 0.718750 0.225000
vt 0.093750 0.125000
vt 0.093750 0.025000
vt 0.718750 0.225000
vt 0.093750 0.025000
vt 0.718750 0.225000
vt 0.718750 0.175000
vt 0.718750 0.175000
vt 0.718750 0.175000
vt 0.718750 0.175000
vt 0.718750 0.075000
vt 0.718750 0.075000
vt 0.718750 0.075000
vt 0.718750 0.075000
vt 0.718750 0.175000
vt 0.718750 0.175000
vt 0.718750 0.175000
vt 0.718750 0.175000
vt 0.718750 0.075000
vt 0.718750 0.075000
vt 0.718750 0.075000
vt 0.718750 0.075000
vt 0.718750 0.175000
vt 0.718750 0.175000
vt 0.718750 0.175000
vt 0.718750 0.175000
vt 0.718750 0.075000
vt 0.718750 0.075000
vt 0.718750 0.075000
vt 0.718750 0.075000
vt 0.718750 0.175000
vt 0.718750 0.175000
vt 0.718750 0.175000
vt 0.718750 0.175000
vt 0.718750 0.075000
vt 0.718750 0.075000
vt 0.718750 0.075000
vt 0.718750 0.075000
vt 0.718750 0.175000
vt 0.718750 0.175000
vt 0.718750 0.175000
vt 0.718750 0.175000
vt 0.718750 0.075000
vt 0.718750 0.075000
vt 0.718750 0.075000
vt 0.718750 0.075000
vt 0.718750 0.175000
vt 0.718750 0.175000
vt 0.718750 0.175000
vt 0.718750 0.175000
vt 0.718750 0.075000
vt 0.718750 0.075000
vt 0.718750 0.075000
vt 0.718750 0.075000
vt 0.718750 0.025000
vt 0.718750 0.025000
vt 0.718750 0.110714
vt 0.718750 0.110714
vt 0.718750 0.025000
vt 0.718750 0.025000
vt 0.718750 0.025000
vt 0.718750 0.025000
vt 0.718750 0.110714
vt 0.718750 0.110714
vt 0.718750 0.110714
vt 0.718750 0.110714
vt 0.718750 0.025000
vt 0.718750 0.025000
vt 0.718750 0.110714
vt 0.718750 0.110714
vt 0.718750 0.025000
vt 0.718750 0.025000
vt 0.718750 0.025000
vt 0.718750 0.025000
vt 0.718750 0.110714
vt 0.718750 0.110714
vt 0.718750 0.110714
vt 0.718750 0.110714
vt 0.718750 0.025000
vt 0.718750 0.025000
vt 0.718750 0.110714
vt 0.718750 0.110714
vt 0.718750 0.025000
vt 0.718750 0.025000
vt 0.718750 0.025000
vt 0.718750 0.025000
vt 0.718750 0.110714
vt 0.718750 0.110714
vt 0.718750 0.110714
vt 0.718750 0.110714
vt 0.718750 0.025000
vt 0.718750 0.025000
vt 0.718750 0.110714
vt 0.718750 0.110714
vt 0.718750 0.025000
vt 0.718750 0.025000
vt 0.718750 0.025000
vt 0.718750 0.025000
vt 0.718750 0.110714
vt 0.718750 0.110714
vt 0.718750 0.110714
vt 0.718750 0.110714
vt 0.718750 0.025000
vt 0.718750 0.025000
vt 0.718750 0.110714
vt 0.718750 0.110714
vt 0.718750 0.025000
vt 0.718750 0.025000
vt 0.718750 0.025000
vt 0.718750 0.025000
vt 0.718750 0.110714
vt 0.718750 0.110714
vt 0.718750 0.110714
vt 0.718750 0.110714
vt 0.718750 0.025000
vt 0.718750 0.025000
vt 0.718750 0.110714
vt 0.718750 0.110714
vt 0.718750 0.025000
vt 0.718750 0.025000
vt 0.718750 0.025000
vt 0.718750 0.025000
vt 0.718750 0.110714
vt 0.718750 0.110714
vt 0.718750 0.110714
vt 0.718750 0.110714
vt 0.718750 0.025000
vt 0.718750 0.025000
vt 0.718750 0.110714
vt 0.718750 0.110714
vt 0.718750 0.025000
vt 0.718750 0.025000
vt 0.718750 0.025000
vt 0.718750 0.025000
vt 0.718750 0.110714
vt 0.718750 0.110714
vt 0.718750 0.110714
vt 0.718750 0.110714
vt 0.718750 0.025000
vt 0.718750 0.025000
vt 0.718750 0.110714
vt 0.718750 0.110714
vt 0.718750 0.025000
vt 0.718750 0.025000
vt 0.718750 0.025000
vt 0.718750 0.025000
vt 0.718750 0.110714
vt 0.718750 0.110714
vt 0.718750 0.110714
vt 0.718750 0.110714
vt 0.718750 0.025000
vt 0.718750 0.025000
vt 0.718750 0.110714
vt 0.718750 0.110714
vt 0.718750 0.025000
vt 0.718750 0.025000
vt 0.718750 0.025000
vt 0.718750 0.025000
vt 0.718750 0.110714
vt 0.718750 0.110714
vt 0.718750 0.110714
vt 0.718750 0.110714
s 0
f 3/3/1 2/2/1 1/1/1
f 2/2/1 3/3/1 4/4/1
f 2/2/1 4/4/1 5/5/1
f 5/5/1 4/4/1 6/6/1
f 5/5/1 6/6/1 7/7/1
f 7/7/1 6/6/1 8/8/1
f 11/11/2 10/10/3 9/9/4
f 10/10/5 11/11/6 12/12/7
f 10/10/8 12/12/7 13/13/9
f 13/13/9 12/12/7 14/14/10
f 13/13/9 14/14/11 15/15/12
f 15/15/13 14/14/14 16/16/15
f 10/10/8 17/17/16 9/9/4
f 17/17/16 10/10/8 18/18/17
f 7/7/18 20/20/19 19/19/20
f 20/20/21 7/7/18 8/8/22
f 7/7/18 21/21/23 5/5/24
f 21/21/25 7/7/18 19/19/20
f 18/18/26 4/4/27 3/3/28
f 4/4/27 18/18/29 22/22/30
f 5/5/24 23/23/31 2/2/32
f 23/23/33 5/5/24 21/21/23
f 24/24/34 4/4/27 22/22/30
f 4/4/27 24/24/35 6/6/36
f 20/20/19 6/6/36 24/24/35
f 6/6/36 20/20/21 8/8/22
f 2/2/32 17/17/16 1/1/37
f 17/17/38 2/2/32 23/23/31
f 17/17/16 3/3/28 1/1/37
f 3/3/28 17/17/38 18/18/26
f 20/20/21 14/14/10 19/19/39
f 14/14/10 20/20/21 16/16/15
f 20/20/21 15/15/12 16/16/15
f 15/15/12 20/20/21 24/24/40
f 14/14/10 21/21/23 19/19/41
f 21/21/23 14/14/10 12/12/7
f 13/13/9 24/24/42 22/22/30
f 24/24/42 13/13/9 15/15/12
f 11/11/6 17/17/16 23/23/43
f 17/17/16 11/11/6 9/9/4
f 10/10/8 22/22/30 18/18/44
f 22/22/30 10/10/8 13/13/9
f 12/12/7 23/23/45 21/21/23
f 23/23/45 12/12/7 11/11/6
f 27/27/1 26/26/1 25/25/1
f 26/26/1 27/27/1 28/28/1
f 26/26/1 28/28/1 29/29/1
f 29/29/1 28/28/1 30/30/1
f 29/29/1 30/30/1 31/31/1
f 31/31/1 30/30/1 32/32/1
f 35/35/46 34/34/47 33/33/48
f 34/34/47 35/35/46 36/36/49
f 34/34/47 36/36/49 37/37/50
f 37/37/50 36/36/49 38/38/51
f 37/37/50 38/38/51 39/39/52
f 39/39/52 38/38/51 40/40/53
f 34/34/47 41/41/54 33/33/48
f 41/41/54 34/34/47 42/42/55
f 31/31/56 44/44/57 43/43/58
f 44/44/57 31/31/56 32/32/59
f 31/31/56 45/45/60 29/29/61
f 45/45/60 31/31/56 43/43/58
f 42/42/55 28/28/62 27/27/63
f 28/28/62 42/42/55 46/46/64
f 29/29/61 47/47/65 26/26/66
f 47/47/65 29/29/61 45/45/60
f 48/48/67 28/28/62 46/46/64
f 28/28/62 48/48/67 30/30/68
f 44/44/57 30/30/68 48/48/67
f 30/30/68 44/44/57 32/32/59
f 26/26/66 41/41/54 25/25/69
f 41/41/54 26/26/66 47/47/65
f 41/41/54 27/27/63 25/25/69
f 27/27/63 41/41/54 42/42/55
f 44/44/57 38/38/51 43/43/58
f 38/38/51 44/44/57 40/40/53
f 44/44/57 39/39/52 40/40/53
f 39/39/52 44/44/57 48/48/67
f 38/38/51 45/45/60 43/43/58
f 45/45/60 38/38/51 36/36/49
f 37/37/50 48/48/67 46/46/64
f 48/48/67 37/37/50 39/39/52
f 35/35/46 41/41/54 47/47/65
f 41/41/54 35/35/46 33/33/48
f 34/34/47 46/46/64 42/42/55
f 46/46/64 34/34/47 37/37/50
f 36/36/49 47/47/65 45/45/60
f 47/47/65 36/36/49 35/35/46
f 51/51/1 50/50/1 49/49/1
f 50/50/1 51/51/1 52/52/1
f 50/50/1 52/52/1 53/53/1
f 53/53/1 52/52/1 54/54/1
f 53/53/1 54/54/1 55/55/1
f 55/55/1 54/54/1 56/56/1
f 59/59/70 58/58/71 57/57/72
f 58/58/73 59/59/74 60/60/75
f 58/58/76 60/60/75 61/61/77
f 61/61/77 60/60/75 62/62/78
f 61/61/77 62/62/79 63/63/80
f 63/63/81 62/62/82 64/64/83
f 58/58/76 65/65/84 57/57/72
f 65/65/84 58/58/76 66/66/85
f 55/55/86 68/68/87 67/67/88
f 68/68/87 55/55/86 56/56/89
f 55/55/90 69/69/91 53/53/92
f 69/69/91 55/55/90 67/67/88
f 66/66/85 52/52/93 51/51/94
f 52/52/93 66/66/85 70/70/95
f 53/53/92 71/71/96 50/50/97
f 71/71/96 53/53/92 69/69/91
f 72/72/98 52/52/93 70/70/95
f 52/52/93 72/72/98 54/54/99
f 68/68/87 54/54/100 72/72/98
f 54/54/100 68/68/87 56/56/89
f 50/50/101 65/65/84 49/49/102
f 65/65/84 50/50/101 71/71/96
f 65/65/84 51/51/103 49/49/102
f 51/51/103 65/65/84 66/66/85
f 68/68/87 62/62/78 67/67/88
f 62/62/78 68/68/87 64/64/83
f 68/68/87 63/63/80 64/64/83
f 63/63/80 68/68/87 72/72/98
f 62/62/78 69/69/91 67/67/88
f 69/69/91 62/62/78 60/60/75
f 61/61/77 72/72/98 70/70/95
f 72/72/98 61/61/77 63/63/80
f 59/59/74 65/65/84 71/71/96
f 65/65/84 59/59/74 57/57/72
f 58/58/76 70/70/95 66/66/85
f 70/70/95 58/58/76 61/61/77
f 60/60/75 71/71/96 69/69/91
f 71/71/96 60/60/75 59/59/74
f 75/75/104 74/74/105 73/73/106
f 74/74/105 75/75/104 76/76/107
f 79/79/108 78/78/109 77/77/110
f 78/78/109 79/79/108 80/80/111
f 73/73/106 82/83/112 81/81/113
f 82/83/114 73/73/106 74/74/105
f 76/76/115 83/85/116 74/74/105
f 83/85/117 76/76/115 84/86/118
f 76/76/119 79/79/108 84/86/118
f 79/79/120 76/76/119 80/80/121
f 80/80/121 76/76/119 75/75/122
f 80/80/121 75/75/104 85/87/123
f 78/78/109 87/90/124 86/88/125
f 87/90/126 78/78/109 88/92/127
f 81/81/113 88/92/127 73/73/106
f 88/92/127 81/81/128 87/90/126
f 80/80/129 88/92/130 78/78/109
f 88/92/127 80/80/129 85/87/123
f 77/77/110 86/88/131 89/93/132
f 86/88/125 77/77/110 78/78/109
f 77/77/110 90/95/133 83/85/117
f 90/95/133 77/77/134 89/93/132
f 88/92/127 75/75/104 73/73/106
f 75/75/104 88/92/135 85/87/123
f 74/74/105 90/95/133 82/83/114
f 90/95/133 74/74/105 83/85/117
f 84/86/118 77/77/134 83/85/117
f 77/77/110 84/86/118 79/79/108
f 93/99/136 92/98/137 91/97/138
f 92/98/137 93/99/136 94/100/139
f 97/103/140 96/102/141 95/101/142
f 96/102/141 97/103/140 98/104/143
f 91/97/144 100/107/145 99/105/146
f 100/107/147 91/97/148 92/98/137
f 94/100/139 101/109/149 92/98/150
f 101/109/149 94/100/139 102/110/151
f 94/100/139 97/103/140 102/110/152
f 97/103/140 94/100/153 98/104/143
f 98/104/154 94/100/139 93/99/136
f 98/104/143 93/99/136 103/111/155
f 96/102/141 105/114/156 104/112/157
f 105/114/158 96/102/141 106/116/159
f 99/105/146 106/116/159 91/97/148
f 106/116/159 99/105/160 105/114/161
f 98/104/143 106/116/162 96/102/141
f 106/116/162 98/104/143 103/111/163
f 95/101/164 104/112/165 107/117/166
f 104/112/167 95/101/168 96/102/141
f 95/101/168 108/119/169 101/109/149
f 108/119/169 95/101/168 107/117/166
f 106/116/159 93/99/136 91/97/144
f 93/99/136 106/116/159 103/111/155
f 92/98/137 108/119/170 100/107/171
f 108/119/172 92/98/137 101/109/173
f 102/110/152 95/101/168 101/109/149
f 95/101/168 102/110/152 97/103/140
f 111/123/174 110/122/175 109/121/176
f 110/122/177 111/123/174 112/124/178
f 115/127/179 114/126/180 113/125/181
f 114/126/182 115/127/179 116/128/183
f 109/121/176 118/131/184 117/129/185
f 118/131/184 109/121/176 110/122/177
f 112/124/178 119/133/186 110/122/177
f 119/133/187 112/124/178 120/134/188
f 112/124/178 115/127/189 120/134/188
f 115/127/179 112/124/178 116/128/183
f 116/128/183 112/124/178 111/123/174
f 116/128/183 111/123/190 121/135/191
f 114/126/182 123/138/192 122/136/193
f 123/138/192 114/126/182 124/140/194
f 117/129/195 124/140/194 109/121/176
f 124/140/194 117/129/196 123/138/192
f 116/128/183 124/140/197 114/126/182
f 124/140/194 116/128/183 121/135/191
f 113/125/181 122/136/198 125/141/199
f 122/136/198 113/125/181 114/126/182
f 113/125/181 126/143/200 119/133/187
f 126/143/200 113/125/181 125/141/201
f 124/140/194 111/123/202 109/121/176
f 111/123/202 124/140/194 121/135/191
f 110/122/177 126/143/200 118/131/203
f 126/143/200 110/122/177 119/133/187
f 120/134/204 113/125/181 119/133/187
f 113/125/181 120/134/204 115/127/205
f 129/147/206 128/146/207 127/145/208
f 128/146/207 129/147/209 130/148/210
f 133/151/211 132/150/212 131/149/213
f 132/150/212 133/151/214 134/152/215
f 127/145/216 136/155/217 135/153/218
f 136/155/219 127/145/208 128/146/207
f 130/148/210 137/157/220 128/146/207
f 137/157/220 130/148/210 138/158/221
f 130/148/210 133/151/222 138/158/223
f 133/151/211 130/148/210 134/152/215
f 134/152/215 130/148/210 129/147/206
f 134/152/215 129/147/224 139/159/225
f 132/150/226 141/162/227 140/160/228
f 141/162/227 132/150/212 142/164/229
f 135/153/218 142/164/229 127/145/230
f 142/164/231 135/153/218 141/162/227
f 134/152/215 142/164/232 132/150/212
f 142/164/232 134/152/215 139/159/225
f 131/149/233 140/160/228 143/165/234
f 140/160/228 131/149/213 132/150/212
f 131/149/235 144/167/236 137/157/237
f 144/167/236 131/149/238 143/165/234
f 142/164/229 129/147/224 127/145/230
f 129/147/206 142/164/229 139/159/225
f 128/146/239 144/167/236 136/155/219
f 144/167/236 128/146/207 137/157/237
f 138/158/221 131/149/235 137/157/237
f 131/149/235 138/158/223 133/151/211
f 147/171/240 146/170/241 145/169/242
f 146/170/241 147/171/240 148/172/243
f 151/175/244 150/174/245 149/173/246
f 150/174/245 151/175/244 152/176/247
f 145/169/242 154/179/248 153/177/249
f 154/179/250 145/169/242 146/170/241
f 148/172/243 155/181/251 146/170/241
f 155/181/251 148/172/243 156/182/252
f 148/172/243 151/175/244 156/182/253
f 151/175/244 148/172/243 152/176/247
f 152/176/247 148/172/243 147/171/240
f 152/176/247 147/171/240 157/183/254
f 150/174/245 159/186/255 158/184/256
f 159/186/257 150/174/245 160/188/258
f 153/177/249 160/188/259 145/169/260
f 160/188/259 153/177/249 159/186/255
f 152/176/247 160/188/258 150/174/245
f 160/188/258 152/176/247 157/183/261
f 149/173/246 158/184/262 161/189/263
f 158/184/264 149/173/246 150/174/245
f 149/173/246 162/191/265 155/181/266
f 162/191/267 149/173/268 161/189/263
f 160/188/259 147/171/240 145/169/242
f 147/171/240 160/188/259 157/183/261
f 146/170/241 162/191/267 154/179/269
f 162/191/265 146/170/241 155/181/251
f 156/182/252 149/173/246 155/181/251
f 149/173/246 156/182/252 151/175/244
f 165/195/270 164/194/271 163/193/272
f 164/194/273 165/195/270 166/196/274
f 169/199/275 168/198/276 167/197/277
f 168/198/278 169/199/275 170/200/279
f 163/193/272 172/203/280 171/201/281
f 172/203/282 163/193/272 164/194/271
f 166/196/274 173/205/283 164/194/271
f 173/205/284 166/196/274 174/206/285
f 166/196/274 169/199/275 174/206/285
f 169/199/286 166/196/274 170/200/279
f 170/200/279 166/196/274 165/195/287
f 170/200/279 165/195/287 175/207/288
f 168/198/278 177/210/289 176/208/290
f 177/210/291 168/198/276 178/212/292
f 171/201/281 178/212/292 163/193/272
f 178/212/293 171/201/294 177/210/291
f 170/200/279 178/212/292 168/198/276
f 178/212/293 170/200/279 175/207/288
f 167/197/277 176/208/295 179/213/296
f 176/208/290 167/197/277 168/198/276
f 167/197/277 180/215/297 173/205/283
f 180/215/298 167/197/299 179/213/296
f 178/212/293 165/195/270 163/193/272
f 165/195/270 178/212/292 175/207/288
f 164/194/273 180/215/298 172/203/282
f 180/215/297 164/194/271 173/205/283
f 174/206/300 167/197/299 173/205/283
f 167/197/277 174/206/285 169/199/275
f 183/219/301 182/218/302 181/217/303
f 182/218/302 183/219/304 184/220/305
f 187/223/306 186/222/307 185/221/308
f 186/222/307 187/223/309 188/224/310
f 181/217/311 190/227/312 189/225/313
f 190/227/312 181/217/311 182/218/302
f 184/220/305 191/229/314 182/218/315
f 191/229/314 184/220/305 192/230/316
f 184/220/305 187/223/309 192/230/317
f 187/223/306 184/220/305 188/224/310
f 188/224/310 184/220/305 183/219/301
f 188/224/310 183/219/304 193/231/318
f 186/222/307 195/234/319 194/232/320
f 195/234/319 186/222/307 196/236/321
f 189/225/313 196/236/322 181/217/303
f 196/236/322 189/225/323 195/234/324
f 188/224/310 196/236/321 186/222/307
f 196/236/321 188/224/310 193/231/325
f 185/221/326 194/232/327 197/237/328
f 194/232/329 185/221/326 186/222/307
f 185/221/308 198/239/330 191/229/314
f 198/239/330 185/221/308 197/237/328
f 196/236/321 183/219/301 181/217/311
f 183/219/304 196/236/321 193/231/325
f 182/218/302 198/239/330 190/227/331
f 198/239/332 182/218/302 191/229/314
f 192/230/316 185/221/308 191/229/314
f 185/221/308 192/230/317 187/223/306
f 201/243/333 200/242/334 199/241/335
f 200/242/334 201/243/333 202/244/336
f 205/247/337 204/246/338 203/245/339
f 204/246/338 205/247/337 206/248/340
f 199/241/335 208/251/341 207/249/342
f 208/251/343 199/241/335 200/242/334
f 202/244/336 209/253/344 200/242/334
f 209/253/344 202/244/345 210/254/346
f 202/244/336 205/247/337 210/254/346
f 205/247/337 202/244/336 206/248/347
f 206/248/347 202/244/336 201/243/333
f 206/248/347 201/243/333 211/255/348
f 204/246/349 213/258/350 212/256/351
f 213/258/350 204/246/349 214/260/352
f 207/249/353 214/260/352 199/241/335
f 214/260/352 207/249/353 213/258/354
f 206/248/347 214/260/352 204/246/338
f 214/260/352 206/248/355 211/255/356
f 203/245/339 212/256/357 215/261/358
f 212/256/359 203/245/339 204/246/338
f 203/245/360 216/263/361 209/253/344
f 216/263/361 203/245/362 215/261/358
f 214/260/352 201/243/333 199/241/335
f 201/243/333 214/260/363 211/255/348
f 200/242/364 216/263/361 208/251/365
f 216/263/361 200/242/364 209/253/344
f 210/254/366 203/245/339 209/253/367
f 203/245/362 210/254/368 205/247/337
f 219/267/369 218/266/370 217/265/371
f 218/266/372 219/267/369 220/268/373
f 223/271/374 222/270/375 221/269/376
f 222/270/377 223/271/374 224/272/378
f 217/265/371 226/275/379 225/273/380
f 226/275/381 217/265/371 218/266/370
f 220/268/382 227/277/383 218/266/370
f 227/277/383 220/268/373 228/278/384
f 220/268/373 223/271/374 228/278/384
f 223/271/374 220/268/373 224/272/378
f 224/272/378 220/268/373 219/267/369
f 224/272/378 219/267/369 229/279/385
f 222/270/377 231/282/386 230/280/387
f 231/282/388 222/270/389 232/284/390
f 225/273/380 232/284/391 217/265/371
f 232/284/392 225/273/393 231/282/394
f 224/272/378 232/284/390 222/270/375
f 232/284/390 224/272/378 229/279/385
f 221/269/376 230/280/387 233/285/395
f 230/280/387 221/269/376 222/270/375
f 221/269/396 234/287/397 227/277/383
f 234/287/397 221/269/396 233/285/395
f 232/284/390 219/267/369 217/265/371
f 219/267/369 232/284/390 229/279/385
f 218/266/398 234/287/399 226/275/381
f 234/287/400 218/266/398 227/277/383
f 228/278/384 221/269/376 227/277/383
f 221/269/376 228/278/384 223/271/374
f 237/291/401 236/290/402 235/289/403
f 236/290/402 237/291/401 238/292/404
f 240/294/405 237/291/406 239/293/407
f 237/291/401 240/294/408 238/292/409
f 237/291/410 241/295/411 239/293/407
f 241/295/412 237/291/401 235/289/403
f 236/290/413 240/294/405 242/296/414
f 240/294/408 236/290/402 238/292/404
f 235/289/415 242/296/414 241/295/411
f 242/296/416 235/289/417 236/290/418
f 245/299/419 244/298/420 243/297/421
f 244/298/420 245/299/419 246/300/422
f 248/302/423 245/299/424 247/301/425
f 245/299/419 248/302/426 246/300/427
f 245/299/424 249/303/428 247/301/429
f 249/303/430 245/299/419 243/297/431
f 244/298/432 248/302/433 250/304/434
f 248/302/435 244/298/420 246/300/427
f 243/297/436 250/304/437 249/303/438
f 250/304/439 243/297/431 244/298/420
f 253/307/440 252/306/441 251/305/442
f 252/306/443 253/307/440 254/308/444
f 256/310/445 253/307/440 255/309/446
f 253/307/440 256/310/447 254/308/448
f 253/307/449 257/311/450 255/309/446
f 257/311/451 253/307/440 251/305/452
f 252/306/453 256/310/445 258/312/454
f 256/310/447 252/306/441 254/308/444
f 251/305/442 258/312/454 257/311/450
f 258/312/455 251/305/452 252/306/441
f 261/315/456 260/314/457 259/313/458
f 260/314/457 261/315/456 262/316/459
f 264/318/460 261/315/456 263/317/461
f 261/315/456 264/318/462 262/316/463
f 261/315/456 265/319/464 263/317/461
f 265/319/465 261/315/456 259/313/466
f 260/314/457 264/318/460 266/320/467
f 264/318/468 260/314/457 262/316/463
f 259/313/466 266/320/469 265/319/464
f 266/320/470 259/313/466 260/314/457
f 269/323/471 268/322/472 267/321/473
f 268/322/472 269/323/471 270/324/474
f 272/326/475 269/323/471 271/325/476
f 269/323/477 272/326/478 270/324/474
f 269/323/471 273/327/479 271/325/480
f 273/327/481 269/323/477 267/321/473
f 268/322/472 272/326/482 274/328/483
f 272/326/484 268/322/485 270/324/474
f 267/321/473 274/328/486 273/327/487
f 274/328/488 267/321/489 268/322/472
f 277/331/490 276/330/491 275/329/492
f 276/330/493 277/331/490 278/332/494
f 280/334/495 277/331/490 279/333/496
f 277/331/490 280/334/497 278/332/498
f 277/331/490 281/335/499 279/333/496
f 281/335/500 277/331/490 275/329/492
f 276/330/491 280/334/495 282/336/501
f 280/334/497 276/330/491 278/332/498
f 275/329/492 282/336/501 281/335/499
f 282/336/502 275/329/492 276/330/491
f 285/339/503 284/338/504 283/337/505
f 284/338/506 285/339/503 286/340/507
f 288/342/1 284/338/1 287/341/1
f 284/338/1 288/342/1 283/337/1
f 283/337/1 288/342/1 289/343/1
f 283/337/1 289/343/1 290/344/1
f 292/346/508 81/82/509 291/345/510
f 81/82/509 292/346/508 87/91/511
f 291/345/510 283/337/512 290/344/513
f 283/337/505 291/345/510 285/339/514
f 86/89/515 292/346/516 293/347/517
f 292/346/516 86/89/518 87/91/511
f 82/84/519 286/340/507 285/339/520
f 286/340/507 82/84/521 90/96/522
f 289/343/523 291/345/510 290/344/513
f 291/345/510 289/343/524 292/346/508
f 293/347/525 289/343/523 288/342/526
f 289/343/524 293/347/525 292/346/516
f 81/82/527 285/339/514 291/345/510
f 285/339/514 81/82/527 82/84/528
f 90/96/522 294/348/529 286/340/530
f 294/348/529 90/96/522 89/94/531
f 89/94/532 293/347/533 294/348/529
f 293/347/533 89/94/532 86/89/534
f 286/340/535 287/341/536 284/338/506
f 287/341/537 286/340/535 294/348/529
f 294/348/529 288/342/538 287/341/539
f 288/342/526 294/348/529 293/347/533
f 297/351/540 296/350/541 295/349/542
f 296/350/543 297/351/540 298/352/544
f 300/354/1 296/350/1 299/353/1
f 296/350/1 300/354/1 295/349/1
f 295/349/1 300/354/1 301/355/1
f 295/349/1 301/355/1 302/356/1
f 304/358/545 99/106/546 303/357/547
f 99/106/546 304/358/548 105/115/549
f 303/357/547 295/349/550 302/356/551
f 295/349/542 303/357/552 297/351/540
f 104/113/553 304/358/554 305/359/555
f 304/358/548 104/113/553 105/115/549
f 100/108/556 298/352/557 297/351/540
f 298/352/544 100/108/556 108/120/558
f 301/355/559 303/357/547 302/356/551
f 303/357/552 301/355/560 304/358/548
f 305/359/555 301/355/559 300/354/561
f 301/355/562 305/359/555 304/358/548
f 99/106/546 297/351/540 303/357/547
f 297/351/540 99/106/546 100/108/556
f 108/120/558 306/360/563 298/352/544
f 306/360/563 108/120/558 107/118/564
f 107/118/565 305/359/555 306/360/566
f 305/359/555 107/118/565 104/113/553
f 298/352/544 299/353/567 296/350/543
f 299/353/568 298/352/557 306/360/563
f 306/360/566 300/354/569 299/353/568
f 300/354/561 306/360/563 305/359/555
f 309/363/570 308/362/571 307/361/572
f 308/362/571 309/363/570 310/364/573
f 312/366/1 308/362/1 311/365/1
f 308/362/1 312/366/1 307/361/1
f 307/361/1 312/366/1 313/367/1
f 307/361/1 313/367/1 314/368/1
f 316/370/574 117/130/575 315/369/576
f 117/130/577 316/370/574 123/139/578
f 315/369/576 307/361/579 314/368/580
f 307/361/579 315/369/576 309/363/570
f 122/137/581 316/370/574 317/371/582
f 316/370/574 122/137/583 123/139/584
f 118/132/585 310/364/573 309/363/570
f 310/364/573 118/132/586 126/144/587
f 313/367/588 315/369/576 314/368/589
f 315/369/576 313/367/588 316/370/574
f 317/371/582 313/367/590 312/366/591
f 313/367/590 317/371/582 316/370/574
f 117/130/575 309/363/570 315/369/576
f 309/363/570 117/130/577 118/132/586
f 126/144/592 318/372/593 310/364/573
f 318/372/593 126/144/594 125/142/595
f 125/142/596 317/371/582 318/372/593
f 317/371/582 125/142/595 122/137/583
f 310/364/573 311/365/597 308/362/598
f 311/365/597 310/364/573 318/372/593
f 318/372/593 312/366/599 311/365/600
f 312/366/599 318/372/593 317/371/582
f 321/375/601 320/374/602 319/373/603
f 320/374/602 321/375/601 322/376/604
f 324/378/1 320/374/1 323/377/1
f 320/374/1 324/378/1 319/373/1
f 319/373/1 324/378/1 325/379/1
f 319/373/1 325/379/1 326/380/1
f 328/382/605 135/154/606 327/381/607
f 135/154/608 328/382/609 141/163/610
f 327/381/611 319/373/612 326/380/613
f 319/373/612 327/381/611 321/375/601
f 140/161/614 328/382/615 329/383/616
f 328/382/617 140/161/618 141/163/610
f 136/156/619 322/376/620 321/375/621
f 322/376/622 136/156/623 144/168/624
f 325/379/625 327/381/626 326/380/613
f 327/381/611 325/379/625 328/382/617
f 329/383/627 325/379/628 324/378/629
f 325/379/628 329/383/627 328/382/609
f 135/154/630 321/375/621 327/381/607
f 321/375/601 135/154/631 136/156/632
f 144/168/633 330/384/634 322/376/635
f 330/384/636 144/168/624 143/166/637
f 143/166/638 329/383/616 330/384/634
f 329/383/627 143/166/639 140/161/640
f 322/376/622 323/377/641 320/374/642
f 323/377/641 322/376/622 330/384/636
f 330/384/636 324/378/643 323/377/641
f 324/378/643 330/384/636 329/383/627
f 333/387/644 332/386/645 331/385/646
f 332/386/645 333/387/647 334/388/648
f 336/390/1 332/386/1 335/389/1
f 332/386/1 336/390/1 331/385/1
f 331/385/1 336/390/1 337/391/1
f 331/385/1 337/391/1 338/392/1
f 340/394/649 153/178/650 339/393/651
f 153/178/650 340/394/652 159/187/653
f 339/393/651 331/385/646 338/392/654
f 331/385/646 339/393/655 333/387/647
f 158/185/656 340/394/649 341/395/657
f 340/394/658 158/185/656 159/187/653
f 154/180/659 334/388/660 333/387/644
f 334/388/661 154/180/659 162/192/662
f 337/391/663 339/393/664 338/392/654
f 339/393/655 337/391/663 340/394/665
f 341/395/657 337/391/663 336/390/666
f 337/391/663 341/395/667 340/394/665
f 153/178/650 333/387/644 339/393/651
f 333/387/644 153/178/650 154/180/659
f 162/192/662 342/396/668 334/388/660
f 342/396/669 162/192/662 161/190/670
f 161/190/670 341/395/657 342/396/668
f 341/395/657 161/190/670 158/185/656
f 334/388/671 335/389/672 332/386/645
f 335/389/672 334/388/648 342/396/673
f 342/396/668 336/390/666 335/389/672
f 336/390/666 342/396/674 341/395/667
f 345/399/675 344/398/676 343/397/677
f 344/398/678 345/399/675 346/400/679
f 348/402/1 344/398/1 347/401/1
f 344/398/1 348/402/1 343/397/1
f 343/397/1 348/402/1 349/403/1
f 343/397/1 349/403/1 350/404/1
f 352/406/680 171/202/681 351/405/682
f 171/202/681 352/406/680 177/211/683
f 351/405/682 343/397/684 350/404/685
f 343/397/684 351/405/682 345/399/675
f 176/209/686 352/406/680 353/407/687
f 352/406/680 176/209/686 177/211/683
f 172/204/688 346/400/679 345/399/675
f 346/400/679 172/204/688 180/216/689
f 349/403/690 351/405/682 350/404/685
f 351/405/682 349/403/691 352/406/680
f 353/407/687 349/403/690 348/402/692
f 349/403/691 353/407/687 352/406/680
f 171/202/681 345/399/675 351/405/682
f 345/399/675 171/202/681 172/204/688
f 180/216/689 354/408/693 346/400/679
f 354/408/694 180/216/689 179/214/695
f 179/214/695 353/407/687 354/408/694
f 353/407/687 179/214/695 176/209/686
f 346/400/679 347/401/696 344/398/697
f 347/401/698 346/400/679 354/408/694
f 354/408/694 348/402/699 347/401/698
f 348/402/692 354/408/694 353/407/687
f 357/411/700 356/410/701 355/409/702
f 356/410/703 357/411/704 358/412/705
f 360/414/1 356/410/1 359/413/1
f 356/410/1 360/414/1 355/409/1
f 355/409/1 360/414/1 361/415/1
f 355/409/1 361/415/1 362/416/1
f 364/418/706 189/226/707 363/417/708
f 189/226/707 364/418/706 195/235/709
f 363/417/708 355/409/702 362/416/710
f 355/409/702 363/417/708 357/411/700
f 194/233/711 364/418/706 365/419/712
f 364/418/706 194/233/711 195/235/709
f 190/228/713 358/412/705 357/411/700
f 358/412/705 190/228/713 198/240/714
f 361/415/715 363/417/708 362/416/716
f 363/417/708 361/415/715 364/418/706
f 365/419/712 361/415/715 360/414/717
f 361/415/718 365/419/719 364/418/706
f 189/226/707 357/411/704 363/417/708
f 357/411/704 189/226/707 190/228/713
f 198/240/714 366/420/720 358/412/705
f 366/420/720 198/240/714 197/238/721
f 197/238/721 365/419/719 366/420/720
f 365/419/719 197/238/721 194/233/711
f 358/412/705 359/413/722 356/410/703
f 359/413/722 358/412/705 366/420/720
f 366/420/720 360/414/717 359/413/723
f 360/414/717 366/420/720 365/419/712
f 369/423/724 368/422/725 367/421/726
f 368/422/725 369/423/727 370/424/728
f 372/426/1 368/422/1 371/425/1
f 368/422/1 372/426/1 367/421/1
f 367/421/1 372/426/1 373/427/1
f 367/421/1 373/427/1 374/428/1
f 376/430/729 207/250/730 375/429/731
f 207/250/730 376/430/729 213/259/732
f 375/429/731 367/421/726 374/428/733
f 367/421/734 375/429/731 369/423/727
f 212/257/735 376/430/736 377/431/737
f 376/430/736 212/257/735 213/259/732
f 208/252/738 370/424/739 369/423/724
f 370/424/739 208/252/738 216/264/740
f 373/427/741 375/429/731 374/428/733
f 375/429/731 373/427/741 376/430/729
f 377/431/737 373/427/742 372/426/743
f 373/427/742 377/431/744 376/430/729
f 207/250/730 369/423/727 375/429/731
f 369/423/727 207/250/730 208/252/738
f 216/264/740 378/432/745 370/424/728
f 378/432/745 216/264/740 215/262/746
f 215/262/746 377/431/744 378/432/745
f 377/431/744 215/262/746 212/257/735
f 370/424/728 371/425/747 368/422/748
f 371/425/747 370/424/728 378/432/745
f 378/432/745 372/426/743 371/425/749
f 372/426/750 378/432/745 377/431/744
f 381/435/751 380/434/752 379/433/753
f 380/434/752 381/435/751 382/436/754
f 384/438/1 380/434/1 383/437/1
f 380/434/1 384/438/1 379/433/1
f 379/433/1 384/438/1 385/439/1
f 379/433/1 385/439/1 386/440/1
f 388/442/755 225/274/756 387/441/757
f 225/274/756 388/442/755 231/283/758
f 387/441/757 379/433/759 386/440/760
f 379/433/759 387/441/757 381/435/751
f 230/281/761 388/442/762 389/443/763
f 388/442/762 230/281/761 231/283/758
f 226/276/764 382/436/754 381/435/751
f 382/436/754 226/276/764 234/288/765
f 385/439/766 387/441/757 386/440/767
f 387/441/757 385/439/766 388/442/762
f 389/443/763 385/439/766 384/438/768
f 385/439/766 389/443/763 388/442/762
f 225/274/756 381/435/769 387/441/757
f 381/435/769 225/274/756 226/276/764
f 234/288/765 390/444/770 382/436/754
f 390/444/770 234/288/765 233/286/771
f 233/286/771 389/443/763 390/444/770
f 389/443/763 233/286/771 230/281/761
f 382/436/754 383/437/772 380/434/752
f 383/437/772 382/436/754 390/444/770
f 390/444/770 384/438/773 383/437/772
f 384/438/773 390/444/770 389/443/763
f 3/3/1 2/2/1 1/1/1
f 2/2/1 3/3/1 4/4/1
f 2/2/1 4/4/1 5/5/1
f 5/5/1 4/4/1 6/6/1
f 5/5/1 6/6/1 7/7/1
f 7/7/1 6/6/1 8/8/1
f 11/11/2 10/10/3 9/9/4
f 10/10/5 11/11/6 12/12/7
f 10/10/8 12/12/7 13/13/9
f 13/13/9 12/12/7 14/14/10
f 13/13/9 14/14/11 15/15/12
f 15/15/13 14/14/14 16/16/15
f 10/10/8 17/17/16 9/9/4
f 17/17/16 10/10/8 18/18/17
f 7/7/18 20/20/19 19/19/20
f 20/20/21 7/7/18 8/8/22
f 7/7/18 21/21/23 5/5/24
f 21/21/25 7/7/18 19/19/20
f 18/18/26 4/4/27 3/3/28
f 4/4/27 18/18/29 22/22/30
f 5/5/24 23/23/31 2/2/32
f 23/23/33 5/5/24 21/21/23
f 24/24/34 4/4/27 22/22/30
f 4/4/27 24/24/35 6/6/36
f 20/20/19 6/6/36 24/24/35
f 6/6/36 20/20/21 8/8/22
f 2/2/32 17/17/16 1/1/37
f 17/17/38 2/2/32 23/23/31
f 17/17/16 3/3/28 1/1/37
f 3/3/28 17/17/38 18/18/26
f 20/20/21 14/14/10 19/19/39
f 14/14/10 20/20/21 16/16/15
f 20/20/21 15/15/12 16/16/15
f 15/15/12 20/20/21 24/24/40
f 14/14/10 21/21/23 19/19/41
f 21/21/23 14/14/10 12/12/7
f 13/13/9 24/24/42 22/22/30
f 24/24/42 13/13/9 15/15/12
f 11/11/6 17/17/16 23/23/43
f 17/17/16 11/11/6 9/9/4
f 10/10/8 22/22/30 18/18/44
f 22/22/30 10/10/8 13/13/9
f 12/12/7 23/23/45 21/21/23
f 23/23/45 12/12/7 11/11/6
f 27/27/1 26/26/1 25/25/1
f 26/26/1 27/27/1 28/28/1
f 26/26/1 28/28/1 29/29/1
f 29/29/1 28/28/1 30/30/1
f 29/29/1 30/30/1 31/31/1
f 31/31/1 30/30/1 32/32/1
f 35/35/46 34/34/47 33/33/48
f 34/34/47 35/35/46 36/36/49
f 34/34/47 36/36/49 37/37/50
f 37/37/50 36/36/49 38/38/51
f 37/37/50 38/38/51 39/39/52
f 39/39/52 38/38/51 40/40/53
f 34/34/47 41/41/54 33/33/48
f 41/41/54 34/34/47 42/42/55
f 31/31/56 44/44/57 43/43/58
f 44/44/57 31/31/56 32/32/59
f 31/31/56 45/45/60 29/29/61
f 45/45/60 31/31/56 43/43/58
f 42/42/55 28/28/62 27/27/63
f 28/28/62 42/42/55 46/46/64
f 29/29/61 47/47/65 26/26/66
f 47/47/65 29/29/61 45/45/60
f 48/48/67 28/28/62 46/46/64
f 28/28/62 48/48/67 30/30/68
f 44/44/57 30/30/68 48/48/67
f 30/30/68 44/44/57 32/32/59
f 26/26/66 41/41/54 25/25/69
f 41/41/54 26/26/66 47/47/65
f 41/41/54 27/27/63 25/25/69
f 27/27/63 41/41/54 42/42/55
f 44/44/57 38/38/51 43/43/58
f 38/38/51 44/44/57 40/40/53
f 44/44/57 39/39/52 40/40/53
f 39/39/52 44/44/57 48/48/67
f 38/38/51 45/45/60 43/43/58
f 45/45/60 38/38/51 36/36/49
f 37/37/50 48/48/67 46/46/64
f 48/48/67 37/37/50 39/39/52
f 35/35/46 41/41/54 47/47/65
f 41/41/54 35/35/46 33/33/48
f 34/34/47 46/46/64 42/42/55
f 46/46/64 34/34/47 37/37/50
f 36/36/49 47/47/65 45/45/60
f 47/47/65 36/36/49 35/35/46
f 51/51/1 50/50/1 49/49/1
f 50/50/1 51/51/1 52/52/1
f 50/50/1 52/52/1 53/53/1
f 53/53/1 52/52/1 54/54/1
f 53/53/1 54/54/1 55/55/1
f 55/55/1 54/54/1 56/56/1
f 59/59/70 58/58/71 57/57/72
f 58/58/73 59/59/74 60/60/75
f 58/58/76 60/60/75 61/61/77
f 61/61/77 60/60/75 62/62/78
f 61/61/77 62/62/79 63/63/80
f 63/63/81 62/62/82 64/64/83
f 58/58/76 65/65/84 57/57/72
f 65/65/84 58/58/76 66/66/85
f 55/55/86 68/68/87 67/67/88
f 68/68/87 55/55/86 56/56/89
f 55/55/90 69/69/91 53/53/92
f 69/69/91 55/55/90 67/67/88
f 66/66/85 52/52/93 51/51/94
f 52/52/93 66/66/85 70/70/95
f 53/53/92 71/71/96 50/50/97
f 71/71/96 53/53/92 69/69/91
f 72/72/98 52/52/93 70/70/95
f 52/52/93 72/72/98 54/54/99
f 68/68/87 54/54/100 72/72/98
f 54/54/100 68/68/87 56/56/89
f 50/50/101 65/65/84 49/49/102
f 65/65/84 50/50/101 71/71/96
f 65/65/84 51/51/103 49/49/102
f 51/51/103 65/65/84 66/66/85
f 68/68/87 62/62/78 67/67/88
f 62/62/78 68/68/87 64/64/83
f 68/68/87 63/63/80 64/64/83
f 63/63/80 68/68/87 72/72/98
f 62/62/78 69/69/91 67/67/88
f 69/69/91 62/62/78 60/60/75
f 61/61/77 72/72/98 70/70/95
f 72/72/98 61/61/77 63/63/80
f 59/59/74 65/65/84 71/71/96
f 65/65/84 59/59/74 57/57/72
f 58/58/76 70/70/95 66/66/85
f 70/70/95 58/58/76 61/61/77
f 60/60/75 71/71/96 69/69/91
f 71/71/96 60/60/75 59/59/74
f 75/75/104 74/74/105 73/73/106
f 74/74/105 75/75/104 76/76/107
f 79/79/108 78/78/109 77/77/110
f 78/78/109 79/79/108 80/80/111
f 73/73/106 82/83/112 81/81/113
f 82/83/114 73/73/106 74/74/105
f 76/76/115 83/85/116 74/74/105
f 83/85/117 76/76/115 84/86/118
f 76/76/119 79/79/108 84/86/118
f 79/79/120 76/76/119 80/80/121
f 80/80/121 76/76/119 75/75/122
f 80/80/121 75/75/104 85/87/123
f 78/78/109 87/90/124 86/88/125
f 87/90/126 78/78/109 88/92/127
f 81/81/113 88/92/127 73/73/106
f 88/92/127 81/81/128 87/90/126
f 80/80/129 88/92/130 78/78/109
f 88/92/127 80/80/129 85/87/123
f 77/77/110 86/88/131 89/93/132
f 86/88/125 77/77/110 78/78/109
f 77/77/110 90/95/133 83/85/117
f 90/95/133 77/77/134 89/93/132
f 88/92/127 75/75/104 73/73/106
f 75/75/104 88/92/135 85/87/123
f 74/74/105 90/95/133 82/83/114
f 90/95/133 74/74/105 83/85/117
f 84/86/118 77/77/134 83/85/117
f 77/77/110 84/86/118 79/79/108
f 93/99/136 92/98/137 91/97/138
f 92/98/137 93/99/136 94/100/139
f 97/103/140 96/102/141 95/101/142
f 96/102/141 97/103/140 98/104/143
f 91/97/144 100/107/145 99/105/146
f 100/107/147 91/97/148 92/98/137
f 94/100/139 101/109/149 92/98/150
f 101/109/149 94/100/139 102/110/151
f 94/100/139 97/103/140 102/110/152
f 97/103/140 94/100/153 98/104/143
f 98/104/154 94/100/139 93/99/136
f 98/104/143 93/99/136 103/111/155
f 96/102/141 105/114/156 104/112/157
f 105/114/158 96/102/141 106/116/159
f 99/105/146 106/116/159 91/97/148
f 106/116/159 99/105/160 105/114/161
f 98/104/143 106/116/162 96/102/141
f 106/116/162 98/104/143 103/111/163
f 95/101/164 104/112/165 107/117/166
f 104/112/167 95/101/168 96/102/141
f 95/101/168 108/119/169 101/109/149
f 108/119/169 95/101/168 107/117/166
f 106/116/159 93/99/136 91/97/144
f 93/99/136 106/116/159 103/111/155
f 92/98/137 108/119/170 100/107/171
f 108/119/172 92/98/137 101/109/173
f 102/110/152 95/101/168 101/109/149
f 95/101/168 102/110/152 97/103/140
f 111/123/174 110/122/175 109/121/176
f 110/122/177 111/123/174 112/124/178
f 115/127/179 114/126/180 113/125/181
f 114/126/182 115/127/179 116/128/183
f 109/121/176 118/131/184 117/129/185
f 118/131/184 109/121/176 110/122/177
f 112/124/178 119/133/186 110/122/177
f 119/133/187 112/124/178 120/134/188
f 112/124/178 115/127/189 120/134/188
f 115/127/179 112/124/178 116/128/183
f 116/128/183 112/124/178 111/123/174
f 116/128/183 111/123/190 121/135/191
f 114/126/182 123/138/192 122/136/193
f 123/138/192 114/126/182 124/140/194
f 117/129/195 124/140/194 109/121/176
f 124/140/194 117/129/196 123/138/192
f 116/128/183 124/140/197 114/126/182
f 124/140/194 116/128/183 121/135/191
f 113/125/181 122/136/198 125/141/199
f 122/136/198 113/125/181 114/126/182
f 113/125/181 126/143/200 119/133/187
f 126/143/200 113/125/181 125/141/201
f 124/140/194 111/123/202 109/121/176
f 111/123/202 124/140/194 121/135/191
f 110/122/177 126/143/200 118/131/203
f 126/143/200 110/122/177 119/133/187
f 120/134/204 113/125/181 119/133/187
f 113/125/181 120/134/204 115/127/205
f 129/147/206 128/146/207 127/145/208
f 128/146/207 129/147/209 130/148/210
f 133/151/211 132/150/212 131/149/213
f 132/150/212 133/151/214 134/152/215
f 127/145/216 136/155/217 135/153/218
f 136/155/219 127/145/208 128/146/207
f 130/148/210 137/157/220 128/146/207
f 137/157/220 130/148/210 138/158/221
f 130/148/210 133/151/222 138/158/223
f 133/151/211 130/148/210 134/152/215
f 134/152/215 130/148/210 129/147/206
f 134/152/215 129/147/224 139/159/225
f 132/150/226 141/162/227 140/160/228
f 141/162/227 132/150/212 142/164/229
f 135/153/218 142/164/229 127/145/230
f 142/164/231 135/153/218 141/162/227
f 134/152/215 142/164/232 132/150/212
f 142/164/232 134/152/215 139/159/225
f 131/149/233 140/160/228 143/165/234
f 140/160/228 131/149/213 132/150/212
f 131/149/235 144/167/236 137/157/237
f 144/167/236 131/149/238 143/165/234
f 142/164/229 129/147/224 127/145/230
f 129/147/206 142/164/229 139/159/225
f 128/146/239 144/167/236 136/155/219
f 144/167/236 128/146/207 137/157/237
f 138/158/221 131/149/235 137/157/237
f 131/149/235 138/158/223 133/151/211
f 147/171/240 146/170/241 145/169/242
f 146/170/241 147/171/240 148/172/243
f 151/175/244 150/174/245 149/173/246
f 150/174/245 151/175/244 152/176/247
f 145/169/242 154/179/248 153/177/249
f 154/179/250 145/169/242 146/170/241
f 148/172/243 155/181/251 146/170/241
f 155/181/251 148/172/243 156/182/252
f 148/172/243 151/175/244 156/182/253
f 151/175/244 148/172/243 152/176/247
f 152/176/247 148/172/243 147/171/240
f 152/176/247 147/171/240 157/183/254
f 150/174/245 159/186/255 158/184/256
f 159/186/257 150/174/245 160/188/258
f 153/177/249 160/188/259 145/169/260
f 160/188/259 153/177/249 159/186/255
f 152/176/247 160/188/258 150/174/245
f 160/188/258 152/176/247 157/183/261
f 149/173/246 158/184/262 161/189/263
f 158/184/264 149/173/246 150/174/245
f 149/173/246 162/191/265 155/181/266
f 162/191/267 149/173/268 161/189/263
f 160/188/259 147/171/240 145/169/242
f 147/171/240 160/188/259 157/183/261
f 146/170/241 162/191/267 154/179/269
f 162/191/265 146/170/241 155/181/251
f 156/182/252 149/173/246 155/181/251
f 149/173/246 156/182/252 151/175/244
f 165/195/270 164/194/271 163/193/272
f 164/194/273 165/195/270 166/196/274
f 169/199/275 168/198/276 167/197/277
f 168/198/278 169/199/275 170/200/279
f 163/193/272 172/203/280 171/201/281
f 172/203/282 163/193/272 164/194/271
f 166/196/274 173/205/283 164/194/271
f 173/205/284 166/196/274 174/206/285
f 166/196/274 169/199/275 174/206/285
f 169/199/286 166/196/274 170/200/279
f 170/200/279 166/196/274 165/195/287
f 170/200/279 165/195/287 175/207/288
f 168/198/278 177/210/289 176/208/290
f 177/210/291 168/198/276 178/212/292
f 171/201/281 178/212/292 163/193/272
f 178/212/293 171/201/294 177/210/291
f 170/200/279 178/212/292 168/198/276
f 178/212/293 170/200/279 175/207/288
f 167/197/277 176/208/295 179/213/296
f 176/208/290 167/197/277 168/198/276
f 167/197/277 180/215/297 173/205/283
f 180/215/298 167/197/299 179/213/296
f 178/212/293 165/195/270 163/193/272
f 165/195/270 178/212/292 175/207/288
f 164/194/273 180/215/298 172/203/282
f 180/215/297 164/194/271 173/205/283
f 174/206/300 167/197/299 173/205/283
f 167/197/277 174/206/285 169/199/275
f 183/219/301 182/218/302 181/217/303
f 182/218/302 183/219/304 184/220/305
f 187/223/306 186/222/307 185/221/308
f 186/222/307 187/223/309 188/224/310
f 181/217/311 190/227/312 189/225/313
f 190/227/312 181/217/311 182/218/302
f 184/220/305 191/229/314 182/218/315
f 191/229/314 184/220/305 192/230/316
f 184/220/305 187/223/309 192/230/317
f 187/223/306 184/220/305 188/224/310
f 188/224/310 184/220/305 183/219/301
f 188/224/310 183/219/304 193/231/318
f 186/222/307 195/234/319 194/232/320
f 195/234/319 186/222/307 196/236/321
f 189/225/313 196/236/322 181/217/303
f 196/236/322 189/225/323 195/234/324
f 188/224/310 196/236/321 186/222/307
f 196/236/321 188/224/310 193/231/325
f 185/221/326 194/232/327 197/237/328
f 194/232/329 185/221/326 186/222/307
f 185/221/308 198/239/330 191/229/314
f 198/239/330 185/221/308 197/237/328
f 196/236/321 183/219/301 181/217/311
f 183/219/304 196/236/321 193/231/325
f 182/218/302 198/239/330 190/227/331
f 198/239/332 182/218/302 191/229/314
f 192/230/316 185/221/308 191/229/314
f 185/221/308 192/230/317 187/223/306
f 201/243/333 200/242/334 199/241/335
f 200/242/334 201/243/333 202/244/336
f 205/247/337 204/246/338 203/245/339
f 204/246/338 205/247/337 206/248/340
f 199/241/335 208/251/341 207/249/342
f 208/251/343 199/241/335 200/242/334
f 202/244/336 209/253/344 200/242/334
f 209/253/344 202/244/345 210/254/346
f 202/244/336 205/247/337 210/254/346
f 205/247/337 202/244/336 206/248/347
f 206/248/347 202/244/336 201/243/333
f 206/248/347 201/243/333 211/255/348
f 204/246/349 213/258/350 212/256/351
f 213/258/350 204/246/349 214/260/352
f 207/249/353 214/260/352 199/241/335
f 214/260/352 207/249/353 213/258/354
f 206/248/347 214/260/352 204/246/338
f 214/260/352 206/248/355 211/255/356
f 203/245/339 212/256/357 215/261/358
f 212/256/359 203/245/339 204/246/338
f 203/245/360 216/263/361 209/253/344
f 216/263/361 203/245/362 215/261/358
f 214/260/352 201/243/333 199/241/335
f 201/243/333 214/260/363 211/255/348
f 200/242/364 216/263/361 208/251/365
f 216/263/361 200/242/364 209/253/344
f 210/254/366 203/245/339 209/253/367
f 203/245/362 210/254/368 205/247/337
f 219/267/369 218/266/370 217/265/371
f 218/266/372 219/267/369 220/268/373
f 223/271/374 222/270/375 221/269/376
f 222/270/377 223/271/374 224/272/378
f 217/265/371 226/275/379 225/273/380
f 226/275/381 217/265/371 218/266/370
f 220/268/382 227/277/383 218/266/370
f 227/277/383 220/268/373 228/278/384
f 220/268/373 223/271/374 228/278/384
f 223/271/374 220/268/373 224/272/378
f 224/272/378 220/268/373 219/267/369
f 224/272/378 219/267/369 229/279/385
f 222/270/377 231/282/386 230/280/387
f 231/282/388 222/270/389 232/284/390
f 225/273/380 232/284/391 217/265/371
f 232/284/392 225/273/393 231/282/394
f 224/272/378 232/284/390 222/270/375
f 232/284/390 224/272/378 229/279/385
f 221/269/376 230/280/387 233/285/395
f 230/280/387 221/269/376 222/270/375
f 221/269/396 234/287/397 227/277/383
f 234/287/397 221/269/396 233/285/395
f 232/284/390 219/267/369 217/265/371
f 219/267/369 232/284/390 229/279/385
f 218/266/398 234/287/399 226/275/381
f 234/287/400 218/266/398 227/277/383
f 228/278/384 221/269/376 227/277/383
f 221/269/376 228/278/384 223/271/374
f 237/291/401 236/290/402 235/289/403
f 236/290/402 237/291/401 238/292/404
f 240/294/405 237/291/406 239/293/407
f 237/291/401 240/294/408 238/292/409
f 237/291/410 241/295/411 239/293/407
f 241/295/412 237/291/401 235/289/403
f 236/290/413 240/294/405 242/296/414
f 240/294/408 236/290/402 238/292/404
f 235/289/415 242/296/414 241/295/411
f 242/296/416 235/289/417 236/290/418
f 245/299/419 244/298/420 243/297/421
f 244/298/420 245/299/419 246/300/422
f 248/302/423 245/299/424 247/301/425
f 245/299/419 248/302/426 246/300/427
f 245/299/424 249/303/428 247/301/429
f 249/303/430 245/299/419 243/297/431
f 244/298/432 248/302/433 250/304/434
f 248/302/435 244/298/420 246/300/427
f 243/297/436 250/304/437 249/303/438
f 250/304/439 243/297/431 244/298/420
f 253/307/440 252/306/441 251/305/442
f 252/306/443 253/307/440 254/308/444
f 256/310/445 253/307/440 255/309/446
f 253/307/440 256/310/447 254/308/448
f 253/307/449 257/311/450 255/309/446
f 257/311/451 253/307/440 251/305/452
f 252/306/453 256/310/445 258/312/454
f 256/310/447 252/306/441 254/308/444
f 251/305/442 258/312/454 257/311/450
f 258/312/455 251/305/452 252/306/441
f 261/315/456 260/314/457 259/313/458
f 260/314/457 261/315/456 262/316/459
f 264/318/460 261/315/456 263/317/461
f 261/315/456 264/318/462 262/316/463
f 261/315/456 265/319/464 263/317/461
f 265/319/465 261/315/456 259/313/466
f 260/314/457 264/318/460 266/320/467
f 264/318/468 260/314/457 262/316/463
f 259/313/466 266/320/469 265/319/464
f 266/320/470 259/313/466 260/314/457
f 269/323/471 268/322/472 267/321/473
f 268/322/472 269/323/471 270/324/474
f 272/326/475 269/323/471 271/325/476
f 269/323/477 272/326/478 270/324/474
f 269/323/471 273/327/479 271/325/480
f 273/327/481 269/323/477 267/321/473
f 268/322/472 272/326/482 274/328/483
f 272/326/484 268/322/485 270/324/474
f 267/321/473 274/328/486 273/327/487
f 274/328/488 267/321/489 268/322/472
f 277/331/490 276/330/491 275/329/492
f 276/330/493 277/331/490 278/332/494
f 280/334/495 277/331/490 279/333/496
f 277/331/490 280/334/497 278/332/498
f 277/331/490 281/335/499 279/333/496
f 281/335/500 277/331/490 275/329/492
f 276/330/491 280/334/495 282/336/501
f 280/334/497 276/330/491 278/332/498
f 275/329/492 282/336/501 281/335/499
f 282/336/502 275/329/492 276/330/491
f 285/339/503 284/338/504 283/337/505
f 284/338/506 285/339/503 286/340/507
f 288/342/1 284/338/1 287/341/1
f 284/338/1 288/342/1 283/337/1
f 283/337/1 288/342/1 289/343/1
f 283/337/1 289/343/1 290/344/1
f 292/346/508 81/82/509 291/345/510
f 81/82/509 292/346/508 87/91/511
f 291/345/510 283/337/512 290/344/513
f 283/337/505 291/345/510 285/339/514
f 86/89/515 292/346/516 293/347/517
f 292/346/516 86/89/518 87/91/511
f 82/84/519 286/340/507 285/339/520
f 286/340/507 82/84/521 90/96/522
f 289/343/523 291/345/510 290/344/513
f 291/345/510 289/343/524 292/346/508
f 293/347/525 289/343/523 288/342/526
f 289/343/524 293/347/525 292/346/516
f 81/82/527 285/339/514 291/345/510
f 285/339/514 81/82/527 82/84/528
f 90/96/522 294/348/529 286/340/530
f 294/348/529 90/96/522 89/94/531
f 89/94/532 293/347/533 294/348/529
f 293/347/533 89/94/532 86/89/534
f 286/340/535 287/341/536 284/338/506
f 287/341/537 286/340/535 294/348/529
f 294/348/529 288/342/538 287/341/539
f 288/342/526 294/348/529 293/347/533
f 297/351/540 296/350/541 295/349/542
f 296/350/543 297/351/540 298/352/544
f 300/354/1 296/350/1 299/353/1
f 296/350/1 300/354/1 295/349/1
f 295/349/1 300/354/1 301/355/1
f 295/349/1 301/355/1 302/356/1
f 304/358/545 99/106/546 303/357/547
f 99/106/546 304/358/548 105/115/549
f 303/357/547 295/349/550 302/356/551
f 295/349/542 303/357/552 297/351/540
f 104/113/553 304/358/554 305/359/555
f 304/358/548 104/113/553 105/115/549
f 100/108/556 298/352/557 297/351/540
f 298/352/544 100/108/556 108/120/558
f 301/355/559 303/357/547 302/356/551
f 303/357/552 301/355/560 304/358/548
f 305/359/555 301/355/559 300/354/561
f 301/355/562 305/359/555 304/358/548
f 99/106/546 297/351/540 303/357/547
f 297/351/540 99/106/546 100/108/556
f 108/120/558 306/360/563 298/352/544
f 306/360/563 108/120/558 107/118/564
f 107/118/565 305/359/555 306/360/566
f 305/359/555 107/118/565 104/113/553
f 298/352/544 299/353/567 296/350/543
f 299/353/568 298/352/557 306/360/563
f 306/360/566 300/354/569 299/353/568
f 300/354/561 306/360/563 305/359/555
f 309/363/570 308/362/571 307/361/572
f 308/362/571 309/363/570 310/364/573
f 312/366/1 308/362/1 311/365/1
f 308/362/1 312/366/1 307/361/1
f 307/361/1 312/366/1 313/367/1
f 307/361/1 313/367/1 314/368/1
f 316/370/574 117/130/575 315/369/576
f 117/130/577 316/370/574 123/139/578
f 315/369/576 307/361/579 314/368/580
f 307/361/579 315/369/576 309/363/570
f 122/137/581 316/370/574 317/371/582
f 316/370/574 122/137/583 123/139/584
f 118/132/585 310/364/573 309/363/570
f 310/364/573 118/132/586 126/144/587
f 313/367/588 315/369/576 314/368/589
f 315/369/576 313/367/588 316/370/574
f 317/371/582 313/367/590 312/366/591
f 313/367/590 317/371/582 316/370/574
f 117/130/575 309/363/570 315/369/576
f 309/363/570 117/130/577 118/132/586
f 126/144/592 318/372/593 310/364/573
f 318/372/593 126/144/594 125/142/595
f 125/142/596 317/371/582 318/372/593
f 317/371/582 125/142/595 122/137/583
f 310/364/573 311/365/597 308/362/598
f 311/365/597 310/364/573 318/372/593
f 318/372/593 312/366/599 311/365/600
f 312/366/599 318/372/593 317/371/582
f 321/375/601 320/374/602 319/373/603
f 320/374/602 321/375/601 322/376/604
f 324/378/1 320/374/1 323/377/1
f 320/374/1 324/378/1 319/373/1
f 319/373/1 324/378/1 325/379/1
f 319/373/1 325/379/1 326/380/1
f 328/382/605 135/154/606 327/381/607
f 135/154/608 328/382/609 141/163/610
f 327/381/611 319/373/612 326/380/613
f 319/373/612 327/381/611 321/375/601
f 140/161/614 328/382/615 329/383/616
f 328/382/617 140/161/618 141/163/610
f 136/156/619 322/376/620 321/375/621
f 322/376/622 136/156/623 144/168/624
f 325/379/625 327/381/626 326/380/613
f 327/381/611 325/379/625 328/382/617
f 329/383/627 325/379/628 324/378/629
f 325/379/628 329/383/627 328/382/609
f 135/154/630 321/375/621 327/381/607
f 321/375/601 135/154/631 136/156/632
f 144/168/633 330/384/634 322/376/635
f 330/384/636 144/168/624 143/166/637
f 143/166/638 329/383/616 330/384/634
f 329/383/627 143/166/639 140/161/640
f 322/376/622 323/377/641 320/374/642
f 323/377/641 322/376/622 330/384/636
f 330/384/636 324/378/643 323/377/641
f 324/378/643 330/384/636 329/383/627
f 333/387/644 332/386/645 331/385/646
f 332/386/645 333/387/647 334/388/648
f 336/390/1 332/386/1 335/389/1
f 332/386/1 336/390/1 331/385/1
f 331/385/1 336/390/1 337/391/1
f 331/385/1 337/391/1 338/392/1
f 340/394/649 153/178/650 339/393/651
f 153/178/650 340/394/652 159/187/653
f 339/393/651 331/385/646 338/392/654
f 331/385/646 339/393/655 333/387/647
f 158/185/656 340/394/649 341/395/657
f 340/394/658 158/185/656 159/187/653
f 154/180/659 334/388/660 333/387/644
f 334/388/661 154/180/659 162/192/662
f 337/391/663 339/393/664 338/392/654
f 339/393/655 337/391/663 340/394/665
f 341/395/657 337/391/663 336/390/666
f 337/391/663 341/395/667 340/394/665
f 153/178/650 333/387/644 339/393/651
f 333/387/644 153/178/650 154/180/659
f 162/192/662 342/396/668 334/388/660
f 342/396/669 162/192/662 161/190/670
f 161/190/670 341/395/657 342/396/668
f 341/395/657 161/190/670 158/185/656
f 334/388/671 335/389/672 332/386/645
f 335/389/672 334/388/648 342/396/673
f 342/396/668 336/390/666 335/389/672
f 336/390/666 342/396/674 341/395/667
f 345/399/675 344/398/676 343/397/677
f 344/398/678 345/399/675 346/400/679
f 348/402/1 344/398/1 347/401/1
f 344/398/1 348/402/1 343/397/1
f 343/397/1 348/402/1 349/403/1
f 343/397/1 349/403/1 350/404/1
f 352/406/680 171/202/681 351/405/682
f 171/202/681 352/406/680 177/211/683
f 351/405/682 343/397/684 350/404/685
f 343/397/684 351/405/682 345/399/675
f 176/209/686 352/406/680 353/407/687
f 352/406/680 176/209/686 177/211/683
f 172/204/688 346/400/679 345/399/675
f 346/400/679 172/204/688 180/216/689
f 349/403/690 351/405/682 350/404/685
f 351/405/682 349/403/691 352/406/680
f 353/407/687 349/403/690 348/402/692
f 349/403/691 353/407/687 352/406/680
f 171/202/681 345/399/675 351/405/682
f 345/399/675 171/202/681 172/204/688
f 180/216/689 354/408/693 346/400/679
f 354/408/694 180/216/689 179/214/695
f 179/214/695 353/407/687 354/408/694
f 353/407/687 179/214/695 176/209/686
f 346/400/679 347/401/696 344/398/697
f 347/401/698 346/400/679 354/408/694
f 354/408/694 348/402/699 347/401/698
f 348/402/692 354/408/694 353/407/687
f 357/411/700 356/410/701 355/409/702
f 356/410/703 357/411/704 358/412/705
f 360/414/1 356/410/1 359/413/1
f 356/410/1 360/414/1 355/409/1
f 355/409/1 360/414/1 361/415/1
f 355/409/1 361/415/1 362/416/1
f 364/418/706 189/226/707 363/417/708
f 189/226/707 364/418/706 195/235/709
f 363/417/708 355/409/702 362/416/710
f 355/409/702 363/417/708 357/411/700
f 194/233/711 364/418/706 365/419/712
f 364/418/706 194/233/711 195/235/709
f 190/228/713 358/412/705 357/411/700
f 358/412/705 190/228/713 198/240/714
f 361/415/715 363/417/708 362/416/716
f 363/417/708 361/415/715 364/418/706
f 365/419/712 361/415/715 360/414/717
f 361/415/718 365/419/719 364/418/706
f 189/226/707 357/411/704 363/417/708
f 357/411/704 189/226/707 190/228/713
f 198/240/714 366/420/720 358/412/705
f 366/420/720 198/240/714 197/238/721
f 197/238/721 365/419/719 366/420/720
f 365/419/719 197/238/721 194/233/711
f 358/412/705 359/413/722 356/410/703
f 359/413/722 358/412/705 366/420/720
f 366/420/720 360/414/717 359/413/723
f 360/414/717 366/420/720 365/419/712
f 369/423/724 368/422/725 367/421/726
f 368/422/725 369/423/727 370/424/728
f 372/426/1 368/422/1 371/425/1
f 368/422/1 372/426/1 367/421/1
f 367/421/1 372/426/1 373/427/1
f 367/421/1 373/427/1 374/428/1
f 376/430/729 207/250/730 375/429/731
f 207/250/730 376/430/729 213/259/732
f 375/429/731 367/421/726 374/428/733
f 367/421/734 375/429/731 369/423/727
f 212/257/735 376/430/736 377/431/737
f 376/430/736 212/257/735 213/259/732
f 208/252/738 370/424/739 369/423/724
f 370/424/739 208/252/738 216/264/740
f 373/427/741 375/429/731 374/428/733
f 375/429/731 373/427/741 376/430/729
f 377/431/737 373/427/742 372/426/743
f 373/427/742 377/431/744 376/430/729
f 207/250/730 369/423/727 375/429/731
f 369/423/727 207/250/730 208/252/738
f 216/264/740 378/432/745 370/424/728
f 378/432/745 216/264/740 215/262/746
f 215/262/746 377/431/744 378/432/745
f 377/431/744 215/262/746 212/257/735
f 370/424/728 371/425/747 368/422/748
f 371/425/747 370/424/728 378/432/745
f 378/432/745 372/426/743 371/425/749
f 372/426/750 378/432/745 377/431/744
f 381/435/751 380/434/752 379/433/753
f 380/434/752 381/435/751 382/436/754
f 384/438/1 380/434/1 383/437/1
f 380/434/1 384/438/1 379/433/1
f 379/433/1 384/438/1 385/439/1
f 379/433/1 385/439/1 386/440/1
f 388/442/755 225/274/756 387/441/757
f 225/274/756 388/442/755 231/283/758
f 387/441/757 379/433/759 386/440/760
f 379/433/759 387/441/757 381/435/751
f 230/281/761 388/442/762 389/443/763
f 388/442/762 230/281/761 231/283/758
f 226/276/764 382/436/754 381/435/751
f 382/436/754 226/276/764 234/288/765
f 385/439/766 387/441/757 386/440/767
f 387/441/757 385/439/766 388/442/762
f 389/443/763 385/439/766 384/438/768
f 385/439/766 389/443/763 388/442/762
f 225/274/756 381/435/769 387/441/757
f 381/435/769 225/274/756 226/276/764
f 234/288/765 390/444/770 382/436/754
f 390/444/770 234/288/765 233/286/771
f 233/286/771 389/443/763 390/444/770
f 389/443/763 233/286/771 230/281/761
f 382/436/754 383/437/772 380/434/752
f 383/437/772 382/436/754 390/444/770
f 390/444/770 384/438/773 383/437/772
f 384/438/773 390/444/770 389/443/763
