# Blender 3.3.1
# www.blender.org
o snowman
v 0.098569 0.016517 0.210784
v 0.067203 0.016517 0.223776
v 0.049121 0.102163 0.210784
v 0.033438 0.075000 0.223776
v -0.070257 0.137639 0.111888
v -0.140187 0.016517 0.111888
v -0.049775 0.102163 0.012992
v -0.099223 0.016517 0.012992
v 0.069603 -0.104606 0.111888
v -0.070257 -0.104606 0.111888
v 0.049121 -0.069130 0.210784
v -0.049775 -0.069130 0.210784
v -0.049775 0.102163 0.210784
v -0.099223 0.016517 0.210784
v 0.139533 0.016517 0.111888
v 0.033438 -0.041966 0.223776
v -0.034093 -0.041966 0.223776
v -0.034093 0.075000 0.223776
v -0.067858 0.016517 0.223776
v 0.069603 0.137639 0.111888
v 0.049121 0.102163 0.012992
v 0.098569 0.016517 0.012992
v 0.049121 -0.069130 0.012992
v -0.049775 -0.069130 0.012992
v 0.067203 0.016517 0.000000
v 0.033438 0.075000 0.000000
v 0.033438 -0.041966 -0.000000
v -0.034093 0.075000 0.000000
v -0.034093 -0.041966 -0.000000
v -0.067858 0.016517 0.000000
v 0.068504 0.016517 0.416720
v 0.046674 0.016517 0.425762
v 0.034088 0.076126 0.416720
v 0.023173 0.057221 0.425762
v 0.034088 -0.043093 0.279056
v 0.023173 -0.024188 0.270014
v -0.034743 -0.043093 0.279056
v -0.023828 -0.024188 0.270014
v 0.048344 -0.067785 0.347888
v -0.048999 -0.067785 0.347888
v 0.034088 -0.043093 0.416720
v -0.034743 -0.043093 0.416720
v 0.046674 0.016517 0.270014
v 0.023173 0.057221 0.270014
v -0.023828 0.057221 0.270014
v -0.047329 0.016517 0.270014
v 0.048344 0.100818 0.347888
v 0.097015 0.016517 0.347888
v 0.068504 0.016517 0.279056
v 0.023173 -0.024188 0.425762
v -0.023828 -0.024188 0.425762
v 0.034088 0.076127 0.279056
v -0.034743 0.076127 0.279056
v -0.048999 0.100818 0.347888
v -0.097670 0.016517 0.347888
v -0.069159 0.016517 0.279056
v -0.034743 0.076126 0.416720
v -0.069159 0.016517 0.416720
v -0.023828 0.057221 0.425762
v -0.047329 0.016517 0.425762
v 0.091735 0.016517 0.279950
v 0.062537 0.016517 0.292044
v 0.045704 0.096245 0.279950
v 0.031105 0.070958 0.292044
v 0.045704 -0.063212 0.095826
v 0.031105 -0.037925 0.083731
v -0.046359 -0.063212 0.095826
v -0.031759 -0.037925 0.083731
v -0.065425 0.129269 0.187888
v -0.130523 0.016517 0.187888
v -0.046359 0.096245 0.095826
v -0.092390 0.016517 0.095826
v 0.064770 -0.096236 0.187888
v -0.000327 -0.096236 0.187888
v 0.045704 -0.063212 0.279950
v -0.000327 -0.063212 0.279950
v -0.065425 -0.096236 0.187888
v -0.046359 -0.063212 0.279950
v -0.046359 0.096245 0.279950
v -0.092390 0.016517 0.279950
v 0.129868 0.016517 0.187888
v -0.063191 0.016517 0.083731
v 0.031105 -0.037925 0.292044
v -0.031759 -0.037925 0.292044
v -0.031759 0.070958 0.292044
v -0.063191 0.016517 0.292044
v 0.062537 0.016517 0.083731
v 0.031105 0.070959 0.083731
v -0.031759 0.070959 0.083731
v 0.064770 0.129269 0.187888
v 0.091735 0.016517 0.095826
v 0.045704 0.096245 0.095826
v -0.098878 -0.011768 0.202437
v -0.106199 -0.023483 0.229757
v -0.115348 -0.004114 0.205947
v -0.120688 -0.012659 0.225875
v -0.113136 0.016517 0.197693
v -0.095846 0.016517 0.191120
v -0.106199 0.056517 0.229757
v -0.120688 0.045693 0.225875
v -0.113519 0.044801 0.257078
v -0.126027 0.037147 0.245802
v -0.113519 -0.011768 0.257078
v -0.126027 -0.004114 0.245802
v -0.098878 0.044801 0.202437
v -0.052380 0.016517 0.202767
v -0.055412 0.044801 0.214083
v -0.116552 0.016517 0.268394
v -0.073085 0.016517 0.280041
v -0.070053 -0.011768 0.268724
v -0.055412 -0.011768 0.214083
v -0.062732 -0.023483 0.241404
v -0.070053 0.044801 0.268724
v -0.115348 0.037147 0.205947
v -0.128239 0.016517 0.254057
v -0.062732 0.056517 0.241404
v 0.098878 -0.011768 0.202437
v 0.106199 -0.023483 0.229757
v 0.115348 -0.004114 0.205947
v 0.120688 -0.012659 0.225875
v 0.113137 0.016517 0.197693
v 0.095846 0.016517 0.191120
v 0.106199 0.056517 0.229757
v 0.120688 0.045693 0.225875
v 0.113519 0.044801 0.257078
v 0.126027 0.037147 0.245802
v 0.113519 -0.011768 0.257078
v 0.126027 -0.004114 0.245802
v 0.098878 0.044801 0.202437
v 0.052380 0.016517 0.202767
v 0.055412 0.044801 0.214083
v 0.116552 0.016517 0.268394
v 0.073085 0.016517 0.280041
v 0.070053 -0.011768 0.268724
v 0.055412 -0.011768 0.214083
v 0.062732 -0.023483 0.241404
v 0.070053 0.044801 0.268724
v 0.115348 0.037147 0.205947
v 0.128239 0.016517 0.254057
v 0.062732 0.056517 0.241404
v -0.019844 -0.084123 0.376704
v -0.010085 -0.137639 0.366946
v -0.027927 -0.084123 0.357188
v -0.014127 -0.137639 0.357188
v -0.000327 -0.084123 0.384788
v -0.000327 -0.137639 0.370988
v -0.019844 -0.084123 0.337672
v -0.010085 -0.137639 0.347430
v -0.000327 -0.084123 0.329588
v -0.000327 -0.137639 0.343388
v 0.019189 -0.084123 0.337672
v 0.009431 -0.137639 0.347430
v 0.027273 -0.084123 0.357188
v 0.013473 -0.137639 0.357188
v 0.019189 -0.084123 0.376704
v 0.009431 -0.137639 0.366946
v -0.000327 -0.060359 0.377888
v -0.014965 -0.060359 0.371825
v 0.014310 -0.060359 0.371825
v -0.000327 -0.060359 0.336488
v 0.014310 -0.060359 0.342551
v -0.014965 -0.060359 0.342551
v -0.021027 -0.060359 0.357188
v 0.020373 -0.060359 0.357188
v 0.012441 -0.063593 0.246489
v 0.012441 -0.082146 0.246489
v -0.000327 -0.072870 0.253027
v -0.005204 -0.087880 0.214924
v -0.000327 -0.072870 0.208387
v -0.016110 -0.072870 0.214924
v -0.005204 -0.057859 0.246489
v 0.012441 -0.082146 0.214924
v 0.012441 -0.063593 0.214924
v -0.005204 -0.087880 0.246489
v -0.016110 -0.072870 0.246489
v -0.005204 -0.057859 0.214924
v 0.017730 -0.085989 0.230707
v 0.017730 -0.059750 0.230707
v -0.022647 -0.072870 0.230707
v -0.007225 -0.094097 0.230707
v -0.007225 -0.051642 0.230707
v -0.023561 -0.042696 0.395574
v -0.020309 -0.052703 0.399932
v -0.030831 -0.052703 0.395574
v -0.011797 -0.046518 0.395574
v -0.011797 -0.058887 0.395574
v -0.023561 -0.062709 0.395574
v -0.020309 -0.052703 0.370172
v -0.023561 -0.042696 0.374530
v -0.030831 -0.052703 0.374530
v -0.011797 -0.046518 0.374530
v -0.011797 -0.058887 0.374530
v -0.023561 -0.062709 0.374530
v -0.024907 -0.038551 0.385052
v -0.008271 -0.043956 0.385052
v -0.035189 -0.052703 0.385052
v -0.024907 -0.066854 0.385052
v -0.008271 -0.061449 0.385052
v 0.028167 -0.046518 0.395574
v 0.028167 -0.058887 0.395574
v 0.019654 -0.052703 0.399932
v 0.016403 -0.062709 0.395574
v 0.009133 -0.052703 0.395574
v 0.016403 -0.062709 0.374530
v 0.019654 -0.052703 0.370172
v 0.009133 -0.052703 0.374530
v 0.028167 -0.058887 0.374530
v 0.028167 -0.046518 0.374530
v 0.016403 -0.042696 0.395574
v 0.016403 -0.042696 0.374530
v 0.031693 -0.043956 0.385052
v 0.031693 -0.061449 0.385052
v 0.015056 -0.038551 0.385052
v 0.004774 -0.052703 0.385052
v 0.015056 -0.066854 0.385052
v -0.188456 0.028317 0.219933
v -0.182347 0.028317 0.197137
v -0.208894 0.028317 0.231733
v -0.194147 0.028317 0.176699
v -0.206242 0.028317 0.202951
v -0.220694 0.028317 0.211294
v -0.214586 0.028317 0.188499
v -0.206242 0.004717 0.202951
v -0.214586 0.004717 0.188499
v -0.208894 0.004717 0.231733
v -0.220694 0.004717 0.211294
v -0.120832 0.031267 0.241107
v -0.113196 0.031267 0.212612
v -0.182347 0.004717 0.197137
v -0.194147 0.004717 0.176699
v -0.188456 0.004717 0.219933
v -0.120832 0.001767 0.241107
v -0.113196 0.001767 0.212612
v 0.188456 0.028317 0.219933
v 0.182347 0.028317 0.197137
v 0.208894 0.028317 0.231733
v 0.194147 0.028317 0.176699
v 0.206242 0.028317 0.202951
v 0.220694 0.028317 0.211294
v 0.214586 0.028317 0.188499
v 0.206242 0.004717 0.202951
v 0.214586 0.004717 0.188499
v 0.208894 0.004717 0.231733
v 0.220694 0.004717 0.211294
v 0.120832 0.031267 0.241107
v 0.113196 0.031267 0.212612
v 0.182347 0.004717 0.197137
v 0.194147 0.004717 0.176699
v 0.188456 0.004717 0.219933
v 0.120832 0.001767 0.241107
v 0.113196 0.001767 0.212612
vn 0.3798 0.6579 0.6503
vn 0.3827 -0.0000 0.9239
vn 0.7597 -0.0000 0.6503
vn 0.1913 0.3314 0.9239
vn -0.3798 0.6579 -0.6503
vn -1.0000 -0.0000 -0.0000
vn -0.5000 0.8660 -0.0000
vn -0.7597 -0.0000 -0.6503
vn 0.3798 -0.6579 0.6503
vn -0.5000 -0.8660 -0.0000
vn 0.5000 -0.8660 -0.0000
vn 0.3799 -0.6579 0.6503
vn -0.3798 -0.6579 0.6503
vn -0.3798 0.6579 0.6503
vn -0.7597 -0.0000 0.6503
vn 1.0000 -0.0000 -0.0000
vn -0.0000 -0.0000 1.0000
vn 0.5000 0.8660 -0.0000
vn 0.1913 -0.3314 0.9239
vn -0.3799 -0.6579 0.6503
vn -0.1913 -0.3314 0.9239
vn -0.3799 0.6579 0.6503
vn 0.3799 0.6579 0.6503
vn -0.1913 0.3314 0.9239
vn -0.3827 -0.0000 0.9239
vn 0.3799 0.6579 -0.6503
vn 0.3798 0.6579 -0.6503
vn 0.7597 -0.0000 -0.6503
vn 0.3798 -0.6579 -0.6503
vn -0.3798 -0.6579 -0.6503
vn -0.3799 -0.6579 -0.6503
vn -0.0000 -0.0000 -1.0000
vn -0.3827 -0.0000 -0.9239
vn -0.1913 -0.3314 -0.9239
vn 0.1913 -0.3314 -0.9239
vn 0.3799 -0.6579 -0.6503
vn 0.1913 0.3314 -0.9239
vn -0.3799 0.6579 -0.6503
vn -0.1913 0.3314 -0.9239
vn 0.3827 -0.0000 -0.9239
vn -0.0000 -1.0000 -0.0000
vn -0.0000 -0.7421 0.6702
vn -0.4999 -0.8661 -0.0000
vn 0.4999 -0.8661 -0.0000
vn 0.2588 -0.0000 -0.9659
vn 0.1830 -0.7071 -0.6830
vn -0.0299 -0.0000 -0.9996
vn -0.1025 -0.6772 -0.7286
vn -0.0298 -0.0000 -0.9996
vn -0.4530 -0.6772 0.5797
vn -0.2777 -0.9578 -0.0744
vn -0.1830 -0.7071 0.6830
vn -0.4530 0.6772 0.5797
vn -0.1830 0.7071 0.6830
vn -0.2777 0.9578 -0.0744
vn -0.0000 1.0000 -0.0000
vn -0.2778 0.9578 -0.0744
vn -0.1025 0.6772 -0.7286
vn 0.1830 0.7071 -0.6830
vn -0.8154 -0.5361 -0.2185
vn -0.9135 -0.3791 0.1477
vn -0.7173 -0.3791 -0.5846
vn -0.7173 -0.3791 -0.5847
vn -0.6766 -0.0000 -0.7363
vn -0.9541 -0.0000 0.2994
vn -0.7173 0.3791 -0.5846
vn -0.9135 0.3791 0.1477
vn -0.7173 0.3791 -0.5847
vn -0.8154 0.5361 -0.2185
vn -0.1024 0.6772 -0.7286
vn -0.4530 -0.6772 0.5798
vn -0.5256 -0.0000 0.8507
vn -0.4530 0.6772 0.5798
vn -0.9542 -0.0000 0.2993
vn -0.2588 -0.0000 0.9659
vn -0.2778 -0.9578 -0.0744
vn -0.4530 -0.6773 0.5797
vn -0.1025 0.6773 -0.7286
vn -0.4530 0.6773 0.5797
vn -0.1024 -0.6772 -0.7286
vn -0.1025 -0.6773 -0.7286
vn 0.7173 -0.3791 -0.5847
vn 0.2777 -0.9578 -0.0744
vn 0.1024 -0.6772 -0.7286
vn 0.2778 -0.9578 -0.0744
vn 0.7173 -0.3791 -0.5846
vn 0.8154 -0.5361 -0.2185
vn 0.1025 -0.6773 -0.7286
vn 0.6766 -0.0000 -0.7363
vn 0.0298 -0.0000 -0.9996
vn 0.4530 0.6773 0.5797
vn 0.8154 0.5361 -0.2185
vn 0.2777 0.9578 -0.0744
vn 0.9135 0.3791 0.1477
vn 0.4530 -0.6773 0.5797
vn 0.4530 -0.6772 0.5798
vn 0.9135 -0.3791 0.1477
vn -0.2588 -0.0000 -0.9659
vn 0.1025 0.6773 -0.7286
vn 0.0299 -0.0000 -0.9996
vn -0.1830 0.7071 -0.6830
vn 0.2588 -0.0000 0.9659
vn 0.5256 -0.0000 0.8507
vn 0.1830 -0.7071 0.6830
vn 0.1025 -0.6772 -0.7286
vn -0.0001 -1.0000 -0.0000
vn -0.1830 -0.7071 -0.6830
vn 0.1830 0.7071 0.6830
vn 0.4530 0.6772 0.5797
vn 0.7173 0.3791 -0.5847
vn 0.7173 0.3791 -0.5846
vn 0.1024 0.6772 -0.7286
vn 0.4530 0.6772 0.5798
vn 0.9541 -0.0000 0.2994
vn 0.6766 -0.0002 -0.7363
vn 0.1025 0.6772 -0.7286
vn 0.2778 0.9578 -0.0744
vn 0.4530 -0.6772 0.5797
vn -0.9999 0.0142 -0.0000
vn -0.4890 -0.7223 0.4890
vn -0.7070 0.0142 0.7070
vn -0.6916 -0.7223 -0.0000
vn -0.0000 -0.7223 0.6916
vn -0.0000 0.0142 0.9999
vn -0.7071 0.0142 0.7070
vn -0.7070 0.0142 -0.7070
vn -0.4890 -0.7223 -0.4890
vn -0.0000 -0.7223 -0.6916
vn -0.0000 0.0142 -0.9999
vn 0.4890 -0.7223 -0.4890
vn 0.7070 0.0142 -0.7070
vn 0.6916 -0.7223 -0.0000
vn 0.9999 0.0142 -0.0000
vn 0.4890 -0.7223 0.4890
vn 0.7070 0.0142 0.7070
vn -0.6791 0.2789 0.6790
vn -0.0000 0.2788 0.9603
vn -0.6790 0.2788 0.6791
vn 0.6791 0.2788 0.6790
vn 0.7071 0.0142 0.7070
vn 0.6791 0.2789 0.6790
vn 0.6916 -0.7223 -0.0001
vn -0.6916 -0.7223 -0.0001
vn 0.6790 0.2789 0.6791
vn 0.9603 0.2788 -0.0000
vn 0.6790 0.2788 0.6791
vn 0.6790 0.2789 -0.6791
vn 0.6790 0.2788 -0.6791
vn -0.0000 0.2788 -0.9603
vn -0.0000 0.2789 -0.9603
vn -0.6791 0.2789 -0.6790
vn -0.9603 0.2789 -0.0000
vn -0.6790 0.2788 -0.6791
vn -0.9603 0.2788 -0.0000
vn 0.6791 0.2788 -0.6790
vn 0.6791 0.2789 -0.6790
vn -0.6790 0.2789 0.6791
vn 0.6210 -0.4512 0.6410
vn 0.6210 0.4512 0.6410
vn -0.7676 -0.0000 -0.6410
vn -0.2372 -0.7300 -0.6410
vn -0.2372 0.7300 0.6410
vn 0.6210 0.4511 0.6410
vn 0.6210 0.4512 -0.6410
vn 0.6210 -0.4512 -0.6410
vn -0.7676 -0.0000 0.6410
vn -0.2372 -0.7300 0.6410
vn -0.2372 0.7300 -0.6410
vn 0.6210 -0.4511 0.6410
vn 0.6210 0.4511 -0.6410
vn 0.6210 -0.4511 -0.6410
vn 0.8090 -0.5878 -0.0000
vn 0.8090 0.5878 -0.0000
vn -0.3090 -0.9510 -0.0000
vn -0.7675 -0.0000 0.6410
vn -0.3090 -0.9511 -0.0000
vn -0.3090 0.9511 -0.0000
vn 0.9659 -0.0000 0.2588
vn -0.0163 -0.9999 -0.0044
vn -0.0402 -0.9991 -0.0108
vn 0.5875 -0.0000 -0.8093
vn 0.2184 -0.0000 -0.9759
vn -0.5000 -0.0000 -0.8660
vn 0.5000 -0.0000 0.8660
vn 0.1041 -0.0000 0.9946
vn -0.2988 -0.0000 0.9543
vn 0.8660 -0.0000 -0.5000
vn 0.5875 -0.0000 -0.8092
vn -0.0163 0.9999 -0.0044
vn -0.0402 0.9991 -0.0108
vn -0.8660 -0.0000 0.5000
vn 0.0163 0.9999 -0.0044
vn 0.8660 -0.0000 0.5000
vn 0.0402 0.9991 -0.0108
vn -0.8660 -0.0000 -0.5000
vn -0.5875 -0.0000 -0.8092
vn 0.0163 -0.9999 -0.0044
vn 0.2988 -0.0000 0.9543
vn -0.1041 -0.0000 0.9946
vn -0.5000 -0.0000 0.8660
vn 0.5000 -0.0000 -0.8660
vn -0.5875 -0.0000 -0.8093
vn -0.2184 -0.0000 -0.9759
vn 0.0402 -0.9991 -0.0108
vn -0.9659 -0.0000 0.2588
vt 0.093750 0.213388
vt 0.093750 0.225000
vt 0.093750 0.213388
vt 0.093750 0.225000
vt 0.093750 0.125000
vt 0.093750 0.125000
vt 0.093750 0.036612
vt 0.093750 0.036612
vt 0.093750 0.125000
vt 0.093750 0.125000
vt 0.093750 0.213388
vt 0.093750 0.213388
vt 0.093750 0.213388
vt 0.093750 0.213388
vt 0.093750 0.125000
vt 0.093750 0.225000
vt 0.093750 0.225000
vt 0.093750 0.225000
vt 0.093750 0.225000
vt 0.093750 0.125000
vt 0.093750 0.036612
vt 0.093750 0.036612
vt 0.093750 0.036612
vt 0.093750 0.036612
vt 0.093750 0.025000
vt 0.093750 0.025000
vt 0.093750 0.025000
vt 0.093750 0.025000
vt 0.093750 0.025000
vt 0.093750 0.025000
vt 0.093750 0.213388
vt 0.093750 0.225000
vt 0.093750 0.213388
vt 0.093750 0.225000
vt 0.093750 0.036612
vt 0.093750 0.025000
vt 0.093750 0.036612
vt 0.093750 0.025000
vt 0.093750 0.125000
vt 0.093750 0.125000
vt 0.093750 0.213388
vt 0.093750 0.213388
vt 0.093750 0.025000
vt 0.093750 0.025000
vt 0.093750 0.025000
vt 0.093750 0.025000
vt 0.093750 0.125000
vt 0.093750 0.125000
vt 0.093750 0.036612
vt 0.093750 0.225000
vt 0.093750 0.225000
vt 0.093750 0.036612
vt 0.093750 0.036612
vt 0.093750 0.125000
vt 0.093750 0.125000
vt 0.093750 0.036612
vt 0.093750 0.213388
vt 0.093750 0.213388
vt 0.093750 0.225000
vt 0.093750 0.225000
vt 0.093750 0.119194
vt 0.093750 0.125000
vt 0.093750 0.119194
vt 0.093750 0.125000
vt 0.093750 0.030806
vt 0.093750 0.025000
vt 0.093750 0.030806
vt 0.093750 0.025000
vt 0.093750 0.075000
vt 0.093750 0.075000
vt 0.093750 0.030806
vt 0.093750 0.030806
vt 0.093750 0.075000
vt 0.093750 0.075000
vt 0.093750 0.119194
vt 0.093750 0.119194
vt 0.093750 0.075000
vt 0.093750 0.119194
vt 0.093750 0.119194
vt 0.093750 0.119194
vt 0.093750 0.075000
vt 0.093750 0.025000
vt 0.093750 0.125000
vt 0.093750 0.125000
vt 0.093750 0.125000
vt 0.093750 0.125000
vt 0.093750 0.025000
vt 0.093750 0.025000
vt 0.093750 0.025000
vt 0.093750 0.075000
vt 0.093750 0.030806
vt 0.093750 0.030806
vt 0.093750 0.089645
vt 0.093750 0.125000
vt 0.093750 0.099212
vt 0.093750 0.125000
vt 0.093750 0.088530
vt 0.093750 0.075000
vt 0.093750 0.125000
vt 0.093750 0.125000
vt 0.093750 0.160355
vt 0.093750 0.150788
vt 0.093750 0.160355
vt 0.093750 0.150788
vt 0.093750 0.089645
vt 0.093750 0.075000
vt 0.093750 0.089645
vt 0.093750 0.175000
vt 0.093750 0.175000
vt 0.093750 0.160355
vt 0.093750 0.089645
vt 0.093750 0.125000
vt 0.093750 0.160355
vt 0.093750 0.099212
vt 0.093750 0.161470
vt 0.093750 0.125000
vt 0.093750 0.089645
vt 0.093750 0.125000
vt 0.093750 0.099212
vt 0.093750 0.125000
vt 0.093750 0.088530
vt 0.093750 0.075000
vt 0.093750 0.125000
vt 0.093750 0.125000
vt 0.093750 0.160355
vt 0.093750 0.150788
vt 0.093750 0.160355
vt 0.093750 0.150788
vt 0.093750 0.089645
vt 0.093750 0.075000
vt 0.093750 0.089645
vt 0.093750 0.175000
vt 0.093750 0.175000
vt 0.093750 0.160355
vt 0.093750 0.089645
vt 0.093750 0.125000
vt 0.093750 0.160355
vt 0.093750 0.099212
vt 0.093750 0.161470
vt 0.093750 0.125000
vt 0.968750 0.445711
vt 0.968750 0.410355
vt 0.968750 0.375000
vt 0.968750 0.375000
vt 0.968750 0.475000
vt 0.968750 0.425000
vt 0.968750 0.304289
vt 0.968750 0.339645
vt 0.968750 0.275000
vt 0.968750 0.325000
vt 0.968750 0.304289
vt 0.968750 0.339645
vt 0.968750 0.375000
vt 0.968750 0.375000
vt 0.968750 0.445711
vt 0.968750 0.410355
vt 0.968750 0.450000
vt 0.968750 0.428033
vt 0.968750 0.428033
vt 0.968750 0.300000
vt 0.968750 0.321967
vt 0.968750 0.321967
vt 0.968750 0.375000
vt 0.968750 0.375000
vt 0.843750 0.195711
vt 0.843750 0.195711
vt 0.843750 0.225000
vt 0.843750 0.054289
vt 0.843750 0.025000
vt 0.843750 0.054289
vt 0.843750 0.195711
vt 0.843750 0.054289
vt 0.843750 0.054289
vt 0.843750 0.195711
vt 0.843750 0.195711
vt 0.843750 0.054289
vt 0.843750 0.125000
vt 0.843750 0.125000
vt 0.843750 0.125000
vt 0.843750 0.125000
vt 0.843750 0.125000
vt 0.843750 0.195711
vt 0.843750 0.225000
vt 0.843750 0.195711
vt 0.843750 0.195711
vt 0.843750 0.195711
vt 0.843750 0.195711
vt 0.843750 0.025000
vt 0.843750 0.054289
vt 0.843750 0.054289
vt 0.843750 0.054289
vt 0.843750 0.054289
vt 0.843750 0.054289
vt 0.843750 0.125000
vt 0.843750 0.125000
vt 0.843750 0.125000
vt 0.843750 0.125000
vt 0.843750 0.125000
vt 0.843750 0.195711
vt 0.843750 0.195711
vt 0.843750 0.225000
vt 0.843750 0.195711
vt 0.843750 0.195711
vt 0.843750 0.054289
vt 0.843750 0.025000
vt 0.843750 0.054289
vt 0.843750 0.054289
vt 0.843750 0.054289
vt 0.843750 0.195711
vt 0.843750 0.054289
vt 0.843750 0.125000
vt 0.843750 0.125000
vt 0.843750 0.125000
vt 0.843750 0.125000
vt 0.843750 0.125000
vt 0.218750 0.410925
vt 0.218750 0.410925
vt 0.218750 0.442962
vt 0.218750 0.442962
vt 0.218750 0.452346
vt 0.218750 0.475000
vt 0.218750 0.475000
vt 0.218750 0.452346
vt 0.218750 0.475000
vt 0.218750 0.442962
vt 0.218750 0.475000
vt 0.218750 0.275000
vt 0.218750 0.275000
vt 0.218750 0.410925
vt 0.218750 0.442962
vt 0.218750 0.410925
vt 0.218750 0.275000
vt 0.218750 0.275000
vt 0.218750 0.410925
vt 0.218750 0.410925
vt 0.218750 0.442962
vt 0.218750 0.442962
vt 0.218750 0.452346
vt 0.218750 0.475000
vt 0.218750 0.475000
vt 0.218750 0.452346
vt 0.218750 0.475000
vt 0.218750 0.442962
vt 0.218750 0.475000
vt 0.218750 0.275000
vt 0.218750 0.275000
vt 0.218750 0.410925
vt 0.218750 0.442962
vt 0.218750 0.410925
vt 0.218750 0.275000
vt 0.218750 0.275000
s 0
f 3/3/1 2/2/2 1/1/3
f 2/2/2 3/3/1 4/4/4
f 7/7/5 6/6/6 5/5/7
f 6/6/6 7/7/5 8/8/8
f 11/11/9 10/10/10 9/9/11
f 10/10/10 11/11/12 12/12/13
f 6/6/6 13/13/14 5/5/7
f 13/13/14 6/6/6 14/14/15
f 1/1/3 9/9/11 15/15/16
f 9/9/11 1/1/3 11/11/9
f 4/4/17 16/16/17 2/2/17
f 16/16/17 4/4/17 17/17/17
f 17/17/17 4/4/17 18/18/17
f 17/17/17 18/18/17 19/19/17
f 3/3/1 15/15/16 20/20/18
f 15/15/16 3/3/1 1/1/3
f 16/16/19 12/12/20 11/11/12
f 12/12/20 16/16/19 17/17/21
f 13/13/22 4/4/4 3/3/23
f 4/4/4 13/13/22 18/18/24
f 6/6/6 12/12/13 14/14/15
f 12/12/13 6/6/6 10/10/10
f 19/19/25 12/12/13 17/17/21
f 12/12/13 19/19/25 14/14/15
f 5/5/7 21/21/26 7/7/5
f 21/21/27 5/5/7 20/20/18
f 9/9/11 22/22/28 15/15/16
f 22/22/28 9/9/11 23/23/29
f 15/15/16 21/21/27 20/20/18
f 21/21/27 15/15/16 22/22/28
f 13/13/14 19/19/25 18/18/24
f 19/19/25 13/13/14 14/14/15
f 24/24/30 6/6/6 8/8/8
f 6/6/6 24/24/30 10/10/10
f 13/13/14 20/20/18 5/5/7
f 20/20/18 13/13/22 3/3/1
f 9/9/11 24/24/31 23/23/29
f 24/24/30 9/9/11 10/10/10
f 2/2/2 11/11/9 1/1/3
f 11/11/9 2/2/2 16/16/19
f 27/27/32 26/26/32 25/25/32
f 26/26/32 27/27/32 28/28/32
f 28/28/32 27/27/32 29/29/32
f 28/28/32 29/29/32 30/30/32
f 24/24/30 30/30/33 29/29/34
f 30/30/33 24/24/30 8/8/8
f 24/24/31 27/27/35 23/23/36
f 27/27/35 24/24/31 29/29/34
f 26/26/37 7/7/38 21/21/26
f 7/7/38 26/26/37 28/28/39
f 30/30/33 7/7/5 28/28/39
f 7/7/5 30/30/33 8/8/8
f 23/23/29 25/25/40 22/22/28
f 25/25/40 23/23/29 27/27/35
f 25/25/40 21/21/27 22/22/28
f 21/21/27 25/25/40 26/26/37
f 33/33/1 32/32/2 31/31/3
f 32/32/2 33/33/1 34/34/4
f 37/37/31 36/36/35 35/35/36
f 36/36/35 37/37/31 38/38/34
f 41/41/9 40/40/10 39/39/11
f 40/40/10 41/41/12 42/42/13
f 36/36/32 44/44/32 43/43/32
f 44/44/32 36/36/32 45/45/32
f 45/45/32 36/36/32 38/38/32
f 45/45/32 38/38/32 46/46/32
f 33/33/1 48/48/16 47/47/18
f 48/48/16 33/33/1 31/31/3
f 35/35/29 43/43/40 49/49/28
f 43/43/40 35/35/29 36/36/35
f 50/50/19 42/42/20 41/41/12
f 42/42/20 50/50/19 51/51/21
f 43/43/40 52/52/27 49/49/28
f 52/52/27 43/43/40 44/44/37
f 44/44/37 53/53/38 52/52/26
f 53/53/38 44/44/37 45/45/39
f 53/53/5 55/55/6 54/54/7
f 55/55/6 53/53/5 56/56/8
f 55/55/6 57/57/14 54/54/7
f 57/57/14 55/55/6 58/58/15
f 31/31/3 39/39/11 48/48/16
f 39/39/11 31/31/3 41/41/9
f 37/37/30 46/46/33 38/38/34
f 46/46/33 37/37/30 56/56/8
f 34/34/17 50/50/17 32/32/17
f 50/50/17 34/34/17 51/51/17
f 51/51/17 34/34/17 59/59/17
f 51/51/17 59/59/17 60/60/17
f 48/48/16 52/52/27 47/47/18
f 52/52/27 48/48/16 49/49/28
f 57/57/14 60/60/25 59/59/24
f 60/60/25 57/57/14 58/58/15
f 37/37/30 55/55/6 56/56/8
f 55/55/6 37/37/30 40/40/10
f 60/60/25 42/42/13 51/51/21
f 42/42/13 60/60/25 58/58/15
f 57/57/22 34/34/4 33/33/23
f 34/34/4 57/57/22 59/59/24
f 39/39/11 49/49/28 48/48/16
f 49/49/28 39/39/11 35/35/29
f 55/55/6 42/42/13 58/58/15
f 42/42/13 55/55/6 40/40/10
f 54/54/7 52/52/26 53/53/5
f 52/52/27 54/54/7 47/47/18
f 39/39/11 37/37/31 35/35/29
f 37/37/30 39/39/11 40/40/10
f 46/46/33 53/53/5 45/45/39
f 53/53/5 46/46/33 56/56/8
f 57/57/14 47/47/18 54/54/7
f 47/47/18 57/57/22 33/33/1
f 32/32/2 41/41/9 31/31/3
f 41/41/9 32/32/2 50/50/19
f 63/63/1 62/62/2 61/61/3
f 62/62/2 63/63/1 64/64/4
f 67/67/31 66/66/35 65/65/36
f 66/66/35 67/67/31 68/68/34
f 71/71/5 70/70/6 69/69/7
f 70/70/6 71/71/5 72/72/8
f 75/75/9 74/74/41 73/73/11
f 74/74/41 75/75/9 76/76/42
f 76/76/42 77/77/10 74/74/41
f 77/77/10 76/76/42 78/78/13
f 70/70/6 79/79/14 69/69/7
f 79/79/14 70/70/6 80/80/15
f 61/61/3 73/73/11 81/81/16
f 73/73/11 61/61/3 75/75/9
f 67/67/30 82/82/33 68/68/34
f 82/82/33 67/67/30 72/72/8
f 64/64/17 83/83/17 62/62/17
f 83/83/17 64/64/17 84/84/17
f 84/84/17 64/64/17 85/85/17
f 84/84/17 85/85/17 86/86/17
f 66/66/32 88/88/32 87/87/32
f 88/88/32 66/66/32 89/89/32
f 89/89/32 66/66/32 68/68/32
f 89/89/32 68/68/32 82/82/32
f 63/63/1 81/81/16 90/90/18
f 81/81/16 63/63/1 61/61/3
f 65/65/29 87/87/40 91/91/28
f 87/87/40 65/65/29 66/66/35
f 83/83/19 76/76/42 75/75/12
f 76/76/42 83/83/19 84/84/21
f 76/76/42 84/84/21 78/78/20
f 87/87/40 92/92/27 91/91/28
f 92/92/27 87/87/40 88/88/37
f 88/88/37 71/71/38 92/92/26
f 71/71/38 88/88/37 89/89/39
f 79/79/22 64/64/4 63/63/23
f 64/64/4 79/79/22 85/85/24
f 70/70/6 78/78/13 80/80/15
f 78/78/13 70/70/6 77/77/10
f 86/86/25 78/78/13 84/84/21
f 78/78/13 86/86/25 80/80/15
f 69/69/7 92/92/26 71/71/5
f 92/92/27 69/69/7 90/90/18
f 73/73/11 91/91/28 81/81/16
f 91/91/28 73/73/11 65/65/29
f 81/81/16 92/92/27 90/90/18
f 92/92/27 81/81/16 91/91/28
f 79/79/14 86/86/25 85/85/24
f 86/86/25 79/79/14 80/80/15
f 67/67/30 70/70/6 72/72/8
f 70/70/6 67/67/30 77/77/10
f 82/82/33 71/71/5 89/89/39
f 71/71/5 82/82/33 72/72/8
f 79/79/14 90/90/18 69/69/7
f 90/90/18 79/79/22 63/63/1
f 73/73/11 67/67/31 65/65/29
f 67/67/30 73/73/11 77/77/10
f 77/77/43 73/73/44 74/74/41
f 62/62/2 75/75/9 61/61/3
f 75/75/9 62/62/2 83/83/19
f 106/106/45 111/111/46 98/98/47
f 93/93/48 98/98/49 111/111/46
f 103/103/50 94/94/51 110/110/52
f 112/112/41 110/110/52 94/94/51
f 101/101/53 113/113/54 99/99/55
f 116/116/56 99/99/55 113/113/54
f 99/99/57 116/116/56 105/105/58
f 107/107/59 105/105/58 116/116/56
f 96/96/60 104/104/61 95/95/62
f 95/95/63 104/104/61 97/97/64
f 104/104/61 115/115/65 97/97/64
f 97/97/64 115/115/65 114/114/66
f 115/115/65 102/102/67 114/114/68
f 100/100/69 114/114/66 102/102/67
f 100/100/69 99/99/57 114/114/66
f 105/105/70 114/114/68 99/99/55
f 103/103/71 108/108/72 104/104/61
f 115/115/65 104/104/61 108/108/72
f 108/108/72 101/101/73 115/115/65
f 102/102/67 115/115/74 101/101/73
f 105/105/70 98/98/49 114/114/66
f 97/97/64 114/114/68 98/98/49
f 109/109/75 113/113/54 108/108/72
f 101/101/53 108/108/72 113/113/54
f 94/94/76 93/93/48 112/112/41
f 111/111/46 112/112/41 93/93/48
f 110/110/52 109/109/75 103/103/77
f 108/108/72 103/103/77 109/109/75
f 107/107/59 106/106/45 105/105/78
f 98/98/47 105/105/78 106/106/45
f 104/104/61 96/96/60 103/103/77
f 94/94/51 103/103/77 96/96/60
f 102/102/67 101/101/79 100/100/69
f 99/99/55 100/100/69 101/101/79
f 98/98/49 93/93/80 97/97/64
f 95/95/62 97/97/64 93/93/81
f 96/96/60 95/95/62 94/94/51
f 93/93/80 94/94/51 95/95/63
f 119/119/82 118/118/83 117/117/84
f 118/118/85 119/119/86 120/120/87
f 117/117/88 121/121/89 119/119/86
f 121/121/89 117/117/84 122/122/90
f 125/125/91 124/124/92 123/123/93
f 124/124/92 125/125/91 126/126/94
f 120/120/87 127/127/95 118/118/83
f 127/127/96 120/120/87 128/128/97
f 130/130/98 129/129/99 122/122/100
f 129/129/99 130/130/98 131/131/101
f 133/133/102 127/127/95 132/132/103
f 127/127/95 133/133/102 134/134/104
f 117/117/105 136/136/106 135/135/107
f 136/136/41 117/117/105 118/118/85
f 137/137/108 132/132/103 125/125/109
f 132/132/103 137/137/108 133/133/102
f 122/122/90 138/138/110 121/121/89
f 138/138/111 122/122/90 129/129/112
f 125/125/113 139/139/114 126/126/94
f 139/139/114 125/125/113 132/132/103
f 132/132/103 128/128/97 139/139/114
f 128/128/97 132/132/103 127/127/96
f 123/123/93 138/138/110 129/129/112
f 138/138/111 123/123/93 124/124/92
f 126/126/94 138/138/111 124/124/92
f 138/138/110 126/126/94 139/139/114
f 138/138/111 139/139/114 121/121/89
f 121/121/115 139/139/114 128/128/97
f 121/121/89 128/128/97 119/119/82
f 119/119/86 128/128/97 120/120/87
f 140/140/56 129/129/116 131/131/101
f 129/129/116 140/140/56 123/123/117
f 137/137/108 123/123/93 140/140/56
f 123/123/93 137/137/108 125/125/109
f 118/118/83 134/134/104 136/136/41
f 134/134/104 118/118/83 127/127/118
f 135/135/107 122/122/90 117/117/105
f 122/122/100 135/135/107 130/130/98
f 143/143/119 142/142/120 141/141/121
f 142/142/120 143/143/119 144/144/122
f 141/141/121 146/146/123 145/145/124
f 146/146/123 141/141/125 142/142/120
f 147/147/126 144/144/122 143/143/119
f 144/144/122 147/147/126 148/148/127
f 150/150/128 147/147/126 149/149/129
f 147/147/126 150/150/128 148/148/127
f 152/152/130 149/149/129 151/151/131
f 149/149/129 152/152/130 150/150/128
f 154/154/132 151/151/131 153/153/133
f 151/151/131 154/154/132 152/152/130
f 145/145/124 156/156/134 155/155/135
f 156/156/134 145/145/124 146/146/123
f 156/156/134 153/153/133 155/155/135
f 153/153/133 156/156/134 154/154/132
f 158/158/136 145/145/124 157/157/137
f 145/145/124 158/158/138 141/141/125
f 159/159/139 145/145/124 155/155/140
f 145/145/124 159/159/141 157/157/137
f 152/152/130 148/148/127 150/150/128
f 148/148/127 152/152/130 154/154/142
f 148/148/127 154/154/132 144/144/122
f 144/144/122 154/154/132 156/156/134
f 144/144/143 156/156/134 142/142/120
f 142/142/120 156/156/134 146/146/123
f 162/162/56 161/161/56 160/160/56
f 161/161/56 162/162/56 163/163/56
f 161/161/56 163/163/56 164/164/56
f 164/164/56 163/163/56 158/158/56
f 164/164/56 158/158/56 159/159/56
f 159/159/56 158/158/56 157/157/56
f 159/159/144 153/153/133 164/164/145
f 153/153/133 159/159/146 155/155/135
f 153/153/133 161/161/147 164/164/145
f 161/161/148 153/153/133 151/151/131
f 147/147/126 160/160/149 149/149/129
f 160/160/150 147/147/126 162/162/151
f 147/147/126 163/163/152 162/162/153
f 163/163/154 147/147/126 143/143/119
f 149/149/129 161/161/155 151/151/131
f 161/161/156 149/149/129 160/160/150
f 143/143/119 158/158/157 163/163/154
f 158/158/138 143/143/119 141/141/121
f 167/167/17 166/166/158 165/165/159
f 170/170/160 169/169/32 168/168/161
f 171/171/162 167/167/17 165/165/163
f 169/169/32 173/173/164 172/172/165
f 175/175/166 174/174/167 167/167/17
f 170/170/160 176/176/168 169/169/32
f 174/174/167 166/166/169 167/167/17
f 175/175/166 167/167/17 171/171/162
f 176/176/168 173/173/170 169/169/32
f 168/168/161 169/169/32 172/172/171
f 177/177/172 165/165/159 166/166/158
f 165/165/159 177/177/172 178/178/173
f 177/177/172 173/173/164 178/178/173
f 173/173/164 177/177/172 172/172/165
f 180/180/174 175/175/166 179/179/6
f 175/175/175 180/180/176 174/174/167
f 179/179/6 171/171/162 181/181/177
f 171/171/162 179/179/6 175/175/166
f 168/168/161 179/179/6 170/170/160
f 179/179/6 168/168/161 180/180/176
f 181/181/177 173/173/164 176/176/168
f 173/173/164 181/181/177 178/178/173
f 176/176/168 179/179/6 181/181/177
f 179/179/6 176/176/168 170/170/160
f 166/166/169 180/180/176 177/177/172
f 180/180/176 166/166/169 174/174/167
f 177/177/172 168/168/161 172/172/171
f 168/168/161 177/177/172 180/180/176
f 171/171/162 178/178/173 181/181/177
f 178/178/173 171/171/162 165/165/163
f 184/184/166 183/183/17 182/182/162
f 182/182/162 183/183/17 185/185/163
f 187/187/167 186/186/169 183/183/17
f 190/190/160 189/189/168 188/188/32
f 184/184/166 187/187/167 183/183/17
f 189/189/168 191/191/170 188/188/32
f 193/193/161 188/188/32 192/192/171
f 190/190/160 188/188/32 193/193/161
f 183/183/17 186/186/158 185/185/159
f 188/188/32 191/191/164 192/192/165
f 194/194/177 191/191/170 189/189/168
f 191/191/170 194/194/177 195/195/173
f 193/193/161 196/196/6 190/190/160
f 196/196/6 193/193/161 197/197/176
f 186/186/169 197/197/176 198/198/172
f 197/197/176 186/186/169 187/187/167
f 189/189/168 196/196/6 194/194/177
f 196/196/6 189/189/168 190/190/160
f 198/198/172 191/191/164 195/195/173
f 191/191/164 198/198/172 192/192/165
f 196/196/6 182/182/162 194/194/177
f 182/182/162 196/196/6 184/184/166
f 185/185/159 198/198/172 195/195/173
f 198/198/172 185/185/159 186/186/158
f 198/198/172 193/193/161 192/192/165
f 193/193/161 198/198/172 197/197/176
f 197/197/174 184/184/166 196/196/6
f 184/184/175 197/197/176 187/187/167
f 182/182/162 195/195/173 194/194/177
f 195/195/173 182/182/162 185/185/163
f 201/201/17 200/200/158 199/199/159
f 203/203/166 202/202/167 201/201/17
f 206/206/160 205/205/32 204/204/161
f 205/205/32 208/208/164 207/207/165
f 209/209/162 201/201/17 199/199/163
f 206/206/160 210/210/168 205/205/32
f 202/202/167 200/200/169 201/201/17
f 204/204/161 205/205/32 207/207/171
f 210/210/168 208/208/170 205/205/32
f 203/203/166 201/201/17 209/209/162
f 199/199/159 212/212/172 211/211/173
f 212/212/172 199/199/159 200/200/158
f 213/213/177 208/208/170 210/210/168
f 208/208/170 213/213/177 211/211/173
f 210/210/168 214/214/6 213/213/177
f 214/214/6 210/210/168 206/206/160
f 204/204/161 214/214/6 206/206/160
f 214/214/6 204/204/161 215/215/176
f 214/214/6 209/209/162 213/213/177
f 209/209/162 214/214/6 203/203/166
f 215/215/176 203/203/166 214/214/6
f 203/203/175 215/215/176 202/202/167
f 200/200/169 215/215/176 212/212/172
f 215/215/176 200/200/169 202/202/167
f 212/212/172 208/208/164 211/211/173
f 208/208/164 212/212/172 207/207/165
f 212/212/172 204/204/161 207/207/165
f 204/204/161 212/212/172 215/215/176
f 209/209/162 211/211/173 213/213/177
f 211/211/173 209/209/162 199/199/163
f 232/232/178 233/233/178 227/227/178
f 228/228/178 227/227/178 233/233/178
f 229/229/179 233/233/180 231/231/179
f 232/232/180 231/231/179 233/233/180
f 229/229/181 217/217/181 233/233/182
f 228/228/182 233/233/182 217/217/181
f 226/226/183 221/221/183 223/223/183
f 220/220/183 223/223/183 221/221/183
f 224/224/183 222/222/183 230/230/183
f 219/219/183 230/230/183 222/222/183
f 225/225/184 231/231/185 218/218/184
f 216/216/185 218/218/184 231/231/185
f 231/231/185 232/232/186 216/216/185
f 227/227/186 216/216/185 232/232/186
f 231/231/179 225/225/41 229/229/179
f 230/230/41 229/229/179 225/225/41
f 226/226/41 223/223/41 225/225/41
f 223/223/41 230/230/41 225/225/41
f 230/230/41 223/223/41 224/224/41
f 230/230/187 219/219/187 229/229/188
f 217/217/188 229/229/188 219/219/187
f 217/217/189 216/216/189 228/228/190
f 227/227/190 228/228/190 216/216/189
f 226/226/191 225/225/191 221/221/191
f 218/218/191 221/221/191 225/225/191
f 224/224/191 223/223/191 222/222/191
f 220/220/191 222/222/191 223/223/191
f 220/220/56 219/219/56 222/222/56
f 221/221/56 218/218/56 220/220/56
f 220/220/56 218/218/56 219/219/56
f 219/219/56 218/218/56 217/217/189
f 216/216/189 217/217/189 218/218/56
f 236/236/56 235/235/192 234/234/192
f 235/235/192 236/236/56 237/237/56
f 237/237/56 236/236/56 238/238/56
f 238/238/56 236/236/56 239/239/56
f 240/240/56 237/237/56 238/238/56
f 241/241/193 240/240/193 238/238/193
f 240/240/193 241/241/193 242/242/193
f 243/243/193 239/239/193 236/236/193
f 239/239/193 243/243/193 244/244/193
f 234/234/192 246/246/194 245/245/194
f 246/246/194 234/234/192 235/235/192
f 237/237/195 247/247/196 235/235/196
f 247/247/196 237/237/195 248/248/195
f 242/242/41 241/241/41 248/248/41
f 243/243/41 248/248/41 241/241/41
f 243/243/41 241/241/41 244/244/41
f 243/243/41 247/247/197 248/248/41
f 247/247/197 243/243/41 249/249/197
f 250/250/198 234/234/199 245/245/198
f 234/234/199 250/250/198 249/249/199
f 249/249/199 236/236/200 234/234/199
f 236/236/200 249/249/199 243/243/200
f 240/240/201 248/248/201 237/237/201
f 248/248/201 240/240/201 242/242/201
f 239/239/201 241/241/201 238/238/201
f 241/241/201 239/239/201 244/244/201
f 235/235/202 251/251/203 246/246/203
f 251/251/203 235/235/202 247/247/202
f 251/251/204 249/249/197 250/250/204
f 249/249/197 251/251/204 247/247/197
f 251/251/205 245/245/205 246/246/205
f 245/245/205 251/251/205 250/250/205
f 3/3/1 2/2/2 1/1/3
f 2/2/2 3/3/1 4/4/4
f 7/7/5 6/6/6 5/5/7
f 6/6/6 7/7/5 8/8/8
f 11/11/9 10/10/10 9/9/11
f 10/10/10 11/11/12 12/12/13
f 6/6/6 13/13/14 5/5/7
f 13/13/14 6/6/6 14/14/15
f 1/1/3 9/9/11 15/15/16
f 9/9/11 1/1/3 11/11/9
f 4/4/17 16/16/17 2/2/17
f 16/16/17 4/4/17 17/17/17
f 17/17/17 4/4/17 18/18/17
f 17/17/17 18/18/17 19/19/17
f 3/3/1 15/15/16 20/20/18
f 15/15/16 3/3/1 1/1/3
f 16/16/19 12/12/20 11/11/12
f 12/12/20 16/16/19 17/17/21
f 13/13/22 4/4/4 3/3/23
f 4/4/4 13/13/22 18/18/24
f 6/6/6 12/12/13 14/14/15
f 12/12/13 6/6/6 10/10/10
f 19/19/25 12/12/13 17/17/21
f 12/12/13 19/19/25 14/14/15
f 5/5/7 21/21/26 7/7/5
f 21/21/27 5/5/7 20/20/18
f 9/9/11 22/22/28 15/15/16
f 22/22/28 9/9/11 23/23/29
f 15/15/16 21/21/27 20/20/18
f 21/21/27 15/15/16 22/22/28
f 13/13/14 19/19/25 18/18/24
f 19/19/25 13/13/14 14/14/15
f 24/24/30 6/6/6 8/8/8
f 6/6/6 24/24/30 10/10/10
f 13/13/14 20/20/18 5/5/7
f 20/20/18 13/13/22 3/3/1
f 9/9/11 24/24/31 23/23/29
f 24/24/30 9/9/11 10/10/10
f 2/2/2 11/11/9 1/1/3
f 11/11/9 2/2/2 16/16/19
f 27/27/32 26/26/32 25/25/32
f 26/26/32 27/27/32 28/28/32
f 28/28/32 27/27/32 29/29/32
f 28/28/32 29/29/32 30/30/32
f 24/24/30 30/30/33 29/29/34
f 30/30/33 24/24/30 8/8/8
f 24/24/31 27/27/35 23/23/36
f 27/27/35 24/24/31 29/29/34
f 26/26/37 7/7/38 21/21/26
f 7/7/38 26/26/37 28/28/39
f 30/30/33 7/7/5 28/28/39
f 7/7/5 30/30/33 8/8/8
f 23/23/29 25/25/40 22/22/28
f 25/25/40 23/23/29 27/27/35
f 25/25/40 21/21/27 22/22/28
f 21/21/27 25/25/40 26/26/37
f 33/33/1 32/32/2 31/31/3
f 32/32/2 33/33/1 34/34/4
f 37/37/31 36/36/35 35/35/36
f 36/36/35 37/37/31 38/38/34
f 41/41/9 40/40/10 39/39/11
f 40/40/10 41/41/12 42/42/13
f 36/36/32 44/44/32 43/43/32
f 44/44/32 36/36/32 45/45/32
f 45/45/32 36/36/32 38/38/32
f 45/45/32 38/38/32 46/46/32
f 33/33/1 48/48/16 47/47/18
f 48/48/16 33/33/1 31/31/3
f 35/35/29 43/43/40 49/49/28
f 43/43/40 35/35/29 36/36/35
f 50/50/19 42/42/20 41/41/12
f 42/42/20 50/50/19 51/51/21
f 43/43/40 52/52/27 49/49/28
f 52/52/27 43/43/40 44/44/37
f 44/44/37 53/53/38 52/52/26
f 53/53/38 44/44/37 45/45/39
f 53/53/5 55/55/6 54/54/7
f 55/55/6 53/53/5 56/56/8
f 55/55/6 57/57/14 54/54/7
f 57/57/14 55/55/6 58/58/15
f 31/31/3 39/39/11 48/48/16
f 39/39/11 31/31/3 41/41/9
f 37/37/30 46/46/33 38/38/34
f 46/46/33 37/37/30 56/56/8
f 34/34/17 50/50/17 32/32/17
f 50/50/17 34/34/17 51/51/17
f 51/51/17 34/34/17 59/59/17
f 51/51/17 59/59/17 60/60/17
f 48/48/16 52/52/27 47/47/18
f 52/52/27 48/48/16 49/49/28
f 57/57/14 60/60/25 59/59/24
f 60/60/25 57/57/14 58/58/15
f 37/37/30 55/55/6 56/56/8
f 55/55/6 37/37/30 40/40/10
f 60/60/25 42/42/13 51/51/21
f 42/42/13 60/60/25 58/58/15
f 57/57/22 34/34/4 33/33/23
f 34/34/4 57/57/22 59/59/24
f 39/39/11 49/49/28 48/48/16
f 49/49/28 39/39/11 35/35/29
f 55/55/6 42/42/13 58/58/15
f 42/42/13 55/55/6 40/40/10
f 54/54/7 52/52/26 53/53/5
f 52/52/27 54/54/7 47/47/18
f 39/39/11 37/37/31 35/35/29
f 37/37/30 39/39/11 40/40/10
f 46/46/33 53/53/5 45/45/39
f 53/53/5 46/46/33 56/56/8
f 57/57/14 47/47/18 54/54/7
f 47/47/18 57/57/22 33/33/1
f 32/32/2 41/41/9 31/31/3
f 41/41/9 32/32/2 50/50/19
f 63/63/1 62/62/2 61/61/3
f 62/62/2 63/63/1 64/64/4
f 67/67/31 66/66/35 65/65/36
f 66/66/35 67/67/31 68/68/34
f 71/71/5 70/70/6 69/69/7
f 70/70/6 71/71/5 72/72/8
f 75/75/9 74/74/41 73/73/11
f 74/74/41 75/75/9 76/76/42
f 76/76/42 77/77/10 74/74/41
f 77/77/10 76/76/42 78/78/13
f 70/70/6 79/79/14 69/69/7
f 79/79/14 70/70/6 80/80/15
f 61/61/3 73/73/11 81/81/16
f 73/73/11 61/61/3 75/75/9
f 67/67/30 82/82/33 68/68/34
f 82/82/33 67/67/30 72/72/8
f 64/64/17 83/83/17 62/62/17
f 83/83/17 64/64/17 84/84/17
f 84/84/17 64/64/17 85/85/17
f 84/84/17 85/85/17 86/86/17
f 66/66/32 88/88/32 87/87/32
f 88/88/32 66/66/32 89/89/32
f 89/89/32 66/66/32 68/68/32
f 89/89/32 68/68/32 82/82/32
f 63/63/1 81/81/16 90/90/18
f 81/81/16 63/63/1 61/61/3
f 65/65/29 87/87/40 91/91/28
f 87/87/40 65/65/29 66/66/35
f 83/83/19 76/76/42 75/75/12
f 76/76/42 83/83/19 84/84/21
f 76/76/42 84/84/21 78/78/20
f 87/87/40 92/92/27 91/91/28
f 92/92/27 87/87/40 88/88/37
f 88/88/37 71/71/38 92/92/26
f 71/71/38 88/88/37 89/89/39
f 79/79/22 64/64/4 63/63/23
f 64/64/4 79/79/22 85/85/24
f 70/70/6 78/78/13 80/80/15
f 78/78/13 70/70/6 77/77/10
f 86/86/25 78/78/13 84/84/21
f 78/78/13 86/86/25 80/80/15
f 69/69/7 92/92/26 71/71/5
f 92/92/27 69/69/7 90/90/18
f 73/73/11 91/91/28 81/81/16
f 91/91/28 73/73/11 65/65/29
f 81/81/16 92/92/27 90/90/18
f 92/92/27 81/81/16 91/91/28
f 79/79/14 86/86/25 85/85/24
f 86/86/25 79/79/14 80/80/15
f 67/67/30 70/70/6 72/72/8
f 70/70/6 67/67/30 77/77/10
f 82/82/33 71/71/5 89/89/39
f 71/71/5 82/82/33 72/72/8
f 79/79/14 90/90/18 69/69/7
f 90/90/18 79/79/22 63/63/1
f 73/73/11 67/67/31 65/65/29
f 67/67/30 73/73/11 77/77/10
f 77/77/43 73/73/44 74/74/41
f 62/62/2 75/75/9 61/61/3
f 75/75/9 62/62/2 83/83/19
f 106/106/45 111/111/46 98/98/47
f 93/93/48 98/98/49 111/111/46
f 103/103/50 94/94/51 110/110/52
f 112/112/41 110/110/52 94/94/51
f 101/101/53 113/113/54 99/99/55
f 116/116/56 99/99/55 113/113/54
f 99/99/57 116/116/56 105/105/58
f 107/107/59 105/105/58 116/116/56
f 96/96/60 104/104/61 95/95/62
f 95/95/63 104/104/61 97/97/64
f 104/104/61 115/115/65 97/97/64
f 97/97/64 115/115/65 114/114/66
f 115/115/65 102/102/67 114/114/68
f 100/100/69 114/114/66 102/102/67
f 100/100/69 99/99/57 114/114/66
f 105/105/70 114/114/68 99/99/55
f 103/103/71 108/108/72 104/104/61
f 115/115/65 104/104/61 108/108/72
f 108/108/72 101/101/73 115/115/65
f 102/102/67 115/115/74 101/101/73
f 105/105/70 98/98/49 114/114/66
f 97/97/64 114/114/68 98/98/49
f 109/109/75 113/113/54 108/108/72
f 101/101/53 108/108/72 113/113/54
f 94/94/76 93/93/48 112/112/41
f 111/111/46 112/112/41 93/93/48
f 110/110/52 109/109/75 103/103/77
f 108/108/72 103/103/77 109/109/75
f 107/107/59 106/106/45 105/105/78
f 98/98/47 105/105/78 106/106/45
f 104/104/61 96/96/60 103/103/77
f 94/94/51 103/103/77 96/96/60
f 102/102/67 101/101/79 100/100/69
f 99/99/55 100/100/69 101/101/79
f 98/98/49 93/93/80 97/97/64
f 95/95/62 97/97/64 93/93/81
f 96/96/60 95/95/62 94/94/51
f 93/93/80 94/94/51 95/95/63
f 119/119/82 118/118/83 117/117/84
f 118/118/85 119/119/86 120/120/87
f 117/117/88 121/121/89 119/119/86
f 121/121/89 117/117/84 122/122/90
f 125/125/91 124/124/92 123/123/93
f 124/124/92 125/125/91 126/126/94
f 120/120/87 127/127/95 118/118/83
f 127/127/96 120/120/87 128/128/97
f 130/130/98 129/129/99 122/122/100
f 129/129/99 130/130/98 131/131/101
f 133/133/102 127/127/95 132/132/103
f 127/127/95 133/133/102 134/134/104
f 117/117/105 136/136/106 135/135/107
f 136/136/41 117/117/105 118/118/85
f 137/137/108 132/132/103 125/125/109
f 132/132/103 137/137/108 133/133/102
f 122/122/90 138/138/110 121/121/89
f 138/138/111 122/122/90 129/129/112
f 125/125/113 139/139/114 126/126/94
f 139/139/114 125/125/113 132/132/103
f 132/132/103 128/128/97 139/139/114
f 128/128/97 132/132/103 127/127/96
f 123/123/93 138/138/110 129/129/112
f 138/138/111 123/123/93 124/124/92
f 126/126/94 138/138/111 124/124/92
f 138/138/110 126/126/94 139/139/114
f 138/138/111 139/139/114 121/121/89
f 121/121/115 139/139/114 128/128/97
f 121/121/89 128/128/97 119/119/82
f 119/119/86 128/128/97 120/120/87
f 140/140/56 129/129/116 131/131/101
f 129/129/116 140/140/56 123/123/117
f 137/137/108 123/123/93 140/140/56
f 123/123/93 137/137/108 125/125/109
f 118/118/83 134/134/104 136/136/41
f 134/134/104 118/118/83 127/127/118
f 135/135/107 122/122/90 117/117/105
f 122/122/100 135/135/107 130/130/98
f 143/143/119 142/142/120 141/141/121
f 142/142/120 143/143/119 144/144/122
f 141/141/121 146/146/123 145/145/124
f 146/146/123 141/141/125 142/142/120
f 147/147/126 144/144/122 143/143/119
f 144/144/122 147/147/126 148/148/127
f 150/150/128 147/147/126 149/149/129
f 147/147/126 150/150/128 148/148/127
f 152/152/130 149/149/129 151/151/131
f 149/149/129 152/152/130 150/150/128
f 154/154/132 151/151/131 153/153/133
f 151/151/131 154/154/132 152/152/130
f 145/145/124 156/156/134 155/155/135
f 156/156/134 145/145/124 146/146/123
f 156/156/134 153/153/133 155/155/135
f 153/153/133 156/156/134 154/154/132
f 158/158/136 145/145/124 157/157/137
f 145/145/124 158/158/138 141/141/125
f 159/159/139 145/145/124 155/155/140
f 145/145/124 159/159/141 157/157/137
f 152/152/130 148/148/127 150/150/128
f 148/148/127 152/152/130 154/154/142
f 148/148/127 154/154/132 144/144/122
f 144/144/122 154/154/132 156/156/134
f 144/144/143 156/156/134 142/142/120
f 142/142/120 156/156/134 146/146/123
f 162/162/56 161/161/56 160/160/56
f 161/161/56 162/162/56 163/163/56
f 161/161/56 163/163/56 164/164/56
f 164/164/56 163/163/56 158/158/56
f 164/164/56 158/158/56 159/159/56
f 159/159/56 158/158/56 157/157/56
f 159/159/144 153/153/133 164/164/145
f 153/153/133 159/159/146 155/155/135
f 153/153/133 161/161/147 164/164/145
f 161/161/148 153/153/133 151/151/131
f 147/147/126 160/160/149 149/149/129
f 160/160/150 147/147/126 162/162/151
f 147/147/126 163/163/152 162/162/153
f 163/163/154 147/147/126 143/143/119
f 149/149/129 161/161/155 151/151/131
f 161/161/156 149/149/129 160/160/150
f 143/143/119 158/158/157 163/163/154
f 158/158/138 143/143/119 141/141/121
f 167/167/17 166/166/158 165/165/159
f 170/170/160 169/169/32 168/168/161
f 171/171/162 167/167/17 165/165/163
f 169/169/32 173/173/164 172/172/165
f 175/175/166 174/174/167 167/167/17
f 170/170/160 176/176/168 169/169/32
f 174/174/167 166/166/169 167/167/17
f 175/175/166 167/167/17 171/171/162
f 176/176/168 173/173/170 169/169/32
f 168/168/161 169/169/32 172/172/171
f 177/177/172 165/165/159 166/166/158
f 165/165/159 177/177/172 178/178/173
f 177/177/172 173/173/164 178/178/173
f 173/173/164 177/177/172 172/172/165
f 180/180/174 175/175/166 179/179/6
f 175/175/175 180/180/176 174/174/167
f 179/179/6 171/171/162 181/181/177
f 171/171/162 179/179/6 175/175/166
f 168/168/161 179/179/6 170/170/160
f 179/179/6 168/168/161 180/180/176
f 181/181/177 173/173/164 176/176/168
f 173/173/164 181/181/177 178/178/173
f 176/176/168 179/179/6 181/181/177
f 179/179/6 176/176/168 170/170/160
f 166/166/169 180/180/176 177/177/172
f 180/180/176 166/166/169 174/174/167
f 177/177/172 168/168/161 172/172/171
f 168/168/161 177/177/172 180/180/176
f 171/171/162 178/178/173 181/181/177
f 178/178/173 171/171/162 165/165/163
f 184/184/166 183/183/17 182/182/162
f 182/182/162 183/183/17 185/185/163
f 187/187/167 186/186/169 183/183/17
f 190/190/160 189/189/168 188/188/32
f 184/184/166 187/187/167 183/183/17
f 189/189/168 191/191/170 188/188/32
f 193/193/161 188/188/32 192/192/171
f 190/190/160 188/188/32 193/193/161
f 183/183/17 186/186/158 185/185/159
f 188/188/32 191/191/164 192/192/165
f 194/194/177 191/191/170 189/189/168
f 191/191/170 194/194/177 195/195/173
f 193/193/161 196/196/6 190/190/160
f 196/196/6 193/193/161 197/197/176
f 186/186/169 197/197/176 198/198/172
f 197/197/176 186/186/169 187/187/167
f 189/189/168 196/196/6 194/194/177
f 196/196/6 189/189/168 190/190/160
f 198/198/172 191/191/164 195/195/173
f 191/191/164 198/198/172 192/192/165
f 196/196/6 182/182/162 194/194/177
f 182/182/162 196/196/6 184/184/166
f 185/185/159 198/198/172 195/195/173
f 198/198/172 185/185/159 186/186/158
f 198/198/172 193/193/161 192/192/165
f 193/193/161 198/198/172 197/197/176
f 197/197/174 184/184/166 196/196/6
f 184/184/175 197/197/176 187/187/167
f 182/182/162 195/195/173 194/194/177
f 195/195/173 182/182/162 185/185/163
f 201/201/17 200/200/158 199/199/159
f 203/203/166 202/202/167 201/201/17
f 206/206/160 205/205/32 204/204/161
f 205/205/32 208/208/164 207/207/165
f 209/209/162 201/201/17 199/199/163
f 206/206/160 210/210/168 205/205/32
f 202/202/167 200/200/169 201/201/17
f 204/204/161 205/205/32 207/207/171
f 210/210/168 208/208/170 205/205/32
f 203/203/166 201/201/17 209/209/162
f 199/199/159 212/212/172 211/211/173
f 212/212/172 199/199/159 200/200/158
f 213/213/177 208/208/170 210/210/168
f 208/208/170 213/213/177 211/211/173
f 210/210/168 214/214/6 213/213/177
f 214/214/6 210/210/168 206/206/160
f 204/204/161 214/214/6 206/206/160
f 214/214/6 204/204/161 215/215/176
f 214/214/6 209/209/162 213/213/177
f 209/209/162 214/214/6 203/203/166
f 215/215/176 203/203/166 214/214/6
f 203/203/175 215/215/176 202/202/167
f 200/200/169 215/215/176 212/212/172
f 215/215/176 200/200/169 202/202/167
f 212/212/172 208/208/164 211/211/173
f 208/208/164 212/212/172 207/207/165
f 212/212/172 204/204/161 207/207/165
f 204/204/161 212/212/172 215/215/176
f 209/209/162 211/211/173 213/213/177
f 211/211/173 209/209/162 199/199/163
f 232/232/178 233/233/178 227/227/178
f 228/228/178 227/227/178 233/233/178
f 229/229/179 233/233/180 231/231/179
f 232/232/180 231/231/179 233/233/180
f 229/229/181 217/217/181 233/233/182
f 228/228/182 233/233/182 217/217/181
f 226/226/183 221/221/183 223/223/183
f 220/220/183 223/223/183 221/221/183
f 224/224/183 222/222/183 230/230/183
f 219/219/183 230/230/183 222/222/183
f 225/225/184 231/231/185 218/218/184
f 216/216/185 218/218/184 231/231/185
f 231/231/185 232/232/186 216/216/185
f 227/227/186 216/216/185 232/232/186
f 231/231/179 225/225/41 229/229/179
f 230/230/41 229/229/179 225/225/41
f 226/226/41 223/223/41 225/225/41
f 223/223/41 230/230/41 225/225/41
f 230/230/41 223/223/41 224/224/41
f 230/230/187 219/219/187 229/229/188
f 217/217/188 229/229/188 219/219/187
f 217/217/189 216/216/189 228/228/190
f 227/227/190 228/228/190 216/216/189
f 226/226/191 225/225/191 221/221/191
f 218/218/191 221/221/191 225/225/191
f 224/224/191 223/223/191 222/222/191
f 220/220/191 222/222/191 223/223/191
f 220/220/56 219/219/56 222/222/56
f 221/221/56 218/218/56 220/220/56
f 220/220/56 218/218/56 219/219/56
f 219/219/56 218/218/56 217/217/189
f 216/216/189 217/217/189 218/218/56
f 236/236/56 235/235/192 234/234/192
f 235/235/192 236/236/56 237/237/56
f 237/237/56 236/236/56 238/238/56
f 238/238/56 236/236/56 239/239/56
f 240/240/56 237/237/56 238/238/56
f 241/241/193 240/240/193 238/238/193
f 240/240/193 241/241/193 242/242/193
f 243/243/193 239/239/193 236/236/193
f 239/239/193 243/243/193 244/244/193
f 234/234/192 246/246/194 245/245/194
f 246/246/194 234/234/192 235/235/192
f 237/237/195 247/247/196 235/235/196
f 247/247/196 237/237/195 248/248/195
f 242/242/41 241/241/41 248/248/41
f 243/243/41 248/248/41 241/241/41
f 243/243/41 241/241/41 244/244/41
f 243/243/41 247/247/197 248/248/41
f 247/247/197 243/243/41 249/249/197
f 250/250/198 234/234/199 245/245/198
f 234/234/199 250/250/198 249/249/199
f 249/249/199 236/236/200 234/234/199
f 236/236/200 249/249/199 243/243/200
f 240/240/201 248/248/201 237/237/201
f 248/248/201 240/240/201 242/242/201
f 239/239/201 241/241/201 238/238/201
f 241/241/201 239/239/201 244/244/201
f 235/235/202 251/251/203 246/246/203
f 251/251/203 235/235/202 247/247/202
f 251/251/204 249/249/197 250/250/204
f 249/249/197 251/251/204 247/247/197
f 251/251/205 245/245/205 246/246/205
f 245/245/205 251/251/205 250/250/205
