# Blender 3.3.1
# www.blender.org
o snow-flat
v 0.265869 -0.063331 -0.000000
v 0.213277 -0.108289 -0.000000
v 0.212695 -0.050665 0.030000
v 0.170621 -0.086631 0.030000
v -0.157163 -0.172422 0.030000
v -0.196454 -0.215528 -0.000000
v -0.187674 -0.158278 0.030000
v -0.234592 -0.197848 -0.000000
v -0.254354 -0.151639 -0.000000
v -0.210846 -0.076574 -0.000000
v -0.173676 0.154704 0.000000
v -0.123265 -0.201208 -0.000000
v -0.268655 0.098050 0.000000
v -0.278507 0.013982 0.000000
v -0.107550 0.217195 0.000000
v -0.051927 -0.217195 -0.000000
v 0.006194 0.194872 0.000000
v 0.038014 -0.199308 -0.000000
v 0.076346 0.203155 0.000000
v 0.125884 0.182508 0.000000
v 0.149241 -0.119900 -0.000000
v 0.158462 0.139858 0.000000
v 0.178945 0.109970 0.000000
v 0.213277 0.089703 0.000000
v 0.248693 0.067129 0.000000
v 0.278507 0.004694 0.000000
v 0.030411 -0.159447 0.030000
v -0.041541 -0.173756 0.030000
v 0.061077 0.162524 0.030000
v 0.004956 0.155897 0.030000
v -0.098612 -0.160966 0.030000
v -0.138941 0.123763 0.030000
v -0.214924 0.078440 0.030000
v -0.086040 0.173756 0.030000
v 0.100707 0.146006 0.030000
v 0.119393 -0.095920 0.030000
v 0.143156 0.087976 0.030000
v 0.126770 0.111886 0.030000
v -0.168677 -0.061259 0.030000
v -0.203483 -0.121311 0.030000
v -0.222806 0.011186 0.030000
v 0.222806 0.003755 0.030000
v 0.198955 0.053704 0.030000
v 0.170621 0.071763 0.030000
vn 0.4187 -0.2847 0.8623
vn 0.2980 -0.5210 0.7998
vn 0.4367 -0.2280 0.8702
vn 0.2148 -0.6210 0.7538
vn -0.4367 0.2280 -0.8702
vn -0.2980 0.5210 -0.7998
vn -0.4187 0.2847 -0.8623
vn -0.2148 0.6210 -0.7538
vn -0.3098 -0.3133 0.8977
vn -0.1051 -0.5018 0.8586
vn 0.0104 -0.5775 0.8163
vn -0.3189 -0.3028 0.8981
vn -0.0104 0.5776 -0.8163
vn 0.1051 0.5018 -0.8586
vn 0.3098 0.3133 -0.8977
vn 0.3189 0.3028 -0.8981
vn -0.0000 -0.0000 -1.0000
vn -0.0000 -0.0000 1.0000
vn 0.2561 -0.5496 0.7952
vn -0.0187 -0.5651 0.8248
vn 0.2277 -0.5574 0.7984
vn -0.0187 -0.5652 0.8248
vn 0.2562 -0.5496 0.7952
vn 0.0096 -0.5698 0.8217
vn -0.2276 0.5569 -0.7988
vn 0.0187 0.5652 -0.8248
vn -0.2561 0.5496 -0.7952
vn -0.0096 0.5698 -0.8217
vn -0.2562 0.5496 -0.7952
vn 0.0187 0.5651 -0.8248
vn 0.0236 0.6093 0.7926
vn 0.0595 0.5784 0.8136
vn 0.0936 0.5684 0.8174
vn 0.0594 0.5784 0.8136
vn 0.0230 0.6093 0.7926
vn -0.0936 -0.5684 -0.8174
vn -0.0595 -0.5784 -0.8136
vn -0.0236 -0.6093 -0.7926
vn -0.0230 -0.6093 -0.7926
vn -0.0594 -0.5784 -0.8136
vn 0.0335 -0.6105 0.7913
vn -0.0375 -0.5824 0.8120
vn 0.0104 -0.5776 0.8163
vn 0.0375 0.5824 -0.8120
vn -0.0335 0.6105 -0.7913
vn 0.1051 0.5017 -0.8586
vn -0.0104 0.5775 -0.8163
vn -0.3264 0.4431 0.8349
vn -0.3805 0.2972 0.8757
vn -0.3355 0.4340 0.8361
vn -0.4052 0.2394 0.8823
vn 0.3355 -0.4340 -0.8361
vn 0.3805 -0.2972 -0.8757
vn 0.3264 -0.4431 -0.8349
vn 0.4052 -0.2394 -0.8823
vn -0.1639 0.5044 0.8478
vn -0.1133 0.5260 0.8429
vn 0.1133 -0.5260 -0.8429
vn 0.1639 -0.5044 -0.8478
vn 0.3466 0.4413 0.8278
vn 0.3397 0.4462 0.8280
vn 0.3466 0.4413 0.8277
vn -0.3397 -0.4462 -0.8280
vn -0.3465 -0.4413 -0.8278
vn -0.3466 -0.4413 -0.8278
vn 0.0184 0.5641 -0.8255
vn 0.2148 -0.6211 0.7538
vn 0.2243 -0.6401 0.7348
vn 0.2830 -0.5919 0.7547
vn -0.2243 0.6401 -0.7348
vn -0.2148 0.6211 -0.7538
vn -0.2830 0.5919 -0.7547
vn 0.4698 0.3410 0.8142
vn 0.4157 0.4223 0.8055
vn 0.3932 0.4521 0.8006
vn 0.4708 0.3398 0.8142
vn -0.3932 -0.4521 -0.8006
vn -0.4157 -0.4223 -0.8055
vn -0.4698 -0.3410 -0.8142
vn -0.4708 -0.3398 -0.8142
vn -0.4698 -0.3410 -0.8143
vn -0.5913 0.0518 0.8047
vn -0.5734 0.1688 0.8017
vn -0.5623 -0.0665 0.8243
vn -0.5913 0.0518 0.8048
vn -0.4966 -0.0253 0.8676
vn 0.5623 0.0665 -0.8243
vn 0.5734 -0.1688 -0.8017
vn 0.5914 -0.0518 -0.8047
vn 0.4966 0.0253 -0.8676
vn -0.4737 -0.1755 0.8631
vn -0.4736 -0.1755 0.8631
vn -0.4757 -0.1027 0.8736
vn 0.4736 0.1755 -0.8631
vn 0.4757 0.1027 -0.8736
vn 0.4739 0.1755 -0.8629
vn 0.5913 -0.0518 -0.8048
vn 0.4719 0.0749 0.8785
vn 0.4728 0.0547 0.8795
vn -0.4728 -0.0547 -0.8795
vn -0.4367 0.2280 -0.8703
vn -0.4719 -0.0749 -0.8785
vn 0.3283 0.5285 0.7829
vn 0.3878 0.4090 0.8260
vn 0.4202 0.3311 0.8449
vn 0.3240 0.5347 0.7804
vn -0.4202 -0.3311 -0.8449
vn -0.3878 -0.4090 -0.8260
vn -0.3283 -0.5285 -0.7829
vn -0.3240 -0.5347 -0.7804
vn 0.4157 0.4224 0.8055
vn -0.4157 -0.4224 -0.8055
vn -0.2277 0.5574 -0.7984
vn 0.4728 0.0546 0.8795
vn -0.4728 -0.0546 -0.8795
vn 0.4053 -0.2394 -0.8823
vn 0.4737 0.1755 -0.8631
vt 0.093750 0.025000
vt 0.093750 0.025000
vt 0.093750 0.225000
vt 0.093750 0.225000
vt 0.093750 0.225000
vt 0.093750 0.025000
vt 0.093750 0.225000
vt 0.093750 0.025000
vt 0.093750 0.025000
vt 0.093750 0.025000
vt 0.093750 0.025000
vt 0.093750 0.025000
vt 0.093750 0.025000
vt 0.093750 0.025000
vt 0.093750 0.025000
vt 0.093750 0.025000
vt 0.093750 0.025000
vt 0.093750 0.025000
vt 0.093750 0.025000
vt 0.093750 0.025000
vt 0.093750 0.025000
vt 0.093750 0.025000
vt 0.093750 0.025000
vt 0.093750 0.025000
vt 0.093750 0.025000
vt 0.093750 0.025000
vt 0.093750 0.225000
vt 0.093750 0.225000
vt 0.093750 0.225000
vt 0.093750 0.225000
vt 0.093750 0.225000
vt 0.093750 0.225000
vt 0.093750 0.225000
vt 0.093750 0.225000
vt 0.093750 0.225000
vt 0.093750 0.225000
vt 0.093750 0.225000
vt 0.093750 0.225000
vt 0.093750 0.225000
vt 0.093750 0.225000
vt 0.093750 0.225000
vt 0.093750 0.225000
vt 0.093750 0.225000
vt 0.093750 0.225000
s 0
f 3/3/1 2/2/2 1/1/3
f 2/2/2 3/3/1 4/4/4
f 1/1/5 2/2/6 3/3/7
f 4/4/8 3/3/7 2/2/6
f 7/7/9 6/6/10 5/5/11
f 6/6/10 7/7/9 8/8/12
f 5/5/13 6/6/14 7/7/15
f 8/8/16 7/7/15 6/6/14
f 10/10/17 8/8/17 9/9/17
f 8/8/17 10/10/17 6/6/17
f 11/11/17 6/6/17 10/10/17
f 11/11/17 12/12/17 6/6/17
f 11/11/17 10/10/17 13/13/17
f 13/13/17 10/10/17 14/14/17
f 15/15/17 12/12/17 11/11/17
f 15/15/17 16/16/17 12/12/17
f 17/17/17 16/16/17 15/15/17
f 17/17/17 18/18/17 16/16/17
f 19/19/17 18/18/17 17/17/17
f 20/20/17 18/18/17 19/19/17
f 20/20/17 21/21/17 18/18/17
f 22/22/17 21/21/17 20/20/17
f 23/23/17 21/21/17 22/22/17
f 23/23/17 2/2/17 21/21/17
f 24/24/17 2/2/17 23/23/17
f 25/25/17 2/2/17 24/24/17
f 25/25/17 1/1/17 2/2/17
f 1/1/17 25/25/17 26/26/17
f 9/9/18 8/8/18 10/10/18
f 6/6/18 10/10/18 8/8/18
f 10/10/18 6/6/18 11/11/18
f 6/6/18 12/12/18 11/11/18
f 13/13/18 10/10/18 11/11/18
f 14/14/18 10/10/18 13/13/18
f 11/11/18 12/12/18 15/15/18
f 12/12/18 16/16/18 15/15/18
f 15/15/18 16/16/18 17/17/18
f 16/16/18 18/18/18 17/17/18
f 17/17/18 18/18/18 19/19/18
f 19/19/18 18/18/18 20/20/18
f 18/18/18 21/21/18 20/20/18
f 20/20/18 21/21/18 22/22/18
f 22/22/18 21/21/18 23/23/18
f 21/21/18 2/2/18 23/23/18
f 23/23/18 2/2/18 24/24/18
f 24/24/18 2/2/18 25/25/18
f 2/2/18 1/1/18 25/25/18
f 26/26/18 25/25/18 1/1/18
f 27/27/19 16/16/20 18/18/21
f 16/16/22 27/27/23 28/28/24
f 18/18/25 16/16/26 27/27/27
f 28/28/28 27/27/29 16/16/30
f 17/17/31 29/29/32 19/19/33
f 29/29/34 17/17/31 30/30/35
f 19/19/36 29/29/37 17/17/38
f 30/30/39 17/17/38 29/29/40
f 5/5/11 12/12/41 31/31/42
f 12/12/41 5/5/43 6/6/10
f 31/31/44 12/12/45 5/5/13
f 6/6/46 5/5/47 12/12/45
f 11/11/48 33/33/49 32/32/50
f 33/33/49 11/11/48 13/13/51
f 32/32/52 33/33/53 11/11/54
f 13/13/55 11/11/54 33/33/53
f 15/15/56 32/32/50 34/34/57
f 32/32/50 15/15/56 11/11/48
f 34/34/58 32/32/52 15/15/59
f 11/11/54 15/15/59 32/32/52
f 19/19/33 35/35/60 20/20/61
f 35/35/62 19/19/33 29/29/32
f 20/20/63 35/35/64 19/19/36
f 29/29/37 19/19/36 35/35/65
f 15/15/56 30/30/35 17/17/31
f 30/30/35 15/15/56 34/34/57
f 17/17/38 30/30/39 15/15/59
f 34/34/58 15/15/59 30/30/39
f 31/31/42 16/16/22 28/28/24
f 16/16/22 31/31/42 12/12/41
f 28/28/28 16/16/26 31/31/44
f 12/12/45 31/31/44 16/16/66
f 4/4/67 21/21/68 2/2/2
f 21/21/68 4/4/67 36/36/69
f 2/2/6 21/21/70 4/4/71
f 36/36/72 4/4/71 21/21/70
f 22/22/73 37/37/74 23/23/75
f 37/37/74 22/22/73 38/38/76
f 23/23/77 37/37/78 22/22/79
f 38/38/80 22/22/81 37/37/78
f 10/10/82 40/40/83 39/39/84
f 40/40/83 10/10/85 9/9/86
f 39/39/87 40/40/88 10/10/89
f 9/9/90 10/10/89 40/40/88
f 41/41/91 10/10/85 39/39/84
f 10/10/85 41/41/92 14/14/93
f 39/39/87 10/10/89 41/41/94
f 14/14/95 41/41/96 10/10/97
f 42/42/98 1/1/3 26/26/99
f 1/1/3 42/42/98 3/3/1
f 26/26/100 1/1/101 42/42/102
f 3/3/7 42/42/102 1/1/101
f 24/24/103 43/43/104 25/25/105
f 43/43/104 24/24/103 44/44/106
f 25/25/107 43/43/108 24/24/109
f 44/44/110 24/24/109 43/43/108
f 40/40/83 8/8/12 7/7/9
f 8/8/12 40/40/83 9/9/86
f 7/7/15 8/8/16 40/40/88
f 9/9/90 40/40/88 8/8/16
f 20/20/61 38/38/76 22/22/73
f 38/38/76 20/20/61 35/35/62
f 22/22/79 38/38/80 20/20/63
f 35/35/65 20/20/63 38/38/80
f 43/43/18 3/3/18 42/42/18
f 3/3/18 43/43/18 4/4/18
f 4/4/18 43/43/18 44/44/18
f 4/4/18 44/44/18 37/37/18
f 4/4/18 37/37/18 36/36/18
f 36/36/18 37/37/18 38/38/18
f 36/36/18 38/38/18 35/35/18
f 36/36/18 35/35/18 27/27/18
f 27/27/18 35/35/18 29/29/18
f 27/27/18 29/29/18 30/30/18
f 27/27/18 30/30/18 28/28/18
f 28/28/18 30/30/18 34/34/18
f 28/28/18 34/34/18 31/31/18
f 31/31/18 34/34/18 32/32/18
f 31/31/18 32/32/18 5/5/18
f 5/5/18 32/32/18 39/39/18
f 39/39/18 32/32/18 33/33/18
f 39/39/18 33/33/18 41/41/18
f 39/39/18 7/7/18 5/5/18
f 7/7/18 39/39/18 40/40/18
f 42/42/17 3/3/17 43/43/17
f 4/4/17 43/43/17 3/3/17
f 44/44/17 43/43/17 4/4/17
f 37/37/17 44/44/17 4/4/17
f 36/36/17 37/37/17 4/4/17
f 38/38/17 37/37/17 36/36/17
f 35/35/17 38/38/17 36/36/17
f 27/27/17 35/35/17 36/36/17
f 29/29/17 35/35/17 27/27/17
f 30/30/17 29/29/17 27/27/17
f 28/28/17 30/30/17 27/27/17
f 34/34/17 30/30/17 28/28/17
f 31/31/17 34/34/17 28/28/17
f 32/32/17 34/34/17 31/31/17
f 5/5/17 32/32/17 31/31/17
f 39/39/17 32/32/17 5/5/17
f 5/5/17 7/7/17 39/39/17
f 40/40/17 39/39/17 7/7/17
f 33/33/17 32/32/17 39/39/17
f 41/41/17 33/33/17 39/39/17
f 23/23/75 44/44/106 24/24/103
f 44/44/106 23/23/75 37/37/111
f 24/24/109 44/44/110 23/23/77
f 37/37/112 23/23/77 44/44/110
f 36/36/69 18/18/21 21/21/68
f 18/18/21 36/36/69 27/27/19
f 21/21/70 18/18/113 36/36/72
f 27/27/27 36/36/72 18/18/113
f 25/25/105 42/42/98 26/26/114
f 42/42/98 25/25/105 43/43/104
f 26/26/115 42/42/102 25/25/107
f 43/43/108 25/25/107 42/42/102
f 13/13/51 41/41/92 33/33/49
f 41/41/91 13/13/51 14/14/93
f 33/33/53 41/41/94 13/13/116
f 14/14/95 13/13/116 41/41/117
f 3/3/1 2/2/2 1/1/3
f 2/2/2 3/3/1 4/4/4
f 1/1/5 2/2/6 3/3/7
f 4/4/8 3/3/7 2/2/6
f 7/7/9 6/6/10 5/5/11
f 6/6/10 7/7/9 8/8/12
f 5/5/13 6/6/14 7/7/15
f 8/8/16 7/7/15 6/6/14
f 10/10/17 8/8/17 9/9/17
f 8/8/17 10/10/17 6/6/17
f 11/11/17 6/6/17 10/10/17
f 11/11/17 12/12/17 6/6/17
f 11/11/17 10/10/17 13/13/17
f 13/13/17 10/10/17 14/14/17
f 15/15/17 12/12/17 11/11/17
f 15/15/17 16/16/17 12/12/17
f 17/17/17 16/16/17 15/15/17
f 17/17/17 18/18/17 16/16/17
f 19/19/17 18/18/17 17/17/17
f 20/20/17 18/18/17 19/19/17
f 20/20/17 21/21/17 18/18/17
f 22/22/17 21/21/17 20/20/17
f 23/23/17 21/21/17 22/22/17
f 23/23/17 2/2/17 21/21/17
f 24/24/17 2/2/17 23/23/17
f 25/25/17 2/2/17 24/24/17
f 25/25/17 1/1/17 2/2/17
f 1/1/17 25/25/17 26/26/17
f 9/9/18 8/8/18 10/10/18
f 6/6/18 10/10/18 8/8/18
f 10/10/18 6/6/18 11/11/18
f 6/6/18 12/12/18 11/11/18
f 13/13/18 10/10/18 11/11/18
f 14/14/18 10/10/18 13/13/18
f 11/11/18 12/12/18 15/15/18
f 12/12/18 16/16/18 15/15/18
f 15/15/18 16/16/18 17/17/18
f 16/16/18 18/18/18 17/17/18
f 17/17/18 18/18/18 19/19/18
f 19/19/18 18/18/18 20/20/18
f 18/18/18 21/21/18 20/20/18
f 20/20/18 21/21/18 22/22/18
f 22/22/18 21/21/18 23/23/18
f 21/21/18 2/2/18 23/23/18
f 23/23/18 2/2/18 24/24/18
f 24/24/18 2/2/18 25/25/18
f 2/2/18 1/1/18 25/25/18
f 26/26/18 25/25/18 1/1/18
f 27/27/19 16/16/20 18/18/21
f 16/16/22 27/27/23 28/28/24
f 18/18/25 16/16/26 27/27/27
f 28/28/28 27/27/29 16/16/30
f 17/17/31 29/29/32 19/19/33
f 29/29/34 17/17/31 30/30/35
f 19/19/36 29/29/37 17/17/38
f 30/30/39 17/17/38 29/29/40
f 5/5/11 12/12/41 31/31/42
f 12/12/41 5/5/43 6/6/10
f 31/31/44 12/12/45 5/5/13
f 6/6/46 5/5/47 12/12/45
f 11/11/48 33/33/49 32/32/50
f 33/33/49 11/11/48 13/13/51
f 32/32/52 33/33/53 11/11/54
f 13/13/55 11/11/54 33/33/53
f 15/15/56 32/32/50 34/34/57
f 32/32/50 15/15/56 11/11/48
f 34/34/58 32/32/52 15/15/59
f 11/11/54 15/15/59 32/32/52
f 19/19/33 35/35/60 20/20/61
f 35/35/62 19/19/33 29/29/32
f 20/20/63 35/35/64 19/19/36
f 29/29/37 19/19/36 35/35/65
f 15/15/56 30/30/35 17/17/31
f 30/30/35 15/15/56 34/34/57
f 17/17/38 30/30/39 15/15/59
f 34/34/58 15/15/59 30/30/39
f 31/31/42 16/16/22 28/28/24
f 16/16/22 31/31/42 12/12/41
f 28/28/28 16/16/26 31/31/44
f 12/12/45 31/31/44 16/16/66
f 4/4/67 21/21/68 2/2/2
f 21/21/68 4/4/67 36/36/69
f 2/2/6 21/21/70 4/4/71
f 36/36/72 4/4/71 21/21/70
f 22/22/73 37/37/74 23/23/75
f 37/37/74 22/22/73 38/38/76
f 23/23/77 37/37/78 22/22/79
f 38/38/80 22/22/81 37/37/78
f 10/10/82 40/40/83 39/39/84
f 40/40/83 10/10/85 9/9/86
f 39/39/87 40/40/88 10/10/89
f 9/9/90 10/10/89 40/40/88
f 41/41/91 10/10/85 39/39/84
f 10/10/85 41/41/92 14/14/93
f 39/39/87 10/10/89 41/41/94
f 14/14/95 41/41/96 10/10/97
f 42/42/98 1/1/3 26/26/99
f 1/1/3 42/42/98 3/3/1
f 26/26/100 1/1/101 42/42/102
f 3/3/7 42/42/102 1/1/101
f 24/24/103 43/43/104 25/25/105
f 43/43/104 24/24/103 44/44/106
f 25/25/107 43/43/108 24/24/109
f 44/44/110 24/24/109 43/43/108
f 40/40/83 8/8/12 7/7/9
f 8/8/12 40/40/83 9/9/86
f 7/7/15 8/8/16 40/40/88
f 9/9/90 40/40/88 8/8/16
f 20/20/61 38/38/76 22/22/73
f 38/38/76 20/20/61 35/35/62
f 22/22/79 38/38/80 20/20/63
f 35/35/65 20/20/63 38/38/80
f 43/43/18 3/3/18 42/42/18
f 3/3/18 43/43/18 4/4/18
f 4/4/18 43/43/18 44/44/18
f 4/4/18 44/44/18 37/37/18
f 4/4/18 37/37/18 36/36/18
f 36/36/18 37/37/18 38/38/18
f 36/36/18 38/38/18 35/35/18
f 36/36/18 35/35/18 27/27/18
f 27/27/18 35/35/18 29/29/18
f 27/27/18 29/29/18 30/30/18
f 27/27/18 30/30/18 28/28/18
f 28/28/18 30/30/18 34/34/18
f 28/28/18 34/34/18 31/31/18
f 31/31/18 34/34/18 32/32/18
f 31/31/18 32/32/18 5/5/18
f 5/5/18 32/32/18 39/39/18
f 39/39/18 32/32/18 33/33/18
f 39/39/18 33/33/18 41/41/18
f 39/39/18 7/7/18 5/5/18
f 7/7/18 39/39/18 40/40/18
f 42/42/17 3/3/17 43/43/17
f 4/4/17 43/43/17 3/3/17
f 44/44/17 43/43/17 4/4/17
f 37/37/17 44/44/17 4/4/17
f 36/36/17 37/37/17 4/4/17
f 38/38/17 37/37/17 36/36/17
f 35/35/17 38/38/17 36/36/17
f 27/27/17 35/35/17 36/36/17
f 29/29/17 35/35/17 27/27/17
f 30/30/17 29/29/17 27/27/17
f 28/28/17 30/30/17 27/27/17
f 34/34/17 30/30/17 28/28/17
f 31/31/17 34/34/17 28/28/17
f 32/32/17 34/34/17 31/31/17
f 5/5/17 32/32/17 31/31/17
f 39/39/17 32/32/17 5/5/17
f 5/5/17 7/7/17 39/39/17
f 40/40/17 39/39/17 7/7/17
f 33/33/17 32/32/17 39/39/17
f 41/41/17 33/33/17 39/39/17
f 23/23/75 44/44/106 24/24/103
f 44/44/106 23/23/75 37/37/111
f 24/24/109 44/44/110 23/23/77
f 37/37/112 23/23/77 44/44/110
f 36/36/69 18/18/21 21/21/68
f 18/18/21 36/36/69 27/27/19
f 21/21/70 18/18/113 36/36/72
f 27/27/27 36/36/72 18/18/113
f 25/25/105 42/42/98 26/26/114
f 42/42/98 25/25/105 43/43/104
f 26/26/115 42/42/102 25/25/107
f 43/43/108 25/25/107 42/42/102
f 13/13/51 41/41/92 33/33/49
f 41/41/91 13/13/51 14/14/93
f 33/33/53 41/41/94 13/13/116
f 14/14/95 13/13/116 41/41/117
