# Blender 3.3.1
# www.blender.org
o snowflake-c
v -0.009453 0.001125 0.028873
v -0.009453 -0.001500 0.028873
v -0.014240 0.001125 0.024665
v -0.014240 -0.001500 0.024665
v -0.003415 0.001125 0.030915
v -0.003415 -0.001500 0.030915
v -0.028938 0.001125 0.017623
v -0.028938 -0.001500 0.017623
v -0.033726 0.001125 0.013415
v -0.033726 -0.001500 0.013415
v -0.000915 -0.001500 0.026585
v -0.000915 0.001125 0.026585
v -0.005703 -0.001500 0.022377
v -0.005703 0.001125 0.022377
v -0.011740 0.001125 0.020335
v -0.011740 0.001125 0.019665
v -0.011740 -0.001500 0.020335
v -0.011740 -0.001500 0.019665
v -0.022901 0.001125 0.019665
v -0.022901 0.001125 0.020335
v -0.022901 -0.001500 0.019665
v -0.022901 -0.001500 0.020335
v -0.014821 0.001125 0.025000
v -0.014821 -0.001500 0.025000
v -0.028938 -0.001500 0.022377
v -0.028938 0.001125 0.022377
v -0.013571 0.001125 0.008750
v -0.014821 0.001125 0.002500
v -0.013571 -0.001500 0.008750
v -0.014821 -0.001500 0.002500
v -0.031226 -0.001500 0.009085
v -0.031226 0.001125 0.009085
v -0.034641 -0.001500 0.010000
v -0.034641 0.001125 0.010000
v -0.025188 0.001125 0.028873
v -0.025188 -0.001500 0.028873
v -0.031226 0.001125 0.030915
v -0.031226 -0.001500 0.030915
v 0.000000 0.001125 0.030000
v 0.000000 -0.001500 0.030000
v 0.000000 -0.001500 0.010000
v 0.000000 0.001125 0.010000
v -0.003415 -0.001500 0.009085
v -0.003415 0.001125 0.009085
v -0.000915 0.001125 0.013415
v -0.000915 -0.001500 0.013415
v -0.009453 -0.001500 0.011127
v -0.009453 0.001125 0.011127
v -0.014240 -0.001500 0.015335
v -0.014240 0.001125 0.015335
v -0.033726 -0.001500 0.026585
v -0.033726 0.001125 0.026585
v -0.021071 0.001125 0.031250
v -0.021071 -0.001500 0.031250
v -0.019821 0.001125 0.025000
v -0.019821 -0.001500 0.025000
v -0.034641 0.001125 0.030000
v -0.034641 -0.001500 0.030000
v -0.005703 0.001125 0.017623
v -0.005703 -0.001500 0.017623
v -0.014821 0.001125 0.015000
v -0.014821 -0.001500 0.015000
v -0.019821 0.001125 0.015000
v -0.019821 -0.001500 0.015000
v -0.021071 0.001125 0.008750
v -0.021071 -0.001500 0.008750
v -0.020401 -0.001500 0.015335
v -0.020401 0.001125 0.015335
v -0.020401 0.001125 0.024665
v -0.020401 -0.001500 0.024665
v -0.013571 0.001125 0.031250
v -0.013571 -0.001500 0.031250
v -0.014821 0.001125 0.037500
v -0.014821 -0.001500 0.037500
v -0.017321 0.001125 0.040000
v -0.017321 -0.001500 0.040000
v -0.025188 -0.001500 0.011127
v -0.025188 0.001125 0.011127
v -0.017321 -0.001500 -0.000000
v -0.017321 0.001125 0.000000
v -0.019821 -0.001500 0.002500
v -0.019821 0.001125 0.002500
v -0.019821 0.001125 0.037500
v -0.019821 -0.001500 0.037500
vn -0.0985 -0.0000 0.9951
vn -0.5000 -0.0000 0.8660
vn -0.0985 -0.0001 0.9951
vn -0.0322 -0.0000 0.9995
vn -0.8495 -0.0000 0.5276
vn 0.5000 -0.0000 -0.8660
vn 0.8495 -0.0000 -0.5276
vn 0.8125 0.0001 -0.5829
vn 0.8125 -0.0000 0.5829
vn 0.8125 -0.0000 -0.5829
vn 0.8125 -0.0001 0.5829
vn -0.8125 0.0001 0.5829
vn -0.8125 -0.0000 -0.5829
vn -0.8125 -0.0000 0.5829
vn -0.8125 -0.0001 -0.5829
vn 0.9111 -0.0000 0.4122
vn -0.0985 0.0001 0.9951
vn 0.9111 -0.0001 0.4122
vn -0.5000 -0.0000 -0.8660
vn 1.0000 -0.0000 -0.0000
vn 0.8817 -0.0000 -0.4719
vn -0.2588 -0.0000 -0.9659
vn 0.0322 -0.0000 -0.9995
vn 0.0322 0.0003 -0.9995
vn 0.0322 -0.0000 0.9995
vn 0.5000 -0.0000 0.8660
vn 0.9659 -0.0000 -0.2588
vn -0.0322 -0.0000 -0.9995
vn 0.2588 -0.0000 -0.9659
vn 0.8495 -0.0000 0.5276
vn 0.9659 -0.0000 0.2588
vn 0.8495 0.0003 0.5276
vn -0.0985 -0.0000 -0.9951
vn -0.0985 0.0001 -0.9951
vn -0.8495 -0.0000 -0.5276
vn -0.9111 -0.0000 0.4122
vn -1.0000 -0.0000 -0.0000
vn -0.9111 -0.0001 0.4122
vn -0.2588 -0.0000 0.9659
vn 0.9111 0.0001 -0.4122
vn 0.9111 -0.0000 -0.4122
vn -0.9111 0.0001 -0.4122
vn -0.9111 -0.0000 -0.4122
vn 0.2588 -0.0000 0.9659
vn 0.0985 -0.0000 -0.9951
vn -0.9111 -0.0001 -0.4122
vn 0.0985 0.0001 -0.9951
vn -0.0985 -0.0001 -0.9951
vn 0.0985 0.0001 0.9951
vn 0.0985 -0.0000 0.9951
vn -0.9111 0.0001 0.4122
vn 0.0985 -0.0001 0.9951
vn 0.7071 -0.0000 0.7071
vn 0.8817 -0.0000 0.4719
vn 0.0985 -0.0001 -0.9951
vn -0.9659 -0.0000 -0.2588
vn -0.8495 0.0003 -0.5276
vn -0.8817 -0.0000 -0.4719
vn -0.7071 -0.0000 -0.7071
vn -0.9659 -0.0000 0.2588
vn -0.8817 -0.0000 0.4719
vn -0.7071 -0.0000 0.7071
vn 0.7071 -0.0000 -0.7071
vn 0.8817 0.0003 -0.4719
vn -0.0000 -1.0000 -0.0000
vn -0.0000 1.0000 -0.0000
vt 0.218750 0.669363
vt 0.093750 0.169363
vt 0.218750 0.669363
vt 0.093750 0.169363
vt 0.218750 0.648325
vt 0.093750 0.148325
vt 0.218750 0.648325
vt 0.093750 0.148325
vt 0.218750 0.679575
vt 0.093750 0.179575
vt 0.218750 0.679575
vt 0.093750 0.179575
vt 0.218750 0.613113
vt 0.093750 0.113113
vt 0.218750 0.613113
vt 0.093750 0.113113
vt 0.218750 0.592075
vt 0.093750 0.092075
vt 0.218750 0.592075
vt 0.093750 0.092075
vt 0.218750 0.657925
vt 0.093750 0.157925
vt 0.218750 0.657925
vt 0.093750 0.157925
vt 0.218750 0.636887
vt 0.093750 0.136887
vt 0.218750 0.636887
vt 0.093750 0.136887
vt 0.218750 0.626675
vt 0.093750 0.126675
vt 0.218750 0.623325
vt 0.093750 0.123325
vt 0.218750 0.626675
vt 0.093750 0.126675
vt 0.218750 0.623325
vt 0.093750 0.123325
vt 0.218750 0.623325
vt 0.093750 0.123325
vt 0.218750 0.626675
vt 0.093750 0.126675
vt 0.218750 0.623325
vt 0.093750 0.123325
vt 0.218750 0.626675
vt 0.093750 0.126675
vt 0.218750 0.650000
vt 0.093750 0.150000
vt 0.218750 0.650000
vt 0.093750 0.150000
vt 0.218750 0.636887
vt 0.093750 0.136887
vt 0.218750 0.636887
vt 0.093750 0.136887
vt 0.218750 0.568750
vt 0.093750 0.068750
vt 0.218750 0.537500
vt 0.093750 0.037500
vt 0.218750 0.568750
vt 0.093750 0.068750
vt 0.218750 0.537500
vt 0.093750 0.037500
vt 0.218750 0.570425
vt 0.093750 0.070425
vt 0.218750 0.570425
vt 0.093750 0.070425
vt 0.218750 0.575000
vt 0.093750 0.075000
vt 0.218750 0.575000
vt 0.093750 0.075000
vt 0.218750 0.669363
vt 0.093750 0.169363
vt 0.218750 0.669363
vt 0.093750 0.169363
vt 0.218750 0.679575
vt 0.093750 0.179575
vt 0.218750 0.679575
vt 0.093750 0.179575
vt 0.218750 0.675000
vt 0.093750 0.175000
vt 0.218750 0.675000
vt 0.093750 0.175000
vt 0.218750 0.575000
vt 0.093750 0.075000
vt 0.218750 0.575000
vt 0.093750 0.075000
vt 0.218750 0.570425
vt 0.093750 0.070425
vt 0.218750 0.570425
vt 0.093750 0.070425
vt 0.218750 0.592075
vt 0.093750 0.092075
vt 0.218750 0.592075
vt 0.093750 0.092075
vt 0.218750 0.580637
vt 0.093750 0.080637
vt 0.218750 0.580637
vt 0.093750 0.080637
vt 0.218750 0.601675
vt 0.093750 0.101675
vt 0.218750 0.601675
vt 0.093750 0.101675
vt 0.218750 0.657925
vt 0.093750 0.157925
vt 0.218750 0.657925
vt 0.093750 0.157925
vt 0.218750 0.681250
vt 0.093750 0.181250
vt 0.218750 0.681250
vt 0.093750 0.181250
vt 0.218750 0.650000
vt 0.093750 0.150000
vt 0.218750 0.650000
vt 0.093750 0.150000
vt 0.218750 0.675000
vt 0.093750 0.175000
vt 0.218750 0.675000
vt 0.093750 0.175000
vt 0.218750 0.613113
vt 0.093750 0.113113
vt 0.218750 0.613113
vt 0.093750 0.113113
vt 0.218750 0.600000
vt 0.093750 0.100000
vt 0.218750 0.600000
vt 0.093750 0.100000
vt 0.218750 0.600000
vt 0.093750 0.100000
vt 0.218750 0.600000
vt 0.093750 0.100000
vt 0.218750 0.568750
vt 0.093750 0.068750
vt 0.218750 0.568750
vt 0.093750 0.068750
vt 0.218750 0.601675
vt 0.093750 0.101675
vt 0.218750 0.601675
vt 0.093750 0.101675
vt 0.218750 0.648325
vt 0.093750 0.148325
vt 0.218750 0.648325
vt 0.093750 0.148325
vt 0.218750 0.681250
vt 0.093750 0.181250
vt 0.218750 0.681250
vt 0.093750 0.181250
vt 0.218750 0.712500
vt 0.093750 0.212500
vt 0.218750 0.712500
vt 0.093750 0.212500
vt 0.218750 0.725000
vt 0.093750 0.225000
vt 0.218750 0.725000
vt 0.093750 0.225000
vt 0.218750 0.580637
vt 0.093750 0.080637
vt 0.218750 0.580637
vt 0.093750 0.080637
vt 0.218750 0.525000
vt 0.093750 0.025000
vt 0.218750 0.525000
vt 0.093750 0.025000
vt 0.218750 0.537500
vt 0.093750 0.037500
vt 0.218750 0.537500
vt 0.093750 0.037500
vt 0.218750 0.712500
vt 0.093750 0.212500
vt 0.218750 0.712500
vt 0.093750 0.212500
s 0
f 3/5/1 2/3/2 1/1/2
f 2/3/2 3/5/3 4/7/1
f 1/1/2 6/11/4 5/9/4
f 6/11/4 1/1/2 2/3/2
f 9/17/5 8/15/2 7/13/2
f 8/15/2 9/17/5 10/19/5
f 13/25/6 12/23/7 11/21/7
f 12/23/7 13/25/6 14/27/6
f 17/33/8 16/31/9 15/29/10
f 16/31/11 17/33/10 18/35/9
f 21/41/12 20/39/13 19/37/14
f 20/39/15 21/41/14 22/43/13
f 23/45/16 4/7/17 3/5/1
f 4/7/1 23/45/18 24/47/16
f 25/49/19 20/39/15 22/43/13
f 20/39/13 25/49/19 26/51/19
f 29/57/20 28/55/21 27/53/20
f 28/55/21 29/57/20 30/59/21
f 33/65/22 32/63/23 31/61/24
f 32/63/23 33/65/22 34/67/22
f 37/73/25 36/71/26 35/69/26
f 36/71/26 37/73/25 38/75/25
f 40/79/27 12/23/7 39/77/27
f 12/23/7 40/79/27 11/21/7
f 43/85/28 42/83/29 41/81/29
f 42/83/29 43/85/28 44/87/28
f 17/33/10 14/27/6 13/25/6
f 14/27/6 17/33/8 15/29/10
f 46/91/30 42/83/31 45/89/30
f 42/83/31 46/91/32 41/81/31
f 49/97/33 48/95/19 47/93/19
f 48/95/19 49/97/34 50/99/33
f 47/93/19 44/87/28 43/85/28
f 44/87/28 47/93/19 48/95/19
f 51/101/35 26/51/19 25/49/19
f 26/51/19 51/101/35 52/103/35
f 55/109/36 54/107/37 53/105/37
f 54/107/37 55/109/38 56/111/36
f 57/113/39 38/75/25 37/73/25
f 38/75/25 57/113/39 58/115/39
f 16/31/9 60/119/26 59/117/26
f 60/119/26 16/31/11 18/35/9
f 62/123/40 27/53/20 61/121/41
f 27/53/20 62/123/41 29/57/20
f 65/129/37 64/127/42 63/125/43
f 64/127/43 65/129/37 66/131/37
f 5/9/4 40/79/44 39/77/44
f 40/79/44 5/9/4 6/11/4
f 7/13/2 21/41/12 19/37/14
f 21/41/14 7/13/2 8/15/2
f 67/133/45 63/125/46 64/127/43
f 63/125/43 67/133/47 68/135/45
f 62/123/41 50/99/48 49/97/33
f 50/99/33 62/123/40 61/121/41
f 35/69/26 70/139/49 69/137/50
f 70/139/50 35/69/26 36/71/26
f 69/137/50 56/111/51 55/109/36
f 56/111/36 69/137/52 70/139/50
f 72/143/20 23/45/16 71/141/20
f 23/45/18 72/143/20 24/47/16
f 75/149/53 74/147/54 73/145/54
f 74/147/54 75/149/53 76/151/53
f 59/117/26 46/91/30 45/89/30
f 46/91/30 59/117/26 60/119/26
f 77/153/6 68/135/55 67/133/45
f 68/135/45 77/153/6 78/155/6
f 31/61/23 78/155/6 77/153/6
f 78/155/6 31/61/23 32/63/23
f 52/103/35 58/115/56 57/113/56
f 58/115/56 52/103/35 51/101/57
f 74/147/54 71/141/20 73/145/54
f 71/141/20 74/147/54 72/143/20
f 81/161/58 80/159/59 79/157/59
f 80/159/59 81/161/58 82/163/58
f 82/163/58 66/131/37 65/129/37
f 66/131/37 82/163/58 81/161/58
f 34/67/60 10/19/5 9/17/5
f 10/19/5 34/67/60 33/65/60
f 53/105/37 84/167/61 83/165/61
f 84/167/61 53/105/37 54/107/37
f 83/165/61 76/151/62 75/149/62
f 76/151/62 83/165/61 84/167/61
f 30/59/21 80/159/63 28/55/21
f 80/159/63 30/59/64 79/157/63
f 30/60/65 81/162/65 79/158/65
f 81/162/65 30/60/65 29/58/65
f 81/162/65 29/58/65 66/132/65
f 66/132/65 29/58/65 62/124/65
f 66/132/65 62/124/65 64/128/65
f 64/128/65 62/124/65 49/98/65
f 64/128/65 49/98/65 67/134/65
f 8/16/65 67/134/65 49/98/65
f 10/20/65 67/134/65 8/16/65
f 10/20/65 77/154/65 67/134/65
f 33/66/65 77/154/65 10/20/65
f 77/154/65 33/66/65 31/62/65
f 49/98/65 60/120/65 8/16/65
f 8/16/65 60/120/65 21/42/65
f 49/98/65 46/92/65 60/120/65
f 21/42/65 60/120/65 18/36/65
f 47/94/65 46/92/65 49/98/65
f 47/94/65 41/82/65 46/92/65
f 41/82/65 47/94/65 43/86/65
f 21/42/65 18/36/65 22/44/65
f 22/44/65 18/36/65 17/34/65
f 22/44/65 17/34/65 13/26/65
f 22/44/65 13/26/65 25/50/65
f 25/50/65 13/26/65 11/22/65
f 25/50/65 11/22/65 4/8/65
f 4/8/65 11/22/65 2/4/65
f 2/4/65 11/22/65 40/80/65
f 2/4/65 40/80/65 6/12/65
f 70/140/65 25/50/65 4/8/65
f 24/48/65 70/140/65 4/8/65
f 25/50/65 70/140/65 51/102/65
f 70/140/65 24/48/65 56/112/65
f 51/102/65 70/140/65 36/72/65
f 51/102/65 36/72/65 58/116/65
f 58/116/65 36/72/65 38/76/65
f 56/112/65 24/48/65 72/144/65
f 56/112/65 72/144/65 54/108/65
f 54/108/65 72/144/65 74/148/65
f 54/108/65 74/148/65 84/168/65
f 84/168/65 74/148/65 76/152/65
f 34/68/66 78/156/66 32/64/66
f 78/156/66 34/68/66 9/18/66
f 78/156/66 9/18/66 68/136/66
f 68/136/66 9/18/66 7/14/66
f 68/136/66 7/14/66 50/100/66
f 61/122/66 68/136/66 50/100/66
f 61/122/66 63/126/66 68/136/66
f 27/54/66 63/126/66 61/122/66
f 27/54/66 65/130/66 63/126/66
f 28/56/66 65/130/66 27/54/66
f 28/56/66 82/164/66 65/130/66
f 82/164/66 28/56/66 80/160/66
f 59/118/66 50/100/66 7/14/66
f 59/118/66 7/14/66 19/38/66
f 45/90/66 50/100/66 59/118/66
f 59/118/66 19/38/66 16/32/66
f 45/90/66 48/96/66 50/100/66
f 42/84/66 48/96/66 45/90/66
f 48/96/66 42/84/66 44/88/66
f 16/32/66 19/38/66 20/40/66
f 16/32/66 20/40/66 15/30/66
f 15/30/66 20/40/66 14/28/66
f 14/28/66 20/40/66 26/52/66
f 14/28/66 26/52/66 52/104/66
f 14/28/66 52/104/66 69/138/66
f 69/138/66 52/104/66 35/70/66
f 35/70/66 52/104/66 57/114/66
f 35/70/66 57/114/66 37/74/66
f 14/28/66 69/138/66 3/6/66
f 3/6/66 12/24/66 14/28/66
f 12/24/66 3/6/66 1/2/66
f 12/24/66 1/2/66 39/78/66
f 39/78/66 1/2/66 5/10/66
f 69/138/66 23/46/66 3/6/66
f 23/46/66 69/138/66 55/110/66
f 23/46/66 55/110/66 53/106/66
f 23/46/66 53/106/66 71/142/66
f 71/142/66 53/106/66 83/166/66
f 71/142/66 83/166/66 73/146/66
f 73/146/66 83/166/66 75/150/66
f 3/5/1 2/3/2 1/1/2
f 2/3/2 3/5/3 4/7/1
f 1/1/2 6/11/4 5/9/4
f 6/11/4 1/1/2 2/3/2
f 9/17/5 8/15/2 7/13/2
f 8/15/2 9/17/5 10/19/5
f 13/25/6 12/23/7 11/21/7
f 12/23/7 13/25/6 14/27/6
f 17/33/8 16/31/9 15/29/10
f 16/31/11 17/33/10 18/35/9
f 21/41/12 20/39/13 19/37/14
f 20/39/15 21/41/14 22/43/13
f 23/45/16 4/7/17 3/5/1
f 4/7/1 23/45/18 24/47/16
f 25/49/19 20/39/15 22/43/13
f 20/39/13 25/49/19 26/51/19
f 29/57/20 28/55/21 27/53/20
f 28/55/21 29/57/20 30/59/21
f 33/65/22 32/63/23 31/61/24
f 32/63/23 33/65/22 34/67/22
f 37/73/25 36/71/26 35/69/26
f 36/71/26 37/73/25 38/75/25
f 40/79/27 12/23/7 39/77/27
f 12/23/7 40/79/27 11/21/7
f 43/85/28 42/83/29 41/81/29
f 42/83/29 43/85/28 44/87/28
f 17/33/10 14/27/6 13/25/6
f 14/27/6 17/33/8 15/29/10
f 46/91/30 42/83/31 45/89/30
f 42/83/31 46/91/32 41/81/31
f 49/97/33 48/95/19 47/93/19
f 48/95/19 49/97/34 50/99/33
f 47/93/19 44/87/28 43/85/28
f 44/87/28 47/93/19 48/95/19
f 51/101/35 26/51/19 25/49/19
f 26/51/19 51/101/35 52/103/35
f 55/109/36 54/107/37 53/105/37
f 54/107/37 55/109/38 56/111/36
f 57/113/39 38/75/25 37/73/25
f 38/75/25 57/113/39 58/115/39
f 16/31/9 60/119/26 59/117/26
f 60/119/26 16/31/11 18/35/9
f 62/123/40 27/53/20 61/121/41
f 27/53/20 62/123/41 29/57/20
f 65/129/37 64/127/42 63/125/43
f 64/127/43 65/129/37 66/131/37
f 5/9/4 40/79/44 39/77/44
f 40/79/44 5/9/4 6/11/4
f 7/13/2 21/41/12 19/37/14
f 21/41/14 7/13/2 8/15/2
f 67/133/45 63/125/46 64/127/43
f 63/125/43 67/133/47 68/135/45
f 62/123/41 50/99/48 49/97/33
f 50/99/33 62/123/40 61/121/41
f 35/69/26 70/139/49 69/137/50
f 70/139/50 35/69/26 36/71/26
f 69/137/50 56/111/51 55/109/36
f 56/111/36 69/137/52 70/139/50
f 72/143/20 23/45/16 71/141/20
f 23/45/18 72/143/20 24/47/16
f 75/149/53 74/147/54 73/145/54
f 74/147/54 75/149/53 76/151/53
f 59/117/26 46/91/30 45/89/30
f 46/91/30 59/117/26 60/119/26
f 77/153/6 68/135/55 67/133/45
f 68/135/45 77/153/6 78/155/6
f 31/61/23 78/155/6 77/153/6
f 78/155/6 31/61/23 32/63/23
f 52/103/35 58/115/56 57/113/56
f 58/115/56 52/103/35 51/101/57
f 74/147/54 71/141/20 73/145/54
f 71/141/20 74/147/54 72/143/20
f 81/161/58 80/159/59 79/157/59
f 80/159/59 81/161/58 82/163/58
f 82/163/58 66/131/37 65/129/37
f 66/131/37 82/163/58 81/161/58
f 34/67/60 10/19/5 9/17/5
f 10/19/5 34/67/60 33/65/60
f 53/105/37 84/167/61 83/165/61
f 84/167/61 53/105/37 54/107/37
f 83/165/61 76/151/62 75/149/62
f 76/151/62 83/165/61 84/167/61
f 30/59/21 80/159/63 28/55/21
f 80/159/63 30/59/64 79/157/63
f 30/60/65 81/162/65 79/158/65
f 81/162/65 30/60/65 29/58/65
f 81/162/65 29/58/65 66/132/65
f 66/132/65 29/58/65 62/124/65
f 66/132/65 62/124/65 64/128/65
f 64/128/65 62/124/65 49/98/65
f 64/128/65 49/98/65 67/134/65
f 8/16/65 67/134/65 49/98/65
f 10/20/65 67/134/65 8/16/65
f 10/20/65 77/154/65 67/134/65
f 33/66/65 77/154/65 10/20/65
f 77/154/65 33/66/65 31/62/65
f 49/98/65 60/120/65 8/16/65
f 8/16/65 60/120/65 21/42/65
f 49/98/65 46/92/65 60/120/65
f 21/42/65 60/120/65 18/36/65
f 47/94/65 46/92/65 49/98/65
f 47/94/65 41/82/65 46/92/65
f 41/82/65 47/94/65 43/86/65
f 21/42/65 18/36/65 22/44/65
f 22/44/65 18/36/65 17/34/65
f 22/44/65 17/34/65 13/26/65
f 22/44/65 13/26/65 25/50/65
f 25/50/65 13/26/65 11/22/65
f 25/50/65 11/22/65 4/8/65
f 4/8/65 11/22/65 2/4/65
f 2/4/65 11/22/65 40/80/65
f 2/4/65 40/80/65 6/12/65
f 70/140/65 25/50/65 4/8/65
f 24/48/65 70/140/65 4/8/65
f 25/50/65 70/140/65 51/102/65
f 70/140/65 24/48/65 56/112/65
f 51/102/65 70/140/65 36/72/65
f 51/102/65 36/72/65 58/116/65
f 58/116/65 36/72/65 38/76/65
f 56/112/65 24/48/65 72/144/65
f 56/112/65 72/144/65 54/108/65
f 54/108/65 72/144/65 74/148/65
f 54/108/65 74/148/65 84/168/65
f 84/168/65 74/148/65 76/152/65
f 34/68/66 78/156/66 32/64/66
f 78/156/66 34/68/66 9/18/66
f 78/156/66 9/18/66 68/136/66
f 68/136/66 9/18/66 7/14/66
f 68/136/66 7/14/66 50/100/66
f 61/122/66 68/136/66 50/100/66
f 61/122/66 63/126/66 68/136/66
f 27/54/66 63/126/66 61/122/66
f 27/54/66 65/130/66 63/126/66
f 28/56/66 65/130/66 27/54/66
f 28/56/66 82/164/66 65/130/66
f 82/164/66 28/56/66 80/160/66
f 59/118/66 50/100/66 7/14/66
f 59/118/66 7/14/66 19/38/66
f 45/90/66 50/100/66 59/118/66
f 59/118/66 19/38/66 16/32/66
f 45/90/66 48/96/66 50/100/66
f 42/84/66 48/96/66 45/90/66
f 48/96/66 42/84/66 44/88/66
f 16/32/66 19/38/66 20/40/66
f 16/32/66 20/40/66 15/30/66
f 15/30/66 20/40/66 14/28/66
f 14/28/66 20/40/66 26/52/66
f 14/28/66 26/52/66 52/104/66
f 14/28/66 52/104/66 69/138/66
f 69/138/66 52/104/66 35/70/66
f 35/70/66 52/104/66 57/114/66
f 35/70/66 57/114/66 37/74/66
f 14/28/66 69/138/66 3/6/66
f 3/6/66 12/24/66 14/28/66
f 12/24/66 3/6/66 1/2/66
f 12/24/66 1/2/66 39/78/66
f 39/78/66 1/2/66 5/10/66
f 69/138/66 23/46/66 3/6/66
f 23/46/66 69/138/66 55/110/66
f 23/46/66 55/110/66 53/106/66
f 23/46/66 53/106/66 71/142/66
f 71/142/66 53/106/66 83/166/66
f 71/142/66 83/166/66 73/146/66
f 73/146/66 83/166/66 75/150/66
