# Blender 3.3.1
# www.blender.org
o snowflake-a
v -0.024731 0.001125 0.012835
v -0.024731 0.001125 0.007835
v -0.024731 -0.001500 0.012835
v -0.024731 -0.001500 0.007835
v -0.022321 0.001125 0.020000
v -0.022321 -0.001500 0.020000
v -0.027231 0.001125 0.017165
v -0.027231 -0.001500 0.017165
v -0.009910 0.001125 0.032165
v -0.009910 -0.001500 0.032165
v -0.009910 0.001125 0.027165
v -0.009910 -0.001500 0.027165
v -0.022901 0.001125 0.034665
v -0.022901 -0.001500 0.034665
v -0.024151 0.001125 0.032500
v -0.024151 -0.001500 0.032500
v -0.034641 0.001125 0.030000
v -0.034641 -0.001500 0.030000
v -0.033726 0.001125 0.026585
v -0.033726 -0.001500 0.026585
v -0.019821 0.001125 0.015670
v -0.019821 -0.001500 0.015670
v -0.019821 0.001125 0.010000
v -0.019821 -0.001500 0.010000
v -0.007410 0.001125 0.032165
v -0.007410 -0.001500 0.032165
v -0.001830 0.001125 0.022500
v -0.001830 -0.001500 0.022500
v -0.004910 0.001125 0.024278
v -0.004910 -0.001500 0.024278
v -0.014821 0.001125 0.037500
v -0.014821 0.001125 0.032887
v -0.014821 -0.001500 0.037500
v -0.014821 -0.001500 0.032887
v -0.007410 0.001125 0.028608
v -0.007410 -0.001500 0.028608
v -0.000915 -0.001500 0.026585
v -0.000915 0.001125 0.026585
v -0.027231 0.001125 0.028608
v -0.027231 0.001125 0.032165
v -0.027231 -0.001500 0.028608
v -0.027231 -0.001500 0.032165
v -0.019821 0.001125 0.024330
v -0.019821 -0.001500 0.024330
v -0.024731 0.001125 0.027165
v -0.024731 -0.001500 0.027165
v -0.000000 0.001125 0.030000
v -0.000000 -0.001500 0.030000
v -0.024731 0.001125 0.032165
v -0.024731 -0.001500 0.032165
v -0.003080 0.001125 0.020335
v -0.003080 -0.001500 0.020335
v -0.011740 0.001125 0.034665
v -0.011740 -0.001500 0.034665
v -0.003415 0.001125 0.030915
v -0.003415 -0.001500 0.030915
v -0.014821 0.001125 0.024330
v -0.014821 -0.001500 0.024330
v -0.031226 0.001125 0.030915
v -0.031226 -0.001500 0.030915
v -0.010490 0.001125 0.032500
v -0.010490 -0.001500 0.032500
v -0.014821 -0.001500 0.030000
v -0.014821 0.001125 0.030000
v -0.014821 0.001125 0.015670
v -0.014821 0.001125 0.010000
v -0.014821 -0.001500 0.015670
v -0.014821 -0.001500 0.010000
v -0.007410 -0.001500 0.007835
v -0.007410 0.001125 0.007835
v -0.009910 -0.001500 0.007835
v -0.009910 0.001125 0.007835
v -0.010490 0.001125 0.007500
v -0.010490 -0.001500 0.007500
v -0.027231 -0.001500 0.022835
v -0.027231 0.001125 0.022835
v -0.019821 -0.001500 0.030000
v -0.019821 0.001125 0.030000
v -0.014821 0.001125 0.007113
v -0.014821 0.001125 0.002500
v -0.014821 -0.001500 0.007113
v -0.014821 -0.001500 0.002500
v -0.031226 -0.001500 0.009085
v -0.031226 0.001125 0.009085
v -0.034641 -0.001500 0.010000
v -0.034641 0.001125 0.010000
v -0.031561 0.001125 0.019665
v -0.031561 -0.001500 0.019665
v -0.011740 -0.001500 0.005335
v -0.011740 0.001125 0.005335
v -0.019821 -0.001500 0.007113
v -0.019821 0.001125 0.007113
v -0.022901 -0.001500 0.005335
v -0.022901 0.001125 0.005335
v -0.003415 -0.001500 0.009085
v -0.003415 0.001125 0.009085
v -0.007410 -0.001500 0.011392
v -0.007410 0.001125 0.011392
v -0.029731 0.001125 0.024278
v -0.029731 -0.001500 0.024278
v -0.032811 0.001125 0.022500
v -0.032811 -0.001500 0.022500
v -0.003080 0.001125 0.019665
v -0.003080 -0.001500 0.019665
v -0.007410 0.001125 0.017165
v -0.007410 -0.001500 0.017165
v -0.001830 0.001125 0.017500
v -0.001830 -0.001500 0.017500
v -0.000915 0.001125 0.013415
v 0.000000 0.001125 0.010000
v -0.000915 -0.001500 0.013415
v 0.000000 -0.001500 0.010000
v -0.007410 -0.001500 0.022835
v -0.007410 0.001125 0.022835
v -0.012321 -0.001500 0.020000
v -0.012321 0.001125 0.020000
v -0.017321 -0.001500 -0.000000
v -0.017321 0.001125 0.000000
v -0.019821 -0.001500 0.002500
v -0.019821 0.001125 0.002500
v -0.019821 0.001125 0.037500
v -0.019821 -0.001500 0.037500
v -0.019821 0.001125 0.032887
v -0.019821 -0.001500 0.032887
v -0.031561 0.001125 0.020335
v -0.031561 -0.001500 0.020335
v -0.009910 0.001125 0.012835
v -0.009910 -0.001500 0.012835
v -0.004910 -0.001500 0.015722
v -0.004910 0.001125 0.015722
v -0.024151 0.001125 0.007500
v -0.024151 -0.001500 0.007500
v -0.027231 -0.001500 0.011392
v -0.027231 0.001125 0.011392
v -0.033726 0.001125 0.013415
v -0.033726 -0.001500 0.013415
v -0.029731 0.001125 0.015722
v -0.029731 -0.001500 0.015722
v -0.032811 -0.001500 0.017500
v -0.032811 0.001125 0.017500
v -0.017321 0.001125 0.040000
v -0.017321 -0.001500 0.040000
v -0.027231 0.001125 0.007835
v -0.027231 -0.001500 0.007835
vn 0.8660 0.0001 -0.5000
vn 0.7071 -0.0008 -0.7071
vn 0.8660 -0.0000 -0.5000
vn 0.7071 0.0002 -0.7071
vn 0.7071 0.0001 -0.7071
vn -0.0000 -0.0000 1.0000
vn -0.5000 -0.0000 0.8660
vn -0.0000 -0.0001 1.0000
vn -0.8660 -0.0000 0.5000
vn -0.7071 -0.0002 0.7071
vn -0.7071 -0.0008 0.7071
vn -0.7071 -0.0000 0.7071
vn -0.8660 -0.0001 0.5000
vn -0.9659 -0.0002 -0.2588
vn -0.2588 0.0002 0.9659
vn -0.2588 -0.0011 0.9659
vn -0.9659 0.0001 -0.2588
vn -0.7933 -0.0001 -0.6088
vn -0.8660 -0.0008 0.5000
vn -0.8660 0.0001 0.5000
vn -0.7933 -0.0000 -0.6088
vn -0.7933 0.0001 -0.6088
vn -1.0000 -0.0000 -0.0000
vn 0.7071 0.0002 0.7071
vn 0.7071 -0.0008 0.7071
vn -0.7071 0.0008 0.7071
vn 1.0000 -0.0000 -0.0000
vn 0.9659 -0.0000 0.2588
vn 0.9659 -0.0001 0.2588
vn 0.9659 0.0002 0.2588
vn 1.0000 0.0001 -0.0000
vn 0.9239 0.0001 0.3827
vn 0.5000 -0.0000 0.8660
vn 0.9239 -0.0001 0.3827
vn 0.5000 -0.0001 0.8660
vn 0.7071 -0.0000 0.7071
vn 0.7071 -0.0001 0.7071
vn 0.5000 0.0001 0.8660
vn 0.7071 0.0009 0.7071
vn 0.7934 -0.0001 -0.6088
vn 0.7934 0.0001 -0.6088
vn -0.5000 -0.0001 0.8660
vn -0.7071 -0.0009 0.7071
vn -0.7071 0.0001 0.7071
vn 0.8660 -0.0000 0.5000
vn 0.8660 -0.0001 0.5000
vn 0.7933 -0.0001 -0.6088
vn 0.7933 -0.0000 -0.6088
vn 0.8660 0.0001 0.5000
vn 0.7933 0.0001 -0.6088
vn 0.7071 -0.0002 0.7071
vn 0.7071 0.0008 0.7071
vn 0.2588 -0.0009 -0.9659
vn 0.2588 -0.0002 -0.9659
vn 0.2588 0.0001 -0.9659
vn 0.2588 -0.0000 0.9659
vn 0.2588 -0.0001 0.9659
vn 0.2588 0.0002 0.9659
vn -0.1305 0.0001 0.9914
vn -0.1305 -0.0004 0.9914
vn -0.1305 -0.0001 0.9914
vn -0.1305 -0.0000 0.9914
vn 0.1305 0.0001 0.9914
vn -0.5000 0.0001 0.8660
vn 0.1305 -0.0001 0.9914
vn 0.9659 -0.0002 -0.2588
vn 0.9659 0.0001 -0.2588
vn 0.9659 0.0002 -0.2588
vn 0.9659 -0.0000 -0.2588
vn -0.7071 0.0002 -0.7071
vn 0.7071 -0.0002 -0.7071
vn 0.7071 0.0008 -0.7071
vn -0.7071 -0.0008 -0.7071
vn 0.9659 -0.0002 0.2588
vn -0.0000 -0.0000 -1.0000
vn -0.5000 -0.0000 -0.8660
vn -0.0000 0.0001 -1.0000
vn -0.9659 -0.0000 -0.2588
vn -0.8660 -0.0001 -0.5000
vn -0.8660 -0.0000 -0.5000
vn -0.9659 -0.0001 -0.2588
vn 0.5000 0.0001 -0.8660
vn 0.9239 0.0001 -0.3827
vn 0.5000 -0.0000 -0.8660
vn 0.9239 -0.0001 -0.3827
vn -0.8660 0.0001 -0.5000
vn 0.1305 -0.0000 -0.9914
vn 0.1305 0.0001 -0.9914
vn 0.1305 -0.0001 -0.9914
vn -0.2588 -0.0000 0.9659
vn -0.0000 0.0001 1.0000
vn -0.2588 0.0001 0.9659
vn 0.2588 -0.0000 -0.9659
vn 0.5000 -0.0001 -0.8660
vn -0.2588 0.0002 -0.9659
vn -0.5000 0.0001 -0.8660
vn -0.2588 -0.0000 -0.9659
vn -0.2588 -0.0001 -0.9659
vn -0.1305 -0.0001 -0.9914
vn -0.1305 0.0001 -0.9914
vn -0.9659 -0.0002 0.2588
vn -1.0000 -0.0001 -0.0000
vn -0.9659 -0.0000 0.2588
vn -0.9659 0.0001 0.2588
vn 0.2588 -0.0002 0.9659
vn 0.2588 0.0009 0.9659
vn 0.7933 -0.0000 0.6088
vn 0.8660 -0.0001 -0.5000
vn 0.7933 -0.0001 0.6088
vn 0.7933 0.0007 0.6088
vn -0.1305 -0.0000 -0.9914
vn -0.0000 -0.0001 -1.0000
vn -0.9239 0.0001 -0.3827
vn -0.0000 0.0008 -1.0000
vn -0.9239 -0.0000 -0.3827
vn -0.9239 -0.0001 -0.3827
vn -0.9239 0.0001 0.3827
vn -0.9239 -0.0001 0.3827
vn -0.7071 -0.0000 -0.7071
vn -0.7071 0.0008 -0.7071
vn 0.2588 0.0002 -0.9659
vn 0.9659 0.0008 -0.2588
vn 1.0000 -0.0001 -0.0000
vn 0.7934 0.0001 0.6088
vn 0.7934 -0.0001 0.6088
vn 0.7071 -0.0009 -0.7071
vn 0.7071 -0.0000 -0.7071
vn -0.2588 -0.0002 0.9659
vn 0.1305 -0.0000 0.9914
vn -0.7934 -0.0001 -0.6088
vn -0.7934 0.0001 -0.6088
vn -0.2588 -0.0002 -0.9659
vn -0.9659 0.0002 0.2588
vn -0.9659 -0.0008 0.2588
vn -0.2588 0.0001 -0.9659
vn -0.5000 -0.0001 -0.8660
vn -0.7933 -0.0000 0.6088
vn -0.7933 -0.0001 0.6088
vn -0.7933 0.0001 0.6088
vn -0.7934 0.0001 0.6088
vn -1.0000 0.0001 -0.0000
vn -0.7934 -0.0001 0.6088
vn -0.9659 0.0002 -0.2588
vn -0.9239 -0.0000 0.3827
vn 0.9239 -0.0000 0.3827
vn 0.9239 -0.0000 -0.3827
vn -0.7071 -0.0002 -0.7071
vn -0.2588 -0.0008 -0.9659
vn -0.0000 -1.0000 -0.0000
vn -0.0000 1.0000 -0.0000
vt 0.218750 0.589175
vt 0.093750 0.089175
vt 0.218750 0.564175
vt 0.093750 0.064175
vt 0.218750 0.589175
vt 0.093750 0.089175
vt 0.218750 0.564175
vt 0.093750 0.064175
vt 0.218750 0.625000
vt 0.093750 0.125000
vt 0.218750 0.625000
vt 0.093750 0.125000
vt 0.218750 0.610825
vt 0.093750 0.110825
vt 0.218750 0.610825
vt 0.093750 0.110825
vt 0.218750 0.685825
vt 0.093750 0.185825
vt 0.218750 0.685825
vt 0.093750 0.185825
vt 0.218750 0.660825
vt 0.093750 0.160825
vt 0.218750 0.660825
vt 0.093750 0.160825
vt 0.218750 0.698325
vt 0.093750 0.198325
vt 0.218750 0.698325
vt 0.093750 0.198325
vt 0.218750 0.687500
vt 0.093750 0.187500
vt 0.218750 0.687500
vt 0.093750 0.187500
vt 0.218750 0.675000
vt 0.093750 0.175000
vt 0.218750 0.675000
vt 0.093750 0.175000
vt 0.218750 0.657925
vt 0.093750 0.157925
vt 0.218750 0.657925
vt 0.093750 0.157925
vt 0.218750 0.603349
vt 0.093750 0.103349
vt 0.218750 0.603349
vt 0.093750 0.103349
vt 0.218750 0.575000
vt 0.093750 0.075000
vt 0.218750 0.575000
vt 0.093750 0.075000
vt 0.218750 0.685825
vt 0.093750 0.185825
vt 0.218750 0.685825
vt 0.093750 0.185825
vt 0.218750 0.637500
vt 0.093750 0.137500
vt 0.218750 0.637500
vt 0.093750 0.137500
vt 0.218750 0.646392
vt 0.093750 0.146392
vt 0.218750 0.646392
vt 0.093750 0.146392
vt 0.218750 0.712500
vt 0.093750 0.212500
vt 0.218750 0.689434
vt 0.093750 0.189434
vt 0.218750 0.712500
vt 0.093750 0.212500
vt 0.218750 0.689434
vt 0.093750 0.189434
vt 0.218750 0.668042
vt 0.093750 0.168042
vt 0.218750 0.668042
vt 0.093750 0.168042
vt 0.218750 0.657925
vt 0.093750 0.157925
vt 0.218750 0.657925
vt 0.093750 0.157925
vt 0.218750 0.668042
vt 0.093750 0.168042
vt 0.218750 0.685825
vt 0.093750 0.185825
vt 0.218750 0.668042
vt 0.093750 0.168042
vt 0.218750 0.685825
vt 0.093750 0.185825
vt 0.218750 0.646651
vt 0.093750 0.146651
vt 0.218750 0.646651
vt 0.093750 0.146651
vt 0.218750 0.660825
vt 0.093750 0.160825
vt 0.218750 0.660825
vt 0.093750 0.160825
vt 0.218750 0.675000
vt 0.093750 0.175000
vt 0.218750 0.675000
vt 0.093750 0.175000
vt 0.218750 0.685825
vt 0.093750 0.185825
vt 0.218750 0.685825
vt 0.093750 0.185825
vt 0.218750 0.626675
vt 0.093750 0.126675
vt 0.218750 0.626675
vt 0.093750 0.126675
vt 0.218750 0.698325
vt 0.093750 0.198325
vt 0.218750 0.698325
vt 0.093750 0.198325
vt 0.218750 0.679575
vt 0.093750 0.179575
vt 0.218750 0.679575
vt 0.093750 0.179575
vt 0.218750 0.646651
vt 0.093750 0.146651
vt 0.218750 0.646651
vt 0.093750 0.146651
vt 0.218750 0.679575
vt 0.093750 0.179575
vt 0.218750 0.679575
vt 0.093750 0.179575
vt 0.218750 0.687500
vt 0.093750 0.187500
vt 0.218750 0.687500
vt 0.093750 0.187500
vt 0.218750 0.675000
vt 0.093750 0.175000
vt 0.218750 0.675000
vt 0.093750 0.175000
vt 0.218750 0.603349
vt 0.093750 0.103349
vt 0.218750 0.575000
vt 0.093750 0.075000
vt 0.218750 0.603349
vt 0.093750 0.103349
vt 0.218750 0.575000
vt 0.093750 0.075000
vt 0.218750 0.564175
vt 0.093750 0.064175
vt 0.218750 0.564175
vt 0.093750 0.064175
vt 0.218750 0.564175
vt 0.093750 0.064175
vt 0.218750 0.564175
vt 0.093750 0.064175
vt 0.218750 0.562500
vt 0.093750 0.062500
vt 0.218750 0.562500
vt 0.093750 0.062500
vt 0.218750 0.639175
vt 0.093750 0.139175
vt 0.218750 0.639175
vt 0.093750 0.139175
vt 0.218750 0.675000
vt 0.093750 0.175000
vt 0.218750 0.675000
vt 0.093750 0.175000
vt 0.218750 0.560566
vt 0.093750 0.060566
vt 0.218750 0.537500
vt 0.093750 0.037500
vt 0.218750 0.560566
vt 0.093750 0.060566
vt 0.218750 0.537500
vt 0.093750 0.037500
vt 0.218750 0.570425
vt 0.093750 0.070425
vt 0.218750 0.570425
vt 0.093750 0.070425
vt 0.218750 0.575000
vt 0.093750 0.075000
vt 0.218750 0.575000
vt 0.093750 0.075000
vt 0.218750 0.623325
vt 0.093750 0.123325
vt 0.218750 0.623325
vt 0.093750 0.123325
vt 0.218750 0.551675
vt 0.093750 0.051675
vt 0.218750 0.551675
vt 0.093750 0.051675
vt 0.218750 0.560566
vt 0.093750 0.060566
vt 0.218750 0.560566
vt 0.093750 0.060566
vt 0.218750 0.551675
vt 0.093750 0.051675
vt 0.218750 0.551675
vt 0.093750 0.051675
vt 0.218750 0.570425
vt 0.093750 0.070425
vt 0.218750 0.570425
vt 0.093750 0.070425
vt 0.218750 0.581958
vt 0.093750 0.081958
vt 0.218750 0.581958
vt 0.093750 0.081958
vt 0.218750 0.646392
vt 0.093750 0.146392
vt 0.218750 0.646392
vt 0.093750 0.146392
vt 0.218750 0.637500
vt 0.093750 0.137500
vt 0.218750 0.637500
vt 0.093750 0.137500
vt 0.218750 0.623325
vt 0.093750 0.123325
vt 0.218750 0.623325
vt 0.093750 0.123325
vt 0.218750 0.610825
vt 0.093750 0.110825
vt 0.218750 0.610825
vt 0.093750 0.110825
vt 0.218750 0.612500
vt 0.093750 0.112500
vt 0.218750 0.612500
vt 0.093750 0.112500
vt 0.218750 0.592075
vt 0.093750 0.092075
vt 0.218750 0.575000
vt 0.093750 0.075000
vt 0.218750 0.592075
vt 0.093750 0.092075
vt 0.218750 0.575000
vt 0.093750 0.075000
vt 0.218750 0.639175
vt 0.093750 0.139175
vt 0.218750 0.639175
vt 0.093750 0.139175
vt 0.218750 0.625000
vt 0.093750 0.125000
vt 0.218750 0.625000
vt 0.093750 0.125000
vt 0.218750 0.525000
vt 0.093750 0.025000
vt 0.218750 0.525000
vt 0.093750 0.025000
vt 0.218750 0.537500
vt 0.093750 0.037500
vt 0.218750 0.537500
vt 0.093750 0.037500
vt 0.218750 0.712500
vt 0.093750 0.212500
vt 0.218750 0.712500
vt 0.093750 0.212500
vt 0.218750 0.689434
vt 0.093750 0.189434
vt 0.218750 0.689434
vt 0.093750 0.189434
vt 0.218750 0.626675
vt 0.093750 0.126675
vt 0.218750 0.626675
vt 0.093750 0.126675
vt 0.218750 0.589175
vt 0.093750 0.089175
vt 0.218750 0.589175
vt 0.093750 0.089175
vt 0.218750 0.603608
vt 0.093750 0.103608
vt 0.218750 0.603608
vt 0.093750 0.103608
vt 0.218750 0.562500
vt 0.093750 0.062500
vt 0.218750 0.562500
vt 0.093750 0.062500
vt 0.218750 0.581958
vt 0.093750 0.081958
vt 0.218750 0.581958
vt 0.093750 0.081958
vt 0.218750 0.592075
vt 0.093750 0.092075
vt 0.218750 0.592075
vt 0.093750 0.092075
vt 0.218750 0.603608
vt 0.093750 0.103608
vt 0.218750 0.603608
vt 0.093750 0.103608
vt 0.218750 0.612500
vt 0.093750 0.112500
vt 0.218750 0.612500
vt 0.093750 0.112500
vt 0.218750 0.725000
vt 0.093750 0.225000
vt 0.218750 0.725000
vt 0.093750 0.225000
vt 0.218750 0.564175
vt 0.093750 0.064175
vt 0.218750 0.564175
vt 0.093750 0.064175
s 0
f 3/5/1 2/3/2 1/1/3
f 2/3/4 3/5/3 4/7/5
f 7/13/6 6/11/7 5/9/7
f 6/11/7 7/13/8 8/15/6
f 11/21/9 10/19/10 9/17/11
f 10/19/12 11/21/13 12/23/9
f 15/29/14 14/27/15 13/25/16
f 14/27/15 15/29/14 16/31/17
f 19/37/18 18/35/9 17/33/19
f 18/35/20 19/37/21 20/39/22
f 23/45/9 22/43/23 21/41/23
f 22/43/23 23/45/13 24/47/9
f 9/17/10 26/51/24 25/49/25
f 26/51/24 9/17/10 10/19/26
f 29/57/27 28/55/28 27/53/29
f 28/55/30 29/57/31 30/59/27
f 33/65/32 32/63/33 31/61/34
f 32/63/35 33/65/34 34/67/33
f 26/51/36 35/69/33 25/49/37
f 35/69/38 26/51/39 36/71/33
f 30/59/27 38/75/40 37/73/41
f 38/75/41 30/59/31 29/57/27
f 41/81/42 40/79/43 39/77/7
f 40/79/12 41/81/7 42/83/44
f 45/89/45 44/87/33 43/85/33
f 44/87/33 45/89/46 46/91/45
f 48/95/45 38/75/47 47/93/46
f 38/75/48 48/95/49 37/73/50
f 50/99/51 45/89/45 49/97/37
f 45/89/46 50/99/52 46/91/45
f 28/55/30 51/101/53 27/53/29
f 51/101/54 28/55/30 52/103/55
f 32/63/33 54/107/56 53/105/57
f 54/107/58 32/63/38 34/67/33
f 35/69/33 56/111/59 55/109/60
f 56/111/61 35/69/35 36/71/33
f 57/113/7 12/23/20 11/21/9
f 12/23/9 57/113/7 58/115/7
f 55/109/61 48/95/45 47/93/46
f 48/95/49 55/109/62 56/111/59
f 59/117/63 41/81/64 39/77/7
f 41/81/7 59/117/65 60/119/63
f 54/107/58 61/121/66 53/105/57
f 61/121/66 54/107/58 62/123/67
f 63/125/3 61/121/68 62/123/67
f 61/121/69 63/125/1 64/127/3
f 63/125/1 57/113/27 64/127/3
f 57/113/27 63/125/3 58/115/27
f 67/133/27 66/131/45 65/129/27
f 66/131/46 67/133/27 68/135/45
f 71/141/70 70/139/71 69/137/72
f 70/139/71 71/141/70 72/143/73
f 66/131/45 74/147/74 73/145/29
f 74/147/28 66/131/46 68/135/45
f 75/149/75 5/9/76 6/11/76
f 5/9/76 75/149/77 76/151/75
f 16/31/78 78/155/79 77/153/80
f 78/155/80 16/31/14 15/29/81
f 81/161/82 80/159/83 79/157/84
f 80/159/85 81/161/84 82/163/83
f 85/169/86 84/167/87 83/165/88
f 84/167/89 85/169/80 86/171/79
f 87/173/90 8/15/91 7/13/6
f 8/15/6 87/173/15 88/175/92
f 81/161/84 90/179/93 89/177/55
f 90/179/54 81/161/94 79/157/84
f 93/185/95 92/183/96 91/181/76
f 92/183/76 93/185/97 94/187/98
f 40/79/10 50/99/24 49/97/25
f 50/99/24 40/79/10 42/83/26
f 97/193/84 96/191/99 95/189/100
f 96/191/100 97/193/82 98/195/84
f 101/201/101 100/199/102 99/197/23
f 100/199/23 101/201/103 102/203/104
f 43/85/23 77/153/86 78/155/80
f 77/153/80 43/85/23 44/87/23
f 105/209/6 104/207/105 103/205/57
f 104/207/56 105/209/8 106/211/6
f 104/207/58 107/213/66 103/205/57
f 107/213/66 104/207/106 108/215/67
f 111/221/107 110/219/108 109/217/109
f 110/219/3 111/221/110 112/223/1
f 95/189/100 110/219/3 112/223/1
f 110/219/108 95/189/111 96/191/99
f 115/229/84 114/227/112 113/225/75
f 114/227/75 115/229/84 116/231/84
f 119/237/113 118/235/75 117/233/114
f 118/235/112 119/237/115 120/239/116
f 123/245/7 122/243/117 121/241/118
f 122/243/118 123/245/42 124/247/7
f 126/251/95 101/201/101 125/249/98
f 101/201/101 126/251/95 102/203/104
f 116/231/33 106/211/91 105/209/6
f 106/211/6 116/231/33 115/229/33
f 72/143/119 128/255/86 127/253/80
f 128/255/80 72/143/70 71/141/120
f 113/225/75 51/101/121 52/103/55
f 51/101/93 113/225/77 114/227/75
f 129/257/27 107/213/69 108/215/122
f 107/213/66 129/257/123 130/259/27
f 130/259/27 111/221/124 109/217/125
f 111/221/125 130/259/123 129/257/27
f 97/193/94 70/139/126 98/195/84
f 70/139/127 97/193/84 69/137/5
f 67/133/76 127/253/79 128/255/80
f 127/253/80 67/133/76 65/129/76
f 13/25/128 124/247/42 123/245/7
f 124/247/7 13/25/90 14/27/92
f 120/239/113 91/181/96 92/183/76
f 91/181/76 120/239/116 119/237/113
f 17/33/13 60/119/129 59/117/65
f 60/119/63 17/33/9 18/35/20
f 20/39/130 99/197/102 100/199/23
f 99/197/23 20/39/131 19/37/130
f 74/147/30 90/179/54 73/145/29
f 90/179/54 74/147/30 89/177/55
f 94/187/132 132/263/133 131/261/134
f 132/263/133 94/187/132 93/185/135
f 83/165/89 134/267/136 133/265/76
f 134/267/76 83/165/88 84/167/89
f 86/171/79 136/271/137 135/269/138
f 136/271/139 86/171/80 85/169/86
f 135/269/140 138/275/141 137/273/23
f 138/275/23 135/269/142 136/271/140
f 139/277/143 137/273/141 138/275/23
f 137/273/23 139/277/78 140/279/81
f 139/277/143 87/173/128 140/279/81
f 87/173/128 139/277/143 88/175/92
f 121/241/118 142/283/6 141/281/8
f 142/283/91 121/241/144 122/243/117
f 141/281/8 33/65/145 31/61/34
f 33/65/32 141/281/6 142/283/91
f 82/163/146 118/235/112 80/159/85
f 118/235/75 82/163/83 117/233/77
f 131/261/103 24/47/20 23/45/9
f 24/47/9 131/261/133 132/263/104
f 3/5/3 21/41/84 22/43/84
f 21/41/84 3/5/1 1/1/3
f 143/285/147 133/265/136 134/267/76
f 133/265/76 143/285/119 144/287/120
f 144/287/70 2/3/71 4/7/72
f 2/3/71 144/287/70 143/285/73
f 126/251/97 76/151/112 75/149/75
f 76/151/75 126/251/132 125/249/148
f 74/148/149 81/162/149 89/178/149
f 81/162/149 74/148/149 91/182/149
f 119/238/149 81/162/149 91/182/149
f 119/238/149 82/164/149 81/162/149
f 82/164/149 119/238/149 117/234/149
f 132/264/149 91/182/149 74/148/149
f 91/182/149 132/264/149 93/186/149
f 132/264/149 74/148/149 68/136/149
f 132/264/149 68/136/149 24/48/149
f 24/48/149 68/136/149 67/134/149
f 24/48/149 67/134/149 22/44/149
f 138/276/149 22/44/149 67/134/149
f 136/272/149 22/44/149 138/276/149
f 136/272/149 3/6/149 22/44/149
f 67/134/149 129/258/149 138/276/149
f 138/276/149 129/258/149 139/278/149
f 136/272/149 133/266/149 3/6/149
f 85/170/149 133/266/149 136/272/149
f 133/266/149 85/170/149 83/166/149
f 144/288/149 3/6/149 133/266/149
f 3/6/149 144/288/149 4/8/149
f 67/134/149 111/222/149 129/258/149
f 128/256/149 111/222/149 67/134/149
f 139/278/149 129/258/149 8/16/149
f 139/278/149 8/16/149 88/176/149
f 129/258/149 106/212/149 8/16/149
f 106/212/149 129/258/149 108/216/149
f 106/212/149 108/216/149 104/208/149
f 106/212/149 6/12/149 8/16/149
f 6/12/149 106/212/149 115/230/149
f 6/12/149 115/230/149 75/150/149
f 75/150/149 115/230/149 113/226/149
f 97/194/149 111/222/149 128/256/149
f 97/194/149 112/224/149 111/222/149
f 112/224/149 97/194/149 95/190/149
f 128/256/149 69/138/149 97/194/149
f 69/138/149 128/256/149 71/142/149
f 113/226/149 30/60/149 75/150/149
f 113/226/149 28/56/149 30/60/149
f 28/56/149 113/226/149 52/104/149
f 75/150/149 30/60/149 100/200/149
f 102/204/149 75/150/149 100/200/149
f 75/150/149 102/204/149 126/252/149
f 100/200/149 30/60/149 44/88/149
f 100/200/149 44/88/149 20/40/149
f 44/88/149 30/60/149 58/116/149
f 37/74/149 58/116/149 30/60/149
f 58/116/149 37/74/149 12/24/149
f 63/126/149 44/88/149 58/116/149
f 12/24/149 37/74/149 48/96/149
f 44/88/149 63/126/149 77/154/149
f 20/40/149 44/88/149 46/92/149
f 77/154/149 63/126/149 62/124/149
f 20/40/149 46/92/149 18/36/149
f 77/154/149 62/124/149 16/32/149
f 12/24/149 48/96/149 36/72/149
f 36/72/149 48/96/149 56/112/149
f 36/72/149 10/20/149 12/24/149
f 10/20/149 36/72/149 26/52/149
f 18/36/149 46/92/149 41/82/149
f 18/36/149 41/82/149 60/120/149
f 50/100/149 41/82/149 46/92/149
f 41/82/149 50/100/149 42/84/149
f 16/32/149 62/124/149 34/68/149
f 34/68/149 62/124/149 54/108/149
f 124/248/149 16/32/149 34/68/149
f 16/32/149 124/248/149 14/28/149
f 33/66/149 124/248/149 34/68/149
f 124/248/149 33/66/149 122/244/149
f 122/244/149 33/66/149 142/284/149
f 131/262/150 92/184/150 94/188/150
f 92/184/150 131/262/150 79/158/150
f 80/160/150 92/184/150 79/158/150
f 80/160/150 120/240/150 92/184/150
f 120/240/150 80/160/150 118/236/150
f 73/146/150 79/158/150 131/262/150
f 79/158/150 73/146/150 90/180/150
f 73/146/150 131/262/150 23/46/150
f 73/146/150 23/46/150 66/132/150
f 66/132/150 23/46/150 21/42/150
f 66/132/150 21/42/150 65/130/150
f 21/42/150 137/274/150 65/130/150
f 21/42/150 135/270/150 137/274/150
f 1/2/150 135/270/150 21/42/150
f 130/260/150 65/130/150 137/274/150
f 130/260/150 137/274/150 140/280/150
f 134/268/150 135/270/150 1/2/150
f 134/268/150 86/172/150 135/270/150
f 86/172/150 134/268/150 84/168/150
f 1/2/150 143/286/150 134/268/150
f 143/286/150 1/2/150 2/4/150
f 109/218/150 65/130/150 130/260/150
f 109/218/150 127/254/150 65/130/150
f 130/260/150 140/280/150 7/14/150
f 7/14/150 140/280/150 87/174/150
f 105/210/150 130/260/150 7/14/150
f 130/260/150 105/210/150 107/214/150
f 107/214/150 105/210/150 103/206/150
f 5/10/150 105/210/150 7/14/150
f 105/210/150 5/10/150 116/232/150
f 116/232/150 5/10/150 76/152/150
f 116/232/150 76/152/150 114/228/150
f 109/218/150 98/196/150 127/254/150
f 110/220/150 98/196/150 109/218/150
f 98/196/150 110/220/150 96/192/150
f 70/140/150 127/254/150 98/196/150
f 127/254/150 70/140/150 72/144/150
f 76/152/150 99/198/150 114/228/150
f 76/152/150 101/202/150 99/198/150
f 101/202/150 76/152/150 125/250/150
f 29/58/150 114/228/150 99/198/150
f 27/54/150 114/228/150 29/58/150
f 114/228/150 27/54/150 51/102/150
f 29/58/150 99/198/150 43/86/150
f 43/86/150 99/198/150 19/38/150
f 57/114/150 29/58/150 43/86/150
f 29/58/150 57/114/150 38/76/150
f 43/86/150 19/38/150 45/90/150
f 78/156/150 57/114/150 43/86/150
f 45/90/150 19/38/150 17/34/150
f 57/114/150 78/156/150 64/128/150
f 38/76/150 57/114/150 11/22/150
f 64/128/150 78/156/150 15/30/150
f 38/76/150 11/22/150 47/94/150
f 64/128/150 15/30/150 61/122/150
f 45/90/150 17/34/150 39/78/150
f 39/78/150 17/34/150 59/118/150
f 39/78/150 49/98/150 45/90/150
f 49/98/150 39/78/150 40/80/150
f 47/94/150 11/22/150 35/70/150
f 47/94/150 35/70/150 55/110/150
f 9/18/150 35/70/150 11/22/150
f 35/70/150 9/18/150 25/50/150
f 61/122/150 15/30/150 123/246/150
f 123/246/150 15/30/150 13/26/150
f 32/64/150 61/122/150 123/246/150
f 61/122/150 32/64/150 53/106/150
f 121/242/150 32/64/150 123/246/150
f 32/64/150 121/242/150 31/62/150
f 31/62/150 121/242/150 141/282/150
f 3/5/1 2/3/2 1/1/3
f 2/3/4 3/5/3 4/7/5
f 7/13/6 6/11/7 5/9/7
f 6/11/7 7/13/8 8/15/6
f 11/21/9 10/19/10 9/17/11
f 10/19/12 11/21/13 12/23/9
f 15/29/14 14/27/15 13/25/16
f 14/27/15 15/29/14 16/31/17
f 19/37/18 18/35/9 17/33/19
f 18/35/20 19/37/21 20/39/22
f 23/45/9 22/43/23 21/41/23
f 22/43/23 23/45/13 24/47/9
f 9/17/10 26/51/24 25/49/25
f 26/51/24 9/17/10 10/19/26
f 29/57/27 28/55/28 27/53/29
f 28/55/30 29/57/31 30/59/27
f 33/65/32 32/63/33 31/61/34
f 32/63/35 33/65/34 34/67/33
f 26/51/36 35/69/33 25/49/37
f 35/69/38 26/51/39 36/71/33
f 30/59/27 38/75/40 37/73/41
f 38/75/41 30/59/31 29/57/27
f 41/81/42 40/79/43 39/77/7
f 40/79/12 41/81/7 42/83/44
f 45/89/45 44/87/33 43/85/33
f 44/87/33 45/89/46 46/91/45
f 48/95/45 38/75/47 47/93/46
f 38/75/48 48/95/49 37/73/50
f 50/99/51 45/89/45 49/97/37
f 45/89/46 50/99/52 46/91/45
f 28/55/30 51/101/53 27/53/29
f 51/101/54 28/55/30 52/103/55
f 32/63/33 54/107/56 53/105/57
f 54/107/58 32/63/38 34/67/33
f 35/69/33 56/111/59 55/109/60
f 56/111/61 35/69/35 36/71/33
f 57/113/7 12/23/20 11/21/9
f 12/23/9 57/113/7 58/115/7
f 55/109/61 48/95/45 47/93/46
f 48/95/49 55/109/62 56/111/59
f 59/117/63 41/81/64 39/77/7
f 41/81/7 59/117/65 60/119/63
f 54/107/58 61/121/66 53/105/57
f 61/121/66 54/107/58 62/123/67
f 63/125/3 61/121/68 62/123/67
f 61/121/69 63/125/1 64/127/3
f 63/125/1 57/113/27 64/127/3
f 57/113/27 63/125/3 58/115/27
f 67/133/27 66/131/45 65/129/27
f 66/131/46 67/133/27 68/135/45
f 71/141/70 70/139/71 69/137/72
f 70/139/71 71/141/70 72/143/73
f 66/131/45 74/147/74 73/145/29
f 74/147/28 66/131/46 68/135/45
f 75/149/75 5/9/76 6/11/76
f 5/9/76 75/149/77 76/151/75
f 16/31/78 78/155/79 77/153/80
f 78/155/80 16/31/14 15/29/81
f 81/161/82 80/159/83 79/157/84
f 80/159/85 81/161/84 82/163/83
f 85/169/86 84/167/87 83/165/88
f 84/167/89 85/169/80 86/171/79
f 87/173/90 8/15/91 7/13/6
f 8/15/6 87/173/15 88/175/92
f 81/161/84 90/179/93 89/177/55
f 90/179/54 81/161/94 79/157/84
f 93/185/95 92/183/96 91/181/76
f 92/183/76 93/185/97 94/187/98
f 40/79/10 50/99/24 49/97/25
f 50/99/24 40/79/10 42/83/26
f 97/193/84 96/191/99 95/189/100
f 96/191/100 97/193/82 98/195/84
f 101/201/101 100/199/102 99/197/23
f 100/199/23 101/201/103 102/203/104
f 43/85/23 77/153/86 78/155/80
f 77/153/80 43/85/23 44/87/23
f 105/209/6 104/207/105 103/205/57
f 104/207/56 105/209/8 106/211/6
f 104/207/58 107/213/66 103/205/57
f 107/213/66 104/207/106 108/215/67
f 111/221/107 110/219/108 109/217/109
f 110/219/3 111/221/110 112/223/1
f 95/189/100 110/219/3 112/223/1
f 110/219/108 95/189/111 96/191/99
f 115/229/84 114/227/112 113/225/75
f 114/227/75 115/229/84 116/231/84
f 119/237/113 118/235/75 117/233/114
f 118/235/112 119/237/115 120/239/116
f 123/245/7 122/243/117 121/241/118
f 122/243/118 123/245/42 124/247/7
f 126/251/95 101/201/101 125/249/98
f 101/201/101 126/251/95 102/203/104
f 116/231/33 106/211/91 105/209/6
f 106/211/6 116/231/33 115/229/33
f 72/143/119 128/255/86 127/253/80
f 128/255/80 72/143/70 71/141/120
f 113/225/75 51/101/121 52/103/55
f 51/101/93 113/225/77 114/227/75
f 129/257/27 107/213/69 108/215/122
f 107/213/66 129/257/123 130/259/27
f 130/259/27 111/221/124 109/217/125
f 111/221/125 130/259/123 129/257/27
f 97/193/94 70/139/126 98/195/84
f 70/139/127 97/193/84 69/137/5
f 67/133/76 127/253/79 128/255/80
f 127/253/80 67/133/76 65/129/76
f 13/25/128 124/247/42 123/245/7
f 124/247/7 13/25/90 14/27/92
f 120/239/113 91/181/96 92/183/76
f 91/181/76 120/239/116 119/237/113
f 17/33/13 60/119/129 59/117/65
f 60/119/63 17/33/9 18/35/20
f 20/39/130 99/197/102 100/199/23
f 99/197/23 20/39/131 19/37/130
f 74/147/30 90/179/54 73/145/29
f 90/179/54 74/147/30 89/177/55
f 94/187/132 132/263/133 131/261/134
f 132/263/133 94/187/132 93/185/135
f 83/165/89 134/267/136 133/265/76
f 134/267/76 83/165/88 84/167/89
f 86/171/79 136/271/137 135/269/138
f 136/271/139 86/171/80 85/169/86
f 135/269/140 138/275/141 137/273/23
f 138/275/23 135/269/142 136/271/140
f 139/277/143 137/273/141 138/275/23
f 137/273/23 139/277/78 140/279/81
f 139/277/143 87/173/128 140/279/81
f 87/173/128 139/277/143 88/175/92
f 121/241/118 142/283/6 141/281/8
f 142/283/91 121/241/144 122/243/117
f 141/281/8 33/65/145 31/61/34
f 33/65/32 141/281/6 142/283/91
f 82/163/146 118/235/112 80/159/85
f 118/235/75 82/163/83 117/233/77
f 131/261/103 24/47/20 23/45/9
f 24/47/9 131/261/133 132/263/104
f 3/5/3 21/41/84 22/43/84
f 21/41/84 3/5/1 1/1/3
f 143/285/147 133/265/136 134/267/76
f 133/265/76 143/285/119 144/287/120
f 144/287/70 2/3/71 4/7/72
f 2/3/71 144/287/70 143/285/73
f 126/251/97 76/151/112 75/149/75
f 76/151/75 126/251/132 125/249/148
f 74/148/149 81/162/149 89/178/149
f 81/162/149 74/148/149 91/182/149
f 119/238/149 81/162/149 91/182/149
f 119/238/149 82/164/149 81/162/149
f 82/164/149 119/238/149 117/234/149
f 132/264/149 91/182/149 74/148/149
f 91/182/149 132/264/149 93/186/149
f 132/264/149 74/148/149 68/136/149
f 132/264/149 68/136/149 24/48/149
f 24/48/149 68/136/149 67/134/149
f 24/48/149 67/134/149 22/44/149
f 138/276/149 22/44/149 67/134/149
f 136/272/149 22/44/149 138/276/149
f 136/272/149 3/6/149 22/44/149
f 67/134/149 129/258/149 138/276/149
f 138/276/149 129/258/149 139/278/149
f 136/272/149 133/266/149 3/6/149
f 85/170/149 133/266/149 136/272/149
f 133/266/149 85/170/149 83/166/149
f 144/288/149 3/6/149 133/266/149
f 3/6/149 144/288/149 4/8/149
f 67/134/149 111/222/149 129/258/149
f 128/256/149 111/222/149 67/134/149
f 139/278/149 129/258/149 8/16/149
f 139/278/149 8/16/149 88/176/149
f 129/258/149 106/212/149 8/16/149
f 106/212/149 129/258/149 108/216/149
f 106/212/149 108/216/149 104/208/149
f 106/212/149 6/12/149 8/16/149
f 6/12/149 106/212/149 115/230/149
f 6/12/149 115/230/149 75/150/149
f 75/150/149 115/230/149 113/226/149
f 97/194/149 111/222/149 128/256/149
f 97/194/149 112/224/149 111/222/149
f 112/224/149 97/194/149 95/190/149
f 128/256/149 69/138/149 97/194/149
f 69/138/149 128/256/149 71/142/149
f 113/226/149 30/60/149 75/150/149
f 113/226/149 28/56/149 30/60/149
f 28/56/149 113/226/149 52/104/149
f 75/150/149 30/60/149 100/200/149
f 102/204/149 75/150/149 100/200/149
f 75/150/149 102/204/149 126/252/149
f 100/200/149 30/60/149 44/88/149
f 100/200/149 44/88/149 20/40/149
f 44/88/149 30/60/149 58/116/149
f 37/74/149 58/116/149 30/60/149
f 58/116/149 37/74/149 12/24/149
f 63/126/149 44/88/149 58/116/149
f 12/24/149 37/74/149 48/96/149
f 44/88/149 63/126/149 77/154/149
f 20/40/149 44/88/149 46/92/149
f 77/154/149 63/126/149 62/124/149
f 20/40/149 46/92/149 18/36/149
f 77/154/149 62/124/149 16/32/149
f 12/24/149 48/96/149 36/72/149
f 36/72/149 48/96/149 56/112/149
f 36/72/149 10/20/149 12/24/149
f 10/20/149 36/72/149 26/52/149
f 18/36/149 46/92/149 41/82/149
f 18/36/149 41/82/149 60/120/149
f 50/100/149 41/82/149 46/92/149
f 41/82/149 50/100/149 42/84/149
f 16/32/149 62/124/149 34/68/149
f 34/68/149 62/124/149 54/108/149
f 124/248/149 16/32/149 34/68/149
f 16/32/149 124/248/149 14/28/149
f 33/66/149 124/248/149 34/68/149
f 124/248/149 33/66/149 122/244/149
f 122/244/149 33/66/149 142/284/149
f 131/262/150 92/184/150 94/188/150
f 92/184/150 131/262/150 79/158/150
f 80/160/150 92/184/150 79/158/150
f 80/160/150 120/240/150 92/184/150
f 120/240/150 80/160/150 118/236/150
f 73/146/150 79/158/150 131/262/150
f 79/158/150 73/146/150 90/180/150
f 73/146/150 131/262/150 23/46/150
f 73/146/150 23/46/150 66/132/150
f 66/132/150 23/46/150 21/42/150
f 66/132/150 21/42/150 65/130/150
f 21/42/150 137/274/150 65/130/150
f 21/42/150 135/270/150 137/274/150
f 1/2/150 135/270/150 21/42/150
f 130/260/150 65/130/150 137/274/150
f 130/260/150 137/274/150 140/280/150
f 134/268/150 135/270/150 1/2/150
f 134/268/150 86/172/150 135/270/150
f 86/172/150 134/268/150 84/168/150
f 1/2/150 143/286/150 134/268/150
f 143/286/150 1/2/150 2/4/150
f 109/218/150 65/130/150 130/260/150
f 109/218/150 127/254/150 65/130/150
f 130/260/150 140/280/150 7/14/150
f 7/14/150 140/280/150 87/174/150
f 105/210/150 130/260/150 7/14/150
f 130/260/150 105/210/150 107/214/150
f 107/214/150 105/210/150 103/206/150
f 5/10/150 105/210/150 7/14/150
f 105/210/150 5/10/150 116/232/150
f 116/232/150 5/10/150 76/152/150
f 116/232/150 76/152/150 114/228/150
f 109/218/150 98/196/150 127/254/150
f 110/220/150 98/196/150 109/218/150
f 98/196/150 110/220/150 96/192/150
f 70/140/150 127/254/150 98/196/150
f 127/254/150 70/140/150 72/144/150
f 76/152/150 99/198/150 114/228/150
f 76/152/150 101/202/150 99/198/150
f 101/202/150 76/152/150 125/250/150
f 29/58/150 114/228/150 99/198/150
f 27/54/150 114/228/150 29/58/150
f 114/228/150 27/54/150 51/102/150
f 29/58/150 99/198/150 43/86/150
f 43/86/150 99/198/150 19/38/150
f 57/114/150 29/58/150 43/86/150
f 29/58/150 57/114/150 38/76/150
f 43/86/150 19/38/150 45/90/150
f 78/156/150 57/114/150 43/86/150
f 45/90/150 19/38/150 17/34/150
f 57/114/150 78/156/150 64/128/150
f 38/76/150 57/114/150 11/22/150
f 64/128/150 78/156/150 15/30/150
f 38/76/150 11/22/150 47/94/150
f 64/128/150 15/30/150 61/122/150
f 45/90/150 17/34/150 39/78/150
f 39/78/150 17/34/150 59/118/150
f 39/78/150 49/98/150 45/90/150
f 49/98/150 39/78/150 40/80/150
f 47/94/150 11/22/150 35/70/150
f 47/94/150 35/70/150 55/110/150
f 9/18/150 35/70/150 11/22/150
f 35/70/150 9/18/150 25/50/150
f 61/122/150 15/30/150 123/246/150
f 123/246/150 15/30/150 13/26/150
f 32/64/150 61/122/150 123/246/150
f 61/122/150 32/64/150 53/106/150
f 121/242/150 32/64/150 123/246/150
f 32/64/150 121/242/150 31/62/150
f 31/62/150 121/242/150 141/282/150
